  0
SECTION
  2
HEADER
  9
$ACADVER
  1
AC1015
  9
$ACADMAINTVER
 70
     6
  9
$DWGCODEPAGE
  3
ANSI_1252
  9
$INSBASE
 10
0.0
 20
0.0
 30
0.0
  9
$EXTMIN
 10
-252.4537716837
 20
17.4377157715
 30
0.0
  9
$EXTMAX
 10
-160.0514776566
 20
81.1357974444
 30
0.0
  9
$LIMMIN
 10
0.0
 20
0.0
  9
$LIMMAX
 10
420.0
 20
297.0
  9
$ORTHOMODE
 70
     0
  9
$REGENMODE
 70
     1
  9
$FILLMODE
 70
     1
  9
$QTEXTMODE
 70
     0
  9
$MIRRTEXT
 70
     1
  9
$LTSCALE
 40
1.0
  9
$ATTMODE
 70
     1
  9
$TEXTSIZE
 40
3.5
  9
$TRACEWID
 40
1.0
  9
$TEXTSTYLE
  7
Standard
  9
$CLAYER
  8
0
  9
$CELTYPE
  6
ByLayer
  9
$CECOLOR
 62
   256
  9
$CELTSCALE
 40
1.0
  9
$DISPSILH
 70
     0
  9
$DIMSCALE
 40
1.0
  9
$DIMASZ
 40
3.302
  9
$DIMEXO
 40
0.0
  9
$DIMDLI
 40
3.75
  9
$DIMRND
 40
0.0
  9
$DIMDLE
 40
0.0
  9
$DIMEXE
 40
1.0
  9
$DIMTP
 40
0.0
  9
$DIMTM
 40
0.0
  9
$DIMTXT
 40
3.5
  9
$DIMCEN
 40
2.5
  9
$DIMTSZ
 40
0.0
  9
$DIMTOL
 70
     0
  9
$DIMLIM
 70
     0
  9
$DIMTIH
 70
     1
  9
$DIMTOH
 70
     1
  9
$DIMSE1
 70
     0
  9
$DIMSE2
 70
     0
  9
$DIMTAD
 70
     1
  9
$DIMZIN
 70
     1
  9
$DIMBLK
  1

  9
$DIMASO
 70
     1
  9
$DIMSHO
 70
     1
  9
$DIMPOST
  1

  9
$DIMAPOST
  1

  9
$DIMALT
 70
     0
  9
$DIMALTD
 70
     3
  9
$DIMALTF
 40
0.0393700787
  9
$DIMLFAC
 40
1.0
  9
$DIMTOFL
 70
     1
  9
$DIMTVP
 40
0.0
  9
$DIMTIX
 70
     0
  9
$DIMSOXD
 70
     0
  9
$DIMSAH
 70
     0
  9
$DIMBLK1
  1

  9
$DIMBLK2
  1

  9
$DIMSTYLE
  2
ISO-25
  9
$DIMCLRD
 70
     0
  9
$DIMCLRE
 70
     0
  9
$DIMCLRT
 70
     0
  9
$DIMTFAC
 40
1.0
  9
$DIMGAP
 40
1.524
  9
$DIMJUST
 70
     0
  9
$DIMSD1
 70
     0
  9
$DIMSD2
 70
     0
  9
$DIMTOLJ
 70
     0
  9
$DIMTZIN
 70
     1
  9
$DIMALTZ
 70
     0
  9
$DIMALTTZ
 70
     0
  9
$DIMUPT
 70
     0
  9
$DIMDEC
 70
     2
  9
$DIMTDEC
 70
     2
  9
$DIMALTU
 70
     2
  9
$DIMALTTD
 70
     3
  9
$DIMTXSTY
  7
Standard
  9
$DIMAUNIT
 70
     0
  9
$DIMADEC
 70
     2
  9
$DIMALTRND
 40
0.0
  9
$DIMAZIN
 70
     0
  9
$DIMDSEP
 70
    44
  9
$DIMATFIT
 70
     3
  9
$DIMFRAC
 70
     0
  9
$DIMLDRBLK
  1

  9
$DIMLUNIT
 70
     2
  9
$DIMLWD
 70
    -2
  9
$DIMLWE
 70
    -2
  9
$DIMTMOVE
 70
     0
  9
$LUNITS
 70
     2
  9
$LUPREC
 70
     2
  9
$SKETCHINC
 40
1.0
  9
$FILLETRAD
 40
0.0
  9
$AUNITS
 70
     0
  9
$AUPREC
 70
     2
  9
$MENU
  1
.
  9
$ELEVATION
 40
0.0
  9
$PELEVATION
 40
0.0
  9
$THICKNESS
 40
0.0
  9
$LIMCHECK
 70
     0
  9
$CHAMFERA
 40
0.0
  9
$CHAMFERB
 40
0.0
  9
$CHAMFERC
 40
0.0
  9
$CHAMFERD
 40
0.0
  9
$SKPOLY
 70
     0
  9
$TDCREATE
 40
2460369.052792095
  9
$TDUCREATE
 40
2460369.261125428
  9
$TDUPDATE
 40
2460369.0528525
  9
$TDUUPDATE
 40
2460369.261185833
  9
$TDINDWG
 40
0.0000000116
  9
$TDUSRTIMER
 40
0.0000000116
  9
$USRTIMER
 70
     1
  9
$ANGBASE
 50
0.0
  9
$ANGDIR
 70
     0
  9
$PDMODE
 70
     0
  9
$PDSIZE
 40
-1.0
  9
$PLINEWID
 40
0.0
  9
$SPLFRAME
 70
     0
  9
$SPLINETYPE
 70
     6
  9
$SPLINESEGS
 70
     8
  9
$HANDSEED
  5
F8
  9
$SURFTAB1
 70
     6
  9
$SURFTAB2
 70
     6
  9
$SURFTYPE
 70
     6
  9
$SURFU
 70
     6
  9
$SURFV
 70
     6
  9
$UCSBASE
  2

  9
$UCSNAME
  2

  9
$UCSORG
 10
0.0
 20
0.0
 30
0.0
  9
$UCSXDIR
 10
1.0
 20
0.0
 30
0.0
  9
$UCSYDIR
 10
0.0
 20
1.0
 30
0.0
  9
$UCSORTHOREF
  2

  9
$UCSORTHOVIEW
 70
     0
  9
$UCSORGTOP
 10
0.0
 20
0.0
 30
0.0
  9
$UCSORGBOTTOM
 10
0.0
 20
0.0
 30
0.0
  9
$UCSORGLEFT
 10
0.0
 20
0.0
 30
0.0
  9
$UCSORGRIGHT
 10
0.0
 20
0.0
 30
0.0
  9
$UCSORGFRONT
 10
0.0
 20
0.0
 30
0.0
  9
$UCSORGBACK
 10
0.0
 20
0.0
 30
0.0
  9
$PUCSBASE
  2

  9
$PUCSNAME
  2

  9
$PUCSORG
 10
0.0
 20
0.0
 30
0.0
  9
$PUCSXDIR
 10
1.0
 20
0.0
 30
0.0
  9
$PUCSYDIR
 10
0.0
 20
1.0
 30
0.0
  9
$PUCSORTHOREF
  2

  9
$PUCSORTHOVIEW
 70
     0
  9
$PUCSORGTOP
 10
0.0
 20
0.0
 30
0.0
  9
$PUCSORGBOTTOM
 10
0.0
 20
0.0
 30
0.0
  9
$PUCSORGLEFT
 10
0.0
 20
0.0
 30
0.0
  9
$PUCSORGRIGHT
 10
0.0
 20
0.0
 30
0.0
  9
$PUCSORGFRONT
 10
0.0
 20
0.0
 30
0.0
  9
$PUCSORGBACK
 10
0.0
 20
0.0
 30
0.0
  9
$USERI1
 70
     0
  9
$USERI2
 70
     0
  9
$USERI3
 70
     0
  9
$USERI4
 70
     0
  9
$USERI5
 70
     0
  9
$USERR1
 40
0.0
  9
$USERR2
 40
0.0
  9
$USERR3
 40
0.0
  9
$USERR4
 40
0.0
  9
$USERR5
 40
0.0
  9
$WORLDVIEW
 70
     1
  9
$SHADEDGE
 70
     3
  9
$SHADEDIF
 70
    70
  9
$TILEMODE
 70
     1
  9
$MAXACTVP
 70
    64
  9
$PINSBASE
 10
0.0
 20
0.0
 30
0.0
  9
$PLIMCHECK
 70
     0
  9
$PEXTMIN
 10
1.0000000000E+20
 20
1.0000000000E+20
 30
1.0000000000E+20
  9
$PEXTMAX
 10
-1.0000000000E+20
 20
-1.0000000000E+20
 30
-1.0000000000E+20
  9
$PLIMMIN
 10
0.0
 20
0.0
  9
$PLIMMAX
 10
420.0
 20
297.0
  9
$UNITMODE
 70
     0
  9
$VISRETAIN
 70
     1
  9
$PLINEGEN
 70
     0
  9
$PSLTSCALE
 70
     1
  9
$TREEDEPTH
 70
  3020
  9
$CMLSTYLE
  2
Standard
  9
$CMLJUST
 70
     0
  9
$CMLSCALE
 40
20.0
  9
$PROXYGRAPHICS
 70
     1
  9
$MEASUREMENT
 70
     1
  9
$CELWEIGHT
370
    -1
  9
$ENDCAPS
280
     0
  9
$JOINSTYLE
280
     0
  9
$LWDISPLAY
290
     1
  9
$INSUNITS
 70
     4
  9
$HYPERLINKBASE
  1

  9
$STYLESHEET
  1

  9
$XEDIT
290
     1
  9
$CEPSNTYPE
380
     0
  9
$PSTYLEMODE
290
     1
  9
$FINGERPRINTGUID
  2
{3ec2196b-f7bd-4446-aac1-cf0950094549}
  9
$VERSIONGUID
  2
{FAEB1C32-E019-11D5-929B-00C0DF256EC4}
  9
$EXTNAMES
290
     1
  9
$PSVPSCALE
 40
0.0
  9
$OLESTARTUP
290
     0
  0
ENDSEC
  0
SECTION
  2
CLASSES
  0
CLASS
  1
ACDBDICTIONARYWDFLT
  2
AcDbDictionaryWithDefault
  3
ObjectDBX Classes
 90
        0
280
     0
281
     0
  0
CLASS
  1
VISUALSTYLE
  2
AcDbVisualStyle
  3
ObjectDBX Classes
 90
     4095
280
     0
281
     0
  0
CLASS
  1
MATERIAL
  2
AcDbMaterial
  3
ObjectDBX Classes
 90
     1153
280
     0
281
     0
  0
CLASS
  1
SCALE
  2
AcDbScale
  3
ObjectDBX Classes
 90
     1153
280
     0
281
     0
  0
CLASS
  1
TABLESTYLE
  2
AcDbTableStyle
  3
ObjectDBX Classes
 90
     4095
280
     0
281
     0
  0
CLASS
  1
MLEADERSTYLE
  2
AcDbMLeaderStyle
  3
ACDB_MLEADERSTYLE_CLASS
 90
     4095
280
     0
281
     0
  0
CLASS
  1
SUN
  2
AcDbSun
  3
SCENEOE
 90
     1153
280
     0
281
     0
  0
CLASS
  1
ACDBPLACEHOLDER
  2
AcDbPlaceHolder
  3
ObjectDBX Classes
 90
        0
280
     0
281
     0
  0
CLASS
  1
LAYOUT
  2
AcDbLayout
  3
ObjectDBX Classes
 90
        0
280
     0
281
     0
  0
ENDSEC
  0
SECTION
  2
TABLES
  0
TABLE
  2
VPORT
  5
8
330
0
100
AcDbSymbolTable
 70
     1
  0
VPORT
  5
29
330
8
100
AcDbSymbolTableRecord
100
AcDbViewportTableRecord
  2
*Active
 70
     0
 10
0.0
 20
0.0
 11
1.0
 21
1.0
 12
-206.2526246701
 22
49.286756608
 13
0.0
 23
0.0
 14
10.0
 24
10.0
 15
10.0
 25
10.0
 16
0.0
 26
0.0
 36
1.0
 17
0.0
 27
0.0
 37
0.0
 40
64.9720433064
 41
1.4506291493
 42
50.0
 43
0.0
 44
0.0
 50
0.0
 51
0.0
 71
     0
 72
   100
 73
     1
 74
     3
 75
     0
 76
     0
 77
     0
 78
     0
281
     0
 65
     1
110
0.0
120
0.0
130
0.0
111
1.0
121
0.0
131
0.0
112
0.0
122
1.0
132
0.0
 79
     0
146
0.0
  0
ENDTAB
  0
TABLE
  2
LTYPE
  5
5
330
0
100
AcDbSymbolTable
 70
     6
  0
LTYPE
  5
14
330
5
100
AcDbSymbolTableRecord
100
AcDbLinetypeTableRecord
  2
ByBlock
 70
     0
  3

 72
    65
 73
     0
 40
0.0
  0
LTYPE
  5
15
330
5
100
AcDbSymbolTableRecord
100
AcDbLinetypeTableRecord
  2
ByLayer
 70
     0
  3

 72
    65
 73
     0
 40
0.0
  0
LTYPE
  5
16
330
5
100
AcDbSymbolTableRecord
100
AcDbLinetypeTableRecord
  2
Continuous
 70
     0
  3
Solid line
 72
    65
 73
     0
 40
0.0
  0
LTYPE
  5
5E
330
5
100
AcDbSymbolTableRecord
100
AcDbLinetypeTableRecord
  2
HIDDEN
 70
     0
  3
Hidden __ __ __ __ __ __ __ __ __ __ __ __ __ __
 72
    65
 73
     2
 40
1.905
 49
1.27
 74
     0
 49
-0.635
 74
     0
  0
LTYPE
  5
5F
330
5
100
AcDbSymbolTableRecord
100
AcDbLinetypeTableRecord
  2
PHANTOM
 70
     0
  3
Phantom ______  __  __  ______  __  __  ______
 72
    65
 73
     6
 40
12.7
 49
6.35
 74
     0
 49
-1.27
 74
     0
 49
1.27
 74
     0
 49
-1.27
 74
     0
 49
1.27
 74
     0
 49
-1.27
 74
     0
  0
LTYPE
  5
60
330
5
100
AcDbSymbolTableRecord
100
AcDbLinetypeTableRecord
  2
CENTER
 70
     0
  3
Center ____ _ ____ _ ____ _ ____ _ ____ _ ____
 72
    65
 73
     4
 40
10.16
 49
6.35
 74
     0
 49
-1.27
 74
     0
 49
1.27
 74
     0
 49
-1.27
 74
     0
  0
LTYPE
  5
61
330
5
100
AcDbSymbolTableRecord
100
AcDbLinetypeTableRecord
  2
CENTERX2
 70
     0
  3
Center (2x) ________  __  ________  __  _____
 72
    65
 73
     4
 40
20.32
 49
12.7
 74
     0
 49
-2.54
 74
     0
 49
2.54
 74
     0
 49
-2.54
 74
     0
  0
LTYPE
  5
62
330
5
100
AcDbSymbolTableRecord
100
AcDbLinetypeTableRecord
  2
DOT2
 70
     0
  3
Dot (.5x) ........................................
 72
    65
 73
     2
 40
0.635
 49
0.0
 74
     0
 49
-0.635
 74
     0
  0
ENDTAB
  0
TABLE
  2
LAYER
  5
2
330
0
100
AcDbSymbolTable
 70
     1
  0
LAYER
  5
10
330
2
100
AcDbSymbolTableRecord
100
AcDbLayerTableRecord
  2
0
 70
     0
 62
     7
  6
Continuous
370
    -3
390
F
  0
ENDTAB
  0
TABLE
  2
STYLE
  5
3
330
0
100
AcDbSymbolTable
 70
     2
  0
STYLE
  5
11
330
3
100
AcDbSymbolTableRecord
100
AcDbTextStyleTableRecord
  2
Standard
 70
     0
 40
0.0
 41
1.0
 50
0.0
 71
     0
 42
3.5
  3
txt
  4

  0
STYLE
  5
F4
330
3
100
AcDbSymbolTableRecord
100
AcDbTextStyleTableRecord
  2
SLDTEXTSTYLE0
 70
     0
 40
0.0
 41
0.7
 50
0.0
 71
     0
 42
3.5
  3
TXT
  4

  0
ENDTAB
  0
TABLE
  2
VIEW
  5
6
330
0
100
AcDbSymbolTable
 70
     0
  0
ENDTAB
  0
TABLE
  2
UCS
  5
7
330
0
100
AcDbSymbolTable
 70
     0
  0
ENDTAB
  0
TABLE
  2
APPID
  5
9
330
0
100
AcDbSymbolTable
 70
     1
  0
APPID
  5
12
330
9
100
AcDbSymbolTableRecord
100
AcDbRegAppTableRecord
  2
ACAD
 70
     0
  0
ENDTAB
  0
TABLE
  2
DIMSTYLE
  5
A
330
0
100
AcDbSymbolTable
 70
     1
100
AcDbDimStyleTable
  0
DIMSTYLE
105
27
330
A
100
AcDbSymbolTableRecord
100
AcDbDimStyleTableRecord
  2
ISO-25
 70
     0
 41
2.5
 42
0.625
 43
3.75
 44
1.25
 73
     0
 74
     0
 77
     1
 78
     8
140
2.5
141
2.5
143
0.0393700787
147
0.625
171
     3
172
     1
178
     0
271
     2
272
     2
274
     3
278
    44
283
     0
284
     8
340
11
  0
ENDTAB
  0
TABLE
  2
BLOCK_RECORD
  5
1
330
0
100
AcDbSymbolTable
 70
     1
  0
BLOCK_RECORD
  5
1F
330
1
100
AcDbSymbolTableRecord
100
AcDbBlockTableRecord
  2
*Model_Space
340
22
  0
BLOCK_RECORD
  5
1B
330
1
100
AcDbSymbolTableRecord
100
AcDbBlockTableRecord
  2
*Paper_Space
340
1E
  0
BLOCK_RECORD
  5
23
330
1
100
AcDbSymbolTableRecord
100
AcDbBlockTableRecord
  2
*Paper_Space0
340
26
  0
ENDTAB
  0
ENDSEC
  0
SECTION
  2
BLOCKS
  0
BLOCK
  5
20
330
1F
100
AcDbEntity
  8
0
100
AcDbBlockBegin
  2
*Model_Space
 70
     0
 10
0.0
 20
0.0
 30
0.0
  3
*Model_Space
  1

  0
ENDBLK
  5
21
330
1F
100
AcDbEntity
  8
0
100
AcDbBlockEnd
  0
BLOCK
  5
1C
330
1B
100
AcDbEntity
 67
     1
  8
0
100
AcDbBlockBegin
  2
*Paper_Space
 70
     0
 10
0.0
 20
0.0
 30
0.0
  3
*Paper_Space
  1

  0
ENDBLK
  5
1D
330
1B
100
AcDbEntity
 67
     1
  8
0
100
AcDbBlockEnd
  0
BLOCK
  5
24
330
23
100
AcDbEntity
  8
0
100
AcDbBlockBegin
  2
*Paper_Space0
 70
     0
 10
0.0
 20
0.0
 30
0.0
  3
*Paper_Space0
  1

  0
ENDBLK
  5
25
330
23
100
AcDbEntity
  8
0
100
AcDbBlockEnd
  0
ENDSEC
  0
SECTION
  2
ENTITIES
  0
LINE
  5
63
330
1F
100
AcDbEntity
  8
0
  6
Continuous
 62
     7
370
    25
100
AcDbLine
 10
-216.4498833472
 20
38.6226598668
 30
0.0
 11
-216.7519004991
 21
38.7089504816
 31
0.0
  0
LINE
  5
64
330
1F
100
AcDbEntity
  8
0
  6
Continuous
 62
     7
370
    25
100
AcDbLine
 10
-216.7519004991
 20
38.7089504816
 30
0.0
 11
-215.7657220912
 21
42.160574909
 31
0.0
  0
LINE
  5
65
330
1F
100
AcDbEntity
  8
0
  6
Continuous
 62
     7
370
    25
100
AcDbLine
 10
-215.7657220912
 20
42.160574909
 30
0.0
 11
-215.4637049466
 21
42.0742842962
 31
0.0
  0
LINE
  5
66
330
1F
100
AcDbEntity
  8
0
  6
Continuous
 62
     7
370
    25
100
AcDbLine
 10
-215.4637049466
 20
42.0742842962
 30
0.0
 11
-216.4498833472
 21
38.6226598668
 31
0.0
  0
LINE
  5
67
330
1F
100
AcDbEntity
  8
0
  6
Continuous
 62
     7
370
    25
100
AcDbLine
 10
-217.1284588487
 20
40.9843838039
 30
0.0
 11
-216.9984450938
 21
41.4394319462
 31
0.0
  0
LINE
  5
68
330
1F
100
AcDbEntity
  8
0
  6
Continuous
 62
     7
370
    25
100
AcDbLine
 10
-216.9984450938
 20
41.4394319462
 30
0.0
 11
-216.6964279564
 21
41.3531413355
 31
0.0
  0
LINE
  5
69
330
1F
100
AcDbEntity
  8
0
  6
Continuous
 62
     7
370
    25
100
AcDbLine
 10
-216.6964279564
 20
41.3531413355
 30
0.0
 11
-217.3990800647
 21
38.8938589289
 31
0.0
  0
LINE
  5
6A
330
1F
100
AcDbEntity
  8
0
  6
Continuous
 62
     7
370
    25
100
AcDbLine
 10
-217.3990800647
 20
38.8938589289
 30
0.0
 11
-217.7010972093
 21
38.9801495417
 31
0.0
  0
LINE
  5
6B
330
1F
100
AcDbEntity
  8
0
  6
Continuous
 62
     7
370
    25
100
AcDbLine
 10
-217.7010972093
 20
38.9801495417
 30
0.0
 11
-217.5795584251
 21
39.4055352865
 31
0.0
  0
SPLINE
  5
6C
330
1F
100
AcDbEntity
  8
0
  6
Continuous
 62
     7
370
    25
100
AcDbSpline
210
0.0
220
0.0
230
1.0
 70
     8
 71
     3
 72
    17
 73
    13
 74
     0
 42
0.00000001
 43
0.00000001
 40
0.0
 40
0.0
 40
0.0
 40
0.0
 40
0.000299868125821
 40
0.000299868125821
 40
0.000299868125821
 40
0.0007160950871755
 40
0.0007160950871755
 40
0.0007160950871755
 40
0.0011280796936176
 40
0.0011280796936176
 40
0.0011280796936176
 40
0.0011951039639973
 40
0.0011951039639973
 40
0.0011951039639973
 40
0.0011951039639973
 10
-217.5795584250885
 20
39.40553528652562
 30
0.0
 10
-217.6638053179691
 20
39.35174243049126
 30
0.0
 10
-217.750150023839
 20
39.2996667487275
 30
0.0
 10
-217.8424177483705
 20
39.26122357859068
 30
0.0
 10
-217.9694154374706
 20
39.20831023544866
 30
0.0
 10
-218.1072265713524
 20
39.17612003602267
 30
0.0
 10
-218.2445914818608
 20
39.16843132479913
 30
0.0
 10
-218.3809979617313
 20
39.16079625970963
 30
0.0
 10
-218.5199554742531
 20
39.17459100154352
 30
0.0
 10
-218.6526055751479
 20
39.2072861495344
 30
0.0
 10
-218.6744194417013
 20
39.21266275754608
 30
0.0
 10
-218.6961608907162
 20
39.2183303862257
 30
0.0
 10
-218.7179010794469
 20
39.22399756203639
 30
0.0
  0
SPLINE
  5
6D
330
1F
100
AcDbEntity
  8
0
  6
Continuous
 62
     7
370
    25
100
AcDbSpline
210
0.0
220
0.0
230
1.0
 70
     8
 71
     3
 72
    20
 73
    16
 74
     0
 42
0.00000001
 43
0.00000001
 40
0.0
 40
0.0
 40
0.0
 40
0.0
 40
0.0004690896673594
 40
0.0004690896673594
 40
0.0004690896673594
 40
0.0009434632930476
 40
0.0009434632930476
 40
0.0009434632930476
 40
0.0013699703602138
 40
0.0013699703602138
 40
0.0013699703602138
 40
0.0018379565558844
 40
0.0018379565558844
 40
0.0018379565558844
 40
0.0020846241503055
 40
0.0020846241503055
 40
0.0020846241503055
 40
0.0020846241503055
 10
-218.7179010794469
 20
39.22399756203639
 30
0.0
 10
-218.8670267826548
 20
39.27101864218864
 30
0.0
 10
-219.0142803318332
 20
39.33473809268907
 30
0.0
 10
-219.141310111406
 20
39.42591315746891
 30
0.0
 10
-219.2694422246039
 20
39.51787941735282
 30
0.0
 10
-219.3802790965854
 20
39.63762615977107
 30
0.0
 10
-219.4662417140218
 20
39.76986102579766
 30
0.0
 10
-219.5439640059478
 20
39.88941993601482
 30
0.0
 10
-219.6069125323733
 20
40.02119956886474
 30
0.0
 10
-219.6444934936233
 20
40.1587595885873
 30
0.0
 10
-219.685568858352
 20
40.30911039905752
 30
0.0
 10
-219.6986768544103
 20
40.46976940235822
 30
0.0
 10
-219.6825329317178
 20
40.62479174125407
 30
0.0
 10
-219.6739104026035
 20
40.70758974865061
 30
0.0
 10
-219.6552469726825
 20
40.78924452892555
 30
0.0
 10
-219.634546205012
 20
40.86987539308445
 30
0.0
  0
SPLINE
  5
6E
330
1F
100
AcDbEntity
  8
0
  6
Continuous
 62
     7
370
    25
100
AcDbSpline
210
0.0
220
0.0
230
1.0
 70
     8
 71
     3
 72
    20
 73
    16
 74
     0
 42
0.00000001
 43
0.00000001
 40
0.0
 40
0.0
 40
0.0
 40
0.0
 40
0.0004547934036728
 40
0.0004547934036728
 40
0.0004547934036728
 40
0.0009129527878
 40
0.0009129527878
 40
0.0009129527878
 40
0.001335463461858
 40
0.001335463461858
 40
0.001335463461858
 40
0.0018295854796719
 40
0.0018295854796719
 40
0.0018295854796719
 40
0.0020789482421603
 40
0.0020789482421603
 40
0.0020789482421603
 40
0.0020789482421603
 10
-219.634546205012
 20
40.86987539308445
 30
0.0
 10
-219.5888096383952
 20
41.01440933307832
 30
0.0
 10
-219.5271895071913
 20
41.1574595518984
 30
0.0
 10
-219.4378421515372
 20
41.27992972530254
 30
0.0
 10
-219.3478551619062
 20
41.40327665754854
 30
0.0
 10
-219.2325251076518
 20
41.51081895519587
 30
0.0
 10
-219.1046410902058
 20
41.59423239583454
 30
0.0
 10
-218.9860654507389
 20
41.67157436757884
 30
0.0
 10
-218.8549609754928
 20
41.73254511123788
 30
0.0
 10
-218.7191289704241
 20
41.77244033986582
 30
0.0
 10
-218.5616613508115
 20
41.81869016650099
 30
0.0
 10
-218.3918587282959
 20
41.83325826273995
 30
0.0
 10
-218.2286782787104
 20
41.81573004083057
 30
0.0
 10
-218.1450601766011
 20
41.80674810302408
 30
0.0
 10
-218.0626480088604
 20
41.78765357689353
 30
0.0
 10
-217.981156468123
 20
41.76687399568088
 30
0.0
  0
SPLINE
  5
6F
330
1F
100
AcDbEntity
  8
0
  6
Continuous
 62
     7
370
    25
100
AcDbSpline
210
0.0
220
0.0
230
1.0
 70
     8
 71
     3
 72
    17
 73
    13
 74
     0
 42
0.00000001
 43
0.00000001
 40
0.0
 40
0.0
 40
0.0
 40
0.0
 40
0.000303150558048
 40
0.000303150558048
 40
0.000303150558048
 40
0.0007243027301146
 40
0.0007243027301146
 40
0.0007243027301146
 40
0.0011283480523139
 40
0.0011283480523139
 40
0.0011283480523139
 40
0.0012068330269168
 40
0.0012068330269168
 40
0.0012068330269168
 40
0.0012068330269168
 10
-217.981156468123
 20
41.76687399568088
 30
0.0
 10
-217.8847954550624
 20
41.73644875524138
 30
0.0
 10
-217.788523675383
 20
41.70264190004556
 30
0.0
 10
-217.6993888514133
 20
41.65503808454974
 30
0.0
 10
-217.5765248024524
 20
41.58942066077165
 30
0.0
 10
-217.4616252145464
 20
41.50325282256635
 30
0.0
 10
-217.3689324388325
 20
41.399285182597
 30
0.0
 10
-217.2798643446239
 20
41.29938311924728
 30
0.0
 10
-217.2097533971419
 20
41.18103819573438
 30
0.0
 10
-217.1581047152685
 20
41.05756365856899
 30
0.0
 10
-217.1479483934168
 20
41.03328332663315
 30
0.0
 10
-217.1382032533544
 20
41.00883236154642
 30
0.0
 10
-217.1284588486909
 20
40.98438380391569
 30
0.0
  0
LINE
  5
70
330
1F
100
AcDbEntity
  8
0
  6
Continuous
 62
     7
370
    25
100
AcDbLine
 10
-220.8815225819
 20
42.5488826571
 30
0.0
 11
-220.450069514
 21
42.425610352
 31
0.0
  0
LINE
  5
71
330
1F
100
AcDbEntity
  8
0
  6
Continuous
 62
     7
370
    25
100
AcDbLine
 10
-220.450069514
 20
42.425610352
 30
0.0
 11
-220.1665432362
 21
43.417952379
 31
0.0
  0
LINE
  5
72
330
1F
100
AcDbEntity
  8
0
  6
Continuous
 62
     7
370
    25
100
AcDbLine
 10
-220.1665432362
 20
43.417952379
 30
0.0
 11
-219.8645260915
 21
43.3316617662
 31
0.0
  0
LINE
  5
73
330
1F
100
AcDbEntity
  8
0
  6
Continuous
 62
     7
370
    25
100
AcDbLine
 10
-219.8645260915
 20
43.3316617662
 30
0.0
 11
-220.148052391
 21
42.3393197454
 31
0.0
  0
LINE
  5
74
330
1F
100
AcDbEntity
  8
0
  6
Continuous
 62
     7
370
    25
100
AcDbLine
 10
-220.148052391
 20
42.3393197454
 30
0.0
 11
-219.7165993304
 21
42.2160474424
 31
0.0
  0
LINE
  5
75
330
1F
100
AcDbEntity
  8
0
  6
Continuous
 62
     7
370
    25
100
AcDbLine
 10
-219.7165993304
 20
42.2160474424
 30
0.0
 11
-219.8028899338
 21
41.9140303029
 31
0.0
  0
LINE
  5
76
330
1F
100
AcDbEntity
  8
0
  6
Continuous
 62
     7
370
    25
100
AcDbLine
 10
-219.8028899338
 20
41.9140303029
 30
0.0
 11
-220.2343429945
 21
42.037302606
 31
0.0
  0
LINE
  5
77
330
1F
100
AcDbEntity
  8
0
  6
Continuous
 62
     7
370
    25
100
AcDbLine
 10
-220.2343429945
 20
42.037302606
 30
0.0
 11
-220.8507044922
 21
39.8800373368
 31
0.0
  0
LINE
  5
78
330
1F
100
AcDbEntity
  8
0
  6
Continuous
 62
     7
370
    25
100
AcDbLine
 10
-220.8507044922
 20
39.8800373368
 30
0.0
 11
-221.1527216368
 21
39.9663279495
 31
0.0
  0
LINE
  5
79
330
1F
100
AcDbEntity
  8
0
  6
Continuous
 62
     7
370
    25
100
AcDbLine
 10
-221.1527216368
 20
39.9663279495
 30
0.0
 11
-220.5363601247
 21
42.1235932146
 31
0.0
  0
LINE
  5
7A
330
1F
100
AcDbEntity
  8
0
  6
Continuous
 62
     7
370
    25
100
AcDbLine
 10
-220.5363601247
 20
42.1235932146
 30
0.0
 11
-220.9678131853
 21
42.2468655176
 31
0.0
  0
LINE
  5
7B
330
1F
100
AcDbEntity
  8
0
  6
Continuous
 62
     7
370
    25
100
AcDbLine
 10
-220.9678131853
 20
42.2468655176
 30
0.0
 11
-220.8815225819
 21
42.5488826571
 31
0.0
  0
LINE
  5
7C
330
1F
100
AcDbEntity
  8
0
  6
Continuous
 62
     7
370
    25
100
AcDbLine
 10
-224.0003117822
 20
40.7799251339
 30
0.0
 11
-224.3023289341
 21
40.8662157487
 31
0.0
  0
LINE
  5
7D
330
1F
100
AcDbEntity
  8
0
  6
Continuous
 62
     7
370
    25
100
AcDbLine
 10
-224.3023289341
 20
40.8662157487
 30
0.0
 11
-223.5996768185
 21
43.3254981533
 31
0.0
  0
LINE
  5
7E
330
1F
100
AcDbEntity
  8
0
  6
Continuous
 62
     7
370
    25
100
AcDbLine
 10
-223.5996768185
 20
43.3254981533
 30
0.0
 11
-223.2976596738
 21
43.2392075405
 31
0.0
  0
LINE
  5
7F
330
1F
100
AcDbEntity
  8
0
  6
Continuous
 62
     7
370
    25
100
AcDbLine
 10
-223.2976596738
 20
43.2392075405
 30
0.0
 11
-223.4243990083
 21
42.79561987
 31
0.0
  0
SPLINE
  5
80
330
1F
100
AcDbEntity
  8
0
  6
Continuous
 62
     7
370
    25
100
AcDbSpline
210
0.0
220
0.0
230
1.0
 70
     8
 71
     3
 72
    17
 73
    13
 74
     0
 42
0.00000001
 43
0.00000001
 40
0.0
 40
0.0
 40
0.0
 40
0.0
 40
0.0002864425052229
 40
0.0002864425052229
 40
0.0002864425052229
 40
0.000668778738251
 40
0.000668778738251
 40
0.000668778738251
 40
0.0010456961987536
 40
0.0010456961987536
 40
0.0010456961987536
 40
0.0011425452117415
 40
0.0011425452117415
 40
0.0011425452117415
 40
0.0011425452117415
 10
-223.4243990082529
 20
42.79561986995093
 30
0.0
 10
-223.3465138326983
 20
42.85085110473077
 30
0.0
 10
-223.2669966654004
 20
42.90500712369622
 30
0.0
 10
-223.1813219080555
 20
42.94715479054005
 30
0.0
 10
-223.0679882119372
 20
43.00290926261796
 30
0.0
 10
-222.9437032571846
 20
43.04097812605438
 30
0.0
 10
-222.8182416524152
 20
43.05555459892009
 30
0.0
 10
-222.6943235873055
 20
43.06995173912061
 30
0.0
 10
-222.5663372373406
 20
43.06411883741109
 30
0.0
 10
-222.4444123528657
 20
43.03771264396615
 30
0.0
 10
-222.4126568040232
 20
43.03083510482151
 30
0.0
 10
-222.3811321686338
 20
43.02291885343198
 30
0.0
 10
-222.3496186340871
 20
43.01500604310025
 30
0.0
  0
SPLINE
  5
81
330
1F
100
AcDbEntity
  8
0
  6
Continuous
 62
     7
370
    25
100
AcDbSpline
210
0.0
220
0.0
230
1.0
 70
     8
 71
     3
 72
    20
 73
    16
 74
     0
 42
0.00000001
 43
0.00000001
 40
0.0
 40
0.0
 40
0.0
 40
0.0
 40
0.0003508792911935
 40
0.0003508792911935
 40
0.0003508792911935
 40
0.000705887753305
 40
0.000705887753305
 40
0.000705887753305
 40
0.001012882746812
 40
0.001012882746812
 40
0.001012882746812
 40
0.0013675500486041
 40
0.0013675500486041
 40
0.0013675500486041
 40
0.00182796577335
 40
0.00182796577335
 40
0.00182796577335
 40
0.00182796577335
 10
-222.3496186340871
 20
43.01500604310029
 30
0.0
 10
-222.2384193463616
 20
42.97875270199351
 30
0.0
 10
-222.1272547811882
 20
42.93281318790572
 30
0.0
 10
-222.0332979961549
 20
42.86315897856935
 30
0.0
 10
-221.9383427011983
 20
42.79276453084351
 30
0.0
 10
-221.8560304515747
 20
42.70176690945482
 30
0.0
 10
-221.7950526140627
 20
42.60050689936549
 30
0.0
 10
-221.74220375744
 20
42.51274590335177
 30
0.0
 10
-221.7055737101742
 20
42.41352810494432
 30
0.0
 10
-221.687060889943
 20
42.31276963356483
 30
0.0
 10
-221.6656857782616
 20
42.19643276259112
 30
0.0
 10
-221.6712482215786
 20
42.07519335354783
 30
0.0
 10
-221.6866575959807
 20
41.95791712352703
 30
0.0
 10
-221.7067616549394
 20
41.80491102598751
 30
0.0
 10
-221.7442668037267
 20
41.65429465780575
 30
0.0
 10
-221.7862256960166
 20
41.50578711446642
 30
0.0
  0
LINE
  5
82
330
1F
100
AcDbEntity
  8
0
  6
Continuous
 62
     7
370
    25
100
AcDbLine
 10
-221.786225696
 20
41.5057871145
 30
0.0
 11
-222.1450636524
 21
40.2498542397
 31
0.0
  0
LINE
  5
83
330
1F
100
AcDbEntity
  8
0
  6
Continuous
 62
     7
370
    25
100
AcDbLine
 10
-222.1450636524
 20
40.2498542397
 30
0.0
 11
-222.447080797
 21
40.3361448524
 31
0.0
  0
LINE
  5
84
330
1F
100
AcDbEntity
  8
0
  6
Continuous
 62
     7
370
    25
100
AcDbLine
 10
-222.447080797
 20
40.3361448524
 30
0.0
 11
-222.11655694
 21
41.4929783519
 31
0.0
  0
SPLINE
  5
85
330
1F
100
AcDbEntity
  8
0
  6
Continuous
 62
     7
370
    25
100
AcDbSpline
210
0.0
220
0.0
230
1.0
 70
     8
 71
     3
 72
    14
 73
    10
 74
     0
 42
0.00000001
 43
0.00000001
 40
0.0
 40
0.0
 40
0.0
 40
0.0
 40
0.0001461448849566
 40
0.0001461448849566
 40
0.0001461448849566
 40
0.0002923169649227
 40
0.0002923169649227
 40
0.0002923169649227
 40
0.0005843937978124
 40
0.0005843937978124
 40
0.0005843937978124
 40
0.0005843937978124
 10
-222.1165569400479
 20
41.49297835194281
 30
0.0
 10
-222.1034340021021
 20
41.53989248615039
 30
0.0
 10
-222.0902817080351
 20
41.58679948438922
 30
0.0
 10
-222.0775201573545
 20
41.63381320911935
 30
0.0
 10
-222.0647573462557
 20
41.6808315772471
 30
0.0
 10
-222.0525733356076
 20
41.72801500757502
 30
0.0
 10
-222.041245660489
 20
41.77539960491372
 30
0.0
 10
-222.018657847178
 20
41.86988628707041
 30
0.0
 10
-221.9986381229214
 20
41.96577778362431
 30
0.0
 10
-221.9924178807019
 20
42.06272751803279
 30
0.0
  0
SPLINE
  5
86
330
1F
100
AcDbEntity
  8
0
  6
Continuous
 62
     7
370
    25
100
AcDbSpline
210
0.0
220
0.0
230
1.0
 70
     8
 71
     3
 72
    17
 73
    13
 74
     0
 42
0.00000001
 43
0.00000001
 40
0.0
 40
0.0
 40
0.0
 40
0.0
 40
0.0002815710848733
 40
0.0002815710848733
 40
0.0002815710848733
 40
0.0004632049315608
 40
0.0004632049315608
 40
0.0004632049315608
 40
0.00064452943817
 40
0.00064452943817
 40
0.00064452943817
 40
0.0008994741691502
 40
0.0008994741691502
 40
0.0008994741691502
 40
0.0008994741691502
 10
-221.9924178807019
 20
42.06272751803284
 30
0.0
 10
-221.99083610172
 20
42.15657121646215
 30
0.0
 10
-221.9966426192978
 20
42.25355730025139
 30
0.0
 10
-222.0279111988233
 20
42.34205259783317
 30
0.0
 10
-222.0482616277719
 20
42.39964770746241
 30
0.0
 10
-222.0785574034549
 20
42.45468650642625
 30
0.0
 10
-222.1168559239053
 20
42.50227389911488
 30
0.0
 10
-222.1551340632217
 20
42.54983596745644
 30
0.0
 10
-222.2023640817292
 20
42.59085680634767
 30
0.0
 10
-222.2534390107622
 20
42.62430404717144
 30
0.0
 10
-222.3250823973235
 20
42.67122087405932
 30
0.0
 10
-222.4068825359045
 20
42.70205576721074
 30
0.0
 10
-222.4884925856595
 20
42.72801271738223
 30
0.0
  0
SPLINE
  5
87
330
1F
100
AcDbEntity
  8
0
  6
Continuous
 62
     7
370
    25
100
AcDbSpline
210
0.0
220
0.0
230
1.0
 70
     8
 71
     3
 72
    17
 73
    13
 74
     0
 42
0.00000001
 43
0.00000001
 40
0.0
 40
0.0
 40
0.0
 40
0.0
 40
0.0003076399294467
 40
0.0003076399294467
 40
0.0003076399294467
 40
0.0006149889665157
 40
0.0006149889665157
 40
0.0006149889665157
 40
0.0009213122054292
 40
0.0009213122054292
 40
0.0009213122054292
 40
0.0011737058818632
 40
0.0011737058818632
 40
0.0011737058818632
 40
0.0011737058818632
 10
-222.4884925856595
 20
42.72801271738221
 30
0.0
 10
-222.5876067655945
 20
42.75432228516526
 30
0.0
 10
-222.6922423259317
 20
42.76917820312848
 30
0.0
 10
-222.7944172073495
 20
42.76045423451422
 30
0.0
 10
-222.8968732730832
 20
42.75170625762006
 30
0.0
 10
-222.999070978898
 20
42.7245490647187
 30
0.0
 10
-223.0928672842822
 20
42.68240614595809
 30
0.0
 10
-223.1865103772013
 20
42.64033206594805
 30
0.0
 10
-223.2756609792454
 20
42.5840505935311
 30
0.0
 10
-223.3507763501661
 20
42.51407246758023
 30
0.0
 10
-223.4129719911059
 20
42.45613047325956
 30
0.0
 10
-223.465893765916
 20
42.38776212322384
 30
0.0
 10
-223.5111711513645
 20
42.31582096098191
 30
0.0
  0
SPLINE
  5
88
330
1F
100
AcDbEntity
  8
0
  6
Continuous
 62
     7
370
    25
100
AcDbSpline
210
0.0
220
0.0
230
1.0
 70
     8
 71
     3
 72
    14
 73
    10
 74
     0
 42
0.00000001
 43
0.00000001
 40
0.0
 40
0.0
 40
0.0
 40
0.0
 40
0.0001728154742905
 40
0.0001728154742905
 40
0.0001728154742905
 40
0.0003452594456134
 40
0.0003452594456134
 40
0.0003452594456134
 40
0.0006887915004582
 40
0.0006887915004582
 40
0.0006887915004582
 40
0.0006887915004582
 10
-223.5111711513645
 20
42.31582096098194
 30
0.0
 10
-223.538928391022
 20
42.26534433385653
 30
0.0
 10
-223.5631736794687
 20
42.2128745004566
 30
0.0
 10
-223.5849185020635
 20
42.15953111352169
 30
0.0
 10
-223.6066348633674
 20
42.10625754650088
 30
0.0
 10
-223.6260427288914
 20
42.0520399136405
 30
0.0
 10
-223.6444646772846
 20
41.99753940805743
 30
0.0
 10
-223.6811645765787
 20
41.88896440699399
 30
0.0
 10
-223.7143495166752
 20
41.77920213759526
 30
0.0
 10
-223.7462552815921
 20
41.66912291326478
 30
0.0
  0
LINE
  5
89
330
1F
100
AcDbEntity
  8
0
  6
Continuous
 62
     7
370
    25
100
AcDbLine
 10
-223.7462552816
 20
41.6691229133
 30
0.0
 11
-224.0003117822
 21
40.7799251339
 31
0.0
  0
SPLINE
  5
8A
330
1F
100
AcDbEntity
  8
0
  6
Continuous
 62
     7
370
    25
100
AcDbSpline
210
0.0
220
0.0
230
1.0
 70
     8
 71
     3
 72
    14
 73
    10
 74
     0
 42
0.00000001
 43
0.00000001
 40
0.0
 40
0.0
 40
0.0
 40
0.0
 40
0.0002499791413133
 40
0.0002499791413133
 40
0.0002499791413133
 40
0.0006809721629382
 40
0.0006809721629382
 40
0.0006809721629382
 40
0.0009988873845397
 40
0.0009988873845397
 40
0.0009988873845397
 40
0.0009988873845397
 10
-227.1025362887316
 20
42.98900329211352
 30
0.0
 10
-227.0775513780309
 20
43.06849568114627
 30
0.0
 10
-227.0502975659751
 20
43.14778508617416
 30
0.0
 10
-227.0138901168764
 20
43.22273695957958
 30
0.0
 10
-226.9517528254349
 20
43.35065875902365
 30
0.0
 10
-226.8667676965063
 20
43.46963619830346
 30
0.0
 10
-226.7659555510971
 20
43.56994542568908
 30
0.0
 10
-226.6910737322246
 20
43.64445368425086
 30
0.0
 10
-226.6046620140436
 20
43.70727241700198
 30
0.0
 10
-226.5162224071972
 20
43.76504094937398
 30
0.0
  0
SPLINE
  5
8B
330
1F
100
AcDbEntity
  8
0
  6
Continuous
 62
     7
370
    25
100
AcDbSpline
210
0.0
220
0.0
230
1.0
 70
     8
 71
     3
 72
    14
 73
    10
 74
     0
 42
0.00000001
 43
0.00000001
 40
0.0
 40
0.0
 40
0.0
 40
0.0
 40
0.0002754123097201
 40
0.0002754123097201
 40
0.0002754123097201
 40
0.0006914652771249
 40
0.0006914652771249
 40
0.0006914652771249
 40
0.0010976654675067
 40
0.0010976654675067
 40
0.0010976654675067
 40
0.0010976654675067
 10
-226.5162224071972
 20
43.76504094937398
 30
0.0
 10
-226.4370165887102
 20
43.81145680538803
 30
0.0
 10
-226.3551573905553
 20
43.85479544495252
 30
0.0
 10
-226.2688918826802
 20
43.88620015037617
 30
0.0
 10
-226.1396615297371
 20
43.93324608177951
 30
0.0
 10
-226.0006386012826
 20
43.95945577227756
 30
0.0
 10
-225.8631181568371
 20
43.96084542796337
 30
0.0
 10
-225.7283772962501
 20
43.96220699571995
 30
0.0
 10
-225.5931601130953
 20
43.93868263036364
 30
0.0
 10
-225.4628220727325
 20
43.9044927398569
 30
0.0
  0
SPLINE
  5
8C
330
1F
100
AcDbEntity
  8
0
  6
Continuous
 62
     7
370
    25
100
AcDbSpline
210
0.0
220
0.0
230
1.0
 70
     8
 71
     3
 72
    14
 73
    10
 74
     0
 42
0.00000001
 43
0.00000001
 40
0.0
 40
0.0
 40
0.0
 40
0.0
 40
0.0002744582436778
 40
0.0002744582436778
 40
0.0002744582436778
 40
0.000708511817781
 40
0.000708511817781
 40
0.000708511817781
 40
0.0010935203896305
 40
0.0010935203896305
 40
0.0010935203896305
 40
0.0010935203896305
 10
-225.4628220727325
 20
43.9044927398569
 30
0.0
 10
-225.375410995904
 20
43.8774926156763
 30
0.0
 10
-225.2884085927434
 20
43.8468445345771
 30
0.0
 10
-225.206966851396
 20
43.80516785255478
 30
0.0
 10
-225.0792855126428
 20
43.73982869762802
 30
0.0
 10
-224.9598103896371
 20
43.65296093337613
 30
0.0
 10
-224.8618219417826
 20
43.5482231965311
 30
0.0
 10
-224.774475108838
 20
43.4548600521656
 30
0.0
 10
-224.7042961600083
 20
43.34522647840468
 30
0.0
 10
-224.64421694904
 20
43.23236978006253
 30
0.0
  0
SPLINE
  5
8D
330
1F
100
AcDbEntity
  8
0
  6
Continuous
 62
     7
370
    25
100
AcDbSpline
210
0.0
220
0.0
230
1.0
 70
     8
 71
     3
 72
    14
 73
    10
 74
     0
 42
0.00000001
 43
0.00000001
 40
0.0
 40
0.0
 40
0.0
 40
0.0
 40
0.000250514695878
 40
0.000250514695878
 40
0.000250514695878
 40
0.00068004837101
 40
0.00068004837101
 40
0.00068004837101
 40
0.0010005426548898
 40
0.0010005426548898
 40
0.0010005426548898
 40
0.0010005426548898
 10
-224.6442169490401
 20
43.23236978006251
 30
0.0
 10
-224.6088825609316
 20
43.15670902992387
 30
0.0
 10
-224.5759425453543
 20
43.07938636290238
 30
0.0
 10
-224.5525868080441
 20
42.99921418799592
 30
0.0
 10
-224.5129339841012
 20
42.86309974662994
 30
0.0
 10
-224.4958745329514
 20
42.7183641467734
 30
0.0
 10
-224.5031549090961
 20
42.57677854115542
 30
0.0
 10
-224.5086264014605
 20
42.47037132473604
 30
0.0
 10
-224.5303563344287
 20
42.36486892057416
 30
0.0
 10
-224.5569632735031
 20
42.26169671633338
 30
0.0
  0
SPLINE
  5
8E
330
1F
100
AcDbEntity
  8
0
  6
Continuous
 62
     7
370
    25
100
AcDbSpline
210
0.0
220
0.0
230
1.0
 70
     8
 71
     3
 72
    20
 73
    16
 74
     0
 42
0.00000001
 43
0.00000001
 40
0.0
 40
0.0
 40
0.0
 40
0.0
 40
0.0004624291596244
 40
0.0004624291596244
 40
0.0004624291596244
 40
0.0009273148778716
 40
0.0009273148778716
 40
0.0009273148778716
 40
0.0013776362769871
 40
0.0013776362769871
 40
0.0013776362769871
 40
0.0018180041039774
 40
0.0018180041039774
 40
0.0018180041039774
 40
0.0020683029090031
 40
0.0020683029090031
 40
0.0020683029090031
 40
0.0020683029090031
 10
-224.5569632735032
 20
42.26169671633333
 30
0.0
 10
-224.6026569235268
 20
42.11448200511249
 30
0.0
 10
-224.6664418501166
 20
41.9695079350555
 30
0.0
 10
-224.7570049442543
 20
41.84477459214938
 30
0.0
 10
-224.8480650984694
 20
41.71935664404433
 30
0.0
 10
-224.9646774731464
 20
41.61027584081242
 30
0.0
 10
-225.093027546777
 20
41.52339735100288
 30
0.0
 10
-225.2173984365874
 20
41.43921231879093
 30
0.0
 10
-225.3571716239355
 20
41.37287407701325
 30
0.0
 10
-225.5027586357394
 20
41.3360005109424
 30
0.0
 10
-225.6449816229066
 20
41.29997896857315
 30
0.0
 10
-225.7962772984497
 20
41.29242808096824
 30
0.0
 10
-225.942064344044
 20
41.30889219133865
 30
0.0
 10
-226.0258843920898
 20
41.31835820744902
 30
0.0
 10
-226.1084543944006
 20
41.33783128868285
 30
0.0
 10
-226.1901286485127
 20
41.35891972462848
 30
0.0
  0
SPLINE
  5
8F
330
1F
100
AcDbEntity
  8
0
  6
Continuous
 62
     7
370
    25
100
AcDbSpline
210
0.0
220
0.0
230
1.0
 70
     8
 71
     3
 72
    20
 73
    16
 74
     0
 42
0.00000001
 43
0.00000001
 40
0.0
 40
0.0
 40
0.0
 40
0.0
 40
0.0004894588664636
 40
0.0004894588664636
 40
0.0004894588664636
 40
0.0008960592199633
 40
0.0008960592199633
 40
0.0008960592199633
 40
0.0012999136940265
 40
0.0012999136940265
 40
0.0012999136940265
 40
0.0017735426854132
 40
0.0017735426854132
 40
0.0017735426854132
 40
0.0020670759240004
 40
0.0020670759240004
 40
0.0020670759240004
 40
0.0020670759240004
 10
-226.1901286485127
 20
41.35891972462851
 30
0.0
 10
-226.345806516946
 20
41.40773865706745
 30
0.0
 10
-226.5005457553751
 20
41.47253069260193
 30
0.0
 10
-226.6323722237699
 20
41.56865909170934
 30
0.0
 10
-226.7422338612256
 20
41.64877064639576
 30
0.0
 10
-226.8398643464901
 20
41.74895859775054
 30
0.0
 10
-226.9167122682163
 20
41.86112738799583
 30
0.0
 10
-226.9933082473779
 20
41.97292843774721
 30
0.0
 10
-227.0527508402395
 20
42.09788465300917
 30
0.0
 10
-227.0941713134595
 20
42.2269224891173
 30
0.0
 10
-227.1423994370651
 20
42.37716830298226
 30
0.0
 10
-227.1633759314275
 20
42.53908594483974
 30
0.0
 10
-227.1535347290737
 20
42.69657533250343
 30
0.0
 10
-227.1473637487335
 20
42.79532992367314
 30
0.0
 10
-227.1275565304507
 20
42.89327169973267
 30
0.0
 10
-227.1025362887316
 20
42.98900329211347
 30
0.0
  0
LINE
  5
90
330
1F
100
AcDbEntity
  8
0
  6
Continuous
 62
     7
370
    25
100
AcDbLine
 10
-228.5305688432
 20
42.0742842942
 30
0.0
 11
-228.8325859951
 21
42.160574909
 31
0.0
  0
LINE
  5
91
330
1F
100
AcDbEntity
  8
0
  6
Continuous
 62
     7
370
    25
100
AcDbLine
 10
-228.8325859951
 20
42.160574909
 30
0.0
 11
-228.1299338795
 21
44.6198573136
 31
0.0
  0
LINE
  5
92
330
1F
100
AcDbEntity
  8
0
  6
Continuous
 62
     7
370
    25
100
AcDbLine
 10
-228.1299338795
 20
44.6198573136
 30
0.0
 11
-227.8279167348
 21
44.5335667008
 31
0.0
  0
LINE
  5
93
330
1F
100
AcDbEntity
  8
0
  6
Continuous
 62
     7
370
    25
100
AcDbLine
 10
-227.8279167348
 20
44.5335667008
 30
0.0
 11
-227.9313498998
 21
44.1715506232
 31
0.0
  0
SPLINE
  5
94
330
1F
100
AcDbEntity
  8
0
  6
Continuous
 62
     7
370
    25
100
AcDbSpline
210
0.0
220
0.0
230
1.0
 70
     8
 71
     3
 72
    17
 73
    13
 74
     0
 42
0.00000001
 43
0.00000001
 40
0.0
 40
0.0
 40
0.0
 40
0.0
 40
0.0001981698732199
 40
0.0001981698732199
 40
0.0001981698732199
 40
0.0004970791003178
 40
0.0004970791003178
 40
0.0004970791003178
 40
0.0007189072523894
 40
0.0007189072523894
 40
0.0007189072523894
 40
0.0007881237290461
 40
0.0007881237290461
 40
0.0007881237290461
 40
0.0007881237290461
 10
-227.9313498998488
 20
44.17155062315148
 30
0.0
 10
-227.8811730474605
 20
44.21451294516057
 30
0.0
 10
-227.8302754912756
 20
44.25710357045877
 30
0.0
 10
-227.7751743034953
 20
44.29353620326503
 30
0.0
 10
-227.6929934863952
 20
44.34787375303023
 30
0.0
 10
-227.6010648101474
 20
44.39219310851414
 30
0.0
 10
-227.5047044543406
 20
44.41270987830172
 30
0.0
 10
-227.4327914602217
 20
44.42802138615906
 30
0.0
 10
-227.3567026039372
 20
44.4326391025233
 30
0.0
 10
-227.2842536041345
 20
44.42010660781602
 30
0.0
 10
-227.2611845807279
 20
44.41611604321838
 30
0.0
 10
-227.238377933423
 20
44.41069708689788
 30
0.0
 10
-227.2156001022859
 20
44.40528646258684
 30
0.0
  0
SPLINE
  5
95
330
1F
100
AcDbEntity
  8
0
  6
Continuous
 62
     7
370
    25
100
AcDbSpline
210
0.0
220
0.0
230
1.0
 70
     8
 71
     3
 72
    14
 73
    10
 74
     0
 42
0.00000001
 43
0.00000001
 40
0.0
 40
0.0
 40
0.0
 40
0.0
 40
0.0000730721472227
 40
0.0000730721472227
 40
0.0000730721472227
 40
0.0001464169730422
 40
0.0001464169730422
 40
0.0001464169730422
 40
0.0002910937553394
 40
0.0002910937553394
 40
0.0002910937553394
 40
0.0002910937553394
 10
-227.2156001022859
 20
44.40528646258687
 30
0.0
 10
-227.1925791065942
 20
44.39732933778522
 30
0.0
 10
-227.1694690987956
 20
44.3893011804886
 30
0.0
 10
-227.1475210671472
 20
44.37873870045272
 30
0.0
 10
-227.1255080974417
 20
44.368144969007
 30
0.0
 10
-227.1045220700742
 20
44.35533500747948
 30
0.0
 10
-227.0844618711701
 20
44.34139275511012
 30
0.0
 10
-227.0450631992168
 20
44.31400986474007
 30
0.0
 10
-227.0102502401731
 20
44.28025738928854
 30
0.0
 10
-226.976760019138
 20
44.24589922967957
 30
0.0
  0
LINE
  5
96
330
1F
100
AcDbEntity
  8
0
  6
Continuous
 62
     7
370
    25
100
AcDbLine
 10
-226.9767600087
 20
44.245899239
 30
0.0
 11
-227.217333619
 21
44.0317136067
 31
0.0
  0
SPLINE
  5
97
330
1F
100
AcDbEntity
  8
0
  6
Continuous
 62
     7
370
    25
100
AcDbSpline
210
0.0
220
0.0
230
1.0
 70
     8
 71
     3
 72
    14
 73
    10
 74
     0
 42
0.00000001
 43
0.00000001
 40
0.0
 40
0.0
 40
0.0
 40
0.0
 40
0.0000422394952385
 40
0.0000422394952385
 40
0.0000422394952385
 40
0.0000845275599885
 40
0.0000845275599885
 40
0.0000845275599885
 40
0.0001686819279088
 40
0.0001686819279088
 40
0.0001686819279088
 40
0.0001686819279088
 10
-227.2173336190185
 20
44.03171360672759
 30
0.0
 10
-227.2281213759649
 20
44.0407615878321
 30
0.0
 10
-227.2389119192582
 20
44.04981196130667
 30
0.0
 10
-227.2499484997015
 20
44.05855470424684
 30
0.0
 10
-227.2609921439305
 20
44.06730304283884
 30
0.0
 10
-227.2722984222498
 20
44.07575081562141
 30
0.0
 10
-227.2840266668348
 20
44.08355746566688
 30
0.0
 10
-227.3071628958229
 20
44.09895759155723
 30
0.0
 10
-227.3329273854272
 20
44.11055502586945
 30
0.0
 10
-227.3591930716302
 20
44.11964142766071
 30
0.0
  0
SPLINE
  5
98
330
1F
100
AcDbEntity
  8
0
  6
Continuous
 62
     7
370
    25
100
AcDbSpline
210
0.0
220
0.0
230
1.0
 70
     8
 71
     3
 72
    20
 73
    16
 74
     0
 42
0.00000001
 43
0.00000001
 40
0.0
 40
0.0
 40
0.0
 40
0.0
 40
0.0001403215685949
 40
0.0001403215685949
 40
0.0001403215685949
 40
0.0002797443325628
 40
0.0002797443325628
 40
0.0002797443325628
 40
0.0004451294925474
 40
0.0004451294925474
 40
0.0004451294925474
 40
0.000744673537537
 40
0.000744673537537
 40
0.000744673537537
 40
0.0007978340995391
 40
0.0007978340995391
 40
0.0007978340995391
 40
0.0007978340995391
 10
-227.3591930716302
 20
44.11964142766071
 30
0.0
 10
-227.4049222636289
 20
44.12947171874544
 30
0.0
 10
-227.4527143681267
 20
44.13600608028899
 30
0.0
 10
-227.4991204440614
 20
44.13015204407529
 30
0.0
 10
-227.5456291809545
 20
44.12428505738135
 30
0.0
 10
-227.5913494525939
 20
44.11024260545908
 30
0.0
 10
-227.6343740235756
 20
44.09163157560869
 30
0.0
 10
-227.6853353432059
 20
44.06958736646924
 30
0.0
 10
-227.7339008321283
 20
44.0403259877025
 30
0.0
 10
-227.7763998999498
 20
44.00459319478965
 30
0.0
 10
-227.8531398380398
 20
43.94007101921084
 30
0.0
 10
-227.9171362473286
 20
43.8597956793983
 30
0.0
 10
-227.9709374557049
 20
43.77519331999424
 30
0.0
 10
-227.9805752583566
 20
43.76003788262739
 30
0.0
 10
-227.9899591948478
 20
43.74472199617564
 30
0.0
 10
-227.9993422783579
 20
43.72940754987234
 30
0.0
  0
SPLINE
  5
99
330
1F
100
AcDbEntity
  8
0
  6
Continuous
 62
     7
370
    25
100
AcDbSpline
210
0.0
220
0.0
230
1.0
 70
     8
 71
     3
 72
    14
 73
    10
 74
     0
 42
0.00000001
 43
0.00000001
 40
0.0
 40
0.0
 40
0.0
 40
0.0
 40
0.0002211578864168
 40
0.0002211578864168
 40
0.0002211578864168
 40
0.0004415032482569
 40
0.0004415032482569
 40
0.0004415032482569
 40
0.000880180792361
 40
0.000880180792361
 40
0.000880180792361
 40
0.000880180792361
 10
-227.9993422783579
 20
43.72940754987234
 30
0.0
 10
-228.0351746113588
 20
43.66498256685611
 30
0.0
 10
-228.0649349898209
 20
43.59715584150617
 30
0.0
 10
-228.0918338035158
 20
43.52851920153346
 30
0.0
 10
-228.1186668247838
 20
43.46005044149646
 30
0.0
 10
-228.1428122831495
 20
43.39053330384894
 30
0.0
 10
-228.1661385634198
 20
43.32079187584433
 30
0.0
 10
-228.2125719021139
 20
43.18196445415418
 30
0.0
 10
-228.2540940116166
 20
43.04150787631445
 30
0.0
 10
-228.294425348828
 20
42.90078655172522
 30
0.0
  0
LINE
  5
9A
330
1F
100
AcDbEntity
  8
0
  6
Continuous
 62
     7
370
    25
100
AcDbLine
 10
-228.2944253488
 20
42.9007865517
 30
0.0
 11
-228.5305688432
 21
42.0742842942
 31
0.0
  0
LINE
  5
9B
330
1F
100
AcDbEntity
  8
0
  6
Continuous
 62
     7
370
    25
100
AcDbLine
 10
-230.6015434996
 20
42.6659913389
 30
0.0
 11
-230.9035606515
 21
42.7522819537
 31
0.0
  0
LINE
  5
9C
330
1F
100
AcDbEntity
  8
0
  6
Continuous
 62
     7
370
    25
100
AcDbLine
 10
-230.9035606515
 20
42.7522819537
 30
0.0
 11
-229.9420367039
 21
46.1176157705
 31
0.0
  0
LINE
  5
9D
330
1F
100
AcDbEntity
  8
0
  6
Continuous
 62
     7
370
    25
100
AcDbLine
 10
-229.9420367039
 20
46.1176157705
 30
0.0
 11
-228.3025150936
 21
45.6491810247
 31
0.0
  0
LINE
  5
9E
330
1F
100
AcDbEntity
  8
0
  6
Continuous
 62
     7
370
    25
100
AcDbLine
 10
-228.3025150936
 20
45.6491810247
 30
0.0
 11
-228.4011329272
 21
45.3040185799
 31
0.0
  0
LINE
  5
9F
330
1F
100
AcDbEntity
  8
0
  6
Continuous
 62
     7
370
    25
100
AcDbLine
 10
-228.4011329272
 20
45.3040185799
 30
0.0
 11
-229.7386374
 21
45.686162715
 31
0.0
  0
LINE
  5
A0
330
1F
100
AcDbEntity
  8
0
  6
Continuous
 62
     7
370
    25
100
AcDbLine
 10
-229.7386374
 20
45.686162715
 30
0.0
 11
-230.0344909296
 21
44.6506753888
 31
0.0
  0
LINE
  5
A1
330
1F
100
AcDbEntity
  8
0
  6
Continuous
 62
     7
370
    25
100
AcDbLine
 10
-230.0344909296
 20
44.6506753888
 30
0.0
 11
-228.6969864567
 21
44.2685312537
 31
0.0
  0
LINE
  5
A2
330
1F
100
AcDbEntity
  8
0
  6
Continuous
 62
     7
370
    25
100
AcDbLine
 10
-228.6969864567
 20
44.2685312537
 30
0.0
 11
-228.7956042903
 21
43.9233688089
 31
0.0
  0
LINE
  5
A3
330
1F
100
AcDbEntity
  8
0
  6
Continuous
 62
     7
370
    25
100
AcDbLine
 10
-228.7956042903
 20
43.9233688089
 30
0.0
 11
-230.1331087631
 21
44.305512944
 31
0.0
  0
LINE
  5
A4
330
1F
100
AcDbEntity
  8
0
  6
Continuous
 62
     7
370
    25
100
AcDbLine
 10
-230.1331087631
 20
44.305512944
 30
0.0
 11
-230.6015434996
 21
42.6659913389
 31
0.0
  0
SPLINE
  5
A5
330
1F
100
AcDbEntity
  8
0
  6
Continuous
 62
     7
370
    25
100
AcDbSpline
210
0.0
220
0.0
230
1.0
 70
     8
 71
     3
 72
    20
 73
    16
 74
     0
 42
0.00000001
 43
0.00000001
 40
0.0
 40
0.0
 40
0.0
 40
0.0
 40
0.0004262299366102
 40
0.0004262299366102
 40
0.0004262299366102
 40
0.0007255229398865
 40
0.0007255229398865
 40
0.0007255229398865
 40
0.0010241937118011
 40
0.0010241937118011
 40
0.0010241937118011
 40
0.0013259031995474
 40
0.0013259031995474
 40
0.0013259031995474
 40
0.0014624170284211
 40
0.0014624170284211
 40
0.0014624170284211
 40
0.0014624170284211
 10
-234.755820049861
 20
45.1129465153996
 30
0.0
 10
-234.7885763056468
 20
44.97469746146482
 30
0.0
 10
-234.8042662667016
 20
44.82802779042984
 30
0.0
 10
-234.7828501069519
 20
44.68757451952261
 30
0.0
 10
-234.7676892050032
 20
44.58814500958803
 30
0.0
 10
-234.7338192939414
 20
44.49040287915272
 30
0.0
 10
-234.686579491496
 20
44.4016082765091
 30
0.0
 10
-234.6394258995034
 20
44.3129757199051
 30
0.0
 10
-234.5775759392142
 20
44.23035595282433
 30
0.0
 10
-234.5039275693861
 20
44.16212759398707
 30
0.0
 10
-234.4295584823876
 20
44.09323155778182
 30
0.0
 10
-234.3412322111417
 20
44.03791478972227
 30
0.0
 10
-234.2483736046624
 20
43.99723673533784
 30
0.0
 10
-234.2059187170661
 20
43.97863875834898
 30
0.0
 10
-234.1616594438551
 20
43.96430366055456
 30
0.0
 10
-234.1174043598662
 20
43.95052723975589
 30
0.0
  0
SPLINE
  5
A6
330
1F
100
AcDbEntity
  8
0
  6
Continuous
 62
     7
370
    25
100
AcDbSpline
210
0.0
220
0.0
230
1.0
 70
     8
 71
     3
 72
    17
 73
    13
 74
     0
 42
0.00000001
 43
0.00000001
 40
0.0
 40
0.0
 40
0.0
 40
0.0
 40
0.000398258713627
 40
0.000398258713627
 40
0.000398258713627
 40
0.0007034552687999
 40
0.0007034552687999
 40
0.0007034552687999
 40
0.0010091485459604
 40
0.0010091485459604
 40
0.0010091485459604
 40
0.0011314584167886
 40
0.0011314584167886
 40
0.0011314584167886
 40
0.0011314584167886
 10
-234.1174043598662
 20
43.95052723975591
 30
0.0
 10
-233.9890760596983
 20
43.91653928541235
 30
0.0
 10
-233.8538723044541
 20
43.90026479022578
 30
0.0
 10
-233.7213729726429
 20
43.9084660543967
 30
0.0
 10
-233.6195536811764
 20
43.91476832698631
 30
0.0
 10
-233.5169670402647
 20
43.93516863119863
 30
0.0
 10
-233.4221941180187
 20
43.97291753798387
 30
0.0
 10
-233.3272188843783
 20
44.01074702721593
 30
0.0
 10
-233.2405872098385
 20
44.06897638269308
 30
0.0
 10
-233.1595932283924
 20
44.131356990498
 30
0.0
 10
-233.1269922071935
 20
44.15646591194053
 30
0.0
 10
-233.095535794702
 20
44.18303803725978
 30
0.0
 10
-233.0641003318866
 20
44.20959168478311
 30
0.0
  0
LINE
  5
A7
330
1F
100
AcDbEntity
  8
0
  6
Continuous
 62
     7
370
    25
100
AcDbLine
 10
-233.0641003381
 20
44.2095916907
 30
0.0
 11
-232.8360465751
 21
43.9920353349
 31
0.0
  0
SPLINE
  5
A8
330
1F
100
AcDbEntity
  8
0
  6
Continuous
 62
     7
370
    25
100
AcDbSpline
210
0.0
220
0.0
230
1.0
 70
     8
 71
     3
 72
    17
 73
    13
 74
     0
 42
0.00000001
 43
0.00000001
 40
0.0
 40
0.0
 40
0.0
 40
0.0
 40
0.0005572710459166
 40
0.0005572710459166
 40
0.0005572710459166
 40
0.0009619046324377
 40
0.0009619046324377
 40
0.0009619046324377
 40
0.0013654976744542
 40
0.0013654976744542
 40
0.0013654976744542
 40
0.0014357518157297
 40
0.0014357518157297
 40
0.0014357518157297
 40
0.0014357518157297
 10
-232.8360465750744
 20
43.9920353348511
 30
0.0
 10
-232.9682147301997
 20
43.86150852723675
 30
0.0
 10
-233.119494795075
 20
43.74147931571018
 30
0.0
 10
-233.2910918258707
 20
43.67034474073192
 30
0.0
 10
-233.4170801811802
 20
43.61811698326083
 30
0.0
 10
-233.5535864548592
 20
43.58613475808801
 30
0.0
 10
-233.6897418704945
 20
43.57822861381674
 30
0.0
 10
-233.8257587332433
 20
43.57033051490383
 30
0.0
 10
-233.9641343113828
 20
43.58690321103653
 30
0.0
 10
-234.0963680164632
 20
43.6197241519003
 30
0.0
 10
-234.1196177126738
 20
43.6254948206111
 30
0.0
 10
-234.1427811043761
 20
43.63160956858493
 30
0.0
 10
-234.1659428283769
 20
43.6377237760202
 30
0.0
  0
SPLINE
  5
A9
330
1F
100
AcDbEntity
  8
0
  6
Continuous
 62
     7
370
    25
100
AcDbSpline
210
0.0
220
0.0
230
1.0
 70
     8
 71
     3
 72
    20
 73
    16
 74
     0
 42
0.00000001
 43
0.00000001
 40
0.0
 40
0.0
 40
0.0
 40
0.0
 40
0.0005491409115814
 40
0.0005491409115814
 40
0.0005491409115814
 40
0.000915136849992
 40
0.000915136849992
 40
0.000915136849992
 40
0.0013753593770975
 40
0.0013753593770975
 40
0.0013753593770975
 40
0.0018320539671522
 40
0.0018320539671522
 40
0.0018320539671522
 40
0.0020341442176117
 40
0.0020341442176117
 40
0.0020341442176117
 40
0.0020341442176117
 10
-234.1659428283769
 20
43.6377237760202
 30
0.0
 10
-234.3407253551327
 20
43.69210448730684
 30
0.0
 10
-234.5151306862927
 20
43.76777452549102
 30
0.0
 10
-234.6571067268796
 20
43.88331238646482
 30
0.0
 10
-234.7526385144963
 20
43.96105464741677
 30
0.0
 10
-234.8359743793466
 20
44.05660713981871
 30
0.0
 10
-234.8997621142832
 20
44.16196987732501
 30
0.0
 10
-234.9799114893594
 20
44.29435829926629
 30
0.0
 10
-235.0353496315466
 20
44.4436297989375
 30
0.0
 10
-235.0667997212315
 20
44.59516035179084
 30
0.0
 10
-235.097988816541
 20
44.74543340037675
 30
0.0
 10
-235.1052163911854
 20
44.90325815735567
 30
0.0
 10
-235.0840309731725
 20
45.05526449558258
 30
0.0
 10
-235.0745327757837
 20
45.12341449403688
 30
0.0
 10
-235.058286244679
 20
45.19054152520869
 30
0.0
 10
-235.0412724718168
 20
45.25721363013981
 30
0.0
  0
SPLINE
  5
AA
330
1F
100
AcDbEntity
  8
0
  6
Continuous
 62
     7
370
    25
100
AcDbSpline
210
0.0
220
0.0
230
1.0
 70
     8
 71
     3
 72
    14
 73
    10
 74
     0
 42
0.00000001
 43
0.00000001
 40
0.0
 40
0.0
 40
0.0
 40
0.0
 40
0.0002308434543068
 40
0.0002308434543068
 40
0.0002308434543068
 40
0.0006829038598401
 40
0.0006829038598401
 40
0.0006829038598401
 40
0.0009234522741165
 40
0.0009234522741165
 40
0.0009234522741165
 40
0.0009234522741165
 10
-235.0412724718168
 20
45.25721363013981
 30
0.0
 10
-235.018147450635
 20
45.33060436597233
 30
0.0
 10
-234.9934769797893
 20
45.40390001792208
 30
0.0
 10
-234.9609211645046
 20
45.47362150386326
 30
0.0
 10
-234.897874924024
 20
45.6086412393812
 30
0.0
 10
-234.8104842435949
 20
45.73458838704688
 30
0.0
 10
-234.7060771456916
 20
45.84091014082049
 30
0.0
 10
-234.6499175204731
 20
45.89809964195994
 30
0.0
 10
-234.587221621511
 20
45.9487655583815
 30
0.0
 10
-234.5235288077023
 20
45.99742527492809
 30
0.0
  0
SPLINE
  5
AB
330
1F
100
AcDbEntity
  8
0
  6
Continuous
 62
     7
370
    25
100
AcDbSpline
210
0.0
220
0.0
230
1.0
 70
     8
 71
     3
 72
    17
 73
    13
 74
     0
 42
0.00000001
 43
0.00000001
 40
0.0
 40
0.0
 40
0.0
 40
0.0
 40
0.0002882185107189
 40
0.0002882185107189
 40
0.0002882185107189
 40
0.0006778488010834
 40
0.0006778488010834
 40
0.0006778488010834
 40
0.0010663486248298
 40
0.0010663486248298
 40
0.0010663486248298
 40
0.001150405479214
 40
0.001150405479214
 40
0.001150405479214
 40
0.001150405479214
 10
-234.5235288077023
 20
45.99742527492812
 30
0.0
 10
-234.4439888969556
 20
46.05130841319622
 30
0.0
 10
-234.3620834534696
 20
46.10335425548281
 30
0.0
 10
-234.2739194354374
 20
46.14152618123516
 30
0.0
 10
-234.1556237972728
 20
46.19274404105621
 30
0.0
 10
-234.0269476728458
 20
46.2245855901749
 30
0.0
 10
-233.8983712458442
 20
46.23381757765966
 30
0.0
 10
-233.769880739655
 20
46.24304339589645
 30
0.0
 10
-233.6387100570535
 20
46.23072087939009
 30
0.0
 10
-233.5132690670338
 20
46.20140392310609
 30
0.0
 10
-233.4858400064539
 20
46.19499344619733
 30
0.0
 10
-233.4585288486373
 20
46.1880852942416
 30
0.0
 10
-233.431220653241
 20
46.18117804857555
 30
0.0
  0
SPLINE
  5
AC
330
1F
100
AcDbEntity
  8
0
  6
Continuous
 62
     7
370
    25
100
AcDbSpline
210
0.0
220
0.0
230
1.0
 70
     8
 71
     3
 72
    17
 73
    13
 74
     0
 42
0.00000001
 43
0.00000001
 40
0.0
 40
0.0
 40
0.0
 40
0.0
 40
0.000299412128159
 40
0.000299412128159
 40
0.000299412128159
 40
0.0007152961660543
 40
0.0007152961660543
 40
0.0007152961660543
 40
0.0011209330392239
 40
0.0011209330392239
 40
0.0011209330392239
 40
0.0011921448330224
 40
0.0011921448330224
 40
0.0011921448330224
 40
0.0011921448330224
 10
-233.431220653241
 20
46.18117804857555
 30
0.0
 10
-233.3359962680458
 20
46.15129220899581
 30
0.0
 10
-233.2410441034567
 20
46.11759499434688
 30
0.0
 10
-233.1529146722109
 20
46.07075430379404
 30
0.0
 10
-233.0314559276359
 20
46.0061991218401
 30
0.0
 10
-232.9181709048691
 20
45.92115596021787
 30
0.0
 10
-232.8257391230875
 20
45.8192934849509
 30
0.0
 10
-232.7353820411746
 20
45.71971738845941
 30
0.0
 10
-232.6622906159593
 20
45.60280640113839
 30
0.0
 10
-232.6076504554583
 20
45.47994772580481
 30
0.0
 10
-232.5979455804933
 20
45.45812626570023
 30
0.0
 10
-232.5885710990534
 20
45.43615886380024
 30
0.0
 10
-232.5791971792048
 20
45.41419320091799
 30
0.0
  0
SPLINE
  5
AD
330
1F
100
AcDbEntity
  8
0
  6
Continuous
 62
     7
370
    25
100
AcDbSpline
210
0.0
220
0.0
230
1.0
 70
     8
 71
     3
 72
    14
 73
    10
 74
     0
 42
0.00000001
 43
0.00000001
 40
0.0
 40
0.0
 40
0.0
 40
0.0
 40
0.0002378195104885
 40
0.0002378195104885
 40
0.0002378195104885
 40
0.0006919173035385
 40
0.0006919173035385
 40
0.0006919173035385
 40
0.0009489547744616
 40
0.0009489547744616
 40
0.0009489547744616
 40
0.0009489547744616
 10
-232.5791971792048
 20
45.41419320091799
 30
0.0
 10
-232.5517193344105
 20
45.33983458639943
 30
0.0
 10
-232.5277165821433
 20
45.26366906847072
 30
0.0
 10
-232.5129853504124
 20
45.18577666627795
 30
0.0
 10
-232.4851153218792
 20
45.03841197123448
 30
0.0
 10
-232.4836675281581
 20
44.88462815029616
 30
0.0
 10
-232.5033540120809
 20
44.73594885050476
 30
0.0
 10
-232.5145996884306
 20
44.65101751934909
 30
0.0
 10
-232.5343822653936
 20
44.56730988817117
 30
0.0
 10
-232.5554094773754
 20
44.48425778040317
 30
0.0
  0
LINE
  5
AE
330
1F
100
AcDbEntity
  8
0
  6
Continuous
 62
     7
370
    25
100
AcDbLine
 10
-232.5554094702
 20
44.4842577783
 30
0.0
 11
-234.7558200499
 21
45.1129465154
 31
0.0
  0
LINE
  5
AF
330
1F
100
AcDbEntity
  8
0
  6
Continuous
 62
     7
370
    25
100
AcDbLine
 10
-236.2843965893
 20
46.9497038021
 30
0.0
 11
-235.8529435214
 21
46.826431497
 31
0.0
  0
LINE
  5
B0
330
1F
100
AcDbEntity
  8
0
  6
Continuous
 62
     7
370
    25
100
AcDbLine
 10
-235.8529435214
 20
46.826431497
 30
0.0
 11
-235.5694172436
 21
47.818773524
 31
0.0
  0
LINE
  5
B1
330
1F
100
AcDbEntity
  8
0
  6
Continuous
 62
     7
370
    25
100
AcDbLine
 10
-235.5694172436
 20
47.818773524
 30
0.0
 11
-235.2674000989
 21
47.7324829112
 31
0.0
  0
LINE
  5
B2
330
1F
100
AcDbEntity
  8
0
  6
Continuous
 62
     7
370
    25
100
AcDbLine
 10
-235.2674000989
 20
47.7324829112
 30
0.0
 11
-235.5509263984
 21
46.7401408904
 31
0.0
  0
LINE
  5
B3
330
1F
100
AcDbEntity
  8
0
  6
Continuous
 62
     7
370
    25
100
AcDbLine
 10
-235.5509263984
 20
46.7401408904
 30
0.0
 11
-235.1194733378
 21
46.6168685874
 31
0.0
  0
LINE
  5
B4
330
1F
100
AcDbEntity
  8
0
  6
Continuous
 62
     7
370
    25
100
AcDbLine
 10
-235.1194733378
 20
46.6168685874
 30
0.0
 11
-235.2057639412
 21
46.3148514479
 31
0.0
  0
LINE
  5
B5
330
1F
100
AcDbEntity
  8
0
  6
Continuous
 62
     7
370
    25
100
AcDbLine
 10
-235.2057639412
 20
46.3148514479
 30
0.0
 11
-235.6372170019
 21
46.4381237509
 31
0.0
  0
LINE
  5
B6
330
1F
100
AcDbEntity
  8
0
  6
Continuous
 62
     7
370
    25
100
AcDbLine
 10
-235.6372170019
 20
46.4381237509
 30
0.0
 11
-236.2535784996
 21
44.2808584817
 31
0.0
  0
LINE
  5
B7
330
1F
100
AcDbEntity
  8
0
  6
Continuous
 62
     7
370
    25
100
AcDbLine
 10
-236.2535784996
 20
44.2808584817
 30
0.0
 11
-236.5555956442
 21
44.3671490945
 31
0.0
  0
LINE
  5
B8
330
1F
100
AcDbEntity
  8
0
  6
Continuous
 62
     7
370
    25
100
AcDbLine
 10
-236.5555956442
 20
44.3671490945
 30
0.0
 11
-235.9392341321
 21
46.5244143596
 31
0.0
  0
LINE
  5
B9
330
1F
100
AcDbEntity
  8
0
  6
Continuous
 62
     7
370
    25
100
AcDbLine
 10
-235.9392341321
 20
46.5244143596
 30
0.0
 11
-236.3706871927
 21
46.6476866626
 31
0.0
  0
LINE
  5
BA
330
1F
100
AcDbEntity
  8
0
  6
Continuous
 62
     7
370
    25
100
AcDbLine
 10
-236.3706871927
 20
46.6476866626
 30
0.0
 11
-236.2843965893
 21
46.9497038021
 31
0.0
  0
LINE
  5
BB
330
1F
100
AcDbEntity
  8
0
  6
Continuous
 62
     7
370
    25
100
AcDbLine
 10
-238.0225360186
 20
44.7862749157
 30
0.0
 11
-238.3245531705
 21
44.8725655306
 31
0.0
  0
LINE
  5
BC
330
1F
100
AcDbEntity
  8
0
  6
Continuous
 62
     7
370
    25
100
AcDbLine
 10
-238.3245531705
 20
44.8725655306
 30
0.0
 11
-237.6219010549
 21
47.3318479351
 31
0.0
  0
LINE
  5
BD
330
1F
100
AcDbEntity
  8
0
  6
Continuous
 62
     7
370
    25
100
AcDbLine
 10
-237.6219010549
 20
47.3318479351
 30
0.0
 11
-237.3198839102
 21
47.2455573223
 31
0.0
  0
LINE
  5
BE
330
1F
100
AcDbEntity
  8
0
  6
Continuous
 62
     7
370
    25
100
AcDbLine
 10
-237.3198839102
 20
47.2455573223
 30
0.0
 11
-237.4233170753
 21
46.8835412447
 31
0.0
  0
SPLINE
  5
BF
330
1F
100
AcDbEntity
  8
0
  6
Continuous
 62
     7
370
    25
100
AcDbSpline
210
0.0
220
0.0
230
1.0
 70
     8
 71
     3
 72
    17
 73
    13
 74
     0
 42
0.00000001
 43
0.00000001
 40
0.0
 40
0.0
 40
0.0
 40
0.0
 40
0.0001981698732198
 40
0.0001981698732198
 40
0.0001981698732198
 40
0.0004970791003168
 40
0.0004970791003168
 40
0.0004970791003168
 40
0.0007189072523887
 40
0.0007189072523887
 40
0.0007189072523887
 40
0.0007881237290462
 40
0.0007881237290462
 40
0.0007881237290462
 40
0.0007881237290462
 10
-237.4233170752767
 20
46.88354124470472
 30
0.0
 10
-237.3731402228885
 20
46.9265035667137
 30
0.0
 10
-237.3222426667035
 20
46.96909419201181
 30
0.0
 10
-237.2671414789233
 20
47.00552682481822
 30
0.0
 10
-237.1849606618236
 20
47.05986437458333
 30
0.0
 10
-237.093031985576
 20
47.10418373006716
 30
0.0
 10
-236.9966716297696
 20
47.12470049985466
 30
0.0
 10
-236.9247586356506
 20
47.14001200771206
 30
0.0
 10
-236.8486697793661
 20
47.14462972407657
 30
0.0
 10
-236.7762207795632
 20
47.13209722936933
 30
0.0
 10
-236.7531517561563
 20
47.12810666477167
 30
0.0
 10
-236.7303451088512
 20
47.12268770845112
 30
0.0
 10
-236.7075672777139
 20
47.11727708414003
 30
0.0
  0
SPLINE
  5
C0
330
1F
100
AcDbEntity
  8
0
  6
Continuous
 62
     7
370
    25
100
AcDbSpline
210
0.0
220
0.0
230
1.0
 70
     8
 71
     3
 72
    14
 73
    10
 74
     0
 42
0.00000001
 43
0.00000001
 40
0.0
 40
0.0
 40
0.0
 40
0.0
 40
0.0000730721472228
 40
0.0000730721472228
 40
0.0000730721472228
 40
0.0001464169730423
 40
0.0001464169730423
 40
0.0001464169730423
 40
0.0002910937553394
 40
0.0002910937553394
 40
0.0002910937553394
 40
0.0002910937553394
 10
-236.7075672777138
 20
47.11727708414001
 30
0.0
 10
-236.6845462820221
 20
47.1093199593383
 30
0.0
 10
-236.6614362742236
 20
47.10129180204181
 30
0.0
 10
-236.6394882425751
 20
47.09072932200593
 30
0.0
 10
-236.6174752728695
 20
47.08013559056026
 30
0.0
 10
-236.596489245502
 20
47.06732562903261
 30
0.0
 10
-236.576429046598
 20
47.05338337666319
 30
0.0
 10
-236.5370303746448
 20
47.02600048629309
 30
0.0
 10
-236.5022174156011
 20
46.99224801084171
 30
0.0
 10
-236.4687271945659
 20
46.95788985123274
 30
0.0
  0
LINE
  5
C1
330
1F
100
AcDbEntity
  8
0
  6
Continuous
 62
     7
370
    25
100
AcDbLine
 10
-236.4687271841
 20
46.9578898605
 30
0.0
 11
-236.7093007944
 21
46.7437042283
 31
0.0
  0
SPLINE
  5
C2
330
1F
100
AcDbEntity
  8
0
  6
Continuous
 62
     7
370
    25
100
AcDbSpline
210
0.0
220
0.0
230
1.0
 70
     8
 71
     3
 72
    14
 73
    10
 74
     0
 42
0.00000001
 43
0.00000001
 40
0.0
 40
0.0
 40
0.0
 40
0.0
 40
0.0000422394952385
 40
0.0000422394952385
 40
0.0000422394952385
 40
0.0000845275599884
 40
0.0000845275599884
 40
0.0000845275599884
 40
0.0001686819279088
 40
0.0001686819279088
 40
0.0001686819279088
 40
0.0001686819279088
 10
-236.7093007944465
 20
46.74370422828081
 30
0.0
 10
-236.7200885513928
 20
46.75275220938528
 30
0.0
 10
-236.7308790946861
 20
46.76180258285978
 30
0.0
 10
-236.7419156751295
 20
46.77054532579994
 30
0.0
 10
-236.7529593193585
 20
46.77929366439197
 30
0.0
 10
-236.7642655976778
 20
46.78774143717448
 30
0.0
 10
-236.7759938422628
 20
46.79554808721996
 30
0.0
 10
-236.7991300712509
 20
46.81094821311031
 30
0.0
 10
-236.8248945608551
 20
46.82254564742272
 30
0.0
 10
-236.8511602470581
 20
46.83163204921392
 30
0.0
  0
SPLINE
  5
C3
330
1F
100
AcDbEntity
  8
0
  6
Continuous
 62
     7
370
    25
100
AcDbSpline
210
0.0
220
0.0
230
1.0
 70
     8
 71
     3
 72
    20
 73
    16
 74
     0
 42
0.00000001
 43
0.00000001
 40
0.0
 40
0.0
 40
0.0
 40
0.0
 40
0.0001403215685939
 40
0.0001403215685939
 40
0.0001403215685939
 40
0.0002797443325613
 40
0.0002797443325613
 40
0.0002797443325613
 40
0.0004451294925453
 40
0.0004451294925453
 40
0.0004451294925453
 40
0.0007446735375264
 40
0.0007446735375264
 40
0.0007446735375264
 40
0.0007978340995411
 40
0.0007978340995411
 40
0.0007978340995411
 40
0.0007978340995411
 10
-236.8511602470581
 20
46.83163204921389
 30
0.0
 10
-236.8968894390565
 20
46.84146234029857
 30
0.0
 10
-236.9446815435539
 20
46.84799670184206
 30
0.0
 10
-236.9910876194884
 20
46.84214266562871
 30
0.0
 10
-237.0375963563813
 20
46.83627567893515
 30
0.0
 10
-237.0833166280203
 20
46.8222332270125
 30
0.0
 10
-237.1263411990018
 20
46.80362219716254
 30
0.0
 10
-237.177302518632
 20
46.78157798802359
 30
0.0
 10
-237.2258680075539
 20
46.75231660925702
 30
0.0
 10
-237.2683670753754
 20
46.71658381634471
 30
0.0
 10
-237.3451070134635
 20
46.65206164076849
 30
0.0
 10
-237.4091034227508
 20
46.57178630095891
 30
0.0
 10
-237.4629046311261
 20
46.48718394155797
 30
0.0
 10
-237.4725424337802
 20
46.47202850418768
 30
0.0
 10
-237.4819263702735
 20
46.45671261773235
 30
0.0
 10
-237.4913094537858
 20
46.44139817142556
 30
0.0
  0
SPLINE
  5
C4
330
1F
100
AcDbEntity
  8
0
  6
Continuous
 62
     7
370
    25
100
AcDbSpline
210
0.0
220
0.0
230
1.0
 70
     8
 71
     3
 72
    14
 73
    10
 74
     0
 42
0.00000001
 43
0.00000001
 40
0.0
 40
0.0
 40
0.0
 40
0.0
 40
0.0002211578864166
 40
0.0002211578864166
 40
0.0002211578864166
 40
0.0004415032482565
 40
0.0004415032482565
 40
0.0004415032482565
 40
0.0008801807923611
 40
0.0008801807923611
 40
0.0008801807923611
 40
0.0008801807923611
 10
-237.4913094537858
 20
46.44139817142556
 30
0.0
 10
-237.5271417867866
 20
46.37697318840934
 30
0.0
 10
-237.5569021652488
 20
46.30914646305949
 30
0.0
 10
-237.5838009789437
 20
46.2405098230869
 30
0.0
 10
-237.6106340002118
 20
46.17204106305
 30
0.0
 10
-237.6347794585772
 20
46.10252392540252
 30
0.0
 10
-237.6581057388477
 20
46.03278249739798
 30
0.0
 10
-237.704539077542
 20
45.89395507570769
 30
0.0
 10
-237.7460611870444
 20
45.75349849786781
 30
0.0
 10
-237.7863925242559
 20
45.61277717327837
 30
0.0
  0
LINE
  5
C5
330
1F
100
AcDbEntity
  8
0
  6
Continuous
 62
     7
370
    25
100
AcDbLine
 10
-237.7863925243
 20
45.6127771733
 30
0.0
 11
-238.0225360186
 21
44.7862749157
 31
0.0
  0
SPLINE
  5
C6
330
1F
100
AcDbEntity
  8
0
  6
Continuous
 62
     7
370
    25
100
AcDbSpline
210
0.0
220
0.0
230
1.0
 70
     8
 71
     3
 72
    15
 73
    11
 74
     0
 42
0.00000001
 43
0.00000001
 40
0.0
 40
0.0
 40
0.0
 40
0.0
 40
0.1289191318119737
 40
0.2552377249249216
 40
0.3786785959785435
 40
0.501087887185155
 40
0.6227136794297817
 40
0.7462407949383849
 40
0.8715890472316687
 40
1.0
 40
1.0
 40
1.0
 40
1.0
 10
-241.0384699144735
 20
46.97069861375746
 30
0.0
 10
-241.0256272148875
 20
47.01155915090143
 30
0.0
 10
-241.0002008768556
 20
47.09245599214794
 30
0.0
 10
-240.9501882135359
 20
47.2080927640117
 30
0.0
 10
-240.890724183445
 20
47.31663022051988
 30
0.0
 10
-240.8216358407143
 20
47.41745500890084
 30
0.0
 10
-240.7433242194626
 20
47.51130766784225
 30
0.0
 10
-240.6557790192837
 20
47.59799746382259
 30
0.0
 10
-240.5584576821724
 20
47.6773002967537
 30
0.0
 10
-240.4878738821203
 20
47.72340546030708
 30
0.0
 10
-240.4521560329391
 20
47.74673627101794
 30
0.0
  0
SPLINE
  5
C7
330
1F
100
AcDbEntity
  8
0
  6
Continuous
 62
     7
370
    25
100
AcDbSpline
210
0.0
220
0.0
230
1.0
 70
     8
 71
     3
 72
    15
 73
    11
 74
     0
 42
0.00000001
 43
0.00000001
 40
0.0
 40
0.0
 40
0.0
 40
0.0
 40
0.1284975211375239
 40
0.2527129855154617
 40
0.3748191325670417
 40
0.4964364263727268
 40
0.6179105567458635
 40
0.741287617309291
 40
0.8687004007446204
 40
1.0
 40
1.0
 40
1.0
 40
1.0
 10
-240.4521560329391
 20
47.74673627101792
 30
0.0
 10
-240.4116223019685
 20
47.77048967520449
 30
0.0
 10
-240.3319055877704
 20
47.81720492414478
 30
0.0
 10
-240.2051896238218
 20
47.86995553079652
 30
0.0
 10
-240.0767178136817
 20
47.91012317651236
 30
0.0
 10
-239.9452600570787
 20
47.93442001523926
 30
0.0
 10
-239.8115454489275
 20
47.94492863521012
 30
0.0
 10
-239.6754670458551
 20
47.93991773842336
 30
0.0
 10
-239.5366730807197
 20
47.92236614262599
 30
0.0
 10
-239.4451863156283
 20
47.89836760411355
 30
0.0
 10
-239.3987556984745
 20
47.88618806150088
 30
0.0
  0
SPLINE
  5
C8
330
1F
100
AcDbEntity
  8
0
  6
Continuous
 62
     7
370
    25
100
AcDbSpline
210
0.0
220
0.0
230
1.0
 70
     8
 71
     3
 72
    15
 73
    11
 74
     0
 42
0.00000001
 43
0.00000001
 40
0.0
 40
0.0
 40
0.0
 40
0.0
 40
0.1317514273024142
 40
0.2583323505141534
 40
0.3821339760925561
 40
0.5038043916000844
 40
0.6246929865409308
 40
0.746870589727583
 40
0.8715135042348197
 40
1.0
 40
1.0
 40
1.0
 40
1.0
 10
-239.3987556984745
 20
47.88618806150085
 30
0.0
 10
-239.3528916754442
 20
47.87202127209421
 30
0.0
 10
-239.262963534884
 20
47.84424366025671
 30
0.0
 10
-239.1363410959552
 20
47.78579392010178
 30
0.0
 10
-239.0188536904366
 20
47.718168316909
 30
0.0
 10
-238.9103443089834
 20
47.6400825012423
 30
0.0
 10
-238.8131548190121
 20
47.54920389435384
 30
0.0
 10
-238.7246149293252
 20
47.44859998352923
 30
0.0
 10
-238.645474108125
 20
47.33677307636688
 30
0.0
 10
-238.6021443956827
 20
47.2553797256965
 30
0.0
 10
-238.580150574782
 20
47.21406510170646
 30
0.0
  0
SPLINE
  5
C9
330
1F
100
AcDbEntity
  8
0
  6
Continuous
 62
     7
370
    25
100
AcDbSpline
210
0.0
220
0.0
230
1.0
 70
     8
 71
     3
 72
    14
 73
    10
 74
     0
 42
0.00000001
 43
0.00000001
 40
0.0
 40
0.0
 40
0.0
 40
0.0
 40
0.0002505146958779
 40
0.0002505146958779
 40
0.0002505146958779
 40
0.000680048371002
 40
0.000680048371002
 40
0.000680048371002
 40
0.0010005426548903
 40
0.0010005426548903
 40
0.0010005426548903
 40
0.0010005426548903
 10
-238.580150574782
 20
47.21406510170646
 30
0.0
 10
-238.5448161866737
 20
47.13840435156785
 30
0.0
 10
-238.5118761710965
 20
47.06108168454637
 30
0.0
 10
-238.488520433786
 20
46.98090950964003
 30
0.0
 10
-238.4488676098435
 20
46.84479506827665
 30
0.0
 10
-238.4318081586939
 20
46.70005946842294
 30
0.0
 10
-238.4390885348377
 20
46.55847386280757
 30
0.0
 10
-238.4445600272015
 20
46.45206664638542
 30
0.0
 10
-238.46628996017
 20
46.34656424222071
 30
0.0
 10
-238.4928968992451
 20
46.24339203797728
 30
0.0
  0
SPLINE
  5
CA
330
1F
100
AcDbEntity
  8
0
  6
Continuous
 62
     7
370
    25
100
AcDbSpline
210
0.0
220
0.0
230
1.0
 70
     8
 71
     3
 72
    20
 73
    16
 74
     0
 42
0.00000001
 43
0.00000001
 40
0.0
 40
0.0
 40
0.0
 40
0.0
 40
0.0004624291596242
 40
0.0004624291596242
 40
0.0004624291596242
 40
0.0009273148778709
 40
0.0009273148778709
 40
0.0009273148778709
 40
0.0013776362769867
 40
0.0013776362769867
 40
0.0013776362769867
 40
0.0018180041039758
 40
0.0018180041039758
 40
0.0018180041039758
 40
0.0020683029090023
 40
0.0020683029090023
 40
0.0020683029090023
 40
0.0020683029090023
 10
-238.4928968992451
 20
46.24339203797731
 30
0.0
 10
-238.5385905492687
 20
46.09617732675648
 30
0.0
 10
-238.6023754758584
 20
45.95120325669957
 30
0.0
 10
-238.6929385699961
 20
45.82646991379359
 30
0.0
 10
-238.7839987242112
 20
45.70105196568866
 30
0.0
 10
-238.9006110988879
 20
45.59197116245664
 30
0.0
 10
-239.0289611725184
 20
45.50509267264716
 30
0.0
 10
-239.153332062329
 20
45.42090764043508
 30
0.0
 10
-239.2931052496772
 20
45.35456939865709
 30
0.0
 10
-239.4386922614813
 20
45.31769583258631
 30
0.0
 10
-239.5809152486483
 20
45.28167429021735
 30
0.0
 10
-239.732210924191
 20
45.27412340261228
 30
0.0
 10
-239.877997969785
 20
45.29058751298258
 30
0.0
 10
-239.9618180178311
 20
45.30005352909293
 30
0.0
 10
-240.0443880201422
 20
45.31952661032678
 30
0.0
 10
-240.1260622742547
 20
45.34061504627246
 30
0.0
  0
SPLINE
  5
CB
330
1F
100
AcDbEntity
  8
0
  6
Continuous
 62
     7
370
    25
100
AcDbSpline
210
0.0
220
0.0
230
1.0
 70
     8
 71
     3
 72
    20
 73
    16
 74
     0
 42
0.00000001
 43
0.00000001
 40
0.0
 40
0.0
 40
0.0
 40
0.0
 40
0.0004894588664669
 40
0.0004894588664669
 40
0.0004894588664669
 40
0.0008960592199679
 40
0.0008960592199679
 40
0.0008960592199679
 40
0.0012999136940325
 40
0.0012999136940325
 40
0.0012999136940325
 40
0.0017735426854172
 40
0.0017735426854172
 40
0.0017735426854172
 40
0.0020670759240001
 40
0.0020670759240001
 40
0.0020670759240001
 40
0.0020670759240001
 10
-240.1260622742547
 20
45.3406150462724
 30
0.0
 10
-240.281740142689
 20
45.38943397871183
 30
0.0
 10
-240.4364793811191
 20
45.45422601424684
 30
0.0
 10
-240.5683058495147
 20
45.55035441335517
 30
0.0
 10
-240.6781674869705
 20
45.63046596804213
 30
0.0
 10
-240.7757979722349
 20
45.73065391939772
 30
0.0
 10
-240.8526458939609
 20
45.84282270964361
 30
0.0
 10
-240.9292418731223
 20
45.9546237593957
 30
0.0
 10
-240.9886844659838
 20
46.07957997465825
 30
0.0
 10
-241.0301049392032
 20
46.20861781076704
 30
0.0
 10
-241.0783330628078
 20
46.35886362463165
 30
0.0
 10
-241.0993095571696
 20
46.52078126648852
 30
0.0
 10
-241.0894683548154
 20
46.6782706541516
 30
0.0
 10
-241.083297374475
 20
46.77702524531986
 30
0.0
 10
-241.0634901561925
 20
46.87496702137805
 30
0.0
 10
-241.0384699144735
 20
46.97069861375746
 30
0.0
  0
LINE
  5
CC
330
1F
100
AcDbEntity
  8
0
  6
Continuous
 62
     7
370
    25
100
AcDbLine
 10
-244.4511865147
 20
45.6430174076
 30
0.0
 11
-244.7532036666
 21
45.7293080224
 31
0.0
  0
LINE
  5
CD
330
1F
100
AcDbEntity
  8
0
  6
Continuous
 62
     7
370
    25
100
AcDbLine
 10
-244.7532036666
 20
45.7293080224
 30
0.0
 11
-243.7916797189
 21
49.0946418391
 31
0.0
  0
LINE
  5
CE
330
1F
100
AcDbEntity
  8
0
  6
Continuous
 62
     7
370
    25
100
AcDbLine
 10
-243.7916797189
 20
49.0946418391
 30
0.0
 11
-243.4896625743
 21
49.0083512264
 31
0.0
  0
LINE
  5
CF
330
1F
100
AcDbEntity
  8
0
  6
Continuous
 62
     7
370
    25
100
AcDbLine
 10
-243.4896625743
 20
49.0083512264
 30
0.0
 11
-243.6196763292
 21
48.5533030841
 31
0.0
  0
SPLINE
  5
D0
330
1F
100
AcDbEntity
  8
0
  6
Continuous
 62
     7
370
    25
100
AcDbSpline
210
0.0
220
0.0
230
1.0
 70
     8
 71
     3
 72
    14
 73
    10
 74
     0
 42
0.00000001
 43
0.00000001
 40
0.0
 40
0.0
 40
0.0
 40
0.0
 40
0.0004500211189418
 40
0.0004500211189418
 40
0.0004500211189418
 40
0.0009077304207821
 40
0.0009077304207821
 40
0.0009077304207821
 40
0.0011990105034113
 40
0.0011990105034113
 40
0.0011990105034113
 40
0.0011990105034113
 10
-243.6196763292037
 20
48.55330308406873
 30
0.0
 10
-243.4986446496516
 20
48.64192274604346
 30
0.0
 10
-243.3673447486648
 20
48.72236558324337
 30
0.0
 10
-243.2248533374292
 20
48.76925171837761
 30
0.0
 10
-243.0805671574999
 20
48.81672841379039
 30
0.0
 10
-242.923562385218
 20
48.83141825658165
 30
0.0
 10
-242.7720572822509
 20
48.82052137166605
 30
0.0
 10
-242.6745657603448
 20
48.8135093709238
 30
0.0
 10
-242.5783348923571
 20
48.79182537359585
 30
0.0
 10
-242.4836450304886
 20
48.76758501350566
 30
0.0
  0
SPLINE
  5
D1
330
1F
100
AcDbEntity
  8
0
  6
Continuous
 62
     7
370
    25
100
AcDbSpline
210
0.0
220
0.0
230
1.0
 70
     8
 71
     3
 72
    20
 73
    16
 74
     0
 42
0.00000001
 43
0.00000001
 40
0.0
 40
0.0
 40
0.0
 40
0.0
 40
0.0004802557445756
 40
0.0004802557445756
 40
0.0004802557445756
 40
0.0009640780057038
 40
0.0009640780057038
 40
0.0009640780057038
 40
0.0014069382199084
 40
0.0014069382199084
 40
0.0014069382199084
 40
0.001887131529463
 40
0.001887131529463
 40
0.001887131529463
 40
0.002078478923932
 40
0.002078478923932
 40
0.002078478923932
 40
0.002078478923932
 10
-242.4836450304886
 20
48.76758501350569
 30
0.0
 10
-242.3310553783797
 20
48.71917339550008
 30
0.0
 10
-242.1796000556251
 20
48.65479652267678
 30
0.0
 10
-242.0505126357496
 20
48.56011957343065
 30
0.0
 10
-241.9204494622733
 20
48.46472697447798
 30
0.0
 10
-241.8070745629715
 20
48.34253794916413
 30
0.0
 10
-241.7197694497583
 20
48.20691348884634
 30
0.0
 10
-241.6394784211248
 20
48.08218508490744
 30
0.0
 10
-241.5762338028351
 20
47.94393922257355
 30
0.0
 10
-241.5385724047345
 20
47.80046294188127
 30
0.0
 10
-241.4980200321917
 20
47.645973096068
 30
0.0
 10
-241.4892686831378
 20
47.48018294084952
 30
0.0
 10
-241.5117206489259
 20
47.322045290018
 30
0.0
 10
-241.5208217627911
 20
47.25794271743356
 30
0.0
 10
-241.5363346091605
 20
47.19483877505079
 30
0.0
 10
-241.5523613191822
 20
47.13210828285276
 30
0.0
  0
SPLINE
  5
D2
330
1F
100
AcDbEntity
  8
0
  6
Continuous
 62
     7
370
    25
100
AcDbSpline
210
0.0
220
0.0
230
1.0
 70
     8
 71
     3
 72
    20
 73
    16
 74
     0
 42
0.00000001
 43
0.00000001
 40
0.0
 40
0.0
 40
0.0
 40
0.0
 40
0.0004684396766366
 40
0.0004684396766366
 40
0.0004684396766366
 40
0.000941641419891
 40
0.000941641419891
 40
0.000941641419891
 40
0.0013661025026751
 40
0.0013661025026751
 40
0.0013661025026751
 40
0.0018425438791309
 40
0.0018425438791309
 40
0.0018425438791309
 40
0.0020845334525922
 40
0.0020845334525922
 40
0.0020845334525922
 40
0.0020845334525922
 10
-241.5523613191822
 20
47.13210828285276
 30
0.0
 10
-241.5992934825859
 20
46.98318172414692
 30
0.0
 10
-241.6622205637209
 20
46.83566299111179
 30
0.0
 10
-241.753800658077
 20
46.70919230609968
 30
0.0
 10
-241.8461663798664
 20
46.58163668182913
 30
0.0
 10
-241.9659001846928
 20
46.47111800278122
 30
0.0
 10
-242.0983603043768
 20
46.38593478531428
 30
0.0
 10
-242.2178952262963
 20
46.30906357854615
 30
0.0
 10
-242.3495807666831
 20
46.24742813910185
 30
0.0
 10
-242.4866182252613
 20
46.20976496166371
 30
0.0
 10
-242.639608213845
 20
46.16771741389044
 30
0.0
 10
-242.8033335279746
 20
46.15509767658477
 30
0.0
 10
-242.9611010462683
 20
46.17193047350145
 30
0.0
 10
-243.0423193392977
 20
46.18059595196792
 30
0.0
 10
-243.1223906710219
 20
46.19904059530734
 30
0.0
 10
-243.201513570725
 20
46.21931541669329
 30
0.0
  0
SPLINE
  5
D3
330
1F
100
AcDbEntity
  8
0
  6
Continuous
 62
     7
370
    25
100
AcDbSpline
210
0.0
220
0.0
230
1.0
 70
     8
 71
     3
 72
    17
 73
    13
 74
     0
 42
0.00000001
 43
0.00000001
 40
0.0
 40
0.0
 40
0.0
 40
0.0
 40
0.0002942541712958
 40
0.0002942541712958
 40
0.0002942541712958
 40
0.0007143445873153
 40
0.0007143445873153
 40
0.0007143445873153
 40
0.0011365534435721
 40
0.0011365534435721
 40
0.0011365534435721
 40
0.001202247568787
 40
0.001202247568787
 40
0.001202247568787
 40
0.001202247568787
 10
-243.201513570725
 20
46.21931541669331
 30
0.0
 10
-243.2951075826021
 20
46.24865436651886
 30
0.0
 10
-243.3881311557816
 20
46.28273184566464
 30
0.0
 10
-243.4743927637529
 20
46.32941747542706
 30
0.0
 10
-243.5966371094825
 20
46.39557731639793
 30
0.0
 10
-243.7096499498069
 20
46.48298151857122
 30
0.0
 10
-243.8034476703007
 20
46.5855621807367
 30
0.0
 10
-243.8979595600509
 20
46.68892388485961
 30
0.0
 10
-243.975005697878
 20
46.80935210690659
 30
0.0
 10
-244.0364508312432
 20
46.93521169044745
 30
0.0
 10
-244.0460972757066
 20
46.95497074077935
 30
0.0
 10
-244.055547527536
 20
46.974825171495
 30
0.0
 10
-244.0649975164929
 20
46.99467892855809
 30
0.0
  0
LINE
  5
D4
330
1F
100
AcDbEntity
  8
0
  6
Continuous
 62
     7
370
    25
100
AcDbLine
 10
-244.0649975165
 20
46.9946789286
 30
0.0
 11
-244.4511865147
 21
45.6430174076
 31
0.0
  0
SPLINE
  5
D5
330
1F
100
AcDbEntity
  8
0
  6
Continuous
 62
     7
370
    25
100
AcDbSpline
210
0.0
220
0.0
230
1.0
 70
     8
 71
     3
 72
    14
 73
    10
 74
     0
 42
0.00000001
 43
0.00000001
 40
0.0
 40
0.0
 40
0.0
 40
0.0
 40
0.0002499791413129
 40
0.0002499791413129
 40
0.0002499791413129
 40
0.0006809721629378
 40
0.0006809721629378
 40
0.0006809721629378
 40
0.0009988873845398
 40
0.0009988873845398
 40
0.0009988873845398
 40
0.0009988873845398
 10
-247.2945391891875
 20
48.758146977963
 30
0.0
 10
-247.269554278487
 20
48.83763936699565
 30
0.0
 10
-247.2423004664311
 20
48.91692877202336
 30
0.0
 10
-247.2058930173325
 20
48.9918806454287
 30
0.0
 10
-247.1437557258913
 20
49.11980244487284
 30
0.0
 10
-247.0587705969628
 20
49.23877988415282
 30
0.0
 10
-246.9579584515534
 20
49.33908911153817
 30
0.0
 10
-246.8830766326807
 20
49.41359737009996
 30
0.0
 10
-246.7966649144997
 20
49.47641610285133
 30
0.0
 10
-246.7082253076532
 20
49.53418463522348
 30
0.0
  0
SPLINE
  5
D6
330
1F
100
AcDbEntity
  8
0
  6
Continuous
 62
     7
370
    25
100
AcDbSpline
210
0.0
220
0.0
230
1.0
 70
     8
 71
     3
 72
    14
 73
    10
 74
     0
 42
0.00000001
 43
0.00000001
 40
0.0
 40
0.0
 40
0.0
 40
0.0
 40
0.0002754123097201
 40
0.0002754123097201
 40
0.0002754123097201
 40
0.0006914652771304
 40
0.0006914652771304
 40
0.0006914652771304
 40
0.0010976654675063
 40
0.0010976654675063
 40
0.0010976654675063
 40
0.0010976654675063
 10
-246.7082253076532
 20
49.53418463522348
 30
0.0
 10
-246.6290194891662
 20
49.58060049123758
 30
0.0
 10
-246.5471602910113
 20
49.62393913080207
 30
0.0
 10
-246.4608947831361
 20
49.65534383622554
 30
0.0
 10
-246.3316644301912
 20
49.70238976762935
 30
0.0
 10
-246.1926415017347
 20
49.72859945812772
 30
0.0
 10
-246.0551210572874
 20
49.72998911381289
 30
0.0
 10
-245.9203801967023
 20
49.73135068156886
 30
0.0
 10
-245.7851630135495
 20
49.70782631621282
 30
0.0
 10
-245.6548249731885
 20
49.67363642570636
 30
0.0
  0
SPLINE
  5
D7
330
1F
100
AcDbEntity
  8
0
  6
Continuous
 62
     7
370
    25
100
AcDbSpline
210
0.0
220
0.0
230
1.0
 70
     8
 71
     3
 72
    14
 73
    10
 74
     0
 42
0.00000001
 43
0.00000001
 40
0.0
 40
0.0
 40
0.0
 40
0.0
 40
0.0002744582436777
 40
0.0002744582436777
 40
0.0002744582436777
 40
0.0007085118177834
 40
0.0007085118177834
 40
0.0007085118177834
 40
0.0010935203896306
 40
0.0010935203896306
 40
0.0010935203896306
 40
0.0010935203896306
 10
-245.6548249731885
 20
49.67363642570639
 30
0.0
 10
-245.56741389636
 20
49.64663630152604
 30
0.0
 10
-245.4804114931995
 20
49.61598822042664
 30
0.0
 10
-245.3989697518521
 20
49.5743115384043
 30
0.0
 10
-245.2712884130983
 20
49.50897238347709
 30
0.0
 10
-245.151813290092
 20
49.42210461922448
 30
0.0
 10
-245.0538248422369
 20
49.3173668823788
 30
0.0
 10
-244.966478009293
 20
49.22400373801385
 30
0.0
 10
-244.8962990604641
 20
49.11437016425337
 30
0.0
 10
-244.836219849496
 20
49.00151346591198
 30
0.0
  0
SPLINE
  5
D8
330
1F
100
AcDbEntity
  8
0
  6
Continuous
 62
     7
370
    25
100
AcDbSpline
210
0.0
220
0.0
230
1.0
 70
     8
 71
     3
 72
    15
 73
    11
 74
     0
 42
0.00000001
 43
0.00000001
 40
0.0
 40
0.0
 40
0.0
 40
0.0
 40
0.1281572795931876
 40
0.2538343627967237
 40
0.3765056225222112
 40
0.4985336856679128
 40
0.6213677287324593
 40
0.7445647449043576
 40
0.8706337982552773
 40
1.0
 40
1.0
 40
1.0
 40
1.0
 10
-244.836219849496
 20
49.00151346591201
 30
0.0
 10
-244.8181643930709
 20
48.96285171314506
 30
0.0
 10
-244.7824029030392
 20
48.88627641902696
 30
0.0
 10
-244.7424929552473
 20
48.76727811522505
 30
0.0
 10
-244.7130606083216
 20
48.64744148669542
 30
0.0
 10
-244.6967221085773
 20
48.52603436206208
 30
0.0
 10
-244.691496112807
 20
48.40350973550958
 30
0.0
 10
-244.6983015249895
 20
48.27971414940875
 30
0.0
 10
-244.7169779119963
 20
48.15487945407483
 30
0.0
 10
-244.7382120567983
 20
48.07254102655946
 30
0.0
 10
-244.7489661739591
 20
48.03084040218282
 30
0.0
  0
SPLINE
  5
D9
330
1F
100
AcDbEntity
  8
0
  6
Continuous
 62
     7
370
    25
100
AcDbSpline
210
0.0
220
0.0
230
1.0
 70
     8
 71
     3
 72
    20
 73
    16
 74
     0
 42
0.00000001
 43
0.00000001
 40
0.0
 40
0.0
 40
0.0
 40
0.0
 40
0.0004624291596227
 40
0.0004624291596227
 40
0.0004624291596227
 40
0.0009273148778679
 40
0.0009273148778679
 40
0.0009273148778679
 40
0.0013776362769835
 40
0.0013776362769835
 40
0.0013776362769835
 40
0.0018180041039719
 40
0.0018180041039719
 40
0.0018180041039719
 40
0.0020683029090023
 40
0.0020683029090023
 40
0.0020683029090023
 40
0.0020683029090023
 10
-244.7489661739591
 20
48.03084040218282
 30
0.0
 10
-244.7946598239826
 20
47.8836256909625
 30
0.0
 10
-244.8584447505719
 20
47.73865162090595
 30
0.0
 10
-244.9490078447093
 20
47.61391827800027
 30
0.0
 10
-245.0400679989239
 20
47.4885003298957
 30
0.0
 10
-245.1566803736
 20
47.37941952666392
 30
0.0
 10
-245.2850304472299
 20
47.2925410368545
 30
0.0
 10
-245.4094013370403
 20
47.20835600464217
 30
0.0
 10
-245.5491745243881
 20
47.14201776286382
 30
0.0
 10
-245.6947615361921
 20
47.10514419679276
 30
0.0
 10
-245.8369845233588
 20
47.06912265442351
 30
0.0
 10
-245.9882801989012
 20
47.06157176681786
 30
0.0
 10
-246.1340672444951
 20
47.07803587718757
 30
0.0
 10
-246.2178872925426
 20
47.08750189329778
 30
0.0
 10
-246.300457294855
 20
47.10697497453187
 30
0.0
 10
-246.3821315489687
 20
47.12806341047797
 30
0.0
  0
SPLINE
  5
DA
330
1F
100
AcDbEntity
  8
0
  6
Continuous
 62
     7
370
    25
100
AcDbSpline
210
0.0
220
0.0
230
1.0
 70
     8
 71
     3
 72
    20
 73
    16
 74
     0
 42
0.00000001
 43
0.00000001
 40
0.0
 40
0.0
 40
0.0
 40
0.0
 40
0.0004894588664617
 40
0.0004894588664617
 40
0.0004894588664617
 40
0.0008960592199627
 40
0.0008960592199627
 40
0.0008960592199627
 40
0.0012999136940272
 40
0.0012999136940272
 40
0.0012999136940272
 40
0.0017735426854147
 40
0.0017735426854147
 40
0.0017735426854147
 40
0.0020670759240012
 40
0.0020670759240012
 40
0.0020670759240012
 40
0.0020670759240012
 10
-246.3821315489687
 20
47.12806341047797
 30
0.0
 10
-246.5378094174014
 20
47.17688234291668
 30
0.0
 10
-246.6925486558299
 20
47.24167437845077
 30
0.0
 10
-246.8243751242244
 20
47.3378027775576
 30
0.0
 10
-246.9342367616805
 20
47.41791433224409
 30
0.0
 10
-247.0318672469454
 20
47.51810228359913
 30
0.0
 10
-247.1087151686718
 20
47.63027107384465
 30
0.0
 10
-247.1853111478338
 20
47.74207212359632
 30
0.0
 10
-247.2447537406954
 20
47.86702833885871
 30
0.0
 10
-247.2861742139156
 20
47.99606617496718
 30
0.0
 10
-247.3344023375213
 20
48.14631198883227
 30
0.0
 10
-247.3553788318835
 20
48.30822963068998
 30
0.0
 10
-247.3455376295296
 20
48.46571901835384
 30
0.0
 10
-247.3393666491894
 20
48.56447360952319
 30
0.0
 10
-247.3195594309067
 20
48.66241538558248
 30
0.0
 10
-247.2945391891875
 20
48.758146977963
 30
0.0
  0
SPLINE
  5
DB
330
1F
100
AcDbEntity
  8
0
  6
Continuous
 62
     7
370
    25
100
AcDbSpline
210
0.0
220
0.0
230
1.0
 70
     8
 71
     3
 72
    20
 73
    16
 74
     0
 42
0.00000001
 43
0.00000001
 40
0.0
 40
0.0
 40
0.0
 40
0.0
 40
0.0003135529090182
 40
0.0003135529090182
 40
0.0003135529090182
 40
0.0006275306518618
 40
0.0006275306518618
 40
0.0006275306518618
 40
0.0009379546192756
 40
0.0009379546192756
 40
0.0009379546192756
 40
0.0012993528442214
 40
0.0012993528442214
 40
0.0012993528442214
 40
0.001519593171889
 40
0.001519593171889
 40
0.001519593171889
 40
0.001519593171889
 10
-247.9261171187377
 20
48.50765381011323
 30
0.0
 10
-247.9569281971533
 20
48.40778082200912
 30
0.0
 10
-248.0001329428923
 20
48.30927533173802
 30
0.0
 10
-248.0621530294368
 20
48.2251477787545
 30
0.0
 10
-248.1244100682552
 20
48.14069881030572
 30
0.0
 10
-248.202959743368
 20
48.06668990392844
 30
0.0
 10
-248.2897399990006
 20
48.00772589467852
 30
0.0
 10
-248.3758091662094
 20
47.94924504400072
 30
0.0
 10
-248.4713843583558
 20
47.90274453743215
 30
0.0
 10
-248.5706765047959
 20
47.87161607625395
 30
0.0
 10
-248.6853801572876
 20
47.83565604999208
 30
0.0
 10
-248.8091795480384
 20
47.8228730368831
 30
0.0
 10
-248.9290722355946
 20
47.83157906090213
 30
0.0
 10
-249.0029512439213
 20
47.83694379526673
 30
0.0
 10
-249.0760289152036
 20
47.85271739647613
 30
0.0
 10
-249.1476685762575
 20
47.8715494757618
 30
0.0
  0
SPLINE
  5
DC
330
1F
100
AcDbEntity
  8
0
  6
Continuous
 62
     7
370
    25
100
AcDbSpline
210
0.0
220
0.0
230
1.0
 70
     8
 71
     3
 72
    17
 73
    13
 74
     0
 42
0.00000001
 43
0.00000001
 40
0.0
 40
0.0
 40
0.0
 40
0.0
 40
0.0003613161728296
 40
0.0003613161728296
 40
0.0003613161728296
 40
0.0007251597574876
 40
0.0007251597574876
 40
0.0007251597574876
 40
0.001208686356642
 40
0.001208686356642
 40
0.001208686356642
 40
0.0013782836228301
 40
0.0013782836228301
 40
0.0013782836228301
 40
0.0013782836228301
 10
-249.1476685762575
 20
47.87154947576177
 30
0.0
 10
-249.2628119623503
 20
47.90686925696762
 30
0.0
 10
-249.3755878273849
 20
47.95757730523946
 30
0.0
 10
-249.4734857791438
 20
48.02773054712306
 30
0.0
 10
-249.5719299588977
 20
48.0982752135868
 30
0.0
 10
-249.6590046803034
 20
48.18823485676101
 30
0.0
 10
-249.7254855871296
 20
48.28946773443155
 30
0.0
 10
-249.8140921419987
 20
48.42439213540785
 30
0.0
 10
-249.8752406715608
 20
48.57794345046691
 30
0.0
 10
-249.9193796975395
 20
48.7332092288285
 30
0.0
 10
-249.9349954491187
 20
48.78814002464668
 30
0.0
 10
-249.9480730082747
 20
48.84377599747391
 30
0.0
 10
-249.960880536782
 20
48.89942859166447
 30
0.0
  0
LINE
  5
DD
330
1F
100
AcDbEntity
  8
0
  6
Continuous
 62
     7
370
    25
100
AcDbLine
 10
-249.9608805453
 20
48.8994285894
 30
0.0
 11
-249.6276600982
 21
48.9887047034
 31
0.0
  0
SPLINE
  5
DE
330
1F
100
AcDbEntity
  8
0
  6
Continuous
 62
     7
370
    25
100
AcDbSpline
210
0.0
220
0.0
230
1.0
 70
     8
 71
     3
 72
    17
 73
    13
 74
     0
 42
0.00000001
 43
0.00000001
 40
0.0
 40
0.0
 40
0.0
 40
0.0
 40
0.0002550705446994
 40
0.0002550705446994
 40
0.0002550705446994
 40
0.0006689102416601
 40
0.0006689102416601
 40
0.0006689102416601
 40
0.0009098124623591
 40
0.0009098124623591
 40
0.0009098124623591
 40
0.0010130025685534
 40
0.0010130025685534
 40
0.0010130025685534
 40
0.0010130025685534
 10
-249.6276600981965
 20
48.98870470338942
 30
0.0
 10
-249.6057861132267
 20
48.90654311341302
 30
0.0
 10
-249.5829984378585
 20
48.82429400792666
 30
0.0
 10
-249.5521109186901
 20
48.74507936757814
 30
0.0
 10
-249.5026106972951
 20
48.61813028456513
 30
0.0
 10
-249.4347589454366
 20
48.49379261749085
 30
0.0
 10
-249.340664706113
 20
48.39524001365861
 30
0.0
 10
-249.2854368907984
 20
48.33739539912811
 30
0.0
 10
-249.2196556137468
 20
48.28699499069046
 30
0.0
 10
-249.1469494827737
 20
48.25367938573525
 30
0.0
 10
-249.1152381948302
 20
48.23914855143552
 30
0.0
 10
-249.0820855219753
 20
48.22791253497336
 30
0.0
 10
-249.0490507354737
 20
48.21671191850464
 30
0.0
  0
SPLINE
  5
DF
330
1F
100
AcDbEntity
  8
0
  6
Continuous
 62
     7
370
    25
100
AcDbSpline
210
0.0
220
0.0
230
1.0
 70
     8
 71
     3
 72
    20
 73
    16
 74
     0
 42
0.00000001
 43
0.00000001
 40
0.0
 40
0.0
 40
0.0
 40
0.0
 40
0.0002810638453296
 40
0.0002810638453296
 40
0.0002810638453296
 40
0.0005111828215296
 40
0.0005111828215296
 40
0.0005111828215296
 40
0.0007012747907503
 40
0.0007012747907503
 40
0.0007012747907503
 40
0.0008908776555608
 40
0.0008908776555608
 40
0.0008908776555608
 40
0.0009975727584069
 40
0.0009975727584069
 40
0.0009975727584069
 40
0.0009975727584069
 10
-249.0490507354737
 20
48.21671191850463
 30
0.0
 10
-248.9582858844456
 20
48.19349180865687
 30
0.0
 10
-248.8628529319992
 20
48.18036555160658
 30
0.0
 10
-248.7694680472854
 20
48.1878951591992
 30
0.0
 10
-248.6926507333569
 20
48.19408892633802
 30
0.0
 10
-248.6153368916487
 20
48.21121307263665
 30
0.0
 10
-248.5446896165927
 20
48.2420063348495
 30
0.0
 10
-248.4862148103843
 20
48.26749394267294
 30
0.0
 10
-248.4306686774818
 20
48.3024481242505
 30
0.0
 10
-248.384016931261
 20
48.34595140789926
 30
0.0
 10
-248.3373729274454
 20
48.38944747166725
 30
0.0
 10
-248.2960738556619
 20
48.44056086369596
 30
0.0
 10
-248.266988546491
 20
48.4973201399924
 30
0.0
 10
-248.2504149888974
 20
48.52966303616539
 30
0.0
 10
-248.2383845398673
 20
48.56422191111879
 30
0.0
 10
-248.2267859653457
 20
48.59866343857087
 30
0.0
  0
SPLINE
  5
E0
330
1F
100
AcDbEntity
  8
0
  6
Continuous
 62
     7
370
    25
100
AcDbSpline
210
0.0
220
0.0
230
1.0
 70
     8
 71
     3
 72
    14
 73
    10
 74
     0
 42
0.00000001
 43
0.00000001
 40
0.0
 40
0.0
 40
0.0
 40
0.0
 40
0.0000937648518364
 40
0.0000937648518364
 40
0.0000937648518364
 40
0.0002610404829516
 40
0.0002610404829516
 40
0.0002610404829516
 40
0.0003733596376973
 40
0.0003733596376973
 40
0.0003733596376973
 40
0.0003733596376973
 10
-248.2267859653457
 20
48.59866343857087
 30
0.0
 10
-248.2197290233382
 20
48.62911128754699
 30
0.0
 10
-248.2126538103054
 20
48.65973753685198
 30
0.0
 10
-248.2096349216777
 20
48.69084634989942
 30
0.0
 10
-248.2043041819063
 20
48.74577815010765
 30
0.0
 10
-248.2094938062045
 20
48.80209318871837
 30
0.0
 10
-248.2213067590847
 20
48.85600398174613
 30
0.0
 10
-248.2293023939584
 20
48.89249367413497
 30
0.0
 10
-248.2411943176179
 20
48.92805751226059
 30
0.0
 10
-248.2530776357889
 20
48.96347240428232
 30
0.0
  0
SPLINE
  5
E1
330
1F
100
AcDbEntity
  8
0
  6
Continuous
 62
     7
370
    25
100
AcDbSpline
210
0.0
220
0.0
230
1.0
 70
     8
 71
     3
 72
    14
 73
    10
 74
     0
 42
0.00000001
 43
0.00000001
 40
0.0
 40
0.0
 40
0.0
 40
0.0
 40
0.0002119452295838
 40
0.0002119452295838
 40
0.0002119452295838
 40
0.0004232559123581
 40
0.0004232559123581
 40
0.0004232559123581
 40
0.0008438633419363
 40
0.0008438633419363
 40
0.0008438633419363
 40
0.0008438633419363
 10
-248.2530776357889
 20
48.96347240428232
 30
0.0
 10
-248.2796222794229
 20
49.02894438080868
 30
0.0
 10
-248.3094414655765
 20
49.09333730516457
 30
0.0
 10
-248.3443592923501
 20
49.15475345279148
 30
0.0
 10
-248.3792382126845
 20
49.21610116879374
 30
0.0
 10
-248.4162078390006
 20
49.27633888634805
 30
0.0
 10
-248.4557601616658
 20
49.33478283483019
 30
0.0
 10
-248.5344828986876
 20
49.4511064102071
 30
0.0
 10
-248.6194718736491
 20
49.56318711930459
 30
0.0
 10
-248.7064885678294
 20
49.67344381273683
 30
0.0
  0
SPLINE
  5
E2
330
1F
100
AcDbEntity
  8
0
  6
Continuous
 62
     7
370
    25
100
AcDbSpline
210
0.0
220
0.0
230
1.0
 70
     8
 71
     3
 72
    14
 73
    10
 74
     0
 42
0.00000001
 43
0.00000001
 40
0.0
 40
0.0
 40
0.0
 40
0.0
 40
0.0001869988396516
 40
0.0001869988396516
 40
0.0001869988396516
 40
0.0003739948328979
 40
0.0003739948328979
 40
0.0003739948328979
 40
0.0007473306803319
 40
0.0007473306803319
 40
0.0007473306803319
 40
0.0007473306803319
 10
-248.7064885678294
 20
49.67344381273683
 30
0.0
 10
-248.7453713074534
 20
49.72216268777506
 30
0.0
 10
-248.7841377556078
 20
49.77098885018118
 30
0.0
 10
-248.8218052639591
 20
49.82065327447331
 30
0.0
 10
-248.8594740088971
 20
49.87031932919893
 30
0.0
 10
-248.8966297566161
 20
49.92038370635375
 30
0.0
 10
-248.9329901991736
 20
49.97101541138359
 30
0.0
 10
-249.005390484562
 20
50.07183238818654
 30
0.0
 10
-249.0766729489929
 20
50.17535548424128
 30
0.0
 10
-249.127155294922
 20
50.28874594629833
 30
0.0
  0
SPLINE
  5
E3
330
1F
100
AcDbEntity
  8
0
  6
Continuous
 62
     7
370
    25
100
AcDbSpline
210
0.0
220
0.0
230
1.0
 70
     8
 71
     3
 72
    14
 73
    10
 74
     0
 42
0.00000001
 43
0.00000001
 40
0.0
 40
0.0
 40
0.0
 40
0.0
 40
0.0001450992657188
 40
0.0001450992657188
 40
0.0001450992657188
 40
0.0004292387488758
 40
0.0004292387488758
 40
0.0004292387488758
 40
0.0005807711653386
 40
0.0005807711653386
 40
0.0005807711653386
 40
0.0005807711653386
 10
-249.127155294922
 20
50.2887459462983
 30
0.0
 10
-249.1444592872048
 20
50.33391100601371
 30
0.0
 10
-249.1611099181551
 20
50.37951142731956
 30
0.0
 10
-249.173242754116
 20
50.42633134892954
 30
0.0
 10
-249.1967219279759
 20
50.51693614101077
 30
0.0
 10
-249.2055585760927
 20
50.61289830933921
 30
0.0
 10
-249.1970760247515
 20
50.70611068124325
 30
0.0
 10
-249.1925029867176
 20
50.75636251053398
 30
0.0
 10
-249.1817167206417
 20
50.80604242377133
 30
0.0
 10
-249.1688560029876
 20
50.85483546595304
 30
0.0
  0
SPLINE
  5
E4
330
1F
100
AcDbEntity
  8
0
  6
Continuous
 62
     7
370
    25
100
AcDbSpline
210
0.0
220
0.0
230
1.0
 70
     8
 71
     3
 72
    20
 73
    16
 74
     0
 42
0.00000001
 43
0.00000001
 40
0.0
 40
0.0
 40
0.0
 40
0.0
 40
0.0002956210407879
 40
0.0002956210407879
 40
0.0002956210407879
 40
0.000594851696444
 40
0.000594851696444
 40
0.000594851696444
 40
0.0008592611219823
 40
0.0008592611219823
 40
0.0008592611219823
 40
0.0011267885763143
 40
0.0011267885763143
 40
0.0011267885763143
 40
0.0013198393010602
 40
0.0013198393010602
 40
0.0013198393010602
 40
0.0013198393010602
 10
-249.1688560029876
 20
50.85483546595307
 30
0.0
 10
-249.1384640940524
 20
50.94857196815057
 30
0.0
 10
-249.0977274227606
 20
51.04122279536989
 30
0.0
 10
-249.0392295567098
 20
51.12052096458236
 30
0.0
 10
-248.9801779688291
 20
51.20056974454938
 30
0.0
 10
-248.9033517690504
 20
51.26931808985359
 30
0.0
 10
-248.8187239108256
 20
51.32159641057767
 30
0.0
 10
-248.7438197339724
 20
51.36786798902998
 30
0.0
 10
-248.6589714355869
 20
51.39931178445418
 30
0.0
 10
-248.5730880258506
 20
51.41869565957194
 30
0.0
 10
-248.4861157763781
 20
51.43832528568556
 30
0.0
 10
-248.3952105651025
 20
51.44526256767619
 30
0.0
 10
-248.3063253335484
 20
51.43826899839731
 30
0.0
 10
-248.241779536121
 20
51.43319047749935
 30
0.0
 10
-248.1781339929562
 20
51.4187668798839
 30
0.0
 10
-248.1152630555526
 20
51.4033008988269
 30
0.0
  0
SPLINE
  5
E5
330
1F
100
AcDbEntity
  8
0
  6
Continuous
 62
     7
370
    25
100
AcDbSpline
210
0.0
220
0.0
230
1.0
 70
     8
 71
     3
 72
    14
 73
    10
 74
     0
 42
0.00000001
 43
0.00000001
 40
0.0
 40
0.0
 40
0.0
 40
0.0
 40
0.0003390118326597
 40
0.0003390118326597
 40
0.0003390118326597
 40
0.0006793247703767
 40
0.0006793247703767
 40
0.0006793247703767
 40
0.0011445433966205
 40
0.0011445433966205
 40
0.0011445433966205
 40
0.0011445433966205
 10
-248.1152630555526
 20
51.40330089882686
 30
0.0
 10
-248.0077417526565
 20
51.36852934676504
 30
0.0
 10
-247.9016307075417
 20
51.32088530299328
 30
0.0
 10
-247.8115821681363
 20
51.25261267333692
 30
0.0
 10
-247.7210523536178
 20
51.18397515250327
 30
0.0
 10
-247.6427474831399
 20
51.09692162868087
 30
0.0
 10
-247.581257641908
 20
51.00139280576216
 30
0.0
 10
-247.4967030133515
 20
50.87003120234092
 30
0.0
 10
-247.4351336772062
 20
50.72416589989957
 30
0.0
 10
-247.3814076387836
 20
50.57747278874861
 30
0.0
  0
LINE
  5
E6
330
1F
100
AcDbEntity
  8
0
  6
Continuous
 62
     7
370
    25
100
AcDbLine
 10
-247.38140763
 20
50.5774727921
 30
0.0
 11
-247.713568706
 21
50.4485184051
 31
0.0
  0
SPLINE
  5
E7
330
1F
100
AcDbEntity
  8
0
  6
Continuous
 62
     7
370
    25
100
AcDbSpline
210
0.0
220
0.0
230
1.0
 70
     8
 71
     3
 72
    17
 73
    13
 74
     0
 42
0.00000001
 43
0.00000001
 40
0.0
 40
0.0
 40
0.0
 40
0.0
 40
0.000213973653139
 40
0.000213973653139
 40
0.000213973653139
 40
0.0004220411793513
 40
0.0004220411793513
 40
0.0004220411793513
 40
0.0006342020952086
 40
0.0006342020952086
 40
0.0006342020952086
 40
0.0008548927744834
 40
0.0008548927744834
 40
0.0008548927744834
 40
0.0008548927744834
 10
-247.7135687060326
 20
50.44851840514576
 30
0.0
 10
-247.7401422482731
 20
50.51470781845899
 30
0.0
 10
-247.7679109722493
 20
50.58051298445644
 30
0.0
 10
-247.7991589879692
 20
50.64462813941631
 30
0.0
 10
-247.8294939778785
 20
50.70686993410113
 30
0.0
 10
-247.8631897255023
 20
50.76791060379492
 30
0.0
 10
-247.903237513734
 20
50.82439447119204
 30
0.0
 10
-247.9437114547588
 20
50.88147938945664
 30
0.0
 10
-247.993737829406
 20
50.93314539411385
 30
0.0
 10
-248.0506459242907
 20
50.9738675813334
 30
0.0
 10
-248.1097906369154
 20
51.01619024325751
 30
0.0
 10
-248.1784780993626
 20
51.04511731847744
 30
0.0
 10
-248.2475881661354
 20
51.06776910459809
 30
0.0
  0
SPLINE
  5
E8
330
1F
100
AcDbEntity
  8
0
  6
Continuous
 62
     7
370
    25
100
AcDbSpline
210
0.0
220
0.0
230
1.0
 70
     8
 71
     3
 72
    20
 73
    16
 74
     0
 42
0.00000001
 43
0.00000001
 40
0.0
 40
0.0
 40
0.0
 40
0.0
 40
0.0002504202484191
 40
0.0002504202484191
 40
0.0002504202484191
 40
0.0004112028091154
 40
0.0004112028091154
 40
0.0004112028091154
 40
0.0005731687137297
 40
0.0005731687137297
 40
0.0005731687137297
 40
0.000713973301103
 40
0.000713973301103
 40
0.000713973301103
 40
0.0007479118936771
 40
0.0007479118936771
 40
0.0007479118936771
 40
0.0007479118936771
 10
-248.2475881661354
 20
51.06776910459809
 30
0.0
 10
-248.3285728992115
 20
51.08799987844959
 30
0.0
 10
-248.4144867423368
 20
51.10061758735726
 30
0.0
 10
-248.4971221283413
 20
51.08881910517069
 30
0.0
 10
-248.5507859887283
 20
51.08115710791444
 30
0.0
 10
-248.6037125690943
 20
51.06380149002394
 30
0.0
 10
-248.6519496707172
 20
51.03906895799433
 30
0.0
 10
-248.7003387665977
 20
51.01425849419194
 30
0.0
 10
-248.7454564026723
 20
50.98033530278355
 30
0.0
 10
-248.7807895693455
 20
50.93899971222208
 30
0.0
 10
-248.8115887671887
 20
50.90296832439191
 30
0.0
 10
-248.8346743851537
 20
50.85986852903546
 30
0.0
 10
-248.8511473101501
 20
50.81542199667544
 30
0.0
 10
-248.8551705954951
 20
50.80456654250911
 30
0.0
 10
-248.8589824173785
 20
50.79363349583234
 30
0.0
 10
-248.8627939932118
 20
50.78270190858289
 30
0.0
  0
SPLINE
  5
E9
330
1F
100
AcDbEntity
  8
0
  6
Continuous
 62
     7
370
    25
100
AcDbSpline
210
0.0
220
0.0
230
1.0
 70
     8
 71
     3
 72
    14
 73
    10
 74
     0
 42
0.00000001
 43
0.00000001
 40
0.0
 40
0.0
 40
0.0
 40
0.0
 40
0.0001799924434
 40
0.0001799924434
 40
0.0001799924434
 40
0.0003608447479558
 40
0.0003608447479558
 40
0.0003608447479558
 40
0.0005210359240399
 40
0.0005210359240399
 40
0.0005210359240399
 40
0.0005210359240399
 10
-248.8627939932118
 20
50.78270190858289
 30
0.0
 10
-248.8780637574633
 20
50.72468008474002
 30
0.0
 10
-248.8855123466363
 20
50.66355296560107
 30
0.0
 10
-248.8815330816159
 20
50.60368759003018
 30
0.0
 10
-248.8775385763162
 20
50.54359293466949
 30
0.0
 10
-248.8609451154002
 20
50.48403951781212
 30
0.0
 10
-248.8381580837962
 20
50.42828940690467
 30
0.0
 10
-248.8178259948845
 20
50.37854548977237
 30
0.0
 10
-248.7917383472417
 20
50.33125727354582
 30
0.0
 10
-248.7652355237647
 20
50.28450846095208
 30
0.0
  0
SPLINE
  5
EA
330
1F
100
AcDbEntity
  8
0
  6
Continuous
 62
     7
370
    25
100
AcDbSpline
210
0.0
220
0.0
230
1.0
 70
     8
 71
     3
 72
    14
 73
    10
 74
     0
 42
0.00000001
 43
0.00000001
 40
0.0
 40
0.0
 40
0.0
 40
0.0
 40
0.0001467144629041
 40
0.0001467144629041
 40
0.0001467144629041
 40
0.0002931615597385
 40
0.0002931615597385
 40
0.0002931615597385
 40
0.0005854286452854
 40
0.0005854286452854
 40
0.0005854286452854
 40
0.0005854286452854
 10
-248.7652355237648
 20
50.28450846095208
 30
0.0
 10
-248.7390967614566
 20
50.2431751013147
 30
0.0
 10
-248.7094279929297
 20
50.20415243773719
 30
0.0
 10
-248.6799873342674
 20
50.16510209674704
 30
0.0
 10
-248.6505917140595
 20
50.1261114951474
 30
0.0
 10
-248.6209698477355
 20
50.08728398628904
 30
0.0
 10
-248.5906992390741
 20
50.04896871842129
 30
0.0
 10
-248.5302827948308
 20
49.97249611522111
 30
0.0
 10
-248.4695593564048
 20
49.8962655357419
 30
0.0
 10
-248.4086126092903
 20
49.82021489609058
 30
0.0
  0
SPLINE
  5
EB
330
1F
100
AcDbEntity
  8
0
  6
Continuous
 62
     7
370
    25
100
AcDbSpline
210
0.0
220
0.0
230
1.0
 70
     8
 71
     3
 72
    17
 73
    13
 74
     0
 42
0.00000001
 43
0.00000001
 40
0.0
 40
0.0
 40
0.0
 40
0.0
 40
0.0003657770447309
 40
0.0003657770447309
 40
0.0003657770447309
 40
0.0007325830044486
 40
0.0007325830044486
 40
0.0007325830044486
 40
0.0011059353161842
 40
0.0011059353161842
 40
0.0011059353161842
 40
0.0014583241850671
 40
0.0014583241850671
 40
0.0014583241850671
 40
0.0014583241850671
 10
-248.4086126092903
 20
49.8202148960906
 30
0.0
 10
-248.3335272113184
 20
49.72415213098672
 30
0.0
 10
-248.2590723144583
 20
49.62735286887467
 30
0.0
 10
-248.191188265316
 20
49.52607292169827
 30
0.0
 10
-248.1231850391864
 20
49.42461516781853
 30
0.0
 10
-248.0594366933729
 20
49.31958083099747
 30
0.0
 10
-248.0073886362268
 20
49.20908596987855
 30
0.0
 10
-247.9548382156469
 20
49.09752462173031
 30
0.0
 10
-247.9177160905767
 20
48.97668335721416
 30
0.0
 10
-247.9025193465679
 20
48.85430468229359
 30
0.0
 10
-247.8882469505794
 20
48.73936973912546
 30
0.0
 10
-247.8999944456992
 20
48.62048708712685
 30
0.0
 10
-247.9261171187376
 20
48.5076538101132
 30
0.0
  0
LINE
  5
EC
330
1F
100
AcDbEntity
  8
0
  6
Continuous
 62
     7
370
    25
100
AcDbLine
 10
-252.4537716837
 20
40.5009811752
 30
0.0
 11
-171.7323427708
 21
17.4377157715
 31
0.0
  0
SPLINE
  5
ED
330
1F
100
AcDbEntity
  8
0
  6
Continuous
 62
     7
370
    25
100
AcDbSpline
210
0.0
220
0.0
230
1.0
 70
     8
 71
     3
 72
     8
 73
     4
 74
     0
 42
0.00000001
 43
0.00000001
 40
0.853883507645943
 40
0.853883507645943
 40
0.853883507645943
 40
0.853883507645943
 40
1.0
 40
1.0
 40
1.0
 40
1.0
 10
-171.7323427708176
 20
17.43771577147104
 30
0.0
 10
-167.8381054916098
 20
31.08324245336917
 30
0.0
 10
-163.9447915740868
 20
44.72903263687808
 30
0.0
 10
-160.0514776565639
 20
58.37482282038705
 30
0.0
  0
LINE
  5
EE
330
1F
100
AcDbEntity
  8
0
  6
Continuous
 62
     7
370
    25
100
AcDbLine
 10
-160.0514776566
 20
58.3748228204
 30
0.0
 11
-160.1383157659
 21
58.3252330758
 31
0.0
  0
SPLINE
  5
EF
330
1F
100
AcDbEntity
  8
0
  6
Continuous
 62
     7
370
    25
100
AcDbSpline
210
0.0
220
0.0
230
1.0
 70
     8
 71
     3
 72
    12
 73
     8
 74
     0
 42
0.00000001
 43
0.00000001
 40
0.0
 40
0.0
 40
0.0
 40
0.0
 40
0.5000000000000002
 40
0.5000000000000002
 40
0.7500000000000001
 40
0.7500000000000001
 40
1.0
 40
1.0
 40
1.0
 40
1.0
 10
-160.1383157659123
 20
58.32523307578752
 30
0.0
 10
-165.3739227951526
 20
55.34509733328692
 30
0.0
 10
-173.8710278297546
 20
48.98772374985717
 30
0.0
 10
-185.6110996215793
 20
49.81334982541514
 30
0.0
 10
-189.3909267338481
 20
52.82028736793429
 30
0.0
 10
-193.6869897416349
 20
57.98868371569446
 30
0.0
 10
-195.5626440138322
 20
61.06089720574171
 30
0.0
 10
-197.9652370746742
 20
65.28005630455833
 30
0.0
  0
SPLINE
  5
F0
330
1F
100
AcDbEntity
  8
0
  6
Continuous
 62
     7
370
    25
100
AcDbSpline
210
0.0
220
0.0
230
1.0
 70
     8
 71
     3
 72
     8
 73
     4
 74
     0
 42
0.00000001
 43
0.00000001
 40
0.0
 40
0.0
 40
0.0
 40
0.0
 40
1.0
 40
1.0
 40
1.0
 40
1.0
 10
-197.9652370746742
 20
65.28005630455833
 30
0.0
 10
-198.587705837968
 20
66.34784733072085
 30
0.0
 10
-199.4561624033122
 20
67.88026715853765
 30
0.0
 10
-200.5706067707064
 20
69.87731578800873
 30
0.0
  0
SPLINE
  5
F1
330
1F
100
AcDbEntity
  8
0
  6
Continuous
 62
     7
370
    25
100
AcDbSpline
210
0.0
220
0.0
230
1.0
 70
     8
 71
     3
 72
     8
 73
     4
 74
     0
 42
0.00000001
 43
0.00000001
 40
0.0
 40
0.0
 40
0.0
 40
0.0
 40
1.0
 40
1.0
 40
1.0
 40
1.0
 10
-200.5706071262074
 20
69.877316061569
 30
0.0
 10
-202.5830574644605
 20
68.76447147360162
 30
0.0
 10
-204.1300066927454
 20
67.92216752949298
 30
0.0
 10
-205.2114548110622
 20
67.35040422924293
 30
0.0
  0
SPLINE
  5
F2
330
1F
100
AcDbEntity
  8
0
  6
Continuous
 62
     7
370
    25
100
AcDbSpline
210
0.0
220
0.0
230
1.0
 70
     8
 71
     3
 72
    14
 73
    10
 74
     0
 42
0.00000001
 43
0.00000001
 40
0.0
 40
0.0
 40
0.0
 40
0.0
 40
0.25
 40
0.25
 40
0.5
 40
0.5
 40
0.75
 40
0.75
 40
1.0
 40
1.0
 40
1.0
 40
1.0
 10
-205.2114548110615
 20
67.35040422924169
 30
0.0
 10
-209.4545949381234
 20
65.05166632238976
 30
0.0
 10
-211.5956510639641
 20
63.79791275750792
 30
0.0
 10
-220.0159833686586
 20
60.97593322497992
 30
0.0
 10
-224.0699458994527
 20
60.90623912102112
 30
0.0
 10
-230.3137591414145
 20
64.09730873837526
 30
0.0
 10
-233.5055167420518
 20
68.2454480298241
 30
0.0
 10
-236.813934747795
 20
73.5465068493301
 30
0.0
 10
-239.5692335055718
 20
78.77677988814808
 30
0.0
 10
-240.8438241781489
 20
81.13579744444878
 30
0.0
  0
LINE
  5
F3
330
1F
100
AcDbEntity
  8
0
  6
Continuous
 62
     7
370
    25
100
AcDbLine
 10
-240.8438241781
 20
81.1357974444
 30
0.0
 11
-252.4537716837
 21
40.5009811752
 31
0.0
  0
MTEXT
  5
F5
330
1F
100
AcDbEntity
  8
0
  6
Continuous
 62
     7
100
AcDbMText
 10
-252.4537716837
 20
16.4181493798
 30
0.0
 40
4.83362
 41
0.0
 71
     1
 72
     1
  1
SOLIDWORKS Educational Product.
  7
SLDTEXTSTYLE0
 73
     1
 44
1.0
  0
MTEXT
  5
F6
330
1F
100
AcDbEntity
  8
0
  6
Continuous
 62
     7
100
AcDbMText
 10
-252.4537716837
 20
9.1677193798
 30
0.0
 40
4.83362
 41
0.0
 71
     1
 72
     1
  1
For Instructional Use Only.
  7
SLDTEXTSTYLE0
 73
     1
 44
1.0
  0
ENDSEC
  0
SECTION
  2
OBJECTS
  0
DICTIONARY
  5
C
330
0
100
AcDbDictionary
281
     1
  3
ACAD_GROUP
350
D
  3
ACAD_LAYOUT
350
1A
  3
ACAD_MLINESTYLE
350
17
  3
ACAD_PLOTSETTINGS
350
19
  3
ACAD_PLOTSTYLENAME
350
E
  3
ACAD_SCALELIST
350
47
  3
DWGPROPS
350
F7
  0
DICTIONARY
  5
D
102
{ACAD_REACTORS
330
C
102
}
330
C
100
AcDbDictionary
281
     1
  0
DICTIONARY
  5
1A
102
{ACAD_REACTORS
330
C
102
}
330
C
100
AcDbDictionary
281
     1
  3
Layout1
350
1E
  3
Layout2
350
26
  3
Model
350
22
  0
DICTIONARY
  5
17
102
{ACAD_REACTORS
330
C
102
}
330
C
100
AcDbDictionary
281
     1
  3
Standard
350
18
  0
DICTIONARY
  5
19
102
{ACAD_REACTORS
330
C
102
}
330
C
100
AcDbDictionary
281
     1
  0
ACDBDICTIONARYWDFLT
  5
E
102
{ACAD_REACTORS
330
C
102
}
330
C
100
AcDbDictionary
281
     1
  3
Normal
350
F
100
AcDbDictionaryWithDefault
340
F
  0
DICTIONARY
  5
47
102
{ACAD_REACTORS
330
C
102
}
330
C
100
AcDbDictionary
281
     1
  3
A0
350
48
  3
A1
350
49
  3
A2
350
4A
  3
A3
350
4B
  3
A4
350
4C
  3
A5
350
4D
  3
A6
350
4E
  3
A7
350
4F
  3
A8
350
50
  3
A9
350
51
  3
B0
350
52
  3
B1
350
53
  3
B2
350
54
  3
B3
350
55
  3
B4
350
56
  3
B5
350
57
  3
B6
350
58
  0
XRECORD
  5
F7
102
{ACAD_REACTORS
330
C
102
}
330
C
100
AcDbXrecord
280
     1
  1
DWGPROPS COOKIE
  2

  3

  4

  6

  7

  8
Dell
  9

300
=
301
=
302
=
303
=
304
=
305
=
306
=
307
=
308
=
309
=
 40
0.0
 41
2460369.261125428
 42
2460369.261185833
  1

 90
        0
  0
LAYOUT
  5
1E
102
{ACAD_REACTORS
330
1A
102
}
330
1A
100
AcDbPlotSettings
  1

  2
none_device
  4

  6

 40
0.0
 41
0.0
 42
0.0
 43
0.0
 44
0.0
 45
0.0
 46
0.0
 47
0.0
 48
0.0
 49
0.0
140
0.0
141
0.0
142
1.0
143
1.0
 70
   688
 72
     1
 73
     0
 74
     5
  7

 75
    16
147
1.0
148
0.0
149
0.0
100
AcDbLayout
  1
Layout1
 70
     1
 71
     1
 10
0.0
 20
0.0
 11
420.0
 21
297.0
 12
0.0
 22
0.0
 32
0.0
 14
1.0000000000E+20
 24
1.0000000000E+20
 34
1.0000000000E+20
 15
-1.0000000000E+20
 25
-1.0000000000E+20
 35
-1.0000000000E+20
146
0.0
 13
0.0
 23
0.0
 33
0.0
 16
1.0
 26
0.0
 36
0.0
 17
0.0
 27
1.0
 37
0.0
 76
     0
330
1B
  0
LAYOUT
  5
26
102
{ACAD_REACTORS
330
1A
102
}
330
1A
100
AcDbPlotSettings
  1

  2
none_device
  4

  6

 40
0.0
 41
0.0
 42
0.0
 43
0.0
 44
0.0
 45
0.0
 46
0.0
 47
0.0
 48
0.0
 49
0.0
140
0.0
141
0.0
142
1.0
143
1.0
 70
   688
 72
     1
 73
     0
 74
     5
  7

 75
    16
147
1.0
148
0.0
149
0.0
100
AcDbLayout
  1
Layout2
 70
     1
 71
     2
 10
0.0
 20
0.0
 11
0.0
 21
0.0
 12
0.0
 22
0.0
 32
0.0
 14
0.0
 24
0.0
 34
0.0
 15
0.0
 25
0.0
 35
0.0
146
0.0
 13
0.0
 23
0.0
 33
0.0
 16
1.0
 26
0.0
 36
0.0
 17
0.0
 27
1.0
 37
0.0
 76
     0
330
23
  0
LAYOUT
  5
22
102
{ACAD_REACTORS
330
1A
102
}
330
1A
100
AcDbPlotSettings
  1

  2
none_device
  4
ANSI_A_(11.00_x_8.50_Inches)
  6

 40
6.35
 41
19.05
 42
6.35000508
 43
19.05000254
 44
279.4
 45
215.9
 46
750.7666330553
 47
-58.6397646692
 48
0.0
 49
0.0
140
0.0
141
0.0
142
0.1178542169
143
1.0
 70
  1696
 72
     0
 73
     0
 74
     0
  7

 75
     0
147
0.0179189148
148
-1300.4909072572
149
0.0
100
AcDbLayout
  1
Model
 70
     1
 71
     0
 10
0.0
 20
0.0
 11
420.0
 21
297.0
 12
0.0
 22
0.0
 32
0.0
 14
-252.4537716837
 24
17.4377157715
 34
0.0
 15
-160.0514776566
 25
81.1357974444
 35
0.0
146
0.0
 13
0.0
 23
0.0
 33
0.0
 16
1.0
 26
0.0
 36
0.0
 17
0.0
 27
1.0
 37
0.0
 76
     0
330
1F
331
29
  0
MLINESTYLE
  5
18
102
{ACAD_REACTORS
330
17
102
}
330
17
100
AcDbMlineStyle
  2
Standard
 70
     0
  3

 62
   256
 51
90.0
 52
90.0
 71
     2
 49
0.5
 62
   256
  6
BYLAYER
 49
-0.5
 62
   256
  6
BYLAYER
  0
ACDBPLACEHOLDER
  5
F
102
{ACAD_REACTORS
330
E
102
}
330
E
  0
SCALE
  5
48
102
{ACAD_REACTORS
330
47
102
}
330
47
100
AcDbScale
 70
     0
300
1:1
140
1.0
141
1.0
290
     1
  0
SCALE
  5
49
102
{ACAD_REACTORS
330
47
102
}
330
47
100
AcDbScale
 70
     0
300
1:2
140
1.0
141
2.0
290
     0
  0
SCALE
  5
4A
102
{ACAD_REACTORS
330
47
102
}
330
47
100
AcDbScale
 70
     0
300
1:4
140
1.0
141
4.0
290
     0
  0
SCALE
  5
4B
102
{ACAD_REACTORS
330
47
102
}
330
47
100
AcDbScale
 70
     0
300
1:5
140
1.0
141
5.0
290
     0
  0
SCALE
  5
4C
102
{ACAD_REACTORS
330
47
102
}
330
47
100
AcDbScale
 70
     0
300
1:8
140
1.0
141
8.0
290
     0
  0
SCALE
  5
4D
102
{ACAD_REACTORS
330
47
102
}
330
47
100
AcDbScale
 70
     0
300
1:10
140
1.0
141
10.0
290
     0
  0
SCALE
  5
4E
102
{ACAD_REACTORS
330
47
102
}
330
47
100
AcDbScale
 70
     0
300
1:16
140
1.0
141
16.0
290
     0
  0
SCALE
  5
4F
102
{ACAD_REACTORS
330
47
102
}
330
47
100
AcDbScale
 70
     0
300
1:20
140
1.0
141
20.0
290
     0
  0
SCALE
  5
50
102
{ACAD_REACTORS
330
47
102
}
330
47
100
AcDbScale
 70
     0
300
1:30
140
1.0
141
30.0
290
     0
  0
SCALE
  5
51
102
{ACAD_REACTORS
330
47
102
}
330
47
100
AcDbScale
 70
     0
300
1:40
140
1.0
141
40.0
290
     0
  0
SCALE
  5
52
102
{ACAD_REACTORS
330
47
102
}
330
47
100
AcDbScale
 70
     0
300
1:50
140
1.0
141
50.0
290
     0
  0
SCALE
  5
53
102
{ACAD_REACTORS
330
47
102
}
330
47
100
AcDbScale
 70
     0
300
1:100
140
1.0
141
100.0
290
     0
  0
SCALE
  5
54
102
{ACAD_REACTORS
330
47
102
}
330
47
100
AcDbScale
 70
     0
300
2:1
140
2.0
141
1.0
290
     0
  0
SCALE
  5
55
102
{ACAD_REACTORS
330
47
102
}
330
47
100
AcDbScale
 70
     0
300
4:1
140
4.0
141
1.0
290
     0
  0
SCALE
  5
56
102
{ACAD_REACTORS
330
47
102
}
330
47
100
AcDbScale
 70
     0
300
8:1
140
8.0
141
1.0
290
     0
  0
SCALE
  5
57
102
{ACAD_REACTORS
330
47
102
}
330
47
100
AcDbScale
 70
     0
300
10:1
140
10.0
141
1.0
290
     0
  0
SCALE
  5
58
102
{ACAD_REACTORS
330
47
102
}
330
47
100
AcDbScale
 70
     0
300
100:1
140
100.0
141
1.0
290
     0
  0
ENDSEC
  0
EOF
