  0
SECTION
  2
HEADER
  9
$ACADVER
  1
AC1015
  9
$ACADMAINTVER
 70
     6
  9
$DWGCODEPAGE
  3
ANSI_1252
  9
$INSBASE
 10
0.0
 20
0.0
 30
0.0
  9
$EXTMIN
 10
-719.2353749031
 20
201.9168636942
 30
0.0
  9
$EXTMAX
 10
-635.292797632
 20
250.0707106752
 30
0.0
  9
$LIMMIN
 10
0.0
 20
0.0
  9
$LIMMAX
 10
420.0
 20
297.0
  9
$ORTHOMODE
 70
     0
  9
$REGENMODE
 70
     1
  9
$FILLMODE
 70
     1
  9
$QTEXTMODE
 70
     0
  9
$MIRRTEXT
 70
     1
  9
$LTSCALE
 40
1.0
  9
$ATTMODE
 70
     1
  9
$TEXTSIZE
 40
3.5
  9
$TRACEWID
 40
1.0
  9
$TEXTSTYLE
  7
Standard
  9
$CLAYER
  8
0
  9
$CELTYPE
  6
ByLayer
  9
$CECOLOR
 62
   256
  9
$CELTSCALE
 40
1.0
  9
$DISPSILH
 70
     0
  9
$DIMSCALE
 40
1.0
  9
$DIMASZ
 40
3.302
  9
$DIMEXO
 40
0.0
  9
$DIMDLI
 40
3.75
  9
$DIMRND
 40
0.0
  9
$DIMDLE
 40
0.0
  9
$DIMEXE
 40
1.0
  9
$DIMTP
 40
0.0
  9
$DIMTM
 40
0.0
  9
$DIMTXT
 40
3.5
  9
$DIMCEN
 40
2.5
  9
$DIMTSZ
 40
0.0
  9
$DIMTOL
 70
     0
  9
$DIMLIM
 70
     0
  9
$DIMTIH
 70
     1
  9
$DIMTOH
 70
     1
  9
$DIMSE1
 70
     0
  9
$DIMSE2
 70
     0
  9
$DIMTAD
 70
     1
  9
$DIMZIN
 70
     1
  9
$DIMBLK
  1

  9
$DIMASO
 70
     1
  9
$DIMSHO
 70
     1
  9
$DIMPOST
  1

  9
$DIMAPOST
  1

  9
$DIMALT
 70
     0
  9
$DIMALTD
 70
     3
  9
$DIMALTF
 40
0.0393700787
  9
$DIMLFAC
 40
1.0
  9
$DIMTOFL
 70
     1
  9
$DIMTVP
 40
0.0
  9
$DIMTIX
 70
     0
  9
$DIMSOXD
 70
     0
  9
$DIMSAH
 70
     0
  9
$DIMBLK1
  1

  9
$DIMBLK2
  1

  9
$DIMSTYLE
  2
ISO-25
  9
$DIMCLRD
 70
     0
  9
$DIMCLRE
 70
     0
  9
$DIMCLRT
 70
     0
  9
$DIMTFAC
 40
1.0
  9
$DIMGAP
 40
1.524
  9
$DIMJUST
 70
     0
  9
$DIMSD1
 70
     0
  9
$DIMSD2
 70
     0
  9
$DIMTOLJ
 70
     0
  9
$DIMTZIN
 70
     1
  9
$DIMALTZ
 70
     0
  9
$DIMALTTZ
 70
     0
  9
$DIMUPT
 70
     0
  9
$DIMDEC
 70
     2
  9
$DIMTDEC
 70
     2
  9
$DIMALTU
 70
     2
  9
$DIMALTTD
 70
     3
  9
$DIMTXSTY
  7
Standard
  9
$DIMAUNIT
 70
     0
  9
$DIMADEC
 70
     2
  9
$DIMALTRND
 40
0.0
  9
$DIMAZIN
 70
     0
  9
$DIMDSEP
 70
    44
  9
$DIMATFIT
 70
     3
  9
$DIMFRAC
 70
     0
  9
$DIMLDRBLK
  1

  9
$DIMLUNIT
 70
     2
  9
$DIMLWD
 70
    -2
  9
$DIMLWE
 70
    -2
  9
$DIMTMOVE
 70
     0
  9
$LUNITS
 70
     2
  9
$LUPREC
 70
     2
  9
$SKETCHINC
 40
1.0
  9
$FILLETRAD
 40
0.0
  9
$AUNITS
 70
     0
  9
$AUPREC
 70
     2
  9
$MENU
  1
.
  9
$ELEVATION
 40
0.0
  9
$PELEVATION
 40
0.0
  9
$THICKNESS
 40
0.0
  9
$LIMCHECK
 70
     0
  9
$CHAMFERA
 40
0.0
  9
$CHAMFERB
 40
0.0
  9
$CHAMFERC
 40
0.0
  9
$CHAMFERD
 40
0.0
  9
$SKPOLY
 70
     0
  9
$TDCREATE
 40
2460369.060469363
  9
$TDUCREATE
 40
2460369.268802697
  9
$TDUPDATE
 40
2460369.060564502
  9
$TDUUPDATE
 40
2460369.268897836
  9
$TDINDWG
 40
0.0000000116
  9
$TDUSRTIMER
 40
0.0000000116
  9
$USRTIMER
 70
     1
  9
$ANGBASE
 50
0.0
  9
$ANGDIR
 70
     0
  9
$PDMODE
 70
     0
  9
$PDSIZE
 40
-1.0
  9
$PLINEWID
 40
0.0
  9
$SPLFRAME
 70
     0
  9
$SPLINETYPE
 70
     6
  9
$SPLINESEGS
 70
     8
  9
$HANDSEED
  5
E4
  9
$SURFTAB1
 70
     6
  9
$SURFTAB2
 70
     6
  9
$SURFTYPE
 70
     6
  9
$SURFU
 70
     6
  9
$SURFV
 70
     6
  9
$UCSBASE
  2

  9
$UCSNAME
  2

  9
$UCSORG
 10
0.0
 20
0.0
 30
0.0
  9
$UCSXDIR
 10
1.0
 20
0.0
 30
0.0
  9
$UCSYDIR
 10
0.0
 20
1.0
 30
0.0
  9
$UCSORTHOREF
  2

  9
$UCSORTHOVIEW
 70
     0
  9
$UCSORGTOP
 10
0.0
 20
0.0
 30
0.0
  9
$UCSORGBOTTOM
 10
0.0
 20
0.0
 30
0.0
  9
$UCSORGLEFT
 10
0.0
 20
0.0
 30
0.0
  9
$UCSORGRIGHT
 10
0.0
 20
0.0
 30
0.0
  9
$UCSORGFRONT
 10
0.0
 20
0.0
 30
0.0
  9
$UCSORGBACK
 10
0.0
 20
0.0
 30
0.0
  9
$PUCSBASE
  2

  9
$PUCSNAME
  2

  9
$PUCSORG
 10
0.0
 20
0.0
 30
0.0
  9
$PUCSXDIR
 10
1.0
 20
0.0
 30
0.0
  9
$PUCSYDIR
 10
0.0
 20
1.0
 30
0.0
  9
$PUCSORTHOREF
  2

  9
$PUCSORTHOVIEW
 70
     0
  9
$PUCSORGTOP
 10
0.0
 20
0.0
 30
0.0
  9
$PUCSORGBOTTOM
 10
0.0
 20
0.0
 30
0.0
  9
$PUCSORGLEFT
 10
0.0
 20
0.0
 30
0.0
  9
$PUCSORGRIGHT
 10
0.0
 20
0.0
 30
0.0
  9
$PUCSORGFRONT
 10
0.0
 20
0.0
 30
0.0
  9
$PUCSORGBACK
 10
0.0
 20
0.0
 30
0.0
  9
$USERI1
 70
     0
  9
$USERI2
 70
     0
  9
$USERI3
 70
     0
  9
$USERI4
 70
     0
  9
$USERI5
 70
     0
  9
$USERR1
 40
0.0
  9
$USERR2
 40
0.0
  9
$USERR3
 40
0.0
  9
$USERR4
 40
0.0
  9
$USERR5
 40
0.0
  9
$WORLDVIEW
 70
     1
  9
$SHADEDGE
 70
     3
  9
$SHADEDIF
 70
    70
  9
$TILEMODE
 70
     1
  9
$MAXACTVP
 70
    64
  9
$PINSBASE
 10
0.0
 20
0.0
 30
0.0
  9
$PLIMCHECK
 70
     0
  9
$PEXTMIN
 10
1.0000000000E+20
 20
1.0000000000E+20
 30
1.0000000000E+20
  9
$PEXTMAX
 10
-1.0000000000E+20
 20
-1.0000000000E+20
 30
-1.0000000000E+20
  9
$PLIMMIN
 10
0.0
 20
0.0
  9
$PLIMMAX
 10
420.0
 20
297.0
  9
$UNITMODE
 70
     0
  9
$VISRETAIN
 70
     1
  9
$PLINEGEN
 70
     0
  9
$PSLTSCALE
 70
     1
  9
$TREEDEPTH
 70
  3020
  9
$CMLSTYLE
  2
Standard
  9
$CMLJUST
 70
     0
  9
$CMLSCALE
 40
20.0
  9
$PROXYGRAPHICS
 70
     1
  9
$MEASUREMENT
 70
     1
  9
$CELWEIGHT
370
    -1
  9
$ENDCAPS
280
     0
  9
$JOINSTYLE
280
     0
  9
$LWDISPLAY
290
     1
  9
$INSUNITS
 70
     4
  9
$HYPERLINKBASE
  1

  9
$STYLESHEET
  1

  9
$XEDIT
290
     1
  9
$CEPSNTYPE
380
     0
  9
$PSTYLEMODE
290
     1
  9
$FINGERPRINTGUID
  2
{3f1eb122-7a0c-454d-89dc-c2a9dab5661b}
  9
$VERSIONGUID
  2
{FAEB1C32-E019-11D5-929B-00C0DF256EC4}
  9
$EXTNAMES
290
     1
  9
$PSVPSCALE
 40
0.0
  9
$OLESTARTUP
290
     0
  0
ENDSEC
  0
SECTION
  2
CLASSES
  0
CLASS
  1
ACDBDICTIONARYWDFLT
  2
AcDbDictionaryWithDefault
  3
ObjectDBX Classes
 90
        0
280
     0
281
     0
  0
CLASS
  1
VISUALSTYLE
  2
AcDbVisualStyle
  3
ObjectDBX Classes
 90
     4095
280
     0
281
     0
  0
CLASS
  1
MATERIAL
  2
AcDbMaterial
  3
ObjectDBX Classes
 90
     1153
280
     0
281
     0
  0
CLASS
  1
SCALE
  2
AcDbScale
  3
ObjectDBX Classes
 90
     1153
280
     0
281
     0
  0
CLASS
  1
TABLESTYLE
  2
AcDbTableStyle
  3
ObjectDBX Classes
 90
     4095
280
     0
281
     0
  0
CLASS
  1
MLEADERSTYLE
  2
AcDbMLeaderStyle
  3
ACDB_MLEADERSTYLE_CLASS
 90
     4095
280
     0
281
     0
  0
CLASS
  1
SUN
  2
AcDbSun
  3
SCENEOE
 90
     1153
280
     0
281
     0
  0
CLASS
  1
ACDBPLACEHOLDER
  2
AcDbPlaceHolder
  3
ObjectDBX Classes
 90
        0
280
     0
281
     0
  0
CLASS
  1
LAYOUT
  2
AcDbLayout
  3
ObjectDBX Classes
 90
        0
280
     0
281
     0
  0
ENDSEC
  0
SECTION
  2
TABLES
  0
TABLE
  2
VPORT
  5
8
330
0
100
AcDbSymbolTable
 70
     1
  0
VPORT
  5
29
330
8
100
AcDbSymbolTableRecord
100
AcDbViewportTableRecord
  2
*Active
 70
     0
 10
0.0
 20
0.0
 11
1.0
 21
1.0
 12
-677.2640862675
 22
225.9937871847
 13
0.0
 23
0.0
 14
10.0
 24
10.0
 15
10.0
 25
10.0
 16
0.0
 26
0.0
 36
1.0
 17
0.0
 27
0.0
 37
0.0
 40
49.1169239206
 41
1.743216431
 42
50.0
 43
0.0
 44
0.0
 50
0.0
 51
0.0
 71
     0
 72
   100
 73
     1
 74
     3
 75
     0
 76
     0
 77
     0
 78
     0
281
     0
 65
     1
110
0.0
120
0.0
130
0.0
111
1.0
121
0.0
131
0.0
112
0.0
122
1.0
132
0.0
 79
     0
146
0.0
  0
ENDTAB
  0
TABLE
  2
LTYPE
  5
5
330
0
100
AcDbSymbolTable
 70
     6
  0
LTYPE
  5
14
330
5
100
AcDbSymbolTableRecord
100
AcDbLinetypeTableRecord
  2
ByBlock
 70
     0
  3

 72
    65
 73
     0
 40
0.0
  0
LTYPE
  5
15
330
5
100
AcDbSymbolTableRecord
100
AcDbLinetypeTableRecord
  2
ByLayer
 70
     0
  3

 72
    65
 73
     0
 40
0.0
  0
LTYPE
  5
16
330
5
100
AcDbSymbolTableRecord
100
AcDbLinetypeTableRecord
  2
Continuous
 70
     0
  3
Solid line
 72
    65
 73
     0
 40
0.0
  0
LTYPE
  5
5E
330
5
100
AcDbSymbolTableRecord
100
AcDbLinetypeTableRecord
  2
HIDDEN
 70
     0
  3
Hidden __ __ __ __ __ __ __ __ __ __ __ __ __ __
 72
    65
 73
     2
 40
1.905
 49
1.27
 74
     0
 49
-0.635
 74
     0
  0
LTYPE
  5
5F
330
5
100
AcDbSymbolTableRecord
100
AcDbLinetypeTableRecord
  2
PHANTOM
 70
     0
  3
Phantom ______  __  __  ______  __  __  ______
 72
    65
 73
     6
 40
12.7
 49
6.35
 74
     0
 49
-1.27
 74
     0
 49
1.27
 74
     0
 49
-1.27
 74
     0
 49
1.27
 74
     0
 49
-1.27
 74
     0
  0
LTYPE
  5
60
330
5
100
AcDbSymbolTableRecord
100
AcDbLinetypeTableRecord
  2
CENTER
 70
     0
  3
Center ____ _ ____ _ ____ _ ____ _ ____ _ ____
 72
    65
 73
     4
 40
10.16
 49
6.35
 74
     0
 49
-1.27
 74
     0
 49
1.27
 74
     0
 49
-1.27
 74
     0
  0
LTYPE
  5
61
330
5
100
AcDbSymbolTableRecord
100
AcDbLinetypeTableRecord
  2
CENTERX2
 70
     0
  3
Center (2x) ________  __  ________  __  _____
 72
    65
 73
     4
 40
20.32
 49
12.7
 74
     0
 49
-2.54
 74
     0
 49
2.54
 74
     0
 49
-2.54
 74
     0
  0
LTYPE
  5
62
330
5
100
AcDbSymbolTableRecord
100
AcDbLinetypeTableRecord
  2
DOT2
 70
     0
  3
Dot (.5x) ........................................
 72
    65
 73
     2
 40
0.635
 49
0.0
 74
     0
 49
-0.635
 74
     0
  0
ENDTAB
  0
TABLE
  2
LAYER
  5
2
330
0
100
AcDbSymbolTable
 70
     1
  0
LAYER
  5
10
330
2
100
AcDbSymbolTableRecord
100
AcDbLayerTableRecord
  2
0
 70
     0
 62
     7
  6
Continuous
370
    -3
390
F
  0
ENDTAB
  0
TABLE
  2
STYLE
  5
3
330
0
100
AcDbSymbolTable
 70
     2
  0
STYLE
  5
11
330
3
100
AcDbSymbolTableRecord
100
AcDbTextStyleTableRecord
  2
Standard
 70
     0
 40
0.0
 41
1.0
 50
0.0
 71
     0
 42
3.5
  3
txt
  4

  0
STYLE
  5
E0
330
3
100
AcDbSymbolTableRecord
100
AcDbTextStyleTableRecord
  2
SLDTEXTSTYLE0
 70
     0
 40
0.0
 41
0.7
 50
0.0
 71
     0
 42
3.5
  3
TXT
  4

  0
ENDTAB
  0
TABLE
  2
VIEW
  5
6
330
0
100
AcDbSymbolTable
 70
     0
  0
ENDTAB
  0
TABLE
  2
UCS
  5
7
330
0
100
AcDbSymbolTable
 70
     0
  0
ENDTAB
  0
TABLE
  2
APPID
  5
9
330
0
100
AcDbSymbolTable
 70
     1
  0
APPID
  5
12
330
9
100
AcDbSymbolTableRecord
100
AcDbRegAppTableRecord
  2
ACAD
 70
     0
  0
ENDTAB
  0
TABLE
  2
DIMSTYLE
  5
A
330
0
100
AcDbSymbolTable
 70
     1
100
AcDbDimStyleTable
  0
DIMSTYLE
105
27
330
A
100
AcDbSymbolTableRecord
100
AcDbDimStyleTableRecord
  2
ISO-25
 70
     0
 41
2.5
 42
0.625
 43
3.75
 44
1.25
 73
     0
 74
     0
 77
     1
 78
     8
140
2.5
141
2.5
143
0.0393700787
147
0.625
171
     3
172
     1
178
     0
271
     2
272
     2
274
     3
278
    44
283
     0
284
     8
340
11
  0
ENDTAB
  0
TABLE
  2
BLOCK_RECORD
  5
1
330
0
100
AcDbSymbolTable
 70
     1
  0
BLOCK_RECORD
  5
1F
330
1
100
AcDbSymbolTableRecord
100
AcDbBlockTableRecord
  2
*Model_Space
340
22
  0
BLOCK_RECORD
  5
1B
330
1
100
AcDbSymbolTableRecord
100
AcDbBlockTableRecord
  2
*Paper_Space
340
1E
  0
BLOCK_RECORD
  5
23
330
1
100
AcDbSymbolTableRecord
100
AcDbBlockTableRecord
  2
*Paper_Space0
340
26
  0
ENDTAB
  0
ENDSEC
  0
SECTION
  2
BLOCKS
  0
BLOCK
  5
20
330
1F
100
AcDbEntity
  8
0
100
AcDbBlockBegin
  2
*Model_Space
 70
     0
 10
0.0
 20
0.0
 30
0.0
  3
*Model_Space
  1

  0
ENDBLK
  5
21
330
1F
100
AcDbEntity
  8
0
100
AcDbBlockEnd
  0
BLOCK
  5
1C
330
1B
100
AcDbEntity
 67
     1
  8
0
100
AcDbBlockBegin
  2
*Paper_Space
 70
     0
 10
0.0
 20
0.0
 30
0.0
  3
*Paper_Space
  1

  0
ENDBLK
  5
1D
330
1B
100
AcDbEntity
 67
     1
  8
0
100
AcDbBlockEnd
  0
BLOCK
  5
24
330
23
100
AcDbEntity
  8
0
100
AcDbBlockBegin
  2
*Paper_Space0
 70
     0
 10
0.0
 20
0.0
 30
0.0
  3
*Paper_Space0
  1

  0
ENDBLK
  5
25
330
23
100
AcDbEntity
  8
0
100
AcDbBlockEnd
  0
ENDSEC
  0
SECTION
  2
ENTITIES
  0
SPLINE
  5
63
330
1F
100
AcDbEntity
  8
0
  6
Continuous
 62
     7
370
    25
100
AcDbSpline
210
0.0
220
0.0
230
1.0
 70
     8
 71
     3
 72
    19
 73
    15
 74
     0
 42
0.00000001
 43
0.00000001
 40
0.0
 40
0.0
 40
0.0
 40
0.0
 40
0.0524036720464796
 40
0.1060887783672821
 40
0.1618183493027278
 40
0.218744076055943
 40
0.2777207219377972
 40
0.3381981417746054
 40
0.4006003227959707
 40
0.4648967008254534
 40
0.5959102424687569
 40
0.7282328859930596
 40
0.8631499917567068
 40
1.0
 40
1.0
 40
1.0
 40
1.0
 10
-687.2406251216479
 20
216.7575173028883
 30
0.0
 10
-687.2251662241644
 20
216.7218707886545
 30
0.0
 10
-687.1938704106291
 20
216.6497060910208
 30
0.0
 10
-687.1511592545111
 20
216.5375564826182
 30
0.0
 10
-687.110948068749
 20
216.4209712403628
 30
0.0
 10
-687.0718326525564
 20
216.2998701448092
 30
0.0
 10
-687.036410381829
 20
216.1739666334807
 30
0.0
 10
-687.0035607689164
 20
216.0431994421918
 30
0.0
 10
-686.9725085180247
 20
215.90793387595
 30
0.0
 10
-686.9354139643943
 20
215.7204967936799
 30
0.0
 10
-686.8950000945844
 20
215.480883681338
 30
0.0
 10
-686.8618525275893
 20
215.1873894087666
 30
0.0
 10
-686.8408887866323
 20
214.8884001461575
 30
0.0
 10
-686.8381553877014
 20
214.6869057364714
 30
0.0
 10
-686.8367789677927
 20
214.5854419823771
 30
0.0
  0
SPLINE
  5
64
330
1F
100
AcDbEntity
  8
0
  6
Continuous
 62
     7
370
    25
100
AcDbSpline
210
0.0
220
0.0
230
1.0
 70
     8
 71
     3
 72
    15
 73
    11
 74
     0
 42
0.00000001
 43
0.00000001
 40
0.0
 40
0.0
 40
0.0
 40
0.0
 40
0.131533331208022
 40
0.2613140552872505
 40
0.3903809555664187
 40
0.5181442716425171
 40
0.6436377773429208
 40
0.7656500071728134
 40
0.8843021547841318
 40
1.0
 40
1.0
 40
1.0
 40
1.0
 10
-686.8367789677927
 20
214.5854419823771
 30
0.0
 10
-686.8379014200601
 20
214.4760351377017
 30
0.0
 10
-686.8401313685544
 20
214.2586792325807
 30
0.0
 10
-686.8608140030988
 20
213.9345313091627
 30
0.0
 10
-686.8923995441321
 20
213.6144717843784
 30
0.0
 10
-686.938170870951
 20
213.2996978477019
 30
0.0
 10
-686.9953382437754
 20
212.9927891200242
 30
0.0
 10
-687.0635958635634
 20
212.6959092626915
 30
0.0
 10
-687.1445720636311
 20
212.4106037893688
 30
0.0
 10
-687.2088776556285
 20
212.2265762441616
 30
0.0
 10
-687.2406251216289
 20
212.1357224310934
 30
0.0
  0
LINE
  5
65
330
1F
100
AcDbEntity
  8
0
  6
Continuous
 62
     7
370
    25
100
AcDbLine
 10
-687.2406251216
 20
212.1357224311
 30
0.0
 11
-687.6444712755
 21
212.1357224311
 31
0.0
  0
SPLINE
  5
66
330
1F
100
AcDbEntity
  8
0
  6
Continuous
 62
     7
370
    25
100
AcDbSpline
210
0.0
220
0.0
230
1.0
 70
     8
 71
     3
 72
    19
 73
    15
 74
     0
 42
0.00000001
 43
0.00000001
 40
0.0
 40
0.0
 40
0.0
 40
0.0
 40
0.0535841746534837
 40
0.108680863547359
 40
0.1650438289687856
 40
0.2227890714539508
 40
0.2823382185957276
 40
0.3431973188510534
 40
0.4058864293399781
 40
0.4700333196916653
 40
0.600743232850254
 40
0.7323179158645053
 40
0.8654834869718295
 40
1.0
 40
1.0
 40
1.0
 40
1.0
 10
-687.644471275475
 20
212.1357224310918
 30
0.0
 10
-687.6256253716499
 20
212.1757520714734
 30
0.0
 10
-687.587401602873
 20
212.256941264221
 30
0.0
 10
-687.5365331031571
 20
212.3833846879639
 30
0.0
 10
-687.486098404737
 20
212.5136542510348
 30
0.0
 10
-687.440010196461
 20
212.6494470254367
 30
0.0
 10
-687.3968459933951
 20
212.7900466272857
 30
0.0
 10
-687.3556734879348
 20
212.9355124609237
 30
0.0
 10
-687.3192668662421
 20
213.0861436363046
 30
0.0
 10
-687.2718239102774
 20
213.2933943263508
 30
0.0
 10
-687.2226697896067
 20
213.5585375392478
 30
0.0
 10
-687.1819518227761
 20
213.882554360473
 30
0.0
 10
-687.155615891362
 20
214.2113072486556
 30
0.0
 10
-687.1524649524524
 20
214.4323137397262
 30
0.0
 10
-687.1508815318952
 20
214.5433746746835
 30
0.0
  0
SPLINE
  5
67
330
1F
100
AcDbEntity
  8
0
  6
Continuous
 62
     7
370
    25
100
AcDbSpline
210
0.0
220
0.0
230
1.0
 70
     8
 71
     3
 72
    15
 73
    11
 74
     0
 42
0.00000001
 43
0.00000001
 40
0.0
 40
0.0
 40
0.0
 40
0.0
 40
0.1362442350786143
 40
0.2699484601195493
 40
0.402078053244514
 40
0.532211461206956
 40
0.6584358552404844
 40
0.7784217550616769
 40
0.8919822955363368
 40
0.9999999999999999
 40
0.9999999999999999
 40
0.9999999999999999
 40
0.9999999999999999
 10
-687.1508815318953
 20
214.5433746746835
 30
0.0
 10
-687.152352178871
 20
214.6462323343178
 30
0.0
 10
-687.1552660554561
 20
214.8500300716221
 30
0.0
 10
-687.174804902491
 20
215.1531149055932
 30
0.0
 10
-687.2096076513269
 20
215.4501208017998
 30
0.0
 10
-687.2559853403744
 20
215.7398197573827
 30
0.0
 10
-687.3145993870677
 20
216.0179460361693
 30
0.0
 10
-687.3827384224841
 20
216.2809564977946
 30
0.0
 10
-687.4612987546875
 20
216.5268196028745
 30
0.0
 10
-687.5241084421517
 20
216.6819112888398
 30
0.0
 10
-687.5547276857504
 20
216.757517302887
 30
0.0
  0
LINE
  5
68
330
1F
100
AcDbEntity
  8
0
  6
Continuous
 62
     7
370
    25
100
AcDbLine
 10
-687.5547276858
 20
216.7575173029
 30
0.0
 11
-687.2406251216
 21
216.7575173029
 31
0.0
  0
SPLINE
  5
69
330
1F
100
AcDbEntity
  8
0
  6
Continuous
 62
     7
370
    25
100
AcDbSpline
210
0.0
220
0.0
230
1.0
 70
     8
 71
     3
 72
    23
 73
    19
 74
     0
 42
0.00000001
 43
0.00000001
 40
0.0
 40
0.0
 40
0.0
 40
0.0
 40
0.0683846151037646
 40
0.1344755875434457
 40
0.1983910577839498
 40
0.2607534774484784
 40
0.3218292228076549
 40
0.3830372384795088
 40
0.4446531231064139
 40
0.5073980112039748
 40
0.569825237973016
 40
0.6307776406313004
 40
0.6909286865236792
 40
0.7509451326916968
 40
0.8110494767293472
 40
0.8723308525469577
 40
0.935004093589369
 40
1.0
 40
1.0
 40
1.0
 40
1.0
 10
-690.4713943524073
 20
214.3344403797981
 30
0.0
 10
-690.4698547459781
 20
214.300739915551
 30
0.0
 10
-690.4668271720296
 20
214.2344693118013
 30
0.0
 10
-690.4527120288628
 20
214.1374985287189
 30
0.0
 10
-690.4304632550881
 20
214.0451251865554
 30
0.0
 10
-690.3991941924497
 20
213.9580421445821
 30
0.0
 10
-690.3613273471939
 20
213.8751120170669
 30
0.0
 10
-690.3149416304079
 20
213.7969499800985
 30
0.0
 10
-690.2596020764548
 20
213.7239120500488
 30
0.0
 10
-690.1978763770704
 20
213.6553449124559
 30
0.0
 10
-690.1291692817348
 20
213.5942841512885
 30
0.0
 10
-690.0568865345133
 20
213.5396323750545
 30
0.0
 10
-689.9799929695238
 20
213.4938267783255
 30
0.0
 10
-689.8990948860297
 20
213.4566468885724
 30
0.0
 10
-689.8143231008854
 20
213.4275405725135
 30
0.0
 10
-689.7256509057696
 20
213.4076727518311
 30
0.0
 10
-689.6332527894148
 20
213.3943656449565
 30
0.0
 10
-689.570267055382
 20
213.3928859797563
 30
0.0
 10
-689.5382012434292
 20
213.3921326874942
 30
0.0
  0
SPLINE
  5
6A
330
1F
100
AcDbEntity
  8
0
  6
Continuous
 62
     7
370
    25
100
AcDbSpline
210
0.0
220
0.0
230
1.0
 70
     8
 71
     3
 72
    19
 73
    15
 74
     0
 42
0.00000001
 43
0.00000001
 40
0.0
 40
0.0
 40
0.0
 40
0.0
 40
0.0825922633314612
 40
0.1638788940985223
 40
0.2456587396294573
 40
0.327725695354153
 40
0.4086099609103492
 40
0.4857490859539164
 40
0.559169056197276
 40
0.6302684758575628
 40
0.7053060284321002
 40
0.7920649660966472
 40
0.8897964374100736
 40
1.0
 40
1.0
 40
1.0
 40
1.0
 10
-689.5382012434292
 20
213.3921326874942
 30
0.0
 10
-689.5068500958251
 20
213.3927407441543
 30
0.0
 10
-689.4446434048976
 20
213.3939472452111
 30
0.0
 10
-689.3520025475544
 20
213.4056791561225
 30
0.0
 10
-689.2608630201554
 20
213.424649431744
 30
0.0
 10
-689.1716020368879
 20
213.4505394218279
 30
0.0
 10
-689.0860311909715
 20
213.482116273935
 30
0.0
 10
-689.0067856409104
 20
213.5202191315844
 30
0.0
 10
-688.9339054252846
 20
213.5623688783277
 30
0.0
 10
-688.8657884586984
 20
213.6105785533765
 30
0.0
 10
-688.7997174653464
 20
213.6695867403796
 30
0.0
 10
-688.734174978932
 20
213.7432224613685
 30
0.0
 10
-688.6638983255694
 20
213.8303099891525
 30
0.0
 10
-688.6199087328256
 20
213.8958556551305
 30
0.0
 10
-688.5965946729185
 20
213.9305942259597
 30
0.0
  0
LINE
  5
6B
330
1F
100
AcDbEntity
  8
0
  6
Continuous
 62
     7
370
    25
100
AcDbLine
 10
-688.5965946729
 20
213.930594226
 30
0.0
 11
-688.3175481986
 21
213.7840597708
 31
0.0
  0
SPLINE
  5
6C
330
1F
100
AcDbEntity
  8
0
  6
Continuous
 62
     7
370
    25
100
AcDbSpline
210
0.0
220
0.0
230
1.0
 70
     8
 71
     3
 72
    19
 73
    15
 74
     0
 42
0.00000001
 43
0.00000001
 40
0.0
 40
0.0
 40
0.0
 40
0.0
 40
0.0933698567361664
 40
0.1816607660709996
 40
0.2658742270426049
 40
0.346354784034285
 40
0.424599861717876
 40
0.5019031838373801
 40
0.5799920909873459
 40
0.6584434305294503
 40
0.7386722364878493
 40
0.8218941484362172
 40
0.9088007920465832
 40
1.0
 40
1.0
 40
1.0
 40
1.0
 10
-688.317548198559
 20
213.7840597708326
 30
0.0
 10
-688.3397847937988
 20
213.7446164395571
 30
0.0
 10
-688.3830484022832
 20
213.6678753367393
 30
0.0
 10
-688.4574491501736
 20
213.5624434762669
 30
0.0
 10
-688.5354412227516
 20
213.4675957604279
 30
0.0
 10
-688.6205451907543
 20
213.3858661061435
 30
0.0
 10
-688.7102148697082
 20
213.314614721169
 30
0.0
 10
-688.8049475244939
 20
213.2522768964497
 30
0.0
 10
-688.9052363422285
 20
213.1991583761034
 30
0.0
 10
-689.0110860670073
 20
213.1544058482303
 30
0.0
 10
-689.123385618148
 20
213.1199963541219
 30
0.0
 10
-689.2424071345586
 20
213.0956921332004
 30
0.0
 10
-689.368378629937
 20
213.0806688645494
 30
0.0
 10
-689.4547248098046
 20
213.078923723772
 30
0.0
 10
-689.4989384229151
 20
213.0780301233918
 30
0.0
  0
SPLINE
  5
6D
330
1F
100
AcDbEntity
  8
0
  6
Continuous
 62
     7
370
    25
100
AcDbSpline
210
0.0
220
0.0
230
1.0
 70
     8
 71
     3
 72
    23
 73
    19
 74
     0
 42
0.00000001
 43
0.00000001
 40
0.0
 40
0.0
 40
0.0
 40
0.0
 40
0.0715786576891464
 40
0.1396292246928579
 40
0.2047966973966816
 40
0.268134963396695
 40
0.3298137469867484
 40
0.3913013977745774
 40
0.4534335150970606
 40
0.5165516903197729
 40
0.5796312707049369
 40
0.641118921492766
 40
0.7012940466987614
 40
0.760810335676148
 40
0.8199317217781443
 40
0.8789195754993834
 40
0.9389828222504388
 40
1.0
 40
1.0
 40
1.0
 40
1.0
 10
-689.4989384229151
 20
213.0780301233918
 30
0.0
 10
-689.5480804004503
 20
213.0791772987212
 30
0.0
 10
-689.6439421621078
 20
213.0814151054502
 30
0.0
 10
-689.7834819092209
 20
213.1007075698841
 30
0.0
 10
-689.9148613276185
 20
213.1321799285771
 30
0.0
 10
-690.0380730309721
 20
213.176145470068
 30
0.0
 10
-690.1528152835502
 20
213.2335727941579
 30
0.0
 10
-690.259316138362
 20
213.303532275961
 30
0.0
 10
-690.3581356642316
 20
213.3856645306492
 30
0.0
 10
-690.4461598734172
 20
213.4806809741359
 30
0.0
 10
-690.525403756128
 20
213.5823629314309
 30
0.0
 10
-690.5953295761042
 20
213.6883188159165
 30
0.0
 10
-690.6537870071538
 20
213.7982820403903
 30
0.0
 10
-690.7013396173504
 20
213.9115525644336
 30
0.0
 10
-690.7397444823202
 20
214.0274164579766
 30
0.0
 10
-690.7665111860904
 20
214.1469279255457
 30
0.0
 10
-690.7819409340724
 20
214.2697635097858
 30
0.0
 10
-690.7843053796104
 20
214.3528608455036
 30
0.0
 10
-690.7854969165102
 20
214.3947368541558
 30
0.0
  0
SPLINE
  5
6E
330
1F
100
AcDbEntity
  8
0
  6
Continuous
 62
     7
370
    25
100
AcDbSpline
210
0.0
220
0.0
230
1.0
 70
     8
 71
     3
 72
    15
 73
    11
 74
     0
 42
0.00000001
 43
0.00000001
 40
0.0
 40
0.0
 40
0.0
 40
0.0
 40
0.128044807961104
 40
0.2537679000244655
 40
0.3774284265812839
 40
0.5005508414825153
 40
0.6232958832424571
 40
0.7465783319334747
 40
0.8723475406046992
 40
1.0
 40
1.0
 40
1.0
 40
1.0
 10
-690.7854969165102
 20
214.3947368541558
 30
0.0
 10
-690.7844377751799
 20
214.4340316845734
 30
0.0
 10
-690.7823386969312
 20
214.5119088492603
 30
0.0
 10
-690.7691079095379
 20
214.6271743937906
 30
0.0
 10
-690.7456596164703
 20
214.7392028463193
 30
0.0
 10
-690.7134832925216
 20
214.8480872942883
 30
0.0
 10
-690.6719320463388
 20
214.9536454282725
 30
0.0
 10
-690.6210998271232
 20
215.0559414918959
 30
0.0
 10
-690.5609074493344
 20
215.1548666317565
 30
0.0
 10
-690.5144347755784
 20
215.2172697654646
 30
0.0
 10
-690.4910257626675
 20
215.2487032003109
 30
0.0
  0
SPLINE
  5
6F
330
1F
100
AcDbEntity
  8
0
  6
Continuous
 62
     7
370
    25
100
AcDbSpline
210
0.0
220
0.0
230
1.0
 70
     8
 71
     3
 72
    15
 73
    11
 74
     0
 42
0.00000001
 43
0.00000001
 40
0.0
 40
0.0
 40
0.0
 40
0.0
 40
0.1288352544875507
 40
0.2535893349864168
 40
0.3746432573141475
 40
0.4953400422377248
 40
0.6163247746357775
 40
0.7397593354404947
 40
0.8668423203805368
 40
1.0
 40
1.0
 40
1.0
 40
1.0
 10
-690.4910257626675
 20
215.2487032003109
 30
0.0
 10
-690.4593180798917
 20
215.286572070399
 30
0.0
 10
-690.3969071332838
 20
215.3611102208498
 30
0.0
 10
-690.2913507779308
 20
215.4590485466319
 30
0.0
 10
-690.1770505815883
 20
215.5410923218093
 30
0.0
 10
-690.0554389554886
 20
215.6090994579481
 30
0.0
 10
-689.9251024814283
 20
215.6607731049414
 30
0.0
 10
-689.7877931903906
 20
215.6992806871742
 30
0.0
 10
-689.6419476041641
 20
215.7208586982081
 30
0.0
 10
-689.542242383326
 20
215.7239065318305
 30
0.0
 10
-689.4912260831824
 20
215.7254660208278
 30
0.0
  0
SPLINE
  5
70
330
1F
100
AcDbEntity
  8
0
  6
Continuous
 62
     7
370
    25
100
AcDbSpline
210
0.0
220
0.0
230
1.0
 70
     8
 71
     3
 72
    15
 73
    11
 74
     0
 42
0.00000001
 43
0.00000001
 40
0.0
 40
0.0
 40
0.0
 40
0.0
 40
0.1320402344259438
 40
0.2590328407793646
 40
0.3818798239249601
 40
0.5022584437149591
 40
0.6227521895274701
 40
0.744742631859009
 40
0.8701089273418231
 40
1.0
 40
1.0
 40
1.0
 40
1.0
 10
-689.4912260831824
 20
215.7254660208278
 30
0.0
 10
-689.4387784778785
 20
215.7241119719355
 30
0.0
 10
-689.3358882319399
 20
215.7214556366703
 30
0.0
 10
-689.185856110903
 20
215.6968293032619
 30
0.0
 10
-689.0438953943623
 20
215.657776748699
 30
0.0
 10
-688.910062890053
 20
215.6026229581991
 30
0.0
 10
-688.7843450293004
 20
215.5314634064092
 30
0.0
 10
-688.6675589797248
 20
215.4433215649288
 30
0.0
 10
-688.5577074671759
 20
215.3409034777041
 30
0.0
 10
-688.4937988883233
 20
215.2621402682772
 30
0.0
 10
-688.4612781665136
 20
215.222060572114
 30
0.0
  0
SPLINE
  5
71
330
1F
100
AcDbEntity
  8
0
  6
Continuous
 62
     7
370
    25
100
AcDbSpline
210
0.0
220
0.0
230
1.0
 70
     8
 71
     3
 72
    15
 73
    11
 74
     0
 42
0.00000001
 43
0.00000001
 40
0.0
 40
0.0
 40
0.0
 40
0.0
 40
0.1185218400132488
 40
0.2362547631617389
 40
0.3561744339909138
 40
0.4772496548985688
 40
0.6015398708217037
 40
0.7296183821680339
 40
0.862158266141422
 40
1.0
 40
1.0
 40
1.0
 40
1.0
 10
-688.4612781665136
 20
215.222060572114
 30
0.0
 10
-688.439151228201
 20
215.1918569907279
 30
0.0
 10
-688.3950446351043
 20
215.1316508720392
 30
0.0
 10
-688.3397975350687
 20
215.0334797149387
 30
0.0
 10
-688.2918401400847
 20
214.9307691205888
 30
0.0
 10
-688.2535071790692
 20
214.8218588235019
 30
0.0
 10
-688.2224676778726
 20
214.7080392433292
 30
0.0
 10
-688.2000108591316
 20
214.5884966986148
 30
0.0
 10
-688.1868412405496
 20
214.4632667872542
 30
0.0
 10
-688.1842525432006
 20
214.3779402317774
 30
0.0
 10
-688.1829328139459
 20
214.3344403798075
 30
0.0
  0
LINE
  5
72
330
1F
100
AcDbEntity
  8
0
  6
Continuous
 62
     7
370
    25
100
AcDbLine
 10
-688.1829328139
 20
214.3344403798
 30
0.0
 11
-690.4713943524
 21
214.3344403798
 31
0.0
  0
LINE
  5
73
330
1F
100
AcDbEntity
  8
0
  6
Continuous
 62
     7
370
    25
100
AcDbLine
 10
-691.4137020447
 20
213.1229019183
 30
0.0
 11
-691.7278046088
 21
213.1229019183
 31
0.0
  0
LINE
  5
74
330
1F
100
AcDbEntity
  8
0
  6
Continuous
 62
     7
370
    25
100
AcDbLine
 10
-691.7278046088
 20
213.1229019183
 30
0.0
 11
-691.7278046088
 21
216.712645508
 31
0.0
  0
LINE
  5
75
330
1F
100
AcDbEntity
  8
0
  6
Continuous
 62
     7
370
    25
100
AcDbLine
 10
-691.7278046088
 20
216.712645508
 30
0.0
 11
-691.4137020447
 21
216.712645508
 31
0.0
  0
LINE
  5
76
330
1F
100
AcDbEntity
  8
0
  6
Continuous
 62
     7
370
    25
100
AcDbLine
 10
-691.4137020447
 20
216.712645508
 30
0.0
 11
-691.4137020447
 21
213.1229019183
 31
0.0
  0
LINE
  5
77
330
1F
100
AcDbEntity
  8
0
  6
Continuous
 62
     7
370
    25
100
AcDbLine
 10
-694.6893430703
 20
212.1805942259
 30
0.0
 11
-695.0034456344
 21
212.1805942259
 31
0.0
  0
LINE
  5
78
330
1F
100
AcDbEntity
  8
0
  6
Continuous
 62
     7
370
    25
100
AcDbLine
 10
-695.0034456344
 20
212.1805942259
 30
0.0
 11
-695.0034456345
 21
215.6805942259
 31
0.0
  0
LINE
  5
79
330
1F
100
AcDbEntity
  8
0
  6
Continuous
 62
     7
370
    25
100
AcDbLine
 10
-695.0034456345
 20
215.6805942259
 30
0.0
 11
-694.6893430704
 21
215.6805942259
 31
0.0
  0
LINE
  5
7A
330
1F
100
AcDbEntity
  8
0
  6
Continuous
 62
     7
370
    25
100
AcDbLine
 10
-694.6893430704
 20
215.6805942259
 30
0.0
 11
-694.6893430704
 21
215.2073370144
 31
0.0
  0
SPLINE
  5
7B
330
1F
100
AcDbEntity
  8
0
  6
Continuous
 62
     7
370
    25
100
AcDbSpline
210
0.0
220
0.0
230
1.0
 70
     8
 71
     3
 72
    15
 73
    11
 74
     0
 42
0.00000001
 43
0.00000001
 40
0.0
 40
0.0
 40
0.0
 40
0.0
 40
0.1353597999413011
 40
0.2630446827611316
 40
0.3860610822643729
 40
0.5057706525454756
 40
0.6251780311387264
 40
0.7461477220466151
 40
0.8705380668996942
 40
1.0
 40
1.0
 40
1.0
 40
1.0
 10
-694.6893430703594
 20
215.2073370143962
 30
0.0
 10
-694.655985586308
 20
215.2502747482149
 30
0.0
 10
-694.5911619916083
 20
215.3337156411221
 30
0.0
 10
-694.4794370867437
 20
215.4417057697096
 30
0.0
 10
-694.3615102778281
 20
215.5327810733562
 30
0.0
 10
-694.2343468653262
 20
215.6041636063416
 30
0.0
 10
-694.0999231753118
 20
215.6579844182548
 30
0.0
 10
-693.9587908578636
 20
215.697763868141
 30
0.0
 10
-693.8097520929831
 20
215.7212053427447
 30
0.0
 10
-693.7078556403033
 20
215.7240270039341
 30
0.0
 10
-693.6558895447207
 20
215.7254660208107
 30
0.0
  0
SPLINE
  5
7C
330
1F
100
AcDbEntity
  8
0
  6
Continuous
 62
     7
370
    25
100
AcDbSpline
210
0.0
220
0.0
230
1.0
 70
     8
 71
     3
 72
    23
 73
    19
 74
     0
 42
0.00000001
 43
0.00000001
 40
0.0
 40
0.0
 40
0.0
 40
0.0
 40
0.065081017775036
 40
0.128636050563068
 40
0.1906529019116648
 40
0.2521250372681038
 40
0.3134462756463772
 40
0.3752272792334042
 40
0.4384980827328616
 40
0.5032850999340267
 40
0.5680096868463845
 40
0.6308789816949664
 40
0.6921535040082804
 40
0.7525521497156172
 40
0.8131910939047703
 40
0.8739853995183271
 40
0.9362579468344636
 40
1.0
 40
1.0
 40
1.0
 40
1.0
 10
-693.6558895447207
 20
215.7254660208107
 30
0.0
 10
-693.6104979415235
 20
215.7241528419192
 30
0.0
 10
-693.5207790532264
 20
215.7215572748543
 30
0.0
 10
-693.3887158242969
 20
215.7039842202875
 30
0.0
 10
-693.2615404407718
 20
215.6738665278552
 30
0.0
 10
-693.1399723867953
 20
215.6304656124909
 30
0.0
 10
-693.0227093216088
 20
215.5768101425564
 30
0.0
 10
-692.9114872217732
 20
215.5090931069797
 30
0.0
 10
-692.8045736661443
 20
215.4306869161882
 30
0.0
 10
-692.7046574770408
 20
215.3404547653678
 30
0.0
 10
-692.6123361095141
 20
215.2428264989504
 30
0.0
 10
-692.532489928396
 20
215.1378041948171
 30
0.0
 10
-692.4636180240808
 20
215.0288416084184
 30
0.0
 10
-692.4079477276175
 20
214.9142495161932
 30
0.0
 10
-692.3643393802024
 20
214.7949302863566
 30
0.0
 10
-692.333324702563
 20
214.6704018454473
 30
0.0
 10
-692.3148670590766
 20
214.5411259050046
 30
0.0
 10
-692.3123906074189
 20
214.4532231844392
 30
0.0
 10
-692.3111379421512
 20
214.408759290047
 30
0.0
  0
SPLINE
  5
7D
330
1F
100
AcDbEntity
  8
0
  6
Continuous
 62
     7
370
    25
100
AcDbSpline
210
0.0
220
0.0
230
1.0
 70
     8
 71
     3
 72
    23
 73
    19
 74
     0
 42
0.00000001
 43
0.00000001
 40
0.0
 40
0.0
 40
0.0
 40
0.0
 40
0.0649212959378758
 40
0.128034164391123
 40
0.1895737254178835
 40
0.2505798347323966
 40
0.3117332213636462
 40
0.3732500799286441
 40
0.4357625163356331
 40
0.5003455613741097
 40
0.5649493665465359
 40
0.6275279092682936
 40
0.6891572899131503
 40
0.7498650117127016
 40
0.8107601999033559
 40
0.8722997609301256
 40
0.9354126293833691
 40
1.0
 40
1.0
 40
1.0
 40
1.0
 10
-692.3111379421512
 20
214.408759290047
 30
0.0
 10
-692.3123634277106
 20
214.3633569814938
 30
0.0
 10
-692.3147802620839
 20
214.2738170770131
 30
0.0
 10
-692.3335252680251
 20
214.1423299797708
 30
0.0
 10
-692.3634821421546
 20
214.0158426059427
 30
0.0
 10
-692.4065403252802
 20
213.8945653423693
 30
0.0
 10
-692.4621818136314
 20
213.7785816910764
 30
0.0
 10
-692.5298863739941
 20
213.6679752950262
 30
0.0
 10
-692.6097728411023
 20
213.5627815918758
 30
0.0
 10
-692.7010739688136
 20
213.464428691775
 30
0.0
 10
-692.8001269048705
 20
213.37382937888
 30
0.0
 10
-692.9060043943675
 20
213.2945913092654
 30
0.0
 10
-693.0170633199098
 20
213.228049933972
 30
0.0
 10
-693.1327354870455
 20
213.1724669744034
 30
0.0
 10
-693.2540111255493
 20
213.1305747903339
 30
0.0
 10
-693.3803244032507
 20
213.1003569897091
 30
0.0
 10
-693.5116065497476
 20
213.0817224939738
 30
0.0
 10
-693.6009077017402
 20
213.0792703515348
 30
0.0
 10
-693.6460738395815
 20
213.0780301233749
 30
0.0
  0
SPLINE
  5
7E
330
1F
100
AcDbEntity
  8
0
  6
Continuous
 62
     7
370
    25
100
AcDbSpline
210
0.0
220
0.0
230
1.0
 70
     8
 71
     3
 72
    15
 73
    11
 74
     0
 42
0.00000001
 43
0.00000001
 40
0.0
 40
0.0
 40
0.0
 40
0.0
 40
0.1268408077972287
 40
0.2505477821576403
 40
0.3712302035653056
 40
0.4921157704266854
 40
0.613400987998621
 40
0.7379973201236407
 40
0.8661319098407545
 40
0.9999999999999999
 40
0.9999999999999999
 40
0.9999999999999999
 40
0.9999999999999999
 10
-693.6460738395815
 20
213.0780301233749
 30
0.0
 10
-693.6969014115313
 20
213.0793249310883
 30
0.0
 10
-693.7973007675878
 20
213.0818825559298
 30
0.0
 10
-693.9440984380007
 20
213.1078019659843
 30
0.0
 10
-694.0853752899112
 20
213.1465389016437
 30
0.0
 10
-694.2195661146427
 20
213.2032378952786
 30
0.0
 10
-694.3477339271665
 20
213.2754934111378
 30
0.0
 10
-694.4691537329286
 20
213.3636036171127
 30
0.0
 10
-694.5844704858329
 20
213.4673842418497
 30
0.0
 10
-694.6538792431082
 20
213.5461160580115
 30
0.0
 10
-694.689343070353
 20
213.5863434246526
 30
0.0
  0
LINE
  5
7F
330
1F
100
AcDbEntity
  8
0
  6
Continuous
 62
     7
370
    25
100
AcDbLine
 10
-694.6893430704
 20
213.5863434247
 30
0.0
 11
-694.6893430703
 21
212.1805942259
 31
0.0
  0
LINE
  5
80
330
1F
100
AcDbEntity
  8
0
  6
Continuous
 62
     7
370
    25
100
AcDbLine
 10
-699.2213943524
 20
213.1229019182
 30
0.0
 11
-699.5354969165
 21
213.1229019182
 31
0.0
  0
LINE
  5
81
330
1F
100
AcDbEntity
  8
0
  6
Continuous
 62
     7
370
    25
100
AcDbLine
 10
-699.5354969165
 20
213.1229019182
 30
0.0
 11
-699.5354969165
 21
215.6805942259
 31
0.0
  0
LINE
  5
82
330
1F
100
AcDbEntity
  8
0
  6
Continuous
 62
     7
370
    25
100
AcDbLine
 10
-699.5354969165
 20
215.6805942259
 30
0.0
 11
-699.2213943524
 21
215.6805942259
 31
0.0
  0
LINE
  5
83
330
1F
100
AcDbEntity
  8
0
  6
Continuous
 62
     7
370
    25
100
AcDbLine
 10
-699.2213943524
 20
215.6805942259
 30
0.0
 11
-699.2213943524
 21
215.236083008
 31
0.0
  0
SPLINE
  5
84
330
1F
100
AcDbEntity
  8
0
  6
Continuous
 62
     7
370
    25
100
AcDbSpline
210
0.0
220
0.0
230
1.0
 70
     8
 71
     3
 72
    11
 73
     7
 74
     0
 42
0.00000001
 43
0.00000001
 40
0.0
 40
0.0
 40
0.0
 40
0.0
 40
0.2835948081386745
 40
0.543394840576003
 40
0.7806456291746207
 40
1.0
 40
1.0
 40
1.0
 40
1.0
 10
-699.2213943524109
 20
215.2360830079674
 30
0.0
 10
-699.193110402497
 20
215.2749706096974
 30
0.0
 10
-699.1389156428847
 20
215.3494829827592
 30
0.0
 10
-699.0500499903925
 20
215.4476732669955
 30
0.0
 10
-698.9612738779139
 20
215.53100142165
 30
0.0
 10
-698.897340496146
 20
215.5747442932547
 30
0.0
 10
-698.8666267242075
 20
215.5957584887381
 30
0.0
  0
SPLINE
  5
85
330
1F
100
AcDbEntity
  8
0
  6
Continuous
 62
     7
370
    25
100
AcDbSpline
210
0.0
220
0.0
230
1.0
 70
     8
 71
     3
 72
    11
 73
     7
 74
     0
 42
0.00000001
 43
0.00000001
 40
0.0
 40
0.0
 40
0.0
 40
0.0
 40
0.253734075690698
 40
0.5030351201319052
 40
0.7500135973309285
 40
0.9999999999999999
 40
0.9999999999999999
 40
0.9999999999999999
 40
0.9999999999999999
 10
-698.8666267242074
 20
215.5957584887381
 30
0.0
 10
-698.824762062022
 20
215.6157638539835
 30
0.0
 10
-698.7417641622947
 20
215.6554250673311
 30
0.0
 10
-698.6103449373734
 20
215.6956586262953
 30
0.0
 10
-698.4758702678366
 20
215.7203837276043
 30
0.0
 10
-698.3850620539334
 20
215.7237651010383
 30
0.0
 10
-698.3393831344645
 20
215.7254660207915
 30
0.0
  0
SPLINE
  5
86
330
1F
100
AcDbEntity
  8
0
  6
Continuous
 62
     7
370
    25
100
AcDbSpline
210
0.0
220
0.0
230
1.0
 70
     8
 71
     3
 72
    19
 73
    15
 74
     0
 42
0.00000001
 43
0.00000001
 40
0.0
 40
0.0
 40
0.0
 40
0.0
 40
0.0841520188442927
 40
0.1665323202984112
 40
0.2488363311465331
 40
0.3312461454872253
 40
0.412957109021581
 40
0.4904942776695434
 40
0.5661557919819382
 40
0.6399873346864605
 40
0.7167654882718069
 40
0.8021439047100917
 40
0.8958332007101927
 40
1.0
 40
1.0
 40
1.0
 40
1.0
 10
-698.3393831344644
 20
215.7254660207915
 30
0.0
 10
-698.3084901378968
 20
215.7244207300112
 30
0.0
 10
-698.2473545588574
 20
215.7223521557639
 30
0.0
 10
-698.1567704687574
 20
215.7088921205874
 30
0.0
 10
-698.068911856924
 20
215.6856259475684
 30
0.0
 10
-697.9842978275949
 20
215.6532186236012
 30
0.0
 10
-697.9045771483156
 20
215.6139719366876
 30
0.0
 10
-697.8314879505651
 20
215.567922228771
 30
0.0
 10
-697.7658637423824
 20
215.5162251533659
 30
0.0
 10
-697.7077376910738
 20
215.4565462203809
 30
0.0
 10
-697.6554686656776
 20
215.3872096218606
 30
0.0
 10
-697.6073898190473
 20
215.3063453729572
 30
0.0
 10
-697.5629646066695
 20
215.2121377119018
 30
0.0
 10
-697.5383432978373
 20
215.1437711709238
 30
0.0
 10
-697.5253807306158
 20
215.1077777195128
 30
0.0
  0
SPLINE
  5
87
330
1F
100
AcDbEntity
  8
0
  6
Continuous
 62
     7
370
    25
100
AcDbSpline
210
0.0
220
0.0
230
1.0
 70
     8
 71
     3
 72
    19
 73
    15
 74
     0
 42
0.00000001
 43
0.00000001
 40
0.0
 40
0.0
 40
0.0
 40
0.0
 40
0.0717660641583394
 40
0.1412255357663669
 40
0.2091158524975139
 40
0.2748396534685135
 40
0.3394829303752206
 40
0.4024762667354316
 40
0.4649418891713767
 40
0.5268326406463752
 40
0.6474148160608303
 40
0.7655615117859736
 40
0.8816150870393433
 40
1.0
 40
1.0
 40
1.0
 40
1.0
 10
-697.5253807306157
 20
215.1077777195128
 30
0.0
 10
-697.5116694792601
 20
215.132502138788
 30
0.0
 10
-697.4846876621375
 20
215.1811563237375
 30
0.0
 10
-697.4393820250648
 20
215.2500145859825
 30
0.0
 10
-697.391914228587
 20
215.3144213778281
 30
0.0
 10
-697.3418797355267
 20
215.3744278021984
 30
0.0
 10
-697.2894551486864
 20
215.4297375326126
 30
0.0
 10
-697.2343937483861
 20
215.4805334342672
 30
0.0
 10
-697.177008966963
 20
215.527033647952
 30
0.0
 10
-697.0972167270504
 20
215.5813568074661
 30
0.0
 10
-696.9934041196643
 20
215.6390579888291
 30
0.0
 10
-696.8625160049661
 20
215.6890864328381
 30
0.0
 10
-696.7263658333775
 20
215.7200025611979
 30
0.0
 10
-696.6339481350699
 20
215.723632834034
 30
0.0
 10
-696.5872797690797
 20
215.7254660207987
 30
0.0
  0
SPLINE
  5
88
330
1F
100
AcDbEntity
  8
0
  6
Continuous
 62
     7
370
    25
100
AcDbSpline
210
0.0
220
0.0
230
1.0
 70
     8
 71
     3
 72
    23
 73
    19
 74
     0
 42
0.00000001
 43
0.00000001
 40
0.0
 40
0.0
 40
0.0
 40
0.0
 40
0.0756043304957393
 40
0.1479650154827719
 40
0.2187969985237049
 40
0.2894704453213887
 40
0.3597242180875133
 40
0.4297077387530379
 40
0.5004965198485888
 40
0.5744290198679515
 40
0.6139472962286701
 40
0.6571552698261139
 40
0.7039727697209417
 40
0.7549389848168061
 40
0.8097066112894784
 40
0.8688329536985562
 40
0.9323854739326022
 40
1.0
 40
1.0
 40
1.0
 40
1.0
 10
-696.5872797690798
 20
215.7254660207987
 30
0.0
 10
-696.5443983062612
 20
215.7238487999412
 30
0.0
 10
-696.4604751200064
 20
215.7206837417011
 30
0.0
 10
-696.3382978542932
 20
215.6958302683662
 30
0.0
 10
-696.224356048969
 20
215.6531526212489
 30
0.0
 10
-696.1188789728391
 20
215.594918984679
 30
0.0
 10
-696.0237191594297
 20
215.5217398013751
 30
0.0
 10
-695.9410028502452
 20
215.4346709637575
 30
0.0
 10
-695.8712324869091
 20
215.3343283407465
 30
0.0
 10
-695.8256538472116
 20
215.2399363520527
 30
0.0
 10
-695.7947385829815
 20
215.1566010192043
 30
0.0
 10
-695.7756773486553
 20
215.0855947278963
 30
0.0
 10
-695.7588376535683
 20
215.0074431749763
 30
0.0
 10
-695.744856408305
 20
214.9220529134731
 30
0.0
 10
-695.7346378562088
 20
214.8291223051704
 30
0.0
 10
-695.7270671407207
 20
214.7288034292875
 30
0.0
 10
-695.721943067162
 20
214.6210183176656
 30
0.0
 10
-695.7215809949
 20
214.5466528174382
 30
0.0
 10
-695.7213943524081
 20
214.5083185849048
 30
0.0
  0
LINE
  5
89
330
1F
100
AcDbEntity
  8
0
  6
Continuous
 62
     7
370
    25
100
AcDbLine
 10
-695.7213943524
 20
214.5083185849
 30
0.0
 11
-695.7213943524
 21
213.1229019182
 31
0.0
  0
LINE
  5
8A
330
1F
100
AcDbEntity
  8
0
  6
Continuous
 62
     7
370
    25
100
AcDbLine
 10
-695.7213943524
 20
213.1229019182
 30
0.0
 11
-696.0354969165
 21
213.1229019182
 31
0.0
  0
LINE
  5
8B
330
1F
100
AcDbEntity
  8
0
  6
Continuous
 62
     7
370
    25
100
AcDbLine
 10
-696.0354969165
 20
213.1229019182
 30
0.0
 11
-696.0354969165
 21
214.5097208285
 31
0.0
  0
SPLINE
  5
8C
330
1F
100
AcDbEntity
  8
0
  6
Continuous
 62
     7
370
    25
100
AcDbSpline
210
0.0
220
0.0
230
1.0
 70
     8
 71
     3
 72
    23
 73
    19
 74
     0
 42
0.00000001
 43
0.00000001
 40
0.0
 40
0.0
 40
0.0
 40
0.0
 40
0.0783429851937034
 40
0.1505633028794266
 40
0.2161510566599901
 40
0.2756797924514447
 40
0.3287070503654674
 40
0.3759044348322271
 40
0.4173018977400579
 40
0.4526927480535993
 40
0.5172652917530519
 40
0.581216568062335
 40
0.645321893972814
 40
0.7120244933797893
 40
0.7801300447160733
 40
0.8502182262117252
 40
0.9226485217348016
 40
1.0
 40
1.0
 40
1.0
 40
1.0
 10
-696.0354969165106
 20
214.5097208284933
 30
0.0
 10
-696.035574799487
 20
214.5424414024307
 30
0.0
 10
-696.0357244787223
 20
214.6053253692843
 30
0.0
 10
-696.0384181102869
 20
214.6955778204919
 30
0.0
 10
-696.0434934243428
 20
214.7778461777349
 30
0.0
 10
-696.0494280631103
 20
214.8520182658783
 30
0.0
 10
-696.057671872491
 20
214.918267054375
 30
0.0
 10
-696.068317804226
 20
214.976459472943
 30
0.0
 10
-696.079595484125
 20
215.0270532843037
 30
0.0
 10
-696.0983314752341
 20
215.0831393319018
 30
0.0
 10
-696.12827936685
 20
215.1450095423849
 30
0.0
 10
-696.1738968468836
 20
215.2117331181799
 30
0.0
 10
-696.2313669531482
 20
215.2698139183629
 30
0.0
 10
-696.297727109712
 20
215.3202322351808
 30
0.0
 10
-696.3732755544052
 20
215.3612258762783
 30
0.0
 10
-696.4565402775705
 20
215.3905018859806
 30
0.0
 10
-696.5470043291649
 20
215.4086247643926
 30
0.0
 10
-696.6096271175757
 20
215.4104307799687
 30
0.0
 10
-696.6419672690784
 20
215.4113634566959
 30
0.0
  0
SPLINE
  5
8D
330
1F
100
AcDbEntity
  8
0
  6
Continuous
 62
     7
370
    25
100
AcDbSpline
210
0.0
220
0.0
230
1.0
 70
     8
 71
     3
 72
    23
 73
    19
 74
     0
 42
0.00000001
 43
0.00000001
 40
0.0
 40
0.0
 40
0.0
 40
0.0
 40
0.0681582441560234
 40
0.1347066022024111
 40
0.2018649976036457
 40
0.2707882662775099
 40
0.3400242943605019
 40
0.408082739053743
 40
0.4768131952581657
 40
0.5473460643071082
 40
0.5856397954239017
 40
0.6288649531777758
 40
0.677153203363797
 40
0.7308028113651126
 40
0.7898066155325085
 40
0.8543250087420124
 40
0.9243651340575524
 40
1.0
 40
1.0
 40
1.0
 40
1.0
 10
-696.6419672690784
 20
215.4113634566959
 30
0.0
 10
-696.6816372234516
 20
215.4099472993092
 30
0.0
 10
-696.7600401346375
 20
215.4071484339319
 30
0.0
 10
-696.8744856208458
 20
215.3785745609683
 30
0.0
 10
-696.9844566374526
 20
215.3354943103082
 30
0.0
 10
-697.0866717703772
 20
215.2730618531843
 30
0.0
 10
-697.1806995609935
 20
215.1982534893318
 30
0.0
 10
-697.2615991387786
 20
215.1093038935722
 30
0.0
 10
-697.3284313244402
 20
215.0086739666368
 30
0.0
 10
-697.3736853003807
 20
214.915527264321
 30
0.0
 10
-697.4022746016251
 20
214.8318578204396
 30
0.0
 10
-697.4211515173698
 20
214.7587604484417
 30
0.0
 10
-697.435834908839
 20
214.6756788806084
 30
0.0
 10
-697.4496054380501
 20
214.5831713897442
 30
0.0
 10
-697.4585931660163
 20
214.4806012093921
 30
0.0
 10
-697.46676153834
 20
214.3684428083923
 30
0.0
 10
-697.4705824011537
 20
214.2463588489562
 30
0.0
 10
-697.4711168599129
 20
214.1617321603425
 30
0.0
 10
-697.4713943524064
 20
214.1177937451541
 30
0.0
  0
LINE
  5
8E
330
1F
100
AcDbEntity
  8
0
  6
Continuous
 62
     7
370
    25
100
AcDbLine
 10
-697.4713943524
 20
214.1177937452
 30
0.0
 11
-697.4713943524
 21
213.1229019182
 31
0.0
  0
LINE
  5
8F
330
1F
100
AcDbEntity
  8
0
  6
Continuous
 62
     7
370
    25
100
AcDbLine
 10
-697.4713943524
 20
213.1229019182
 30
0.0
 11
-697.7854969165
 21
213.1229019182
 31
0.0
  0
LINE
  5
90
330
1F
100
AcDbEntity
  8
0
  6
Continuous
 62
     7
370
    25
100
AcDbLine
 10
-697.7854969165
 20
213.1229019182
 30
0.0
 11
-697.7854969165
 21
214.4234828477
 31
0.0
  0
SPLINE
  5
91
330
1F
100
AcDbEntity
  8
0
  6
Continuous
 62
     7
370
    25
100
AcDbSpline
210
0.0
220
0.0
230
1.0
 70
     8
 71
     3
 72
    23
 73
    19
 74
     0
 42
0.00000001
 43
0.00000001
 40
0.0
 40
0.0
 40
0.0
 40
0.0
 40
0.0825297038220622
 40
0.1587788549175633
 40
0.2277380621151688
 40
0.2899456527966718
 40
0.3454988386981369
 40
0.393896337340122
 40
0.4363737851900694
 40
0.4721222744615131
 40
0.5363836155048417
 40
0.5990779017254801
 40
0.6619482340244804
 40
0.7263105423531704
 40
0.7917711030502059
 40
0.8586473037978599
 40
0.9273053338076648
 40
0.9999999999999999
 40
0.9999999999999999
 40
0.9999999999999999
 40
0.9999999999999999
 10
-697.7854969165103
 20
214.4234828477169
 30
0.0
 10
-697.7855763474869
 20
214.4601761664821
 30
0.0
 10
-697.7857291647015
 20
214.530770423663
 30
0.0
 10
-697.7884054820182
 20
214.6320040989738
 30
0.0
 10
-697.7934921037145
 20
214.7240851790667
 30
0.0
 10
-697.7993726520815
 20
214.8069066429003
 30
0.0
 10
-697.8078328305994
 20
214.8803179716606
 30
0.0
 10
-697.8174425927098
 20
214.9447127296632
 30
0.0
 10
-697.8287912032367
 20
214.9999294807464
 30
0.0
 10
-697.8475810878577
 20
215.0604928656094
 30
0.0
 10
-697.8762955561475
 20
215.1272137885933
 30
0.0
 10
-697.9224838181359
 20
215.1983548097757
 30
0.0
 10
-697.9800913985171
 20
215.260622907298
 30
0.0
 10
-698.0476622743819
 20
215.3137816557333
 30
0.0
 10
-698.1236679565721
 20
215.3577231370313
 30
0.0
 10
-698.2076513573812
 20
215.3893828888176
 30
0.0
 10
-698.2988562702177
 20
215.4078071784395
 30
0.0
 10
-698.3617339761267
 20
215.4101556751149
 30
0.0
 10
-698.394070634463
 20
215.4113634566887
 30
0.0
  0
SPLINE
  5
92
330
1F
100
AcDbEntity
  8
0
  6
Continuous
 62
     7
370
    25
100
AcDbSpline
210
0.0
220
0.0
230
1.0
 70
     8
 71
     3
 72
    23
 73
    19
 74
     0
 42
0.00000001
 43
0.00000001
 40
0.0
 40
0.0
 40
0.0
 40
0.0
 40
0.0686770684130486
 40
0.1368709585090774
 40
0.2061143571453233
 40
0.2775381819697105
 40
0.3497719775548869
 40
0.4212508361555493
 40
0.4929107569233728
 40
0.5670265889927347
 40
0.606614153241319
 40
0.6497039535189942
 40
0.6973031504846943
 40
0.7490856597091389
 40
0.8048806474593121
 40
0.8654850057023413
 40
0.9302371271531399
 40
1.0
 40
1.0
 40
1.0
 40
1.0
 10
-698.394070634463
 20
215.4113634566887
 30
0.0
 10
-698.4320868459159
 20
215.4098329966716
 30
0.0
 10
-698.507851805322
 20
215.4067828442065
 30
0.0
 10
-698.6191537749772
 20
215.3793285703574
 30
0.0
 10
-698.7266394585946
 20
215.3363244955984
 30
0.0
 10
-698.8285941573879
 20
215.2766646765119
 30
0.0
 10
-698.9222683056935
 20
215.2027655979146
 30
0.0
 10
-699.0042765729876
 20
215.1158507021425
 30
0.0
 10
-699.0732190985113
 20
215.0170016686301
 30
0.0
 10
-699.1189509134134
 20
214.9248371521144
 30
0.0
 10
-699.1484493875341
 20
214.843263877217
 30
0.0
 10
-699.1680447222114
 20
214.773912929543
 30
0.0
 10
-699.1848843480233
 20
214.6969126812607
 30
0.0
 10
-699.197398369727
 20
214.6120255701763
 30
0.0
 10
-699.2094787853343
 20
214.5198044760408
 30
0.0
 10
-699.2153090944113
 20
214.4197899863312
 30
0.0
 10
-699.2209806565651
 20
214.3120678986292
 30
0.0
 10
-699.2212530712649
 20
214.2376953533874
 30
0.0
 10
-699.2213943524067
 20
214.199123873352
 30
0.0
  0
LINE
  5
93
330
1F
100
AcDbEntity
  8
0
  6
Continuous
 62
     7
370
    25
100
AcDbLine
 10
-699.2213943524
 20
214.1991238734
 30
0.0
 11
-699.2213943524
 21
213.1229019182
 31
0.0
  0
LINE
  5
94
330
1F
100
AcDbEntity
  8
0
  6
Continuous
 62
     7
370
    25
100
AcDbLine
 10
-700.2983174293
 20
213.1229019182
 30
0.0
 11
-700.6124199934
 21
213.1229019182
 31
0.0
  0
LINE
  5
95
330
1F
100
AcDbEntity
  8
0
  6
Continuous
 62
     7
370
    25
100
AcDbLine
 10
-700.6124199934
 20
213.1229019182
 30
0.0
 11
-700.6124199934
 21
215.6805942259
 31
0.0
  0
LINE
  5
96
330
1F
100
AcDbEntity
  8
0
  6
Continuous
 62
     7
370
    25
100
AcDbLine
 10
-700.6124199934
 20
215.6805942259
 30
0.0
 11
-700.2983174293
 21
215.6805942259
 31
0.0
  0
LINE
  5
97
330
1F
100
AcDbEntity
  8
0
  6
Continuous
 62
     7
370
    25
100
AcDbLine
 10
-700.2983174293
 20
215.6805942259
 30
0.0
 11
-700.2983174293
 21
213.1229019182
 31
0.0
  0
SPLINE
  5
98
330
1F
100
AcDbEntity
  8
0
  6
Continuous
 62
     7
370
    25
100
AcDbSpline
210
0.0
220
0.0
230
1.0
 70
     8
 71
     3
 72
    15
 73
    11
 74
     0
 42
0.00000001
 43
0.00000001
 40
0.0
 40
0.0
 40
0.0
 40
0.0
 40
0.1318667517024138
 40
0.2566614034534653
 40
0.3842132129426141
 40
0.5133652331526547
 40
0.640443151825422
 40
0.7610850047779368
 40
0.8791455246531746
 40
0.9999999999999999
 40
0.9999999999999999
 40
0.9999999999999999
 40
0.9999999999999999
 10
-700.456770954979
 20
216.2190557643726
 30
0.0
 10
-700.476039230146
 20
216.2199254845942
 30
0.0
 10
-700.5135424103078
 20
216.2216182813744
 30
0.0
 10
-700.5679092526493
 20
216.2371882991104
 30
0.0
 10
-700.617737742043
 20
216.2626043722107
 30
0.0
 10
-700.6624024147018
 20
216.2968305573058
 30
0.0
 10
-700.6996326078338
 20
216.3377754545354
 30
0.0
 10
-700.7267309332306
 20
216.3841027483922
 30
0.0
 10
-700.7438058951165
 20
216.4343119030103
 30
0.0
 10
-700.7459505237314
 20
216.4692240693194
 30
0.0
 10
-700.7470353780571
 20
216.4868842900124
 30
0.0
  0
SPLINE
  5
99
330
1F
100
AcDbEntity
  8
0
  6
Continuous
 62
     7
370
    25
100
AcDbSpline
210
0.0
220
0.0
230
1.0
 70
     8
 71
     3
 72
    15
 73
    11
 74
     0
 42
0.00000001
 43
0.00000001
 40
0.0
 40
0.0
 40
0.0
 40
0.0
 40
0.1232898687278353
 40
0.2421490813339633
 40
0.3634374760537359
 40
0.4897453933413352
 40
0.6181148445929161
 40
0.7448937812571627
 40
0.868932266589111
 40
1.0
 40
1.0
 40
1.0
 40
1.0
 10
-700.7470353780571
 20
216.4868842900124
 30
0.0
 10
-700.7459742914405
 20
216.5050151396152
 30
0.0
 10
-700.7438902503741
 20
216.5406252722271
 30
0.0
 10
-700.7267181342359
 20
216.5917203051428
 30
0.0
 10
-700.6998583264742
 20
216.6387018069461
 30
0.0
 10
-700.662377762941
 20
216.6797273063723
 30
0.0
 10
-700.6177443026705
 20
216.7139727411415
 30
0.0
 10
-700.5679075575041
 20
216.7393837226439
 30
0.0
 10
-700.5135428581258
 20
216.7549550620145
 30
0.0
 10
-700.4760393821372
 20
216.7566476763489
 30
0.0
 10
-700.4567709549813
 20
216.7575173028341
 30
0.0
  0
SPLINE
  5
9A
330
1F
100
AcDbEntity
  8
0
  6
Continuous
 62
     7
370
    25
100
AcDbSpline
210
0.0
220
0.0
230
1.0
 70
     8
 71
     3
 72
    15
 73
    11
 74
     0
 42
0.00000001
 43
0.00000001
 40
0.0
 40
0.0
 40
0.0
 40
0.0
 40
0.1318992643311063
 40
0.2582840923169072
 40
0.3843411247790592
 40
0.5119796151256396
 40
0.6386320084211659
 40
0.7592297631645103
 40
0.8774121680351745
 40
0.9999999999999999
 40
0.9999999999999999
 40
0.9999999999999999
 40
0.9999999999999999
 10
-700.4567709549813
 20
216.7575173028341
 30
0.0
 10
-700.4372796391931
 20
216.7566131504385
 30
0.0
 10
-700.3991118993506
 20
216.754842646395
 30
0.0
 10
-700.3439186316745
 20
216.7396811693166
 30
0.0
 10
-700.2936616195987
 20
216.7139814838723
 30
0.0
 10
-700.2490838867091
 20
216.679501802972
 30
0.0
 10
-700.2108320000277
 20
216.6389523595129
 30
0.0
 10
-700.1840512896518
 20
216.5916913912177
 30
0.0
 10
-700.1668388935368
 20
216.5406327524289
 30
0.0
 10
-700.1647603382589
 20
216.5050176632478
 30
0.0
 10
-700.1637020447238
 20
216.4868842900148
 30
0.0
  0
SPLINE
  5
9B
330
1F
100
AcDbEntity
  8
0
  6
Continuous
 62
     7
370
    25
100
AcDbSpline
210
0.0
220
0.0
230
1.0
 70
     8
 71
     3
 72
    15
 73
    11
 74
     0
 42
0.00000001
 43
0.00000001
 40
0.0
 40
0.0
 40
0.0
 40
0.0
 40
0.1201621349925669
 40
0.2375463202769084
 40
0.3574970509272993
 40
0.4849171224653142
 40
0.6133292680851475
 40
0.7401503701287411
 40
0.8673012545632267
 40
1.0
 40
1.0
 40
1.0
 40
1.0
 10
-700.1637020447238
 20
216.4868842900148
 30
0.0
 10
-700.1647842045484
 20
216.4692216368516
 30
0.0
 10
-700.1669235064534
 20
216.4343046618368
 30
0.0
 10
-700.1840379947055
 20
216.3841311897846
 30
0.0
 10
-700.2110602325467
 20
216.3375269063008
 30
0.0
 10
-700.2490593581736
 20
216.2970561960886
 30
0.0
 10
-700.2936681191749
 20
216.2625955760979
 30
0.0
 10
-700.3439169050247
 20
216.2368908371926
 30
0.0
 10
-700.3991123535393
 20
216.2217306998267
 30
0.0
 10
-700.4372797927275
 20
216.2199600110877
 30
0.0
 10
-700.456770954979
 20
216.2190557643726
 30
0.0
  0
SPLINE
  5
9C
330
1F
100
AcDbEntity
  8
0
  6
Continuous
 62
     7
370
    25
100
AcDbSpline
210
0.0
220
0.0
230
1.0
 70
     8
 71
     3
 72
    23
 73
    19
 74
     0
 42
0.00000001
 43
0.00000001
 40
0.0
 40
0.0
 40
0.0
 40
0.0
 40
0.0614842551968938
 40
0.1217745277022155
 40
0.1809195598139387
 40
0.2402561150782662
 40
0.3001144444023466
 40
0.3611459476126055
 40
0.4235005824125773
 40
0.4886693612807315
 40
0.5539541046535825
 40
0.6175812610152652
 40
0.6802384268167665
 40
0.7421873887724807
 40
0.8046632117692922
 40
0.8682589893126624
 40
0.93302025718043
 40
1.0
 40
1.0
 40
1.0
 40
1.0
 10
-701.1957533267647
 20
213.9803738733439
 30
0.0
 10
-701.1964104648886
 20
213.9489955082483
 30
0.0
 10
-701.197711979958
 20
213.8868481247053
 30
0.0
 10
-701.2126728937361
 20
213.795593047823
 30
0.0
 10
-701.2345925588983
 20
213.706962178139
 30
0.0
 10
-701.2676297928487
 20
213.6220510656939
 30
0.0
 10
-701.307952951108
 20
213.5393063030102
 30
0.0
 10
-701.3591191989736
 20
213.4608984025991
 30
0.0
 10
-701.4184268837112
 20
213.385092004012
 30
0.0
 10
-701.4864606486154
 20
213.3139085126566
 30
0.0
 10
-701.5609065509311
 20
213.2485623166707
 30
0.0
 10
-701.6395902455941
 20
213.190433255198
 30
0.0
 10
-701.7226405185279
 20
213.1419649318022
 30
0.0
 10
-701.8096068352111
 20
213.1024140897522
 30
0.0
 10
-701.9005091719179
 20
213.0714805722253
 30
0.0
 10
-701.9953169557523
 20
213.0490677030942
 30
0.0
 10
-702.0941864669719
 20
213.0353119921803
 30
0.0
 10
-702.1613869485442
 20
213.0338842307153
 30
0.0
 10
-702.1955530062479
 20
213.033158328468
 30
0.0
  0
SPLINE
  5
9D
330
1F
100
AcDbEntity
  8
0
  6
Continuous
 62
     7
370
    25
100
AcDbSpline
210
0.0
220
0.0
230
1.0
 70
     8
 71
     3
 72
    23
 73
    19
 74
     0
 42
0.00000001
 43
0.00000001
 40
0.0
 40
0.0
 40
0.0
 40
0.0
 40
0.05720826943355
 40
0.113696059657532
 40
0.1691779164172177
 40
0.2241592165805327
 40
0.2787198783810529
 40
0.3337942174469796
 40
0.389241459340028
 40
0.445822073393655
 40
0.5037042811090343
 40
0.5642938918194004
 40
0.6279754158952391
 40
0.695038259684057
 40
0.7653727258509981
 40
0.8396114430907236
 40
0.9175377500777995
 40
0.9999999999999999
 40
0.9999999999999999
 40
0.9999999999999999
 40
0.9999999999999999
 10
-702.1955530062479
 20
213.033158328468
 30
0.0
 10
-702.221988349229
 20
213.0336695100653
 30
0.0
 10
-702.2745261092833
 20
213.0346854354544
 30
0.0
 10
-702.3522355911567
 20
213.0436667158764
 30
0.0
 10
-702.4283751803546
 20
213.0563738194671
 30
0.0
 10
-702.5019894623891
 20
213.0765478894438
 30
0.0
 10
-702.5740268740308
 20
213.1010248664856
 30
0.0
 10
-702.644174108557
 20
213.1311631990835
 30
0.0
 10
-702.7124651624129
 20
213.1672804005305
 30
0.0
 10
-702.7792827452816
 20
213.208575425159
 30
0.0
 10
-702.8444569198678
 20
213.2566331697222
 30
0.0
 10
-702.9073763877968
 20
213.3126066661602
 30
0.0
 10
-702.9701055733107
 20
213.3749521711513
 30
0.0
 10
-703.0307929696322
 20
213.4453627345127
 30
0.0
 10
-703.0906661139386
 20
213.5227008173703
 30
0.0
 10
-703.148544523475
 20
213.6076900007674
 30
0.0
 10
-703.2056262411548
 20
213.6998673545261
 30
0.0
 10
-703.2414417089822
 20
213.7647324402458
 30
0.0
 10
-703.2598558908664
 20
213.7980822066688
 30
0.0
  0
LINE
  5
9E
330
1F
100
AcDbEntity
  8
0
  6
Continuous
 62
     7
370
    25
100
AcDbLine
 10
-703.2598558909
 20
213.7980822067
 30
0.0
 11
-702.9639824934
 21
213.9754660208
 31
0.0
  0
SPLINE
  5
9F
330
1F
100
AcDbEntity
  8
0
  6
Continuous
 62
     7
370
    25
100
AcDbSpline
210
0.0
220
0.0
230
1.0
 70
     8
 71
     3
 72
    15
 73
    11
 74
     0
 42
0.00000001
 43
0.00000001
 40
0.0
 40
0.0
 40
0.0
 40
0.0
 40
0.1590042985173365
 40
0.3046460998968207
 40
0.4385469045795398
 40
0.5623222987758753
 40
0.6774325425256655
 40
0.7868973929387658
 40
0.8936108891042184
 40
1.0
 40
1.0
 40
1.0
 40
1.0
 10
-702.9639824934314
 20
213.9754660207726
 30
0.0
 10
-702.9364642561807
 20
213.9294016358257
 30
0.0
 10
-702.8837403755523
 20
213.8411440519169
 30
0.0
 10
-702.7957890163989
 20
213.7218860114884
 30
0.0
 10
-702.704656105233
 20
213.6205238547298
 30
0.0
 10
-702.6096667716828
 20
213.5376472471904
 30
0.0
 10
-702.5114008235603
 20
213.4723983604431
 30
0.0
 10
-702.4092167698234
 20
213.4261961287251
 30
0.0
 10
-702.3034589591119
 20
213.3973801533541
 30
0.0
 10
-702.2314851376325
 20
213.3938800667997
 30
0.0
 10
-702.1955530062494
 20
213.3921326874424
 30
0.0
  0
SPLINE
  5
A0
330
1F
100
AcDbEntity
  8
0
  6
Continuous
 62
     7
370
    25
100
AcDbSpline
210
0.0
220
0.0
230
1.0
 70
     8
 71
     3
 72
    19
 73
    15
 74
     0
 42
0.00000001
 43
0.00000001
 40
0.0
 40
0.0
 40
0.0
 40
0.0
 40
0.0912636048966315
 40
0.1809303110850922
 40
0.2700882198317378
 40
0.3601561333877559
 40
0.4483425324981133
 40
0.5326658421382862
 40
0.6138337041070226
 40
0.6939815272835358
 40
0.7727159770890251
 40
0.8493351720622453
 40
0.9239673265752508
 40
1.0
 40
1.0
 40
1.0
 40
1.0
 10
-702.1955530062494
 20
213.3921326874424
 30
0.0
 10
-702.1648661457378
 20
213.3929873599547
 30
0.0
 10
-702.1040293726905
 20
213.3946817502181
 30
0.0
 10
-702.0144671297298
 20
213.4109625522678
 30
0.0
 10
-701.9274853274636
 20
213.4359746811816
 30
0.0
 10
-701.8448766897333
 20
213.4717956126905
 30
0.0
 10
-701.7677810752023
 20
213.5151340984158
 30
0.0
 10
-701.7001743798656
 20
213.5674802759234
 30
0.0
 10
-701.6417282666864
 20
213.6260864816373
 30
0.0
 10
-701.5939191521194
 20
213.6914691362794
 30
0.0
 10
-701.5572391168312
 20
213.7617862848868
 30
0.0
 10
-701.5290470484188
 20
213.8339622362254
 30
0.0
 10
-701.5134019747624
 20
213.9091308045043
 30
0.0
 10
-701.511045221306
 20
213.9597412673521
 30
0.0
 10
-701.5098558908672
 20
213.9852817259068
 30
0.0
  0
SPLINE
  5
A1
330
1F
100
AcDbEntity
  8
0
  6
Continuous
 62
     7
370
    25
100
AcDbSpline
210
0.0
220
0.0
230
1.0
 70
     8
 71
     3
 72
    11
 73
     7
 74
     0
 42
0.00000001
 43
0.00000001
 40
0.0
 40
0.0
 40
0.0
 40
0.0
 40
0.2347233736739065
 40
0.4771583189289462
 40
0.7285562842029989
 40
1.0
 40
1.0
 40
1.0
 40
1.0
 10
-701.5098558908672
 20
213.9852817259068
 30
0.0
 10
-701.5113302015667
 20
214.0144225756142
 30
0.0
 10
-701.5143272597799
 20
214.0736616647638
 30
0.0
 10
-701.539658739853
 20
214.1610613177178
 30
0.0
 10
-701.5795079866966
 20
214.2475538877419
 30
0.0
 10
-701.6162706304018
 20
214.3010551533194
 30
0.0
 10
-701.6353566921507
 20
214.3288314053934
 30
0.0
  0
SPLINE
  5
A2
330
1F
100
AcDbEntity
  8
0
  6
Continuous
 62
     7
370
    25
100
AcDbSpline
210
0.0
220
0.0
230
1.0
 70
     8
 71
     3
 72
    15
 73
    11
 74
     0
 42
0.00000001
 43
0.00000001
 40
0.0
 40
0.0
 40
0.0
 40
0.0
 40
0.090279214650011
 40
0.1895299184469217
 40
0.2991978724002847
 40
0.418925886773847
 40
0.5483762854012789
 40
0.6881363695386913
 40
0.839083501658874
 40
1.0
 40
1.0
 40
1.0
 40
1.0
 10
-701.6353566921507
 20
214.3288314053934
 30
0.0
 10
-701.6510273063313
 20
214.3488782289967
 30
0.0
 10
-701.6839258006214
 20
214.3909640275648
 30
0.0
 10
-701.740483313215
 20
214.4536092630401
 30
0.0
 10
-701.8068494275202
 20
214.5182276819918
 30
0.0
 10
-701.8807529824326
 20
214.5872867389409
 30
0.0
 10
-701.9648860712734
 20
214.6575745356286
 30
0.0
 10
-702.0566135856767
 20
214.7324428135672
 30
0.0
 10
-702.1582774446432
 20
214.8090443906134
 30
0.0
 10
-702.2295769412614
 20
214.8604169561596
 30
0.0
 10
-702.2663663075377
 20
214.8869243541088
 30
0.0
  0
SPLINE
  5
A3
330
1F
100
AcDbEntity
  8
0
  6
Continuous
 62
     7
370
    25
100
AcDbSpline
210
0.0
220
0.0
230
1.0
 70
     8
 71
     3
 72
    15
 73
    11
 74
     0
 42
0.00000001
 43
0.00000001
 40
0.0
 40
0.0
 40
0.0
 40
0.0
 40
0.1815353013762246
 40
0.3470816724816324
 40
0.4955678164315084
 40
0.6283573018771881
 40
0.7455196699921489
 40
0.8458307507576434
 40
0.930781807384778
 40
1.0
 40
1.0
 40
1.0
 40
1.0
 10
-702.2663663075377
 20
214.8869243541088
 30
0.0
 10
-702.3031903037169
 20
214.913152941728
 30
0.0
 10
-702.3735949802972
 20
214.9633000039725
 30
0.0
 10
-702.4720535626435
 20
215.0377242879856
 30
0.0
 10
-702.5600980256543
 20
215.1057681575274
 30
0.0
 10
-702.6373370421778
 20
215.1680721696294
 30
0.0
 10
-702.7037366390239
 20
215.2246447743591
 30
0.0
 10
-702.7598200500383
 20
215.2749427135009
 30
0.0
 10
-702.8041586071341
 20
215.3203262743692
 30
0.0
 10
-702.8288141877927
 20
215.3497676161142
 30
0.0
 10
-702.8398839357448
 20
215.3629860528244
 30
0.0
  0
SPLINE
  5
A4
330
1F
100
AcDbEntity
  8
0
  6
Continuous
 62
     7
370
    25
100
AcDbSpline
210
0.0
220
0.0
230
1.0
 70
     8
 71
     3
 72
    15
 73
    11
 74
     0
 42
0.00000001
 43
0.00000001
 40
0.0
 40
0.0
 40
0.0
 40
0.0
 40
0.1335067689984883
 40
0.2625589787304186
 40
0.3882644471488892
 40
0.5126673546814633
 40
0.63372226996576
 40
0.7553938601370789
 40
0.877552945091267
 40
1.0
 40
1.0
 40
1.0
 40
1.0
 10
-702.8398839357448
 20
215.3629860528244
 30
0.0
 10
-702.8553564809758
 20
215.3835870896785
 30
0.0
 10
-702.8857853176912
 20
215.4241017934481
 30
0.0
 10
-702.9259513231567
 20
215.4874266512156
 30
0.0
 10
-702.9600904859554
 20
215.5522499166247
 30
0.0
 10
-702.9868528180921
 20
215.6187457811892
 30
0.0
 10
-703.0093890369317
 20
215.6859807100697
 30
0.0
 10
-703.0245469676498
 20
215.7548319557692
 30
0.0
 10
-703.0340383645657
 20
215.8249905742337
 30
0.0
 10
-703.0350103510991
 20
215.8722040748562
 30
0.0
 10
-703.0354969165161
 20
215.8958386169261
 30
0.0
  0
SPLINE
  5
A5
330
1F
100
AcDbEntity
  8
0
  6
Continuous
 62
     7
370
    25
100
AcDbSpline
210
0.0
220
0.0
230
1.0
 70
     8
 71
     3
 72
    19
 73
    15
 74
     0
 42
0.00000001
 43
0.00000001
 40
0.0
 40
0.0
 40
0.0
 40
0.0
 40
0.083785370653701
 40
0.1657798879221348
 40
0.2462800078932425
 40
0.3274609277364091
 40
0.4087969540320607
 40
0.4897152412309844
 40
0.5713760321300352
 40
0.655523321111261
 40
0.7410194827999483
 40
0.8265467605037545
 40
0.9119888516548199
 40
1.0
 40
1.0
 40
1.0
 40
1.0
 10
-703.0354969165161
 20
215.8958386169261
 30
0.0
 10
-703.034191707523
 20
215.9328683914909
 30
0.0
 10
-703.0316091874611
 20
216.0061364552259
 30
0.0
 10
-703.0097686701909
 20
216.113167285668
 30
0.0
 10
-702.9752957765372
 20
216.2153537028858
 30
0.0
 10
-702.9270008886756
 20
216.3116840366107
 30
0.0
 10
-702.8647435357578
 20
216.3996500174991
 30
0.0
 10
-702.7926975613929
 20
216.4802635044815
 30
0.0
 10
-702.7068860751558
 20
216.5480320867027
 30
0.0
 10
-702.6127334518927
 20
216.6072441450924
 30
0.0
 10
-702.50967707981
 20
216.6535900702998
 30
0.0
 10
-702.4016861764127
 20
216.6885510504607
 30
0.0
 10
-702.2885891043874
 20
216.7083603081522
 30
0.0
 10
-702.2119859697642
 20
216.7112030730651
 30
0.0
 10
-702.1731171088272
 20
216.7126455079554
 30
0.0
  0
SPLINE
  5
A6
330
1F
100
AcDbEntity
  8
0
  6
Continuous
 62
     7
370
    25
100
AcDbSpline
210
0.0
220
0.0
230
1.0
 70
     8
 71
     3
 72
    19
 73
    15
 74
     0
 42
0.00000001
 43
0.00000001
 40
0.0
 40
0.0
 40
0.0
 40
0.0
 40
0.1072327993600579
 40
0.2132518127818112
 40
0.318830447307527
 40
0.4267935306342161
 40
0.4836459507826633
 40
0.543603822021089
 40
0.6083076495640821
 40
0.6771267602599848
 40
0.7506856360204527
 40
0.8287134184432401
 40
0.91219034822343
 40
1.0
 40
1.0
 40
1.0
 40
1.0
 10
-702.1731171088272
 20
216.7126455079554
 30
0.0
 10
-702.1318730085293
 20
216.7112229563563
 30
0.0
 10
-702.0498516567823
 20
216.708393955257
 30
0.0
 10
-701.9292024412129
 20
216.6837964239379
 30
0.0
 10
-701.8130417248118
 20
216.6430957521503
 30
0.0
 10
-701.7195984599921
 20
216.5969070941731
 30
0.0
 10
-701.6464656985303
 20
216.5507756784602
 30
0.0
 10
-701.590692965841
 20
216.5087558541815
 30
0.0
 10
-701.5341755150541
 20
216.4603807455776
 30
0.0
 10
-701.4764574602257
 20
216.405521499497
 30
0.0
 10
-701.4185168007858
 20
216.3436747484076
 30
0.0
 10
-701.3594933485416
 20
216.2752640594986
 30
0.0
 10
-701.2992490797305
 20
216.2007075036345
 30
0.0
 10
-701.2604932196064
 20
216.1474830028801
 30
0.0
 10
-701.2406251216452
 20
216.1201975912925
 30
0.0
  0
LINE
  5
A7
330
1F
100
AcDbEntity
  8
0
  6
Continuous
 62
     7
370
    25
100
AcDbLine
 10
-701.2406251216
 20
216.1201975913
 30
0.0
 11
-701.5245794486
 21
215.9049532003
 31
0.0
  0
SPLINE
  5
A8
330
1F
100
AcDbEntity
  8
0
  6
Continuous
 62
     7
370
    25
100
AcDbSpline
210
0.0
220
0.0
230
1.0
 70
     8
 71
     3
 72
    19
 73
    15
 74
     0
 42
0.00000001
 43
0.00000001
 40
0.0
 40
0.0
 40
0.0
 40
0.0
 40
0.0984694310255906
 40
0.1896291011376553
 40
0.2741840894379896
 40
0.3521831609672161
 40
0.4231988731834612
 40
0.4885509460005021
 40
0.5484733460279585
 40
0.60144016361793
 40
0.7011980824257902
 40
0.7995918021381554
 40
0.8985450984822293
 40
1.0
 40
1.0
 40
1.0
 40
1.0
 10
-701.5245794485675
 20
215.9049532002657
 30
0.0
 10
-701.54172538104
 20
215.9270418906883
 30
0.0
 10
-701.5747444381124
 20
215.9695795439123
 30
0.0
 10
-701.6248739249729
 20
216.0291508595184
 30
0.0
 10
-701.6721225728934
 20
216.0835673390501
 30
0.0
 10
-701.7186729726778
 20
216.13083246708
 30
0.0
 10
-701.7620666041439
 20
216.1735346004176
 30
0.0
 10
-701.8041836463908
 20
216.2100943572419
 30
0.0
 10
-701.8444179976286
 20
216.2408699526719
 30
0.0
 10
-701.8951349082745
 20
216.2737135126307
 30
0.0
 10
-701.9588526265982
 20
216.3062700161853
 30
0.0
 10
-702.0388371628374
 20
216.3338190942627
 30
0.0
 10
-702.1224234378726
 20
216.3503741561811
 30
0.0
 10
-702.1793530693632
 20
216.3525630437487
 30
0.0
 10
-702.2081731985693
 20
216.3536711489808
 30
0.0
  0
SPLINE
  5
A9
330
1F
100
AcDbEntity
  8
0
  6
Continuous
 62
     7
370
    25
100
AcDbSpline
210
0.0
220
0.0
230
1.0
 70
     8
 71
     3
 72
    15
 73
    11
 74
     0
 42
0.00000001
 43
0.00000001
 40
0.0
 40
0.0
 40
0.0
 40
0.0
 40
0.1430730837303962
 40
0.2759029640930407
 40
0.4023708562740075
 40
0.5284136450936298
 40
0.6503563791869279
 40
0.7658950861246695
 40
0.8807741308440222
 40
1.0
 40
1.0
 40
1.0
 40
1.0
 10
-702.2081731985694
 20
216.3536711489809
 30
0.0
 10
-702.244329720975
 20
216.3524594490288
 30
0.0
 10
-702.3140541683892
 20
216.3501227998168
 30
0.0
 10
-702.4130444044965
 20
216.3246028145247
 30
0.0
 10
-702.5021383295594
 20
216.2844209542184
 30
0.0
 10
-702.5786908946155
 20
216.2281059761226
 30
0.0
 10
-702.6424278716586
 20
216.1613849834372
 30
0.0
 10
-702.6885333304228
 20
216.084606128362
 30
0.0
 10
-702.7162834949747
 20
215.9998237257574
 30
0.0
 10
-702.7196697746255
 20
215.9406820694256
 30
0.0
 10
-702.7213943524135
 20
215.9105621746197
 30
0.0
  0
SPLINE
  5
AA
330
1F
100
AcDbEntity
  8
0
  6
Continuous
 62
     7
370
    25
100
AcDbSpline
210
0.0
220
0.0
230
1.0
 70
     8
 71
     3
 72
    15
 73
    11
 74
     0
 42
0.00000001
 43
0.00000001
 40
0.0
 40
0.0
 40
0.0
 40
0.0
 40
0.1072852142689188
 40
0.2147458609695994
 40
0.322938559555301
 40
0.4341161625173829
 40
0.5534123109627421
 40
0.6860729848107234
 40
0.8342559920595665
 40
1.0
 40
1.0
 40
1.0
 40
1.0
 10
-702.7213943524137
 20
215.9105621746198
 30
0.0
 10
-702.7210012257788
 20
215.8918106960793
 30
0.0
 10
-702.7202143296693
 20
215.854277076642
 30
0.0
 10
-702.7092395319828
 20
215.798825654688
 30
0.0
 10
-702.6951402030243
 20
215.7435143152695
 30
0.0
 10
-702.6727975712712
 20
215.6885917324354
 30
0.0
 10
-702.6419522676549
 20
215.6330973733832
 30
0.0
 10
-702.6014470917484
 20
215.5760756358248
 30
0.0
 10
-702.5504337796981
 20
215.5170239271529
 30
0.0
 10
-702.5113567673465
 20
215.4786165533782
 30
0.0
 10
-702.4907252818989
 20
215.4583386169284
 30
0.0
  0
SPLINE
  5
AB
330
1F
100
AcDbEntity
  8
0
  6
Continuous
 62
     7
370
    25
100
AcDbSpline
210
0.0
220
0.0
230
1.0
 70
     8
 71
     3
 72
    15
 73
    11
 74
     0
 42
0.00000001
 43
0.00000001
 40
0.0
 40
0.0
 40
0.0
 40
0.0
 40
0.0525942815290865
 40
0.1249519739750057
 40
0.2180938989284878
 40
0.3335024107324944
 40
0.4687891785044511
 40
0.6249375859644809
 40
0.8016830479282436
 40
1.0
 40
1.0
 40
1.0
 40
1.0
 10
-702.490725281899
 20
215.4583386169284
 30
0.0
 10
-702.4830639094912
 20
215.4515015911126
 30
0.0
 10
-702.4648622423542
 20
215.4352583827834
 30
0.0
 10
-702.4315863166145
 20
215.4086661021399
 30
0.0
 10
-702.3876435183844
 20
215.3758633298446
 30
0.0
 10
-702.3341813172076
 20
215.3352760133702
 30
0.0
 10
-702.27021395548
 20
215.2881945512532
 30
0.0
 10
-702.1957343993354
 20
215.2352209390896
 30
0.0
 10
-702.1115728665
 20
215.1746354800831
 30
0.0
 10
-702.0518509506005
 20
215.1322779394735
 30
0.0
 10
-702.0202725575385
 20
215.109881084879
 30
0.0
  0
SPLINE
  5
AC
330
1F
100
AcDbEntity
  8
0
  6
Continuous
 62
     7
370
    25
100
AcDbSpline
210
0.0
220
0.0
230
1.0
 70
     8
 71
     3
 72
    19
 73
    15
 74
     0
 42
0.00000001
 43
0.00000001
 40
0.0
 40
0.0
 40
0.0
 40
0.0
 40
0.0969723103814685
 40
0.1877734389628516
 40
0.2723961390136792
 40
0.3513209973752933
 40
0.4243347744514498
 40
0.4919087840005041
 40
0.5542332197967718
 40
0.6112676582441589
 40
0.7163478449915245
 40
0.8145400858216082
 40
0.9084954561491739
 40
1.0
 40
1.0
 40
1.0
 40
1.0
 10
-702.0202725575385
 20
215.109881084879
 30
0.0
 10
-701.9822866442312
 20
215.0822397253295
 30
0.0
 10
-701.9087321878525
 20
215.0287160635769
 30
0.0
 10
-701.8040746079402
 20
214.9483003835498
 30
0.0
 10
-701.7091807998454
 20
214.8696526149759
 30
0.0
 10
-701.6237175962749
 20
214.7932750078803
 30
0.0
 10
-701.5468406878346
 20
214.7197469148768
 30
0.0
 10
-701.4794029671597
 20
214.6481837345469
 30
0.0
 10
-701.4207172868122
 20
214.5790981618649
 30
0.0
 10
-701.3575380683516
 20
214.4905255861741
 30
0.0
 10
-701.2929802488309
 20
214.3817445019
 30
0.0
 10
-701.2375387414037
 20
214.2484662633549
 30
0.0
 10
-701.202580393949
 20
214.1146699428581
 30
0.0
 10
-701.1980088785167
 20
214.024743106383
 30
0.0
 10
-701.1957533267647
 20
213.9803738733439
 30
0.0
  0
SPLINE
  5
AD
330
1F
100
AcDbEntity
  8
0
  6
Continuous
 62
     7
370
    25
100
AcDbSpline
210
0.0
220
0.0
230
1.0
 70
     8
 71
     3
 72
    19
 73
    15
 74
     0
 42
0.00000001
 43
0.00000001
 40
0.0
 40
0.0
 40
0.0
 40
0.0
 40
0.0523530671177362
 40
0.1061119554515362
 40
0.1615166942712058
 40
0.2187265613161753
 40
0.2774806080070795
 40
0.3381192530403465
 40
0.4002994607098943
 40
0.4644376463216988
 40
0.595319838264727
 40
0.728174328394641
 40
0.8629619122356397
 40
1.0
 40
1.0
 40
1.0
 40
1.0
 10
-704.0675481985519
 20
212.1357224310245
 30
0.0
 10
-704.0827144751879
 20
212.1713935139078
 30
0.0
 10
-704.1134542839399
 20
212.2436935445693
 30
0.0
 10
-704.1563234831467
 20
212.3553596544112
 30
0.0
 10
-704.1960938594319
 20
212.4719587426032
 30
0.0
 10
-704.2338520586146
 20
212.5930958366265
 30
0.0
 10
-704.2696418683774
 20
212.7188614439489
 30
0.0
 10
-704.303363137822
 20
212.8490092209357
 30
0.0
 10
-704.3340075636002
 20
212.9840023602766
 30
0.0
 10
-704.3726930185475
 20
213.1704627329748
 30
0.0
 10
-704.412142628481
 20
213.4100999805754
 30
0.0
 10
-704.4465347203212
 20
213.7032212014308
 30
0.0
 10
-704.4672382053611
 20
214.002276292786
 30
0.0
 10
-704.4700013445148
 20
214.2035321933585
 30
0.0
 10
-704.471394352407
 20
214.3049932643561
 30
0.0
  0
SPLINE
  5
AE
330
1F
100
AcDbEntity
  8
0
  6
Continuous
 62
     7
370
    25
100
AcDbSpline
210
0.0
220
0.0
230
1.0
 70
     8
 71
     3
 72
    15
 73
    11
 74
     0
 42
0.00000001
 43
0.00000001
 40
0.0
 40
0.0
 40
0.0
 40
0.0
 40
0.1316635401676681
 40
0.2621363519885702
 40
0.3907763861943946
 40
0.5186316602317924
 40
0.6439816529266852
 40
0.7659180072706725
 40
0.8844344655790424
 40
1.0
 40
1.0
 40
1.0
 40
1.0
 10
-704.471394352407
 20
214.3049932643561
 30
0.0
 10
-704.4702493458519
 20
214.4146318048909
 30
0.0
 10
-704.467969687862
 20
214.6329173455693
 30
0.0
 10
-704.4475820787275
 20
214.9577948331259
 30
0.0
 10
-704.4154149319132
 20
215.2784540549151
 30
0.0
 10
-704.370957911672
 20
215.59337144888
 30
0.0
 10
-704.3137029745259
 20
215.9005506181821
 30
0.0
 10
-704.2443758964008
 20
216.1972274032094
 30
0.0
 10
-704.1636530762115
 20
216.4826484282931
 30
0.0
 10
-704.0993127920044
 20
216.6666676158811
 30
0.0
 10
-704.0675481985709
 20
216.7575173028193
 30
0.0
  0
LINE
  5
AF
330
1F
100
AcDbEntity
  8
0
  6
Continuous
 62
     7
370
    25
100
AcDbLine
 10
-704.0675481986
 20
216.7575173028
 30
0.0
 11
-703.6637020447
 21
216.7575173028
 31
0.0
  0
SPLINE
  5
B0
330
1F
100
AcDbEntity
  8
0
  6
Continuous
 62
     7
370
    25
100
AcDbSpline
210
0.0
220
0.0
230
1.0
 70
     8
 71
     3
 72
    19
 73
    15
 74
     0
 42
0.00000001
 43
0.00000001
 40
0.0
 40
0.0
 40
0.0
 40
0.0
 40
0.0534734048882139
 40
0.1085770734678661
 40
0.1648468274732842
 40
0.2225083918969363
 40
0.2821491525547333
 40
0.3432886484172121
 40
0.4057794995672453
 40
0.4702107049830131
 40
0.6009371765616671
 40
0.7322840057172995
 40
0.8654664463290996
 40
1.0
 40
1.0
 40
1.0
 40
1.0
 10
-703.6637020447247
 20
216.757517302821
 30
0.0
 10
-703.6822507214922
 20
216.7174592841242
 30
0.0
 10
-703.7199135754728
 20
216.6361219829347
 30
0.0
 10
-703.7710951270282
 20
216.5100097819082
 30
0.0
 10
-703.8207217318203
 20
216.3795810029819
 30
0.0
 10
-703.8656719327932
 20
216.2435206355472
 30
0.0
 10
-703.9104014361753
 20
216.1031718949593
 30
0.0
 10
-703.9505473242662
 20
215.9572892211163
 30
0.0
 10
-703.9886850646907
 20
215.8068069736545
 30
0.0
 10
-704.0353135147318
 20
215.599293005134
 30
0.0
 10
-704.0845922627103
 20
215.3341902237213
 30
0.0
 10
-704.1264997028079
 20
215.010514387563
 30
0.0
 10
-704.1524907507362
 20
214.6819247684564
 30
0.0
 10
-704.1556860670585
 20
214.4609234132796
 30
0.0
 10
-704.1572917883046
 20
214.3498650592292
 30
0.0
  0
SPLINE
  5
B1
330
1F
100
AcDbEntity
  8
0
  6
Continuous
 62
     7
370
    25
100
AcDbSpline
210
0.0
220
0.0
230
1.0
 70
     8
 71
     3
 72
    15
 73
    11
 74
     0
 42
0.00000001
 43
0.00000001
 40
0.0
 40
0.0
 40
0.0
 40
0.0
 40
0.135929830673231
 40
0.2699381231399023
 40
0.4017201704348952
 40
0.5321544769818372
 40
0.6583743039030743
 40
0.7781352299322042
 40
0.8919862038853374
 40
1.0
 40
1.0
 40
1.0
 40
1.0
 10
-704.1572917883046
 20
214.3498650592292
 30
0.0
 10
-704.1558291345591
 20
214.247239422271
 30
0.0
 10
-704.1529245035086
 20
214.0434388901188
 30
0.0
 10
-704.1332061622765
 20
213.7406398441068
 30
0.0
 10
-704.0994033213797
 20
213.44330946093
 30
0.0
 10
-704.0528163530525
 20
213.1536731441568
 30
0.0
 10
-703.994663244576
 20
212.8753634975039
 30
0.0
 10
-703.9249633609329
 20
212.6127107927557
 30
0.0
 10
-703.8470840983254
 20
212.3665896787486
 30
0.0
 10
-703.7841061470817
 20
212.2113164537405
 30
0.0
 10
-703.7534456344493
 20
212.1357224310258
 30
0.0
  0
LINE
  5
B2
330
1F
100
AcDbEntity
  8
0
  6
Continuous
 62
     7
370
    25
100
AcDbLine
 10
-703.7534456344
 20
212.135722431
 30
0.0
 11
-704.0675481986
 21
212.135722431
 31
0.0
  0
LINE
  5
B3
330
1F
100
AcDbEntity
  8
0
  6
Continuous
 62
     7
370
    25
100
AcDbLine
 10
-707.5675481986
 20
213.1229019182
 30
0.0
 11
-707.5675481986
 21
216.2639275592
 31
0.0
  0
LINE
  5
B4
330
1F
100
AcDbEntity
  8
0
  6
Continuous
 62
     7
370
    25
100
AcDbLine
 10
-707.5675481986
 20
216.2639275592
 30
0.0
 11
-708.3303687114
 21
216.2639275592
 31
0.0
  0
LINE
  5
B5
330
1F
100
AcDbEntity
  8
0
  6
Continuous
 62
     7
370
    25
100
AcDbLine
 10
-708.3303687114
 20
216.2639275592
 30
0.0
 11
-708.3303687114
 21
216.6229019182
 31
0.0
  0
LINE
  5
B6
330
1F
100
AcDbEntity
  8
0
  6
Continuous
 62
     7
370
    25
100
AcDbLine
 10
-708.3303687114
 20
216.6229019182
 30
0.0
 11
-706.4906251216
 21
216.6229019182
 31
0.0
  0
LINE
  5
B7
330
1F
100
AcDbEntity
  8
0
  6
Continuous
 62
     7
370
    25
100
AcDbLine
 10
-706.4906251216
 20
216.6229019182
 30
0.0
 11
-706.4906251216
 21
216.2639275592
 31
0.0
  0
LINE
  5
B8
330
1F
100
AcDbEntity
  8
0
  6
Continuous
 62
     7
370
    25
100
AcDbLine
 10
-706.4906251216
 20
216.2639275592
 30
0.0
 11
-707.2534456345
 21
216.2639275592
 31
0.0
  0
LINE
  5
B9
330
1F
100
AcDbEntity
  8
0
  6
Continuous
 62
     7
370
    25
100
AcDbLine
 10
-707.2534456345
 20
216.2639275592
 30
0.0
 11
-707.2534456345
 21
213.1229019182
 31
0.0
  0
LINE
  5
BA
330
1F
100
AcDbEntity
  8
0
  6
Continuous
 62
     7
370
    25
100
AcDbLine
 10
-707.2534456345
 20
213.1229019182
 30
0.0
 11
-707.5675481986
 21
213.1229019182
 31
0.0
  0
SPLINE
  5
BB
330
1F
100
AcDbEntity
  8
0
  6
Continuous
 62
     7
370
    25
100
AcDbSpline
210
0.0
220
0.0
230
1.0
 70
     8
 71
     3
 72
    15
 73
    11
 74
     0
 42
0.00000001
 43
0.00000001
 40
0.0
 40
0.0
 40
0.0
 40
0.0
 40
0.1289191318119478
 40
0.255237724924912
 40
0.378678595978525
 40
0.5010878871851031
 40
0.6227136794297573
 40
0.746240794938375
 40
0.8715890472316361
 40
1.0
 40
1.0
 40
1.0
 40
1.0
 10
-712.638061019074
 20
214.3947368540663
 30
0.0
 10
-712.6369377087206
 20
214.4375533999592
 30
0.0
 10
-712.6347137472729
 20
214.5223228023687
 30
0.0
 10
-712.618393238199
 20
214.6472498630198
 30
0.0
 10
-712.5910346817155
 20
214.7679472520847
 30
0.0
 10
-712.552303285261
 20
214.8838727280685
 30
0.0
 10
-712.5027880943704
 20
214.9956281641084
 30
0.0
 10
-712.4424268064263
 20
215.1030329950948
 30
0.0
 10
-712.3706361738866
 20
215.2060207955741
 30
0.0
 10
-712.3154342223544
 20
215.2697428756023
 30
0.0
 10
-712.2875001216419
 20
215.3019884566318
 30
0.0
  0
SPLINE
  5
BC
330
1F
100
AcDbEntity
  8
0
  6
Continuous
 62
     7
370
    25
100
AcDbSpline
210
0.0
220
0.0
230
1.0
 70
     8
 71
     3
 72
    15
 73
    11
 74
     0
 42
0.00000001
 43
0.00000001
 40
0.0
 40
0.0
 40
0.0
 40
0.0
 40
0.1284975211374564
 40
0.2527129855153959
 40
0.3748191325670379
 40
0.496436426372743
 40
0.61791055674579
 40
0.7412876173093149
 40
0.8687004007445702
 40
1.0
 40
1.0
 40
1.0
 40
1.0
 10
-712.2875001216419
 20
215.3019884566318
 30
0.0
 10
-712.2550515306161
 20
215.3359633958855
 30
0.0
 10
-712.1912356667665
 20
215.4027810920986
 30
0.0
 10
-712.0838869390387
 20
215.488313616186
 30
0.0
 10
-711.9713931179286
 20
215.5622296900472
 30
0.0
 10
-711.8516681917913
 20
215.6217059055004
 30
0.0
 10
-711.7259853338353
 20
215.6685444232273
 30
0.0
 10
-711.5937660913079
 20
215.7011099383427
 30
0.0
 10
-711.4554905758486
 20
215.7223632933124
 30
0.0
 10
-711.3609309547528
 20
215.7244214711181
 30
0.0
 10
-711.3129408267719
 20
215.7254660207384
 30
0.0
  0
SPLINE
  5
BD
330
1F
100
AcDbEntity
  8
0
  6
Continuous
 62
     7
370
    25
100
AcDbSpline
210
0.0
220
0.0
230
1.0
 70
     8
 71
     3
 72
    15
 73
    11
 74
     0
 42
0.00000001
 43
0.00000001
 40
0.0
 40
0.0
 40
0.0
 40
0.0
 40
0.131751427302342
 40
0.258332350514186
 40
0.3821339760925617
 40
0.5038043916001242
 40
0.6246929865409488
 40
0.7468705897275588
 40
0.8715135042347986
 40
1.0
 40
1.0
 40
1.0
 40
1.0
 10
-711.3129408267719
 20
215.7254660207384
 30
0.0
 10
-711.2649495539288
 20
215.7244441295998
 30
0.0
 10
-711.1708503963589
 20
215.7224404508144
 30
0.0
 10
-711.0330425104793
 20
215.7010254851623
 30
0.0
 10
-710.901497374543
 20
215.6682781207774
 30
0.0
 10
-710.7757111823793
 20
215.6230065587034
 30
0.0
 10
-710.6572948869263
 20
215.5623246081572
 30
0.0
 10
-710.5445236428179
 20
215.4899153170322
 30
0.0
 10
-710.4377066339327
 20
215.4041327234683
 30
0.0
 10
-710.3736836046754
 20
215.337774655094
 30
0.0
 10
-710.3411860190778
 20
215.3040918220244
 30
0.0
  0
SPLINE
  5
BE
330
1F
100
AcDbEntity
  8
0
  6
Continuous
 62
     7
370
    25
100
AcDbSpline
210
0.0
220
0.0
230
1.0
 70
     8
 71
     3
 72
    15
 73
    11
 74
     0
 42
0.00000001
 43
0.00000001
 40
0.0
 40
0.0
 40
0.0
 40
0.0
 40
0.1281572795931527
 40
0.2538343627967421
 40
0.3765056225222322
 40
0.4985336856679005
 40
0.6213677287324538
 40
0.7445647449043457
 40
0.8706337982552931
 40
1.0
 40
1.0
 40
1.0
 40
1.0
 10
-710.3411860190778
 20
215.3040918220244
 30
0.0
 10
-710.3132040650129
 20
215.2718778362351
 30
0.0
 10
-710.2577816847746
 20
215.20807329402
 30
0.0
 10
-710.1867159659845
 20
215.1046176810579
 30
0.0
 10
-710.1254944058271
 20
214.9974775804666
 30
0.0
 10
-710.0764314448397
 20
214.8852302537954
 30
0.0
 10
-710.037746421154
 20
214.7688555826421
 30
0.0
 10
-710.010280724898
 20
214.6479535714833
 30
0.0
 10
-709.9939437899573
 20
214.5227912243199
 30
0.0
 10
-709.9917408230153
 20
214.4377873862429
 30
0.0
 10
-709.9906251216381
 20
214.3947368540771
 30
0.0
  0
SPLINE
  5
BF
330
1F
100
AcDbEntity
  8
0
  6
Continuous
 62
     7
370
    25
100
AcDbSpline
210
0.0
220
0.0
230
1.0
 70
     8
 71
     3
 72
    23
 73
    19
 74
     0
 42
0.00000001
 43
0.00000001
 40
0.0
 40
0.0
 40
0.0
 40
0.0
 40
0.0624160261588258
 40
0.1233369785373313
 40
0.1832651398530981
 40
0.2431724430697138
 40
0.3028983539197553
 40
0.3637735975039206
 40
0.4256053049523929
 40
0.489659042510186
 40
0.5537845767921372
 40
0.6162215328110624
 40
0.6778544713083317
 40
0.7395168974879455
 40
0.8020965355763772
 40
0.8658658412779581
 40
0.9315077951965182
 40
1.0
 40
1.0
 40
1.0
 40
1.0
 10
-709.9906251216381
 20
214.3947368540771
 30
0.0
 10
-709.9916064589559
 20
214.3514367963994
 30
0.0
 10
-709.9935456272617
 20
214.2658738630772
 30
0.0
 10
-710.0118892436523
 20
214.1398544972888
 30
0.0
 10
-710.0404203295291
 20
214.0176596746032
 30
0.0
 10
-710.0812521677074
 20
213.8998009808504
 30
0.0
 10
-710.1336102769709
 20
213.785918153439
 30
0.0
 10
-710.1975009645037
 20
213.6765086041497
 30
0.0
 10
-710.273372581655
 20
213.5713564708763
 30
0.0
 10
-710.3593765784129
 20
213.4713546326236
 30
0.0
 10
-710.4544284545639
 20
213.3791884178296
 30
0.0
 10
-710.5575446028828
 20
213.298860148276
 30
0.0
 10
-710.6666986366331
 20
213.230038623907
 30
0.0
 10
-710.7833419899077
 20
213.1746022082919
 30
0.0
 10
-710.9064094767394
 20
213.1308925079798
 30
0.0
 10
-711.0361665448443
 20
213.1001924915489
 30
0.0
 10
-711.1724116151577
 20
213.081630807772
 30
0.0
 10
-711.2654388365236
 20
213.0792472345106
 30
0.0
 10
-711.312940826761
 20
213.0780301233025
 30
0.0
  0
SPLINE
  5
C0
330
1F
100
AcDbEntity
  8
0
  6
Continuous
 62
     7
370
    25
100
AcDbSpline
210
0.0
220
0.0
230
1.0
 70
     8
 71
     3
 72
    23
 73
    19
 74
     0
 42
0.00000001
 43
0.00000001
 40
0.0
 40
0.0
 40
0.0
 40
0.0
 40
0.0687422616055208
 40
0.1346351922242616
 40
0.198324187067164
 40
0.2608250125604353
 40
0.3227135881590438
 40
0.3845545346076258
 40
0.4469128577247728
 40
0.5109576325148255
 40
0.5749307010013571
 40
0.6366845377960832
 40
0.6974831152940512
 40
0.7571338075238482
 40
0.8169656636752732
 40
0.8768183516571965
 40
0.937662580383996
 40
1.0
 40
1.0
 40
1.0
 40
1.0
 10
-711.312940826761
 20
213.0780301233025
 30
0.0
 10
-711.36067554627
 20
213.07925131952
 30
0.0
 10
-711.4541664059938
 20
213.081643094007
 30
0.0
 10
-711.590892387917
 20
213.100120376736
 30
0.0
 10
-711.7208820068522
 20
213.1308783593049
 30
0.0
 10
-711.8441106053715
 20
213.1747458520344
 30
0.0
 10
-711.9612554523269
 20
213.2300403957834
 30
0.0
 10
-712.0710419492772
 20
213.2986520853612
 30
0.0
 10
-712.1742418647929
 20
213.3792122405991
 30
0.0
 10
-712.269313849209
 20
213.4713481776486
 30
0.0
 10
-712.3553124545358
 20
213.5713581339758
 30
0.0
 10
-712.4311854628875
 20
213.6765081724692
 30
0.0
 10
-712.4950757890377
 20
213.785918265906
 30
0.0
 10
-712.5474339929203
 20
213.8998009508466
 30
0.0
 10
-712.5882658058393
 20
214.0176596826354
 30
0.0
 10
-712.6167968985076
 20
214.1398544950951
 30
0.0
 10
-712.6351405130744
 20
214.2658738636318
 30
0.0
 10
-712.6370796816299
 20
214.3514367965785
 30
0.0
 10
-712.638061019074
 20
214.3947368540663
 30
0.0
  0
LINE
  5
C1
330
1F
100
AcDbEntity
  8
0
  6
Continuous
 62
     7
370
    25
100
AcDbLine
 10
-715.5547276857
 20
212.1805942258
 30
0.0
 11
-715.8688302498
 21
212.1805942258
 31
0.0
  0
LINE
  5
C2
330
1F
100
AcDbEntity
  8
0
  6
Continuous
 62
     7
370
    25
100
AcDbLine
 10
-715.8688302498
 20
212.1805942258
 30
0.0
 11
-715.8688302498
 21
215.6805942258
 31
0.0
  0
LINE
  5
C3
330
1F
100
AcDbEntity
  8
0
  6
Continuous
 62
     7
370
    25
100
AcDbLine
 10
-715.8688302498
 20
215.6805942258
 30
0.0
 11
-715.5547276857
 21
215.6805942258
 31
0.0
  0
LINE
  5
C4
330
1F
100
AcDbEntity
  8
0
  6
Continuous
 62
     7
370
    25
100
AcDbLine
 10
-715.5547276857
 20
215.6805942258
 30
0.0
 11
-715.5547276857
 21
215.2073370143
 31
0.0
  0
SPLINE
  5
C5
330
1F
100
AcDbEntity
  8
0
  6
Continuous
 62
     7
370
    25
100
AcDbSpline
210
0.0
220
0.0
230
1.0
 70
     8
 71
     3
 72
    15
 73
    11
 74
     0
 42
0.00000001
 43
0.00000001
 40
0.0
 40
0.0
 40
0.0
 40
0.0
 40
0.1353597999413011
 40
0.2630446827611316
 40
0.3860610822643729
 40
0.5057706525454756
 40
0.6251780311387264
 40
0.7461477220466151
 40
0.8705380668996942
 40
1.0
 40
1.0
 40
1.0
 40
1.0
 10
-715.5547276857443
 20
215.2073370143108
 30
0.0
 10
-715.5213702016928
 20
215.2502747481295
 30
0.0
 10
-715.4565466069931
 20
215.3337156410366
 30
0.0
 10
-715.3448217021285
 20
215.4417057696242
 30
0.0
 10
-715.2268948932128
 20
215.5327810732707
 30
0.0
 10
-715.0997314807108
 20
215.6041636062562
 30
0.0
 10
-714.9653077906968
 20
215.6579844181693
 30
0.0
 10
-714.8241754732484
 20
215.6977638680555
 30
0.0
 10
-714.675136708368
 20
215.7212053426592
 30
0.0
 10
-714.5732402556881
 20
215.7240270038486
 30
0.0
 10
-714.5212741601055
 20
215.7254660207252
 30
0.0
  0
SPLINE
  5
C6
330
1F
100
AcDbEntity
  8
0
  6
Continuous
 62
     7
370
    25
100
AcDbSpline
210
0.0
220
0.0
230
1.0
 70
     8
 71
     3
 72
    23
 73
    19
 74
     0
 42
0.00000001
 43
0.00000001
 40
0.0
 40
0.0
 40
0.0
 40
0.0
 40
0.065081017775036
 40
0.128636050563068
 40
0.1906529019116648
 40
0.2521250372681038
 40
0.3134462756463772
 40
0.3752272792334042
 40
0.4384980827328616
 40
0.5032850999340267
 40
0.5680096868463845
 40
0.6308789816949664
 40
0.6921535040082804
 40
0.7525521497156172
 40
0.8131910939047703
 40
0.8739853995183271
 40
0.9362579468344636
 40
1.0
 40
1.0
 40
1.0
 40
1.0
 10
-714.5212741601055
 20
215.7254660207252
 30
0.0
 10
-714.4758825569082
 20
215.7241528418338
 30
0.0
 10
-714.3861636686112
 20
215.7215572747688
 30
0.0
 10
-714.2541004396817
 20
215.703984220202
 30
0.0
 10
-714.1269250561567
 20
215.6738665277697
 30
0.0
 10
-714.00535700218
 20
215.6304656124054
 30
0.0
 10
-713.8880939369938
 20
215.5768101424709
 30
0.0
 10
-713.7768718371578
 20
215.5090931068942
 30
0.0
 10
-713.669958281529
 20
215.4306869161028
 30
0.0
 10
-713.5700420924254
 20
215.3404547652824
 30
0.0
 10
-713.4777207248989
 20
215.242826498865
 30
0.0
 10
-713.3978745437807
 20
215.1378041947316
 30
0.0
 10
-713.3290026394657
 20
215.0288416083329
 30
0.0
 10
-713.2733323430024
 20
214.9142495161077
 30
0.0
 10
-713.229723995587
 20
214.7949302862711
 30
0.0
 10
-713.1987093179479
 20
214.6704018453618
 30
0.0
 10
-713.1802516744614
 20
214.5411259049191
 30
0.0
 10
-713.1777752228037
 20
214.4532231843537
 30
0.0
 10
-713.1765225575359
 20
214.4087592899615
 30
0.0
  0
SPLINE
  5
C7
330
1F
100
AcDbEntity
  8
0
  6
Continuous
 62
     7
370
    25
100
AcDbSpline
210
0.0
220
0.0
230
1.0
 70
     8
 71
     3
 72
    23
 73
    19
 74
     0
 42
0.00000001
 43
0.00000001
 40
0.0
 40
0.0
 40
0.0
 40
0.0
 40
0.0649212959378758
 40
0.128034164391123
 40
0.1895737254178835
 40
0.2505798347323966
 40
0.3117332213636462
 40
0.3732500799286441
 40
0.4357625163356331
 40
0.5003455613741097
 40
0.5649493665465359
 40
0.6275279092682936
 40
0.6891572899131503
 40
0.7498650117127016
 40
0.8107601999033559
 40
0.8722997609301256
 40
0.9354126293833691
 40
1.0
 40
1.0
 40
1.0
 40
1.0
 10
-713.1765225575359
 20
214.4087592899615
 30
0.0
 10
-713.1777480430954
 20
214.3633569814083
 30
0.0
 10
-713.1801648774688
 20
214.2738170769277
 30
0.0
 10
-713.1989098834099
 20
214.1423299796853
 30
0.0
 10
-713.2288667575394
 20
214.0158426058572
 30
0.0
 10
-713.2719249406647
 20
213.8945653422839
 30
0.0
 10
-713.3275664290163
 20
213.7785816909909
 30
0.0
 10
-713.3952709893789
 20
213.6679752949408
 30
0.0
 10
-713.4751574564874
 20
213.5627815917903
 30
0.0
 10
-713.5664585841985
 20
213.4644286916895
 30
0.0
 10
-713.6655115202556
 20
213.3738293787946
 30
0.0
 10
-713.7713890097522
 20
213.2945913091799
 30
0.0
 10
-713.8824479352944
 20
213.2280499338866
 30
0.0
 10
-713.9981201024303
 20
213.1724669743179
 30
0.0
 10
-714.1193957409344
 20
213.1305747902485
 30
0.0
 10
-714.2457090186354
 20
213.1003569896236
 30
0.0
 10
-714.3769911651325
 20
213.0817224938884
 30
0.0
 10
-714.466292317125
 20
213.0792703514493
 30
0.0
 10
-714.5114584549664
 20
213.0780301232894
 30
0.0
  0
SPLINE
  5
C8
330
1F
100
AcDbEntity
  8
0
  6
Continuous
 62
     7
370
    25
100
AcDbSpline
210
0.0
220
0.0
230
1.0
 70
     8
 71
     3
 72
    15
 73
    11
 74
     0
 42
0.00000001
 43
0.00000001
 40
0.0
 40
0.0
 40
0.0
 40
0.0
 40
0.1268408077972287
 40
0.2505477821576403
 40
0.3712302035653056
 40
0.4921157704266854
 40
0.613400987998621
 40
0.7379973201236407
 40
0.8661319098407545
 40
0.9999999999999999
 40
0.9999999999999999
 40
0.9999999999999999
 40
0.9999999999999999
 10
-714.5114584549664
 20
213.0780301232894
 30
0.0
 10
-714.5622860269161
 20
213.0793249310028
 30
0.0
 10
-714.6626853829725
 20
213.0818825558443
 30
0.0
 10
-714.8094830533853
 20
213.1078019658989
 30
0.0
 10
-714.950759905296
 20
213.1465389015582
 30
0.0
 10
-715.0849507300276
 20
213.2032378951931
 30
0.0
 10
-715.2131185425513
 20
213.2754934110523
 30
0.0
 10
-715.3345383483133
 20
213.3636036170272
 30
0.0
 10
-715.4498551012176
 20
213.4673842417642
 30
0.0
 10
-715.519263858493
 20
213.546116057926
 30
0.0
 10
-715.5547276857377
 20
213.5863434245672
 30
0.0
  0
LINE
  5
C9
330
1F
100
AcDbEntity
  8
0
  6
Continuous
 62
     7
370
    25
100
AcDbLine
 10
-715.5547276857
 20
213.5863434246
 30
0.0
 11
-715.5547276857
 21
212.1805942258
 31
0.0
  0
LINE
  5
CA
330
1F
100
AcDbEntity
  8
0
  6
Continuous
 62
     7
370
    25
100
AcDbLine
 10
-716.6316507627
 20
213.1229019182
 30
0.0
 11
-716.9457533268
 21
213.1229019182
 31
0.0
  0
LINE
  5
CB
330
1F
100
AcDbEntity
  8
0
  6
Continuous
 62
     7
370
    25
100
AcDbLine
 10
-716.9457533268
 20
213.1229019182
 30
0.0
 11
-716.9457533268
 21
215.6805942258
 31
0.0
  0
LINE
  5
CC
330
1F
100
AcDbEntity
  8
0
  6
Continuous
 62
     7
370
    25
100
AcDbLine
 10
-716.9457533268
 20
215.6805942258
 30
0.0
 11
-716.6316507627
 21
215.6805942258
 31
0.0
  0
LINE
  5
CD
330
1F
100
AcDbEntity
  8
0
  6
Continuous
 62
     7
370
    25
100
AcDbLine
 10
-716.6316507627
 20
215.6805942258
 30
0.0
 11
-716.6316507627
 21
213.1229019182
 31
0.0
  0
SPLINE
  5
CE
330
1F
100
AcDbEntity
  8
0
  6
Continuous
 62
     7
370
    25
100
AcDbSpline
210
0.0
220
0.0
230
1.0
 70
     8
 71
     3
 72
    15
 73
    11
 74
     0
 42
0.00000001
 43
0.00000001
 40
0.0
 40
0.0
 40
0.0
 40
0.0
 40
0.1318667517024138
 40
0.2566614034534653
 40
0.3842132129426141
 40
0.5133652331526547
 40
0.640443151825422
 40
0.7610850047779368
 40
0.8791455246531746
 40
0.9999999999999999
 40
0.9999999999999999
 40
0.9999999999999999
 40
0.9999999999999999
 10
-716.7901042883122
 20
216.2190557643057
 30
0.0
 10
-716.8093725634792
 20
216.2199254845274
 30
0.0
 10
-716.846875743641
 20
216.2216182813075
 30
0.0
 10
-716.9012425859826
 20
216.2371882990435
 30
0.0
 10
-716.9510710753764
 20
216.2626043721439
 30
0.0
 10
-716.9957357480348
 20
216.2968305572388
 30
0.0
 10
-717.032965941167
 20
216.3377754544685
 30
0.0
 10
-717.0600642665639
 20
216.3841027483253
 30
0.0
 10
-717.0771392284497
 20
216.4343119029434
 30
0.0
 10
-717.0792838570645
 20
216.4692240692525
 30
0.0
 10
-717.0803687113904
 20
216.4868842899455
 30
0.0
  0
SPLINE
  5
CF
330
1F
100
AcDbEntity
  8
0
  6
Continuous
 62
     7
370
    25
100
AcDbSpline
210
0.0
220
0.0
230
1.0
 70
     8
 71
     3
 72
    15
 73
    11
 74
     0
 42
0.00000001
 43
0.00000001
 40
0.0
 40
0.0
 40
0.0
 40
0.0
 40
0.1232898687278353
 40
0.2421490813339633
 40
0.3634374760537359
 40
0.4897453933413352
 40
0.6181148445929161
 40
0.7448937812571627
 40
0.868932266589111
 40
1.0
 40
1.0
 40
1.0
 40
1.0
 10
-717.0803687113904
 20
216.4868842899455
 30
0.0
 10
-717.0793076247737
 20
216.5050151395483
 30
0.0
 10
-717.0772235837073
 20
216.5406252721602
 30
0.0
 10
-717.0600514675691
 20
216.5917203050759
 30
0.0
 10
-717.0331916598074
 20
216.6387018068792
 30
0.0
 10
-716.9957110962742
 20
216.6797273063054
 30
0.0
 10
-716.9510776360039
 20
216.7139727410746
 30
0.0
 10
-716.9012408908372
 20
216.7393837225769
 30
0.0
 10
-716.846876191459
 20
216.7549550619475
 30
0.0
 10
-716.8093727154705
 20
216.7566476762821
 30
0.0
 10
-716.7901042883145
 20
216.7575173027672
 30
0.0
  0
SPLINE
  5
D0
330
1F
100
AcDbEntity
  8
0
  6
Continuous
 62
     7
370
    25
100
AcDbSpline
210
0.0
220
0.0
230
1.0
 70
     8
 71
     3
 72
    15
 73
    11
 74
     0
 42
0.00000001
 43
0.00000001
 40
0.0
 40
0.0
 40
0.0
 40
0.0
 40
0.1318992643311063
 40
0.2582840923169072
 40
0.3843411247790592
 40
0.5119796151256396
 40
0.6386320084211659
 40
0.7592297631645103
 40
0.8774121680351745
 40
0.9999999999999999
 40
0.9999999999999999
 40
0.9999999999999999
 40
0.9999999999999999
 10
-716.7901042883145
 20
216.7575173027672
 30
0.0
 10
-716.7706129725264
 20
216.7566131503715
 30
0.0
 10
-716.7324452326839
 20
216.7548426463281
 30
0.0
 10
-716.6772519650075
 20
216.7396811692497
 30
0.0
 10
-716.626994952932
 20
216.7139814838054
 30
0.0
 10
-716.5824172200422
 20
216.679501802905
 30
0.0
 10
-716.544165333361
 20
216.638952359446
 30
0.0
 10
-716.5173846229851
 20
216.5916913911508
 30
0.0
 10
-716.5001722268701
 20
216.540632752362
 30
0.0
 10
-716.4980936715921
 20
216.505017663181
 30
0.0
 10
-716.497035378057
 20
216.4868842899479
 30
0.0
  0
SPLINE
  5
D1
330
1F
100
AcDbEntity
  8
0
  6
Continuous
 62
     7
370
    25
100
AcDbSpline
210
0.0
220
0.0
230
1.0
 70
     8
 71
     3
 72
    15
 73
    11
 74
     0
 42
0.00000001
 43
0.00000001
 40
0.0
 40
0.0
 40
0.0
 40
0.0
 40
0.1201621349925669
 40
0.2375463202769084
 40
0.3574970509272993
 40
0.4849171224653142
 40
0.6133292680851475
 40
0.7401503701287411
 40
0.8673012545632267
 40
1.0
 40
1.0
 40
1.0
 40
1.0
 10
-716.497035378057
 20
216.4868842899479
 30
0.0
 10
-716.4981175378816
 20
216.4692216367847
 30
0.0
 10
-716.5002568397866
 20
216.4343046617699
 30
0.0
 10
-716.5173713280386
 20
216.3841311897177
 30
0.0
 10
-716.5443935658803
 20
216.337526906234
 30
0.0
 10
-716.5823926915064
 20
216.2970561960217
 30
0.0
 10
-716.6270014525081
 20
216.2625955760309
 30
0.0
 10
-716.677250238358
 20
216.2368908371257
 30
0.0
 10
-716.7324456868724
 20
216.2217306997597
 30
0.0
 10
-716.770613126061
 20
216.2199600110208
 30
0.0
 10
-716.7901042883122
 20
216.2190557643057
 30
0.0
  0
LINE
  5
D2
330
1F
100
AcDbEntity
  8
0
  6
Continuous
 62
     7
370
    25
100
AcDbLine
 10
-718.4265225575
 20
213.1229019181
 30
0.0
 11
-718.4265225575
 21
216.2639275592
 31
0.0
  0
LINE
  5
D3
330
1F
100
AcDbEntity
  8
0
  6
Continuous
 62
     7
370
    25
100
AcDbLine
 10
-718.4265225575
 20
216.2639275592
 30
0.0
 11
-719.1893430704
 21
216.2639275592
 31
0.0
  0
LINE
  5
D4
330
1F
100
AcDbEntity
  8
0
  6
Continuous
 62
     7
370
    25
100
AcDbLine
 10
-719.1893430704
 20
216.2639275592
 30
0.0
 11
-719.1893430704
 21
216.6229019181
 31
0.0
  0
LINE
  5
D5
330
1F
100
AcDbEntity
  8
0
  6
Continuous
 62
     7
370
    25
100
AcDbLine
 10
-719.1893430704
 20
216.6229019181
 30
0.0
 11
-717.3495994806
 21
216.6229019181
 31
0.0
  0
LINE
  5
D6
330
1F
100
AcDbEntity
  8
0
  6
Continuous
 62
     7
370
    25
100
AcDbLine
 10
-717.3495994806
 20
216.6229019181
 30
0.0
 11
-717.3495994806
 21
216.2639275592
 31
0.0
  0
LINE
  5
D7
330
1F
100
AcDbEntity
  8
0
  6
Continuous
 62
     7
370
    25
100
AcDbLine
 10
-717.3495994806
 20
216.2639275592
 30
0.0
 11
-718.1124199934
 21
216.2639275592
 31
0.0
  0
LINE
  5
D8
330
1F
100
AcDbEntity
  8
0
  6
Continuous
 62
     7
370
    25
100
AcDbLine
 10
-718.1124199934
 20
216.2639275592
 30
0.0
 11
-718.1124199934
 21
213.1229019181
 31
0.0
  0
LINE
  5
D9
330
1F
100
AcDbEntity
  8
0
  6
Continuous
 62
     7
370
    25
100
AcDbLine
 10
-718.1124199934
 20
213.1229019181
 30
0.0
 11
-718.4265225575
 21
213.1229019181
 31
0.0
  0
SPLINE
  5
DA
330
1F
100
AcDbEntity
  8
0
  6
Continuous
 62
     7
370
    25
100
AcDbSpline
210
0.0
220
0.0
230
1.0
 70
     8
 71
     3
 72
     8
 73
     4
 74
     0
 42
0.00000001
 43
0.00000001
 40
0.0
 40
0.0
 40
0.0
 40
0.0
 40
0.0962940762347637
 40
0.0962940762347637
 40
0.0962940762347637
 40
0.0962940762347637
 10
-719.2303313265198
 20
250.0707106751724
 30
0.0
 10
-719.2320269577014
 20
234.0194283495568
 30
0.0
 10
-719.2337225888828
 20
217.9681460239413
 30
0.0
 10
-719.2353749030907
 20
201.9168636941748
 30
0.0
  0
LINE
  5
DB
330
1F
100
AcDbEntity
  8
0
  6
Continuous
 62
     7
370
    25
100
AcDbLine
 10
-635.292797632
 20
201.9168636945
 30
0.0
 11
-719.2353749031
 21
201.9168636942
 31
0.0
  0
LINE
  5
DC
330
1F
100
AcDbEntity
  8
0
  6
Continuous
 62
     7
370
    25
100
AcDbLine
 10
-635.292797632
 20
201.9168636945
 30
0.0
 11
-635.2927976322
 21
249.7672721576
 31
0.0
  0
SPLINE
  5
DD
330
1F
100
AcDbEntity
  8
0
  6
Continuous
 62
     7
370
    25
100
AcDbSpline
210
0.0
220
0.0
230
1.0
 70
     8
 71
     3
 72
    14
 73
    10
 74
     0
 42
0.00000001
 43
0.00000001
 40
0.0
 40
0.0
 40
0.0
 40
0.0
 40
0.25
 40
0.25
 40
0.5
 40
0.5
 40
0.75
 40
0.75
 40
1.0
 40
1.0
 40
1.0
 40
1.0
 10
-635.2927976321802
 20
249.7672721575561
 30
0.0
 10
-639.2334622214081
 20
245.8422317191309
 30
0.0
 10
-641.7714394745175
 20
243.4024754036017
 30
0.0
 10
-647.5556825382461
 20
239.0609588300763
 30
0.0
 10
-652.2151675958013
 20
236.6162812488571
 30
0.0
 10
-660.2831680514265
 20
236.7157420909351
 30
0.0
 10
-663.9835189406907
 20
238.5418773805822
 30
0.0
 10
-671.5523689964956
 20
244.3196081393736
 30
0.0
 10
-673.0855101922917
 20
245.9911385498024
 30
0.0
 10
-677.1094026258844
 20
249.9999996443326
 30
0.0
  0
SPLINE
  5
DE
330
1F
100
AcDbEntity
  8
0
  6
Continuous
 62
     7
370
    25
100
AcDbSpline
210
0.0
220
0.0
230
1.0
 70
     8
 71
     3
 72
    14
 73
    10
 74
     0
 42
0.00000001
 43
0.00000001
 40
0.0
 40
0.0
 40
0.0
 40
0.0
 40
0.25
 40
0.25
 40
0.5
 40
0.5
 40
0.75
 40
0.75
 40
1.0
 40
1.0
 40
1.0
 40
1.0
 10
-677.1094029801012
 20
249.9999999972263
 30
0.0
 10
-681.1608128064075
 20
245.9637242862476
 30
0.0
 10
-682.6980765570171
 20
244.2833316754333
 30
0.0
 10
-690.3348033993484
 20
238.4782449479136
 30
0.0
 10
-694.0876428626449
 20
236.6647767198786
 30
0.0
 10
-702.1813820962773
 20
236.6652233113418
 30
0.0
 10
-706.8635581397654
 20
239.1845203659706
 30
0.0
 10
-712.6416079152336
 20
243.5770552952549
 30
0.0
 10
-715.1091763446585
 20
245.9646862089343
 30
0.0
 10
-719.1596206484005
 20
249.9999999970542
 30
0.0
  0
LINE
  5
DF
330
1F
100
AcDbEntity
  8
0
  6
Continuous
 62
     7
370
    25
100
AcDbLine
 10
-719.2303313265
 20
250.0707106752
 30
0.0
 11
-719.1596206484
 21
249.9999999971
 31
0.0
  0
MTEXT
  5
E1
330
1F
100
AcDbEntity
  8
0
  6
Continuous
 62
     7
100
AcDbMText
 10
-719.2353749031
 20
200.8972973025
 30
0.0
 40
4.83362
 41
0.0
 71
     1
 72
     1
  1
SOLIDWORKS Educational Product.
  7
SLDTEXTSTYLE0
 73
     1
 44
1.0
  0
MTEXT
  5
E2
330
1F
100
AcDbEntity
  8
0
  6
Continuous
 62
     7
100
AcDbMText
 10
-719.2353749031
 20
193.6468673025
 30
0.0
 40
4.83362
 41
0.0
 71
     1
 72
     1
  1
For Instructional Use Only.
  7
SLDTEXTSTYLE0
 73
     1
 44
1.0
  0
ENDSEC
  0
SECTION
  2
OBJECTS
  0
DICTIONARY
  5
C
330
0
100
AcDbDictionary
281
     1
  3
ACAD_GROUP
350
D
  3
ACAD_LAYOUT
350
1A
  3
ACAD_MLINESTYLE
350
17
  3
ACAD_PLOTSETTINGS
350
19
  3
ACAD_PLOTSTYLENAME
350
E
  3
ACAD_SCALELIST
350
47
  3
DWGPROPS
350
E3
  0
DICTIONARY
  5
D
102
{ACAD_REACTORS
330
C
102
}
330
C
100
AcDbDictionary
281
     1
  0
DICTIONARY
  5
1A
102
{ACAD_REACTORS
330
C
102
}
330
C
100
AcDbDictionary
281
     1
  3
Layout1
350
1E
  3
Layout2
350
26
  3
Model
350
22
  0
DICTIONARY
  5
17
102
{ACAD_REACTORS
330
C
102
}
330
C
100
AcDbDictionary
281
     1
  3
Standard
350
18
  0
DICTIONARY
  5
19
102
{ACAD_REACTORS
330
C
102
}
330
C
100
AcDbDictionary
281
     1
  0
ACDBDICTIONARYWDFLT
  5
E
102
{ACAD_REACTORS
330
C
102
}
330
C
100
AcDbDictionary
281
     1
  3
Normal
350
F
100
AcDbDictionaryWithDefault
340
F
  0
DICTIONARY
  5
47
102
{ACAD_REACTORS
330
C
102
}
330
C
100
AcDbDictionary
281
     1
  3
A0
350
48
  3
A1
350
49
  3
A2
350
4A
  3
A3
350
4B
  3
A4
350
4C
  3
A5
350
4D
  3
A6
350
4E
  3
A7
350
4F
  3
A8
350
50
  3
A9
350
51
  3
B0
350
52
  3
B1
350
53
  3
B2
350
54
  3
B3
350
55
  3
B4
350
56
  3
B5
350
57
  3
B6
350
58
  0
XRECORD
  5
E3
102
{ACAD_REACTORS
330
C
102
}
330
C
100
AcDbXrecord
280
     1
  1
DWGPROPS COOKIE
  2

  3

  4

  6

  7

  8
Dell
  9

300
=
301
=
302
=
303
=
304
=
305
=
306
=
307
=
308
=
309
=
 40
0.0
 41
2460369.268802697
 42
2460369.268897836
  1

 90
        0
  0
LAYOUT
  5
1E
102
{ACAD_REACTORS
330
1A
102
}
330
1A
100
AcDbPlotSettings
  1

  2
none_device
  4

  6

 40
0.0
 41
0.0
 42
0.0
 43
0.0
 44
0.0
 45
0.0
 46
0.0
 47
0.0
 48
0.0
 49
0.0
140
0.0
141
0.0
142
1.0
143
1.0
 70
   688
 72
     1
 73
     0
 74
     5
  7

 75
    16
147
1.0
148
0.0
149
0.0
100
AcDbLayout
  1
Layout1
 70
     1
 71
     1
 10
0.0
 20
0.0
 11
420.0
 21
297.0
 12
0.0
 22
0.0
 32
0.0
 14
1.0000000000E+20
 24
1.0000000000E+20
 34
1.0000000000E+20
 15
-1.0000000000E+20
 25
-1.0000000000E+20
 35
-1.0000000000E+20
146
0.0
 13
0.0
 23
0.0
 33
0.0
 16
1.0
 26
0.0
 36
0.0
 17
0.0
 27
1.0
 37
0.0
 76
     0
330
1B
  0
LAYOUT
  5
26
102
{ACAD_REACTORS
330
1A
102
}
330
1A
100
AcDbPlotSettings
  1

  2
none_device
  4

  6

 40
0.0
 41
0.0
 42
0.0
 43
0.0
 44
0.0
 45
0.0
 46
0.0
 47
0.0
 48
0.0
 49
0.0
140
0.0
141
0.0
142
1.0
143
1.0
 70
   688
 72
     1
 73
     0
 74
     5
  7

 75
    16
147
1.0
148
0.0
149
0.0
100
AcDbLayout
  1
Layout2
 70
     1
 71
     2
 10
0.0
 20
0.0
 11
0.0
 21
0.0
 12
0.0
 22
0.0
 32
0.0
 14
0.0
 24
0.0
 34
0.0
 15
0.0
 25
0.0
 35
0.0
146
0.0
 13
0.0
 23
0.0
 33
0.0
 16
1.0
 26
0.0
 36
0.0
 17
0.0
 27
1.0
 37
0.0
 76
     0
330
23
  0
LAYOUT
  5
22
102
{ACAD_REACTORS
330
1A
102
}
330
1A
100
AcDbPlotSettings
  1

  2
none_device
  4
ANSI_A_(11.00_x_8.50_Inches)
  6

 40
6.35
 41
19.05
 42
6.35000508
 43
19.05000254
 44
279.4
 45
215.9
 46
2365.0578617669
 47
-655.7904733783
 48
0.0
 49
0.0
140
0.0
141
0.0
142
0.1297315421
143
1.0
 70
  1696
 72
     0
 73
     0
 74
     0
  7

 75
     0
147
0.0179189148
148
-1300.4909072572
149
0.0
100
AcDbLayout
  1
Model
 70
     1
 71
     0
 10
0.0
 20
0.0
 11
420.0
 21
297.0
 12
0.0
 22
0.0
 32
0.0
 14
-719.2353749031
 24
201.9168636942
 34
0.0
 15
-635.292797632
 25
250.0707106752
 35
0.0
146
0.0
 13
0.0
 23
0.0
 33
0.0
 16
1.0
 26
0.0
 36
0.0
 17
0.0
 27
1.0
 37
0.0
 76
     0
330
1F
331
29
  0
MLINESTYLE
  5
18
102
{ACAD_REACTORS
330
17
102
}
330
17
100
AcDbMlineStyle
  2
Standard
 70
     0
  3

 62
   256
 51
90.0
 52
90.0
 71
     2
 49
0.5
 62
   256
  6
BYLAYER
 49
-0.5
 62
   256
  6
BYLAYER
  0
ACDBPLACEHOLDER
  5
F
102
{ACAD_REACTORS
330
E
102
}
330
E
  0
SCALE
  5
48
102
{ACAD_REACTORS
330
47
102
}
330
47
100
AcDbScale
 70
     0
300
1:1
140
1.0
141
1.0
290
     1
  0
SCALE
  5
49
102
{ACAD_REACTORS
330
47
102
}
330
47
100
AcDbScale
 70
     0
300
1:2
140
1.0
141
2.0
290
     0
  0
SCALE
  5
4A
102
{ACAD_REACTORS
330
47
102
}
330
47
100
AcDbScale
 70
     0
300
1:4
140
1.0
141
4.0
290
     0
  0
SCALE
  5
4B
102
{ACAD_REACTORS
330
47
102
}
330
47
100
AcDbScale
 70
     0
300
1:5
140
1.0
141
5.0
290
     0
  0
SCALE
  5
4C
102
{ACAD_REACTORS
330
47
102
}
330
47
100
AcDbScale
 70
     0
300
1:8
140
1.0
141
8.0
290
     0
  0
SCALE
  5
4D
102
{ACAD_REACTORS
330
47
102
}
330
47
100
AcDbScale
 70
     0
300
1:10
140
1.0
141
10.0
290
     0
  0
SCALE
  5
4E
102
{ACAD_REACTORS
330
47
102
}
330
47
100
AcDbScale
 70
     0
300
1:16
140
1.0
141
16.0
290
     0
  0
SCALE
  5
4F
102
{ACAD_REACTORS
330
47
102
}
330
47
100
AcDbScale
 70
     0
300
1:20
140
1.0
141
20.0
290
     0
  0
SCALE
  5
50
102
{ACAD_REACTORS
330
47
102
}
330
47
100
AcDbScale
 70
     0
300
1:30
140
1.0
141
30.0
290
     0
  0
SCALE
  5
51
102
{ACAD_REACTORS
330
47
102
}
330
47
100
AcDbScale
 70
     0
300
1:40
140
1.0
141
40.0
290
     0
  0
SCALE
  5
52
102
{ACAD_REACTORS
330
47
102
}
330
47
100
AcDbScale
 70
     0
300
1:50
140
1.0
141
50.0
290
     0
  0
SCALE
  5
53
102
{ACAD_REACTORS
330
47
102
}
330
47
100
AcDbScale
 70
     0
300
1:100
140
1.0
141
100.0
290
     0
  0
SCALE
  5
54
102
{ACAD_REACTORS
330
47
102
}
330
47
100
AcDbScale
 70
     0
300
2:1
140
2.0
141
1.0
290
     0
  0
SCALE
  5
55
102
{ACAD_REACTORS
330
47
102
}
330
47
100
AcDbScale
 70
     0
300
4:1
140
4.0
141
1.0
290
     0
  0
SCALE
  5
56
102
{ACAD_REACTORS
330
47
102
}
330
47
100
AcDbScale
 70
     0
300
8:1
140
8.0
141
1.0
290
     0
  0
SCALE
  5
57
102
{ACAD_REACTORS
330
47
102
}
330
47
100
AcDbScale
 70
     0
300
10:1
140
10.0
141
1.0
290
     0
  0
SCALE
  5
58
102
{ACAD_REACTORS
330
47
102
}
330
47
100
AcDbScale
 70
     0
300
100:1
140
100.0
141
1.0
290
     0
  0
ENDSEC
  0
EOF
