  0
SECTION
  2
HEADER
  9
$ACADVER
  1
AC1015
  9
$ACADMAINTVER
 70
     6
  9
$DWGCODEPAGE
  3
ANSI_1252
  9
$INSBASE
 10
0.0
 20
0.0
 30
0.0
  9
$EXTMIN
 10
-319.2495802184
 20
192.0795544058
 30
0.0
  9
$EXTMAX
 10
-225.6473762669
 20
290.6017873149
 30
0.0
  9
$LIMMIN
 10
0.0
 20
0.0
  9
$LIMMAX
 10
420.0
 20
297.0
  9
$ORTHOMODE
 70
     0
  9
$REGENMODE
 70
     1
  9
$FILLMODE
 70
     1
  9
$QTEXTMODE
 70
     0
  9
$MIRRTEXT
 70
     1
  9
$LTSCALE
 40
1.0
  9
$ATTMODE
 70
     1
  9
$TEXTSIZE
 40
3.5
  9
$TRACEWID
 40
1.0
  9
$TEXTSTYLE
  7
Standard
  9
$CLAYER
  8
0
  9
$CELTYPE
  6
ByLayer
  9
$CECOLOR
 62
   256
  9
$CELTSCALE
 40
1.0
  9
$DISPSILH
 70
     0
  9
$DIMSCALE
 40
1.0
  9
$DIMASZ
 40
3.302
  9
$DIMEXO
 40
0.0
  9
$DIMDLI
 40
3.75
  9
$DIMRND
 40
0.0
  9
$DIMDLE
 40
0.0
  9
$DIMEXE
 40
1.0
  9
$DIMTP
 40
0.0
  9
$DIMTM
 40
0.0
  9
$DIMTXT
 40
3.5
  9
$DIMCEN
 40
2.5
  9
$DIMTSZ
 40
0.0
  9
$DIMTOL
 70
     0
  9
$DIMLIM
 70
     0
  9
$DIMTIH
 70
     1
  9
$DIMTOH
 70
     1
  9
$DIMSE1
 70
     0
  9
$DIMSE2
 70
     0
  9
$DIMTAD
 70
     1
  9
$DIMZIN
 70
     1
  9
$DIMBLK
  1

  9
$DIMASO
 70
     1
  9
$DIMSHO
 70
     1
  9
$DIMPOST
  1

  9
$DIMAPOST
  1

  9
$DIMALT
 70
     0
  9
$DIMALTD
 70
     3
  9
$DIMALTF
 40
0.0393700787
  9
$DIMLFAC
 40
1.0
  9
$DIMTOFL
 70
     1
  9
$DIMTVP
 40
0.0
  9
$DIMTIX
 70
     0
  9
$DIMSOXD
 70
     0
  9
$DIMSAH
 70
     0
  9
$DIMBLK1
  1

  9
$DIMBLK2
  1

  9
$DIMSTYLE
  2
ISO-25
  9
$DIMCLRD
 70
     0
  9
$DIMCLRE
 70
     0
  9
$DIMCLRT
 70
     0
  9
$DIMTFAC
 40
1.0
  9
$DIMGAP
 40
1.524
  9
$DIMJUST
 70
     0
  9
$DIMSD1
 70
     0
  9
$DIMSD2
 70
     0
  9
$DIMTOLJ
 70
     0
  9
$DIMTZIN
 70
     1
  9
$DIMALTZ
 70
     0
  9
$DIMALTTZ
 70
     0
  9
$DIMUPT
 70
     0
  9
$DIMDEC
 70
     2
  9
$DIMTDEC
 70
     2
  9
$DIMALTU
 70
     2
  9
$DIMALTTD
 70
     3
  9
$DIMTXSTY
  7
Standard
  9
$DIMAUNIT
 70
     0
  9
$DIMADEC
 70
     2
  9
$DIMALTRND
 40
0.0
  9
$DIMAZIN
 70
     0
  9
$DIMDSEP
 70
    44
  9
$DIMATFIT
 70
     3
  9
$DIMFRAC
 70
     0
  9
$DIMLDRBLK
  1

  9
$DIMLUNIT
 70
     2
  9
$DIMLWD
 70
    -2
  9
$DIMLWE
 70
    -2
  9
$DIMTMOVE
 70
     0
  9
$LUNITS
 70
     2
  9
$LUPREC
 70
     2
  9
$SKETCHINC
 40
1.0
  9
$FILLETRAD
 40
0.0
  9
$AUNITS
 70
     0
  9
$AUPREC
 70
     2
  9
$MENU
  1
.
  9
$ELEVATION
 40
0.0
  9
$PELEVATION
 40
0.0
  9
$THICKNESS
 40
0.0
  9
$LIMCHECK
 70
     0
  9
$CHAMFERA
 40
0.0
  9
$CHAMFERB
 40
0.0
  9
$CHAMFERC
 40
0.0
  9
$CHAMFERD
 40
0.0
  9
$SKPOLY
 70
     0
  9
$TDCREATE
 40
2460369.1017625
  9
$TDUCREATE
 40
2460369.310095833
  9
$TDUPDATE
 40
2460369.101823056
  9
$TDUUPDATE
 40
2460369.310156389
  9
$TDINDWG
 40
0.0000000116
  9
$TDUSRTIMER
 40
0.0000000116
  9
$USRTIMER
 70
     1
  9
$ANGBASE
 50
0.0
  9
$ANGDIR
 70
     0
  9
$PDMODE
 70
     0
  9
$PDSIZE
 40
-1.0
  9
$PLINEWID
 40
0.0
  9
$SPLFRAME
 70
     0
  9
$SPLINETYPE
 70
     6
  9
$SPLINESEGS
 70
     8
  9
$HANDSEED
  5
11A
  9
$SURFTAB1
 70
     6
  9
$SURFTAB2
 70
     6
  9
$SURFTYPE
 70
     6
  9
$SURFU
 70
     6
  9
$SURFV
 70
     6
  9
$UCSBASE
  2

  9
$UCSNAME
  2

  9
$UCSORG
 10
0.0
 20
0.0
 30
0.0
  9
$UCSXDIR
 10
1.0
 20
0.0
 30
0.0
  9
$UCSYDIR
 10
0.0
 20
1.0
 30
0.0
  9
$UCSORTHOREF
  2

  9
$UCSORTHOVIEW
 70
     0
  9
$UCSORGTOP
 10
0.0
 20
0.0
 30
0.0
  9
$UCSORGBOTTOM
 10
0.0
 20
0.0
 30
0.0
  9
$UCSORGLEFT
 10
0.0
 20
0.0
 30
0.0
  9
$UCSORGRIGHT
 10
0.0
 20
0.0
 30
0.0
  9
$UCSORGFRONT
 10
0.0
 20
0.0
 30
0.0
  9
$UCSORGBACK
 10
0.0
 20
0.0
 30
0.0
  9
$PUCSBASE
  2

  9
$PUCSNAME
  2

  9
$PUCSORG
 10
0.0
 20
0.0
 30
0.0
  9
$PUCSXDIR
 10
1.0
 20
0.0
 30
0.0
  9
$PUCSYDIR
 10
0.0
 20
1.0
 30
0.0
  9
$PUCSORTHOREF
  2

  9
$PUCSORTHOVIEW
 70
     0
  9
$PUCSORGTOP
 10
0.0
 20
0.0
 30
0.0
  9
$PUCSORGBOTTOM
 10
0.0
 20
0.0
 30
0.0
  9
$PUCSORGLEFT
 10
0.0
 20
0.0
 30
0.0
  9
$PUCSORGRIGHT
 10
0.0
 20
0.0
 30
0.0
  9
$PUCSORGFRONT
 10
0.0
 20
0.0
 30
0.0
  9
$PUCSORGBACK
 10
0.0
 20
0.0
 30
0.0
  9
$USERI1
 70
     0
  9
$USERI2
 70
     0
  9
$USERI3
 70
     0
  9
$USERI4
 70
     0
  9
$USERI5
 70
     0
  9
$USERR1
 40
0.0
  9
$USERR2
 40
0.0
  9
$USERR3
 40
0.0
  9
$USERR4
 40
0.0
  9
$USERR5
 40
0.0
  9
$WORLDVIEW
 70
     1
  9
$SHADEDGE
 70
     3
  9
$SHADEDIF
 70
    70
  9
$TILEMODE
 70
     1
  9
$MAXACTVP
 70
    64
  9
$PINSBASE
 10
0.0
 20
0.0
 30
0.0
  9
$PLIMCHECK
 70
     0
  9
$PEXTMIN
 10
1.0000000000E+20
 20
1.0000000000E+20
 30
1.0000000000E+20
  9
$PEXTMAX
 10
-1.0000000000E+20
 20
-1.0000000000E+20
 30
-1.0000000000E+20
  9
$PLIMMIN
 10
0.0
 20
0.0
  9
$PLIMMAX
 10
420.0
 20
297.0
  9
$UNITMODE
 70
     0
  9
$VISRETAIN
 70
     1
  9
$PLINEGEN
 70
     0
  9
$PSLTSCALE
 70
     1
  9
$TREEDEPTH
 70
  3020
  9
$CMLSTYLE
  2
Standard
  9
$CMLJUST
 70
     0
  9
$CMLSCALE
 40
20.0
  9
$PROXYGRAPHICS
 70
     1
  9
$MEASUREMENT
 70
     1
  9
$CELWEIGHT
370
    -1
  9
$ENDCAPS
280
     0
  9
$JOINSTYLE
280
     0
  9
$LWDISPLAY
290
     1
  9
$INSUNITS
 70
     4
  9
$HYPERLINKBASE
  1

  9
$STYLESHEET
  1

  9
$XEDIT
290
     1
  9
$CEPSNTYPE
380
     0
  9
$PSTYLEMODE
290
     1
  9
$FINGERPRINTGUID
  2
{665d1df4-8bd8-4dae-88c4-f52a114f1018}
  9
$VERSIONGUID
  2
{FAEB1C32-E019-11D5-929B-00C0DF256EC4}
  9
$EXTNAMES
290
     1
  9
$PSVPSCALE
 40
0.0
  9
$OLESTARTUP
290
     0
  0
ENDSEC
  0
SECTION
  2
CLASSES
  0
CLASS
  1
ACDBDICTIONARYWDFLT
  2
AcDbDictionaryWithDefault
  3
ObjectDBX Classes
 90
        0
280
     0
281
     0
  0
CLASS
  1
VISUALSTYLE
  2
AcDbVisualStyle
  3
ObjectDBX Classes
 90
     4095
280
     0
281
     0
  0
CLASS
  1
MATERIAL
  2
AcDbMaterial
  3
ObjectDBX Classes
 90
     1153
280
     0
281
     0
  0
CLASS
  1
SCALE
  2
AcDbScale
  3
ObjectDBX Classes
 90
     1153
280
     0
281
     0
  0
CLASS
  1
TABLESTYLE
  2
AcDbTableStyle
  3
ObjectDBX Classes
 90
     4095
280
     0
281
     0
  0
CLASS
  1
MLEADERSTYLE
  2
AcDbMLeaderStyle
  3
ACDB_MLEADERSTYLE_CLASS
 90
     4095
280
     0
281
     0
  0
CLASS
  1
SUN
  2
AcDbSun
  3
SCENEOE
 90
     1153
280
     0
281
     0
  0
CLASS
  1
ACDBPLACEHOLDER
  2
AcDbPlaceHolder
  3
ObjectDBX Classes
 90
        0
280
     0
281
     0
  0
CLASS
  1
LAYOUT
  2
AcDbLayout
  3
ObjectDBX Classes
 90
        0
280
     0
281
     0
  0
ENDSEC
  0
SECTION
  2
TABLES
  0
TABLE
  2
VPORT
  5
8
330
0
100
AcDbSymbolTable
 70
     1
  0
VPORT
  5
29
330
8
100
AcDbSymbolTableRecord
100
AcDbViewportTableRecord
  2
*Active
 70
     0
 10
0.0
 20
0.0
 11
1.0
 21
1.0
 12
-272.4484782426
 22
241.3406708603
 13
0.0
 23
0.0
 14
10.0
 24
10.0
 15
10.0
 25
10.0
 16
0.0
 26
0.0
 36
1.0
 17
0.0
 27
0.0
 37
0.0
 40
100.4926775673
 41
0.9500617392
 42
50.0
 43
0.0
 44
0.0
 50
0.0
 51
0.0
 71
     0
 72
   100
 73
     1
 74
     3
 75
     0
 76
     0
 77
     0
 78
     0
281
     0
 65
     1
110
0.0
120
0.0
130
0.0
111
1.0
121
0.0
131
0.0
112
0.0
122
1.0
132
0.0
 79
     0
146
0.0
  0
ENDTAB
  0
TABLE
  2
LTYPE
  5
5
330
0
100
AcDbSymbolTable
 70
     6
  0
LTYPE
  5
14
330
5
100
AcDbSymbolTableRecord
100
AcDbLinetypeTableRecord
  2
ByBlock
 70
     0
  3

 72
    65
 73
     0
 40
0.0
  0
LTYPE
  5
15
330
5
100
AcDbSymbolTableRecord
100
AcDbLinetypeTableRecord
  2
ByLayer
 70
     0
  3

 72
    65
 73
     0
 40
0.0
  0
LTYPE
  5
16
330
5
100
AcDbSymbolTableRecord
100
AcDbLinetypeTableRecord
  2
Continuous
 70
     0
  3
Solid line
 72
    65
 73
     0
 40
0.0
  0
LTYPE
  5
5E
330
5
100
AcDbSymbolTableRecord
100
AcDbLinetypeTableRecord
  2
HIDDEN
 70
     0
  3
Hidden __ __ __ __ __ __ __ __ __ __ __ __ __ __
 72
    65
 73
     2
 40
1.905
 49
1.27
 74
     0
 49
-0.635
 74
     0
  0
LTYPE
  5
5F
330
5
100
AcDbSymbolTableRecord
100
AcDbLinetypeTableRecord
  2
PHANTOM
 70
     0
  3
Phantom ______  __  __  ______  __  __  ______
 72
    65
 73
     6
 40
12.7
 49
6.35
 74
     0
 49
-1.27
 74
     0
 49
1.27
 74
     0
 49
-1.27
 74
     0
 49
1.27
 74
     0
 49
-1.27
 74
     0
  0
LTYPE
  5
60
330
5
100
AcDbSymbolTableRecord
100
AcDbLinetypeTableRecord
  2
CENTER
 70
     0
  3
Center ____ _ ____ _ ____ _ ____ _ ____ _ ____
 72
    65
 73
     4
 40
10.16
 49
6.35
 74
     0
 49
-1.27
 74
     0
 49
1.27
 74
     0
 49
-1.27
 74
     0
  0
LTYPE
  5
61
330
5
100
AcDbSymbolTableRecord
100
AcDbLinetypeTableRecord
  2
CENTERX2
 70
     0
  3
Center (2x) ________  __  ________  __  _____
 72
    65
 73
     4
 40
20.32
 49
12.7
 74
     0
 49
-2.54
 74
     0
 49
2.54
 74
     0
 49
-2.54
 74
     0
  0
LTYPE
  5
62
330
5
100
AcDbSymbolTableRecord
100
AcDbLinetypeTableRecord
  2
DOT2
 70
     0
  3
Dot (.5x) ........................................
 72
    65
 73
     2
 40
0.635
 49
0.0
 74
     0
 49
-0.635
 74
     0
  0
ENDTAB
  0
TABLE
  2
LAYER
  5
2
330
0
100
AcDbSymbolTable
 70
     1
  0
LAYER
  5
10
330
2
100
AcDbSymbolTableRecord
100
AcDbLayerTableRecord
  2
0
 70
     0
 62
     7
  6
Continuous
370
    -3
390
F
  0
ENDTAB
  0
TABLE
  2
STYLE
  5
3
330
0
100
AcDbSymbolTable
 70
     2
  0
STYLE
  5
11
330
3
100
AcDbSymbolTableRecord
100
AcDbTextStyleTableRecord
  2
Standard
 70
     0
 40
0.0
 41
1.0
 50
0.0
 71
     0
 42
3.5
  3
txt
  4

  0
STYLE
  5
116
330
3
100
AcDbSymbolTableRecord
100
AcDbTextStyleTableRecord
  2
SLDTEXTSTYLE0
 70
     0
 40
0.0
 41
0.7
 50
0.0
 71
     0
 42
3.5
  3
TXT
  4

  0
ENDTAB
  0
TABLE
  2
VIEW
  5
6
330
0
100
AcDbSymbolTable
 70
     0
  0
ENDTAB
  0
TABLE
  2
UCS
  5
7
330
0
100
AcDbSymbolTable
 70
     0
  0
ENDTAB
  0
TABLE
  2
APPID
  5
9
330
0
100
AcDbSymbolTable
 70
     1
  0
APPID
  5
12
330
9
100
AcDbSymbolTableRecord
100
AcDbRegAppTableRecord
  2
ACAD
 70
     0
  0
ENDTAB
  0
TABLE
  2
DIMSTYLE
  5
A
330
0
100
AcDbSymbolTable
 70
     1
100
AcDbDimStyleTable
  0
DIMSTYLE
105
27
330
A
100
AcDbSymbolTableRecord
100
AcDbDimStyleTableRecord
  2
ISO-25
 70
     0
 41
2.5
 42
0.625
 43
3.75
 44
1.25
 73
     0
 74
     0
 77
     1
 78
     8
140
2.5
141
2.5
143
0.0393700787
147
0.625
171
     3
172
     1
178
     0
271
     2
272
     2
274
     3
278
    44
283
     0
284
     8
340
11
  0
ENDTAB
  0
TABLE
  2
BLOCK_RECORD
  5
1
330
0
100
AcDbSymbolTable
 70
     1
  0
BLOCK_RECORD
  5
1F
330
1
100
AcDbSymbolTableRecord
100
AcDbBlockTableRecord
  2
*Model_Space
340
22
  0
BLOCK_RECORD
  5
1B
330
1
100
AcDbSymbolTableRecord
100
AcDbBlockTableRecord
  2
*Paper_Space
340
1E
  0
BLOCK_RECORD
  5
23
330
1
100
AcDbSymbolTableRecord
100
AcDbBlockTableRecord
  2
*Paper_Space0
340
26
  0
ENDTAB
  0
ENDSEC
  0
SECTION
  2
BLOCKS
  0
BLOCK
  5
20
330
1F
100
AcDbEntity
  8
0
100
AcDbBlockBegin
  2
*Model_Space
 70
     0
 10
0.0
 20
0.0
 30
0.0
  3
*Model_Space
  1

  0
ENDBLK
  5
21
330
1F
100
AcDbEntity
  8
0
100
AcDbBlockEnd
  0
BLOCK
  5
1C
330
1B
100
AcDbEntity
 67
     1
  8
0
100
AcDbBlockBegin
  2
*Paper_Space
 70
     0
 10
0.0
 20
0.0
 30
0.0
  3
*Paper_Space
  1

  0
ENDBLK
  5
1D
330
1B
100
AcDbEntity
 67
     1
  8
0
100
AcDbBlockEnd
  0
BLOCK
  5
24
330
23
100
AcDbEntity
  8
0
100
AcDbBlockBegin
  2
*Paper_Space0
 70
     0
 10
0.0
 20
0.0
 30
0.0
  3
*Paper_Space0
  1

  0
ENDBLK
  5
25
330
23
100
AcDbEntity
  8
0
100
AcDbBlockEnd
  0
ENDSEC
  0
SECTION
  2
ENTITIES
  0
SPLINE
  5
63
330
1F
100
AcDbEntity
  8
0
  6
Continuous
 62
     7
370
    25
100
AcDbSpline
210
0.0
220
0.0
230
1.0
 70
     8
 71
     3
 72
    23
 73
    19
 74
     0
 42
0.00000001
 43
0.00000001
 40
0.0
 40
0.0
 40
0.0
 40
0.0
 40
0.0623542411550012
 40
0.1229667224064449
 40
0.1824582005253302
 40
0.2420599729613463
 40
0.3012932990119325
 40
0.3619990140952011
 40
0.4248196360279413
 40
0.4891326423137868
 40
0.554181806535593
 40
0.6170749880595374
 40
0.680002968469341
 40
0.7418696236391075
 40
0.8046960534230272
 40
0.8678093038420657
 40
0.9331718249910949
 40
1.0
 40
1.0
 40
1.0
 40
1.0
 10
-264.187838212483
 20
235.0249042690504
 30
0.0
 10
-264.207187784505
 20
235.039345620071
 30
0.0
 10
-264.245346431093
 20
235.0678249274802
 30
0.0
 10
-264.3068453909478
 20
235.1028304232855
 30
0.0
 10
-264.3703940053326
 20
235.1313282880162
 30
0.0
 10
-264.4363111850857
 20
235.1521771639517
 30
0.0
 10
-264.5044133760613
 20
235.1664769613464
 30
0.0
 10
-264.5749189425563
 20
235.1733420218858
 30
0.0
 10
-264.6477195932183
 20
235.1733288031579
 30
0.0
 10
-264.7217813707746
 20
235.1659536306752
 30
0.0
 10
-264.7952350716609
 20
235.1534450980166
 30
0.0
 10
-264.8661513009606
 20
235.1323841775014
 30
0.0
 10
-264.9340022201769
 20
235.1062223001797
 30
0.0
 10
-264.9985527675669
 20
235.0727248552441
 30
0.0
 10
-265.0595653014012
 20
235.0329732329043
 30
0.0
 10
-265.1165824636399
 20
234.9856548782893
 30
0.0
 10
-265.1717074084877
 20
234.9337574662093
 30
0.0
 10
-265.2041762152754
 20
234.8941741697255
 30
0.0
 10
-265.2205906163292
 20
234.8741630831533
 30
0.0
  0
SPLINE
  5
64
330
1F
100
AcDbEntity
  8
0
  6
Continuous
 62
     7
370
    25
100
AcDbSpline
210
0.0
220
0.0
230
1.0
 70
     8
 71
     3
 72
    23
 73
    19
 74
     0
 42
0.00000001
 43
0.00000001
 40
0.0
 40
0.0
 40
0.0
 40
0.0
 40
0.06283888507909
 40
0.1228904314788789
 40
0.1818357824312878
 40
0.239838619871442
 40
0.2968478615059674
 40
0.3542893517891386
 40
0.4124018166830981
 40
0.4717238816016281
 40
0.5318596771308803
 40
0.5928125790498894
 40
0.6546396641260425
 40
0.7181471642404492
 40
0.7839457280985725
 40
0.8526859666742408
 40
0.9246903895786253
 40
1.0
 40
1.0
 40
1.0
 40
1.0
 10
-265.2205906163292
 20
234.8741630831533
 30
0.0
 10
-265.2368997337684
 20
234.8522421360832
 30
0.0
 10
-265.268794546616
 20
234.8093725873878
 30
0.0
 10
-265.3089081350337
 20
234.7411656536125
 30
0.0
 10
-265.342573755637
 20
234.6718413322847
 30
0.0
 10
-265.3664713265563
 20
234.5999939425737
 30
0.0
 10
-265.384944857669
 20
234.5272334936027
 30
0.0
 10
-265.3934174706328
 20
234.4525547039245
 30
0.0
 10
-265.3957624419048
 20
234.376530871199
 30
0.0
 10
-265.390255763699
 20
234.2994037293975
 30
0.0
 10
-265.3759576789537
 20
234.2221890590955
 30
0.0
 10
-265.3542030719455
 20
234.145630418013
 30
0.0
 10
-265.3246327348595
 20
234.0701376057831
 30
0.0
 10
-265.2864975387407
 20
233.9961907550773
 30
0.0
 10
-265.2396194927861
 20
233.9239104288172
 30
0.0
 10
-265.1856282976828
 20
233.8521313401552
 30
0.0
 10
-265.1230563274244
 20
233.781970889467
 30
0.0
 10
-265.0767137003346
 20
233.7377931958716
 30
0.0
 10
-265.0530225073554
 20
233.7152087562302
 30
0.0
  0
LINE
  5
65
330
1F
100
AcDbEntity
  8
0
  6
Continuous
 62
     7
370
    25
100
AcDbLine
 10
-265.0530225074
 20
233.7152087562
 30
0.0
 11
-265.2598534368
 21
233.4522880832
 31
0.0
  0
SPLINE
  5
66
330
1F
100
AcDbEntity
  8
0
  6
Continuous
 62
     7
370
    25
100
AcDbSpline
210
0.0
220
0.0
230
1.0
 70
     8
 71
     3
 72
    23
 73
    19
 74
     0
 42
0.00000001
 43
0.00000001
 40
0.0
 40
0.0
 40
0.0
 40
0.0
 40
0.0686087941483576
 40
0.1347452025968252
 40
0.1989033023971012
 40
0.2614198498798343
 40
0.3232815855786465
 40
0.3843953190616866
 40
0.4461542594037542
 40
0.5090025475373672
 40
0.5714902150132408
 40
0.6323102446433343
 40
0.6924533940787123
 40
0.7520962510618889
 40
0.8120662778913531
 40
0.872765097517956
 40
0.9354604041140637
 40
1.0
 40
1.0
 40
1.0
 40
1.0
 10
-265.2598534368427
 20
233.4522880831533
 30
0.0
 10
-265.2916856703141
 20
233.4800229683515
 30
0.0
 10
-265.3542030312658
 20
233.5344932847506
 30
0.0
 10
-265.4376830026687
 20
233.6241862212808
 30
0.0
 10
-265.5112770513762
 20
233.7173807156345
 30
0.0
 10
-265.5730876560833
 20
233.8157113477435
 30
0.0
 10
-265.6253424828333
 20
233.917286198204
 30
0.0
 10
-265.66659418588
 20
234.023422507907
 30
0.0
 10
-265.6955444487998
 20
234.1341003511152
 30
0.0
 10
-265.7153765243362
 20
234.2475975213977
 30
0.0
 10
-265.7236760371532
 20
234.3619725451174
 30
0.0
 10
-265.7210929251204
 20
234.4749644404301
 30
0.0
 10
-265.7067663605539
 20
234.5852794722497
 30
0.0
 10
-265.6826203195342
 20
234.693383848317
 30
0.0
 10
-265.6454385147723
 20
234.7980963965296
 30
0.0
 10
-265.5982718955772
 20
234.9006842143081
 30
0.0
 10
-265.5392774003373
 20
235.0003848779032
 30
0.0
 10
-265.4925102535601
 20
235.0631692353852
 30
0.0
 10
-265.4687877317138
 20
235.095016448538
 30
0.0
  0
SPLINE
  5
67
330
1F
100
AcDbEntity
  8
0
  6
Continuous
 62
     7
370
    25
100
AcDbSpline
210
0.0
220
0.0
230
1.0
 70
     8
 71
     3
 72
    23
 73
    19
 74
     0
 42
0.00000001
 43
0.00000001
 40
0.0
 40
0.0
 40
0.0
 40
0.0
 40
0.0701306354221765
 40
0.1376903454312716
 40
0.2023482754673376
 40
0.2656948053515525
 40
0.3277248564348796
 40
0.389669927044855
 40
0.4515653718306371
 40
0.5150932025763753
 40
0.5784563617564297
 40
0.6396714672633146
 40
0.6997048481827007
 40
0.7590661293607996
 40
0.8180371497882184
 40
0.8774782434960638
 40
0.9381357689648693
 40
1.0
 40
1.0
 40
1.0
 40
1.0
 10
-265.4687877317138
 20
235.095016448538
 30
0.0
 10
-265.4438277132143
 20
235.1251581299978
 30
0.0
 10
-265.3948226878287
 20
235.1843365262447
 30
0.0
 10
-265.3140689944345
 20
235.2634724008327
 30
0.0
 10
-265.2293691586873
 20
235.3324683397672
 30
0.0
 10
-265.1400857790185
 20
235.3899912661527
 30
0.0
 10
-265.046763306143
 20
235.4373094464569
 30
0.0
 10
-264.9499136126453
 20
235.4748629974482
 30
0.0
 10
-264.8484661306546
 20
235.5009157041581
 30
0.0
 10
-264.7440635669241
 20
235.5158790114795
 30
0.0
 10
-264.6391814135544
 20
235.5212971859725
 30
0.0
 10
-264.5361026144543
 20
235.5182353008037
 30
0.0
 10
-264.4361455568772
 20
235.5045744153544
 30
0.0
 10
-264.3389770761212
 20
235.4824901931984
 30
0.0
 10
-264.2452119796068
 20
235.4496832001492
 30
0.0
 10
-264.1542472473261
 20
235.4081731693218
 30
0.0
 10
-264.0662749478936
 20
235.3570889896582
 30
0.0
 10
-264.0114793882321
 20
235.3161887919014
 30
0.0
 10
-263.9838117701753
 20
235.2955372818708
 30
0.0
  0
SPLINE
  5
68
330
1F
100
AcDbEntity
  8
0
  6
Continuous
 62
     7
370
    25
100
AcDbSpline
210
0.0
220
0.0
230
1.0
 70
     8
 71
     3
 72
    19
 73
    15
 74
     0
 42
0.00000001
 43
0.00000001
 40
0.0
 40
0.0
 40
0.0
 40
0.0
 40
0.0989257489018278
 40
0.1962432531153417
 40
0.2934621867942188
 40
0.3926589375762408
 40
0.4457556287235021
 40
0.5053844819843412
 40
0.5712151489676542
 40
0.6437905451341396
 40
0.7227167770573266
 40
0.8086033289987853
 40
0.9008328184322641
 40
1.0
 40
1.0
 40
1.0
 40
1.0
 10
-263.9838117701753
 20
235.2955372818708
 30
0.0
 10
-263.9463627177373
 20
235.2643107530654
 30
0.0
 10
-263.8720734254335
 20
235.2023653479076
 30
0.0
 10
-263.7784716175692
 20
235.0916352651859
 30
0.0
 10
-263.6971296307942
 20
234.9718161154878
 30
0.0
 10
-263.6429732590462
 20
234.8611945938815
 30
0.0
 10
-263.6048047492665
 20
234.7641293746389
 30
0.0
 10
-263.5771221777131
 20
234.680705909631
 30
0.0
 10
-263.5497716505564
 20
234.5871649876863
 30
0.0
 10
-263.5233407267959
 20
234.4835228919184
 30
0.0
 10
-263.4976383028381
 20
234.3695738124745
 30
0.0
 10
-263.4714644045464
 20
234.2458243439118
 30
0.0
 10
-263.4471374862489
 20
234.1115560144076
 30
0.0
 10
-263.4321051762946
 20
234.0185867061983
 30
0.0
 10
-263.4243165778681
 20
233.9704170895629
 30
0.0
  0
LINE
  5
69
330
1F
100
AcDbEntity
  8
0
  6
Continuous
 62
     7
370
    25
100
AcDbLine
 10
-263.4243165779
 20
233.9704170896
 30
0.0
 11
-263.2251979881
 21
232.7105012242
 31
0.0
  0
LINE
  5
6A
330
1F
100
AcDbEntity
  8
0
  6
Continuous
 62
     7
370
    25
100
AcDbLine
 10
-263.2251979881
 20
232.7105012242
 30
0.0
 11
-262.2296050394
 21
233.9753249421
 31
0.0
  0
LINE
  5
6B
330
1F
100
AcDbEntity
  8
0
  6
Continuous
 62
     7
370
    25
100
AcDbLine
 10
-262.2296050394
 20
233.9753249421
 30
0.0
 11
-261.9652821227
 21
233.767091769
 31
0.0
  0
LINE
  5
6C
330
1F
100
AcDbEntity
  8
0
  6
Continuous
 62
     7
370
    25
100
AcDbLine
 10
-261.9652821227
 20
233.767091769
 30
0.0
 11
-263.4299255522
 21
231.9063145255
 31
0.0
  0
LINE
  5
6D
330
1F
100
AcDbEntity
  8
0
  6
Continuous
 62
     7
370
    25
100
AcDbLine
 10
-263.4299255522
 20
231.9063145255
 30
0.0
 11
-263.7363157766
 21
233.8428129229
 31
0.0
  0
SPLINE
  5
6E
330
1F
100
AcDbEntity
  8
0
  6
Continuous
 62
     7
370
    25
100
AcDbSpline
210
0.0
220
0.0
230
1.0
 70
     8
 71
     3
 72
    19
 73
    15
 74
     0
 42
0.00000001
 43
0.00000001
 40
0.0
 40
0.0
 40
0.0
 40
0.0
 40
0.1100076180784679
 40
0.211483983362999
 40
0.3045527270680376
 40
0.3890377838392463
 40
0.4645524678451945
 40
0.5322007390432618
 40
0.5910129293597312
 40
0.6421318499931803
 40
0.7340159623340179
 40
0.8233922939572019
 40
0.9112139639559729
 40
1.0
 40
1.0
 40
1.0
 40
1.0
 10
-263.7363157765861
 20
233.8428129228963
 30
0.0
 10
-263.743689775267
 20
233.8898042426104
 30
0.0
 10
-263.7578659081713
 20
233.9801426359891
 30
0.0
 10
-263.7799512565927
 20
234.1099786542809
 30
0.0
 10
-263.8034890436203
 20
234.2283170304852
 30
0.0
 10
-263.8254150375574
 20
234.3355312691684
 30
0.0
 10
-263.8480383652435
 20
234.4313407442441
 30
0.0
 10
-263.870018291923
 20
234.5158801906459
 30
0.0
 10
-263.8925448366114
 20
234.5893094705378
 30
0.0
 10
-263.9216570615647
 20
234.6716152118049
 30
0.0
 10
-263.9644293686309
 20
234.7628493415019
 30
0.0
 10
-264.0260538062469
 20
234.8618542859328
 30
0.0
 10
-264.1003841820627
 20
234.9503702219686
 30
0.0
 10
-264.1585809412451
 20
234.9999693081177
 30
0.0
 10
-264.187838212483
 20
235.0249042690504
 30
0.0
  0
SPLINE
  5
6F
330
1F
100
AcDbEntity
  8
0
  6
Continuous
 62
     7
370
    25
100
AcDbSpline
210
0.0
220
0.0
230
1.0
 70
     8
 71
     3
 72
    23
 73
    19
 74
     0
 42
0.00000001
 43
0.00000001
 40
0.0
 40
0.0
 40
0.0
 40
0.0
 40
0.0689429195981206
 40
0.1326014766243855
 40
0.1910176312536154
 40
0.2447500540819786
 40
0.2944100606433873
 40
0.3380530085643888
 40
0.3778550288647208
 40
0.4132262865569117
 40
0.4789890215432059
 40
0.5453344932589892
 40
0.6121636564700471
 40
0.6832164151352883
 40
0.7571622089103351
 40
0.8336459308521453
 40
0.9142729873582024
 40
1.0
 40
1.0
 40
1.0
 40
1.0
 10
-267.3138316938214
 20
231.7945348035146
 30
0.0
 10
-267.3311994179597
 20
231.8084684223411
 30
0.0
 10
-267.3646036584498
 20
231.8352676707901
 30
0.0
 10
-267.4115505561756
 20
231.875292947863
 30
0.0
 10
-267.4539693472185
 20
231.9130558928272
 30
0.0
 10
-267.4911904803133
 20
231.9497512850025
 30
0.0
 10
-267.5239042049128
 20
231.9842027779461
 30
0.0
 10
-267.5516372686994
 20
232.017044227836
 30
0.0
 10
-267.575224917618
 20
232.047405097257
 30
0.0
 10
-267.5981586593831
 20
232.0867936886279
 30
0.0
 10
-267.6208756850963
 20
232.1361621159537
 30
0.0
 10
-267.6358457266938
 20
232.1990081252731
 30
0.0
 10
-267.641543980354
 20
232.2649264073812
 30
0.0
 10
-267.6371686015803
 20
232.3334425147941
 30
0.0
 10
-267.6225318693485
 20
232.4037357777234
 30
0.0
 10
-267.5959696152404
 20
232.4737438388636
 30
0.0
 10
-267.5585021053243
 20
232.5429518041627
 30
0.0
 10
-267.5265906714956
 20
232.5862331111979
 30
0.0
 10
-267.5101457963852
 20
232.6085372073609
 30
0.0
  0
SPLINE
  5
70
330
1F
100
AcDbEntity
  8
0
  6
Continuous
 62
     7
370
    25
100
AcDbSpline
210
0.0
220
0.0
230
1.0
 70
     8
 71
     3
 72
    11
 73
     7
 74
     0
 42
0.00000001
 43
0.00000001
 40
0.0
 40
0.0
 40
0.0
 40
0.0
 40
0.2147960215739182
 40
0.4530359375345809
 40
0.714810849471916
 40
1.0
 40
1.0
 40
1.0
 40
1.0
 10
-267.5101457963852
 20
232.6085372073609
 30
0.0
 10
-267.4920669470573
 20
232.6301605688469
 30
0.0
 10
-267.4539360338546
 20
232.6757673718578
 30
0.0
 10
-267.3856858413254
 20
232.740230635313
 30
0.0
 10
-267.3073701185393
 20
232.8071367553213
 30
0.0
 10
-267.249404004627
 20
232.8494142390186
 30
0.0
 10
-267.2191802515133
 20
232.8714578804377
 30
0.0
  0
LINE
  5
71
330
1F
100
AcDbEntity
  8
0
  6
Continuous
 62
     7
370
    25
100
AcDbLine
 10
-267.2191802515
 20
232.8714578804
 30
0.0
 11
-266.9639719182
 21
232.6709370471
 31
0.0
  0
SPLINE
  5
72
330
1F
100
AcDbEntity
  8
0
  6
Continuous
 62
     7
370
    25
100
AcDbSpline
210
0.0
220
0.0
230
1.0
 70
     8
 71
     3
 72
    11
 73
     7
 74
     0
 42
0.00000001
 43
0.00000001
 40
0.0
 40
0.0
 40
0.0
 40
0.0
 40
0.2918655671941682
 40
0.5528141522773227
 40
0.7887879847415402
 40
0.9999999999999999
 40
0.9999999999999999
 40
0.9999999999999999
 40
0.9999999999999999
 10
-266.9639719181801
 20
232.6709370471042
 30
0.0
 10
-266.9913078095067
 20
232.655182470028
 30
0.0
 10
-267.0430839327941
 20
232.6253421800114
 30
0.0
 10
-267.1134929073912
 20
232.5770635459933
 30
0.0
 10
-267.1714878465897
 20
232.5267311026113
 30
0.0
 10
-267.2034044702045
 20
232.4903866736967
 30
0.0
 10
-267.2184791297186
 20
232.4732207009505
 30
0.0
  0
SPLINE
  5
73
330
1F
100
AcDbEntity
  8
0
  6
Continuous
 62
     7
370
    25
100
AcDbSpline
210
0.0
220
0.0
230
1.0
 70
     8
 71
     3
 72
    23
 73
    19
 74
     0
 42
0.00000001
 43
0.00000001
 40
0.0
 40
0.0
 40
0.0
 40
0.0
 40
0.0820179229324551
 40
0.1587487192136411
 40
0.2302761759068747
 40
0.2975117832625605
 40
0.3597297555003122
 40
0.4158457965830955
 40
0.4670599481977065
 40
0.5159467054888968
 40
0.5442715277905488
 40
0.5812025777257223
 40
0.6277615820515751
 40
0.6831581569543715
 40
0.7483667948762516
 40
0.8232763422031408
 40
0.9063038695547547
 40
1.0
 40
1.0
 40
1.0
 40
1.0
 10
-267.2184791297186
 20
232.4732207009505
 30
0.0
 10
-267.2276171884531
 20
232.4607777876461
 30
0.0
 10
-267.245304238653
 20
232.4366940693594
 30
0.0
 10
-267.2667677433186
 20
232.3988687939164
 30
0.0
 10
-267.2808988758965
 20
232.3606795320576
 30
0.0
 10
-267.2886137741604
 20
232.3235360452076
 30
0.0
 10
-267.2908684199592
 20
232.2885540984889
 30
0.0
 10
-267.2880098311728
 20
232.2566940063053
 30
0.0
 10
-267.2814459153831
 20
232.2278717766167
 30
0.0
 10
-267.2703138745064
 20
232.2060675057117
 30
0.0
 10
-267.2568285357551
 20
232.1893150623304
 30
0.0
 10
-267.2426781416472
 20
232.1737267723686
 30
0.0
 10
-267.2235963973862
 20
232.1558514816528
 30
0.0
 10
-267.2004615380427
 20
232.1345400449212
 30
0.0
 10
-267.1721177067076
 20
232.1110753567197
 30
0.0
 10
-267.1403806107091
 20
232.0835839787979
 30
0.0
 10
-267.1033208189422
 20
232.0541065129839
 30
0.0
 10
-267.0773176749382
 20
232.0333853988029
 30
0.0
 10
-267.0635312130522
 20
232.0223993868479
 30
0.0
  0
LINE
  5
74
330
1F
100
AcDbEntity
  8
0
  6
Continuous
 62
     7
370
    25
100
AcDbLine
 10
-267.0635312131
 20
232.0223993868
 30
0.0
 11
-266.7900937131
 21
231.8071549958
 31
0.0
  0
LINE
  5
75
330
1F
100
AcDbEntity
  8
0
  6
Continuous
 62
     7
370
    25
100
AcDbLine
 10
-266.7900937131
 20
231.8071549958
 30
0.0
 11
-266.4577619823
 21
232.2299314381
 31
0.0
  0
LINE
  5
76
330
1F
100
AcDbEntity
  8
0
  6
Continuous
 62
     7
370
    25
100
AcDbLine
 10
-266.4577619823
 20
232.2299314381
 30
0.0
 11
-266.2341041297
 21
232.0539498676
 31
0.0
  0
LINE
  5
77
330
1F
100
AcDbEntity
  8
0
  6
Continuous
 62
     7
370
    25
100
AcDbLine
 10
-266.2341041297
 20
232.0539498676
 30
0.0
 11
-266.5678381041
 21
231.6297711817
 31
0.0
  0
LINE
  5
78
330
1F
100
AcDbEntity
  8
0
  6
Continuous
 62
     7
370
    25
100
AcDbLine
 10
-266.5678381041
 20
231.6297711817
 30
0.0
 11
-264.7652539695
 21
230.2107006689
 31
0.0
  0
LINE
  5
79
330
1F
100
AcDbEntity
  8
0
  6
Continuous
 62
     7
370
    25
100
AcDbLine
 10
-264.7652539695
 20
230.2107006689
 30
0.0
 11
-264.9706826554
 21
229.9498833612
 31
0.0
  0
LINE
  5
7A
330
1F
100
AcDbEntity
  8
0
  6
Continuous
 62
     7
370
    25
100
AcDbLine
 10
-264.9706826554
 20
229.9498833612
 30
0.0
 11
-266.77326679
 21
231.368953874
 31
0.0
  0
LINE
  5
7B
330
1F
100
AcDbEntity
  8
0
  6
Continuous
 62
     7
370
    25
100
AcDbLine
 10
-266.77326679
 20
231.368953874
 30
0.0
 11
-266.9829022066
 21
231.102527592
 31
0.0
  0
LINE
  5
7C
330
1F
100
AcDbEntity
  8
0
  6
Continuous
 62
     7
370
    25
100
AcDbLine
 10
-266.9829022066
 20
231.102527592
 30
0.0
 11
-267.2065600592
 21
231.2785091625
 31
0.0
  0
LINE
  5
7D
330
1F
100
AcDbEntity
  8
0
  6
Continuous
 62
     7
370
    25
100
AcDbLine
 10
-267.2065600592
 20
231.2785091625
 30
0.0
 11
-266.9969246425
 21
231.5449354445
 31
0.0
  0
LINE
  5
7E
330
1F
100
AcDbEntity
  8
0
  6
Continuous
 62
     7
370
    25
100
AcDbLine
 10
-266.9969246425
 20
231.5449354445
 30
0.0
 11
-267.3138316938
 21
231.7945348035
 31
0.0
  0
LINE
  5
7F
330
1F
100
AcDbEntity
  8
0
  6
Continuous
 62
     7
370
    25
100
AcDbLine
 10
-266.6938532417
 20
227.7602759627
 30
0.0
 11
-266.8992819276
 21
227.499458655
 31
0.0
  0
LINE
  5
80
330
1F
100
AcDbEntity
  8
0
  6
Continuous
 62
     7
370
    25
100
AcDbLine
 10
-266.8992819276
 20
227.499458655
 30
0.0
 11
-268.9255239148
 21
229.0945107383
 31
0.0
  0
LINE
  5
81
330
1F
100
AcDbEntity
  8
0
  6
Continuous
 62
     7
370
    25
100
AcDbLine
 10
-268.9255239148
 20
229.0945107383
 30
0.0
 11
-268.7200952289
 21
229.355328046
 31
0.0
  0
LINE
  5
82
330
1F
100
AcDbEntity
  8
0
  6
Continuous
 62
     7
370
    25
100
AcDbLine
 10
-268.7200952289
 20
229.355328046
 30
0.0
 11
-268.3569141391
 21
229.0692703537
 31
0.0
  0
SPLINE
  5
83
330
1F
100
AcDbEntity
  8
0
  6
Continuous
 62
     7
370
    25
100
AcDbSpline
210
0.0
220
0.0
230
1.0
 70
     8
 71
     3
 72
    15
 73
    11
 74
     0
 42
0.00000001
 43
0.00000001
 40
0.0
 40
0.0
 40
0.0
 40
0.0
 40
0.1410462291506624
 40
0.2735728302022092
 40
0.400251246052957
 40
0.52148731300154
 40
0.6403779013151387
 40
0.7586985932713903
 40
0.8777764444292633
 40
1.0
 40
1.0
 40
1.0
 40
1.0
 10
-268.3569141391198
 20
229.0692703536785
 30
0.0
 10
-268.369689347175
 20
229.1216390807272
 30
0.0
 10
-268.3944681012412
 20
229.2232133018822
 30
0.0
 10
-268.4127250097519
 20
229.375378502754
 30
0.0
 10
-268.4144000461229
 20
229.5209225943337
 30
0.0
 10
-268.4000214614504
 20
229.6606351571717
 30
0.0
 10
-268.3681012314696
 20
229.7941696994425
 30
0.0
 10
-268.3200925494894
 20
229.9218009376507
 30
0.0
 10
-268.2561254338437
 20
230.0439333739056
 30
0.0
 10
-268.2015598249619
 20
230.1183272719677
 30
0.0
 10
-268.1739213506578
 20
230.1560091357298
 30
0.0
  0
SPLINE
  5
84
330
1F
100
AcDbEntity
  8
0
  6
Continuous
 62
     7
370
    25
100
AcDbSpline
210
0.0
220
0.0
230
1.0
 70
     8
 71
     3
 72
    23
 73
    19
 74
     0
 42
0.00000001
 43
0.00000001
 40
0.0
 40
0.0
 40
0.0
 40
0.0
 40
0.0759473009567631
 40
0.1491234694197593
 40
0.2207542357015327
 40
0.2922675999157829
 40
0.3635072816804352
 40
0.4332760555972313
 40
0.5030942218854689
 40
0.5748952302710076
 40
0.6134893457734268
 40
0.6556462994435273
 40
0.7019223163880208
 40
0.7526480105603108
 40
0.8077677851604199
 40
0.8672637229145489
 40
0.9313237081516098
 40
1.0
 40
1.0
 40
1.0
 40
1.0
 10
-268.1739213506578
 20
230.1560091357298
 30
0.0
 10
-268.1436146402878
 20
230.1918165371943
 30
0.0
 10
-268.0841070377772
 20
230.2621248150401
 30
0.0
 10
-267.9787210484341
 20
230.349339964618
 30
0.0
 10
-267.8650490252377
 20
230.4199731255209
 30
0.0
 10
-267.7424487305556
 20
230.4709247269499
 30
0.0
 10
-267.6152004738111
 20
230.5037473674226
 30
0.0
 10
-267.485483503319
 20
230.5186561467015
 30
0.0
 10
-267.354850469576
 20
230.5113628487636
 30
0.0
 10
-267.2452498007272
 20
230.4907058903339
 30
0.0
 10
-267.155576509076
 20
230.4618955323925
 30
0.0
 10
-267.083145818154
 20
230.4319133291992
 30
0.0
 10
-267.0057768790224
 20
230.3946746314949
 30
0.0
 10
-266.9239994221318
 20
230.3486358825637
 30
0.0
 10
-266.8369113541495
 20
230.2955561344511
 30
0.0
 10
-266.7459694507371
 20
230.2332917533616
 30
0.0
 10
-266.6497936074148
 20
230.1639719380694
 30
0.0
 10
-266.5850323042651
 20
230.1139046081893
 30
0.0
 10
-266.5515255173245
 20
230.0880003216265
 30
0.0
  0
LINE
  5
85
330
1F
100
AcDbEntity
  8
0
  6
Continuous
 62
     7
370
    25
100
AcDbLine
 10
-266.5515255173
 20
230.0880003216
 30
0.0
 11
-265.5082562866
 21
229.2669866998
 31
0.0
  0
LINE
  5
86
330
1F
100
AcDbEntity
  8
0
  6
Continuous
 62
     7
370
    25
100
AcDbLine
 10
-265.5082562866
 20
229.2669866998
 30
0.0
 11
-265.7115816071
 21
229.0082727575
 31
0.0
  0
LINE
  5
87
330
1F
100
AcDbEntity
  8
0
  6
Continuous
 62
     7
370
    25
100
AcDbLine
 10
-265.7115816071
 20
229.0082727575
 30
0.0
 11
-266.6784285622
 21
229.768989905
 31
0.0
  0
SPLINE
  5
88
330
1F
100
AcDbEntity
  8
0
  6
Continuous
 62
     7
370
    25
100
AcDbSpline
210
0.0
220
0.0
230
1.0
 70
     8
 71
     3
 72
    15
 73
    11
 74
     0
 42
0.00000001
 43
0.00000001
 40
0.0
 40
0.0
 40
0.0
 40
0.0
 40
0.1790292220994327
 40
0.3425174590123494
 40
0.4895707403883661
 40
0.6218698555014847
 40
0.7394639280857713
 40
0.8417982557087941
 40
0.928040129211001
 40
1.0
 40
1.0
 40
1.0
 40
1.0
 10
-266.6784285621964
 20
229.7689899049599
 30
0.0
 10
-266.7063916195766
 20
229.791064049423
 30
0.0
 10
-266.759890345917
 20
229.8332961486452
 30
0.0
 10
-266.8376418287116
 20
229.89200138988
 30
0.0
 10
-266.9086702386692
 20
229.9441639165757
 30
0.0
 10
-266.9731800574225
 20
229.9897451130106
 30
0.0
 10
-267.0310980041356
 20
230.0292449678766
 30
0.0
 10
-267.0828551978225
 20
230.0613987954584
 30
0.0
 10
-267.1278586228444
 20
230.0872172090631
 30
0.0
 10
-267.1562841450706
 20
230.1007672288047
 30
0.0
 10
-267.1692138186066
 20
230.1069306100883
 30
0.0
  0
SPLINE
  5
89
330
1F
100
AcDbEntity
  8
0
  6
Continuous
 62
     7
370
    25
100
AcDbSpline
210
0.0
220
0.0
230
1.0
 70
     8
 71
     3
 72
    15
 73
    11
 74
     0
 42
0.00000001
 43
0.00000001
 40
0.0
 40
0.0
 40
0.0
 40
0.0
 40
0.138134090269188
 40
0.2658737126620556
 40
0.3851158591838677
 40
0.5007042026286982
 40
0.6161294848586649
 40
0.7345792324096763
 40
0.8620001613825301
 40
1.0
 40
1.0
 40
1.0
 40
1.0
 10
-267.1692138186066
 20
230.1069306100883
 30
0.0
 10
-267.2075601427216
 20
230.1236248510766
 30
0.0
 10
-267.2813672640451
 20
230.1557571062135
 30
0.0
 10
-267.3955058242543
 20
230.1818623319516
 30
0.0
 10
-267.5054669910284
 20
230.188372144755
 30
0.0
 10
-267.6109893006288
 20
230.1733580477706
 30
0.0
 10
-267.7113241443486
 20
230.1383201745676
 30
0.0
 10
-267.8063154219815
 20
230.0834064664243
 30
0.0
 10
-267.8962773373274
 20
230.0090603367493
 30
0.0
 10
-267.9479412282717
 20
229.9475206178045
 30
0.0
 10
-267.9748027609144
 20
229.9155243600886
 30
0.0
  0
SPLINE
  5
8A
330
1F
100
AcDbEntity
  8
0
  6
Continuous
 62
     7
370
    25
100
AcDbSpline
210
0.0
220
0.0
230
1.0
 70
     8
 71
     3
 72
    23
 73
    19
 74
     0
 42
0.00000001
 43
0.00000001
 40
0.0
 40
0.0
 40
0.0
 40
0.0
 40
0.0628858308874485
 40
0.1251418879425237
 40
0.1856322686038149
 40
0.2464474944582553
 40
0.3080444982167721
 40
0.3694813609331996
 40
0.4326351724276564
 40
0.4972920044663982
 40
0.5620793027525414
 40
0.6255803524064624
 40
0.6881801969373937
 40
0.7501076040850848
 40
0.8121201738773776
 40
0.8741951220191071
 40
0.9361480902522508
 40
0.9999999999999999
 40
0.9999999999999999
 40
0.9999999999999999
 40
0.9999999999999999
 10
-267.9748027609144
 20
229.9155243600886
 30
0.0
 10
-267.9896426329186
 20
229.8956676412711
 30
0.0
 10
-268.0191737621609
 20
229.8561530599085
 30
0.0
 10
-268.0568111658976
 20
229.7932715881456
 30
0.0
 10
-268.0880045206899
 20
229.7279141936171
 30
0.0
 10
-268.1132219844688
 20
229.6603288224097
 30
0.0
 10
-268.1331447560995
 20
229.590558015627
 30
0.0
 10
-268.1454235078085
 20
229.5181283466173
 30
0.0
 10
-268.1526814574175
 20
229.4438409521626
 30
0.0
 10
-268.1530420414501
 20
229.3678653732088
 30
0.0
 10
-268.1482939167582
 20
229.291940404214
 30
0.0
 10
-268.1378581653158
 20
229.2173598980563
 30
0.0
 10
-268.1214223623286
 20
229.1450683988328
 30
0.0
 10
-268.1008042980764
 20
229.0744259025328
 30
0.0
 10
-268.072962519772
 20
229.0065141360087
 30
0.0
 10
-268.0408357045093
 20
228.9405957001904
 30
0.0
 10
-268.0035076875252
 20
228.8765206017642
 30
0.0
 10
-267.9742352329142
 20
228.8364852269186
 30
0.0
 10
-267.9593780814276
 20
228.8161653857296
 30
0.0
  0
SPLINE
  5
8B
330
1F
100
AcDbEntity
  8
0
  6
Continuous
 62
     7
370
    25
100
AcDbSpline
210
0.0
220
0.0
230
1.0
 70
     8
 71
     3
 72
    15
 73
    11
 74
     0
 42
0.00000001
 43
0.00000001
 40
0.0
 40
0.0
 40
0.0
 40
0.0
 40
0.076950089431139
 40
0.1670509945777184
 40
0.2711793346443775
 40
0.3887786751876486
 40
0.5213189882599972
 40
0.6660458919108194
 40
0.825804285228375
 40
1.0
 40
1.0
 40
1.0
 40
1.0
 10
-267.9593780814276
 20
228.8161653857296
 30
0.0
 10
-267.9478453313594
 20
228.8022413392989
 30
0.0
 10
-267.9228088774271
 20
228.7720136186816
 30
0.0
 10
-267.8786637023122
 20
228.7260497018345
 30
0.0
 10
-267.8271941207021
 20
228.6739259758678
 30
0.0
 10
-267.7654727243245
 20
228.6180728707967
 30
0.0
 10
-267.6959357779106
 20
228.5567045126223
 30
0.0
 10
-267.6174417394169
 20
228.4905442324059
 30
0.0
 10
-267.5307255491386
 20
228.4189714737294
 30
0.0
 10
-267.4691573074025
 20
228.3703652896209
 30
0.0
 10
-267.4370423442483
 20
228.3450115395756
 30
0.0
  0
LINE
  5
8C
330
1F
100
AcDbEntity
  8
0
  6
Continuous
 62
     7
370
    25
100
AcDbLine
 10
-267.4370423442
 20
228.3450115396
 30
0.0
 11
-266.6938532417
 21
227.7602759627
 31
0.0
  0
LINE
  5
8D
330
1F
100
AcDbEntity
  8
0
  6
Continuous
 62
     7
370
    25
100
AcDbLine
 10
-267.3466571874
 20
226.9309111511
 30
0.0
 11
-267.5619015784
 21
226.6574736511
 31
0.0
  0
LINE
  5
8E
330
1F
100
AcDbEntity
  8
0
  6
Continuous
 62
     7
370
    25
100
AcDbLine
 10
-267.5619015784
 20
226.6574736511
 30
0.0
 11
-270.301184431
 21
228.8134231703
 31
0.0
  0
LINE
  5
8F
330
1F
100
AcDbEntity
  8
0
  6
Continuous
 62
     7
370
    25
100
AcDbLine
 10
-270.301184431
 20
228.8134231703
 30
0.0
 11
-270.08594004
 21
229.0868606703
 31
0.0
  0
LINE
  5
90
330
1F
100
AcDbEntity
  8
0
  6
Continuous
 62
     7
370
    25
100
AcDbLine
 10
-270.08594004
 20
229.0868606703
 30
0.0
 11
-267.3466571874
 21
226.9309111511
 31
0.0
  0
LINE
  5
91
330
1F
100
AcDbEntity
  8
0
  6
Continuous
 62
     7
370
    25
100
AcDbLine
 10
-270.0244795408
 20
223.5293172893
 30
0.0
 11
-270.2299082267
 21
223.2684999816
 31
0.0
  0
LINE
  5
92
330
1F
100
AcDbEntity
  8
0
  6
Continuous
 62
     7
370
    25
100
AcDbLine
 10
-270.2299082267
 20
223.2684999816
 30
0.0
 11
-272.2561502139
 21
224.8635520649
 31
0.0
  0
LINE
  5
93
330
1F
100
AcDbEntity
  8
0
  6
Continuous
 62
     7
370
    25
100
AcDbLine
 10
-272.2561502139
 20
224.8635520649
 30
0.0
 11
-272.050721528
 21
225.1243693726
 31
0.0
  0
LINE
  5
94
330
1F
100
AcDbEntity
  8
0
  6
Continuous
 62
     7
370
    25
100
AcDbLine
 10
-272.050721528
 20
225.1243693726
 30
0.0
 11
-271.6875404383
 21
224.8383116803
 31
0.0
  0
SPLINE
  5
95
330
1F
100
AcDbEntity
  8
0
  6
Continuous
 62
     7
370
    25
100
AcDbSpline
210
0.0
220
0.0
230
1.0
 70
     8
 71
     3
 72
    15
 73
    11
 74
     0
 42
0.00000001
 43
0.00000001
 40
0.0
 40
0.0
 40
0.0
 40
0.0
 40
0.1410462291506624
 40
0.2735728302022092
 40
0.400251246052957
 40
0.52148731300154
 40
0.6403779013151387
 40
0.7586985932713903
 40
0.8777764444292633
 40
1.0
 40
1.0
 40
1.0
 40
1.0
 10
-271.6875404382633
 20
224.8383116803173
 30
0.0
 10
-271.7003156463185
 20
224.890680407366
 30
0.0
 10
-271.7250944003847
 20
224.9922546285209
 30
0.0
 10
-271.7433513088954
 20
225.1444198293928
 30
0.0
 10
-271.7450263452664
 20
225.2899639209724
 30
0.0
 10
-271.730647760594
 20
225.4296764838105
 30
0.0
 10
-271.698727530613
 20
225.5632110260813
 30
0.0
 10
-271.6507188486329
 20
225.6908422642894
 30
0.0
 10
-271.5867517329872
 20
225.8129747005444
 30
0.0
 10
-271.5321861241054
 20
225.8873685986065
 30
0.0
 10
-271.5045476498013
 20
225.9250504623685
 30
0.0
  0
SPLINE
  5
96
330
1F
100
AcDbEntity
  8
0
  6
Continuous
 62
     7
370
    25
100
AcDbSpline
210
0.0
220
0.0
230
1.0
 70
     8
 71
     3
 72
    23
 73
    19
 74
     0
 42
0.00000001
 43
0.00000001
 40
0.0
 40
0.0
 40
0.0
 40
0.0
 40
0.0759473009567631
 40
0.1491234694197593
 40
0.2207542357015327
 40
0.2922675999157829
 40
0.3635072816804352
 40
0.4332760555972313
 40
0.5030942218854689
 40
0.5748952302710076
 40
0.6134893457734268
 40
0.6556462994435273
 40
0.7019223163880208
 40
0.7526480105603108
 40
0.8077677851604199
 40
0.8672637229145489
 40
0.9313237081516098
 40
1.0
 40
1.0
 40
1.0
 40
1.0
 10
-271.5045476498013
 20
225.9250504623685
 30
0.0
 10
-271.4742409394313
 20
225.9608578638331
 30
0.0
 10
-271.4147333369208
 20
226.0311661416789
 30
0.0
 10
-271.3093473475776
 20
226.1183812912568
 30
0.0
 10
-271.1956753243813
 20
226.1890144521597
 30
0.0
 10
-271.073075029699
 20
226.2399660535887
 30
0.0
 10
-270.9458267729547
 20
226.2727886940614
 30
0.0
 10
-270.8161098024626
 20
226.2876974733404
 30
0.0
 10
-270.6854767687195
 20
226.2804041754024
 30
0.0
 10
-270.5758760998707
 20
226.2597472169726
 30
0.0
 10
-270.4862028082195
 20
226.2309368590313
 30
0.0
 10
-270.4137721172975
 20
226.200954655838
 30
0.0
 10
-270.336403178166
 20
226.1637159581337
 30
0.0
 10
-270.2546257212753
 20
226.1176772092025
 30
0.0
 10
-270.1675376532932
 20
226.0645974610899
 30
0.0
 10
-270.0765957498807
 20
226.0023330800003
 30
0.0
 10
-269.9804199065583
 20
225.9330132647083
 30
0.0
 10
-269.9156586034086
 20
225.8829459348281
 30
0.0
 10
-269.882151816468
 20
225.8570416482653
 30
0.0
  0
LINE
  5
97
330
1F
100
AcDbEntity
  8
0
  6
Continuous
 62
     7
370
    25
100
AcDbLine
 10
-269.8821518165
 20
225.8570416483
 30
0.0
 11
-268.8388825857
 21
225.0360280265
 31
0.0
  0
LINE
  5
98
330
1F
100
AcDbEntity
  8
0
  6
Continuous
 62
     7
370
    25
100
AcDbLine
 10
-268.8388825857
 20
225.0360280265
 30
0.0
 11
-269.0422079062
 21
224.7773140842
 31
0.0
  0
LINE
  5
99
330
1F
100
AcDbEntity
  8
0
  6
Continuous
 62
     7
370
    25
100
AcDbLine
 10
-269.0422079062
 20
224.7773140842
 30
0.0
 11
-270.0090548613
 21
225.5380312316
 31
0.0
  0
SPLINE
  5
9A
330
1F
100
AcDbEntity
  8
0
  6
Continuous
 62
     7
370
    25
100
AcDbSpline
210
0.0
220
0.0
230
1.0
 70
     8
 71
     3
 72
    15
 73
    11
 74
     0
 42
0.00000001
 43
0.00000001
 40
0.0
 40
0.0
 40
0.0
 40
0.0
 40
0.1790292220994327
 40
0.3425174590123494
 40
0.4895707403883661
 40
0.6218698555014847
 40
0.7394639280857713
 40
0.8417982557087941
 40
0.928040129211001
 40
1.0
 40
1.0
 40
1.0
 40
1.0
 10
-270.00905486134
 20
225.5380312315987
 30
0.0
 10
-270.03701791872
 20
225.5601053760618
 30
0.0
 10
-270.0905166450605
 20
225.6023374752839
 30
0.0
 10
-270.1682681278552
 20
225.6610427165188
 30
0.0
 10
-270.2392965378126
 20
225.7132052432144
 30
0.0
 10
-270.303806356566
 20
225.7587864396494
 30
0.0
 10
-270.3617243032791
 20
225.7982862945154
 30
0.0
 10
-270.4134814969659
 20
225.8304401220972
 30
0.0
 10
-270.4584849219879
 20
225.8562585357018
 30
0.0
 10
-270.4869104442141
 20
225.8698085554435
 30
0.0
 10
-270.4998401177501
 20
225.8759719367271
 30
0.0
  0
SPLINE
  5
9B
330
1F
100
AcDbEntity
  8
0
  6
Continuous
 62
     7
370
    25
100
AcDbSpline
210
0.0
220
0.0
230
1.0
 70
     8
 71
     3
 72
    15
 73
    11
 74
     0
 42
0.00000001
 43
0.00000001
 40
0.0
 40
0.0
 40
0.0
 40
0.0
 40
0.138134090269188
 40
0.2658737126620556
 40
0.3851158591838677
 40
0.5007042026286982
 40
0.6161294848586649
 40
0.7345792324096763
 40
0.8620001613825301
 40
1.0
 40
1.0
 40
1.0
 40
1.0
 10
-270.4998401177501
 20
225.8759719367271
 30
0.0
 10
-270.5381864418652
 20
225.8926661777154
 30
0.0
 10
-270.6119935631887
 20
225.9247984328523
 30
0.0
 10
-270.7261321233978
 20
225.9509036585903
 30
0.0
 10
-270.8360932901719
 20
225.9574134713938
 30
0.0
 10
-270.9416155997723
 20
225.9423993744093
 30
0.0
 10
-271.0419504434922
 20
225.9073615012064
 30
0.0
 10
-271.136941721125
 20
225.8524477930631
 30
0.0
 10
-271.2269036364709
 20
225.7781016633881
 30
0.0
 10
-271.2785675274152
 20
225.7165619444432
 30
0.0
 10
-271.3054290600579
 20
225.6845656867274
 30
0.0
  0
SPLINE
  5
9C
330
1F
100
AcDbEntity
  8
0
  6
Continuous
 62
     7
370
    25
100
AcDbSpline
210
0.0
220
0.0
230
1.0
 70
     8
 71
     3
 72
    23
 73
    19
 74
     0
 42
0.00000001
 43
0.00000001
 40
0.0
 40
0.0
 40
0.0
 40
0.0
 40
0.0628858308874485
 40
0.1251418879425237
 40
0.1856322686038149
 40
0.2464474944582553
 40
0.3080444982167721
 40
0.3694813609331996
 40
0.4326351724276564
 40
0.4972920044663982
 40
0.5620793027525414
 40
0.6255803524064624
 40
0.6881801969373937
 40
0.7501076040850848
 40
0.8121201738773776
 40
0.8741951220191071
 40
0.9361480902522508
 40
0.9999999999999999
 40
0.9999999999999999
 40
0.9999999999999999
 40
0.9999999999999999
 10
-271.3054290600579
 20
225.6845656867274
 30
0.0
 10
-271.3202689320622
 20
225.6647089679099
 30
0.0
 10
-271.3498000613044
 20
225.6251943865472
 30
0.0
 10
-271.387437465041
 20
225.5623129147844
 30
0.0
 10
-271.4186308198335
 20
225.4969555202558
 30
0.0
 10
-271.4438482836123
 20
225.4293701490484
 30
0.0
 10
-271.4637710552431
 20
225.3595993422657
 30
0.0
 10
-271.476049806952
 20
225.2871696732562
 30
0.0
 10
-271.483307756561
 20
225.2128822788014
 30
0.0
 10
-271.4836683405937
 20
225.1369066998476
 30
0.0
 10
-271.4789202159017
 20
225.0609817308527
 30
0.0
 10
-271.4684844644594
 20
224.9864012246951
 30
0.0
 10
-271.4520486614721
 20
224.9141097254716
 30
0.0
 10
-271.43143059722
 20
224.8434672291716
 30
0.0
 10
-271.4035888189155
 20
224.7755554626476
 30
0.0
 10
-271.3714620036529
 20
224.7096370268291
 30
0.0
 10
-271.3341339866687
 20
224.645561928403
 30
0.0
 10
-271.3048615320578
 20
224.6055265535573
 30
0.0
 10
-271.2900043805711
 20
224.5852067123684
 30
0.0
  0
SPLINE
  5
9D
330
1F
100
AcDbEntity
  8
0
  6
Continuous
 62
     7
370
    25
100
AcDbSpline
210
0.0
220
0.0
230
1.0
 70
     8
 71
     3
 72
    15
 73
    11
 74
     0
 42
0.00000001
 43
0.00000001
 40
0.0
 40
0.0
 40
0.0
 40
0.0
 40
0.076950089431139
 40
0.1670509945777184
 40
0.2711793346443775
 40
0.3887786751876486
 40
0.5213189882599972
 40
0.6660458919108194
 40
0.825804285228375
 40
1.0
 40
1.0
 40
1.0
 40
1.0
 10
-271.2900043805711
 20
224.5852067123684
 30
0.0
 10
-271.2784716305028
 20
224.5712826659377
 30
0.0
 10
-271.2534351765705
 20
224.5410549453204
 30
0.0
 10
-271.2092900014557
 20
224.4950910284733
 30
0.0
 10
-271.1578204198457
 20
224.4429673025066
 30
0.0
 10
-271.096099023468
 20
224.3871141974355
 30
0.0
 10
-271.026562077054
 20
224.3257458392611
 30
0.0
 10
-270.9480680385604
 20
224.2595855590448
 30
0.0
 10
-270.8613518482821
 20
224.1880128003682
 30
0.0
 10
-270.7997836065459
 20
224.1394066162597
 30
0.0
 10
-270.7676686433918
 20
224.1140528662144
 30
0.0
  0
LINE
  5
9E
330
1F
100
AcDbEntity
  8
0
  6
Continuous
 62
     7
370
    25
100
AcDbLine
 10
-270.7676686434
 20
224.1140528662
 30
0.0
 11
-270.0244795408
 21
223.5293172893
 31
0.0
  0
SPLINE
  5
9F
330
1F
100
AcDbEntity
  8
0
  6
Continuous
 62
     7
370
    25
100
AcDbSpline
210
0.0
220
0.0
230
1.0
 70
     8
 71
     3
 72
    15
 73
    11
 74
     0
 42
0.00000001
 43
0.00000001
 40
0.0
 40
0.0
 40
0.0
 40
0.0
 40
0.129432390390918
 40
0.2550670920487926
 40
0.3789517016337684
 40
0.5015590765200771
 40
0.6232348004217626
 40
0.7463843085780419
 40
0.8718339505277353
 40
1.0
 40
1.0
 40
1.0
 40
1.0
 10
-273.2844630819237
 20
221.461396708835
 30
0.0
 10
-273.3184831793534
 20
221.489243633936
 30
0.0
 10
-273.3855251871258
 20
221.5441204247188
 30
0.0
 10
-273.4747443886018
 20
221.6371673355355
 30
0.0
 10
-273.5541770988769
 20
221.7355004548109
 30
0.0
 10
-273.6241493650509
 20
221.8392895393491
 30
0.0
 10
-273.6825020597216
 20
221.9497463866075
 30
0.0
 10
-273.7310737441652
 20
222.0658046736201
 30
0.0
 10
-273.7693941582
 20
222.1880967631214
 30
0.0
 10
-273.7858583561068
 20
222.2726391210957
 30
0.0
 10
-273.7941786267951
 20
222.315363054989
 30
0.0
  0
SPLINE
  5
A0
330
1F
100
AcDbEntity
  8
0
  6
Continuous
 62
     7
370
    25
100
AcDbSpline
210
0.0
220
0.0
230
1.0
 70
     8
 71
     3
 72
    15
 73
    11
 74
     0
 42
0.00000001
 43
0.00000001
 40
0.0
 40
0.0
 40
0.0
 40
0.0
 40
0.1288122403692981
 40
0.253535149584144
 40
0.3755543016646741
 40
0.4969657126507283
 40
0.618657745956531
 40
0.7418801697655655
 40
0.8685859991785861
 40
1.0
 40
1.0
 40
1.0
 40
1.0
 10
-273.7941786267951
 20
222.315363054989
 30
0.0
 10
-273.8010497923162
 20
222.3627075116783
 30
0.0
 10
-273.8145739882559
 20
222.4558934067009
 30
0.0
 10
-273.8169011956891
 20
222.5956161295964
 30
0.0
 10
-273.8051279562688
 20
222.7319480225309
 30
0.0
 10
-273.7784291089138
 20
222.8651058783867
 30
0.0
 10
-273.7365376825604
 20
222.9947024275627
 30
0.0
 10
-273.6809535029873
 20
223.121174205959
 30
0.0
 10
-273.609604470191
 20
223.2437983364155
 30
0.0
 10
-273.5525786213792
 20
223.320820828417
 30
0.0
 10
-273.5235456139741
 20
223.3600345293478
 30
0.0
  0
SPLINE
  5
A1
330
1F
100
AcDbEntity
  8
0
  6
Continuous
 62
     7
370
    25
100
AcDbSpline
210
0.0
220
0.0
230
1.0
 70
     8
 71
     3
 72
    15
 73
    11
 74
     0
 42
0.00000001
 43
0.00000001
 40
0.0
 40
0.0
 40
0.0
 40
0.0
 40
0.1312782064141992
 40
0.2577901855513883
 40
0.3816796387021819
 40
0.5036192344987076
 40
0.6243489923502997
 40
0.7464653502436054
 40
0.8714350334840376
 40
1.0
 40
1.0
 40
1.0
 40
1.0
 10
-273.5235456139741
 20
223.3600345293478
 30
0.0
 10
-273.4924971791631
 20
223.3974014559126
 30
0.0
 10
-273.4315275636446
 20
223.4707786538173
 30
0.0
 10
-273.3286551900682
 20
223.5678603434605
 30
0.0
 10
-273.2200398239844
 20
223.6528855427374
 30
0.0
 10
-273.1036324186849
 20
223.7229067943781
 30
0.0
 10
-272.9813775129805
 20
223.7805299021199
 30
0.0
 10
-272.8521941477446
 20
223.8238764849176
 30
0.0
 10
-272.7163735771671
 20
223.8546550980103
 30
0.0
 10
-272.62298525926
 20
223.8637406401595
 30
0.0
 10
-272.5756289473072
 20
223.8683478306295
 30
0.0
  0
SPLINE
  5
A2
330
1F
100
AcDbEntity
  8
0
  6
Continuous
 62
     7
370
    25
100
AcDbSpline
210
0.0
220
0.0
230
1.0
 70
     8
 71
     3
 72
    15
 73
    11
 74
     0
 42
0.00000001
 43
0.00000001
 40
0.0
 40
0.0
 40
0.0
 40
0.0
 40
0.1277593401716387
 40
0.25299736298103
 40
0.3760421718039148
 40
0.4981175938488765
 40
0.6201949469016973
 40
0.74397514498648
 40
0.8702105582989629
 40
1.0
 40
1.0
 40
1.0
 40
1.0
 10
-272.5756289473072
 20
223.8683478306295
 30
0.0
 10
-272.5321578015583
 20
223.8703853656911
 30
0.0
 10
-272.446073408625
 20
223.8744202252705
 30
0.0
 10
-272.3181499079723
 20
223.8652221893093
 30
0.0
 10
-272.1934047198792
 20
223.8460291565204
 30
0.0
 10
-272.0723361224924
 20
223.8140971588819
 30
0.0
 10
-271.9545686929859
 20
223.7710142565857
 30
0.0
 10
-271.8399112381036
 20
223.7168614513309
 30
0.0
 10
-271.7283724000933
 20
223.6509542715577
 30
0.0
 10
-271.6587831693354
 20
223.5984100967636
 30
0.0
 10
-271.6235055498715
 20
223.5717733113984
 30
0.0
  0
SPLINE
  5
A3
330
1F
100
AcDbEntity
  8
0
  6
Continuous
 62
     7
370
    25
100
AcDbSpline
210
0.0
220
0.0
230
1.0
 70
     8
 71
     3
 72
    23
 73
    19
 74
     0
 42
0.00000001
 43
0.00000001
 40
0.0
 40
0.0
 40
0.0
 40
0.0
 40
0.0628409211761216
 40
0.1241117384812424
 40
0.1843820605444066
 40
0.2443677589119859
 40
0.30426680235737
 40
0.365121248173001
 40
0.4271715098095675
 40
0.4912462778143377
 40
0.5550816665460134
 40
0.617582333944205
 40
0.6794446215495156
 40
0.7407430963953031
 40
0.8028594106599719
 40
0.8664897596808493
 40
0.9319966230622986
 40
1.0
 40
1.0
 40
1.0
 40
1.0
 10
-271.6235055498715
 20
223.5717733113984
 30
0.0
 10
-271.5893096304443
 20
223.543399713276
 30
0.0
 10
-271.5217721894007
 20
223.4873614419709
 30
0.0
 10
-271.4308614545651
 20
223.3935733096642
 30
0.0
 10
-271.3515324749897
 20
223.2925431484089
 30
0.0
 10
-271.2815370997811
 20
223.185953625201
 30
0.0
 10
-271.2231055961118
 20
223.0721039093948
 30
0.0
 10
-271.1754125852748
 20
222.9518333190786
 30
0.0
 10
-271.1382190494254
 20
222.8248536551002
 30
0.0
 10
-271.1117010297893
 20
222.6930568885518
 30
0.0
 10
-271.0977107852938
 20
222.5590242348322
 30
0.0
 10
-271.0964560557661
 20
222.4257699746445
 30
0.0
 10
-271.1106727979222
 20
222.2950284158545
 30
0.0
 10
-271.1390090444967
 20
222.1669374653449
 30
0.0
 10
-271.1814372374707
 20
222.041461391407
 30
0.0
 10
-271.2379545085041
 20
221.9184648378244
 30
0.0
 10
-271.308100602601
 20
221.7977175949439
 30
0.0
 10
-271.3647057807734
 20
221.7221451211343
 30
0.0
 10
-271.3935376011543
 20
221.6836523178085
 30
0.0
  0
SPLINE
  5
A4
330
1F
100
AcDbEntity
  8
0
  6
Continuous
 62
     7
370
    25
100
AcDbSpline
210
0.0
220
0.0
230
1.0
 70
     8
 71
     3
 72
    23
 73
    19
 74
     0
 42
0.00000001
 43
0.00000001
 40
0.0
 40
0.0
 40
0.0
 40
0.0
 40
0.0683890059345759
 40
0.1340261009854017
 40
0.1975251206795102
 40
0.2595633983709834
 40
0.3213082075550163
 40
0.3827395038703685
 40
0.4452254388651566
 40
0.5092190213423802
 40
0.573018829579535
 40
0.6351835834900993
 40
0.6959058032788114
 40
0.7558250612464763
 40
0.8155711128237928
 40
0.8760097191077153
 40
0.9373005683392607
 40
1.0
 40
1.0
 40
1.0
 40
1.0
 10
-271.3935376011543
 20
221.6836523178085
 30
0.0
 10
-271.4243827223128
 20
221.6463224710371
 30
0.0
 10
-271.4848317852404
 20
221.5731648962955
 30
0.0
 10
-271.5858980978368
 20
221.4761771679347
 30
0.0
 10
-271.692066274395
 20
221.3920151667278
 30
0.0
 10
-271.8044772820097
 20
221.321320607842
 30
0.0
 10
-271.9224605666097
 20
221.2637127283637
 30
0.0
 10
-272.0462801070381
 20
221.2189736162325
 30
0.0
 10
-272.1759508462927
 20
221.1884105695428
 30
0.0
 10
-272.3095855003095
 20
221.1704550071718
 30
0.0
 10
-272.4440746169868
 20
221.1649651340977
 30
0.0
 10
-272.5761787003747
 20
221.1711686978924
 30
0.0
 10
-272.7045585738219
 20
221.1889800826987
 30
0.0
 10
-272.8283648500387
 20
221.2207592525632
 30
0.0
 10
-272.9492695753729
 20
221.2616392860668
 30
0.0
 10
-273.0657179253054
 20
221.3162623204014
 30
0.0
 10
-273.1787744124649
 20
221.3819825194456
 30
0.0
 10
-273.2489677168206
 20
221.4347255844735
 30
0.0
 10
-273.2844630819237
 20
221.461396708835
 30
0.0
  0
LINE
  5
A5
330
1F
100
AcDbEntity
  8
0
  6
Continuous
 62
     7
370
    25
100
AcDbLine
 10
-272.635162038
 20
220.2131648623
 30
0.0
 11
-272.8412918457
 21
219.950945311
 31
0.0
  0
LINE
  5
A6
330
1F
100
AcDbEntity
  8
0
  6
Continuous
 62
     7
370
    25
100
AcDbLine
 10
-272.8412918457
 20
219.950945311
 30
0.0
 11
-274.8675338329
 21
221.5459973944
 31
0.0
  0
LINE
  5
A7
330
1F
100
AcDbEntity
  8
0
  6
Continuous
 62
     7
370
    25
100
AcDbLine
 10
-274.8675338329
 20
221.5459973944
 30
0.0
 11
-274.6614040252
 21
221.8082169456
 31
0.0
  0
LINE
  5
A8
330
1F
100
AcDbEntity
  8
0
  6
Continuous
 62
     7
370
    25
100
AcDbLine
 10
-274.6614040252
 20
221.8082169456
 30
0.0
 11
-272.635162038
 21
220.2131648623
 31
0.0
  0
SPLINE
  5
A9
330
1F
100
AcDbEntity
  8
0
  6
Continuous
 62
     7
370
    25
100
AcDbSpline
210
0.0
220
0.0
230
1.0
 70
     8
 71
     3
 72
    15
 73
    11
 74
     0
 42
0.00000001
 43
0.00000001
 40
0.0
 40
0.0
 40
0.0
 40
0.0
 40
0.1262912006276011
 40
0.2475980933761162
 40
0.3708358375193196
 40
0.4996510085672456
 40
0.6290894824695014
 40
0.751880138689339
 40
0.8732423091317681
 40
1.0
 40
1.0
 40
1.0
 40
1.0
 10
-275.1690162047148
 20
221.9940142212834
 30
0.0
 10
-275.1808355950615
 20
221.9803097896467
 30
0.0
 10
-275.2040079023968
 20
221.9534417962539
 30
0.0
 10
-275.2485078218532
 20
221.9238535675766
 30
0.0
 10
-275.2974550964894
 20
221.902109225658
 30
0.0
 10
-275.3512519326691
 20
221.8915191283693
 30
0.0
 10
-275.4058387292421
 20
221.8899335024546
 30
0.0
 10
-275.4588259299685
 20
221.898190971392
 30
0.0
 10
-275.5087359491682
 20
221.9174487494098
 30
0.0
 10
-275.5377217625599
 20
221.9379617634725
 30
0.0
 10
-275.5525298265097
 20
221.9484413046168
 30
0.0
  0
SPLINE
  5
AA
330
1F
100
AcDbEntity
  8
0
  6
Continuous
 62
     7
370
    25
100
AcDbSpline
210
0.0
220
0.0
230
1.0
 70
     8
 71
     3
 72
    15
 73
    11
 74
     0
 42
0.00000001
 43
0.00000001
 40
0.0
 40
0.0
 40
0.0
 40
0.0
 40
0.1281898775052265
 40
0.2500368631370531
 40
0.3728751552305282
 40
0.5012727960447035
 40
0.6302917193938926
 40
0.7526843727157096
 40
0.8736531704290073
 40
1.0
 40
1.0
 40
1.0
 40
1.0
 10
-275.5525298265097
 20
221.9484413046168
 30
0.0
 10
-275.5664224013094
 20
221.9605234959855
 30
0.0
 10
-275.5935201401591
 20
221.9840900465467
 30
0.0
 10
-275.6242071324699
 20
222.028391623222
 30
0.0
 10
-275.6457893518512
 20
222.0776151164968
 30
0.0
 10
-275.6564402792386
 20
222.1313688634362
 30
0.0
 10
-275.658009468214
 20
222.1859673031801
 30
0.0
 10
-275.649756173222
 20
222.2389515472755
 30
0.0
 10
-275.6304973186575
 20
222.2888623290516
 30
0.0
 10
-275.6099844524005
 20
222.3178480377446
 30
0.0
 10
-275.5995049867659
 20
222.3326560482066
 30
0.0
  0
SPLINE
  5
AB
330
1F
100
AcDbEntity
  8
0
  6
Continuous
 62
     7
370
    25
100
AcDbSpline
210
0.0
220
0.0
230
1.0
 70
     8
 71
     3
 72
    15
 73
    11
 74
     0
 42
0.00000001
 43
0.00000001
 40
0.0
 40
0.0
 40
0.0
 40
0.0
 40
0.127665984983951
 40
0.2490150005283331
 40
0.3713512712155795
 40
0.4992241704115271
 40
0.6277672405708639
 40
0.7499305060159621
 40
0.8719205208645028
 40
0.9999999999999999
 40
0.9999999999999999
 40
0.9999999999999999
 40
0.9999999999999999
 10
-275.5995049867659
 20
222.3326560482066
 30
0.0
 10
-275.587422752964
 20
222.3465506111231
 30
0.0
 10
-275.5638561196361
 20
222.3736522278335
 30
0.0
 10
-275.5195551417817
 20
222.4043111636828
 30
0.0
 10
-275.4703293452956
 20
222.426001295071
 30
0.0
 10
-275.4165773186343
 20
222.4362310548144
 30
0.0
 10
-275.361898607065
 20
222.4393729279369
 30
0.0
 10
-275.3088975174371
 20
222.4294446131206
 30
0.0
 10
-275.2582014413953
 20
222.4108119394933
 30
0.0
 10
-275.2288970117722
 20
222.3897285057938
 30
0.0
 10
-275.2138879995864
 20
222.378930086668
 30
0.0
  0
SPLINE
  5
AC
330
1F
100
AcDbEntity
  8
0
  6
Continuous
 62
     7
370
    25
100
AcDbSpline
210
0.0
220
0.0
230
1.0
 70
     8
 71
     3
 72
    15
 73
    11
 74
     0
 42
0.00000001
 43
0.00000001
 40
0.0
 40
0.0
 40
0.0
 40
0.0
 40
0.1257367770175318
 40
0.2474433383352161
 40
0.3694990048842059
 40
0.4977486719873011
 40
0.6266704846622824
 40
0.7491936950069217
 40
0.8715431442851166
 40
1.0
 40
1.0
 40
1.0
 40
1.0
 10
-275.2138879995864
 20
222.378930086668
 30
0.0
 10
-275.2002594789862
 20
222.3670611257477
 30
0.0
 10
-275.1734392700236
 20
222.3437036373317
 30
0.0
 10
-275.1427740882912
 20
222.2998459099938
 30
0.0
 10
-275.1221479031967
 20
222.2502710329672
 30
0.0
 10
-275.1116545609385
 20
222.1967293965433
 30
0.0
 10
-275.1085887531465
 20
222.1420182706204
 30
0.0
 10
-275.1184976757264
 20
222.089025444768
 30
0.0
 10
-275.1371354103771
 20
222.0383272120299
 30
0.0
 10
-275.1582181440999
 20
222.0090230806938
 30
0.0
 10
-275.1690162047148
 20
221.9940142212834
 30
0.0
  0
SPLINE
  5
AD
330
1F
100
AcDbEntity
  8
0
  6
Continuous
 62
     7
370
    25
100
AcDbSpline
210
0.0
220
0.0
230
1.0
 70
     8
 71
     3
 72
    31
 73
    27
 74
     0
 42
0.00000001
 43
0.00000001
 40
0.0
 40
0.0
 40
0.0
 40
0.0
 40
0.0415657287366491
 40
0.0829880939900864
 40
0.1235494146541877
 40
0.1641192895941493
 40
0.2045667889086285
 40
0.2452294230098659
 40
0.2862078032470352
 40
0.3276768159964391
 40
0.369106361206354
 40
0.4102826591445565
 40
0.4508574214324533
 40
0.491203067080518
 40
0.5319205247661828
 40
0.5725392467227535
 40
0.6138849481922498
 40
0.655520982957829
 40
0.697574028192545
 40
0.7396612451776262
 40
0.7816848097045815
 40
0.8240233379561502
 40
0.8668322828623557
 40
0.91041814387266
 40
0.9547840765103571
 40
1.0
 40
1.0
 40
1.0
 40
1.0
 10
-275.8246219304977
 20
218.2106505079759
 30
0.0
 10
-275.8485052409592
 20
218.2301977944437
 30
0.0
 10
-275.896189486457
 20
218.2692249472435
 30
0.0
 10
-275.9622149191069
 20
218.3329855647482
 30
0.0
 10
-276.0239999212342
 20
218.3998512074926
 30
0.0
 10
-276.0795605453915
 20
218.4710291218103
 30
0.0
 10
-276.132248620453
 20
218.5444647894867
 30
0.0
 10
-276.1781931836359
 20
218.6226906475242
 30
0.0
 10
-276.2197311256245
 20
218.7041349199826
 30
0.0
 10
-276.2559735715301
 20
218.7887013462349
 30
0.0
 10
-276.2870439848767
 20
218.8754825198895
 30
0.0
 10
-276.3110887017484
 20
218.9637454211012
 30
0.0
 10
-276.3307609071038
 20
219.0522913340305
 30
0.0
 10
-276.3421789765516
 20
219.1419411491183
 30
0.0
 10
-276.3487813496563
 20
219.2320665514447
 30
0.0
 10
-276.3486493849389
 20
219.3232051961443
 30
0.0
 10
-276.342429029924
 20
219.414808510454
 30
0.0
 10
-276.3294907081738
 20
219.5067664804475
 30
0.0
 10
-276.3115855518813
 20
219.5984427954095
 30
0.0
 10
-276.2870758318483
 20
219.6889168275197
 30
0.0
 10
-276.2558854576524
 20
219.7775107325783
 30
0.0
 10
-276.2193384753139
 20
219.8645844992218
 30
0.0
 10
-276.1773204060623
 20
219.9504855896457
 30
0.0
 10
-276.1285444477176
 20
220.0344439340649
 30
0.0
 10
-276.075000333902
 20
220.117630251837
 30
0.0
 10
-276.0344116954788
 20
220.170329109433
 30
0.0
 10
-276.0139248151123
 20
220.1969285528478
 30
0.0
  0
SPLINE
  5
AE
330
1F
100
AcDbEntity
  8
0
  6
Continuous
 62
     7
370
    25
100
AcDbSpline
210
0.0
220
0.0
230
1.0
 70
     8
 71
     3
 72
    19
 73
    15
 74
     0
 42
0.00000001
 43
0.00000001
 40
0.0
 40
0.0
 40
0.0
 40
0.0
 40
0.0915776413760422
 40
0.1817725642606292
 40
0.2722511018408263
 40
0.3621615153960252
 40
0.450102665026029
 40
0.5338657996342544
 40
0.6134907276880971
 40
0.6898553517382778
 40
0.7654036873716694
 40
0.8417599232998073
 40
0.9197117730924724
 40
0.9999999999999999
 40
0.9999999999999999
 40
0.9999999999999999
 40
0.9999999999999999
 10
-276.0139248151123
 20
220.1969285528478
 30
0.0
 10
-275.9871399045412
 20
220.2296789060144
 30
0.0
 10
-275.9339745051616
 20
220.2946851191694
 30
0.0
 10
-275.844452679099
 20
220.3832193708008
 30
0.0
 10
-275.7495074065189
 20
220.4645864662758
 30
0.0
 10
-275.6487992749704
 20
220.5369833927987
 30
0.0
 10
-275.5458799489835
 20
220.6004128988359
 30
0.0
 10
-275.4427425037651
 20
220.6538027727218
 30
0.0
 10
-275.3407985137059
 20
220.6973468998538
 30
0.0
 10
-275.2385438987654
 20
220.7290780356947
 30
0.0
 10
-275.1353518189788
 20
220.7513692757518
 30
0.0
 10
-275.029620193371
 20
220.7623276412483
 30
0.0
 10
-274.9210673573742
 20
220.763446622151
 30
0.0
 10
-274.8483808102589
 20
220.7555317561493
 30
0.0
 10
-274.811500936907
 20
220.7515158925909
 30
0.0
  0
LINE
  5
AF
330
1F
100
AcDbEntity
  8
0
  6
Continuous
 62
     7
370
    25
100
AcDbLine
 10
-274.8115009369
 20
220.7515158926
 30
0.0
 11
-274.8451547831
 21
220.4444245464
 31
0.0
  0
SPLINE
  5
B0
330
1F
100
AcDbEntity
  8
0
  6
Continuous
 62
     7
370
    25
100
AcDbSpline
210
0.0
220
0.0
230
1.0
 70
     8
 71
     3
 72
    15
 73
    11
 74
     0
 42
0.00000001
 43
0.00000001
 40
0.0
 40
0.0
 40
0.0
 40
0.0
 40
0.129049993471047
 40
0.252877020965128
 40
0.3744086583912219
 40
0.4945370656819963
 40
0.6153401442015524
 40
0.7388669054893794
 40
0.8660919011579813
 40
1.0
 40
1.0
 40
1.0
 40
1.0
 10
-274.8451547830609
 20
220.4444245464371
 30
0.0
 10
-274.8915013206662
 20
220.444185786366
 30
0.0
 10
-274.9823186391832
 20
220.4437179294226
 30
0.0
 10
-275.1155458827363
 20
220.4231816085669
 30
0.0
 10
-275.242236446928
 20
220.3886929956123
 30
0.0
 10
-275.3635309524448
 20
220.3406767834011
 30
0.0
 10
-275.4768305002036
 20
220.2746764293422
 30
0.0
 10
-275.5847366995345
 20
220.1960763935577
 30
0.0
 10
-275.6861523977429
 20
220.1018496614328
 30
0.0
 10
-275.746169233748
 20
220.0298323336637
 30
0.0
 10
-275.7769456484457
 20
219.99290211054
 30
0.0
  0
SPLINE
  5
B1
330
1F
100
AcDbEntity
  8
0
  6
Continuous
 62
     7
370
    25
100
AcDbSpline
210
0.0
220
0.0
230
1.0
 70
     8
 71
     3
 72
    23
 73
    19
 74
     0
 42
0.00000001
 43
0.00000001
 40
0.0
 40
0.0
 40
0.0
 40
0.0
 40
0.0687855553974395
 40
0.1346064921063428
 40
0.1987686881271457
 40
0.2615070752035447
 40
0.3237321402066364
 40
0.3858890910296806
 40
0.4483291299839124
 40
0.5120587061801316
 40
0.5755708674102336
 40
0.6368876315779715
 40
0.696996907072166
 40
0.7561361818525345
 40
0.8155510977099606
 40
0.8754341457890673
 40
0.9369029910862916
 40
1.0
 40
1.0
 40
1.0
 40
1.0
 10
-275.7769456484457
 20
219.99290211054
 30
0.0
 10
-275.8002434678958
 20
219.9620120366012
 30
0.0
 10
-275.8458349839024
 20
219.9015632335089
 30
0.0
 10
-275.9025010362663
 20
219.8050618657651
 30
0.0
 10
-275.9503392354155
 20
219.7076956051967
 30
0.0
 10
-275.9857874343252
 20
219.6072899377047
 30
0.0
 10
-276.0125074764375
 20
219.5053740461225
 30
0.0
 10
-276.0265939272141
 20
219.4011264183002
 30
0.0
 10
-276.032109802445
 20
219.2952553748827
 30
0.0
 10
-276.0252571367902
 20
219.1886638236302
 30
0.0
 10
-276.0095322474984
 20
219.0837299852265
 30
0.0
 10
-275.9841829591487
 20
218.9827440328501
 30
0.0
 10
-275.949851065557
 20
218.8870670904064
 30
0.0
 10
-275.9061674093721
 20
218.796407192177
 30
0.0
 10
-275.8523473452294
 20
218.7115621619683
 30
0.0
 10
-275.7903474808115
 20
218.6309178025815
 30
0.0
 10
-275.7188108667221
 20
218.5555003545027
 30
0.0
 10
-275.6647872719208
 20
218.5108909693786
 30
0.0
 10
-275.6374224112669
 20
218.4882947387451
 30
0.0
  0
SPLINE
  5
B2
330
1F
100
AcDbEntity
  8
0
  6
Continuous
 62
     7
370
    25
100
AcDbSpline
210
0.0
220
0.0
230
1.0
 70
     8
 71
     3
 72
    19
 73
    15
 74
     0
 42
0.00000001
 43
0.00000001
 40
0.0
 40
0.0
 40
0.0
 40
0.0
 40
0.0822843532709729
 40
0.1628443772888892
 40
0.2443858238266815
 40
0.3275214972683816
 40
0.4107966739617052
 40
0.4923150900364477
 40
0.5736658156974068
 40
0.6562411193891509
 40
0.7399415685940925
 40
0.8243972617600535
 40
0.9107230346080345
 40
1.0
 40
1.0
 40
1.0
 40
1.0
 10
-275.6374224112669
 20
218.4882947387451
 30
0.0
 10
-275.5998226239012
 20
218.4607246644777
 30
0.0
 10
-275.5254109804193
 20
218.406162267164
 30
0.0
 10
-275.400898322586
 20
218.3447537681162
 30
0.0
 10
-275.2701015290389
 20
218.2976416821762
 30
0.0
 10
-275.1322239169284
 20
218.2693356411231
 30
0.0
 10
-274.9920436039978
 20
218.2589266174504
 30
0.0
 10
-274.8525086433576
 20
218.2660205432026
 30
0.0
 10
-274.7160987553818
 20
218.2942654545779
 30
0.0
 10
-274.583206968508
 20
218.3397147189301
 30
0.0
 10
-274.4561558719664
 20
218.4037901996453
 30
0.0
 10
-274.3369590333546
 20
218.4851104223036
 30
0.0
 10
-274.2264267091054
 20
218.5830299246043
 30
0.0
 10
-274.1625073490533
 20
218.6592033530604
 30
0.0
 10
-274.1300105522924
 20
218.6979301554111
 30
0.0
  0
SPLINE
  5
B3
330
1F
100
AcDbEntity
  8
0
  6
Continuous
 62
     7
370
    25
100
AcDbSpline
210
0.0
220
0.0
230
1.0
 70
     8
 71
     3
 72
    15
 73
    11
 74
     0
 42
0.00000001
 43
0.00000001
 40
0.0
 40
0.0
 40
0.0
 40
0.0
 40
0.1299372464595172
 40
0.2549568114522143
 40
0.3772644028957317
 40
0.497560123414216
 40
0.6187433465732544
 40
0.7417658362925436
 40
0.8683765986889642
 40
1.0
 40
1.0
 40
1.0
 40
1.0
 10
-274.1300105522924
 20
218.6979301554111
 30
0.0
 10
-274.1022528375035
 20
218.7352003759238
 30
0.0
 10
-274.0477879427287
 20
218.808330266259
 30
0.0
 10
-273.9822588267452
 20
218.9266317004496
 30
0.0
 10
-273.9323044469269
 20
219.0484083090626
 30
0.0
 10
-273.8968332632695
 20
219.1737433670303
 30
0.0
 10
-273.8760221201894
 20
219.3026959694122
 30
0.0
 10
-273.8726207812415
 20
219.4354357904661
 30
0.0
 10
-273.882634790019
 20
219.5716407410281
 30
0.0
 10
-273.9011315355685
 20
219.6621258793935
 30
0.0
 10
-273.9105594304971
 20
219.7082466618213
 30
0.0
  0
LINE
  5
B4
330
1F
100
AcDbEntity
  8
0
  6
Continuous
 62
     7
370
    25
100
AcDbLine
 10
-273.9105594305
 20
219.7082466618
 30
0.0
 11
-273.6118815459
 21
219.8078059567
 31
0.0
  0
SPLINE
  5
B5
330
1F
100
AcDbEntity
  8
0
  6
Continuous
 62
     7
370
    25
100
AcDbSpline
210
0.0
220
0.0
230
1.0
 70
     8
 71
     3
 72
    23
 73
    19
 74
     0
 42
0.00000001
 43
0.00000001
 40
0.0
 40
0.0
 40
0.0
 40
0.0
 40
0.0590830331037194
 40
0.118149009904215
 40
0.1765696249906469
 40
0.2354647670825314
 40
0.2941950114473233
 40
0.3540237082038209
 40
0.4141610675252589
 40
0.4758859391617992
 40
0.5379668698716655
 40
0.6005126813721534
 40
0.6640771887761586
 40
0.7285428072256989
 40
0.794089547338119
 40
0.8609697069862329
 40
0.9297347591147505
 40
0.9999999999999999
 40
0.9999999999999999
 40
0.9999999999999999
 40
0.9999999999999999
 10
-273.6118815458817
 20
219.807805956693
 30
0.0
 10
-273.603747953375
 20
219.7815073765534
 30
0.0
 10
-273.5874831163969
 20
219.7289178082435
 30
0.0
 10
-273.570728270045
 20
219.6483462750537
 30
0.0
 10
-273.5572548446994
 20
219.5672570097353
 30
0.0
 10
-273.5517052305304
 20
219.485390271516
 30
0.0
 10
-273.5496385496649
 20
219.4027263665225
 30
0.0
 10
-273.5551283615251
 20
219.3196104462389
 30
0.0
 10
-273.5648078535251
 20
219.2355350636349
 30
0.0
 10
-273.5800879337413
 20
219.1511738321408
 30
0.0
 10
-273.6014651667461
 20
219.0670331349669
 30
0.0
 10
-273.6270333466762
 20
218.9831468851315
 30
0.0
 10
-273.6597596666911
 20
218.9005744859913
 30
0.0
 10
-273.6970130343624
 20
218.818484102813
 30
0.0
 10
-273.7386830152782
 20
218.7367225213607
 30
0.0
 10
-273.787990738901
 20
218.657007112721
 30
0.0
 10
-273.8405424992735
 20
218.5767476912958
 30
0.0
 10
-273.8800670738367
 20
218.5254422237884
 30
0.0
 10
-273.9000426035745
 20
218.4995126874623
 30
0.0
  0
SPLINE
  5
B6
330
1F
100
AcDbEntity
  8
0
  6
Continuous
 62
     7
370
    25
100
AcDbSpline
210
0.0
220
0.0
230
1.0
 70
     8
 71
     3
 72
    23
 73
    19
 74
     0
 42
0.00000001
 43
0.00000001
 40
0.0
 40
0.0
 40
0.0
 40
0.0
 40
0.068924535635776
 40
0.1353690650790816
 40
0.1998223530612384
 40
0.2629583946899828
 40
0.3250680363427035
 40
0.3870667888342932
 40
0.4496954790479548
 40
0.5134060531940784
 40
0.5766378005495639
 40
0.6379882540755984
 40
0.6977504416766073
 40
0.7568362679426316
 40
0.8162643074107433
 40
0.8760971086127938
 40
0.9370152380813795
 40
1.0
 40
1.0
 40
1.0
 40
1.0
 10
-273.9000426035745
 20
218.4995126874623
 30
0.0
 10
-273.9318282651391
 20
218.4610157932649
 30
0.0
 10
-273.9942558934029
 20
218.3854071797591
 30
0.0
 10
-274.0983585411539
 20
218.2846685587919
 30
0.0
 10
-274.2061621439826
 20
218.1943541911155
 30
0.0
 10
-274.3211251776385
 20
218.1187930134351
 30
0.0
 10
-274.4409065922221
 20
218.0549265690878
 30
0.0
 10
-274.5665648107254
 20
218.0045469372477
 30
0.0
 10
-274.6973825424415
 20
217.9653813975885
 30
0.0
 10
-274.8326410262729
 20
217.9409559495951
 30
0.0
 10
-274.9684775858798
 20
217.9280469446518
 30
0.0
 10
-275.1021532343161
 20
217.9285269493646
 30
0.0
 10
-275.232026117405
 20
217.9427488595334
 30
0.0
 10
-275.3584989937532
 20
217.9694142124199
 30
0.0
 10
-275.4815019341526
 20
218.0094396635351
 30
0.0
 10
-275.6005868078737
 20
218.0631591853823
 30
0.0
 10
-275.7157706930203
 20
218.1302196211128
 30
0.0
 10
-275.787936953423
 20
218.1835437399773
 30
0.0
 10
-275.8246219304977
 20
218.2106505079759
 30
0.0
  0
LINE
  5
B7
330
1F
100
AcDbEntity
  8
0
  6
Continuous
 62
     7
370
    25
100
AcDbLine
 10
-277.0750225714
 20
217.9762588453
 30
0.0
 11
-277.4473182445
 21
218.2693277556
 31
0.0
  0
LINE
  5
B8
330
1F
100
AcDbEntity
  8
0
  6
Continuous
 62
     7
370
    25
100
AcDbLine
 10
-277.4473182445
 20
218.2693277556
 30
0.0
 11
-277.2446940457
 21
218.5266394543
 31
0.0
  0
LINE
  5
B9
330
1F
100
AcDbEntity
  8
0
  6
Continuous
 62
     7
370
    25
100
AcDbLine
 10
-277.2446940457
 20
218.5266394543
 30
0.0
 11
-275.2184520586
 21
216.9315873709
 31
0.0
  0
LINE
  5
BA
330
1F
100
AcDbEntity
  8
0
  6
Continuous
 62
     7
370
    25
100
AcDbLine
 10
-275.2184520586
 20
216.9315873709
 30
0.0
 11
-275.4210762573
 21
216.6742756722
 31
0.0
  0
LINE
  5
BB
330
1F
100
AcDbEntity
  8
0
  6
Continuous
 62
     7
370
    25
100
AcDbLine
 10
-275.4210762573
 20
216.6742756722
 30
0.0
 11
-275.7695337893
 21
216.948414294
 31
0.0
  0
SPLINE
  5
BC
330
1F
100
AcDbEntity
  8
0
  6
Continuous
 62
     7
370
    25
100
AcDbSpline
210
0.0
220
0.0
230
1.0
 70
     8
 71
     3
 72
    15
 73
    11
 74
     0
 42
0.00000001
 43
0.00000001
 40
0.0
 40
0.0
 40
0.0
 40
0.0
 40
0.133914442870027
 40
0.2627803078375543
 40
0.3873076334286465
 40
0.5089826229491679
 40
0.6294257386481757
 40
0.7505034265828273
 40
0.8731707312320501
 40
1.0
 40
1.0
 40
1.0
 40
1.0
 10
-275.7695337893281
 20
216.9484142940178
 30
0.0
 10
-275.7596569024687
 20
216.8959813636458
 30
0.0
 10
-275.740275487636
 20
216.7930922257106
 30
0.0
 10
-275.7286677183354
 20
216.6388711749422
 30
0.0
 10
-275.735371594802
 20
216.4893668759336
 30
0.0
 10
-275.7568313392481
 20
216.3446663608345
 30
0.0
 10
-275.7948073498657
 20
216.2047024636082
 30
0.0
 10
-275.8500930058445
 20
216.0702940862564
 30
0.0
 10
-275.9212247260305
 20
215.9404992321213
 30
0.0
 10
-275.9800932810764
 20
215.8603508770959
 30
0.0
 10
-276.0100185649695
 20
215.8196082042743
 30
0.0
  0
SPLINE
  5
BD
330
1F
100
AcDbEntity
  8
0
  6
Continuous
 62
     7
370
    25
100
AcDbSpline
210
0.0
220
0.0
230
1.0
 70
     8
 71
     3
 72
    23
 73
    19
 74
     0
 42
0.00000001
 43
0.00000001
 40
0.0
 40
0.0
 40
0.0
 40
0.0
 40
0.063536255547067
 40
0.1252780364721099
 40
0.185822757969859
 40
0.2460500976671124
 40
0.3064646025830596
 40
0.3674561212125661
 40
0.4297582056209148
 40
0.4942528454054559
 40
0.5587611464143954
 40
0.6218502949001568
 40
0.683806672536459
 40
0.745226497544114
 40
0.8070467237770231
 40
0.8697022767703216
 40
0.9336790717564486
 40
1.0
 40
1.0
 40
1.0
 40
1.0
 10
-276.0100185649695
 20
215.8196082042743
 30
0.0
 10
-276.0385151093748
 20
215.7850636441373
 30
0.0
 10
-276.0947033612415
 20
215.7169501768342
 30
0.0
 10
-276.1904483360467
 20
215.6272850085799
 30
0.0
 10
-276.2917783438839
 20
215.5479669437543
 30
0.0
 10
-276.4002346328421
 20
215.4802531981783
 30
0.0
 10
-276.5157359003801
 20
215.4247291121638
 30
0.0
 10
-276.6378087486415
 20
215.3812472830922
 30
0.0
 10
-276.7662319047612
 20
215.3489550091076
 30
0.0
 10
-276.8995239333208
 20
215.328099090072
 30
0.0
 10
-277.0347209122542
 20
215.3198146780066
 30
0.0
 10
-277.1683640347312
 20
215.3236028074663
 30
0.0
 10
-277.2987178347139
 20
215.3413477451166
 30
0.0
 10
-277.4257291781233
 20
215.3717558885988
 30
0.0
 10
-277.5497448840446
 20
215.4144527695186
 30
0.0
 10
-277.66989414369
 20
215.4712543908706
 30
0.0
 10
-277.7874345974224
 20
215.5399734118722
 30
0.0
 10
-277.8607979547555
 20
215.5951894155554
 30
0.0
 10
-277.8981395585593
 20
215.6232941017109
 30
0.0
  0
SPLINE
  5
BE
330
1F
100
AcDbEntity
  8
0
  6
Continuous
 62
     7
370
    25
100
AcDbSpline
210
0.0
220
0.0
230
1.0
 70
     8
 71
     3
 72
    23
 73
    19
 74
     0
 42
0.00000001
 43
0.00000001
 40
0.0
 40
0.0
 40
0.0
 40
0.0
 40
0.0648973241546378
 40
0.1279749163792761
 40
0.1898212490241158
 40
0.2510241236479642
 40
0.3120403512225317
 40
0.3739680989150403
 40
0.4370105699831534
 40
0.5018396045083134
 40
0.5665900169220653
 40
0.6294874059229517
 40
0.6911149080503914
 40
0.751825470348641
 40
0.8124392826853452
 40
0.8734963313793883
 40
0.9358233410788857
 40
1.0
 40
1.0
 40
1.0
 40
1.0
 10
-277.8981395585593
 20
215.6232941017109
 30
0.0
 10
-277.9333805568158
 20
215.6522582299723
 30
0.0
 10
-278.0028743897856
 20
215.7093743274468
 30
0.0
 10
-278.0946648902078
 20
215.8064942927734
 30
0.0
 10
-278.1758577660035
 20
215.9091224504328
 30
0.0
 10
-278.245748078722
 20
216.0181743694097
 30
0.0
 10
-278.303494183272
 20
216.1341419288176
 30
0.0
 10
-278.3500018053292
 20
216.2564516684953
 30
0.0
 10
-278.3840761438288
 20
216.385527011097
 30
0.0
 10
-278.407242717104
 20
216.5190029952224
 30
0.0
 10
-278.4173269633192
 20
216.6539823887221
 30
0.0
 10
-278.4165445180293
 20
216.7870826338593
 30
0.0
 10
-278.4019364698053
 20
216.9166526753613
 30
0.0
 10
-278.3732321973042
 20
217.042089838073
 30
0.0
 10
-278.3336896795295
 20
217.1641781068944
 30
0.0
 10
-278.2794593417547
 20
217.2817191877162
 30
0.0
 10
-278.2137123280131
 20
217.3961789799508
 30
0.0
 10
-278.1606404239963
 20
217.4675138274073
 30
0.0
 10
-278.1337164816354
 20
217.5037027555572
 30
0.0
  0
SPLINE
  5
BF
330
1F
100
AcDbEntity
  8
0
  6
Continuous
 62
     7
370
    25
100
AcDbSpline
210
0.0
220
0.0
230
1.0
 70
     8
 71
     3
 72
    15
 73
    11
 74
     0
 42
0.00000001
 43
0.00000001
 40
0.0
 40
0.0
 40
0.0
 40
0.0
 40
0.1283645227543471
 40
0.2521030807710856
 40
0.3734034998204961
 40
0.4928821702990263
 40
0.6137830723171059
 40
0.7372993645078774
 40
0.8658646609649391
 40
1.0
 40
1.0
 40
1.0
 40
1.0
 10
-278.1337164816354
 20
217.5037027555572
 30
0.0
 10
-278.1004982637993
 20
217.5433411432216
 30
0.0
 10
-278.0352589369625
 20
217.621189441432
 30
0.0
 10
-277.9231521105641
 20
217.7220468245426
 30
0.0
 10
-277.8029519414927
 20
217.8067600302035
 30
0.0
 10
-277.673817711876
 20
217.8748371401194
 30
0.0
 10
-277.5362570118504
 20
217.9263102957133
 30
0.0
 10
-277.3897419634186
 20
217.9605657023296
 30
0.0
 10
-277.2348577384439
 20
217.9783378579073
 30
0.0
 10
-277.129048782963
 20
217.9769615766019
 30
0.0
 10
-277.0750225713789
 20
217.9762588453003
 30
0.0
  0
LINE
  5
C0
330
1F
100
AcDbEntity
  8
0
  6
Continuous
 62
     7
370
    25
100
AcDbLine
 10
-277.2439306621
 20
214.3582353321
 30
0.0
 11
-277.4486582262
 21
214.0981191462
 31
0.0
  0
LINE
  5
C1
330
1F
100
AcDbEntity
  8
0
  6
Continuous
 62
     7
370
    25
100
AcDbLine
 10
-277.4486582262
 20
214.0981191462
 30
0.0
 11
-280.2573521365
 21
216.3087561654
 31
0.0
  0
LINE
  5
C2
330
1F
100
AcDbEntity
  8
0
  6
Continuous
 62
     7
370
    25
100
AcDbLine
 10
-280.2573521365
 20
216.3087561654
 30
0.0
 11
-280.0526245724
 21
216.5688723513
 31
0.0
  0
LINE
  5
C3
330
1F
100
AcDbEntity
  8
0
  6
Continuous
 62
     7
370
    25
100
AcDbLine
 10
-280.0526245724
 20
216.5688723513
 30
0.0
 11
-277.2439306621
 21
214.3582353321
 31
0.0
  0
SPLINE
  5
C4
330
1F
100
AcDbEntity
  8
0
  6
Continuous
 62
     7
370
    25
100
AcDbSpline
210
0.0
220
0.0
230
1.0
 70
     8
 71
     3
 72
    31
 73
    27
 74
     0
 42
0.00000001
 43
0.00000001
 40
0.0
 40
0.0
 40
0.0
 40
0.0
 40
0.0444445628105291
 40
0.0872999920827485
 40
0.1286935143593032
 40
0.1683297284487225
 40
0.2070352239976701
 40
0.244404605015256
 40
0.2807254928532804
 40
0.316798140645512
 40
0.3521042554317887
 40
0.386650023206564
 40
0.4210263909742428
 40
0.4553327626715288
 40
0.4898486967402058
 40
0.5244176507081629
 40
0.5595417404898035
 40
0.5955063385260623
 40
0.6332915145846111
 40
0.6741968509042822
 40
0.7189992486570098
 40
0.7674402285238383
 40
0.8194864545406847
 40
0.8754127527722955
 40
0.9357838874264364
 40
1.0
 40
1.0
 40
1.0
 40
1.0
 10
-278.5253945176749
 20
212.6243571002197
 30
0.0
 10
-278.5447608541614
 20
212.6005236221189
 30
0.0
 10
-278.5828010758452
 20
212.5537088416838
 30
0.0
 10
-278.643401117337
 20
212.4886048878595
 30
0.0
 10
-278.7045540741642
 20
212.4286278975066
 30
0.0
 10
-278.7685418564644
 20
212.3761355513873
 30
0.0
 10
-278.8323735888787
 20
212.3279027639365
 30
0.0
 10
-278.8988137505814
 20
212.2875463938578
 30
0.0
 10
-278.9657827864987
 20
212.2518927534911
 30
0.0
 10
-279.0342464276509
 20
212.2225265288535
 30
0.0
 10
-279.1037684451675
 20
212.19944264574
 30
0.0
 10
-279.1736585208926
 20
212.1819936256811
 30
0.0
 10
-279.2438324838021
 20
212.1687963409894
 30
0.0
 10
-279.3149715715973
 20
212.1630570129229
 30
0.0
 10
-279.3864281025158
 20
212.1612453772584
 30
0.0
 10
-279.4583326851583
 20
212.1658946213857
 30
0.0
 10
-279.5308478198109
 20
212.1746428089804
 30
0.0
 10
-279.6045106443719
 20
212.1903444944923
 30
0.0
 10
-279.6803843251944
 20
212.2132989891524
 30
0.0
 10
-279.7601952658333
 20
212.2436409764567
 30
0.0
 10
-279.8440675565847
 20
212.2832284942832
 30
0.0
 10
-279.9322561570635
 20
212.3312063714689
 30
0.0
 10
-280.0250108067141
 20
212.3866838291089
 30
0.0
 10
-280.1220196189332
 20
212.4508755219057
 30
0.0
 10
-280.2232632878606
 20
212.5237156339502
 30
0.0
 10
-280.2914373783084
 20
212.5762471048848
 30
0.0
 10
-280.3265764087005
 20
212.6033234463743
 30
0.0
  0
LINE
  5
C5
330
1F
100
AcDbEntity
  8
0
  6
Continuous
 62
     7
370
    25
100
AcDbLine
 10
-280.3265764087
 20
212.6033234464
 30
0.0
 11
-281.3025379472
 21
213.3717529336
 31
0.0
  0
LINE
  5
C6
330
1F
100
AcDbEntity
  8
0
  6
Continuous
 62
     7
370
    25
100
AcDbLine
 10
-281.3025379472
 20
213.3717529336
 30
0.0
 11
-281.0964081395
 21
213.6339724848
 31
0.0
  0
LINE
  5
C7
330
1F
100
AcDbEntity
  8
0
  6
Continuous
 62
     7
370
    25
100
AcDbLine
 10
-281.0964081395
 20
213.6339724848
 30
0.0
 11
-280.1505948382
 21
212.8893811387
 31
0.0
  0
SPLINE
  5
C8
330
1F
100
AcDbEntity
  8
0
  6
Continuous
 62
     7
370
    25
100
AcDbSpline
210
0.0
220
0.0
230
1.0
 70
     8
 71
     3
 72
    15
 73
    11
 74
     0
 42
0.00000001
 43
0.00000001
 40
0.0
 40
0.0
 40
0.0
 40
0.0
 40
0.1735613584936268
 40
0.3328387301744418
 40
0.4785861686543686
 40
0.6108674330034489
 40
0.7288032780767739
 40
0.8318782967960425
 40
0.9228674310991154
 40
1.0
 40
1.0
 40
1.0
 40
1.0
 10
-280.1505948381877
 20
212.889381138682
 30
0.0
 10
-280.1228885929319
 20
212.8675099435394
 30
0.0
 10
-280.0697563083678
 20
212.8255675383759
 30
0.0
 10
-279.9916933922166
 20
212.7674230282434
 30
0.0
 10
-279.9195767377391
 20
212.7153687422195
 30
0.0
 10
-279.8530612363023
 20
212.6699710384186
 30
0.0
 10
-279.7930232360167
 20
212.6304834741812
 30
0.0
 10
-279.7386163482788
 20
212.5978047954996
 30
0.0
 10
-279.6899529144527
 20
212.5717499354792
 30
0.0
 10
-279.6587160607555
 20
212.5578277802171
 30
0.0
 10
-279.6443849022903
 20
212.5514404335535
 30
0.0
  0
SPLINE
  5
C9
330
1F
100
AcDbEntity
  8
0
  6
Continuous
 62
     7
370
    25
100
AcDbSpline
210
0.0
220
0.0
230
1.0
 70
     8
 71
     3
 72
    15
 73
    11
 74
     0
 42
0.00000001
 43
0.00000001
 40
0.0
 40
0.0
 40
0.0
 40
0.0
 40
0.1238118754837495
 40
0.2426396853170262
 40
0.3612698631116212
 40
0.4827034510382494
 40
0.606723413854532
 40
0.7327153451250029
 40
0.8621775654684738
 40
1.0
 40
1.0
 40
1.0
 40
1.0
 10
-279.6443849022903
 20
212.5514404335535
 30
0.0
 10
-279.6061648561639
 20
212.5384550828459
 30
0.0
 10
-279.5312633176108
 20
212.5130071086746
 30
0.0
 10
-279.4138802511433
 20
212.497418497635
 30
0.0
 10
-279.296665143881
 20
212.5033567190845
 30
0.0
 10
-279.1805489920395
 20
212.5296170625602
 30
0.0
 10
-279.0680933360729
 20
212.575449196273
 30
0.0
 10
-278.9623100539784
 20
212.6400190657338
 30
0.0
 10
-278.8635675912255
 20
212.7224848057552
 30
0.0
 10
-278.8074407056654
 20
212.7891173440073
 30
0.0
 10
-278.7784994856235
 20
212.8234756899634
 30
0.0
  0
SPLINE
  5
CA
330
1F
100
AcDbEntity
  8
0
  6
Continuous
 62
     7
370
    25
100
AcDbSpline
210
0.0
220
0.0
230
1.0
 70
     8
 71
     3
 72
    15
 73
    11
 74
     0
 42
0.00000001
 43
0.00000001
 40
0.0
 40
0.0
 40
0.0
 40
0.0
 40
0.1414507344148208
 40
0.2735722608547435
 40
0.4005734414670741
 40
0.5243402951404236
 40
0.6460850562508393
 40
0.7636040316373425
 40
0.8807473210263215
 40
1.0
 40
1.0
 40
1.0
 40
1.0
 10
-278.7784994856235
 20
212.8234756899634
 30
0.0
 10
-278.7521871881523
 20
212.8594814686476
 30
0.0
 10
-278.7012979881968
 20
212.9291183094828
 30
0.0
 10
-278.6443970021583
 20
213.0423588436984
 30
0.0
 10
-278.60716668243
 20
213.1575561185258
 30
0.0
 10
-278.5905097048155
 20
213.2741709860646
 30
0.0
 10
-278.5916392138008
 20
213.3889469614828
 30
0.0
 10
-278.6108897312588
 20
213.4998977040223
 30
0.0
 10
-278.6469987928799
 20
213.6061184492767
 30
0.0
 10
-278.685006930813
 20
213.6703035198857
 30
0.0
 10
-278.7041805753668
 20
213.7026824207327
 30
0.0
  0
SPLINE
  5
CB
330
1F
100
AcDbEntity
  8
0
  6
Continuous
 62
     7
370
    25
100
AcDbSpline
210
0.0
220
0.0
230
1.0
 70
     8
 71
     3
 72
    15
 73
    11
 74
     0
 42
0.00000001
 43
0.00000001
 40
0.0
 40
0.0
 40
0.0
 40
0.0
 40
0.0700177872566379
 40
0.1543213831891613
 40
0.2547452361308807
 40
0.3707587016992172
 40
0.5040589369039962
 40
0.6532018601518118
 40
0.8182675957610446
 40
1.0
 40
1.0
 40
1.0
 40
1.0
 10
-278.7041805753667
 20
213.7026824207326
 30
0.0
 10
-278.7129007956174
 20
213.7147258180513
 30
0.0
 10
-278.7321204325629
 20
213.7412698407252
 30
0.0
 10
-278.7677120045166
 20
213.7820963538362
 30
0.0
 10
-278.8130091623252
 20
213.8271038036675
 30
0.0
 10
-278.8663617295283
 20
213.8787448835826
 30
0.0
 10
-278.9294471621723
 20
213.9351227518332
 30
0.0
 10
-279.0017102543445
 20
213.9967993714097
 30
0.0
 10
-279.0832918187547
 20
214.063359213347
 30
0.0
 10
-279.1409257953737
 20
214.1091667231432
 30
0.0
 10
-279.1711276907512
 20
214.1331712027841
 30
0.0
  0
LINE
  5
CC
330
1F
100
AcDbEntity
  8
0
  6
Continuous
 62
     7
370
    25
100
AcDbLine
 10
-279.1711276908
 20
214.1331712028
 30
0.0
 11
-280.116940992
 21
214.8777625489
 31
0.0
  0
LINE
  5
CD
330
1F
100
AcDbEntity
  8
0
  6
Continuous
 62
     7
370
    25
100
AcDbLine
 10
-280.116940992
 20
214.8777625489
 30
0.0
 11
-279.9073055754
 21
215.144188831
 31
0.0
  0
LINE
  5
CE
330
1F
100
AcDbEntity
  8
0
  6
Continuous
 62
     7
370
    25
100
AcDbLine
 10
-279.9073055754
 20
215.144188831
 30
0.0
 11
-278.9131148702
 21
214.3617369079
 31
0.0
  0
SPLINE
  5
CF
330
1F
100
AcDbEntity
  8
0
  6
Continuous
 62
     7
370
    25
100
AcDbSpline
210
0.0
220
0.0
230
1.0
 70
     8
 71
     3
 72
    31
 73
    27
 74
     0
 42
0.00000001
 43
0.00000001
 40
0.0
 40
0.0
 40
0.0
 40
0.0
 40
0.0631345769695747
 40
0.1226774064460874
 40
0.1779897966070157
 40
0.2296365561667561
 40
0.2772455403598792
 40
0.3216924670634961
 40
0.3626799751048168
 40
0.4006153036288966
 40
0.4365124965744733
 40
0.4717886182295192
 40
0.5069295082713149
 40
0.5412940353073462
 40
0.5759158887697559
 40
0.6106293031975325
 40
0.6456042000830253
 40
0.6810548542099827
 40
0.7171870772092414
 40
0.75352855723955
 40
0.7914778288738421
 40
0.8300645607698286
 40
0.8702394652628835
 40
0.9115796864265909
 40
0.954946216396066
 40
1.0
 40
1.0
 40
1.0
 40
1.0
 10
-278.9131148702382
 20
214.3617369079122
 30
0.0
 10
-278.8794809849317
 20
214.3348835059343
 30
0.0
 10
-278.8141266574592
 20
214.2827044011231
 30
0.0
 10
-278.7228183171234
 20
214.2027812867285
 30
0.0
 10
-278.6393417320303
 20
214.1258439247589
 30
0.0
 10
-278.5660154629792
 20
214.0501271126259
 30
0.0
 10
-278.5008241518141
 20
213.9769799523697
 30
0.0
 10
-278.4445991478365
 20
213.9057315584863
 30
0.0
 10
-278.3974092515637
 20
213.8360586631943
 30
0.0
 10
-278.3580609619714
 20
213.7682865658435
 30
0.0
 10
-278.3271915589015
 20
213.7005321624945
 30
0.0
 10
-278.3010019731307
 20
213.6329360898561
 30
0.0
 10
-278.2797436505438
 20
213.5646551061683
 30
0.0
 10
-278.2651638361856
 20
213.4951073876254
 30
0.0
 10
-278.255366517963
 20
213.4250643892855
 30
0.0
 10
-278.2502695501443
 20
213.3540779003085
 30
0.0
 10
-278.2510517283926
 20
213.2823391434572
 30
0.0
 10
-278.2574199708571
 20
213.2099188090073
 30
0.0
 10
-278.2693278695469
 20
213.1372636842244
 30
0.0
 10
-278.2869143331831
 20
213.0639912188649
 30
0.0
 10
-278.3115964910731
 20
212.991024216079
 30
0.0
 10
-278.342056528164
 20
212.9174935003884
 30
0.0
 10
-278.3782279990786
 20
212.8439494089849
 30
0.0
 10
-278.4220390222509
 20
212.7709313954577
 30
0.0
 10
-278.4694933051254
 20
212.6962031179791
 30
0.0
 10
-278.5065252300253
 20
212.6486085093349
 30
0.0
 10
-278.5253945176749
 20
212.6243571002197
 30
0.0
  0
SPLINE
  5
D0
330
1F
100
AcDbEntity
  8
0
  6
Continuous
 62
     7
370
    25
100
AcDbSpline
210
0.0
220
0.0
230
1.0
 70
     8
 71
     3
 72
    15
 73
    11
 74
     0
 42
0.00000001
 43
0.00000001
 40
0.0
 40
0.0
 40
0.0
 40
0.0
 40
0.1204240283689817
 40
0.2381987866663419
 40
0.3542568493765376
 40
0.4703707829217143
 40
0.5903397960170625
 40
0.7176252329845574
 40
0.8533187175990161
 40
1.0
 40
1.0
 40
1.0
 40
1.0
 10
-282.6128235932429
 20
211.8138452213618
 30
0.0
 10
-282.5823571238
 20
211.8504054075744
 30
0.0
 10
-282.5220944324282
 20
211.9227214736789
 30
0.0
 10
-282.4176266497573
 20
212.0162552539491
 30
0.0
 10
-282.3066897219105
 20
212.0989682735803
 30
0.0
 10
-282.1848823020418
 20
212.1666747620611
 30
0.0
 10
-282.0523418285131
 20
212.2223603305199
 30
0.0
 10
-281.9062057683357
 20
212.2623192335123
 30
0.0
 10
-281.7464380652269
 20
212.2892109005215
 30
0.0
 10
-281.6351012730279
 20
212.2956675550995
 30
0.0
 10
-281.577266702217
 20
212.2990215034126
 30
0.0
  0
LINE
  5
D1
330
1F
100
AcDbEntity
  8
0
  6
Continuous
 62
     7
370
    25
100
AcDbLine
 10
-281.5772667022
 20
212.2990215034
 30
0.0
 11
-281.9292298432
 21
212.5759646124
 31
0.0
  0
LINE
  5
D2
330
1F
100
AcDbEntity
  8
0
  6
Continuous
 62
     7
370
    25
100
AcDbLine
 10
-281.9292298432
 20
212.5759646124
 30
0.0
 11
-281.7223989138
 21
212.8388852855
 31
0.0
  0
LINE
  5
D3
330
1F
100
AcDbEntity
  8
0
  6
Continuous
 62
     7
370
    25
100
AcDbLine
 10
-281.7223989138
 20
212.8388852855
 30
0.0
 11
-280.1077154202
 21
211.5677514714
 31
0.0
  0
SPLINE
  5
D4
330
1F
100
AcDbEntity
  8
0
  6
Continuous
 62
     7
370
    25
100
AcDbSpline
210
0.0
220
0.0
230
1.0
 70
     8
 71
     3
 72
    15
 73
    11
 74
     0
 42
0.00000001
 43
0.00000001
 40
0.0
 40
0.0
 40
0.0
 40
0.0
 40
0.1633106870537194
 40
0.3149817388237462
 40
0.455900915906116
 40
0.5861692692376106
 40
0.7046997438196583
 40
0.8135813104997447
 40
0.9118790293177262
 40
1.0
 40
1.0
 40
1.0
 40
1.0
 10
-280.1077154201661
 20
211.5677514713607
 30
0.0
 10
-280.0733859971266
 20
211.5406615590477
 30
0.0
 10
-280.0071739104785
 20
211.4884125125288
 30
0.0
 10
-279.9147017095551
 20
211.4086876585001
 30
0.0
 10
-279.8304520635411
 20
211.3330522990683
 30
0.0
 10
-279.7546091237623
 20
211.2613493637867
 30
0.0
 10
-279.6882679161825
 20
211.192221500028
 30
0.0
 10
-279.6308303383496
 20
211.1265844762241
 30
0.0
 10
-279.5817817207389
 20
211.0644424011566
 30
0.0
 10
-279.5547080026062
 20
211.0224821215654
 30
0.0
 10
-279.5419101317047
 20
211.0026473046939
 30
0.0
  0
SPLINE
  5
D5
330
1F
100
AcDbEntity
  8
0
  6
Continuous
 62
     7
370
    25
100
AcDbSpline
210
0.0
220
0.0
230
1.0
 70
     8
 71
     3
 72
    23
 73
    19
 74
     0
 42
0.00000001
 43
0.00000001
 40
0.0
 40
0.0
 40
0.0
 40
0.0
 40
0.0608234061287423
 40
0.1205988919145986
 40
0.1793380412645431
 40
0.2370313061014827
 40
0.2954615207593001
 40
0.3537716504944841
 40
0.4127808990031115
 40
0.4734096311427464
 40
0.5346222369747416
 40
0.5968602509217347
 40
0.6594937074452105
 40
0.723710649310848
 40
0.7897903617768505
 40
0.8574208315062112
 40
0.9274527669137113
 40
1.0
 40
1.0
 40
1.0
 40
1.0
 10
-279.5419101317047
 20
211.0026473046939
 30
0.0
 10
-279.5262243495357
 20
210.9757992992837
 30
0.0
 10
-279.4951230339599
 20
210.9225658500467
 30
0.0
 10
-279.4575517320167
 20
210.8388086311829
 30
0.0
 10
-279.4273107792725
 20
210.7539361886728
 30
0.0
 10
-279.4043647292481
 20
210.6674429384022
 30
0.0
 10
-279.390183822988
 20
210.579358302268
 30
0.0
 10
-279.381874722334
 20
210.4898403776508
 30
0.0
 10
-279.3829716485524
 20
210.3987777412792
 30
0.0
 10
-279.3915184139234
 20
210.3067024755749
 30
0.0
 10
-279.4068097288546
 20
210.2138055271445
 30
0.0
 10
-279.4300618466432
 20
210.1215117504364
 30
0.0
 10
-279.4605192137287
 20
210.0297421707208
 30
0.0
 10
-279.4979397394417
 20
209.9384900867597
 30
0.0
 10
-279.5417210869255
 20
209.8472229402685
 30
0.0
 10
-279.5944824925818
 20
209.7574096456206
 30
0.0
 10
-279.6529277785655
 20
209.6672063698948
 30
0.0
 10
-279.6973779168741
 20
209.6094558454722
 30
0.0
 10
-279.7199950676027
 20
209.580071182899
 30
0.0
  0
SPLINE
  5
D6
330
1F
100
AcDbEntity
  8
0
  6
Continuous
 62
     7
370
    25
100
AcDbSpline
210
0.0
220
0.0
230
1.0
 70
     8
 71
     3
 72
    19
 73
    15
 74
     0
 42
0.00000001
 43
0.00000001
 40
0.0
 40
0.0
 40
0.0
 40
0.0
 40
0.0970974961609931
 40
0.1896938212171233
 40
0.2787063812935206
 40
0.3645638167427345
 40
0.4460368779734026
 40
0.5229104039009139
 40
0.5960116774290902
 40
0.6657098507335938
 40
0.7374993890747268
 40
0.8166993612202147
 40
0.9041262854763292
 40
1.0
 40
1.0
 40
1.0
 40
1.0
 10
-279.7199950676027
 20
209.580071182899
 30
0.0
 10
-279.7541282574174
 20
209.5383274734382
 30
0.0
 10
-279.820812316866
 20
209.4567751773185
 30
0.0
 10
-279.9303817637844
 20
209.3472377902358
 30
0.0
 10
-280.0431544932104
 20
209.2504427783645
 30
0.0
 10
-280.1599042190968
 20
209.1686722800783
 30
0.0
 10
-280.2777938893229
 20
209.1015286215114
 30
0.0
 10
-280.3943741526077
 20
209.0469588201559
 30
0.0
 10
-280.5106233679933
 20
209.0093894583995
 30
0.0
 10
-280.6272761769682
 20
208.983887840007
 30
0.0
 10
-280.7498556051194
 20
208.9755674719552
 30
0.0
 10
-280.882259446798
 20
208.9802740087244
 30
0.0
 10
-281.0270378420982
 20
208.9987236182101
 30
0.0
 10
-281.1263723824965
 20
209.0208973135437
 30
0.0
 10
-281.1783284009364
 20
209.0324950611048
 30
0.0
  0
LINE
  5
D7
330
1F
100
AcDbEntity
  8
0
  6
Continuous
 62
     7
370
    25
100
AcDbLine
 10
-281.1783284009
 20
209.0324950611
 30
0.0
 11
-280.9553716702
 21
209.3157482662
 31
0.0
  0
SPLINE
  5
D8
330
1F
100
AcDbEntity
  8
0
  6
Continuous
 62
     7
370
    25
100
AcDbSpline
210
0.0
220
0.0
230
1.0
 70
     8
 71
     3
 72
    15
 73
    11
 74
     0
 42
0.00000001
 43
0.00000001
 40
0.0
 40
0.0
 40
0.0
 40
0.0
 40
0.1261251318181593
 40
0.2463471741916084
 40
0.3624198541784548
 40
0.4773414911260364
 40
0.595552798143155
 40
0.7208421454481796
 40
0.8550419619250262
 40
1.0
 40
1.0
 40
1.0
 40
1.0
 10
-280.9553716701669
 20
209.3157482662329
 30
0.0
 10
-280.9077697373183
 20
209.3101951754661
 30
0.0
 10
-280.8147938056046
 20
209.2993488976568
 30
0.0
 10
-280.6767580657799
 20
209.3060614563264
 30
0.0
 10
-280.5455525618588
 20
209.3315141984545
 30
0.0
 10
-280.4198519238943
 20
209.3752673713842
 30
0.0
 10
-280.3002166910786
 20
209.4410094319055
 30
0.0
 10
-280.1836920036035
 20
209.5250237561221
 30
0.0
 10
-280.071641705747
 20
209.6306452416591
 30
0.0
 10
-280.0040115516532
 20
209.7122669050189
 30
0.0
 10
-279.9688933047821
 20
209.7546505098222
 30
0.0
  0
SPLINE
  5
D9
330
1F
100
AcDbEntity
  8
0
  6
Continuous
 62
     7
370
    25
100
AcDbSpline
210
0.0
220
0.0
230
1.0
 70
     8
 71
     3
 72
    23
 73
    19
 74
     0
 42
0.00000001
 43
0.00000001
 40
0.0
 40
0.0
 40
0.0
 40
0.0
 40
0.0966481455219299
 40
0.1859391117840403
 40
0.2700244374823351
 40
0.3498777247962842
 40
0.4253882458422785
 40
0.4959002024283568
 40
0.5620292782572595
 40
0.6262951139389658
 40
0.6598622077041584
 40
0.6967857081572869
 40
0.7372635473941163
 40
0.7816555680616439
 40
0.830043200885628
 40
0.882548248181142
 40
0.9389940137086502
 40
1.0
 40
1.0
 40
1.0
 40
1.0
 10
-279.9688933047821
 20
209.7546505098222
 30
0.0
 10
-279.9363018326084
 20
209.7983594951415
 30
0.0
 10
-279.8735998598494
 20
209.8824501920021
 30
0.0
 10
-279.7993291283328
 20
210.0157818160405
 30
0.0
 10
-279.7446932616729
 20
210.1481020717633
 30
0.0
 10
-279.7127884191575
 20
210.2797286536399
 30
0.0
 10
-279.6985279217485
 20
210.4065318034927
 30
0.0
 10
-279.7006315908019
 20
210.5265015775488
 30
0.0
 10
-279.7202603476071
 20
210.63850538104
 30
0.0
 10
-279.7512315002588
 20
210.7261040925453
 30
0.0
 10
-279.7860347766838
 20
210.7937057946151
 30
0.0
 10
-279.8197802460846
 20
210.8465111803422
 30
0.0
 10
-279.8627294756894
 20
210.9001389337149
 30
0.0
 10
-279.9116023125491
 20
210.9571904157336
 30
0.0
 10
-279.968739174066
 20
211.0159111770336
 30
0.0
 10
-280.0331329422211
 20
211.0769154868944
 30
0.0
 10
-280.1058757386657
 20
211.1392878211435
 30
0.0
 10
-280.1573837543135
 20
211.1808691345699
 30
0.0
 10
-280.1841376958072
 20
211.2024670162326
 30
0.0
  0
LINE
  5
DA
330
1F
100
AcDbEntity
  8
0
  6
Continuous
 62
     7
370
    25
100
AcDbLine
 10
-280.1841376958
 20
211.2024670162
 30
0.0
 11
-280.2886048432
 21
211.2844982662
 31
0.0
  0
SPLINE
  5
DB
330
1F
100
AcDbEntity
  8
0
  6
Continuous
 62
     7
370
    25
100
AcDbSpline
210
0.0
220
0.0
230
1.0
 70
     8
 71
     3
 72
    15
 73
    11
 74
     0
 42
0.00000001
 43
0.00000001
 40
0.0
 40
0.0
 40
0.0
 40
0.0
 40
0.126106835552354
 40
0.2504576068624904
 40
0.3741420017471215
 40
0.4994568727920473
 40
0.6243844578880319
 40
0.748411723676767
 40
0.8730173008052386
 40
0.9999999999999999
 40
0.9999999999999999
 40
0.9999999999999999
 40
0.9999999999999999
 10
-280.2886048432431
 20
211.2844982662326
 30
0.0
 10
-280.2785852693606
 20
211.2358296423981
 30
0.0
 10
-280.2586856462721
 20
211.1391701155653
 30
0.0
 10
-280.2490879649544
 20
210.9916622266457
 30
0.0
 10
-280.2579296770614
 20
210.8446453525782
 30
0.0
 10
-280.2830288787769
 20
210.6992797338594
 30
0.0
 10
-280.3245252527834
 20
210.5575591275986
 30
0.0
 10
-280.3810872935153
 20
210.4215765995826
 30
0.0
 10
-280.4516602939516
 20
210.2911141789344
 30
0.0
 10
-280.5105729317946
 20
210.2113671259408
 30
0.0
 10
-280.5403075676025
 20
210.1711168559763
 30
0.0
  0
SPLINE
  5
DC
330
1F
100
AcDbEntity
  8
0
  6
Continuous
 62
     7
370
    25
100
AcDbSpline
210
0.0
220
0.0
230
1.0
 70
     8
 71
     3
 72
    31
 73
    27
 74
     0
 42
0.00000001
 43
0.00000001
 40
0.0
 40
0.0
 40
0.0
 40
0.0
 40
0.0427692523701005
 40
0.0848990142433017
 40
0.1268120781283973
 40
0.1684619662715713
 40
0.2102450201763619
 40
0.2523271770152024
 40
0.2947130821774358
 40
0.337736001761648
 40
0.3806749767056247
 40
0.4227516895396896
 40
0.4641256562079386
 40
0.5052441398685464
 40
0.5460592651114624
 40
0.58667747289394
 40
0.6276634261941054
 40
0.668887627375561
 40
0.7101770710409768
 40
0.7509725473107861
 40
0.7918577703713585
 40
0.832707959558853
 40
0.8735805738844747
 40
0.9150982485711749
 40
0.9571518165225489
 40
1.0
 40
1.0
 40
1.0
 40
1.0
 10
-280.5403075676025
 20
210.1711168559763
 30
0.0
 10
-280.5589129664694
 20
210.1481635628503
 30
0.0
 10
-280.595845574263
 20
210.102600176725
 30
0.0
 10
-280.6567477556451
 20
210.0395521304999
 30
0.0
 10
-280.7203445517837
 20
209.9804094872028
 30
0.0
 10
-280.7880546004712
 20
209.9263621008021
 30
0.0
 10
-280.8590072941635
 20
209.8765095190192
 30
0.0
 10
-280.9332857669001
 20
209.8307222006945
 30
0.0
 10
-281.0115156331582
 20
209.7902107800501
 30
0.0
 10
-281.0923254362503
 20
209.7536716952444
 30
0.0
 10
-281.1753978942838
 20
209.7231830685735
 30
0.0
 10
-281.2589606031923
 20
209.6978857578733
 30
0.0
 10
-281.3426895620452
 20
209.6777420891361
 30
0.0
 10
-281.4269416469091
 20
209.6651029365329
 30
0.0
 10
-281.5111388965863
 20
209.6557256995661
 30
0.0
 10
-281.5957661298528
 20
209.6552389216071
 30
0.0
 10
-281.6805786919521
 20
209.658103809586
 30
0.0
 10
-281.7653556515426
 20
209.6682352398923
 30
0.0
 10
-281.8491425751839
 20
209.6836422224014
 30
0.0
 10
-281.9316555510903
 20
209.7039471518081
 30
0.0
 10
-282.0122974646828
 20
209.729823577194
 30
0.0
 10
-282.0908420612811
 20
209.7615998420848
 30
0.0
 10
-282.1677407384217
 20
209.7981801776893
 30
0.0
 10
-282.2427628271665
 20
209.8402269207109
 30
0.0
 10
-282.3158524873754
 20
209.8881058580731
 30
0.0
 10
-282.3627121412723
 20
209.9233579134288
 30
0.0
 10
-282.3863612535
 20
209.9411489072591
 30
0.0
  0
SPLINE
  5
DD
330
1F
100
AcDbEntity
  8
0
  6
Continuous
 62
     7
370
    25
100
AcDbSpline
210
0.0
220
0.0
230
1.0
 70
     8
 71
     3
 72
    31
 73
    27
 74
     0
 42
0.00000001
 43
0.00000001
 40
0.0
 40
0.0
 40
0.0
 40
0.0
 40
0.0423067899401846
 40
0.0842129875287694
 40
0.1256728469200974
 40
0.1668723762795953
 40
0.2082036314839638
 40
0.2496567321807899
 40
0.2911328079453593
 40
0.3335546790218916
 40
0.3759144186573237
 40
0.4174404550410953
 40
0.4589448942129547
 40
0.5006110396044545
 40
0.5419246652020071
 40
0.583442603947879
 40
0.6256724989037381
 40
0.6684849026863944
 40
0.7113640098132383
 40
0.7533450256423834
 40
0.7947453706544221
 40
0.8360874711109473
 40
0.8766785930026972
 40
0.9175846406564678
 40
0.9588208782349213
 40
1.0
 40
1.0
 40
1.0
 40
1.0
 10
-282.3863612535
 20
209.9411489072591
 30
0.0
 10
-282.4093543703719
 20
209.959713057825
 30
0.0
 10
-282.4551228880759
 20
209.9966655796849
 30
0.0
 10
-282.5176855450724
 20
210.0583054283439
 30
0.0
 10
-282.577114565065
 20
210.1218445121009
 30
0.0
 10
-282.6310610410159
 20
210.189634611751
 30
0.0
 10
-282.6810735597286
 20
210.2603420528163
 30
0.0
 10
-282.7258194454769
 20
210.3347472883711
 30
0.0
 10
-282.766069487921
 20
210.4125025957583
 30
0.0
 10
-282.8016921076048
 20
210.4932022791282
 30
0.0
 10
-282.8314652055081
 20
210.5762598779243
 30
0.0
 10
-282.856395446724
 20
210.6602281633442
 30
0.0
 10
-282.8752556516599
 20
210.7452765024339
 30
0.0
 10
-282.8887395599614
 20
210.8311980742257
 30
0.0
 10
-282.8955934431054
 20
210.9179156209092
 30
0.0
 10
-282.8969696943914
 20
211.0052580419628
 30
0.0
 10
-282.8929202627788
 20
211.0935848257494
 30
0.0
 10
-282.8823072709716
 20
211.1823352868053
 30
0.0
 10
-282.8659873611148
 20
211.269990732849
 30
0.0
 10
-282.8460885243916
 20
211.355910396184
 30
0.0
 10
-282.819928630693
 20
211.4390560789471
 30
0.0
 10
-282.7883265700088
 20
211.5191922533761
 30
0.0
 10
-282.752545272829
 20
211.597204548264
 30
0.0
 10
-282.7107768807415
 20
211.6720712412986
 30
0.0
 10
-282.6651171945442
 20
211.7451636633666
 30
0.0
 10
-282.6302467383235
 20
211.7909619484654
 30
0.0
 10
-282.6128235932429
 20
211.8138452213618
 30
0.0
  0
LINE
  5
DE
330
1F
100
AcDbEntity
  8
0
  6
Continuous
 62
     7
370
    25
100
AcDbLine
 10
-282.9029012308
 20
207.169610419
 30
0.0
 11
-283.1083299167
 21
206.9087931113
 31
0.0
  0
LINE
  5
DF
330
1F
100
AcDbEntity
  8
0
  6
Continuous
 62
     7
370
    25
100
AcDbLine
 10
-283.1083299167
 20
206.9087931113
 30
0.0
 11
-285.1345719039
 21
208.5038451946
 31
0.0
  0
LINE
  5
E0
330
1F
100
AcDbEntity
  8
0
  6
Continuous
 62
     7
370
    25
100
AcDbLine
 10
-285.1345719039
 20
208.5038451946
 30
0.0
 11
-284.929143218
 21
208.7646625023
 31
0.0
  0
LINE
  5
E1
330
1F
100
AcDbEntity
  8
0
  6
Continuous
 62
     7
370
    25
100
AcDbLine
 10
-284.929143218
 20
208.7646625023
 30
0.0
 11
-284.5659621283
 21
208.47860481
 31
0.0
  0
SPLINE
  5
E2
330
1F
100
AcDbEntity
  8
0
  6
Continuous
 62
     7
370
    25
100
AcDbSpline
210
0.0
220
0.0
230
1.0
 70
     8
 71
     3
 72
    15
 73
    11
 74
     0
 42
0.00000001
 43
0.00000001
 40
0.0
 40
0.0
 40
0.0
 40
0.0
 40
0.1410462291506624
 40
0.2735728302022092
 40
0.400251246052957
 40
0.52148731300154
 40
0.6403779013151387
 40
0.7586985932713903
 40
0.8777764444292633
 40
1.0
 40
1.0
 40
1.0
 40
1.0
 10
-284.565962128285
 20
208.4786048099875
 30
0.0
 10
-284.5787373363402
 20
208.5309735370363
 30
0.0
 10
-284.6035160904063
 20
208.6325477581911
 30
0.0
 10
-284.621772998917
 20
208.784712959063
 30
0.0
 10
-284.6234480352881
 20
208.9302570506426
 30
0.0
 10
-284.6090694506157
 20
209.0699696134807
 30
0.0
 10
-284.5771492206347
 20
209.2035041557515
 30
0.0
 10
-284.5291405386546
 20
209.3311353939596
 30
0.0
 10
-284.4651734230089
 20
209.4532678302146
 30
0.0
 10
-284.4106078141271
 20
209.5276617282767
 30
0.0
 10
-284.382969339823
 20
209.5653435920387
 30
0.0
  0
SPLINE
  5
E3
330
1F
100
AcDbEntity
  8
0
  6
Continuous
 62
     7
370
    25
100
AcDbSpline
210
0.0
220
0.0
230
1.0
 70
     8
 71
     3
 72
    23
 73
    19
 74
     0
 42
0.00000001
 43
0.00000001
 40
0.0
 40
0.0
 40
0.0
 40
0.0
 40
0.0759473009567631
 40
0.1491234694197593
 40
0.2207542357015327
 40
0.2922675999157829
 40
0.3635072816804352
 40
0.4332760555972313
 40
0.5030942218854689
 40
0.5748952302710076
 40
0.6134893457734268
 40
0.6556462994435273
 40
0.7019223163880208
 40
0.7526480105603108
 40
0.8077677851604199
 40
0.8672637229145489
 40
0.9313237081516098
 40
1.0
 40
1.0
 40
1.0
 40
1.0
 10
-284.382969339823
 20
209.5653435920387
 30
0.0
 10
-284.3526626294529
 20
209.6011509935033
 30
0.0
 10
-284.2931550269424
 20
209.6714592713491
 30
0.0
 10
-284.1877690375993
 20
209.758674420927
 30
0.0
 10
-284.0740970144029
 20
209.8293075818299
 30
0.0
 10
-283.9514967197208
 20
209.8802591832589
 30
0.0
 10
-283.8242484629763
 20
209.9130818237316
 30
0.0
 10
-283.6945314924841
 20
209.9279906030105
 30
0.0
 10
-283.5638984587412
 20
209.9206973050726
 30
0.0
 10
-283.4542977898924
 20
209.9000403466428
 30
0.0
 10
-283.3646244982412
 20
209.8712299887015
 30
0.0
 10
-283.2921938073192
 20
209.8412477855082
 30
0.0
 10
-283.2148248681877
 20
209.8040090878039
 30
0.0
 10
-283.1330474112969
 20
209.7579703388727
 30
0.0
 10
-283.0459593433149
 20
209.7048905907601
 30
0.0
 10
-282.9550174399022
 20
209.6426262096705
 30
0.0
 10
-282.85884159658
 20
209.5733063943784
 30
0.0
 10
-282.7940802934303
 20
209.5232390644984
 30
0.0
 10
-282.7605735064897
 20
209.4973347779355
 30
0.0
  0
LINE
  5
E4
330
1F
100
AcDbEntity
  8
0
  6
Continuous
 62
     7
370
    25
100
AcDbLine
 10
-282.7605735065
 20
209.4973347779
 30
0.0
 11
-281.7173042757
 21
208.6763211561
 31
0.0
  0
LINE
  5
E5
330
1F
100
AcDbEntity
  8
0
  6
Continuous
 62
     7
370
    25
100
AcDbLine
 10
-281.7173042757
 20
208.6763211561
 30
0.0
 11
-281.9206295962
 21
208.4176072138
 31
0.0
  0
LINE
  5
E6
330
1F
100
AcDbEntity
  8
0
  6
Continuous
 62
     7
370
    25
100
AcDbLine
 10
-281.9206295962
 20
208.4176072138
 30
0.0
 11
-282.8874765514
 21
209.1783243613
 31
0.0
  0
SPLINE
  5
E7
330
1F
100
AcDbEntity
  8
0
  6
Continuous
 62
     7
370
    25
100
AcDbSpline
210
0.0
220
0.0
230
1.0
 70
     8
 71
     3
 72
    15
 73
    11
 74
     0
 42
0.00000001
 43
0.00000001
 40
0.0
 40
0.0
 40
0.0
 40
0.0
 40
0.1790292220994327
 40
0.3425174590123494
 40
0.4895707403883661
 40
0.6218698555014847
 40
0.7394639280857713
 40
0.8417982557087941
 40
0.928040129211001
 40
1.0
 40
1.0
 40
1.0
 40
1.0
 10
-282.8874765513616
 20
209.1783243612689
 30
0.0
 10
-282.9154396087417
 20
209.200398505732
 30
0.0
 10
-282.9689383350822
 20
209.2426306049542
 30
0.0
 10
-283.0466898178768
 20
209.3013358461889
 30
0.0
 10
-283.1177182278343
 20
209.3534983728846
 30
0.0
 10
-283.1822280465877
 20
209.3990795693196
 30
0.0
 10
-283.2401459933008
 20
209.4385794241856
 30
0.0
 10
-283.2919031869877
 20
209.4707332517674
 30
0.0
 10
-283.3369066120096
 20
209.4965516653721
 30
0.0
 10
-283.3653321342358
 20
209.5101016851137
 30
0.0
 10
-283.3782618077718
 20
209.5162650663973
 30
0.0
  0
SPLINE
  5
E8
330
1F
100
AcDbEntity
  8
0
  6
Continuous
 62
     7
370
    25
100
AcDbSpline
210
0.0
220
0.0
230
1.0
 70
     8
 71
     3
 72
    15
 73
    11
 74
     0
 42
0.00000001
 43
0.00000001
 40
0.0
 40
0.0
 40
0.0
 40
0.0
 40
0.138134090269188
 40
0.2658737126620556
 40
0.3851158591838677
 40
0.5007042026286982
 40
0.6161294848586649
 40
0.7345792324096763
 40
0.8620001613825301
 40
1.0
 40
1.0
 40
1.0
 40
1.0
 10
-283.3782618077718
 20
209.5162650663973
 30
0.0
 10
-283.4166081318868
 20
209.5329593073856
 30
0.0
 10
-283.4904152532104
 20
209.5650915625225
 30
0.0
 10
-283.6045538134194
 20
209.5911967882606
 30
0.0
 10
-283.7145149801935
 20
209.597706601064
 30
0.0
 10
-283.820037289794
 20
209.5826925040795
 30
0.0
 10
-283.9203721335139
 20
209.5476546308766
 30
0.0
 10
-284.0153634111466
 20
209.4927409227333
 30
0.0
 10
-284.1053253264926
 20
209.4183947930583
 30
0.0
 10
-284.1569892174368
 20
209.3568550741135
 30
0.0
 10
-284.1838507500795
 20
209.3248588163976
 30
0.0
  0
SPLINE
  5
E9
330
1F
100
AcDbEntity
  8
0
  6
Continuous
 62
     7
370
    25
100
AcDbSpline
210
0.0
220
0.0
230
1.0
 70
     8
 71
     3
 72
    23
 73
    19
 74
     0
 42
0.00000001
 43
0.00000001
 40
0.0
 40
0.0
 40
0.0
 40
0.0
 40
0.0628858308874485
 40
0.1251418879425237
 40
0.1856322686038149
 40
0.2464474944582553
 40
0.3080444982167721
 40
0.3694813609331996
 40
0.4326351724276564
 40
0.4972920044663982
 40
0.5620793027525414
 40
0.6255803524064624
 40
0.6881801969373937
 40
0.7501076040850848
 40
0.8121201738773776
 40
0.8741951220191071
 40
0.9361480902522508
 40
0.9999999999999999
 40
0.9999999999999999
 40
0.9999999999999999
 40
0.9999999999999999
 10
-284.1838507500795
 20
209.3248588163976
 30
0.0
 10
-284.1986906220838
 20
209.3050020975801
 30
0.0
 10
-284.2282217513261
 20
209.2654875162175
 30
0.0
 10
-284.2658591550628
 20
209.2026060444545
 30
0.0
 10
-284.2970525098552
 20
209.1372486499261
 30
0.0
 10
-284.322269973634
 20
209.0696632787187
 30
0.0
 10
-284.3421927452648
 20
208.9998924719359
 30
0.0
 10
-284.3544714969737
 20
208.9274628029263
 30
0.0
 10
-284.3617294465826
 20
208.8531754084716
 30
0.0
 10
-284.3620900306153
 20
208.7771998295178
 30
0.0
 10
-284.3573419059234
 20
208.701274860523
 30
0.0
 10
-284.3469061544811
 20
208.6266943543653
 30
0.0
 10
-284.3304703514938
 20
208.5544028551418
 30
0.0
 10
-284.3098522872417
 20
208.4837603588418
 30
0.0
 10
-284.2820105089372
 20
208.4158485923178
 30
0.0
 10
-284.2498836936745
 20
208.3499301564993
 30
0.0
 10
-284.2125556766903
 20
208.2858550580732
 30
0.0
 10
-284.1832832220794
 20
208.2458196832275
 30
0.0
 10
-284.1684260705928
 20
208.2254998420386
 30
0.0
  0
SPLINE
  5
EA
330
1F
100
AcDbEntity
  8
0
  6
Continuous
 62
     7
370
    25
100
AcDbSpline
210
0.0
220
0.0
230
1.0
 70
     8
 71
     3
 72
    15
 73
    11
 74
     0
 42
0.00000001
 43
0.00000001
 40
0.0
 40
0.0
 40
0.0
 40
0.0
 40
0.076950089431139
 40
0.1670509945777184
 40
0.2711793346443775
 40
0.3887786751876486
 40
0.5213189882599972
 40
0.6660458919108194
 40
0.825804285228375
 40
1.0
 40
1.0
 40
1.0
 40
1.0
 10
-284.1684260705928
 20
208.2254998420386
 30
0.0
 10
-284.1568933205245
 20
208.211575795608
 30
0.0
 10
-284.1318568665923
 20
208.1813480749906
 30
0.0
 10
-284.0877116914774
 20
208.1353841581435
 30
0.0
 10
-284.0362421098673
 20
208.0832604321768
 30
0.0
 10
-283.9745207134897
 20
208.0274073271057
 30
0.0
 10
-283.9049837670756
 20
207.9660389689313
 30
0.0
 10
-283.8264897285821
 20
207.8998786887149
 30
0.0
 10
-283.7397735383038
 20
207.8283059300385
 30
0.0
 10
-283.6782052965677
 20
207.7796997459299
 30
0.0
 10
-283.6460903334135
 20
207.7543459958846
 30
0.0
  0
LINE
  5
EB
330
1F
100
AcDbEntity
  8
0
  6
Continuous
 62
     7
370
    25
100
AcDbLine
 10
-283.6460903334
 20
207.7543459959
 30
0.0
 11
-282.9029012308
 21
207.169610419
 31
0.0
  0
LINE
  5
EC
330
1F
100
AcDbEntity
  8
0
  6
Continuous
 62
     7
370
    25
100
AcDbLine
 10
-285.4293435384
 20
207.363604173
 30
0.0
 11
-285.8016392115
 21
207.6566730832
 31
0.0
  0
LINE
  5
ED
330
1F
100
AcDbEntity
  8
0
  6
Continuous
 62
     7
370
    25
100
AcDbLine
 10
-285.8016392115
 20
207.6566730832
 30
0.0
 11
-285.5990150128
 21
207.9139847819
 31
0.0
  0
LINE
  5
EE
330
1F
100
AcDbEntity
  8
0
  6
Continuous
 62
     7
370
    25
100
AcDbLine
 10
-285.5990150128
 20
207.9139847819
 30
0.0
 11
-283.5727730256
 21
206.3189326986
 31
0.0
  0
LINE
  5
EF
330
1F
100
AcDbEntity
  8
0
  6
Continuous
 62
     7
370
    25
100
AcDbLine
 10
-283.5727730256
 20
206.3189326986
 30
0.0
 11
-283.7753972243
 21
206.0616209999
 31
0.0
  0
LINE
  5
F0
330
1F
100
AcDbEntity
  8
0
  6
Continuous
 62
     7
370
    25
100
AcDbLine
 10
-283.7753972243
 20
206.0616209999
 30
0.0
 11
-284.1238547563
 21
206.3357596217
 31
0.0
  0
SPLINE
  5
F1
330
1F
100
AcDbEntity
  8
0
  6
Continuous
 62
     7
370
    25
100
AcDbSpline
210
0.0
220
0.0
230
1.0
 70
     8
 71
     3
 72
    15
 73
    11
 74
     0
 42
0.00000001
 43
0.00000001
 40
0.0
 40
0.0
 40
0.0
 40
0.0
 40
0.133914442870027
 40
0.2627803078375543
 40
0.3873076334286465
 40
0.5089826229491679
 40
0.6294257386481757
 40
0.7505034265828273
 40
0.8731707312320501
 40
1.0
 40
1.0
 40
1.0
 40
1.0
 10
-284.1238547563465
 20
206.3357596216702
 30
0.0
 10
-284.1139778694873
 20
206.2833266912982
 30
0.0
 10
-284.0945964546545
 20
206.180437553363
 30
0.0
 10
-284.082988685354
 20
206.0262165025946
 30
0.0
 10
-284.0896925618204
 20
205.876712203586
 30
0.0
 10
-284.1111523062666
 20
205.732011688487
 30
0.0
 10
-284.1491283168842
 20
205.5920477912606
 30
0.0
 10
-284.2044139728631
 20
205.4576394139089
 30
0.0
 10
-284.275545693049
 20
205.3278445597737
 30
0.0
 10
-284.3344142480948
 20
205.2476962047483
 30
0.0
 10
-284.364339531988
 20
205.2069535319267
 30
0.0
  0
SPLINE
  5
F2
330
1F
100
AcDbEntity
  8
0
  6
Continuous
 62
     7
370
    25
100
AcDbSpline
210
0.0
220
0.0
230
1.0
 70
     8
 71
     3
 72
    23
 73
    19
 74
     0
 42
0.00000001
 43
0.00000001
 40
0.0
 40
0.0
 40
0.0
 40
0.0
 40
0.063536255547067
 40
0.1252780364721099
 40
0.185822757969859
 40
0.2460500976671124
 40
0.3064646025830596
 40
0.3674561212125661
 40
0.4297582056209148
 40
0.4942528454054559
 40
0.5587611464143954
 40
0.6218502949001568
 40
0.683806672536459
 40
0.745226497544114
 40
0.8070467237770231
 40
0.8697022767703216
 40
0.9336790717564486
 40
1.0
 40
1.0
 40
1.0
 40
1.0
 10
-284.364339531988
 20
205.2069535319267
 30
0.0
 10
-284.3928360763933
 20
205.1724089717896
 30
0.0
 10
-284.44902432826
 20
205.1042955044866
 30
0.0
 10
-284.5447693030652
 20
205.0146303362322
 30
0.0
 10
-284.6460993109024
 20
204.9353122714067
 30
0.0
 10
-284.7545555998606
 20
204.8675985258306
 30
0.0
 10
-284.8700568673985
 20
204.8120744398162
 30
0.0
 10
-284.99212971566
 20
204.7685926107446
 30
0.0
 10
-285.1205528717798
 20
204.7363003367602
 30
0.0
 10
-285.2538449003393
 20
204.7154444177243
 30
0.0
 10
-285.3890418792727
 20
204.7071600056591
 30
0.0
 10
-285.5226850017497
 20
204.7109481351187
 30
0.0
 10
-285.6530388017324
 20
204.728693072769
 30
0.0
 10
-285.7800501451418
 20
204.7591012162512
 30
0.0
 10
-285.904065851063
 20
204.801798097171
 30
0.0
 10
-286.0242151107085
 20
204.858599718523
 30
0.0
 10
-286.1417555644409
 20
204.9273187395246
 30
0.0
 10
-286.215118921774
 20
204.9825347432078
 30
0.0
 10
-286.2524605255778
 20
205.0106394293634
 30
0.0
  0
SPLINE
  5
F3
330
1F
100
AcDbEntity
  8
0
  6
Continuous
 62
     7
370
    25
100
AcDbSpline
210
0.0
220
0.0
230
1.0
 70
     8
 71
     3
 72
    23
 73
    19
 74
     0
 42
0.00000001
 43
0.00000001
 40
0.0
 40
0.0
 40
0.0
 40
0.0
 40
0.0648973241546378
 40
0.1279749163792761
 40
0.1898212490241158
 40
0.2510241236479642
 40
0.3120403512225317
 40
0.3739680989150403
 40
0.4370105699831534
 40
0.5018396045083134
 40
0.5665900169220653
 40
0.6294874059229517
 40
0.6911149080503914
 40
0.751825470348641
 40
0.8124392826853452
 40
0.8734963313793883
 40
0.9358233410788857
 40
1.0
 40
1.0
 40
1.0
 40
1.0
 10
-286.2524605255778
 20
205.0106394293634
 30
0.0
 10
-286.2877015238342
 20
205.0396035576248
 30
0.0
 10
-286.3571953568041
 20
205.0967196550993
 30
0.0
 10
-286.4489858572262
 20
205.1938396204258
 30
0.0
 10
-286.530178733022
 20
205.2964677780853
 30
0.0
 10
-286.6000690457405
 20
205.4055196970621
 30
0.0
 10
-286.6578151502905
 20
205.52148725647
 30
0.0
 10
-286.7043227723477
 20
205.6437969961477
 30
0.0
 10
-286.7383971108473
 20
205.7728723387494
 30
0.0
 10
-286.7615636841225
 20
205.9063483228748
 30
0.0
 10
-286.7716479303377
 20
206.0413277163746
 30
0.0
 10
-286.7708654850478
 20
206.1744279615117
 30
0.0
 10
-286.7562574368238
 20
206.3039980030137
 30
0.0
 10
-286.7275531643226
 20
206.4294351657255
 30
0.0
 10
-286.688010646548
 20
206.5515234345469
 30
0.0
 10
-286.6337803087731
 20
206.6690645153687
 30
0.0
 10
-286.5680332950316
 20
206.7835243076033
 30
0.0
 10
-286.5149613910148
 20
206.8548591550597
 30
0.0
 10
-286.4880374486539
 20
206.8910480832096
 30
0.0
  0
SPLINE
  5
F4
330
1F
100
AcDbEntity
  8
0
  6
Continuous
 62
     7
370
    25
100
AcDbSpline
210
0.0
220
0.0
230
1.0
 70
     8
 71
     3
 72
    15
 73
    11
 74
     0
 42
0.00000001
 43
0.00000001
 40
0.0
 40
0.0
 40
0.0
 40
0.0
 40
0.1283645227543471
 40
0.2521030807710856
 40
0.3734034998204961
 40
0.4928821702990263
 40
0.6137830723171059
 40
0.7372993645078774
 40
0.8658646609649391
 40
1.0
 40
1.0
 40
1.0
 40
1.0
 10
-286.4880374486539
 20
206.8910480832096
 30
0.0
 10
-286.4548192308178
 20
206.930686470874
 30
0.0
 10
-286.3895799039811
 20
207.0085347690844
 30
0.0
 10
-286.2774730775826
 20
207.1093921521951
 30
0.0
 10
-286.1572729085112
 20
207.1941053578559
 30
0.0
 10
-286.0281386788945
 20
207.2621824677718
 30
0.0
 10
-285.8905779788689
 20
207.3136556233657
 30
0.0
 10
-285.7440629304371
 20
207.347911029982
 30
0.0
 10
-285.5891787054624
 20
207.3656831855597
 30
0.0
 10
-285.4833697499815
 20
207.3643069042543
 30
0.0
 10
-285.4293435383974
 20
207.3636041729528
 30
0.0
  0
LINE
  5
F5
330
1F
100
AcDbEntity
  8
0
  6
Continuous
 62
     7
370
    25
100
AcDbLine
 10
-285.5968493855
 20
203.7476840251
 30
0.0
 11
-285.8029791932
 21
203.4854644739
 31
0.0
  0
LINE
  5
F6
330
1F
100
AcDbEntity
  8
0
  6
Continuous
 62
     7
370
    25
100
AcDbLine
 10
-285.8029791932
 20
203.4854644739
 30
0.0
 11
-287.8292211804
 21
205.0805165572
 31
0.0
  0
LINE
  5
F7
330
1F
100
AcDbEntity
  8
0
  6
Continuous
 62
     7
370
    25
100
AcDbLine
 10
-287.8292211804
 20
205.0805165572
 30
0.0
 11
-287.6230913727
 21
205.3427361085
 31
0.0
  0
LINE
  5
F8
330
1F
100
AcDbEntity
  8
0
  6
Continuous
 62
     7
370
    25
100
AcDbLine
 10
-287.6230913727
 20
205.3427361085
 30
0.0
 11
-285.5968493855
 21
203.7476840251
 31
0.0
  0
SPLINE
  5
F9
330
1F
100
AcDbEntity
  8
0
  6
Continuous
 62
     7
370
    25
100
AcDbSpline
210
0.0
220
0.0
230
1.0
 70
     8
 71
     3
 72
    15
 73
    11
 74
     0
 42
0.00000001
 43
0.00000001
 40
0.0
 40
0.0
 40
0.0
 40
0.0
 40
0.1262912006276011
 40
0.2475980933761162
 40
0.3708358375193196
 40
0.4996510085672456
 40
0.6290894824695014
 40
0.751880138689339
 40
0.8732423091317681
 40
1.0
 40
1.0
 40
1.0
 40
1.0
 10
-288.130703552215
 20
205.5285333841195
 30
0.0
 10
-288.1425229425617
 20
205.5148289524829
 30
0.0
 10
-288.1656952498971
 20
205.4879609590901
 30
0.0
 10
-288.2101951693534
 20
205.4583727304127
 30
0.0
 10
-288.2591424439897
 20
205.4366283884942
 30
0.0
 10
-288.3129392801692
 20
205.4260382912055
 30
0.0
 10
-288.3675260767424
 20
205.4244526652907
 30
0.0
 10
-288.4205132774687
 20
205.4327101342282
 30
0.0
 10
-288.4704232966684
 20
205.451967912246
 30
0.0
 10
-288.4994091100602
 20
205.4724809263087
 30
0.0
 10
-288.51421717401
 20
205.482960467453
 30
0.0
  0
SPLINE
  5
FA
330
1F
100
AcDbEntity
  8
0
  6
Continuous
 62
     7
370
    25
100
AcDbSpline
210
0.0
220
0.0
230
1.0
 70
     8
 71
     3
 72
    15
 73
    11
 74
     0
 42
0.00000001
 43
0.00000001
 40
0.0
 40
0.0
 40
0.0
 40
0.0
 40
0.1281898775052265
 40
0.2500368631370531
 40
0.3728751552305282
 40
0.5012727960447035
 40
0.6302917193938926
 40
0.7526843727157096
 40
0.8736531704290073
 40
1.0
 40
1.0
 40
1.0
 40
1.0
 10
-288.51421717401
 20
205.482960467453
 30
0.0
 10
-288.5281097488096
 20
205.4950426588217
 30
0.0
 10
-288.5552074876594
 20
205.5186092093829
 30
0.0
 10
-288.58589447997
 20
205.5629107860581
 30
0.0
 10
-288.6074766993514
 20
205.6121342793329
 30
0.0
 10
-288.6181276267388
 20
205.6658880262724
 30
0.0
 10
-288.6196968157142
 20
205.7204864660163
 30
0.0
 10
-288.6114435207223
 20
205.7734707101117
 30
0.0
 10
-288.5921846661578
 20
205.8233814918877
 30
0.0
 10
-288.5716717999007
 20
205.8523672005807
 30
0.0
 10
-288.5611923342661
 20
205.8671752110428
 30
0.0
  0
SPLINE
  5
FB
330
1F
100
AcDbEntity
  8
0
  6
Continuous
 62
     7
370
    25
100
AcDbSpline
210
0.0
220
0.0
230
1.0
 70
     8
 71
     3
 72
    15
 73
    11
 74
     0
 42
0.00000001
 43
0.00000001
 40
0.0
 40
0.0
 40
0.0
 40
0.0
 40
0.127665984983951
 40
0.2490150005283331
 40
0.3713512712155795
 40
0.4992241704115271
 40
0.6277672405708639
 40
0.7499305060159621
 40
0.8719205208645028
 40
0.9999999999999999
 40
0.9999999999999999
 40
0.9999999999999999
 40
0.9999999999999999
 10
-288.5611923342661
 20
205.8671752110428
 30
0.0
 10
-288.5491101004642
 20
205.8810697739593
 30
0.0
 10
-288.5255434671363
 20
205.9081713906697
 30
0.0
 10
-288.481242489282
 20
205.9388303265189
 30
0.0
 10
-288.4320166927959
 20
205.9605204579072
 30
0.0
 10
-288.3782646661345
 20
205.9707502176504
 30
0.0
 10
-288.3235859545651
 20
205.973892090773
 30
0.0
 10
-288.2705848649373
 20
205.9639637759568
 30
0.0
 10
-288.2198887888955
 20
205.9453311023294
 30
0.0
 10
-288.1905843592725
 20
205.92424766863
 30
0.0
 10
-288.1755753470866
 20
205.9134492495041
 30
0.0
  0
SPLINE
  5
FC
330
1F
100
AcDbEntity
  8
0
  6
Continuous
 62
     7
370
    25
100
AcDbSpline
210
0.0
220
0.0
230
1.0
 70
     8
 71
     3
 72
    15
 73
    11
 74
     0
 42
0.00000001
 43
0.00000001
 40
0.0
 40
0.0
 40
0.0
 40
0.0
 40
0.1257367770175318
 40
0.2474433383352161
 40
0.3694990048842059
 40
0.4977486719873011
 40
0.6266704846622824
 40
0.7491936950069217
 40
0.8715431442851166
 40
1.0
 40
1.0
 40
1.0
 40
1.0
 10
-288.1755753470866
 20
205.9134492495041
 30
0.0
 10
-288.1619468264864
 20
205.9015802885839
 30
0.0
 10
-288.135126617524
 20
205.8782228001678
 30
0.0
 10
-288.1044614357914
 20
205.83436507283
 30
0.0
 10
-288.0838352506969
 20
205.7847901958034
 30
0.0
 10
-288.0733419084387
 20
205.7312485593794
 30
0.0
 10
-288.0702761006467
 20
205.6765374334566
 30
0.0
 10
-288.0801850232267
 20
205.6235446076041
 30
0.0
 10
-288.0988227578773
 20
205.5728463748661
 30
0.0
 10
-288.1199054916002
 20
205.54354224353
 30
0.0
 10
-288.130703552215
 20
205.5285333841195
 30
0.0
  0
LINE
  5
FD
330
1F
100
AcDbEntity
  8
0
  6
Continuous
 62
     7
370
    25
100
AcDbLine
 10
-286.5291870717
 20
202.5633386353
 30
0.0
 11
-286.7381213666
 21
202.2976134751
 31
0.0
  0
LINE
  5
FE
330
1F
100
AcDbEntity
  8
0
  6
Continuous
 62
     7
370
    25
100
AcDbLine
 10
-286.7381213666
 20
202.2976134751
 30
0.0
 11
-288.7643633538
 21
203.8926655584
 31
0.0
  0
LINE
  5
FF
330
1F
100
AcDbEntity
  8
0
  6
Continuous
 62
     7
370
    25
100
AcDbLine
 10
-288.7643633538
 20
203.8926655584
 30
0.0
 11
-288.5554290589
 21
204.1583907187
 31
0.0
  0
LINE
  5
100
330
1F
100
AcDbEntity
  8
0
  6
Continuous
 62
     7
370
    25
100
AcDbLine
 10
-288.5554290589
 20
204.1583907187
 30
0.0
 11
-288.2595556615
 21
203.9256182828
 31
0.0
  0
SPLINE
  5
101
330
1F
100
AcDbEntity
  8
0
  6
Continuous
 62
     7
370
    25
100
AcDbSpline
210
0.0
220
0.0
230
1.0
 70
     8
 71
     3
 72
    15
 73
    11
 74
     0
 42
0.00000001
 43
0.00000001
 40
0.0
 40
0.0
 40
0.0
 40
0.0
 40
0.1546899197465124
 40
0.297829656377236
 40
0.4307329315036788
 40
0.5547840372830039
 40
0.6717422087952948
 40
0.783616855716806
 40
0.8919398269388494
 40
1.0
 40
1.0
 40
1.0
 40
1.0
 10
-288.259555661474
 20
203.9256182827613
 30
0.0
 10
-288.2717868029131
 20
203.967024616069
 30
0.0
 10
-288.2953358270377
 20
204.046745609144
 30
0.0
 10
-288.316856706405
 20
204.165154303861
 30
0.0
 10
-288.3275605100247
 20
204.2764238830637
 30
0.0
 10
-288.324856108313
 20
204.3809447804679
 30
0.0
 10
-288.3104314732429
 20
204.4786048571212
 30
0.0
 10
-288.2837304403971
 20
204.569051453246
 30
0.0
 10
-288.2452670731836
 20
204.6527441637481
 30
0.0
 10
-288.2099066887308
 20
204.7018008294223
 30
0.0
 10
-288.192247969166
 20
204.7262993725049
 30
0.0
  0
SPLINE
  5
102
330
1F
100
AcDbEntity
  8
0
  6
Continuous
 62
     7
370
    25
100
AcDbSpline
210
0.0
220
0.0
230
1.0
 70
     8
 71
     3
 72
    11
 73
     7
 74
     0
 42
0.00000001
 43
0.00000001
 40
0.0
 40
0.0
 40
0.0
 40
0.0
 40
0.2269509907081236
 40
0.4646576104071807
 40
0.7222264686720163
 40
1.0
 40
1.0
 40
1.0
 40
1.0
 10
-288.192247969166
 20
204.7262993725049
 30
0.0
 10
-288.1768916938417
 20
204.7441420325591
 30
0.0
 10
-288.145451380783
 20
204.7806729494689
 30
0.0
 10
-288.0861098350059
 20
204.8267360225921
 30
0.0
 10
-288.0181060287721
 20
204.8691778214324
 30
0.0
 10
-287.9675028685696
 20
204.8918955965629
 30
0.0
 10
-287.9412463666018
 20
204.9036831866073
 30
0.0
  0
LINE
  5
103
330
1F
100
AcDbEntity
  8
0
  6
Continuous
 62
     7
370
    25
100
AcDbLine
 10
-287.9412463666
 20
204.9036831866
 30
0.0
 11
-287.8290668794
 21
204.5944884751
 31
0.0
  0
SPLINE
  5
104
330
1F
100
AcDbEntity
  8
0
  6
Continuous
 62
     7
370
    25
100
AcDbSpline
210
0.0
220
0.0
230
1.0
 70
     8
 71
     3
 72
    11
 73
     7
 74
     0
 42
0.00000001
 43
0.00000001
 40
0.0
 40
0.0
 40
0.0
 40
0.0
 40
0.2950883192742916
 40
0.5577684915310186
 40
0.7928554782525227
 40
1.0
 40
1.0
 40
1.0
 40
1.0
 10
-287.8290668794224
 20
204.5944884750688
 30
0.0
 10
-287.8446614833791
 20
204.5856363940688
 30
0.0
 10
-287.8741380100892
 20
204.5689044140351
 30
0.0
 10
-287.9134493007775
 20
204.5411208446613
 30
0.0
 10
-287.9473135416166
 20
204.5146242859173
 30
0.0
 10
-287.9646679252407
 20
204.4940496605463
 30
0.0
 10
-287.9727968473712
 20
204.484412353274
 30
0.0
  0
SPLINE
  5
105
330
1F
100
AcDbEntity
  8
0
  6
Continuous
 62
     7
370
    25
100
AcDbSpline
210
0.0
220
0.0
230
1.0
 70
     8
 71
     3
 72
    19
 73
    15
 74
     0
 42
0.00000001
 43
0.00000001
 40
0.0
 40
0.0
 40
0.0
 40
0.0
 40
0.0979807986770159
 40
0.1982118522227159
 40
0.3042470293574743
 40
0.4203198834814911
 40
0.4820238665117186
 40
0.5454307269158126
 40
0.6120511424017919
 40
0.6821059320054608
 40
0.7551762297966178
 40
0.8323229136299986
 40
0.9142227860779635
 40
0.9999999999999999
 40
0.9999999999999999
 40
0.9999999999999999
 40
0.9999999999999999
 10
-287.9727968473712
 20
204.484412353274
 30
0.0
 10
-287.9885281914579
 20
204.461600472483
 30
0.0
 10
-288.0203521701507
 20
204.4154528067634
 30
0.0
 10
-288.0502089701922
 20
204.3340866144
 30
0.0
 10
-288.0651394201295
 20
204.2441398993732
 30
0.0
 10
-288.0663207064646
 20
204.1637733568922
 30
0.0
 10
-288.059036440442
 20
204.0961053561104
 30
0.0
 10
-288.0484942780719
 20
204.0429979833615
 30
0.0
 10
-288.0319661352436
 20
203.9889996250492
 30
0.0
 10
-288.0110306766852
 20
203.933652737757
 30
0.0
 10
-287.9847132934717
 20
203.8773552189578
 30
0.0
 10
-287.9538172788569
 20
203.8196371445304
 30
0.0
 10
-287.917413045242
 20
203.7609319072733
 30
0.0
 10
-287.8900433392832
 20
203.7223821435325
 30
0.0
 10
-287.8760420396792
 20
203.7026615519919
 30
0.0
  0
SPLINE
  5
106
330
1F
100
AcDbEntity
  8
0
  6
Continuous
 62
     7
370
    25
100
AcDbSpline
210
0.0
220
0.0
230
1.0
 70
     8
 71
     3
 72
    15
 73
    11
 74
     0
 42
0.00000001
 43
0.00000001
 40
0.0
 40
0.0
 40
0.0
 40
0.0
 40
0.0713809368489425
 40
0.157393939454352
 40
0.2593957318922733
 40
0.3764295294866269
 40
0.5085946983354863
 40
0.6565572921234639
 40
0.8203847261708184
 40
1.0
 40
1.0
 40
1.0
 40
1.0
 10
-287.8760420396792
 20
203.7026615519919
 30
0.0
 10
-287.8629361073102
 20
203.6858868899497
 30
0.0
 10
-287.8340377148706
 20
203.6488990013287
 30
0.0
 10
-287.7812337760587
 20
203.5923021863
 30
0.0
 10
-287.716861561657
 20
203.5280725658036
 30
0.0
 10
-287.6402232227778
 20
203.456714579831
 30
0.0
 10
-287.5517087830443
 20
203.3780731525395
 30
0.0
 10
-287.4506206836161
 20
203.292633798067
 30
0.0
 10
-287.3368640820131
 20
203.200329557213
 30
0.0
 10
-287.2567714213992
 20
203.1365553503745
 30
0.0
 10
-287.2148841871154
 20
203.1032024173763
 30
0.0
  0
LINE
  5
107
330
1F
100
AcDbEntity
  8
0
  6
Continuous
 62
     7
370
    25
100
AcDbLine
 10
-287.2148841871
 20
203.1032024174
 30
0.0
 11
-286.5291870717
 21
202.5633386353
 31
0.0
  0
LINE
  5
108
330
1F
100
AcDbEntity
  8
0
  6
Continuous
 62
     7
370
    25
100
AcDbLine
 10
-287.6355545569
 20
201.1581177785
 30
0.0
 11
-290.1091122492
 21
203.1051330028
 31
0.0
  0
LINE
  5
109
330
1F
100
AcDbEntity
  8
0
  6
Continuous
 62
     7
370
    25
100
AcDbLine
 10
-290.1091122492
 20
203.1051330028
 30
0.0
 11
-290.5914840441
 21
202.4923525541
 31
0.0
  0
LINE
  5
10A
330
1F
100
AcDbEntity
  8
0
  6
Continuous
 62
     7
370
    25
100
AcDbLine
 10
-290.5914840441
 20
202.4923525541
 30
0.0
 11
-290.8572092044
 21
202.701286849
 31
0.0
  0
LINE
  5
10B
330
1F
100
AcDbEntity
  8
0
  6
Continuous
 62
     7
370
    25
100
AcDbLine
 10
-290.8572092044
 20
202.701286849
 30
0.0
 11
-289.6744167364
 21
204.2037908554
 31
0.0
  0
LINE
  5
10C
330
1F
100
AcDbEntity
  8
0
  6
Continuous
 62
     7
370
    25
100
AcDbLine
 10
-289.6744167364
 20
204.2037908554
 30
0.0
 11
-289.4086915761
 21
203.9948565605
 31
0.0
  0
LINE
  5
10D
330
1F
100
AcDbEntity
  8
0
  6
Continuous
 62
     7
370
    25
100
AcDbLine
 10
-289.4086915761
 20
203.9948565605
 30
0.0
 11
-289.8896611274
 21
203.3841794772
 31
0.0
  0
LINE
  5
10E
330
1F
100
AcDbEntity
  8
0
  6
Continuous
 62
     7
370
    25
100
AcDbLine
 10
-289.8896611274
 20
203.3841794772
 30
0.0
 11
-287.4161034351
 21
201.4371642528
 31
0.0
  0
LINE
  5
10F
330
1F
100
AcDbEntity
  8
0
  6
Continuous
 62
     7
370
    25
100
AcDbLine
 10
-287.4161034351
 20
201.4371642528
 30
0.0
 11
-287.6355545569
 21
201.1581177785
 31
0.0
  0
LINE
  5
110
330
1F
100
AcDbEntity
  8
0
  6
Continuous
 62
     7
370
    25
100
AcDbLine
 10
-225.6473762669
 20
258.1216293672
 30
0.0
 11
-277.4919923265
 21
192.0795544058
 31
0.0
  0
LINE
  5
111
330
1F
100
AcDbEntity
  8
0
  6
Continuous
 62
     7
370
    25
100
AcDbLine
 10
-225.6473762669
 20
258.1216293672
 30
0.0
 11
-266.9075458681
 21
290.6017873149
 31
0.0
  0
SPLINE
  5
112
330
1F
100
AcDbEntity
  8
0
  6
Continuous
 62
     7
370
    25
100
AcDbSpline
210
0.0
220
0.0
230
1.0
 70
     8
 71
     3
 72
    16
 73
    12
 74
     0
 42
0.00000001
 43
0.00000001
 40
0.0
 40
0.0
 40
0.0
 40
0.0
 40
0.1249999999999986
 40
0.1249999999999986
 40
0.2499999999999971
 40
0.2499999999999971
 40
0.4999999999999969
 40
0.4999999999999969
 40
0.7499999999999984
 40
0.7499999999999984
 40
1.0
 40
1.0
 40
1.0
 40
1.0
 10
-266.9075458681367
 20
290.6017873149158
 30
0.0
 10
-265.2074301586871
 20
287.0855893665243
 30
0.0
 10
-263.9349986072919
 20
284.4080292132618
 30
0.0
 10
-262.2455038206103
 20
280.7301844969953
 30
0.0
 10
-260.4880668442046
 20
276.6967202911337
 30
0.0
 10
-257.8731378961983
 20
269.7580061758297
 30
0.0
 10
-255.096606466612
 20
261.6111596664094
 30
0.0
 10
-262.3645519332024
 20
253.1185503011599
 30
0.0
 10
-268.6539912845811
 20
253.7982350600248
 30
0.0
 10
-282.7079188099746
 20
255.6339902071284
 30
0.0
 10
-285.344871946066
 20
256.3491166393902
 30
0.0
 10
-293.1496731435512
 20
258.0409360525642
 30
0.0
  0
SPLINE
  5
113
330
1F
100
AcDbEntity
  8
0
  6
Continuous
 62
     7
370
    25
100
AcDbSpline
210
0.0
220
0.0
230
1.0
 70
     8
 71
     3
 72
    14
 73
    10
 74
     0
 42
0.00000001
 43
0.00000001
 40
0.0
 40
0.0
 40
0.0
 40
0.0
 40
0.2500000000000013
 40
0.2500000000000013
 40
0.5000000000000009
 40
0.5000000000000009
 40
0.7500000000000004
 40
0.7500000000000004
 40
1.0
 40
1.0
 40
1.0
 40
1.0
 10
-293.1496736322047
 20
258.0409361584879
 30
0.0
 10
-294.2114644977043
 20
253.2112624324201
 30
0.0
 10
-294.6542287315254
 20
251.042001521352
 30
0.0
 10
-297.2137948464612
 20
243.5570339767458
 30
0.0
 10
-298.8253131608402
 20
240.3648926071216
 30
0.0
 10
-303.310573394049
 20
234.6674989655925
 30
0.0
 10
-306.6145331994444
 20
231.9825966207287
 30
0.0
 10
-312.1300252365093
 20
228.4746596883489
 30
0.0
 10
-314.715489877131
 20
227.1655478181639
 30
0.0
 10
-319.1596206473438
 20
225.0000000001247
 30
0.0
  0
LINE
  5
114
330
1F
100
AcDbEntity
  8
0
  6
Continuous
 62
     7
370
    25
100
AcDbLine
 10
-319.2495802184
 20
224.9563276338
 30
0.0
 11
-319.1596206473
 21
225.0000000001
 31
0.0
  0
SPLINE
  5
115
330
1F
100
AcDbEntity
  8
0
  6
Continuous
 62
     7
370
    25
100
AcDbSpline
210
0.0
220
0.0
230
1.0
 70
     8
 71
     3
 72
     8
 73
     4
 74
     0
 42
0.00000001
 43
0.00000001
 40
0.0
 40
0.0
 40
0.0
 40
0.0
 40
0.065736448595521
 40
0.065736448595521
 40
0.065736448595521
 40
0.065736448595521
 10
-319.2495802183778
 20
224.956327633812
 30
0.0
 10
-305.3304150118379
 20
213.9973641578628
 30
0.0
 10
-291.411249805298
 20
203.0384006819137
 30
0.0
 10
-277.4919923264897
 20
192.0795544057672
 30
0.0
  0
MTEXT
  5
117
330
1F
100
AcDbEntity
  8
0
  6
Continuous
 62
     7
100
AcDbMText
 10
-319.2495802184
 20
191.0599880141
 30
0.0
 40
4.83362
 41
0.0
 71
     1
 72
     1
  1
SOLIDWORKS Educational Product.
  7
SLDTEXTSTYLE0
 73
     1
 44
1.0
  0
MTEXT
  5
118
330
1F
100
AcDbEntity
  8
0
  6
Continuous
 62
     7
100
AcDbMText
 10
-319.2495802184
 20
183.8095580141
 30
0.0
 40
4.83362
 41
0.0
 71
     1
 72
     1
  1
For Instructional Use Only.
  7
SLDTEXTSTYLE0
 73
     1
 44
1.0
  0
ENDSEC
  0
SECTION
  2
OBJECTS
  0
DICTIONARY
  5
C
330
0
100
AcDbDictionary
281
     1
  3
ACAD_GROUP
350
D
  3
ACAD_LAYOUT
350
1A
  3
ACAD_MLINESTYLE
350
17
  3
ACAD_PLOTSETTINGS
350
19
  3
ACAD_PLOTSTYLENAME
350
E
  3
ACAD_SCALELIST
350
47
  3
DWGPROPS
350
119
  0
DICTIONARY
  5
D
102
{ACAD_REACTORS
330
C
102
}
330
C
100
AcDbDictionary
281
     1
  0
DICTIONARY
  5
1A
102
{ACAD_REACTORS
330
C
102
}
330
C
100
AcDbDictionary
281
     1
  3
Layout1
350
1E
  3
Layout2
350
26
  3
Model
350
22
  0
DICTIONARY
  5
17
102
{ACAD_REACTORS
330
C
102
}
330
C
100
AcDbDictionary
281
     1
  3
Standard
350
18
  0
DICTIONARY
  5
19
102
{ACAD_REACTORS
330
C
102
}
330
C
100
AcDbDictionary
281
     1
  0
ACDBDICTIONARYWDFLT
  5
E
102
{ACAD_REACTORS
330
C
102
}
330
C
100
AcDbDictionary
281
     1
  3
Normal
350
F
100
AcDbDictionaryWithDefault
340
F
  0
DICTIONARY
  5
47
102
{ACAD_REACTORS
330
C
102
}
330
C
100
AcDbDictionary
281
     1
  3
A0
350
48
  3
A1
350
49
  3
A2
350
4A
  3
A3
350
4B
  3
A4
350
4C
  3
A5
350
4D
  3
A6
350
4E
  3
A7
350
4F
  3
A8
350
50
  3
A9
350
51
  3
B0
350
52
  3
B1
350
53
  3
B2
350
54
  3
B3
350
55
  3
B4
350
56
  3
B5
350
57
  3
B6
350
58
  0
XRECORD
  5
119
102
{ACAD_REACTORS
330
C
102
}
330
C
100
AcDbXrecord
280
     1
  1
DWGPROPS COOKIE
  2

  3

  4

  6

  7

  8
Dell
  9

300
=
301
=
302
=
303
=
304
=
305
=
306
=
307
=
308
=
309
=
 40
0.0
 41
2460369.310095833
 42
2460369.310156389
  1

 90
        0
  0
LAYOUT
  5
1E
102
{ACAD_REACTORS
330
1A
102
}
330
1A
100
AcDbPlotSettings
  1

  2
none_device
  4

  6

 40
0.0
 41
0.0
 42
0.0
 43
0.0
 44
0.0
 45
0.0
 46
0.0
 47
0.0
 48
0.0
 49
0.0
140
0.0
141
0.0
142
1.0
143
1.0
 70
   688
 72
     1
 73
     0
 74
     5
  7

 75
    16
147
1.0
148
0.0
149
0.0
100
AcDbLayout
  1
Layout1
 70
     1
 71
     1
 10
0.0
 20
0.0
 11
420.0
 21
297.0
 12
0.0
 22
0.0
 32
0.0
 14
1.0000000000E+20
 24
1.0000000000E+20
 34
1.0000000000E+20
 15
-1.0000000000E+20
 25
-1.0000000000E+20
 35
-1.0000000000E+20
146
0.0
 13
0.0
 23
0.0
 33
0.0
 16
1.0
 26
0.0
 36
0.0
 17
0.0
 27
1.0
 37
0.0
 76
     0
330
1B
  0
LAYOUT
  5
26
102
{ACAD_REACTORS
330
1A
102
}
330
1A
100
AcDbPlotSettings
  1

  2
none_device
  4

  6

 40
0.0
 41
0.0
 42
0.0
 43
0.0
 44
0.0
 45
0.0
 46
0.0
 47
0.0
 48
0.0
 49
0.0
140
0.0
141
0.0
142
1.0
143
1.0
 70
   688
 72
     1
 73
     0
 74
     5
  7

 75
    16
147
1.0
148
0.0
149
0.0
100
AcDbLayout
  1
Layout2
 70
     1
 71
     2
 10
0.0
 20
0.0
 11
0.0
 21
0.0
 12
0.0
 22
0.0
 32
0.0
 14
0.0
 24
0.0
 34
0.0
 15
0.0
 25
0.0
 35
0.0
146
0.0
 13
0.0
 23
0.0
 33
0.0
 16
1.0
 26
0.0
 36
0.0
 17
0.0
 27
1.0
 37
0.0
 76
     0
330
23
  0
LAYOUT
  5
22
102
{ACAD_REACTORS
330
1A
102
}
330
1A
100
AcDbPlotSettings
  1

  2
none_device
  4
ANSI_A_(11.00_x_8.50_Inches)
  6

 40
6.35
 41
19.05
 42
6.35000508
 43
19.05000254
 44
279.4
 45
215.9
 46
724.4187183827
 47
-434.6812763506
 48
0.0
 49
0.0
140
0.0
141
0.0
142
0.0854121933
143
1.0
 70
  1696
 72
     0
 73
     0
 74
     0
  7

 75
     0
147
0.0179189148
148
-1300.4909072572
149
0.0
100
AcDbLayout
  1
Model
 70
     1
 71
     0
 10
0.0
 20
0.0
 11
420.0
 21
297.0
 12
0.0
 22
0.0
 32
0.0
 14
-319.2495802184
 24
192.0795544058
 34
0.0
 15
-225.6473762669
 25
290.6017873149
 35
0.0
146
0.0
 13
0.0
 23
0.0
 33
0.0
 16
1.0
 26
0.0
 36
0.0
 17
0.0
 27
1.0
 37
0.0
 76
     0
330
1F
331
29
  0
MLINESTYLE
  5
18
102
{ACAD_REACTORS
330
17
102
}
330
17
100
AcDbMlineStyle
  2
Standard
 70
     0
  3

 62
   256
 51
90.0
 52
90.0
 71
     2
 49
0.5
 62
   256
  6
BYLAYER
 49
-0.5
 62
   256
  6
BYLAYER
  0
ACDBPLACEHOLDER
  5
F
102
{ACAD_REACTORS
330
E
102
}
330
E
  0
SCALE
  5
48
102
{ACAD_REACTORS
330
47
102
}
330
47
100
AcDbScale
 70
     0
300
1:1
140
1.0
141
1.0
290
     1
  0
SCALE
  5
49
102
{ACAD_REACTORS
330
47
102
}
330
47
100
AcDbScale
 70
     0
300
1:2
140
1.0
141
2.0
290
     0
  0
SCALE
  5
4A
102
{ACAD_REACTORS
330
47
102
}
330
47
100
AcDbScale
 70
     0
300
1:4
140
1.0
141
4.0
290
     0
  0
SCALE
  5
4B
102
{ACAD_REACTORS
330
47
102
}
330
47
100
AcDbScale
 70
     0
300
1:5
140
1.0
141
5.0
290
     0
  0
SCALE
  5
4C
102
{ACAD_REACTORS
330
47
102
}
330
47
100
AcDbScale
 70
     0
300
1:8
140
1.0
141
8.0
290
     0
  0
SCALE
  5
4D
102
{ACAD_REACTORS
330
47
102
}
330
47
100
AcDbScale
 70
     0
300
1:10
140
1.0
141
10.0
290
     0
  0
SCALE
  5
4E
102
{ACAD_REACTORS
330
47
102
}
330
47
100
AcDbScale
 70
     0
300
1:16
140
1.0
141
16.0
290
     0
  0
SCALE
  5
4F
102
{ACAD_REACTORS
330
47
102
}
330
47
100
AcDbScale
 70
     0
300
1:20
140
1.0
141
20.0
290
     0
  0
SCALE
  5
50
102
{ACAD_REACTORS
330
47
102
}
330
47
100
AcDbScale
 70
     0
300
1:30
140
1.0
141
30.0
290
     0
  0
SCALE
  5
51
102
{ACAD_REACTORS
330
47
102
}
330
47
100
AcDbScale
 70
     0
300
1:40
140
1.0
141
40.0
290
     0
  0
SCALE
  5
52
102
{ACAD_REACTORS
330
47
102
}
330
47
100
AcDbScale
 70
     0
300
1:50
140
1.0
141
50.0
290
     0
  0
SCALE
  5
53
102
{ACAD_REACTORS
330
47
102
}
330
47
100
AcDbScale
 70
     0
300
1:100
140
1.0
141
100.0
290
     0
  0
SCALE
  5
54
102
{ACAD_REACTORS
330
47
102
}
330
47
100
AcDbScale
 70
     0
300
2:1
140
2.0
141
1.0
290
     0
  0
SCALE
  5
55
102
{ACAD_REACTORS
330
47
102
}
330
47
100
AcDbScale
 70
     0
300
4:1
140
4.0
141
1.0
290
     0
  0
SCALE
  5
56
102
{ACAD_REACTORS
330
47
102
}
330
47
100
AcDbScale
 70
     0
300
8:1
140
8.0
141
1.0
290
     0
  0
SCALE
  5
57
102
{ACAD_REACTORS
330
47
102
}
330
47
100
AcDbScale
 70
     0
300
10:1
140
10.0
141
1.0
290
     0
  0
SCALE
  5
58
102
{ACAD_REACTORS
330
47
102
}
330
47
100
AcDbScale
 70
     0
300
100:1
140
100.0
141
1.0
290
     0
  0
ENDSEC
  0
EOF
