  0
SECTION
  2
HEADER
  9
$ACADVER
  1
AC1015
  9
$ACADMAINTVER
 70
     6
  9
$DWGCODEPAGE
  3
ANSI_1252
  9
$INSBASE
 10
0.0
 20
0.0
 30
0.0
  9
$EXTMIN
 10
-367.5958013955
 20
256.7301647259
 30
0.0
  9
$EXTMAX
 10
-299.5205719783
 20
350.0786221577
 30
0.0
  9
$LIMMIN
 10
0.0
 20
0.0
  9
$LIMMAX
 10
420.0
 20
297.0
  9
$ORTHOMODE
 70
     0
  9
$REGENMODE
 70
     1
  9
$FILLMODE
 70
     1
  9
$QTEXTMODE
 70
     0
  9
$MIRRTEXT
 70
     1
  9
$LTSCALE
 40
1.0
  9
$ATTMODE
 70
     1
  9
$TEXTSIZE
 40
3.5
  9
$TRACEWID
 40
1.0
  9
$TEXTSTYLE
  7
Standard
  9
$CLAYER
  8
0
  9
$CELTYPE
  6
ByLayer
  9
$CECOLOR
 62
   256
  9
$CELTSCALE
 40
1.0
  9
$DISPSILH
 70
     0
  9
$DIMSCALE
 40
1.0
  9
$DIMASZ
 40
3.302
  9
$DIMEXO
 40
0.0
  9
$DIMDLI
 40
3.75
  9
$DIMRND
 40
0.0
  9
$DIMDLE
 40
0.0
  9
$DIMEXE
 40
1.0
  9
$DIMTP
 40
0.0
  9
$DIMTM
 40
0.0
  9
$DIMTXT
 40
3.5
  9
$DIMCEN
 40
2.5
  9
$DIMTSZ
 40
0.0
  9
$DIMTOL
 70
     0
  9
$DIMLIM
 70
     0
  9
$DIMTIH
 70
     1
  9
$DIMTOH
 70
     1
  9
$DIMSE1
 70
     0
  9
$DIMSE2
 70
     0
  9
$DIMTAD
 70
     1
  9
$DIMZIN
 70
     1
  9
$DIMBLK
  1

  9
$DIMASO
 70
     1
  9
$DIMSHO
 70
     1
  9
$DIMPOST
  1

  9
$DIMAPOST
  1

  9
$DIMALT
 70
     0
  9
$DIMALTD
 70
     3
  9
$DIMALTF
 40
0.0393700787
  9
$DIMLFAC
 40
1.0
  9
$DIMTOFL
 70
     1
  9
$DIMTVP
 40
0.0
  9
$DIMTIX
 70
     0
  9
$DIMSOXD
 70
     0
  9
$DIMSAH
 70
     0
  9
$DIMBLK1
  1

  9
$DIMBLK2
  1

  9
$DIMSTYLE
  2
ISO-25
  9
$DIMCLRD
 70
     0
  9
$DIMCLRE
 70
     0
  9
$DIMCLRT
 70
     0
  9
$DIMTFAC
 40
1.0
  9
$DIMGAP
 40
1.524
  9
$DIMJUST
 70
     0
  9
$DIMSD1
 70
     0
  9
$DIMSD2
 70
     0
  9
$DIMTOLJ
 70
     0
  9
$DIMTZIN
 70
     1
  9
$DIMALTZ
 70
     0
  9
$DIMALTTZ
 70
     0
  9
$DIMUPT
 70
     0
  9
$DIMDEC
 70
     2
  9
$DIMTDEC
 70
     2
  9
$DIMALTU
 70
     2
  9
$DIMALTTD
 70
     3
  9
$DIMTXSTY
  7
Standard
  9
$DIMAUNIT
 70
     0
  9
$DIMADEC
 70
     2
  9
$DIMALTRND
 40
0.0
  9
$DIMAZIN
 70
     0
  9
$DIMDSEP
 70
    44
  9
$DIMATFIT
 70
     3
  9
$DIMFRAC
 70
     0
  9
$DIMLDRBLK
  1

  9
$DIMLUNIT
 70
     2
  9
$DIMLWD
 70
    -2
  9
$DIMLWE
 70
    -2
  9
$DIMTMOVE
 70
     0
  9
$LUNITS
 70
     2
  9
$LUPREC
 70
     2
  9
$SKETCHINC
 40
1.0
  9
$FILLETRAD
 40
0.0
  9
$AUNITS
 70
     0
  9
$AUPREC
 70
     2
  9
$MENU
  1
.
  9
$ELEVATION
 40
0.0
  9
$PELEVATION
 40
0.0
  9
$THICKNESS
 40
0.0
  9
$LIMCHECK
 70
     0
  9
$CHAMFERA
 40
0.0
  9
$CHAMFERB
 40
0.0
  9
$CHAMFERC
 40
0.0
  9
$CHAMFERD
 40
0.0
  9
$SKPOLY
 70
     0
  9
$TDCREATE
 40
2460369.083719178
  9
$TDUCREATE
 40
2460369.292052512
  9
$TDUPDATE
 40
2460369.083756771
  9
$TDUUPDATE
 40
2460369.292090104
  9
$TDINDWG
 40
0.0000000116
  9
$TDUSRTIMER
 40
0.0000000116
  9
$USRTIMER
 70
     1
  9
$ANGBASE
 50
0.0
  9
$ANGDIR
 70
     0
  9
$PDMODE
 70
     0
  9
$PDSIZE
 40
-1.0
  9
$PLINEWID
 40
0.0
  9
$SPLFRAME
 70
     0
  9
$SPLINETYPE
 70
     6
  9
$SPLINESEGS
 70
     8
  9
$HANDSEED
  5
13C
  9
$SURFTAB1
 70
     6
  9
$SURFTAB2
 70
     6
  9
$SURFTYPE
 70
     6
  9
$SURFU
 70
     6
  9
$SURFV
 70
     6
  9
$UCSBASE
  2

  9
$UCSNAME
  2

  9
$UCSORG
 10
0.0
 20
0.0
 30
0.0
  9
$UCSXDIR
 10
1.0
 20
0.0
 30
0.0
  9
$UCSYDIR
 10
0.0
 20
1.0
 30
0.0
  9
$UCSORTHOREF
  2

  9
$UCSORTHOVIEW
 70
     0
  9
$UCSORGTOP
 10
0.0
 20
0.0
 30
0.0
  9
$UCSORGBOTTOM
 10
0.0
 20
0.0
 30
0.0
  9
$UCSORGLEFT
 10
0.0
 20
0.0
 30
0.0
  9
$UCSORGRIGHT
 10
0.0
 20
0.0
 30
0.0
  9
$UCSORGFRONT
 10
0.0
 20
0.0
 30
0.0
  9
$UCSORGBACK
 10
0.0
 20
0.0
 30
0.0
  9
$PUCSBASE
  2

  9
$PUCSNAME
  2

  9
$PUCSORG
 10
0.0
 20
0.0
 30
0.0
  9
$PUCSXDIR
 10
1.0
 20
0.0
 30
0.0
  9
$PUCSYDIR
 10
0.0
 20
1.0
 30
0.0
  9
$PUCSORTHOREF
  2

  9
$PUCSORTHOVIEW
 70
     0
  9
$PUCSORGTOP
 10
0.0
 20
0.0
 30
0.0
  9
$PUCSORGBOTTOM
 10
0.0
 20
0.0
 30
0.0
  9
$PUCSORGLEFT
 10
0.0
 20
0.0
 30
0.0
  9
$PUCSORGRIGHT
 10
0.0
 20
0.0
 30
0.0
  9
$PUCSORGFRONT
 10
0.0
 20
0.0
 30
0.0
  9
$PUCSORGBACK
 10
0.0
 20
0.0
 30
0.0
  9
$USERI1
 70
     0
  9
$USERI2
 70
     0
  9
$USERI3
 70
     0
  9
$USERI4
 70
     0
  9
$USERI5
 70
     0
  9
$USERR1
 40
0.0
  9
$USERR2
 40
0.0
  9
$USERR3
 40
0.0
  9
$USERR4
 40
0.0
  9
$USERR5
 40
0.0
  9
$WORLDVIEW
 70
     1
  9
$SHADEDGE
 70
     3
  9
$SHADEDIF
 70
    70
  9
$TILEMODE
 70
     1
  9
$MAXACTVP
 70
    64
  9
$PINSBASE
 10
0.0
 20
0.0
 30
0.0
  9
$PLIMCHECK
 70
     0
  9
$PEXTMIN
 10
1.0000000000E+20
 20
1.0000000000E+20
 30
1.0000000000E+20
  9
$PEXTMAX
 10
-1.0000000000E+20
 20
-1.0000000000E+20
 30
-1.0000000000E+20
  9
$PLIMMIN
 10
0.0
 20
0.0
  9
$PLIMMAX
 10
420.0
 20
297.0
  9
$UNITMODE
 70
     0
  9
$VISRETAIN
 70
     1
  9
$PLINEGEN
 70
     0
  9
$PSLTSCALE
 70
     1
  9
$TREEDEPTH
 70
  3020
  9
$CMLSTYLE
  2
Standard
  9
$CMLJUST
 70
     0
  9
$CMLSCALE
 40
20.0
  9
$PROXYGRAPHICS
 70
     1
  9
$MEASUREMENT
 70
     1
  9
$CELWEIGHT
370
    -1
  9
$ENDCAPS
280
     0
  9
$JOINSTYLE
280
     0
  9
$LWDISPLAY
290
     1
  9
$INSUNITS
 70
     4
  9
$HYPERLINKBASE
  1

  9
$STYLESHEET
  1

  9
$XEDIT
290
     1
  9
$CEPSNTYPE
380
     0
  9
$PSTYLEMODE
290
     1
  9
$FINGERPRINTGUID
  2
{661f76dd-2abc-4398-ad64-3aa72230c0b0}
  9
$VERSIONGUID
  2
{FAEB1C32-E019-11D5-929B-00C0DF256EC4}
  9
$EXTNAMES
290
     1
  9
$PSVPSCALE
 40
0.0
  9
$OLESTARTUP
290
     0
  0
ENDSEC
  0
SECTION
  2
CLASSES
  0
CLASS
  1
ACDBDICTIONARYWDFLT
  2
AcDbDictionaryWithDefault
  3
ObjectDBX Classes
 90
        0
280
     0
281
     0
  0
CLASS
  1
VISUALSTYLE
  2
AcDbVisualStyle
  3
ObjectDBX Classes
 90
     4095
280
     0
281
     0
  0
CLASS
  1
MATERIAL
  2
AcDbMaterial
  3
ObjectDBX Classes
 90
     1153
280
     0
281
     0
  0
CLASS
  1
SCALE
  2
AcDbScale
  3
ObjectDBX Classes
 90
     1153
280
     0
281
     0
  0
CLASS
  1
TABLESTYLE
  2
AcDbTableStyle
  3
ObjectDBX Classes
 90
     4095
280
     0
281
     0
  0
CLASS
  1
MLEADERSTYLE
  2
AcDbMLeaderStyle
  3
ACDB_MLEADERSTYLE_CLASS
 90
     4095
280
     0
281
     0
  0
CLASS
  1
SUN
  2
AcDbSun
  3
SCENEOE
 90
     1153
280
     0
281
     0
  0
CLASS
  1
ACDBPLACEHOLDER
  2
AcDbPlaceHolder
  3
ObjectDBX Classes
 90
        0
280
     0
281
     0
  0
CLASS
  1
LAYOUT
  2
AcDbLayout
  3
ObjectDBX Classes
 90
        0
280
     0
281
     0
  0
ENDSEC
  0
SECTION
  2
TABLES
  0
TABLE
  2
VPORT
  5
8
330
0
100
AcDbSymbolTable
 70
     1
  0
VPORT
  5
29
330
8
100
AcDbSymbolTableRecord
100
AcDbViewportTableRecord
  2
*Active
 70
     0
 10
0.0
 20
0.0
 11
1.0
 21
1.0
 12
-333.5581866869
 22
303.4043934418
 13
0.0
 23
0.0
 14
10.0
 24
10.0
 15
10.0
 25
10.0
 16
0.0
 26
0.0
 36
1.0
 17
0.0
 27
0.0
 37
0.0
 40
95.2154265804
 41
0.729259286
 42
50.0
 43
0.0
 44
0.0
 50
0.0
 51
0.0
 71
     0
 72
   100
 73
     1
 74
     3
 75
     0
 76
     0
 77
     0
 78
     0
281
     0
 65
     1
110
0.0
120
0.0
130
0.0
111
1.0
121
0.0
131
0.0
112
0.0
122
1.0
132
0.0
 79
     0
146
0.0
  0
ENDTAB
  0
TABLE
  2
LTYPE
  5
5
330
0
100
AcDbSymbolTable
 70
     6
  0
LTYPE
  5
14
330
5
100
AcDbSymbolTableRecord
100
AcDbLinetypeTableRecord
  2
ByBlock
 70
     0
  3

 72
    65
 73
     0
 40
0.0
  0
LTYPE
  5
15
330
5
100
AcDbSymbolTableRecord
100
AcDbLinetypeTableRecord
  2
ByLayer
 70
     0
  3

 72
    65
 73
     0
 40
0.0
  0
LTYPE
  5
16
330
5
100
AcDbSymbolTableRecord
100
AcDbLinetypeTableRecord
  2
Continuous
 70
     0
  3
Solid line
 72
    65
 73
     0
 40
0.0
  0
LTYPE
  5
5E
330
5
100
AcDbSymbolTableRecord
100
AcDbLinetypeTableRecord
  2
HIDDEN
 70
     0
  3
Hidden __ __ __ __ __ __ __ __ __ __ __ __ __ __
 72
    65
 73
     2
 40
1.905
 49
1.27
 74
     0
 49
-0.635
 74
     0
  0
LTYPE
  5
5F
330
5
100
AcDbSymbolTableRecord
100
AcDbLinetypeTableRecord
  2
PHANTOM
 70
     0
  3
Phantom ______  __  __  ______  __  __  ______
 72
    65
 73
     6
 40
12.7
 49
6.35
 74
     0
 49
-1.27
 74
     0
 49
1.27
 74
     0
 49
-1.27
 74
     0
 49
1.27
 74
     0
 49
-1.27
 74
     0
  0
LTYPE
  5
60
330
5
100
AcDbSymbolTableRecord
100
AcDbLinetypeTableRecord
  2
CENTER
 70
     0
  3
Center ____ _ ____ _ ____ _ ____ _ ____ _ ____
 72
    65
 73
     4
 40
10.16
 49
6.35
 74
     0
 49
-1.27
 74
     0
 49
1.27
 74
     0
 49
-1.27
 74
     0
  0
LTYPE
  5
61
330
5
100
AcDbSymbolTableRecord
100
AcDbLinetypeTableRecord
  2
CENTERX2
 70
     0
  3
Center (2x) ________  __  ________  __  _____
 72
    65
 73
     4
 40
20.32
 49
12.7
 74
     0
 49
-2.54
 74
     0
 49
2.54
 74
     0
 49
-2.54
 74
     0
  0
LTYPE
  5
62
330
5
100
AcDbSymbolTableRecord
100
AcDbLinetypeTableRecord
  2
DOT2
 70
     0
  3
Dot (.5x) ........................................
 72
    65
 73
     2
 40
0.635
 49
0.0
 74
     0
 49
-0.635
 74
     0
  0
ENDTAB
  0
TABLE
  2
LAYER
  5
2
330
0
100
AcDbSymbolTable
 70
     1
  0
LAYER
  5
10
330
2
100
AcDbSymbolTableRecord
100
AcDbLayerTableRecord
  2
0
 70
     0
 62
     7
  6
Continuous
370
    -3
390
F
  0
ENDTAB
  0
TABLE
  2
STYLE
  5
3
330
0
100
AcDbSymbolTable
 70
     2
  0
STYLE
  5
11
330
3
100
AcDbSymbolTableRecord
100
AcDbTextStyleTableRecord
  2
Standard
 70
     0
 40
0.0
 41
1.0
 50
0.0
 71
     0
 42
3.5
  3
txt
  4

  0
STYLE
  5
138
330
3
100
AcDbSymbolTableRecord
100
AcDbTextStyleTableRecord
  2
SLDTEXTSTYLE0
 70
     0
 40
0.0
 41
0.7
 50
0.0
 71
     0
 42
3.5
  3
TXT
  4

  0
ENDTAB
  0
TABLE
  2
VIEW
  5
6
330
0
100
AcDbSymbolTable
 70
     0
  0
ENDTAB
  0
TABLE
  2
UCS
  5
7
330
0
100
AcDbSymbolTable
 70
     0
  0
ENDTAB
  0
TABLE
  2
APPID
  5
9
330
0
100
AcDbSymbolTable
 70
     1
  0
APPID
  5
12
330
9
100
AcDbSymbolTableRecord
100
AcDbRegAppTableRecord
  2
ACAD
 70
     0
  0
ENDTAB
  0
TABLE
  2
DIMSTYLE
  5
A
330
0
100
AcDbSymbolTable
 70
     1
100
AcDbDimStyleTable
  0
DIMSTYLE
105
27
330
A
100
AcDbSymbolTableRecord
100
AcDbDimStyleTableRecord
  2
ISO-25
 70
     0
 41
2.5
 42
0.625
 43
3.75
 44
1.25
 73
     0
 74
     0
 77
     1
 78
     8
140
2.5
141
2.5
143
0.0393700787
147
0.625
171
     3
172
     1
178
     0
271
     2
272
     2
274
     3
278
    44
283
     0
284
     8
340
11
  0
ENDTAB
  0
TABLE
  2
BLOCK_RECORD
  5
1
330
0
100
AcDbSymbolTable
 70
     1
  0
BLOCK_RECORD
  5
1F
330
1
100
AcDbSymbolTableRecord
100
AcDbBlockTableRecord
  2
*Model_Space
340
22
  0
BLOCK_RECORD
  5
1B
330
1
100
AcDbSymbolTableRecord
100
AcDbBlockTableRecord
  2
*Paper_Space
340
1E
  0
BLOCK_RECORD
  5
23
330
1
100
AcDbSymbolTableRecord
100
AcDbBlockTableRecord
  2
*Paper_Space0
340
26
  0
ENDTAB
  0
ENDSEC
  0
SECTION
  2
BLOCKS
  0
BLOCK
  5
20
330
1F
100
AcDbEntity
  8
0
100
AcDbBlockBegin
  2
*Model_Space
 70
     0
 10
0.0
 20
0.0
 30
0.0
  3
*Model_Space
  1

  0
ENDBLK
  5
21
330
1F
100
AcDbEntity
  8
0
100
AcDbBlockEnd
  0
BLOCK
  5
1C
330
1B
100
AcDbEntity
 67
     1
  8
0
100
AcDbBlockBegin
  2
*Paper_Space
 70
     0
 10
0.0
 20
0.0
 30
0.0
  3
*Paper_Space
  1

  0
ENDBLK
  5
1D
330
1B
100
AcDbEntity
 67
     1
  8
0
100
AcDbBlockEnd
  0
BLOCK
  5
24
330
23
100
AcDbEntity
  8
0
100
AcDbBlockBegin
  2
*Paper_Space0
 70
     0
 10
0.0
 20
0.0
 30
0.0
  3
*Paper_Space0
  1

  0
ENDBLK
  5
25
330
23
100
AcDbEntity
  8
0
100
AcDbBlockEnd
  0
ENDSEC
  0
SECTION
  2
ENTITIES
  0
SPLINE
  5
63
330
1F
100
AcDbEntity
  8
0
  6
Continuous
 62
     7
370
    25
100
AcDbSpline
210
0.0
220
0.0
230
1.0
 70
     8
 71
     3
 72
    20
 73
    16
 74
     0
 42
0.00000001
 43
0.00000001
 40
0.0
 40
0.0
 40
0.0
 40
0.0
 40
0.0001788291736216
 40
0.0001788291736216
 40
0.0001788291736216
 40
0.0003588052354454
 40
0.0003588052354454
 40
0.0003588052354454
 40
0.0005762301959094
 40
0.0005762301959094
 40
0.0005762301959094
 40
0.0007926463430489
 40
0.0007926463430489
 40
0.0007926463430489
 40
0.0009398783804293
 40
0.0009398783804293
 40
0.0009398783804293
 40
0.0009398783804293
 10
-338.254071306548
 20
291.4736277658734
 30
0.0
 10
-338.1966580757353
 20
291.4896602387784
 30
0.0
 10
-338.1395521511294
 20
291.5116622863933
 30
0.0
 10
-338.0900395754082
 20
291.5448560223273
 30
0.0
 10
-338.0401944905362
 20
291.5782726757885
 30
0.0
 10
-337.9961591113952
 20
291.6216940593011
 30
0.0
 10
-337.9607769253184
 20
291.6701637005507
 30
0.0
 10
-337.918026774143
 20
291.7287266306744
 30
0.0
 10
-337.8847815295448
 20
291.7955074690066
 30
0.0
 10
-337.8640170667895
 20
291.8649770975983
 30
0.0
 10
-337.8433799030091
 20
291.934020834482
 30
0.0
 10
-337.8356893042797
 20
292.007888419234
 30
0.0
 10
-337.8399797351362
 20
292.0798225720046
 30
0.0
 10
-337.8429284564593
 20
292.1292613759908
 30
0.0
 10
-337.8524988743284
 20
292.178198692434
 30
0.0
 10
-337.8628453450095
 20
292.2266325735656
 30
0.0
  0
SPLINE
  5
64
330
1F
100
AcDbEntity
  8
0
  6
Continuous
 62
     7
370
    25
100
AcDbSpline
210
0.0
220
0.0
230
1.0
 70
     8
 71
     3
 72
    17
 73
    13
 74
     0
 42
0.00000001
 43
0.00000001
 40
0.0
 40
0.0
 40
0.0
 40
0.0
 40
0.0002376463525927
 40
0.0002376463525927
 40
0.0002376463525927
 40
0.0004292054700966
 40
0.0004292054700966
 40
0.0004292054700966
 40
0.0006203445258437
 40
0.0006203445258437
 40
0.0006203445258437
 40
0.0009266250881985
 40
0.0009266250881985
 40
0.0009266250881985
 40
0.0009266250881985
 10
-337.8628453450095
 20
292.2266325735656
 30
0.0
 10
-337.884100175034
 20
292.3029432533965
 30
0.0
 10
-337.9127886666878
 20
292.3791935481549
 30
0.0
 10
-337.9573779855426
 20
292.444667820199
 30
0.0
 10
-337.9934715713463
 20
292.4976670881101
 30
0.0
 10
-338.0390504998624
 20
292.5452011223259
 30
0.0
 10
-338.0903382960657
 20
292.5836878901286
 30
0.0
 10
-338.141564148389
 20
292.6221281747541
 30
0.0
 10
-338.2001628107577
 20
292.6512060137237
 30
0.0
 10
-338.2602315141616
 20
292.6734207453155
 30
0.0
 10
-338.3565096681613
 20
292.7090265304926
 30
0.0
 10
-338.4587197039552
 20
292.7283242088692
 30
0.0
 10
-338.560461530907
 20
292.7419570927964
 30
0.0
  0
LINE
  5
65
330
1F
100
AcDbEntity
  8
0
  6
Continuous
 62
     7
370
    25
100
AcDbLine
 10
-338.5604615309
 20
292.7419570928
 30
0.0
 11
-338.6445961463
 21
293.0869090159
 31
0.0
  0
SPLINE
  5
66
330
1F
100
AcDbEntity
  8
0
  6
Continuous
 62
     7
370
    25
100
AcDbSpline
210
0.0
220
0.0
230
1.0
 70
     8
 71
     3
 72
    17
 73
    13
 74
     0
 42
0.00000001
 43
0.00000001
 40
0.0
 40
0.0
 40
0.0
 40
0.0
 40
0.0005236212986117
 40
0.0005236212986117
 40
0.0005236212986117
 40
0.0008481630080766
 40
0.0008481630080766
 40
0.0008481630080766
 40
0.0011735355089695
 40
0.0011735355089695
 40
0.0011735355089695
 40
0.0014613519532094
 40
0.0014613519532094
 40
0.0014613519532094
 40
0.0014613519532094
 10
-338.6445961462916
 20
293.0869090158733
 30
0.0
 10
-338.4700558400566
 20
293.0871192682413
 30
0.0
 10
-338.2902432394798
 20
293.0657734138211
 30
0.0
 10
-338.1280014303924
 20
293.0014153677762
 30
0.0
 10
-338.0265717003041
 20
292.9611802441909
 30
0.0
 10
-337.9312505571236
 20
292.9021956097068
 30
0.0
 10
-337.8483626884229
 20
292.8312276131311
 30
0.0
 10
-337.765422173034
 20
292.76021454084
 30
0.0
 10
-337.6936450089266
 20
292.6736128556317
 30
0.0
 10
-337.6398659051619
 20
292.5785876298889
 30
0.0
 10
-337.5920501973515
 20
292.4940994530567
 30
0.0
 10
-337.5591484437199
 20
292.401033197295
 30
0.0
 10
-337.5340192232146
 20
292.3072615799759
 30
0.0
  0
SPLINE
  5
67
330
1F
100
AcDbEntity
  8
0
  6
Continuous
 62
     7
370
    25
100
AcDbSpline
210
0.0
220
0.0
230
1.0
 70
     8
 71
     3
 72
    20
 73
    16
 74
     0
 42
0.00000001
 43
0.00000001
 40
0.0
 40
0.0
 40
0.0
 40
0.0
 40
0.0003869553980438
 40
0.0003869553980438
 40
0.0003869553980438
 40
0.0007773750248211
 40
0.0007773750248211
 40
0.0007773750248211
 40
0.0011222844876669
 40
0.0011222844876669
 40
0.0011222844876669
 40
0.0014223534217455
 40
0.0014223534217455
 40
0.0014223534217455
 40
0.0014872540312994
 40
0.0014872540312994
 40
0.0014872540312994
 40
0.0014872540312994
 10
-337.5340192232146
 20
292.3072615799759
 30
0.0
 10
-337.5069573404787
 20
292.1811472708924
 30
0.0
 10
-337.4939184608756
 20
292.0492990621566
 30
0.0
 10
-337.5085432869737
 20
291.9211457207472
 30
0.0
 10
-337.5232744608647
 20
291.7920604827867
 30
0.0
 10
-337.5623936761602
 20
291.6631399255397
 30
0.0
 10
-337.6245096632633
 20
291.5490276549912
 30
0.0
 10
-337.6793725468152
 20
291.4482399431168
 30
0.0
 10
-337.7563030676812
 20
291.3573645150679
 30
0.0
 10
-337.8452337121696
 20
291.2848425230421
 30
0.0
 10
-337.922749816701
 20
291.2216289666013
 30
0.0
 10
-338.0128671833839
 20
291.170762818761
 30
0.0
 10
-338.1080574586702
 20
291.1400461836826
 30
0.0
 10
-338.129024883649
 20
291.1332802746685
 30
0.0
 10
-338.150184931501
 20
291.1271213095972
 30
0.0
 10
-338.1713389347531
 20
291.1209635030528
 30
0.0
  0
SPLINE
  5
68
330
1F
100
AcDbEntity
  8
0
  6
Continuous
 62
     7
370
    25
100
AcDbSpline
210
0.0
220
0.0
230
1.0
 70
     8
 71
     3
 72
    15
 73
    11
 74
     0
 42
0.00000001
 43
0.00000001
 40
0.0
 40
0.0
 40
0.0
 40
0.0
 40
0.124027548141637
 40
0.2439064244785589
 40
0.3611232054538896
 40
0.4790651807783792
 40
0.6000101790989303
 40
0.7254628706550137
 40
0.8585746007036891
 40
1.0
 40
1.0
 40
1.0
 40
1.0
 10
-338.1713389347531
 20
291.1209635030528
 30
0.0
 10
-338.2071892453744
 20
291.1136244634351
 30
0.0
 10
-338.2776906880871
 20
291.0991918721352
 30
0.0
 10
-338.3844890982185
 20
291.0954980759726
 30
0.0
 10
-338.4889295267466
 20
291.1056646847769
 30
0.0
 10
-338.5908177321721
 20
291.1323140269463
 30
0.0
 10
-338.6903635256703
 20
291.1733169778707
 30
0.0
 10
-338.7872379966294
 20
291.2297087740589
 30
0.0
 10
-338.8816942007723
 20
291.3007606661051
 30
0.0
 10
-338.9394586743415
 20
291.3574735285831
 30
0.0
 10
-338.9692155373172
 20
291.3866886633093
 30
0.0
  0
SPLINE
  5
69
330
1F
100
AcDbEntity
  8
0
  6
Continuous
 62
     7
370
    25
100
AcDbSpline
210
0.0
220
0.0
230
1.0
 70
     8
 71
     3
 72
    11
 73
     7
 74
     0
 42
0.00000001
 43
0.00000001
 40
0.0
 40
0.0
 40
0.0
 40
0.0
 40
0.2576318872712792
 40
0.5078289124041802
 40
0.753693275076184
 40
1.0
 40
1.0
 40
1.0
 40
1.0
 10
-338.9692155373172
 20
291.3866886633093
 30
0.0
 10
-338.9770222365138
 20
291.3431931001113
 30
0.0
 10
-338.9924103455111
 20
291.257457189129
 30
0.0
 10
-339.0338313227917
 20
291.13470542409
 30
0.0
 10
-339.0890652974661
 20
291.0195996367537
 30
0.0
 10
-339.137222610669
 20
290.95024386929
 30
0.0
 10
-339.1613229091121
 20
290.9155348171554
 30
0.0
  0
SPLINE
  5
6A
330
1F
100
AcDbEntity
  8
0
  6
Continuous
 62
     7
370
    25
100
AcDbSpline
210
0.0
220
0.0
230
1.0
 70
     8
 71
     3
 72
    14
 73
    10
 74
     0
 42
0.00000001
 43
0.00000001
 40
0.0
 40
0.0
 40
0.0
 40
0.0
 40
0.0001691721423921
 40
0.0001691721423921
 40
0.0001691721423921
 40
0.0004935525690235
 40
0.0004935525690235
 40
0.0004935525690235
 40
0.0006771066403909
 40
0.0006771066403909
 40
0.0006771066403909
 40
0.0006771066403909
 10
-339.1613229091121
 20
290.9155348171554
 30
0.0
 10
-339.1966746282335
 20
290.8716011330926
 30
0.0
 10
-339.2324467566834
 20
290.8276581403185
 30
0.0
 10
-339.272919770593
 20
290.7883917706718
 30
0.0
 10
-339.3496425958037
 20
290.7139563253206
 30
0.0
 10
-339.4405242347912
 20
290.6520133914523
 30
0.0
 10
-339.5376889640166
 20
290.6074483510339
 30
0.0
 10
-339.5931891165078
 20
290.5819929562758
 30
0.0
 10
-339.6521778871451
 20
290.5645152944321
 30
0.0
 10
-339.7110023962915
 20
290.5481469966426
 30
0.0
  0
SPLINE
  5
6B
330
1F
100
AcDbEntity
  8
0
  6
Continuous
 62
     7
370
    25
100
AcDbSpline
210
0.0
220
0.0
230
1.0
 70
     8
 71
     3
 72
    23
 73
    19
 74
     0
 42
0.00000001
 43
0.00000001
 40
0.0
 40
0.0
 40
0.0
 40
0.0
 40
0.0804322647672111
 40
0.160492147403621
 40
0.2412822617714822
 40
0.3248853543083104
 40
0.3670901600810051
 40
0.4085148839725828
 40
0.449625949411765
 40
0.490655972260051
 40
0.5314056147252256
 40
0.5724932842796336
 40
0.6136043497188542
 40
0.6554907435974295
 40
0.7395253536355849
 40
0.8242201483769237
 40
0.9103309873574943
 40
1.0
 40
1.0
 40
1.0
 40
1.0
 10
-339.7110023962916
 20
290.5481469966426
 30
0.0
 10
-339.7589556608733
 20
290.5383786664094
 30
0.0
 10
-339.8546401779014
 20
290.5188872309733
 30
0.0
 10
-340.0019109425676
 20
290.513913721877
 30
0.0
 10
-340.1498998861358
 20
290.5295415049196
 30
0.0
 10
-340.2729129715458
 20
290.5565879928632
 30
0.0
 10
-340.3691056181524
 20
290.5895204918978
 30
0.0
 10
-340.4396938474103
 20
290.6172488790514
 30
0.0
 10
-340.5072198015364
 20
290.6503061610965
 30
0.0
 10
-340.5714594951051
 20
290.6884629504595
 30
0.0
 10
-340.6337338751024
 20
290.7297309352089
 30
0.0
 10
-340.6925046549748
 20
290.7760024642672
 30
0.0
 10
-340.7480627630571
 20
290.8270460750546
 30
0.0
 10
-340.8191161716128
 20
290.8995814419779
 30
0.0
 10
-340.8990175300993
 20
291.0001558216945
 30
0.0
 10
-340.9782280650579
 20
291.1336137532321
 30
0.0
 10
-341.0426735532175
 20
291.2787839988269
 30
0.0
 10
-341.0712995240709
 20
291.3818094752128
 30
0.0
 10
-341.0859022360351
 20
291.4343649453605
 30
0.0
  0
SPLINE
  5
6C
330
1F
100
AcDbEntity
  8
0
  6
Continuous
 62
     7
370
    25
100
AcDbSpline
210
0.0
220
0.0
230
1.0
 70
     8
 71
     3
 72
    23
 73
    19
 74
     0
 42
0.00000001
 43
0.00000001
 40
0.0
 40
0.0
 40
0.0
 40
0.0
 40
0.0654442979405967
 40
0.1283033525218459
 40
0.1895173527147736
 40
0.248652767887251
 40
0.3070828413092317
 40
0.3652143871814995
 40
0.4228464527918813
 40
0.4813165108083571
 40
0.5404079972275575
 40
0.5997552763240614
 40
0.6607766633879305
 40
0.7234605901199298
 40
0.7879858118864816
 40
0.8554939539145175
 40
0.9259385913989201
 40
1.0
 40
1.0
 40
1.0
 40
1.0
 10
-341.0859022360351
 20
291.4343649453605
 30
0.0
 10
-341.0940589318399
 20
291.4702332817887
 30
0.0
 10
-341.1100501098367
 20
291.540553049254
 30
0.0
 10
-341.1221219904544
 20
291.646510453802
 30
0.0
 10
-341.1264947251895
 20
291.7493765895777
 30
0.0
 10
-341.1228419843787
 20
291.8499122869279
 30
0.0
 10
-341.1082110358898
 20
291.9476586766693
 30
0.0
 10
-341.0862695290256
 20
292.0431493408648
 30
0.0
 10
-341.0541366565131
 20
292.1357701681304
 30
0.0
 10
-341.0136103307177
 20
292.2255999935132
 30
0.0
 10
-340.9637468378438
 20
292.3117336417936
 30
0.0
 10
-340.9051649240511
 20
292.393984662721
 30
0.0
 10
-340.8366538564132
 20
292.4708752348333
 30
0.0
 10
-340.7601189475055
 20
292.543961455006
 30
0.0
 10
-340.6747244173085
 20
292.6125744596347
 30
0.0
 10
-340.5795841515247
 20
292.6750793486507
 30
0.0
 10
-340.4763015142179
 20
292.734587162019
 30
0.0
 10
-340.4028129616844
 20
292.7691268203824
 30
0.0
 10
-340.3651490309069
 20
292.7868288876682
 30
0.0
  0
LINE
  5
6D
330
1F
100
AcDbEntity
  8
0
  6
Continuous
 62
     7
370
    25
100
AcDbLine
 10
-340.3651490309
 20
292.7868288877
 30
0.0
 11
-340.2845200245
 21
292.4551982787
 31
0.0
  0
SPLINE
  5
6E
330
1F
100
AcDbEntity
  8
0
  6
Continuous
 62
     7
370
    25
100
AcDbSpline
210
0.0
220
0.0
230
1.0
 70
     8
 71
     3
 72
    14
 73
    10
 74
     0
 42
0.00000001
 43
0.00000001
 40
0.0
 40
0.0
 40
0.0
 40
0.0
 40
0.0001405407941528
 40
0.0001405407941528
 40
0.0001405407941528
 40
0.0002812973301548
 40
0.0002812973301548
 40
0.0002812973301548
 40
0.0005629385059589
 40
0.0005629385059589
 40
0.0005629385059589
 40
0.0005629385059589
 10
-340.2845200244967
 20
292.455198278694
 30
0.0
 10
-340.325428985105
 20
292.4323708407723
 30
0.0
 10
-340.366218493919
 20
292.4091869999411
 30
0.0
 10
-340.4054068276605
 20
292.3835177678006
 30
0.0
 10
-340.4446380456311
 20
292.3578204455342
 30
0.0
 10
-340.4826673947766
 20
292.3301270362262
 30
0.0
 10
-340.5187993800603
 20
292.3002285333444
 30
0.0
 10
-340.5901591548568
 20
292.2411797316898
 30
0.0
 10
-340.6524695926566
 20
292.1689572883189
 30
0.0
 10
-340.6995841270609
 20
292.0892127017709
 30
0.0
  0
SPLINE
  5
6F
330
1F
100
AcDbEntity
  8
0
  6
Continuous
 62
     7
370
    25
100
AcDbSpline
210
0.0
220
0.0
230
1.0
 70
     8
 71
     3
 72
    14
 73
    10
 74
     0
 42
0.00000001
 43
0.00000001
 40
0.0
 40
0.0
 40
0.0
 40
0.0
 40
0.0001496274557422
 40
0.0001496274557422
 40
0.0001496274557422
 40
0.0003924991550332
 40
0.0003924991550332
 40
0.0003924991550332
 40
0.0005973100507877
 40
0.0005973100507877
 40
0.0005973100507877
 40
0.0005973100507877
 10
-340.6995841270608
 20
292.0892127017708
 30
0.0
 10
-340.7213593327996
 20
292.0443413557454
 30
0.0
 10
-340.7415769148778
 20
291.9983343713138
 30
0.0
 10
-340.7556390942136
 20
291.9504819691649
 30
0.0
 10
-340.7782647134641
 20
291.8734889081763
 30
0.0
 10
-340.7870897950617
 20
291.7917150046449
 30
0.0
 10
-340.7847366664458
 20
291.711500835868
 30
0.0
 10
-340.7827417662694
 20
291.643498067827
 30
0.0
 10
-340.770816356077
 20
291.575866577155
 30
0.0
 10
-340.7563749924454
 20
291.5093849774118
 30
0.0
  0
SPLINE
  5
70
330
1F
100
AcDbEntity
  8
0
  6
Continuous
 62
     7
370
    25
100
AcDbSpline
210
0.0
220
0.0
230
1.0
 70
     8
 71
     3
 72
    20
 73
    16
 74
     0
 42
0.00000001
 43
0.00000001
 40
0.0
 40
0.0
 40
0.0
 40
0.0
 40
0.000361737625806
 40
0.000361737625806
 40
0.000361737625806
 40
0.0006158323758605
 40
0.0006158323758605
 40
0.0006158323758605
 40
0.0008684426396613
 40
0.0008684426396613
 40
0.0008684426396613
 40
0.0011376002515284
 40
0.0011376002515284
 40
0.0011376002515284
 40
0.0012513308409194
 40
0.0012513308409194
 40
0.0012513308409194
 40
0.0012513308409194
 10
-340.7563749924454
 20
291.5093849774118
 30
0.0
 10
-340.7257882494508
 20
291.3927496624336
 30
0.0
 10
-340.6805239125817
 20
291.2767572761037
 30
0.0
 10
-340.6113582877863
 20
291.1779875343112
 30
0.0
 10
-340.5625500799337
 20
291.1082885458149
 30
0.0
 10
-340.5005387615996
 20
291.0463580576362
 30
0.0
 10
-340.4309507248801
 20
290.9973917907096
 30
0.0
 10
-340.3615737151536
 20
290.9485740148821
 30
0.0
 10
-340.2838119089696
 20
290.909586419542
 30
0.0
 10
-340.202625315264
 20
290.8849880106951
 30
0.0
 10
-340.116475413845
 20
290.8588857886347
 30
0.0
 10
-340.0238020905104
 20
290.8480170231381
 30
0.0
 10
-339.9341367000069
 20
290.8559699632747
 30
0.0
 10
-339.8956178140878
 20
290.859386425213
 30
0.0
 10
-339.8575177248825
 20
290.8669072523577
 30
0.0
 10
-339.8196762744967
 20
290.8748697530528
 30
0.0
  0
SPLINE
  5
71
330
1F
100
AcDbEntity
  8
0
  6
Continuous
 62
     7
370
    25
100
AcDbSpline
210
0.0
220
0.0
230
1.0
 70
     8
 71
     3
 72
    23
 73
    19
 74
     0
 42
0.00000001
 43
0.00000001
 40
0.0
 40
0.0
 40
0.0
 40
0.0
 40
0.0701913999754664
 40
0.1398067298721639
 40
0.2100891080885885
 40
0.2823657203357844
 40
0.3552354205849301
 40
0.4270719757506091
 40
0.4985788184974608
 40
0.5718379519831263
 40
0.6110761374283621
 40
0.6539779949049295
 40
0.7006383770276233
 40
0.752236353426316
 40
0.8073744239665774
 40
0.8671882403155126
 40
0.931217498530797
 40
1.0
 40
1.0
 40
1.0
 40
1.0
 10
-339.8196762744967
 20
290.8748697530528
 30
0.0
 10
-339.7875176353484
 20
290.8841571056997
 30
0.0
 10
-339.7234642872454
 20
290.9026555884652
 30
0.0
 10
-339.6339076160134
 20
290.9482625953575
 30
0.0
 10
-339.5501336947376
 20
291.0051754291352
 30
0.0
 10
-339.475195320958
 20
291.0756455097538
 30
0.0
 10
-339.4083140023808
 20
291.1547106804767
 30
0.0
 10
-339.3547835296979
 20
291.2431206457019
 30
0.0
 10
-339.3145976426325
 20
291.3383410269416
 30
0.0
 10
-339.2911350812781
 20
291.4230888245152
 30
0.0
 10
-339.2805421205375
 20
291.4963386341931
 30
0.0
 10
-339.2746681131069
 20
291.5573923229884
 30
0.0
 10
-339.2734936258275
 20
291.6246365405891
 30
0.0
 10
-339.276847438153
 20
291.697579257765
 30
0.0
 10
-339.2820777681407
 20
291.7766931648936
 30
0.0
 10
-339.2923412379349
 20
291.8612851577446
 30
0.0
 10
-339.3056086869603
 20
291.952005492086
 30
0.0
 10
-339.3167901183143
 20
292.0142224446357
 30
0.0
 10
-339.3225809219326
 20
292.0464442722836
 30
0.0
  0
LINE
  5
72
330
1F
100
AcDbEntity
  8
0
  6
Continuous
 62
     7
370
    25
100
AcDbLine
 10
-339.3225809219
 20
292.0464442723
 30
0.0
 11
-339.0119839668
 21
292.1221654261
 31
0.0
  0
SPLINE
  5
73
330
1F
100
AcDbEntity
  8
0
  6
Continuous
 62
     7
370
    25
100
AcDbSpline
210
0.0
220
0.0
230
1.0
 70
     8
 71
     3
 72
    20
 73
    16
 74
     0
 42
0.00000001
 43
0.00000001
 40
0.0
 40
0.0
 40
0.0
 40
0.0
 40
0.000383037907306
 40
0.000383037907306
 40
0.000383037907306
 40
0.0006186544590212
 40
0.0006186544590212
 40
0.0006186544590212
 40
0.0007913406841578
 40
0.0007913406841578
 40
0.0007913406841578
 40
0.0009648465985338
 40
0.0009648465985338
 40
0.0009648465985338
 40
0.0010997048181436
 40
0.0010997048181436
 40
0.0010997048181436
 40
0.0010997048181436
 10
-339.0119839668045
 20
292.1221654261298
 30
0.0
 10
-338.9795108364223
 20
291.9986846580986
 30
0.0
 10
-338.9332616208267
 20
291.8758883072659
 30
0.0
 10
-338.8629627372283
 20
291.7693046723345
 30
0.0
 10
-338.8193199557647
 20
291.7031356800431
 30
0.0
 10
-338.7684598331556
 20
291.640342392851
 30
0.0
 10
-338.7084766327956
 20
291.5885249866122
 30
0.0
 10
-338.6645255158423
 20
291.5505571411465
 30
0.0
 10
-338.6146016459177
 20
291.5179469104394
 30
0.0
 10
-338.5608178221761
 20
291.4960252710279
 30
0.0
 10
-338.5068190124313
 20
291.4740160059083
 30
0.0
 10
-338.4479892543114
 20
291.4620596687893
 30
0.0
 10
-338.3897324851749
 20
291.4595243079204
 30
0.0
 10
-338.3443113751202
 20
291.4575475607242
 30
0.0
 10
-338.2986253138461
 20
291.4645765117198
 30
0.0
 10
-338.254071306548
 20
291.4736277658734
 30
0.0
  0
LINE
  5
74
330
1F
100
AcDbEntity
  8
0
  6
Continuous
 62
     7
370
    25
100
AcDbLine
 10
-341.7094581632
 20
294.3662884774
 30
0.0
 11
-341.7879838042
 21
294.6881033812
 31
0.0
  0
LINE
  5
75
330
1F
100
AcDbEntity
  8
0
  6
Continuous
 62
     7
370
    25
100
AcDbLine
 10
-341.7879838042
 20
294.6881033812
 30
0.0
 11
-338.3188331632
 21
295.5336562659
 31
0.0
  0
LINE
  5
76
330
1F
100
AcDbEntity
  8
0
  6
Continuous
 62
     7
370
    25
100
AcDbLine
 10
-338.3188331632
 20
295.5336562659
 30
0.0
 11
-338.2403075222
 21
295.211841362
 31
0.0
  0
LINE
  5
77
330
1F
100
AcDbEntity
  8
0
  6
Continuous
 62
     7
370
    25
100
AcDbLine
 10
-338.2403075222
 20
295.211841362
 30
0.0
 11
-341.7094581632
 21
294.3662884774
 31
0.0
  0
LINE
  5
78
330
1F
100
AcDbEntity
  8
0
  6
Continuous
 62
     7
370
    25
100
AcDbLine
 10
-339.9875475214
 20
296.1877258854
 30
0.0
 11
-339.5276116239
 21
296.2999053726
 31
0.0
  0
LINE
  5
79
330
1F
100
AcDbEntity
  8
0
  6
Continuous
 62
     7
370
    25
100
AcDbLine
 10
-339.5276116239
 20
296.2999053726
 30
0.0
 11
-339.4504882265
 21
295.9822971995
 31
0.0
  0
LINE
  5
7A
330
1F
100
AcDbEntity
  8
0
  6
Continuous
 62
     7
370
    25
100
AcDbLine
 10
-339.4504882265
 20
295.9822971995
 30
0.0
 11
-341.9534930342
 21
295.372321238
 31
0.0
  0
LINE
  5
7B
330
1F
100
AcDbEntity
  8
0
  6
Continuous
 62
     7
370
    25
100
AcDbLine
 10
-341.9534930342
 20
295.372321238
 30
0.0
 11
-342.0306164316
 21
295.6899294111
 31
0.0
  0
LINE
  5
7C
330
1F
100
AcDbEntity
  8
0
  6
Continuous
 62
     7
370
    25
100
AcDbLine
 10
-342.0306164316
 20
295.6899294111
 30
0.0
 11
-341.6001276496
 21
295.7950976803
 31
0.0
  0
SPLINE
  5
7D
330
1F
100
AcDbEntity
  8
0
  6
Continuous
 62
     7
370
    25
100
AcDbSpline
210
0.0
220
0.0
230
1.0
 70
     8
 71
     3
 72
    15
 73
    11
 74
     0
 42
0.00000001
 43
0.00000001
 40
0.0
 40
0.0
 40
0.0
 40
0.0
 40
0.1342677967888296
 40
0.262443123133391
 40
0.3870278330934089
 40
0.5087453753122179
 40
0.6292443163271549
 40
0.7505148486615357
 40
0.8731116777034927
 40
1.0
 40
1.0
 40
1.0
 40
1.0
 10
-341.6001276495751
 20
295.7950976802888
 30
0.0
 10
-341.6476355051089
 20
295.8196421427795
 30
0.0
 10
-341.7404955227591
 20
295.8676173501318
 30
0.0
 10
-341.8684332734585
 20
295.9540801341831
 30
0.0
 10
-341.9826352726121
 20
296.0502674263378
 30
0.0
 10
-342.0830194472297
 20
296.1567448374656
 30
0.0
 10
-342.169091314999
 20
296.2734403172614
 30
0.0
 10
-342.241571746035
 20
296.3993510357479
 30
0.0
 10
-342.3002095652764
 20
296.5352964537485
 30
0.0
 10
-342.3264601018972
 20
296.6311580901571
 30
0.0
 10
-342.3398111431648
 20
296.679913385417
 30
0.0
  0
SPLINE
  5
7E
330
1F
100
AcDbEntity
  8
0
  6
Continuous
 62
     7
370
    25
100
AcDbSpline
210
0.0
220
0.0
230
1.0
 70
     8
 71
     3
 72
    20
 73
    16
 74
     0
 42
0.00000001
 43
0.00000001
 40
0.0
 40
0.0
 40
0.0
 40
0.0
 40
0.000451854753232
 40
0.000451854753232
 40
0.000451854753232
 40
0.0009074152974396
 40
0.0009074152974396
 40
0.0009074152974396
 40
0.0013267275076405
 40
0.0013267275076405
 40
0.0013267275076405
 40
0.0018153057133751
 40
0.0018153057133751
 40
0.0018153057133751
 40
0.0020987617720188
 40
0.0020987617720188
 40
0.0020987617720188
 40
0.0020987617720188
 10
-342.3398111431648
 20
296.679913385417
 30
0.0
 10
-342.3719418089473
 20
296.8270645929349
 30
0.0
 10
-342.3889286854012
 20
296.9808394777432
 30
0.0
 10
-342.3726379609731
 20
297.1305741425847
 30
0.0
 10
-342.3562286987122
 20
297.2813983367925
 30
0.0
 10
-342.3094668016006
 20
297.4309660445822
 30
0.0
 10
-342.2405716502483
 20
297.5661350483016
 30
0.0
 10
-342.176807593254
 20
297.6912370894156
 30
0.0
 10
-342.0949550912208
 20
297.8090033359535
 30
0.0
 10
-341.9978264023974
 20
297.910405473321
 30
0.0
 10
-341.8854364180136
 20
298.027740369666
 30
0.0
 10
-341.7477754806075
 20
298.1243695987758
 30
0.0
 10
-341.600188392992
 20
298.1923183887525
 30
0.0
 10
-341.5135081320298
 20
298.2322258016733
 30
0.0
 10
-341.4217171671804
 20
298.2609654824956
 30
0.0
 10
-341.3294946367545
 20
298.2854822956734
 30
0.0
  0
SPLINE
  5
7F
330
1F
100
AcDbEntity
  8
0
  6
Continuous
 62
     7
370
    25
100
AcDbSpline
210
0.0
220
0.0
230
1.0
 70
     8
 71
     3
 72
    20
 73
    16
 74
     0
 42
0.00000001
 43
0.00000001
 40
0.0
 40
0.0
 40
0.0
 40
0.0
 40
0.0004704384708753
 40
0.0004704384708753
 40
0.0004704384708753
 40
0.0009452612032379
 40
0.0009452612032379
 40
0.0009452612032379
 40
0.0013776540644534
 40
0.0013776540644534
 40
0.0013776540644534
 40
0.0018661901961743
 40
0.0018661901961743
 40
0.0018661901961743
 40
0.0020940734635032
 40
0.0020940734635032
 40
0.0020940734635032
 40
0.0020940734635032
 10
-341.3294946367545
 20
298.2854822956734
 30
0.0
 10
-341.1763458571154
 20
298.319182636151
 30
0.0
 10
-341.0162746696938
 20
298.3362466097512
 30
0.0
 10
-340.860316586799
 20
298.3198961347409
 30
0.0
 10
-340.7031977668988
 20
298.3034239693311
 30
0.0
 10
-340.5472023854191
 20
298.2551419394543
 30
0.0
 10
-340.4064667923884
 20
298.1833704363738
 30
0.0
 10
-340.2775991350673
 20
298.117651272762
 30
0.0
 10
-340.1560616943037
 20
298.0332486811191
 30
0.0
 10
-340.0526103885214
 20
297.9321363233126
 30
0.0
 10
-339.9365808485538
 20
297.8187301147336
 30
0.0
 10
-339.842676084369
 20
297.6790424924976
 30
0.0
 10
-339.7780672987477
 20
297.5302153205502
 30
0.0
 10
-339.747503015349
 20
297.4598100990763
 30
0.0
 10
-339.7255925900885
 20
297.3857538643367
 30
0.0
 10
-339.7056965598315
 20
297.3116241225965
 30
0.0
  0
SPLINE
  5
80
330
1F
100
AcDbEntity
  8
0
  6
Continuous
 62
     7
370
    25
100
AcDbSpline
210
0.0
220
0.0
230
1.0
 70
     8
 71
     3
 72
    14
 73
    10
 74
     0
 42
0.00000001
 43
0.00000001
 40
0.0
 40
0.0
 40
0.0
 40
0.0
 40
0.000438795140538
 40
0.000438795140538
 40
0.000438795140538
 40
0.0008833381531217
 40
0.0008833381531217
 40
0.0008833381531217
 40
0.0012009774674394
 40
0.0012009774674394
 40
0.0012009774674394
 40
0.0012009774674394
 10
-339.7056965598315
 20
297.3116241225965
 30
0.0
 10
-339.6749317303397
 20
297.1686311535554
 30
0.0
 10
-339.6582924884823
 20
297.0194489102663
 30
0.0
 10
-339.6736970915624
 20
296.8739973302378
 30
0.0
 10
-339.6892514572116
 20
296.7271316792206
 30
0.0
 10
-339.7358133250808
 20
296.5812463021966
 30
0.0
 10
-339.805324000958
 20
296.4509400334352
 30
0.0
 10
-339.8555492976504
 20
296.3567865681318
 30
0.0
 10
-339.9206945713331
 20
296.2709012334947
 30
0.0
 10
-339.9875475213699
 20
296.187725885417
 30
0.0
  0
LINE
  5
81
330
1F
100
AcDbEntity
  8
0
  6
Continuous
 62
     7
370
    25
100
AcDbLine
 10
-342.8600728281
 20
299.0982186545
 30
0.0
 11
-342.9407018345
 21
299.4270447763
 31
0.0
  0
LINE
  5
82
330
1F
100
AcDbEntity
  8
0
  6
Continuous
 62
     7
370
    25
100
AcDbLine
 10
-342.9407018345
 20
299.4270447763
 30
0.0
 11
-340.4376970268
 21
300.0370207379
 31
0.0
  0
LINE
  5
83
330
1F
100
AcDbEntity
  8
0
  6
Continuous
 62
     7
370
    25
100
AcDbLine
 10
-340.4376970268
 20
300.0370207379
 30
0.0
 11
-340.3570680204
 21
299.7081946161
 31
0.0
  0
LINE
  5
84
330
1F
100
AcDbEntity
  8
0
  6
Continuous
 62
     7
370
    25
100
AcDbLine
 10
-340.3570680204
 20
299.7081946161
 30
0.0
 11
-340.7230535973
 21
299.6191521481
 31
0.0
  0
SPLINE
  5
85
330
1F
100
AcDbEntity
  8
0
  6
Continuous
 62
     7
370
    25
100
AcDbSpline
210
0.0
220
0.0
230
1.0
 70
     8
 71
     3
 72
    14
 73
    10
 74
     0
 42
0.00000001
 43
0.00000001
 40
0.0
 40
0.0
 40
0.0
 40
0.0
 40
0.0002108052779016
 40
0.0002108052779016
 40
0.0002108052779016
 40
0.0005716419682251
 40
0.0005716419682251
 40
0.0005716419682251
 40
0.0008400508609468
 40
0.0008400508609468
 40
0.0008400508609468
 40
0.0008400508609468
 10
-340.7230535973215
 20
299.6191521481058
 30
0.0
 10
-340.6576591248964
 20
299.5934380534464
 30
0.0
 10
-340.592357714659
 20
299.5666094829293
 30
0.0
 10
-340.5306938544269
 20
299.5329164565119
 30
0.0
 10
-340.4264613006994
 20
299.4759639697057
 30
0.0
 10
-340.3270415378025
 20
299.4025668536883
 30
0.0
 10
-340.2528555382142
 20
299.309806687264
 30
0.0
 10
-340.1975682322151
 20
299.240676935908
 30
0.0
 10
-340.1586955875278
 20
299.157313734491
 30
0.0
 10
-340.1341112896292
 20
299.0722771481059
 30
0.0
  0
SPLINE
  5
86
330
1F
100
AcDbEntity
  8
0
  6
Continuous
 62
     7
370
    25
100
AcDbSpline
210
0.0
220
0.0
230
1.0
 70
     8
 71
     3
 72
    11
 73
     7
 74
     0
 42
0.00000001
 43
0.00000001
 40
0.0
 40
0.0
 40
0.0
 40
0.0
 40
0.225136808626765
 40
0.4654807830268605
 40
0.7211227035702412
 40
1.0
 40
1.0
 40
1.0
 40
1.0
 10
-340.1341112896292
 20
299.0722771481058
 30
0.0
 10
-340.1296147827482
 20
299.0494558456076
 30
0.0
 10
-340.1203180464367
 20
299.0022717453204
 30
0.0
 10
-340.1209588897333
 20
298.9275448419843
 30
0.0
 10
-340.1299434758656
 20
298.8480354310128
 30
0.0
 10
-340.143279317666
 20
298.7945127124012
 30
0.0
 10
-340.1502370909112
 20
298.7665880455417
 30
0.0
  0
LINE
  5
87
330
1F
100
AcDbEntity
  8
0
  6
Continuous
 62
     7
370
    25
100
AcDbLine
 10
-340.1502370909
 20
298.7665880455
 30
0.0
 11
-340.4622362896
 21
298.8682507058
 31
0.0
  0
SPLINE
  5
88
330
1F
100
AcDbEntity
  8
0
  6
Continuous
 62
     7
370
    25
100
AcDbSpline
210
0.0
220
0.0
230
1.0
 70
     8
 71
     3
 72
    14
 73
    10
 74
     0
 42
0.00000001
 43
0.00000001
 40
0.0
 40
0.0
 40
0.0
 40
0.0
 40
0.0000458673604013
 40
0.0000458673604013
 40
0.0000458673604013
 40
0.0000918102132196
 40
0.0000918102132196
 40
0.0000918102132196
 40
0.0001832605329871
 40
0.0001832605329871
 40
0.0001832605329871
 40
0.0001832605329871
 10
-340.4622362896292
 20
298.8682507057981
 30
0.0
 10
-340.4597718674779
 20
298.8833399012016
 30
0.0
 10
-340.457305871593
 20
298.8984369169339
 30
0.0
 10
-340.455439839633
 20
298.9136117355222
 30
0.0
 10
-340.4535720289588
 20
298.9288010188491
 30
0.0
 10
-340.4523750695474
 20
298.9440907107344
 30
0.0
 10
-340.4519188489325
 20
298.959387602819
 30
0.0
 10
-340.4510163081989
 20
298.9896494273671
 30
0.0
 10
-340.4543384964007
 20
299.0201256451618
 30
0.0
 10
-340.4601329242445
 20
299.0498412506699
 30
0.0
  0
SPLINE
  5
89
330
1F
100
AcDbEntity
  8
0
  6
Continuous
 62
     7
370
    25
100
AcDbSpline
210
0.0
220
0.0
230
1.0
 70
     8
 71
     3
 72
    19
 73
    15
 74
     0
 42
0.00000001
 43
0.00000001
 40
0.0
 40
0.0
 40
0.0
 40
0.0
 40
0.0976964118889986
 40
0.1975257501925255
 40
0.3039349045196503
 40
0.4197430198658497
 40
0.4817110655915819
 40
0.5455859277293243
 40
0.611892006518815
 40
0.6825332731058859
 40
0.7558520322642293
 40
0.8324367084375046
 40
0.9143254121152725
 40
1.0
 40
1.0
 40
1.0
 40
1.0
 10
-340.4601329242445
 20
299.0498412506699
 30
0.0
 10
-340.4681541106452
 20
299.0762427216591
 30
0.0
 10
-340.4843716034945
 20
299.1296220655111
 30
0.0
 10
-340.529957856935
 20
299.2030779510457
 30
0.0
 10
-340.5914248504356
 20
299.270205116911
 30
0.0
 10
-340.6546547685839
 20
299.319635003017
 30
0.0
 10
-340.71172363328
 20
299.3568163334953
 30
0.0
 10
-340.7606429765665
 20
299.3801307892343
 30
0.0
 10
-340.8129817509188
 20
299.4015032987726
 30
0.0
 10
-340.869380982737
 20
299.4196905705204
 30
0.0
 10
-340.9299632027588
 20
299.4335009793128
 30
0.0
 10
-340.9943933979839
 20
299.443861369195
 30
0.0
 10
-341.0626962807604
 20
299.4517809919618
 30
0.0
 10
-341.1098178552049
 20
299.4539702746843
 30
0.0
 10
-341.1339109691164
 20
299.4550896481059
 30
0.0
  0
SPLINE
  5
8A
330
1F
100
AcDbEntity
  8
0
  6
Continuous
 62
     7
370
    25
100
AcDbSpline
210
0.0
220
0.0
230
1.0
 70
     8
 71
     3
 72
    14
 73
    10
 74
     0
 42
0.00000001
 43
0.00000001
 40
0.0
 40
0.0
 40
0.0
 40
0.0
 40
0.0002243365482162
 40
0.0002243365482162
 40
0.0002243365482162
 40
0.0004477568849835
 40
0.0004477568849835
 40
0.0004477568849835
 40
0.0008924603457879
 40
0.0008924603457879
 40
0.0008924603457879
 40
0.0008924603457879
 10
-341.1339109691164
 20
299.4550896481059
 30
0.0
 10
-341.2086897632929
 20
299.4551805321826
 30
0.0
 10
-341.2835811741973
 20
299.4489197741281
 30
0.0
 10
-341.3576363580975
 20
299.4385416213105
 30
0.0
 10
-341.4315151002943
 20
299.4281881951748
 30
0.0
 10
-341.5050546394092
 20
299.4153203778628
 30
0.0
 10
-341.5782624915656
 20
299.4009721248686
 30
0.0
 10
-341.7239770496206
 20
299.372413038892
 30
0.0
 10
-341.8687697097099
 20
299.3391624185081
 30
0.0
 10
-342.0131176998856
 20
299.3043484622084
 30
0.0
  0
LINE
  5
8B
330
1F
100
AcDbEntity
  8
0
  6
Continuous
 62
     7
370
    25
100
AcDbLine
 10
-342.0131176999
 20
299.3043484622
 30
0.0
 11
-342.8600728281
 21
299.0982186545
 31
0.0
  0
SPLINE
  5
8C
330
1F
100
AcDbEntity
  8
0
  6
Continuous
 62
     7
370
    25
100
AcDbSpline
210
0.0
220
0.0
230
1.0
 70
     8
 71
     3
 72
    20
 73
    16
 74
     0
 42
0.00000001
 43
0.00000001
 40
0.0
 40
0.0
 40
0.0
 40
0.0
 40
0.0004099732217072
 40
0.0004099732217072
 40
0.0004099732217072
 40
0.0007427781377982
 40
0.0007427781377982
 40
0.0007427781377982
 40
0.0010753949896032
 40
0.0010753949896032
 40
0.0010753949896032
 40
0.0014012250291058
 40
0.0014012250291058
 40
0.0014012250291058
 40
0.001561110572727
 40
0.001561110572727
 40
0.001561110572727
 40
0.001561110572727
 10
-342.3752986632481
 20
302.4440695507014
 30
0.0
 10
-342.506643888868
 20
302.4063366769132
 30
0.0
 10
-342.637248491435
 20
302.3545204531191
 30
0.0
 10
-342.7494931351545
 20
302.2765686858926
 30
0.0
 10
-342.8409311930742
 20
302.2130666962172
 30
0.0
 10
-342.923098404537
 20
302.1333744714361
 30
0.0
 10
-342.9884669046476
 20
302.0432613185551
 30
0.0
 10
-343.0538359756537
 20
301.9531473786715
 30
0.0
 10
-343.1061830285187
 20
301.8511203117476
 30
0.0
 10
-343.1370756934126
 20
301.7441657379263
 30
0.0
 10
-343.1673022429083
 20
301.639517345484
 30
0.0
 10
-343.1774247120327
 20
301.527375873
 30
0.0
 10
-343.1680254155472
 20
301.4188559045116
 30
0.0
 10
-343.1633501503224
 20
301.3648774354164
 30
0.0
 10
-343.1528679863699
 20
301.3114737621142
 30
0.0
 10
-343.1416247850431
 20
301.2584725955733
 30
0.0
  0
SPLINE
  5
8D
330
1F
100
AcDbEntity
  8
0
  6
Continuous
 62
     7
370
    25
100
AcDbSpline
210
0.0
220
0.0
230
1.0
 70
     8
 71
     3
 72
    17
 73
    13
 74
     0
 42
0.00000001
 43
0.00000001
 40
0.0
 40
0.0
 40
0.0
 40
0.0
 40
0.0004006795773636
 40
0.0004006795773636
 40
0.0004006795773636
 40
0.0007187774171298
 40
0.0007187774171298
 40
0.0007187774171298
 40
0.0010382627309632
 40
0.0010382627309632
 40
0.0010382627309632
 40
0.0012133904946896
 40
0.0012133904946896
 40
0.0012133904946896
 40
0.0012133904946896
 10
-343.1416247850431
 20
301.2584725955733
 30
0.0
 10
-343.1065852331405
 20
301.1295909996375
 30
0.0
 10
-343.0531386805436
 20
301.0030765254738
 30
0.0
 10
-342.977709741575
 20
300.892855333616
 30
0.0
 10
-342.9175284065436
 20
300.804914835374
 30
0.0
 10
-342.8446177338209
 20
300.7235706591017
 30
0.0
 10
-342.7601069600046
 20
300.658661080254
 30
0.0
 10
-342.6752866642278
 20
300.5935137691126
 30
0.0
 10
-342.5758047763671
 20
300.5480459153506
 30
0.0
 10
-342.4760664567676
 20
300.5094334519727
 30
0.0
 10
-342.4210783323996
 20
300.4881454761285
 30
0.0
 10
-342.3648745797145
 20
300.4700822491752
 30
0.0
 10
-342.3086920927353
 20
300.4521825314707
 30
0.0
  0
LINE
  5
8E
330
1F
100
AcDbEntity
  8
0
  6
Continuous
 62
     7
370
    25
100
AcDbLine
 10
-342.3086920927
 20
300.4521825315
 30
0.0
 11
-342.3851143684
 21
300.1457923071
 31
0.0
  0
SPLINE
  5
8F
330
1F
100
AcDbEntity
  8
0
  6
Continuous
 62
     7
370
    25
100
AcDbSpline
210
0.0
220
0.0
230
1.0
 70
     8
 71
     3
 72
    17
 73
    13
 74
     0
 42
0.00000001
 43
0.00000001
 40
0.0
 40
0.0
 40
0.0
 40
0.0
 40
0.0005267290417657
 40
0.0005267290417657
 40
0.0005267290417657
 40
0.0009500858061829
 40
0.0009500858061829
 40
0.0009500858061829
 40
0.0013733851952324
 40
0.0013733851952324
 40
0.0013733851952324
 40
0.0015293471150315
 40
0.0015293471150315
 40
0.0015293471150315
 40
0.0015293471150315
 10
-342.3851143683764
 20
300.1457923071117
 30
0.0
 10
-342.555023920977
 20
300.1900393143612
 30
0.0
 10
-342.7257461995059
 20
300.2486776512495
 30
0.0
 10
-342.8730173827892
 20
300.3442718576108
 30
0.0
 10
-342.9918417413314
 20
300.4214011370666
 30
0.0
 10
-343.0992761010473
 20
300.5198367870155
 30
0.0
 10
-343.1857444590914
 20
300.6320480921033
 30
0.0
 10
-343.2722235862885
 20
300.744273372485
 30
0.0
 10
-343.3388822484133
 20
300.8735414941879
 30
0.0
 10
-343.3849106766009
 20
301.0075360343607
 30
0.0
 10
-343.402060268068
 20
301.0574606508048
 30
0.0
 10
-343.4156188060117
 20
301.1085728223087
 30
0.0
 10
-343.4290847209405
 20
301.1596144224964
 30
0.0
  0
SPLINE
  5
90
330
1F
100
AcDbEntity
  8
0
  6
Continuous
 62
     7
370
    25
100
AcDbSpline
210
0.0
220
0.0
230
1.0
 70
     8
 71
     3
 72
    20
 73
    16
 74
     0
 42
0.00000001
 43
0.00000001
 40
0.0
 40
0.0
 40
0.0
 40
0.0
 40
0.0005639886505378
 40
0.0005639886505378
 40
0.0005639886505378
 40
0.0009467996783416
 40
0.0009467996783416
 40
0.0009467996783416
 40
0.0014151677081081
 40
0.0014151677081081
 40
0.0014151677081081
 40
0.001879922030049
 40
0.001879922030049
 40
0.001879922030049
 40
0.0021022371611912
 40
0.0021022371611912
 40
0.0021022371611912
 40
0.0021022371611912
 10
-343.4290847209405
 20
301.1596144224964
 30
0.0
 10
-343.4696789189704
 20
301.3431755530079
 30
0.0
 10
-343.4915485421585
 20
301.5367598102329
 30
0.0
 10
-343.463031199093
 20
301.722580526766
 30
0.0
 10
-343.4435190774189
 20
301.8497226810063
 30
0.0
 10
-343.4014643597365
 20
301.9752665906706
 30
0.0
 10
-343.3403513868833
 20
302.0884525210071
 30
0.0
 10
-343.2656400795833
 20
302.2268236135691
 30
0.0
 10
-343.1634831343948
 20
302.3522880025833
 30
0.0
 10
-343.0469437455191
 20
302.4578669282065
 30
0.0
 10
-342.931351076491
 20
302.5625881724453
 30
0.0
 10
-342.7968920082463
 20
302.6501577473698
 30
0.0
 10
-342.6530326794928
 20
302.7104296119379
 30
0.0
 10
-342.5834030231568
 20
302.7396019238968
 30
0.0
 10
-342.5105775284896
 20
302.760911300104
 30
0.0
 10
-342.4376985029918
 20
302.7806080122399
 30
0.0
  0
SPLINE
  5
91
330
1F
100
AcDbEntity
  8
0
  6
Continuous
 62
     7
370
    25
100
AcDbSpline
210
0.0
220
0.0
230
1.0
 70
     8
 71
     3
 72
    17
 73
    13
 74
     0
 42
0.00000001
 43
0.00000001
 40
0.0
 40
0.0
 40
0.0
 40
0.0
 40
0.0002363058417112
 40
0.0002363058417112
 40
0.0002363058417112
 40
0.0004684331605353
 40
0.0004684331605353
 40
0.0004684331605353
 40
0.0007015598526436
 40
0.0007015598526436
 40
0.0007015598526436
 40
0.0009416022758739
 40
0.0009416022758739
 40
0.0009416022758739
 40
0.0009416022758739
 10
-342.4376985029918
 20
302.7806080122399
 30
0.0
 10
-342.3607512853889
 20
302.7974490406966
 30
0.0
 10
-342.2829369312748
 20
302.8120972678636
 30
0.0
 10
-342.2044080394922
 20
302.8182379267626
 30
0.0
 10
-342.1272681723331
 20
302.8242699692502
 30
0.0
 10
-342.0493579878915
 20
302.8241489166585
 30
0.0
 10
-341.9722837714278
 20
302.8173291073937
 30
0.0
 10
-341.8949136482237
 20
302.8104831152156
 30
0.0
 10
-341.8179908540466
 20
302.7961174228627
 30
0.0
 10
-341.7429447113398
 20
302.7760904401055
 30
0.0
 10
-341.6656775970012
 20
302.7554707638536
 30
0.0
 10
-341.5905514592907
 20
302.7267574150548
 30
0.0
 10
-341.5171255863251
 20
302.6950711532655
 30
0.0
  0
SPLINE
  5
92
330
1F
100
AcDbEntity
  8
0
  6
Continuous
 62
     7
370
    25
100
AcDbSpline
210
0.0
220
0.0
230
1.0
 70
     8
 71
     3
 72
    15
 73
    11
 74
     0
 42
0.00000001
 43
0.00000001
 40
0.0
 40
0.0
 40
0.0
 40
0.0
 40
0.129038842057807
 40
0.2534601100645923
 40
0.3746871859580442
 40
0.4951569127682858
 40
0.6163295234351404
 40
0.7398527844791565
 40
0.867316905297929
 40
1.0
 40
1.0
 40
1.0
 40
1.0
 10
-341.5171255863251
 20
302.6950711532655
 30
0.0
 10
-341.4716373756988
 20
302.673032182769
 30
0.0
 10
-341.3822887215411
 20
302.6297428925161
 30
0.0
 10
-341.2607527135858
 20
302.5469608350073
 30
0.0
 10
-341.1507077658741
 20
302.454887643927
 30
0.0
 10
-341.0539458452823
 20
302.3504174831794
 30
0.0
 10
-340.9708919211105
 20
302.2337167880652
 30
0.0
 10
-340.9006961144566
 20
302.1058736337164
 30
0.0
 10
-340.8422428482091
 20
301.9671433232529
 30
0.0
 10
-340.8155801520427
 20
301.8688179031848
 30
0.0
 10
-340.8019813555559
 20
301.8186689096758
 30
0.0
  0
SPLINE
  5
93
330
1F
100
AcDbEntity
  8
0
  6
Continuous
 62
     7
370
    25
100
AcDbSpline
210
0.0
220
0.0
230
1.0
 70
     8
 71
     3
 72
    15
 73
    11
 74
     0
 42
0.00000001
 43
0.00000001
 40
0.0
 40
0.0
 40
0.0
 40
0.0
 40
0.1330500828511087
 40
0.2607279191738289
 40
0.3838964266710099
 40
0.50480788941351
 40
0.6252847115197375
 40
0.7467306906100426
 40
0.8712394765517747
 40
0.9999999999999999
 40
0.9999999999999999
 40
0.9999999999999999
 40
0.9999999999999999
 10
-340.8019813555559
 20
301.8186689096758
 30
0.0
 10
-340.7907868764518
 20
301.766270664216
 30
0.0
 10
-340.7688499247378
 20
301.663589890072
 30
0.0
 10
-340.755973218319
 20
301.5092493023417
 30
0.0
 10
-340.7588909892851
 20
301.3594138951436
 30
0.0
 10
-340.7799860808498
 20
301.2138228859696
 30
0.0
 10
-340.8191927437586
 20
301.0728295308454
 30
0.0
 10
-340.8742079796581
 20
300.9357605394709
 30
0.0
 10
-340.9464144281094
 20
300.8028021038572
 30
0.0
 10
-341.0073036852053
 20
300.7209560247116
 30
0.0
 10
-341.0382594004276
 20
300.6793459930091
 30
0.0
  0
SPLINE
  5
94
330
1F
100
AcDbEntity
  8
0
  6
Continuous
 62
     7
370
    25
100
AcDbSpline
210
0.0
220
0.0
230
1.0
 70
     8
 71
     3
 72
    14
 73
    10
 74
     0
 42
0.00000001
 43
0.00000001
 40
0.0
 40
0.0
 40
0.0
 40
0.0
 40
0.000236837791676
 40
0.000236837791676
 40
0.000236837791676
 40
0.0006795974488869
 40
0.0006795974488869
 40
0.0006795974488869
 40
0.0009449044108491
 40
0.0009449044108491
 40
0.0009449044108491
 40
0.0009449044108491
 10
-341.0382594004276
 20
300.6793459930091
 30
0.0
 10
-341.0887052998276
 20
300.6186197944989
 30
0.0
 10
-341.141346301001
 20
300.5589832724191
 30
0.0
 10
-341.201018027589
 20
300.5072943471278
 30
0.0
 10
-341.3116248059248
 20
300.411484391073
 30
0.0
 10
-341.4403977328609
 20
300.3346052026184
 30
0.0
 10
-341.5752569957967
 20
300.2778039148387
 30
0.0
 10
-341.6567539329997
 20
300.243478271331
 30
0.0
 10
-341.741863972854
 20
300.2180068632508
 30
0.0
 10
-341.8270214196584
 20
300.1941697109579
 30
0.0
  0
LINE
  5
95
330
1F
100
AcDbEntity
  8
0
  6
Continuous
 62
     7
370
    25
100
AcDbLine
 10
-341.8270214197
 20
300.194169711
 30
0.0
 11
-342.3752986632
 21
302.4440695507
 31
0.0
  0
LINE
  5
96
330
1F
100
AcDbEntity
  8
0
  6
Continuous
 62
     7
370
    25
100
AcDbLine
 10
-341.5813004737
 20
304.7395037996
 30
0.0
 11
-341.4740288391
 21
304.2999004342
 31
0.0
  0
LINE
  5
97
330
1F
100
AcDbEntity
  8
0
  6
Continuous
 62
     7
370
    25
100
AcDbLine
 10
-341.4740288391
 20
304.2999004342
 30
0.0
 11
-340.5443413391
 21
304.5263627739
 31
0.0
  0
LINE
  5
98
330
1F
100
AcDbEntity
  8
0
  6
Continuous
 62
     7
370
    25
100
AcDbLine
 10
-340.5443413391
 20
304.5263627739
 30
0.0
 11
-340.4651145763
 21
304.2017433829
 31
0.0
  0
LINE
  5
99
330
1F
100
AcDbEntity
  8
0
  6
Continuous
 62
     7
370
    25
100
AcDbLine
 10
-340.4651145763
 20
304.2017433829
 30
0.0
 11
-341.3948020763
 21
303.9752810432
 31
0.0
  0
LINE
  5
9A
330
1F
100
AcDbEntity
  8
0
  6
Continuous
 62
     7
370
    25
100
AcDbLine
 10
-341.3948020763
 20
303.9752810432
 30
0.0
 11
-341.2707035186
 21
303.4648643765
 31
0.0
  0
LINE
  5
9B
330
1F
100
AcDbEntity
  8
0
  6
Continuous
 62
     7
370
    25
100
AcDbLine
 10
-341.2707035186
 20
303.4648643765
 30
0.0
 11
-341.5469455058
 21
303.3975566842
 31
0.0
  0
LINE
  5
9C
330
1F
100
AcDbEntity
  8
0
  6
Continuous
 62
     7
370
    25
100
AcDbLine
 10
-341.5469455058
 20
303.3975566842
 30
0.0
 11
-341.6710440635
 21
303.9079733509
 31
0.0
  0
LINE
  5
9D
330
1F
100
AcDbEntity
  8
0
  6
Continuous
 62
     7
370
    25
100
AcDbLine
 10
-341.6710440635
 20
303.9079733509
 30
0.0
 11
-343.897806884
 21
303.3653050816
 31
0.0
  0
LINE
  5
9E
330
1F
100
AcDbEntity
  8
0
  6
Continuous
 62
     7
370
    25
100
AcDbLine
 10
-343.897806884
 20
303.3653050816
 30
0.0
 11
-343.9770336468
 21
303.6899244727
 31
0.0
  0
LINE
  5
9F
330
1F
100
AcDbEntity
  8
0
  6
Continuous
 62
     7
370
    25
100
AcDbLine
 10
-343.9770336468
 20
303.6899244727
 30
0.0
 11
-341.7502708263
 21
304.2325927419
 31
0.0
  0
LINE
  5
A0
330
1F
100
AcDbEntity
  8
0
  6
Continuous
 62
     7
370
    25
100
AcDbLine
 10
-341.7502708263
 20
304.2325927419
 30
0.0
 11
-341.8575424609
 21
304.6721961073
 31
0.0
  0
LINE
  5
A1
330
1F
100
AcDbEntity
  8
0
  6
Continuous
 62
     7
370
    25
100
AcDbLine
 10
-341.8575424609
 20
304.6721961073
 30
0.0
 11
-341.5813004737
 21
304.7395037996
 31
0.0
  0
LINE
  5
A2
330
1F
100
AcDbEntity
  8
0
  6
Continuous
 62
     7
370
    25
100
AcDbLine
 10
-342.2565252486
 20
305.5183730986
 30
0.0
 11
-341.7965893511
 21
305.6305525858
 31
0.0
  0
LINE
  5
A3
330
1F
100
AcDbEntity
  8
0
  6
Continuous
 62
     7
370
    25
100
AcDbLine
 10
-341.7965893511
 20
305.6305525858
 30
0.0
 11
-341.7194659537
 21
305.3129444127
 31
0.0
  0
LINE
  5
A4
330
1F
100
AcDbEntity
  8
0
  6
Continuous
 62
     7
370
    25
100
AcDbLine
 10
-341.7194659537
 20
305.3129444127
 30
0.0
 11
-344.2224707614
 21
304.7029684512
 31
0.0
  0
LINE
  5
A5
330
1F
100
AcDbEntity
  8
0
  6
Continuous
 62
     7
370
    25
100
AcDbLine
 10
-344.2224707614
 20
304.7029684512
 30
0.0
 11
-344.2995941588
 21
305.0205766243
 31
0.0
  0
LINE
  5
A6
330
1F
100
AcDbEntity
  8
0
  6
Continuous
 62
     7
370
    25
100
AcDbLine
 10
-344.2995941588
 20
305.0205766243
 30
0.0
 11
-343.8691053768
 21
305.1257448935
 31
0.0
  0
SPLINE
  5
A7
330
1F
100
AcDbEntity
  8
0
  6
Continuous
 62
     7
370
    25
100
AcDbSpline
210
0.0
220
0.0
230
1.0
 70
     8
 71
     3
 72
    14
 73
    10
 74
     0
 42
0.00000001
 43
0.00000001
 40
0.0
 40
0.0
 40
0.0
 40
0.0
 40
0.0003000847166527
 40
0.0003000847166527
 40
0.0003000847166527
 40
0.0007407583242141
 40
0.0007407583242141
 40
0.0007407583242141
 40
0.0011980890411426
 40
0.0011980890411426
 40
0.0011980890411426
 40
0.0011980890411426
 10
-343.8691053767635
 20
305.1257448934984
 30
0.0
 10
-343.9579740189582
 20
305.1716579962987
 30
0.0
 10
-344.0462491354912
 20
305.2202845617408
 30
0.0
 10
-344.1265546737221
 20
305.2799223777952
 30
0.0
 10
-344.2434082752624
 20
305.3667021161232
 30
0.0
 10
-344.3479932039821
 20
305.4740000740246
 30
0.0
 10
-344.4288260890961
 20
305.5950435862893
 30
0.0
 10
-344.5126500045118
 20
305.7205660282929
 30
0.0
 10
-344.5689239586187
 20
305.8649820251532
 30
0.0
 10
-344.6087888703532
 20
306.0105605986267
 30
0.0
  0
SPLINE
  5
A8
330
1F
100
AcDbEntity
  8
0
  6
Continuous
 62
     7
370
    25
100
AcDbSpline
210
0.0
220
0.0
230
1.0
 70
     8
 71
     3
 72
    23
 73
    19
 74
     0
 42
0.00000001
 43
0.00000001
 40
0.0
 40
0.0
 40
0.0
 40
0.0
 40
0.0636382247850001
 40
0.1257030071278478
 40
0.1861515814704509
 40
0.2463028846840885
 40
0.3065000174687605
 40
0.3676281827250165
 40
0.4299147365968323
 40
0.4943051441430634
 40
0.5589818675384178
 40
0.6219194090961672
 40
0.6836893409679803
 40
0.7453627628473823
 40
0.8071862462827217
 40
0.8697193685393502
 40
0.9339854527837611
 40
1.0
 40
1.0
 40
1.0
 40
1.0
 10
-344.6087888703532
 20
306.0105605986267
 30
0.0
 10
-344.6183488325066
 20
306.0543430706182
 30
0.0
 10
-344.6372323886519
 20
306.140825501695
 30
0.0
 10
-344.6493744319446
 20
306.2715739448271
 30
0.0
 10
-344.6489187181814
 20
306.4002858505129
 30
0.0
 10
-344.6349310396154
 20
306.5270193834936
 30
0.0
 10
-344.6069615687462
 20
306.6518086204948
 30
0.0
 10
-344.5674634466882
 20
306.7750930902648
 30
0.0
 10
-344.512217876044
 20
306.8953984522952
 30
0.0
 10
-344.4465325121948
 20
307.0131171329078
 30
0.0
 10
-344.3692408917988
 20
307.1241925317758
 30
0.0
 10
-344.2835350652079
 20
307.2264915875621
 30
0.0
 10
-344.18955540601
 20
307.3182632748421
 30
0.0
 10
-344.0878002525964
 20
307.4001341391422
 30
0.0
 10
-343.9769913935907
 20
307.4703394364332
 30
0.0
 10
-343.8582736653017
 20
307.5299928725712
 30
0.0
 10
-343.7320674584457
 20
307.5806140447307
 30
0.0
 10
-343.6434007199696
 20
307.6041855716911
 30
0.0
 10
-343.598472363943
 20
307.6161295088831
 30
0.0
  0
SPLINE
  5
A9
330
1F
100
AcDbEntity
  8
0
  6
Continuous
 62
     7
370
    25
100
AcDbSpline
210
0.0
220
0.0
230
1.0
 70
     8
 71
     3
 72
    23
 73
    19
 74
     0
 42
0.00000001
 43
0.00000001
 40
0.0
 40
0.0
 40
0.0
 40
0.0
 40
0.0648748900110375
 40
0.1281538220450708
 40
0.1897828855277706
 40
0.2510398810452337
 40
0.3122570075004039
 40
0.3740021070955782
 40
0.4369910051361825
 40
0.5018359525596624
 40
0.5666963007546314
 40
0.6294919822145183
 40
0.691210116135235
 40
0.7517775243364802
 40
0.8123888909866294
 40
0.8736286735022735
 40
0.9357991709718155
 40
1.0
 40
1.0
 40
1.0
 40
1.0
 10
-343.598472363943
 20
307.6161295088831
 30
0.0
 10
-343.5539912197759
 20
307.6259175705758
 30
0.0
 10
-343.466123192054
 20
307.6452529022598
 30
0.0
 10
-343.3332786852195
 20
307.65815932975
 30
0.0
 10
-343.2025152645046
 20
307.6581710788274
 30
0.0
 10
-343.0737041579412
 20
307.6458071222526
 30
0.0
 10
-342.9469583816561
 20
307.6194187047772
 30
0.0
 10
-342.8221308937799
 20
307.5808078397693
 30
0.0
 10
-342.6996250280163
 20
307.5284428607119
 30
0.0
 10
-342.5807755747421
 20
307.4636168654156
 30
0.0
 10
-342.4683436306245
 20
307.3885277589396
 30
0.0
 10
-342.3642101420206
 20
307.3056890122284
 30
0.0
 10
-342.271679819221
 20
307.2142760955518
 30
0.0
 10
-342.1893221234279
 20
307.1155785955811
 30
0.0
 10
-342.1191049880885
 20
307.0082450104637
 30
0.0
 10
-342.0596349618489
 20
306.8935045609877
 30
0.0
 10
-342.0093621712892
 20
306.7715133941056
 30
0.0
 10
-341.9863601018819
 20
306.6858109980682
 30
0.0
 10
-341.9746742870199
 20
306.6422713358062
 30
0.0
  0
SPLINE
  5
AA
330
1F
100
AcDbEntity
  8
0
  6
Continuous
 62
     7
370
    25
100
AcDbSpline
210
0.0
220
0.0
230
1.0
 70
     8
 71
     3
 72
    14
 73
    10
 74
     0
 42
0.00000001
 43
0.00000001
 40
0.0
 40
0.0
 40
0.0
 40
0.0
 40
0.0004387951405343
 40
0.0004387951405343
 40
0.0004387951405343
 40
0.000883338153114
 40
0.000883338153114
 40
0.000883338153114
 40
0.0012009774674393
 40
0.0012009774674393
 40
0.0012009774674393
 40
0.0012009774674393
 10
-341.9746742870199
 20
306.6422713358062
 30
0.0
 10
-341.9439094575283
 20
306.4992783667662
 30
0.0
 10
-341.9272702156708
 20
306.3500961234785
 30
0.0
 10
-341.9426748187504
 20
306.2046445434511
 30
0.0
 10
-341.9582291843992
 20
306.0577788924352
 30
0.0
 10
-342.0047910522671
 20
305.9118935154124
 30
0.0
 10
-342.0743017281429
 20
305.7815872466516
 30
0.0
 10
-342.1245270248357
 20
305.6874337813456
 30
0.0
 10
-342.1896722985199
 20
305.6015484467063
 30
0.0
 10
-342.2565252485584
 20
305.5183730986267
 30
0.0
  0
LINE
  5
AB
330
1F
100
AcDbEntity
  8
0
  6
Continuous
 62
     7
370
    25
100
AcDbLine
 10
-344.9475176033
 20
307.683707301
 30
0.0
 11
-345.3471570264
 21
309.324332301
 31
0.0
  0
LINE
  5
AC
330
1F
100
AcDbEntity
  8
0
  6
Continuous
 62
     7
370
    25
100
AcDbLine
 10
-345.3471570264
 20
309.324332301
 30
0.0
 11
-341.9628421226
 21
310.1488515318
 31
0.0
  0
LINE
  5
AD
330
1F
100
AcDbEntity
  8
0
  6
Continuous
 62
     7
370
    25
100
AcDbLine
 10
-341.9628421226
 20
310.1488515318
 30
0.0
 11
-341.8801097508
 21
309.8081063395
 31
0.0
  0
LINE
  5
AE
330
1F
100
AcDbEntity
  8
0
  6
Continuous
 62
     7
370
    25
100
AcDbLine
 10
-341.8801097508
 20
309.8081063395
 30
0.0
 11
-344.9377018982
 21
309.0635149933
 31
0.0
  0
LINE
  5
AF
330
1F
100
AcDbEntity
  8
0
  6
Continuous
 62
     7
370
    25
100
AcDbLine
 10
-344.9377018982
 20
309.0635149933
 30
0.0
 11
-344.6207948469
 21
307.7636351856
 31
0.0
  0
LINE
  5
B0
330
1F
100
AcDbEntity
  8
0
  6
Continuous
 62
     7
370
    25
100
AcDbLine
 10
-344.6207948469
 20
307.7636351856
 30
0.0
 11
-344.9475176033
 21
307.683707301
 31
0.0
  0
LINE
  5
B1
330
1F
100
AcDbEntity
  8
0
  6
Continuous
 62
     7
370
    25
100
AcDbLine
 10
-346.299110745
 20
313.2408124312
 30
0.0
 11
-346.3776363861
 21
313.562627335
 31
0.0
  0
LINE
  5
B2
330
1F
100
AcDbEntity
  8
0
  6
Continuous
 62
     7
370
    25
100
AcDbLine
 10
-346.3776363861
 20
313.562627335
 30
0.0
 11
-343.8746315784
 21
314.1726032966
 31
0.0
  0
LINE
  5
B3
330
1F
100
AcDbEntity
  8
0
  6
Continuous
 62
     7
370
    25
100
AcDbLine
 10
-343.8746315784
 20
314.1726032966
 30
0.0
 11
-343.7961059373
 21
313.8507883927
 31
0.0
  0
LINE
  5
B4
330
1F
100
AcDbEntity
  8
0
  6
Continuous
 62
     7
370
    25
100
AcDbLine
 10
-343.7961059373
 20
313.8507883927
 30
0.0
 11
-344.2448238861
 21
313.7414133927
 31
0.0
  0
SPLINE
  5
B5
330
1F
100
AcDbEntity
  8
0
  6
Continuous
 62
     7
370
    25
100
AcDbSpline
210
0.0
220
0.0
230
1.0
 70
     8
 71
     3
 72
    15
 73
    11
 74
     0
 42
0.00000001
 43
0.00000001
 40
0.0
 40
0.0
 40
0.0
 40
0.0
 40
0.1408126440443348
 40
0.2732779992317643
 40
0.3999565380610808
 40
0.5216702023662737
 40
0.6405772308438031
 40
0.7587563148554423
 40
0.8777327394187147
 40
1.0
 40
1.0
 40
1.0
 40
1.0
 10
-344.2448238860627
 20
313.7414133927215
 30
0.0
 10
-344.1959648361697
 20
313.7189826804258
 30
0.0
 10
-344.1011430714783
 20
313.6754509349698
 30
0.0
 10
-343.9703314532236
 20
313.5961949977166
 30
0.0
 10
-343.8544585673635
 20
313.5079404858533
 30
0.0
 10
-343.7543775971391
 20
313.4094345723703
 30
0.0
 10
-343.6672659369992
 20
313.3032800503416
 30
0.0
 10
-343.5976249343346
 20
313.1862582343219
 30
0.0
 10
-343.5395999536512
 20
313.0614400543287
 30
0.0
 10
-343.5153350030427
 20
312.9724917955579
 30
0.0
 10
-343.5030370270883
 20
312.9274109888754
 30
0.0
  0
SPLINE
  5
B6
330
1F
100
AcDbEntity
  8
0
  6
Continuous
 62
     7
370
    25
100
AcDbSpline
210
0.0
220
0.0
230
1.0
 70
     8
 71
     3
 72
    20
 73
    16
 74
     0
 42
0.00000001
 43
0.00000001
 40
0.0
 40
0.0
 40
0.0
 40
0.0
 40
0.0003449706101129
 40
0.0003449706101129
 40
0.0003449706101129
 40
0.0006940728038916
 40
0.0006940728038916
 40
0.0006940728038916
 40
0.0009910824569985
 40
0.0009910824569985
 40
0.0009910824569985
 40
0.0012868496774345
 40
0.0012868496774345
 40
0.0012868496774345
 40
0.0018345682512335
 40
0.0018345682512335
 40
0.0018345682512335
 40
0.0018345682512335
 10
-343.5030370270884
 20
312.9274109888755
 30
0.0
 10
-343.4803479264851
 20
312.8146814382461
 30
0.0
 10
-343.4660473691623
 20
312.6973275814148
 30
0.0
 10
-343.4801236416268
 20
312.5832021879881
 30
0.0
 10
-343.4943495817144
 20
312.4678633428879
 30
0.0
 10
-343.5318319219309
 20
312.3530908286164
 30
0.0
 10
-343.5893720119684
 20
312.2521226920639
 30
0.0
 10
-343.6385964643424
 20
312.1657463720792
 30
0.0
 10
-343.7036293164317
 20
312.0868465100066
 30
0.0
 10
-343.7786964528071
 20
312.021663380272
 30
0.0
 10
-343.8535522250791
 20
311.9566637845635
 30
0.0
 10
-343.9409443049552
 20
311.9053914927673
 30
0.0
 10
-344.0314212822965
 20
311.8648668008392
 30
0.0
 10
-344.1995479201821
 20
311.7895627798006
 30
0.0
 10
-344.3781139429506
 20
311.7381613946029
 30
0.0
 10
-344.5568230847807
 20
311.693436629901
 30
0.0
  0
LINE
  5
B7
330
1F
100
AcDbEntity
  8
0
  6
Continuous
 62
     7
370
    25
100
AcDbLine
 10
-344.5568230848
 20
311.6934366299
 30
0.0
 11
-345.8454849438
 21
311.3793340658
 31
0.0
  0
LINE
  5
B8
330
1F
100
AcDbEntity
  8
0
  6
Continuous
 62
     7
370
    25
100
AcDbLine
 10
-345.8454849438
 20
311.3793340658
 30
0.0
 11
-345.9240105848
 21
311.6990456043
 31
0.0
  0
LINE
  5
B9
330
1F
100
AcDbEntity
  8
0
  6
Continuous
 62
     7
370
    25
100
AcDbLine
 10
-345.9240105848
 20
311.6990456043
 30
0.0
 11
-344.7300001681
 21
311.9900111491
 31
0.0
  0
SPLINE
  5
BA
330
1F
100
AcDbEntity
  8
0
  6
Continuous
 62
     7
370
    25
100
AcDbSpline
210
0.0
220
0.0
230
1.0
 70
     8
 71
     3
 72
    14
 73
    10
 74
     0
 42
0.00000001
 43
0.00000001
 40
0.0
 40
0.0
 40
0.0
 40
0.0
 40
0.0001495852736344
 40
0.0001495852736344
 40
0.0001495852736344
 40
0.0002991986518809
 40
0.0002991986518809
 40
0.0002991986518809
 40
0.0005977567323941
 40
0.0005977567323941
 40
0.0005977567323941
 40
0.0005977567323941
 10
-344.730000168114
 20
311.9900111491318
 30
0.0
 10
-344.6816053464034
 20
312.0020168198875
 30
0.0
 10
-344.6332062719649
 20
312.014013677383
 30
0.0
 10
-344.584945059901
 20
312.0265456488489
 30
0.0
 10
-344.5366788204528
 20
312.0390789257738
 30
0.0
 10
-344.4885790818633
 20
312.0522815654319
 30
0.0
 10
-344.4407213326769
 20
312.0662940150307
 30
0.0
 10
-344.345402280174
 20
312.0942028373572
 30
0.0
 10
-344.2491951306703
 20
312.1230257302408
 30
0.0
 10
-344.1606892706781
 20
312.1680960850292
 30
0.0
  0
SPLINE
  5
BB
330
1F
100
AcDbEntity
  8
0
  6
Continuous
 62
     7
370
    25
100
AcDbSpline
210
0.0
220
0.0
230
1.0
 70
     8
 71
     3
 72
    17
 73
    13
 74
     0
 42
0.00000001
 43
0.00000001
 40
0.0
 40
0.0
 40
0.0
 40
0.0
 40
0.0002788372940477
 40
0.0002788372940477
 40
0.0002788372940477
 40
0.0004581261926425
 40
0.0004581261926425
 40
0.0004581261926425
 40
0.0006374890542368
 40
0.0006374890542368
 40
0.0006374890542368
 40
0.0009013026304049
 40
0.0009013026304049
 40
0.0009013026304049
 40
0.0009013026304049
 10
-344.1606892706781
 20
312.1680960850292
 30
0.0
 10
-344.0788117769844
 20
312.2120846198861
 30
0.0
 10
-343.9988629609623
 20
312.2645610787451
 30
0.0
 10
-343.935561280772
 20
312.3326184990424
 30
0.0
 10
-343.8946927112621
 20
312.3765574498528
 30
0.0
 10
-343.8609983947409
 20
312.4282019251721
 30
0.0
 10
-343.8367191888238
 20
312.4830780723778
 30
0.0
 10
-343.8124416743788
 20
312.5379503964982
 30
0.0
 10
-343.7981948871171
 20
312.5978176178559
 30
0.0
 10
-343.7923616824925
 20
312.6575364874518
 30
0.0
 10
-343.7838326062625
 20
312.7448550068468
 30
0.0
 10
-343.7962972383293
 20
312.8341454427502
 30
0.0
 10
-343.8157373476012
 20
312.9196986491318
 30
0.0
  0
SPLINE
  5
BC
330
1F
100
AcDbEntity
  8
0
  6
Continuous
 62
     7
370
    25
100
AcDbSpline
210
0.0
220
0.0
230
1.0
 70
     8
 71
     3
 72
    23
 73
    19
 74
     0
 42
0.00000001
 43
0.00000001
 40
0.0
 40
0.0
 40
0.0
 40
0.0
 40
0.0630014102716523
 40
0.1246807379139954
 40
0.1857908914841593
 40
0.2463148568997354
 40
0.3075115892432156
 40
0.3689386017318694
 40
0.4324088869455657
 40
0.4970801571517697
 40
0.5620101624953541
 40
0.6256054522214675
 40
0.6883148497495478
 40
0.7502084068359661
 40
0.8120677370679067
 40
0.8740610145448348
 40
0.9363298253694072
 40
1.0
 40
1.0
 40
1.0
 40
1.0
 10
-343.8157373476012
 20
312.9196986491318
 30
0.0
 10
-343.8220943113151
 20
312.9436645546434
 30
0.0
 10
-343.8346748380577
 20
312.9910934418867
 30
0.0
 10
-343.8607845683201
 20
313.0595318539146
 30
0.0
 10
-343.893331533636
 20
313.1239831964792
 30
0.0
 10
-343.930719812114
 20
313.1855005543047
 30
0.0
 10
-343.9732861616158
 20
313.2437682584636
 30
0.0
 10
-344.0223760509428
 20
313.2982254498787
 30
0.0
 10
-344.076970774565
 20
313.3491479913625
 30
0.0
 10
-344.1364488260118
 20
313.396458818878
 30
0.0
 10
-344.1988510262056
 20
313.4399983194908
 30
0.0
 10
-344.2645253381655
 20
313.4768622102527
 30
0.0
 10
-344.3310778609512
 20
313.5093579163952
 30
0.0
 10
-344.399359813429
 20
313.5364856685887
 30
0.0
 10
-344.469776440406
 20
313.5562663049857
 30
0.0
 10
-344.5412890681175
 20
313.5722560461857
 30
0.0
 10
-344.6148051486874
 20
313.5811607760305
 30
0.0
 10
-344.6643081735165
 20
313.5832871123133
 30
0.0
 10
-344.6893351040114
 20
313.5843621106703
 30
0.0
  0
SPLINE
  5
BD
330
1F
100
AcDbEntity
  8
0
  6
Continuous
 62
     7
370
    25
100
AcDbSpline
210
0.0
220
0.0
230
1.0
 70
     8
 71
     3
 72
    15
 73
    11
 74
     0
 42
0.00000001
 43
0.00000001
 40
0.0
 40
0.0
 40
0.0
 40
0.0
 40
0.0767560685315807
 40
0.1667943186169913
 40
0.2713646896892966
 40
0.3883416027795136
 40
0.5200752044351152
 40
0.6666515987617903
 40
0.825969460126918
 40
1.0
 40
1.0
 40
1.0
 40
1.0
 10
-344.6893351040114
 20
313.5843621106703
 30
0.0
 10
-344.7073415133538
 20
313.5841269598967
 30
0.0
 10
-344.7464702341762
 20
313.5836159669056
 30
0.0
 10
-344.8098780226391
 20
313.5774314309335
 30
0.0
 10
-344.8822353967876
 20
313.5672505989111
 30
0.0
 10
-344.9641666000891
 20
313.5548428591075
 30
0.0
 10
-345.0553003485927
 20
313.5377544402581
 30
0.0
 10
-345.1557518708179
 20
313.5166737268046
 30
0.0
 10
-345.2655661215159
 20
313.4919629658215
 30
0.0
 10
-345.3416311806965
 20
313.4739002500233
 30
0.0
 10
-345.3813423155499
 20
313.4644702837472
 30
0.0
  0
LINE
  5
BE
330
1F
100
AcDbEntity
  8
0
  6
Continuous
 62
     7
370
    25
100
AcDbLine
 10
-345.3813423155
 20
313.4644702837
 30
0.0
 11
-346.299110745
 21
313.2408124312
 31
0.0
  0
SPLINE
  5
BF
330
1F
100
AcDbEntity
  8
0
  6
Continuous
 62
     7
370
    25
100
AcDbSpline
210
0.0
220
0.0
230
1.0
 70
     8
 71
     3
 72
    14
 73
    10
 74
     0
 42
0.00000001
 43
0.00000001
 40
0.0
 40
0.0
 40
0.0
 40
0.0
 40
0.0002554204046698
 40
0.0002554204046698
 40
0.0002554204046698
 40
0.0007107774741389
 40
0.0007107774741389
 40
0.0007107774741389
 40
0.0010193130624982
 40
0.0010193130624982
 40
0.0010193130624982
 40
0.0010193130624982
 10
-345.9153839913927
 20
317.0817869184676
 30
0.0
 10
-345.8322793037842
 20
317.1002924167469
 30
0.0
 10
-345.7479424978339
 20
317.1156122033064
 30
0.0
 10
-345.662960530337
 20
317.1207994732465
 30
0.0
 10
-345.5129072182887
 20
317.12995867558
 30
0.0
 10
-345.3591470986716
 20
317.1142006915784
 30
0.0
 10
-345.2144625287207
 20
317.0733808108557
 30
0.0
 10
-345.1156582820107
 20
317.0455051530231
 30
0.0
 10
-345.0211757238174
 20
317.0027022146004
 30
0.0
 10
-344.929606747803
 20
316.9562861171856
 30
0.0
  0
SPLINE
  5
C0
330
1F
100
AcDbEntity
  8
0
  6
Continuous
 62
     7
370
    25
100
AcDbSpline
210
0.0
220
0.0
230
1.0
 70
     8
 71
     3
 72
    15
 73
    11
 74
     0
 42
0.00000001
 43
0.00000001
 40
0.0
 40
0.0
 40
0.0
 40
0.0
 40
0.1288511890279725
 40
0.2534204266177454
 40
0.3759479861682294
 40
0.4969905056782209
 40
0.6183945544834927
 40
0.7417929905584585
 40
0.868679238339897
 40
1.0
 40
1.0
 40
1.0
 40
1.0
 10
-344.929606747803
 20
316.9562861171856
 30
0.0
 10
-344.8881552346974
 20
316.9323712075853
 30
0.0
 10
-344.8066297151082
 20
316.8853361228556
 30
0.0
 10
-344.6952025950694
 20
316.8007880597441
 30
0.0
 10
-344.5950925651398
 20
316.7074724352404
 30
0.0
 10
-344.507005922848
 20
316.604232686347
 30
0.0
 10
-344.4298513053135
 20
316.4921850130366
 30
0.0
 10
-344.3652896579829
 20
316.3699919870173
 30
0.0
 10
-344.3122571021807
 20
316.2383272609474
 30
0.0
 10
-344.2869359047208
 20
316.1458479495483
 30
0.0
 10
-344.2740578695979
 20
316.0988141620574
 30
0.0
  0
SPLINE
  5
C1
330
1F
100
AcDbEntity
  8
0
  6
Continuous
 62
     7
370
    25
100
AcDbSpline
210
0.0
220
0.0
230
1.0
 70
     8
 71
     3
 72
    15
 73
    11
 74
     0
 42
0.00000001
 43
0.00000001
 40
0.0
 40
0.0
 40
0.0
 40
0.0
 40
0.1314892774296237
 40
0.2578728180166787
 40
0.3812189423731313
 40
0.5028272964926795
 40
0.6243369158024078
 40
0.7463640016109289
 40
0.8711290932621736
 40
0.9999999999999999
 40
0.9999999999999999
 40
0.9999999999999999
 40
0.9999999999999999
 10
-344.2740578695979
 20
316.0988141620574
 30
0.0
 10
-344.2636358055547
 20
316.0513147551983
 30
0.0
 10
-344.2431963668648
 20
315.9581603464105
 30
0.0
 10
-344.2312964156521
 20
315.8174310920602
 30
0.0
 10
-344.2324264930376
 20
315.6800723139747
 30
0.0
 10
-344.2474854591849
 20
315.5451879692714
 30
0.0
 10
-344.2788792078267
 20
315.4136550990156
 30
0.0
 10
-344.324118175654
 20
315.2851026805604
 30
0.0
 10
-344.3837036518527
 20
315.1593152034011
 30
0.0
 10
-344.434198844998
 20
315.0802783804135
 30
0.0
 10
-344.4598551452389
 20
315.0401202518009
 30
0.0
  0
SPLINE
  5
C2
330
1F
100
AcDbEntity
  8
0
  6
Continuous
 62
     7
370
    25
100
AcDbSpline
210
0.0
220
0.0
230
1.0
 70
     8
 71
     3
 72
    14
 73
    10
 74
     0
 42
0.00000001
 43
0.00000001
 40
0.0
 40
0.0
 40
0.0
 40
0.0
 40
0.0002560308296216
 40
0.0002560308296216
 40
0.0002560308296216
 40
0.0007151260059557
 40
0.0007151260059557
 40
0.0007151260059557
 40
0.0010220975658561
 40
0.0010220975658561
 40
0.0010220975658561
 40
0.0010220975658561
 10
-344.4598551452389
 20
315.0401202518009
 30
0.0
 10
-344.5096417773053
 20
314.9708034211335
 30
0.0
 10
-344.561431023314
 20
314.9022155701363
 30
0.0
 10
-344.6213683749938
 20
314.8414615939709
 30
0.0
 10
-344.7277658945863
 20
314.7336144471051
 30
0.0
 10
-344.8544361488396
 20
314.6426219498805
 30
0.0
 10
-344.9909624539873
 20
314.5769560739229
 30
0.0
 10
-345.0830766530026
 20
314.5326513550635
 30
0.0
 10
-345.1814348459189
 20
314.5014692156089
 30
0.0
 10
-345.2801676452389
 20
314.4750160851343
 30
0.0
  0
SPLINE
  5
C3
330
1F
100
AcDbEntity
  8
0
  6
Continuous
 62
     7
370
    25
100
AcDbSpline
210
0.0
220
0.0
230
1.0
 70
     8
 71
     3
 72
    23
 73
    19
 74
     0
 42
0.00000001
 43
0.00000001
 40
0.0
 40
0.0
 40
0.0
 40
0.0
 40
0.0627733104772338
 40
0.1240021411108073
 40
0.184248750325997
 40
0.2440948453612987
 40
0.304404163669953
 40
0.3650576746831629
 40
0.4274458154856316
 40
0.4912474704491578
 40
0.5553506520587694
 40
0.6178545929860014
 40
0.6794153573399712
 40
0.74078360457128
 40
0.8029368537372829
 40
0.8665940947564662
 40
0.9321172686081544
 40
1.0
 40
1.0
 40
1.0
 40
1.0
 10
-345.2801676452389
 20
314.4750160851343
 30
0.0
 10
-345.3234884678909
 20
314.4654816777713
 30
0.0
 10
-345.4090642440081
 20
314.4466474484109
 30
0.0
 10
-345.538804145858
 20
314.4340954045344
 30
0.0
 10
-345.6669935432759
 20
314.4318762501306
 30
0.0
 10
-345.7939967462639
 20
314.4444692169189
 30
0.0
 10
-345.9195768246984
 20
314.4682105614713
 30
0.0
 10
-346.0441896824254
 20
314.5041327120646
 30
0.0
 10
-346.1666534708884
 20
314.5536908575141
 30
0.0
 10
-346.2867904057066
 20
314.6142079670343
 30
0.0
 10
-346.4008755084222
 20
314.6857075197896
 30
0.0
 10
-346.5062351638761
 20
314.767085664757
 30
0.0
 10
-346.5998415436563
 20
314.8590211813344
 30
0.0
 10
-346.6832922849674
 20
314.959886935499
 30
0.0
 10
-346.7558436447393
 20
315.0707010566156
 30
0.0
 10
-346.81731753051
 20
315.1911967989892
 30
0.0
 10
-346.8693572970755
 20
315.3205761512243
 30
0.0
 10
-346.8936883756837
 20
315.4116476823875
 30
0.0
 10
-346.9060690875465
 20
315.4579888415446
 30
0.0
  0
SPLINE
  5
C4
330
1F
100
AcDbEntity
  8
0
  6
Continuous
 62
     7
370
    25
100
AcDbSpline
210
0.0
220
0.0
230
1.0
 70
     8
 71
     3
 72
    20
 73
    16
 74
     0
 42
0.00000001
 43
0.00000001
 40
0.0
 40
0.0
 40
0.0
 40
0.0
 40
0.0004877550418385
 40
0.0004877550418385
 40
0.0004877550418385
 40
0.0008963417998142
 40
0.0008963417998142
 40
0.0008963417998142
 40
0.0013020527925025
 40
0.0013020527925025
 40
0.0013020527925025
 40
0.0017733490531865
 40
0.0017733490531865
 40
0.0017733490531865
 40
0.0021064029229981
 40
0.0021064029229981
 40
0.0021064029229981
 40
0.0021064029229981
 10
-346.9060690875465
 20
315.4579888415446
 30
0.0
 10
-346.9406983267527
 20
315.616843185369
 30
0.0
 10
-346.960552480837
 20
315.7826222470844
 30
0.0
 10
-346.9434725433062
 20
315.9443076282844
 30
0.0
 10
-346.9291398399903
 20
316.0799866139412
 30
0.0
 10
-346.8902201368537
 20
316.214873583863
 30
0.0
 10
-346.831349010495
 20
316.337952436695
 30
0.0
 10
-346.772703454172
 20
316.4605597017906
 30
0.0
 10
-346.6943426499149
 20
316.5751219487146
 30
0.0
 10
-346.6029247840664
 20
316.6756933986115
 30
0.0
 10
-346.4972417826262
 20
316.7919583385732
 30
0.0
 10
-346.3699549431125
 20
316.8922763607343
 30
0.0
 10
-346.2304418993842
 20
316.9645435295413
 30
0.0
 10
-346.1309430596259
 20
317.0160835092934
 30
0.0
 10
-346.0235700207959
 20
317.0525949389512
 30
0.0
 10
-345.9153839913928
 20
317.0817869184677
 30
0.0
  0
LINE
  5
C5
330
1F
100
AcDbEntity
  8
0
  6
Continuous
 62
     7
370
    25
100
AcDbLine
 10
-347.2963797621
 20
317.3412927816
 30
0.0
 11
-347.3756065249
 21
317.6659121727
 31
0.0
  0
LINE
  5
C6
330
1F
100
AcDbEntity
  8
0
  6
Continuous
 62
     7
370
    25
100
AcDbLine
 10
-347.3756065249
 20
317.6659121727
 30
0.0
 11
-344.8726017172
 21
318.2758881342
 31
0.0
  0
LINE
  5
C7
330
1F
100
AcDbEntity
  8
0
  6
Continuous
 62
     7
370
    25
100
AcDbLine
 10
-344.8726017172
 20
318.2758881342
 30
0.0
 11
-344.7933749544
 21
317.9512687432
 31
0.0
  0
LINE
  5
C8
330
1F
100
AcDbEntity
  8
0
  6
Continuous
 62
     7
370
    25
100
AcDbLine
 10
-344.7933749544
 20
317.9512687432
 30
0.0
 11
-347.2963797621
 21
317.3412927816
 31
0.0
  0
SPLINE
  5
C9
330
1F
100
AcDbEntity
  8
0
  6
Continuous
 62
     7
370
    25
100
AcDbSpline
210
0.0
220
0.0
230
1.0
 70
     8
 71
     3
 72
    20
 73
    16
 74
     0
 42
0.00000001
 43
0.00000001
 40
0.0
 40
0.0
 40
0.0
 40
0.0
 40
0.0001196117886759
 40
0.0001196117886759
 40
0.0001196117886759
 40
0.0002229517532494
 40
0.0002229517532494
 40
0.0002229517532494
 40
0.0003143392402319
 40
0.0003143392402319
 40
0.0003143392402319
 40
0.0004102751086478
 40
0.0004102751086478
 40
0.0004102751086478
 40
0.000422732959436
 40
0.000422732959436
 40
0.000422732959436
 40
0.000422732959436
 10
-344.3341401787793
 20
318.235924191884
 30
0.0
 10
-344.3414293651337
 20
318.2751228169319
 30
0.0
 10
-344.344757788931
 20
318.3165032819863
 30
0.0
 10
-344.3365144810488
 20
318.3555124132061
 30
0.0
 10
-344.3293378321702
 20
318.3894738813232
 30
0.0
 10
-344.3151445815676
 20
318.4225072948666
 30
0.0
 10
-344.2959184491851
 20
318.4514078387959
 30
0.0
 10
-344.2788216802335
 20
318.4771075433596
 30
0.0
 10
-344.2578110414266
 20
318.5008352661163
 30
0.0
 10
-344.2333803536461
 20
318.5197009974252
 30
0.0
 10
-344.2079038436633
 20
318.5393743278013
 30
0.0
 10
-344.1772523395993
 20
318.5523778524466
 30
0.0
 10
-344.1464715316914
 20
318.5617924344087
 30
0.0
 10
-344.1424265005527
 20
318.5630296429091
 30
0.0
 10
-344.1383734541083
 20
318.5642405435552
 30
0.0
 10
-344.1343204672408
 20
318.5654514354738
 30
0.0
  0
SPLINE
  5
CA
330
1F
100
AcDbEntity
  8
0
  6
Continuous
 62
     7
370
    25
100
AcDbSpline
210
0.0
220
0.0
230
1.0
 70
     8
 71
     3
 72
    15
 73
    11
 74
     0
 42
0.00000001
 43
0.00000001
 40
0.0
 40
0.0
 40
0.0
 40
0.0
 40
0.1287271857422748
 40
0.2512378861107495
 40
0.3742795246512984
 40
0.5019378136518567
 40
0.6291785764675722
 40
0.7527273383931723
 40
0.8741363308839842
 40
1.0
 40
1.0
 40
1.0
 40
1.0
 10
-344.1343204672408
 20
318.5654514354738
 30
0.0
 10
-344.1161640528359
 20
318.5690845246235
 30
0.0
 10
-344.0807280324789
 20
318.5761752540042
 30
0.0
 10
-344.0266989842875
 20
318.5726324788659
 30
0.0
 10
-343.974492399365
 20
318.5594702314357
 30
0.0
 10
-343.926185016156
 20
318.5342877626879
 30
0.0
 10
-343.8817004662752
 20
318.5027963123443
 30
0.0
 10
-343.8457410329217
 20
318.4629411472285
 30
0.0
 10
-343.8178068404963
 20
318.4171242365749
 30
0.0
 10
-343.8077890102192
 20
318.3830008087422
 30
0.0
 10
-343.8026898582664
 20
318.3656317239353
 30
0.0
  0
SPLINE
  5
CB
330
1F
100
AcDbEntity
  8
0
  6
Continuous
 62
     7
370
    25
100
AcDbSpline
210
0.0
220
0.0
230
1.0
 70
     8
 71
     3
 72
    15
 73
    11
 74
     0
 42
0.00000001
 43
0.00000001
 40
0.0
 40
0.0
 40
0.0
 40
0.0
 40
0.126520481992216
 40
0.2486137087597746
 40
0.3717319949664585
 40
0.499780318977859
 40
0.6276321942355929
 40
0.7485385946216292
 40
0.8724174395318538
 40
0.9999999999999999
 40
0.9999999999999999
 40
0.9999999999999999
 40
0.9999999999999999
 10
-343.8026898582664
 20
318.3656317239353
 30
0.0
 10
-343.7994715599065
 20
318.347713137618
 30
0.0
 10
-343.793147579168
 20
318.3125029793106
 30
0.0
 10
-343.794907034295
 20
318.258524611591
 30
0.0
 10
-343.8100509658003
 20
318.2067051957657
 30
0.0
 10
-343.8332937760653
 20
318.1571616906908
 30
0.0
 10
-343.8660199130642
 20
318.1135744735735
 30
0.0
 10
-343.9055918734353
 20
318.0770361192208
 30
0.0
 10
-343.9524908378473
 20
318.0501598134744
 30
0.0
 10
-343.9870691375431
 20
318.0394399777736
 30
0.0
 10
-344.0046129351895
 20
318.0340011149609
 30
0.0
  0
SPLINE
  5
CC
330
1F
100
AcDbEntity
  8
0
  6
Continuous
 62
     7
370
    25
100
AcDbSpline
210
0.0
220
0.0
230
1.0
 70
     8
 71
     3
 72
    15
 73
    11
 74
     0
 42
0.00000001
 43
0.00000001
 40
0.0
 40
0.0
 40
0.0
 40
0.0
 40
0.125596238533088
 40
0.2468028565256392
 40
0.3705971085698382
 40
0.4978753019867067
 40
0.6264291322716911
 40
0.7491055068708827
 40
0.8722498021034162
 40
0.9999999999999999
 40
0.9999999999999999
 40
0.9999999999999999
 40
0.9999999999999999
 10
-344.0046129351895
 20
318.0340011149609
 30
0.0
 10
-344.0223027612792
 20
318.0306922106814
 30
0.0
 10
-344.0570641495294
 20
318.0241900491702
 30
0.0
 10
-344.1105127012547
 20
318.0272660058401
 30
0.0
 10
-344.161979333326
 20
318.0418337050376
 30
0.0
 10
-344.2111368132365
 20
318.0655101511954
 30
0.0
 10
-344.2545903629212
 20
318.0982221447942
 30
0.0
 10
-344.2915775056642
 20
318.1372724582756
 30
0.0
 10
-344.3189553854274
 20
318.1838335224339
 30
0.0
 10
-344.3290170108022
 20
318.2183494219518
 30
0.0
 10
-344.3341401787793
 20
318.235924191884
 30
0.0
  0
SPLINE
  5
CD
330
1F
100
AcDbEntity
  8
0
  6
Continuous
 62
     7
370
    25
100
AcDbSpline
210
0.0
220
0.0
230
1.0
 70
     8
 71
     3
 72
    20
 73
    16
 74
     0
 42
0.00000001
 43
0.00000001
 40
0.0
 40
0.0
 40
0.0
 40
0.0
 40
0.00047970220262
 40
0.00047970220262
 40
0.00047970220262
 40
0.0009614110186954
 40
0.0009614110186954
 40
0.0009614110186954
 40
0.0014181740955052
 40
0.0014181740955052
 40
0.0014181740955052
 40
0.0018647603832965
 40
0.0018647603832965
 40
0.0018647603832965
 40
0.0022092963203561
 40
0.0022092963203561
 40
0.0022092963203561
 40
0.0022092963203561
 10
-346.9041536741933
 20
321.0867831008898
 30
0.0
 10
-346.7479604912967
 20
321.1210166285564
 30
0.0
 10
-346.5843946692048
 20
321.1361399575508
 30
0.0
 10
-346.4254895300721
 20
321.1183241904593
 30
0.0
 10
-346.265890479526
 20
321.100430624977
 30
0.0
 10
-346.1068961351859
 20
321.0538497336336
 30
0.0
 10
-345.9635460834015
 20
320.9814425566809
 30
0.0
 10
-345.8274856588616
 20
320.9127174246472
 30
0.0
 10
-345.7022469393829
 20
320.8181772958865
 30
0.0
 10
-345.597261346615
 20
320.7076621014099
 30
0.0
 10
-345.4943657165956
 20
320.5993469482295
 30
0.0
 10
-345.407143090753
 20
320.4736688691638
 30
0.0
 10
-345.3421922712092
 20
320.3391286367938
 30
0.0
 10
-345.2917673482853
 20
320.2346775937576
 30
0.0
 10
-345.2548348210166
 20
320.1235208773338
 30
0.0
 10
-345.2256680972701
 20
320.0112622675565
 30
0.0
  0
SPLINE
  5
CE
330
1F
100
AcDbEntity
  8
0
  6
Continuous
 62
     7
370
    25
100
AcDbSpline
210
0.0
220
0.0
230
1.0
 70
     8
 71
     3
 72
    19
 73
    15
 74
     0
 42
0.00000001
 43
0.00000001
 40
0.0
 40
0.0
 40
0.0
 40
0.0
 40
0.0914589850825363
 40
0.1822751478033239
 40
0.2724751780987591
 40
0.3626752083941543
 40
0.450857252767305
 40
0.5342806825238198
 40
0.6142664103213288
 40
0.6905389777440425
 40
0.7657196438245494
 40
0.8414524605124472
 40
0.9197470630136266
 40
1.0
 40
1.0
 40
1.0
 40
1.0
 10
-345.2256680972701
 20
320.0112622675565
 30
0.0
 10
-345.216588599588
 20
319.9700183642637
 30
0.0
 10
-345.1984934197595
 20
319.8878204417532
 30
0.0
 10
-345.1833074385928
 20
319.7627681991413
 30
0.0
 10
-345.1784892292849
 20
319.6375711347104
 30
0.0
 10
-345.1832816657326
 20
319.513549615431
 30
0.0
 10
-345.1976272532719
 20
319.3935004377328
 30
0.0
 10
-345.2177286183559
 20
319.2789799763117
 30
0.0
 10
-345.2484482331909
 20
319.1725462990213
 30
0.0
 10
-345.2853650052363
 20
319.0721523288835
 30
0.0
 10
-345.3324131150599
 20
318.978225445484
 30
0.0
 10
-345.388093413254
 20
318.8880969562803
 30
0.0
 10
-345.4548107185199
 20
318.8026697060098
 30
0.0
 10
-345.5056324607879
 20
318.7499745474993
 30
0.0
 10
-345.5313571998342
 20
318.7233015303771
 30
0.0
  0
LINE
  5
CF
330
1F
100
AcDbEntity
  8
0
  6
Continuous
 62
     7
370
    25
100
AcDbLine
 10
-345.5313571998
 20
318.7233015304
 30
0.0
 11
-345.7522105652
 21
318.939948165
 31
0.0
  0
SPLINE
  5
D0
330
1F
100
AcDbEntity
  8
0
  6
Continuous
 62
     7
370
    25
100
AcDbSpline
210
0.0
220
0.0
230
1.0
 70
     8
 71
     3
 72
    15
 73
    11
 74
     0
 42
0.00000001
 43
0.00000001
 40
0.0
 40
0.0
 40
0.0
 40
0.0
 40
0.1286278043789431
 40
0.253250585908821
 40
0.3741451094659105
 40
0.4946157150562932
 40
0.6152430447603975
 40
0.7384542457484151
 40
0.8665893038379364
 40
1.0
 40
1.0
 40
1.0
 40
1.0
 10
-345.7522105652189
 20
318.9399481649924
 30
0.0
 10
-345.7239476313346
 20
318.9764743359317
 30
0.0
 10
-345.6683017731138
 20
319.0483893797749
 30
0.0
 10
-345.6018844544188
 20
319.1655148870367
 30
0.0
 10
-345.5505122184894
 20
319.2866288684687
 30
0.0
 10
-345.515478485321
 20
319.4120126790917
 30
0.0
 10
-345.4956062218975
 20
319.541502486031
 30
0.0
 10
-345.4918798740009
 20
319.6751219589408
 30
0.0
 10
-345.5024767296226
 20
319.8131317581249
 30
0.0
 10
-345.5225303715208
 20
319.9048717007321
 30
0.0
 10
-345.532759443424
 20
319.9516669149924
 30
0.0
  0
SPLINE
  5
D1
330
1F
100
AcDbEntity
  8
0
  6
Continuous
 62
     7
370
    25
100
AcDbSpline
210
0.0
220
0.0
230
1.0
 70
     8
 71
     3
 72
    23
 73
    19
 74
     0
 42
0.00000001
 43
0.00000001
 40
0.0
 40
0.0
 40
0.0
 40
0.0
 40
0.0684006310669052
 40
0.1344337190699813
 40
0.1986730197958891
 40
0.2612999329127657
 40
0.3235979697236291
 40
0.3851471459582139
 40
0.4477394490071626
 40
0.5114911578584153
 40
0.5747021716734358
 40
0.6362119041399986
 40
0.6962512195636634
 40
0.7558645852845017
 40
0.8153615185392371
 40
0.8753170426784418
 40
0.9367985855319458
 40
1.0
 40
1.0
 40
1.0
 40
1.0
 10
-345.532759443424
 20
319.9516669149924
 30
0.0
 10
-345.5425862784526
 20
319.9888049099711
 30
0.0
 10
-345.5618998134156
 20
320.0617954468407
 30
0.0
 10
-345.602258931406
 20
320.1660297132944
 30
0.0
 10
-345.6509574580822
 20
320.2628510819333
 30
0.0
 10
-345.7061961159076
 20
320.3537537155071
 30
0.0
 10
-345.7710298199675
 20
320.436217423807
 30
0.0
 10
-345.8433056046921
 20
320.5120760220502
 30
0.0
 10
-345.9232644849638
 20
320.5811952722953
 30
0.0
 10
-346.0113535434761
 20
320.6411583592586
 30
0.0
 10
-346.1031900218212
 20
320.6939441412392
 30
0.0
 10
-346.1981532569708
 20
320.736070755157
 30
0.0
 10
-346.2948598162029
 20
320.7681460140063
 30
0.0
 10
-346.3934221735117
 20
320.7888578591037
 30
0.0
 10
-346.4934435191271
 20
320.8007541598253
 30
0.0
 10
-346.5951735175076
 20
320.7999428055057
 30
0.0
 10
-346.6986266132325
 20
320.7908338146406
 30
0.0
 10
-346.7670873509666
 20
320.7759953691954
 30
0.0
 10
-346.8017898921419
 20
320.7684738060181
 30
0.0
  0
SPLINE
  5
D2
330
1F
100
AcDbEntity
  8
0
  6
Continuous
 62
     7
370
    25
100
AcDbSpline
210
0.0
220
0.0
230
1.0
 70
     8
 71
     3
 72
    19
 73
    15
 74
     0
 42
0.00000001
 43
0.00000001
 40
0.0
 40
0.0
 40
0.0
 40
0.0
 40
0.0818725318437812
 40
0.1630855811548369
 40
0.2445288495891758
 40
0.3278648558619164
 40
0.4109789720737736
 40
0.4924180414274852
 40
0.5736026623536364
 40
0.6566395947231936
 40
0.7405736075953794
 40
0.8246877180225216
 40
0.9108652441198408
 40
1.0
 40
1.0
 40
1.0
 40
1.0
 10
-346.8017898921419
 20
320.7684738060181
 30
0.0
 10
-346.8464038892496
 20
320.7559284037042
 30
0.0
 10
-346.935272518106
 20
320.730938652183
 30
0.0
 10
-347.0606087655896
 20
320.6712783393166
 30
0.0
 10
-347.1782676645772
 20
320.5965799642797
 30
0.0
 10
-347.2852918862425
 20
320.5055446458576
 30
0.0
 10
-347.3808648401682
 20
320.4025488431591
 30
0.0
 10
-347.4598179237808
 20
320.2877495153729
 30
0.0
 10
-347.52332042486
 20
320.1637784055778
 30
0.0
 10
-347.5682816972548
 20
320.0304640379575
 30
0.0
 10
-347.5967027008456
 20
319.8909949754628
 30
0.0
 10
-347.605310009143
 20
319.7471999036375
 30
0.0
 10
-347.5968024511486
 20
319.6003044758389
 30
0.0
 10
-347.5763906870443
 20
319.5032276279414
 30
0.0
 10
-347.5660126485522
 20
319.4538704406334
 30
0.0
  0
SPLINE
  5
D3
330
1F
100
AcDbEntity
  8
0
  6
Continuous
 62
     7
370
    25
100
AcDbSpline
210
0.0
220
0.0
230
1.0
 70
     8
 71
     3
 72
    15
 73
    11
 74
     0
 42
0.00000001
 43
0.00000001
 40
0.0
 40
0.0
 40
0.0
 40
0.0
 40
0.1298860185806145
 40
0.2548993231554797
 40
0.3771347084509755
 40
0.4974878736005202
 40
0.6184025761745017
 40
0.7415587124100722
 40
0.868499980338377
 40
1.0
 40
1.0
 40
1.0
 40
1.0
 10
-347.5660126485522
 20
319.4538704406334
 30
0.0
 10
-347.5536974118324
 20
319.409128346212
 30
0.0
 10
-347.5295289482928
 20
319.3213226708268
 30
0.0
 10
-347.4765720514778
 20
319.1971834526785
 30
0.0
 10
-347.4132277134808
 20
319.0819442807435
 30
0.0
 10
-347.3356004543421
 20
318.9775673384709
 30
0.0
 10
-347.2469777373979
 20
318.8819242727109
 30
0.0
 10
-347.1448435533489
 20
318.7972305737326
 30
0.0
 10
-347.0319484180293
 20
318.7203715617087
 30
0.0
 10
-346.9491086617228
 20
318.6795626855629
 30
0.0
 10
-346.9069581613728
 20
318.6587983252488
 30
0.0
  0
LINE
  5
D4
330
1F
100
AcDbEntity
  8
0
  6
Continuous
 62
     7
370
    25
100
AcDbLine
 10
-346.9069581614
 20
318.6587983253
 30
0.0
 11
-347.0128275524
 21
318.362223806
 31
0.0
  0
SPLINE
  5
D5
330
1F
100
AcDbEntity
  8
0
  6
Continuous
 62
     7
370
    25
100
AcDbSpline
210
0.0
220
0.0
230
1.0
 70
     8
 71
     3
 72
    14
 73
    10
 74
     0
 42
0.00000001
 43
0.00000001
 40
0.0
 40
0.0
 40
0.0
 40
0.0
 40
0.0004482446891321
 40
0.0004482446891321
 40
0.0004482446891321
 40
0.0008947664322292
 40
0.0008947664322292
 40
0.0008947664322292
 40
0.0013857286981877
 40
0.0013857286981877
 40
0.0013857286981877
 40
0.0013857286981877
 10
-347.0128275523984
 20
318.3622238060181
 30
0.0
 10
-347.1520880683577
 20
318.4163654716203
 30
0.0
 10
-347.286083756963
 20
318.4922218024599
 30
0.0
 10
-347.3985127739529
 20
318.5906317988939
 30
0.0
 10
-347.5109275206353
 20
318.6890293044165
 30
0.0
 10
-347.6079848146227
 20
318.8076744434118
 30
0.0
 10
-347.6833456551809
 20
318.9366701335535
 30
0.0
 10
-347.7662876375672
 20
319.0786425184208
 30
0.0
 10
-347.8233416728571
 20
319.236355983872
 30
0.0
 10
-347.8639894113727
 20
319.3956773316591
 30
0.0
  0
SPLINE
  5
D6
330
1F
100
AcDbEntity
  8
0
  6
Continuous
 62
     7
370
    25
100
AcDbSpline
210
0.0
220
0.0
230
1.0
 70
     8
 71
     3
 72
    23
 73
    19
 74
     0
 42
0.00000001
 43
0.00000001
 40
0.0
 40
0.0
 40
0.0
 40
0.0
 40
0.0688836716102288
 40
0.1355403131844179
 40
0.1998555727193506
 40
0.2627293097120055
 40
0.3250986781354733
 40
0.3869713795988586
 40
0.4496146948230816
 40
0.5130637050198178
 40
0.5761620583917776
 40
0.6375774409829033
 40
0.6974475619298229
 40
0.7568581298483499
 40
0.8162757271475677
 40
0.8761127036943471
 40
0.937015926829011
 40
1.0
 40
1.0
 40
1.0
 40
1.0
 10
-347.8639894113727
 20
319.3956773316591
 30
0.0
 10
-347.8747040525738
 20
319.4443637164298
 30
0.0
 10
-347.89578692737
 20
319.5401624403565
 30
0.0
 10
-347.9114780419657
 20
319.6841320779953
 30
0.0
 10
-347.9147003295113
 20
319.8244752914213
 30
0.0
 10
-347.9041105554422
 20
319.9614000643774
 30
0.0
 10
-347.8804230910523
 20
320.0948901041251
 30
0.0
 10
-347.8427473872539
 20
320.2249407526703
 30
0.0
 10
-347.7923188100964
 20
320.3514489147639
 30
0.0
 10
-347.7284102287884
 20
320.4726873664487
 30
0.0
 10
-347.6547406515653
 20
320.5871548850374
 30
0.0
 10
-347.5719189509812
 20
320.6919665543879
 30
0.0
 10
-347.4808378166146
 20
320.7859981166132
 30
0.0
 10
-347.3816497124102
 20
320.8692515539146
 30
0.0
 10
-347.2738290604534
 20
320.9409631070286
 30
0.0
 10
-347.1581798097051
 20
321.0014168800112
 30
0.0
 10
-347.0346372251141
 20
321.0511954423927
 30
0.0
 10
-346.9481325113036
 20
321.0747884561615
 30
0.0
 10
-346.9041536741933
 20
321.0867831008898
 30
0.0
  0
LINE
  5
D7
330
1F
100
AcDbEntity
  8
0
  6
Continuous
 62
     7
370
    25
100
AcDbLine
 10
-346.3173592182
 20
322.217615541
 30
0.0
 11
-345.8574233208
 21
322.3297950281
 31
0.0
  0
LINE
  5
D8
330
1F
100
AcDbEntity
  8
0
  6
Continuous
 62
     7
370
    25
100
AcDbLine
 10
-345.8574233208
 20
322.3297950281
 30
0.0
 11
-345.7802999234
 21
322.0121868551
 31
0.0
  0
LINE
  5
D9
330
1F
100
AcDbEntity
  8
0
  6
Continuous
 62
     7
370
    25
100
AcDbLine
 10
-345.7802999234
 20
322.0121868551
 30
0.0
 11
-348.2833047311
 21
321.4022108935
 31
0.0
  0
LINE
  5
DA
330
1F
100
AcDbEntity
  8
0
  6
Continuous
 62
     7
370
    25
100
AcDbLine
 10
-348.2833047311
 20
321.4022108935
 30
0.0
 11
-348.3604281285
 21
321.7198190666
 31
0.0
  0
LINE
  5
DB
330
1F
100
AcDbEntity
  8
0
  6
Continuous
 62
     7
370
    25
100
AcDbLine
 10
-348.3604281285
 20
321.7198190666
 30
0.0
 11
-347.9299393465
 21
321.8249873358
 31
0.0
  0
SPLINE
  5
DC
330
1F
100
AcDbEntity
  8
0
  6
Continuous
 62
     7
370
    25
100
AcDbSpline
210
0.0
220
0.0
230
1.0
 70
     8
 71
     3
 72
    15
 73
    11
 74
     0
 42
0.00000001
 43
0.00000001
 40
0.0
 40
0.0
 40
0.0
 40
0.0
 40
0.1342677967888296
 40
0.262443123133391
 40
0.3870278330934089
 40
0.5087453753122179
 40
0.6292443163271549
 40
0.7505148486615357
 40
0.8731116777034927
 40
1.0
 40
1.0
 40
1.0
 40
1.0
 10
-347.9299393464512
 20
321.8249873358315
 30
0.0
 10
-347.977447201985
 20
321.8495317983221
 30
0.0
 10
-348.0703072196352
 20
321.8975070056744
 30
0.0
 10
-348.1982449703347
 20
321.9839697897257
 30
0.0
 10
-348.3124469694881
 20
322.0801570818804
 30
0.0
 10
-348.4128311441058
 20
322.1866344930082
 30
0.0
 10
-348.4989030118752
 20
322.3033299728039
 30
0.0
 10
-348.571383442911
 20
322.4292406912905
 30
0.0
 10
-348.6300212621525
 20
322.565186109291
 30
0.0
 10
-348.6562717987733
 20
322.6610477456996
 30
0.0
 10
-348.6696228400409
 20
322.7098030409596
 30
0.0
  0
SPLINE
  5
DD
330
1F
100
AcDbEntity
  8
0
  6
Continuous
 62
     7
370
    25
100
AcDbSpline
210
0.0
220
0.0
230
1.0
 70
     8
 71
     3
 72
    20
 73
    16
 74
     0
 42
0.00000001
 43
0.00000001
 40
0.0
 40
0.0
 40
0.0
 40
0.0
 40
0.0004518547532292
 40
0.0004518547532292
 40
0.0004518547532292
 40
0.0009074152974339
 40
0.0009074152974339
 40
0.0009074152974339
 40
0.0013267275076331
 40
0.0013267275076331
 40
0.0013267275076331
 40
0.0018153057133754
 40
0.0018153057133754
 40
0.0018153057133754
 40
0.0020987617720195
 40
0.0020987617720195
 40
0.0020987617720195
 40
0.0020987617720195
 10
-348.6696228400409
 20
322.7098030409596
 30
0.0
 10
-348.7017535058234
 20
322.8569542484766
 30
0.0
 10
-348.7187403822772
 20
323.0107291332839
 30
0.0
 10
-348.7024496578495
 20
323.1604637981245
 30
0.0
 10
-348.686040395589
 20
323.3112879923314
 30
0.0
 10
-348.6392784984785
 20
323.4608557001202
 30
0.0
 10
-348.5703833471269
 20
323.5960247038391
 30
0.0
 10
-348.5066192901333
 20
323.7211267449528
 30
0.0
 10
-348.4247667881007
 20
323.8388929914904
 30
0.0
 10
-348.3276380992785
 20
323.9402951288583
 30
0.0
 10
-348.215248114894
 20
324.057630025206
 30
0.0
 10
-348.0775871774859
 20
324.1542592543174
 30
0.0
 10
-347.9300000898683
 20
324.222208044295
 30
0.0
 10
-347.8433198289059
 20
324.2621154572158
 30
0.0
 10
-347.7515288640565
 20
324.2908551380382
 30
0.0
 10
-347.6593063336306
 20
324.315371951216
 30
0.0
  0
SPLINE
  5
DE
330
1F
100
AcDbEntity
  8
0
  6
Continuous
 62
     7
370
    25
100
AcDbSpline
210
0.0
220
0.0
230
1.0
 70
     8
 71
     3
 72
    23
 73
    19
 74
     0
 42
0.00000001
 43
0.00000001
 40
0.0
 40
0.0
 40
0.0
 40
0.0
 40
0.0648748900110375
 40
0.1281538220450708
 40
0.1897828855277706
 40
0.2510398810452337
 40
0.3122570075004039
 40
0.3740021070955782
 40
0.4369910051361825
 40
0.5018359525596624
 40
0.5666963007546314
 40
0.6294919822145183
 40
0.691210116135235
 40
0.7517775243364802
 40
0.8123888909866294
 40
0.8736286735022735
 40
0.9357991709718155
 40
1.0
 40
1.0
 40
1.0
 40
1.0
 10
-347.6593063336306
 20
324.315371951216
 30
0.0
 10
-347.6148251894636
 20
324.3251600129087
 30
0.0
 10
-347.5269571617417
 20
324.3444953445926
 30
0.0
 10
-347.394112654907
 20
324.3574017720831
 30
0.0
 10
-347.2633492341923
 20
324.3574135211603
 30
0.0
 10
-347.1345381276288
 20
324.3450495645856
 30
0.0
 10
-347.0077923513437
 20
324.3186611471101
 30
0.0
 10
-346.8829648634675
 20
324.2800502821023
 30
0.0
 10
-346.7604589977038
 20
324.2276853030448
 30
0.0
 10
-346.6416095444298
 20
324.1628593077486
 30
0.0
 10
-346.529177600312
 20
324.0877702012726
 30
0.0
 10
-346.4250441117084
 20
324.0049314545614
 30
0.0
 10
-346.3325137889086
 20
323.9135185378848
 30
0.0
 10
-346.2501560931155
 20
323.814821037914
 30
0.0
 10
-346.1799389577761
 20
323.7074874527966
 30
0.0
 10
-346.1204689315365
 20
323.5927470033206
 30
0.0
 10
-346.0701961409768
 20
323.4707558364385
 30
0.0
 10
-346.0471940715696
 20
323.3850534404011
 30
0.0
 10
-346.0355082567076
 20
323.3415137781391
 30
0.0
  0
SPLINE
  5
DF
330
1F
100
AcDbEntity
  8
0
  6
Continuous
 62
     7
370
    25
100
AcDbSpline
210
0.0
220
0.0
230
1.0
 70
     8
 71
     3
 72
    15
 73
    11
 74
     0
 42
0.00000001
 43
0.00000001
 40
0.0
 40
0.0
 40
0.0
 40
0.0
 40
0.1288683407664739
 40
0.2522988145818678
 40
0.3738862194780967
 40
0.4937627727762491
 40
0.6144740187520474
 40
0.7379455016412442
 40
0.8657883485955736
 40
1.0
 40
1.0
 40
1.0
 40
1.0
 10
-346.0355082567076
 20
323.3415137781391
 30
0.0
 10
-346.0245900794142
 20
323.2907667851121
 30
0.0
 10
-346.0032144399659
 20
323.1914141736935
 30
0.0
 10
-345.9943067137004
 20
323.0407533254743
 30
0.0
 10
-346.001362579557
 20
322.8938376409142
 30
0.0
 10
-346.0276696427072
 20
322.7500762326198
 30
0.0
 10
-346.0723462299342
 20
322.610209390613
 30
0.0
 10
-346.1352295782235
 20
322.4739981205948
 30
0.0
 10
-346.2174286130016
 20
322.3419445776019
 30
0.0
 10
-346.2835136536837
 20
322.2597246268235
 30
0.0
 10
-346.317359218246
 20
322.2176155409596
 30
0.0
  0
LINE
  5
E0
330
1F
100
AcDbEntity
  8
0
  6
Continuous
 62
     7
370
    25
100
AcDbLine
 10
-349.0571290274
 20
324.5818890323
 30
0.0
 11
-349.1356546685
 21
324.9037039362
 31
0.0
  0
LINE
  5
E1
330
1F
100
AcDbEntity
  8
0
  6
Continuous
 62
     7
370
    25
100
AcDbLine
 10
-349.1356546685
 20
324.9037039362
 30
0.0
 11
-345.6665040274
 21
325.7492568208
 31
0.0
  0
LINE
  5
E2
330
1F
100
AcDbEntity
  8
0
  6
Continuous
 62
     7
370
    25
100
AcDbLine
 10
-345.6665040274
 20
325.7492568208
 30
0.0
 11
-345.5879783864
 21
325.4274419169
 31
0.0
  0
LINE
  5
E3
330
1F
100
AcDbEntity
  8
0
  6
Continuous
 62
     7
370
    25
100
AcDbLine
 10
-345.5879783864
 20
325.4274419169
 30
0.0
 11
-349.0571290274
 21
324.5818890323
 31
0.0
  0
SPLINE
  5
E4
330
1F
100
AcDbEntity
  8
0
  6
Continuous
 62
     7
370
    25
100
AcDbSpline
210
0.0
220
0.0
230
1.0
 70
     8
 71
     3
 72
    31
 73
    27
 74
     0
 42
0.00000001
 43
0.00000001
 40
0.0
 40
0.0
 40
0.0
 40
0.0
 40
0.0447040467037456
 40
0.0872402667095264
 40
0.1284188223272596
 40
0.168403337246803
 40
0.2066955806610573
 40
0.2441688949249315
 40
0.2806386858302859
 40
0.3164596007034176
 40
0.3517011198881358
 40
0.3864312477120019
 40
0.4206758481367636
 40
0.4552471029141616
 40
0.4895870201834047
 40
0.5241234240602428
 40
0.5593258692025995
 40
0.5951419811641635
 40
0.6330141046757408
 40
0.6740182184534692
 40
0.7188490781348736
 40
0.767057513139087
 40
0.8192601934257995
 40
0.8755914356256408
 40
0.9356016625202197
 40
0.9999999999999999
 40
0.9999999999999999
 40
0.9999999999999999
 40
0.9999999999999999
 10
-349.6307052818945
 20
326.661688673087
 30
0.0
 10
-349.6375887848802
 20
326.6917678996388
 30
0.0
 10
-349.6510219901635
 20
326.7504677252761
 30
0.0
 10
-349.6650827925599
 20
326.8380352600049
 30
0.0
 10
-349.6736342521819
 20
326.9230224566963
 30
0.0
 10
-349.6764936195653
 20
327.0054678145372
 30
0.0
 10
-349.67384047694
 20
327.0853831810202
 30
0.0
 10
-349.6651836954155
 20
327.1624009037992
 30
0.0
 10
-349.6523990581184
 20
327.2371518228717
 30
0.0
 10
-349.6323601609312
 20
327.3087226967368
 30
0.0
 10
-349.6076900161481
 20
327.3774703431833
 30
0.0
 10
-349.5792561479951
 20
327.4436163455935
 30
0.0
 10
-349.545068950432
 20
327.5064649358629
 30
0.0
 10
-349.5067157207326
 20
327.5664897434325
 30
0.0
 10
-349.4639350052049
 20
327.6237702525856
 30
0.0
 10
-349.4155492596515
 20
327.6769333908805
 30
0.0
 10
-349.3640208815536
 20
327.7284975200506
 30
0.0
 10
-349.306230104827
 20
327.776674209792
 30
0.0
 10
-349.2418403354496
 20
327.8228422627183
 30
0.0
 10
-349.1682142462669
 20
327.8662543502863
 30
0.0
 10
-349.0855380961633
 20
327.9078267942201
 30
0.0
 10
-348.9940355746198
 20
327.9488421737081
 30
0.0
 10
-348.8928370325125
 20
327.9872182027427
 30
0.0
 10
-348.782179142234
 20
328.0231084805924
 30
0.0
 10
-348.6625645265526
 20
328.0585467672622
 30
0.0
 10
-348.5793361530042
 20
328.0796507251109
 30
0.0
 10
-348.5362541600996
 20
328.0905748910357
 30
0.0
  0
LINE
  5
E5
330
1F
100
AcDbEntity
  8
0
  6
Continuous
 62
     7
370
    25
100
AcDbLine
 10
-348.5362541601
 20
328.090574891
 30
0.0
 11
-347.3310257947
 21
328.3843449231
 31
0.0
  0
LINE
  5
E6
330
1F
100
AcDbEntity
  8
0
  6
Continuous
 62
     7
370
    25
100
AcDbLine
 10
-347.3310257947
 20
328.3843449231
 30
0.0
 11
-347.2517990319
 21
328.0604266539
 31
0.0
  0
LINE
  5
E7
330
1F
100
AcDbEntity
  8
0
  6
Continuous
 62
     7
370
    25
100
AcDbLine
 10
-347.2517990319
 20
328.0604266539
 30
0.0
 11
-348.4205690639
 21
327.7757712051
 31
0.0
  0
SPLINE
  5
E8
330
1F
100
AcDbEntity
  8
0
  6
Continuous
 62
     7
370
    25
100
AcDbSpline
210
0.0
220
0.0
230
1.0
 70
     8
 71
     3
 72
    14
 73
    10
 74
     0
 42
0.00000001
 43
0.00000001
 40
0.0
 40
0.0
 40
0.0
 40
0.0
 40
0.0001525617555373
 40
0.0001525617555373
 40
0.0001525617555373
 40
0.0003051412942262
 40
0.0003051412942262
 40
0.0003051412942262
 40
0.0006100369806689
 40
0.0006100369806689
 40
0.0006100369806689
 40
0.0006100369806689
 10
-348.4205690639458
 20
327.7757712051384
 30
0.0
 10
-348.46990157988
 20
327.7634251976996
 30
0.0
 10
-348.5192239010543
 20
327.7510198956144
 30
0.0
 10
-348.5683404084665
 20
327.737840755745
 30
0.0
 10
-348.6174607875731
 20
327.724660577007
 30
0.0
 10
-348.6664319470672
 20
327.7108937309618
 30
0.0
 10
-348.7151364477293
 20
327.6962513141395
 30
0.0
 10
-348.8121626438593
 20
327.6670815662292
 30
0.0
 10
-348.908820250298
 20
327.6333014843494
 30
0.0
 10
-348.9982934229201
 20
327.585767198728
 30
0.0
  0
SPLINE
  5
E9
330
1F
100
AcDbEntity
  8
0
  6
Continuous
 62
     7
370
    25
100
AcDbSpline
210
0.0
220
0.0
230
1.0
 70
     8
 71
     3
 72
    17
 73
    13
 74
     0
 42
0.00000001
 43
0.00000001
 40
0.0
 40
0.0
 40
0.0
 40
0.0
 40
0.0002573972063863
 40
0.0002573972063863
 40
0.0002573972063863
 40
0.0005168666732568
 40
0.0005168666732568
 40
0.0005168666732568
 40
0.0007537320321312
 40
0.0007537320321312
 40
0.0007537320321312
 40
0.0009681223084711
 40
0.0009681223084711
 40
0.0009681223084711
 40
0.0009681223084711
 10
-348.9982934229202
 20
327.585767198728
 30
0.0
 10
-349.0701624852886
 20
327.5389023069597
 30
0.0
 10
-349.1405446121399
 20
327.4855540765475
 30
0.0
 10
-349.1936389946671
 20
327.4181562520262
 30
0.0
 10
-349.2472239604149
 20
327.3501356828709
 30
0.0
 10
-349.287796135513
 20
327.2703423237321
 30
0.0
 10
-349.3133458761139
 20
327.1876056502577
 30
0.0
 10
-349.3367506823709
 20
327.111814829393
 30
0.0
 10
-349.3477876588121
 20
327.0312936986753
 30
0.0
 10
-349.3466426766849
 20
326.9519796236369
 30
0.0
 10
-349.3456011160719
 20
326.8798296619378
 30
0.0
 10
-349.3324479819589
 20
326.8081070756654
 30
0.0
 10
-349.3180049613817
 20
326.7374098269332
 30
0.0
  0
SPLINE
  5
EA
330
1F
100
AcDbEntity
  8
0
  6
Continuous
 62
     7
370
    25
100
AcDbSpline
210
0.0
220
0.0
230
1.0
 70
     8
 71
     3
 72
    17
 73
    13
 74
     0
 42
0.00000001
 43
0.00000001
 40
0.0
 40
0.0
 40
0.0
 40
0.0
 40
0.0003619260981684
 40
0.0003619260981684
 40
0.0003619260981684
 40
0.0005943098449159
 40
0.0005943098449159
 40
0.0005943098449159
 40
0.0008270255081576
 40
0.0008270255081576
 40
0.0008270255081576
 40
0.0009333503587768
 40
0.0009333503587768
 40
0.0009333503587768
 40
0.0009333503587768
 10
-349.3180049613817
 20
326.7374098269332
 30
0.0
 10
-349.2863188610375
 20
326.6210032502098
 30
0.0
 10
-349.2401474422533
 20
326.5043949792712
 30
0.0
 10
-349.1668926818435
 20
326.4085396709321
 30
0.0
 10
-349.1193788222778
 20
326.3463668423874
 30
0.0
 10
-349.0599635279743
 20
326.2921591215238
 30
0.0
 10
-348.9947026311459
 20
326.2489845595085
 30
0.0
 10
-348.9294394629647
 20
326.2058084948375
 30
0.0
 10
-348.855922486539
 20
326.1724636722279
 30
0.0
 10
-348.7797152661176
 20
326.1546897239557
 30
0.0
 10
-348.7443803606444
 20
326.1464484998485
 30
0.0
 10
-348.7082629910475
 20
326.1418437673755
 30
0.0
 10
-348.6722717883048
 20
326.1372495705229
 30
0.0
  0
SPLINE
  5
EB
330
1F
100
AcDbEntity
  8
0
  6
Continuous
 62
     7
370
    25
100
AcDbSpline
210
0.0
220
0.0
230
1.0
 70
     8
 71
     3
 72
    14
 73
    10
 74
     0
 42
0.00000001
 43
0.00000001
 40
0.0
 40
0.0
 40
0.0
 40
0.0
 40
0.0002119344546806
 40
0.0002119344546806
 40
0.0002119344546806
 40
0.0004230742575903
 40
0.0004230742575903
 40
0.0004230742575903
 40
0.0006346501330921
 40
0.0006346501330921
 40
0.0006346501330921
 40
0.0006346501330921
 10
-348.6722717883048
 20
326.1372495705229
 30
0.0
 10
-348.6017113878854
 20
326.1337970011959
 30
0.0
 10
-348.5307538520828
 20
326.1420677231786
 30
0.0
 10
-348.4608897162332
 20
326.1525411593047
 30
0.0
 10
-348.3911306769918
 20
326.1629988402426
 30
0.0
 10
-348.3219200425668
 20
326.176999306138
 30
0.0
 10
-348.2529163267765
 20
326.1916339859637
 30
0.0
 10
-348.1837601633722
 20
326.2063009977007
 30
0.0
 10
-348.1148731931557
 20
326.2222517709415
 30
0.0
 10
-348.0461700254843
 20
326.2389122307792
 30
0.0
  0
LINE
  5
EC
330
1F
100
AcDbEntity
  8
0
  6
Continuous
 62
     7
370
    25
100
AcDbLine
 10
-348.0461700255
 20
326.2389122308
 30
0.0
 11
-346.8773999934
 21
326.5235676795
 31
0.0
  0
LINE
  5
ED
330
1F
100
AcDbEntity
  8
0
  6
Continuous
 62
     7
370
    25
100
AcDbLine
 10
-346.8773999934
 20
326.5235676795
 30
0.0
 11
-346.796770987
 21
326.1940404359
 31
0.0
  0
LINE
  5
EE
330
1F
100
AcDbEntity
  8
0
  6
Continuous
 62
     7
370
    25
100
AcDbLine
 10
-346.796770987
 20
326.1940404359
 30
0.0
 11
-348.0251363716
 21
325.8946614295
 31
0.0
  0
SPLINE
  5
EF
330
1F
100
AcDbEntity
  8
0
  6
Continuous
 62
     7
370
    25
100
AcDbSpline
210
0.0
220
0.0
230
1.0
 70
     8
 71
     3
 72
    20
 73
    16
 74
     0
 42
0.00000001
 43
0.00000001
 40
0.0
 40
0.0
 40
0.0
 40
0.0
 40
0.0005652032806768
 40
0.0005652032806768
 40
0.0005652032806768
 40
0.0009161190399938
 40
0.0009161190399938
 40
0.0009161190399938
 40
0.0012706264895952
 40
0.0012706264895952
 40
0.0012706264895952
 40
0.0015861087474392
 40
0.0015861087474392
 40
0.0015861087474392
 40
0.0020427796141608
 40
0.0020427796141608
 40
0.0020427796141608
 40
0.0020427796141608
 10
-348.0251363716381
 20
325.8946614294973
 30
0.0
 10
-348.2085025482708
 20
325.8513969253243
 30
0.0
 10
-348.3954005326165
 20
325.8138789603185
 30
0.0
 10
-348.58372279587
 20
325.8084294449922
 30
0.0
 10
-348.7003098487016
 20
325.8050557443991
 30
0.0
 10
-348.8193935397729
 20
325.8160873672136
 30
0.0
 10
-348.9312579073276
 20
325.8491068465436
 30
0.0
 10
-349.0439179951608
 20
325.8823612019996
 30
0.0
 10
-349.1522359650082
 20
325.9377102248674
 30
0.0
 10
-349.2447009184513
 20
326.0101559282054
 30
0.0
 10
-349.3273717079237
 20
326.0749279663216
 30
0.0
 10
-349.3999701886796
 20
326.1545900007346
 30
0.0
 10
-349.4576880016957
 20
326.2423312704676
 30
0.0
 10
-349.540791889897
 20
326.3686638580958
 30
0.0
 10
-349.5935305336561
 20
326.5151137194816
 30
0.0
 10
-349.6307052818945
 20
326.661688673087
 30
0.0
  0
SPLINE
  5
F0
330
1F
100
AcDbEntity
  8
0
  6
Continuous
 62
     7
370
    25
100
AcDbSpline
210
0.0
220
0.0
230
1.0
 70
     8
 71
     3
 72
    14
 73
    10
 74
     0
 42
0.00000001
 43
0.00000001
 40
0.0
 40
0.0
 40
0.0
 40
0.0
 40
0.000288304219949
 40
0.000288304219949
 40
0.000288304219949
 40
0.0006939280941427
 40
0.0006939280941427
 40
0.0006939280941427
 40
0.0011854345481811
 40
0.0011854345481811
 40
0.0011854345481811
 40
0.0011854345481811
 10
-347.7467496326981
 20
330.3774255669294
 30
0.0
 10
-347.7265465068677
 20
330.283471780062
 30
0.0
 10
-347.7107514631962
 20
330.1876347902145
 30
0.0
 10
-347.7094685494242
 20
330.0915419471287
 30
0.0
 10
-347.7076769051147
 20
329.9573441551628
 30
0.0
 10
-347.7285108549622
 20
329.8208553960145
 30
0.0
 10
-347.7715160869918
 20
329.6937223657828
 30
0.0
 10
-347.8236348883259
 20
329.5396475978316
 30
0.0
 10
-347.9112278994888
 20
329.3983018488354
 30
0.0
 10
-348.004061331416
 20
329.2647452784679
 30
0.0
  0
LINE
  5
F1
330
1F
100
AcDbEntity
  8
0
  6
Continuous
 62
     7
370
    25
100
AcDbLine
 10
-348.0040613314
 20
329.2647452785
 30
0.0
 11
-347.5693658186
 21
329.3706146695
 31
0.0
  0
LINE
  5
F2
330
1F
100
AcDbEntity
  8
0
  6
Continuous
 62
     7
370
    25
100
AcDbLine
 10
-347.5693658186
 20
329.3706146695
 30
0.0
 11
-347.4901390558
 21
329.0459952785
 31
0.0
  0
LINE
  5
F3
330
1F
100
AcDbEntity
  8
0
  6
Continuous
 62
     7
370
    25
100
AcDbLine
 10
-347.4901390558
 20
329.0459952785
 30
0.0
 11
-349.4848305622
 21
328.5601178746
 31
0.0
  0
SPLINE
  5
F4
330
1F
100
AcDbEntity
  8
0
  6
Continuous
 62
     7
370
    25
100
AcDbSpline
210
0.0
220
0.0
230
1.0
 70
     8
 71
     3
 72
    14
 73
    10
 74
     0
 42
0.00000001
 43
0.00000001
 40
0.0
 40
0.0
 40
0.0
 40
0.0
 40
0.0002008947071446
 40
0.0002008947071446
 40
0.0002008947071446
 40
0.0004018630210389
 40
0.0004018630210389
 40
0.0004018630210389
 40
0.000803536312696
 40
0.000803536312696
 40
0.000803536312696
 40
0.000803536312696
 10
-349.4848305621853
 20
328.5601178746217
 30
0.0
 10
-349.550006884104
 20
328.5447443515344
 30
0.0
 10
-349.6152379206347
 20
328.5295189202346
 30
0.0
 10
-349.6808542150198
 20
328.5161473061906
 30
0.0
 10
-349.7464868716513
 20
328.5027723577669
 30
0.0
 10
-349.8124540174857
 20
328.4909031324783
 30
0.0
 10
-349.8786895824169
 20
328.4809339399276
 30
0.0
 10
-350.010361874651
 20
328.4611157888145
 30
0.0
 10
-350.145220997588
 20
328.4516810488056
 30
0.0
 10
-350.2777993121853
 20
328.4640641887243
 30
0.0
  0
SPLINE
  5
F5
330
1F
100
AcDbEntity
  8
0
  6
Continuous
 62
     7
370
    25
100
AcDbSpline
210
0.0
220
0.0
230
1.0
 70
     8
 71
     3
 72
    23
 73
    19
 74
     0
 42
0.00000001
 43
0.00000001
 40
0.0
 40
0.0
 40
0.0
 40
0.0
 40
0.0606582794916032
 40
0.1204975785606814
 40
0.1788315909537815
 40
0.2370721423352767
 40
0.2948286117643351
 40
0.3532272403140524
 40
0.4125637235386361
 40
0.4727973837877967
 40
0.5340400532627222
 40
0.5963073499098689
 40
0.6590222506386962
 40
0.7235776924818921
 40
0.7892911717974301
 40
0.857461633800897
 40
0.9273755336304255
 40
0.9999999999999999
 40
0.9999999999999999
 40
0.9999999999999999
 40
0.9999999999999999
 10
-350.2777993121852
 20
328.4640641887243
 30
0.0
 10
-350.3085211633435
 20
328.4681541292068
 30
0.0
 10
-350.3695500732383
 20
328.4762787896609
 30
0.0
 10
-350.4582577636463
 20
328.4986009613983
 30
0.0
 10
-350.5439280624663
 20
328.5266329224551
 30
0.0
 10
-350.6259055139183
 20
328.5616110502472
 30
0.0
 10
-350.7044696287845
 20
328.6038434365434
 30
0.0
 10
-350.7786382653675
 20
328.6542958090874
 30
0.0
 10
-350.8505192748992
 20
328.7100260938346
 30
0.0
 10
-350.9177563855087
 20
328.7734870442205
 30
0.0
 10
-350.9807930862105
 20
328.8430651628861
 30
0.0
 10
-351.0396564925578
 20
328.9178382072197
 30
0.0
 10
-351.0934661280814
 20
328.9984175639337
 30
0.0
 10
-351.141123494903
 20
329.0847328049792
 30
0.0
 10
-351.1860440614407
 20
329.1756103369349
 30
0.0
 10
-351.2249865535085
 20
329.2722057226255
 30
0.0
 10
-351.2587333278136
 20
329.3744378679944
 30
0.0
 10
-351.2772693299335
 20
329.4448269677724
 30
0.0
 10
-351.2867135750058
 20
329.4806907912884
 30
0.0
  0
SPLINE
  5
F6
330
1F
100
AcDbEntity
  8
0
  6
Continuous
 62
     7
370
    25
100
AcDbSpline
210
0.0
220
0.0
230
1.0
 70
     8
 71
     3
 72
    19
 73
    15
 74
     0
 42
0.00000001
 43
0.00000001
 40
0.0
 40
0.0
 40
0.0
 40
0.0
 40
0.0972710778329799
 40
0.1899162361986992
 40
0.2785661543563849
 40
0.3638869530519084
 40
0.4457205278375177
 40
0.5225425384755127
 40
0.5955110842481915
 40
0.6654894303425164
 40
0.737545434781961
 40
0.8168724418385995
 40
0.9042531822102975
 40
1.0
 40
1.0
 40
1.0
 40
1.0
 10
-351.2867135750058
 20
329.4806907912884
 30
0.0
 10
-351.298357969913
 20
329.533349496316
 30
0.0
 10
-351.3210929873802
 20
329.6361626169757
 30
0.0
 10
-351.3394464719578
 20
329.7896366969188
 30
0.0
 10
-351.3467956859345
 20
329.9373773366916
 30
0.0
 10
-351.3386600096713
 20
330.0791401368469
 30
0.0
 10
-351.3193831459779
 20
330.2131063456751
 30
0.0
 10
-351.2894192699245
 20
330.3381403236936
 30
0.0
 10
-351.2486772824625
 20
330.4531183602424
 30
0.0
 10
-351.1968446366122
 20
330.5607835290662
 30
0.0
 10
-351.1275633841252
 20
330.6624634969959
 30
0.0
 10
-351.0418433012268
 20
330.7634396365241
 30
0.0
 10
-350.9385066374665
 20
330.866106765842
 30
0.0
 10
-350.8600734954034
 20
330.9305637020566
 30
0.0
 10
-350.8190653378263
 20
330.9642645092371
 30
0.0
  0
LINE
  5
F7
330
1F
100
AcDbEntity
  8
0
  6
Continuous
 62
     7
370
    25
100
AcDbLine
 10
-350.8190653378
 20
330.9642645092
 30
0.0
 11
-350.7335284789
 21
330.6144047336
 31
0.0
  0
SPLINE
  5
F8
330
1F
100
AcDbEntity
  8
0
  6
Continuous
 62
     7
370
    25
100
AcDbSpline
210
0.0
220
0.0
230
1.0
 70
     8
 71
     3
 72
    19
 73
    15
 74
     0
 42
0.00000001
 43
0.00000001
 40
0.0
 40
0.0
 40
0.0
 40
0.0
 40
0.1260889727844617
 40
0.245527853418311
 40
0.3622041998050953
 40
0.4772672235178984
 40
0.5359328975785819
 40
0.595677807324233
 40
0.6568849190363978
 40
0.7204064556941042
 40
0.7864985129895475
 40
0.8548091529740821
 40
0.9260843183908134
 40
1.0
 40
1.0
 40
1.0
 40
1.0
 10
-350.7335284788519
 20
330.614404733596
 30
0.0
 10
-350.767334249968
 20
330.5805193174389
 30
0.0
 10
-350.8331628330072
 20
330.5145356448979
 30
0.0
 10
-350.9120365994443
 20
330.401472768404
 30
0.0
 10
-350.9744025086036
 20
330.2834230481743
 30
0.0
 10
-351.008770899439
 20
330.178343407822
 30
0.0
 10
-351.027607880085
 20
330.0918314134414
 30
0.0
 10
-351.0363931972132
 20
330.0242722469272
 30
0.0
 10
-351.0416047793656
 20
329.9545058662556
 30
0.0
 10
-351.0411535295105
 20
329.8821426313085
 30
0.0
 10
-351.0372536421938
 20
329.8071954173668
 30
0.0
 10
-351.0276049696877
 20
329.7298130621411
 30
0.0
 10
-351.0147438888836
 20
329.6498887015729
 30
0.0
 10
-351.0021562912478
 20
329.5963091341047
 30
0.0
 10
-350.9957480301339
 20
329.5690321374422
 30
0.0
  0
SPLINE
  5
F9
330
1F
100
AcDbEntity
  8
0
  6
Continuous
 62
     7
370
    25
100
AcDbSpline
210
0.0
220
0.0
230
1.0
 70
     8
 71
     3
 72
    27
 73
    23
 74
     0
 42
0.00000001
 43
0.00000001
 40
0.0
 40
0.0
 40
0.0
 40
0.0
 40
0.0490044162085435
 40
0.0964913646580444
 40
0.1417882535332318
 40
0.1859698526402854
 40
0.228645941596614
 40
0.2701964391700417
 40
0.3106048979907991
 40
0.3500654785208546
 40
0.4254508176771857
 40
0.4959668879553674
 40
0.5622129944199891
 40
0.6266193579544189
 40
0.6603816655191681
 40
0.6969994039991649
 40
0.737658308945776
 40
0.782111677921261
 40
0.830072723476618
 40
0.8825822617710918
 40
0.9391245945381521
 40
1.0
 40
1.0
 40
1.0
 40
1.0
 10
-350.995748030134
 20
329.5690321374423
 30
0.0
 10
-350.9887481404544
 20
329.5423199670463
 30
0.0
 10
-350.9749651192512
 20
329.4897227936911
 30
0.0
 10
-350.9505237806122
 20
329.4136229912757
 30
0.0
 10
-350.9231252065178
 20
329.3414327595111
 30
0.0
 10
-350.8922405965816
 20
329.2736375610238
 30
0.0
 10
-350.8587582988047
 20
329.2094412580643
 30
0.0
 10
-350.8214310054377
 20
329.1498871904735
 30
0.0
 10
-350.7814849612582
 20
329.0942894216687
 30
0.0
 10
-350.725323429589
 20
329.0271271271244
 30
0.0
 10
-350.6502922613168
 20
328.9540875953656
 30
0.0
 10
-350.554985907648
 20
328.8812745302811
 30
0.0
 10
-350.4544820660092
 20
328.8278594570738
 30
0.0
 10
-350.3665435064045
 20
328.7973156863027
 30
0.0
 10
-350.2917739240801
 20
328.783028240344
 30
0.0
 10
-350.2292595820842
 20
328.7791143603276
 30
0.0
 10
-350.1606598358143
 20
328.7770138609354
 30
0.0
 10
-350.0857853124664
 20
328.782167828
 30
0.0
 10
-350.004489506051
 20
328.7900953552995
 30
0.0
 10
-349.9172716001934
 20
328.8051334089834
 30
0.0
 10
-349.8229762946619
 20
328.8218264911876
 30
0.0
 10
-349.7586601441496
 20
328.8374002211062
 30
0.0
 10
-349.7253153378263
 20
328.8454744451345
 30
0.0
  0
LINE
  5
FA
330
1F
100
AcDbEntity
  8
0
  6
Continuous
 62
     7
370
    25
100
AcDbLine
 10
-349.7253153378
 20
328.8454744451
 30
0.0
 11
-349.5963089276
 21
328.8763238041
 31
0.0
  0
SPLINE
  5
FB
330
1F
100
AcDbEntity
  8
0
  6
Continuous
 62
     7
370
    25
100
AcDbSpline
210
0.0
220
0.0
230
1.0
 70
     8
 71
     3
 72
    14
 73
    10
 74
     0
 42
0.00000001
 43
0.00000001
 40
0.0
 40
0.0
 40
0.0
 40
0.0
 40
0.0002909151058697
 40
0.0002909151058697
 40
0.0002909151058697
 40
0.0007243774569445
 40
0.0007243774569445
 40
0.0007243774569445
 40
0.0011828180721498
 40
0.0011828180721498
 40
0.0011828180721498
 40
0.0011828180721498
 10
-349.5963089275699
 20
328.8763238041089
 30
0.0
 10
-349.6832650129021
 20
328.9192440814152
 30
0.0
 10
-349.7688609199034
 20
328.9670618701418
 30
0.0
 10
-349.845409494941
 20
329.0265919183532
 30
0.0
 10
-349.9586816542308
 20
329.1146810447702
 30
0.0
 10
-350.0582486356282
 20
329.2233833084621
 30
0.0
 10
-350.1367678836005
 20
329.3434874464464
 30
0.0
 10
-350.219691895341
 20
329.4703291725898
 30
0.0
 10
-350.2762625816142
 20
329.6149980326374
 30
0.0
 10
-350.3163610109032
 20
329.7611395092371
 30
0.0
  0
SPLINE
  5
FC
330
1F
100
AcDbEntity
  8
0
  6
Continuous
 62
     7
370
    25
100
AcDbSpline
210
0.0
220
0.0
230
1.0
 70
     8
 71
     3
 72
    31
 73
    27
 74
     0
 42
0.00000001
 43
0.00000001
 40
0.0
 40
0.0
 40
0.0
 40
0.0
 40
0.0425992733930929
 40
0.0847215022805515
 40
0.1265373239281679
 40
0.168217006755034
 40
0.2099448702238285
 40
0.2519319537964043
 40
0.2942716874095807
 40
0.3372533255411374
 40
0.3802282848383512
 40
0.4223886580547224
 40
0.4639234636180367
 40
0.5048666246323146
 40
0.5457494481761759
 40
0.5866827928723475
 40
0.6272951088581841
 40
0.6687469000702164
 40
0.710027989975541
 40
0.7510999474104118
 40
0.7920767465196675
 40
0.832931475761441
 40
0.873696173123555
 40
0.9151659648804539
 40
0.9571749195750023
 40
1.0
 40
1.0
 40
1.0
 40
1.0
 10
-350.3163610109032
 20
329.7611395092371
 30
0.0
 10
-350.3228280241067
 20
329.7898113843888
 30
0.0
 10
-350.3356896301911
 20
329.8468340550255
 30
0.0
 10
-350.347976407296
 20
329.9333148672926
 30
0.0
 10
-350.3554447171277
 20
330.01970912542
 30
0.0
 10
-350.3555274426899
 20
330.1061352946146
 30
0.0
 10
-350.3519696531731
 20
330.1926157917181
 30
0.0
 10
-350.3407506476559
 20
330.2788993730005
 30
0.0
 10
-350.3258705141175
 20
330.3654894785943
 30
0.0
 10
-350.3037240540486
 20
330.4512401581964
 30
0.0
 10
-350.2775359662002
 20
330.5356712032233
 30
0.0
 10
-350.2459656452381
 20
330.6172280451017
 30
0.0
 10
-350.2092492851512
 20
330.6950024731764
 30
0.0
 10
-350.1688589956924
 20
330.7699867222892
 30
0.0
 10
-350.1219780908855
 20
330.8405861515126
 30
0.0
 10
-350.0719380088597
 20
330.9086512020675
 30
0.0
 10
-350.0166465696896
 20
330.9731122023657
 30
0.0
 10
-349.9566386140318
 20
331.0334877560308
 30
0.0
 10
-349.8930022846102
 20
331.0905302933935
 30
0.0
 10
-349.825363822486
 20
331.1422204036783
 30
0.0
 10
-349.7553468593987
 20
331.1900735899687
 30
0.0
 10
-349.6824287411296
 20
331.2330481540686
 30
0.0
 10
-349.6060308762929
 20
331.2702566492053
 30
0.0
 10
-349.5268023516049
 20
331.3029505990939
 30
0.0
 10
-349.4447376316905
 20
331.3324866471106
 30
0.0
 10
-349.3879810555624
 20
331.3468416674703
 30
0.0
 10
-349.3593297609032
 20
331.3540882271858
 30
0.0
  0
SPLINE
  5
FD
330
1F
100
AcDbEntity
  8
0
  6
Continuous
 62
     7
370
    25
100
AcDbSpline
210
0.0
220
0.0
230
1.0
 70
     8
 71
     3
 72
    20
 73
    16
 74
     0
 42
0.00000001
 43
0.00000001
 40
0.0
 40
0.0
 40
0.0
 40
0.0
 40
0.000467911991187
 40
0.000467911991187
 40
0.000467911991187
 40
0.0009375628901319
 40
0.0009375628901319
 40
0.0009375628901319
 40
0.0013803902690606
 40
0.0013803902690606
 40
0.0013803902690606
 40
0.0018296993539223
 40
0.0018296993539223
 40
0.0018296993539223
 40
0.0020786838611943
 40
0.0020786838611943
 40
0.0020786838611943
 40
0.0020786838611943
 10
-349.3593297609032
 20
331.3540882271858
 30
0.0
 10
-349.2071233422279
 20
331.3881477935087
 30
0.0
 10
-349.0474175503094
 20
331.4027038525174
 30
0.0
 10
-348.8924454509142
 20
331.3850829458124
 30
0.0
 10
-348.7368502693818
 20
331.3673911923403
 30
0.0
 10
-348.581987987989
 20
331.3212720581544
 30
0.0
 10
-348.4424096169164
 20
331.2502739103916
 30
0.0
 10
-348.3105431519609
 20
331.1831985125924
 30
0.0
 10
-348.1889160838398
 20
331.0920141332829
 30
0.0
 10
-348.0860997389938
 20
330.9856342817963
 30
0.0
 10
-347.9817534503688
 20
330.8776714602845
 30
0.0
 10
-347.8928130158321
 20
330.7515827010922
 30
0.0
 10
-347.8294537360986
 20
330.6154587853014
 30
0.0
 10
-347.7940084520319
 20
330.5393065486634
 30
0.0
 10
-347.7681156480905
 20
330.4586599481592
 30
0.0
 10
-347.7467496326981
 20
330.3774255669294
 30
0.0
  0
LINE
  5
FE
330
1F
100
AcDbEntity
  8
0
  6
Continuous
 62
     7
370
    25
100
AcDbLine
 10
-351.2187633872
 20
333.4717484449
 30
0.0
 11
-351.2972890282
 21
333.7935633487
 31
0.0
  0
LINE
  5
FF
330
1F
100
AcDbEntity
  8
0
  6
Continuous
 62
     7
370
    25
100
AcDbLine
 10
-351.2972890282
 20
333.7935633487
 30
0.0
 11
-348.7942842205
 21
334.4035393103
 31
0.0
  0
LINE
  5
100
330
1F
100
AcDbEntity
  8
0
  6
Continuous
 62
     7
370
    25
100
AcDbLine
 10
-348.7942842205
 20
334.4035393103
 30
0.0
 11
-348.7157585795
 21
334.0817244064
 31
0.0
  0
LINE
  5
101
330
1F
100
AcDbEntity
  8
0
  6
Continuous
 62
     7
370
    25
100
AcDbLine
 10
-348.7157585795
 20
334.0817244064
 30
0.0
 11
-349.1644765282
 21
333.9723494064
 31
0.0
  0
SPLINE
  5
102
330
1F
100
AcDbEntity
  8
0
  6
Continuous
 62
     7
370
    25
100
AcDbSpline
210
0.0
220
0.0
230
1.0
 70
     8
 71
     3
 72
    14
 73
    10
 74
     0
 42
0.00000001
 43
0.00000001
 40
0.0
 40
0.0
 40
0.0
 40
0.0
 40
0.0002876944733326
 40
0.0002876944733326
 40
0.0002876944733326
 40
0.0007061771877717
 40
0.0007061771877717
 40
0.0007061771877717
 40
0.0011507347871125
 40
0.0011507347871125
 40
0.0011507347871125
 40
0.0011507347871125
 10
-349.1644765281908
 20
333.9723494064094
 30
0.0
 10
-349.0773238888266
 20
333.9323384814392
 30
0.0
 10
-348.9904658862301
 20
333.8902066504886
 30
0.0
 10
-348.9103124438
 20
333.837557981638
 30
0.0
 10
-348.7948415630954
 20
333.7617111062479
 30
0.0
 10
-348.68942973271
 20
333.6661075068274
 30
0.0
 10
-348.6065988575729
 20
333.5555393426881
 30
0.0
 10
-348.5191225504785
 20
333.4387701468406
 30
0.0
 10
-348.4610881349483
 20
333.2991046212956
 30
0.0
 10
-348.4226896692165
 20
333.1583470025632
 30
0.0
  0
SPLINE
  5
103
330
1F
100
AcDbEntity
  8
0
  6
Continuous
 62
     7
370
    25
100
AcDbSpline
210
0.0
220
0.0
230
1.0
 70
     8
 71
     3
 72
    23
 73
    19
 74
     0
 42
0.00000001
 43
0.00000001
 40
0.0
 40
0.0
 40
0.0
 40
0.0
 40
0.0758351973055325
 40
0.1490963393893784
 40
0.2205225167283283
 40
0.2924866007725938
 40
0.3636665637250822
 40
0.4332310991310855
 40
0.5031783050293575
 40
0.5749782335551864
 40
0.6134865835556087
 40
0.6556464817875002
 40
0.7019650546529302
 40
0.752622480475842
 40
0.8077211692610394
 40
0.8671036403268224
 40
0.9314555169844528
 40
1.0
 40
1.0
 40
1.0
 40
1.0
 10
-348.4226896692165
 20
333.1583470025633
 30
0.0
 10
-348.4134594464769
 20
333.1124871476555
 30
0.0
 10
-348.39531230015
 20
333.0223240474777
 30
0.0
 10
-348.3904969810711
 20
332.8858719404091
 30
0.0
 10
-348.4061303751637
 20
332.7528254179925
 30
0.0
 10
-348.441375258872
 20
332.6249406543692
 30
0.0
 10
-348.4934842315642
 20
332.5041689440598
 30
0.0
 10
-348.5634101883934
 20
332.3941980462085
 30
0.0
 10
-348.6483778889317
 20
332.2950508427011
 30
0.0
 10
-348.7324526393679
 20
332.2217053223961
 30
0.0
 10
-348.8105257389731
 20
332.1693635880882
 30
0.0
 10
-348.8779814370482
 20
332.1295714177896
 30
0.0
 10
-348.9556524379354
 20
332.0931068448677
 30
0.0
 10
-349.0419799067993
 20
332.0566970525591
 30
0.0
 10
-349.1372075388793
 20
332.0207428230519
 30
0.0
 10
-349.2423021501816
 20
331.9875674988201
 30
0.0
 10
-349.3560728142486
 20
331.9545053602646
 30
0.0
 10
-349.4355061038091
 20
331.9346259341274
 30
0.0
 10
-349.4764757269088
 20
331.9243726435889
 30
0.0
  0
LINE
  5
104
330
1F
100
AcDbEntity
  8
0
  6
Continuous
 62
     7
370
    25
100
AcDbLine
 10
-349.4764757269
 20
331.9243726436
 30
0.0
 11
-350.7651375859
 21
331.6102700795
 31
0.0
  0
LINE
  5
105
330
1F
100
AcDbEntity
  8
0
  6
Continuous
 62
     7
370
    25
100
AcDbLine
 10
-350.7651375859
 20
331.6102700795
 30
0.0
 11
-350.8436632269
 21
331.9299816179
 31
0.0
  0
LINE
  5
106
330
1F
100
AcDbEntity
  8
0
  6
Continuous
 62
     7
370
    25
100
AcDbLine
 10
-350.8436632269
 20
331.9299816179
 30
0.0
 11
-349.6496528102
 21
332.2209471628
 31
0.0
  0
SPLINE
  5
107
330
1F
100
AcDbEntity
  8
0
  6
Continuous
 62
     7
370
    25
100
AcDbSpline
210
0.0
220
0.0
230
1.0
 70
     8
 71
     3
 72
    14
 73
    10
 74
     0
 42
0.00000001
 43
0.00000001
 40
0.0
 40
0.0
 40
0.0
 40
0.0
 40
0.0001495852736343
 40
0.0001495852736343
 40
0.0001495852736343
 40
0.0002991986518807
 40
0.0002991986518807
 40
0.0002991986518807
 40
0.0005977567323942
 40
0.0005977567323942
 40
0.0005977567323942
 40
0.0005977567323942
 10
-349.6496528102421
 20
332.2209471628196
 30
0.0
 10
-349.6012579885315
 20
332.2329528335753
 30
0.0
 10
-349.5528589140931
 20
332.244949691071
 30
0.0
 10
-349.5045977020292
 20
332.2574816625367
 30
0.0
 10
-349.456331462581
 20
332.2700149394616
 30
0.0
 10
-349.4082317239916
 20
332.2832175791199
 30
0.0
 10
-349.3603739748051
 20
332.2972300287184
 30
0.0
 10
-349.2650549223022
 20
332.3251388510448
 30
0.0
 10
-349.1688477727984
 20
332.3539617439287
 30
0.0
 10
-349.0803419128063
 20
332.3990320987171
 30
0.0
  0
SPLINE
  5
108
330
1F
100
AcDbEntity
  8
0
  6
Continuous
 62
     7
370
    25
100
AcDbSpline
210
0.0
220
0.0
230
1.0
 70
     8
 71
     3
 72
    17
 73
    13
 74
     0
 42
0.00000001
 43
0.00000001
 40
0.0
 40
0.0
 40
0.0
 40
0.0
 40
0.0002788372940484
 40
0.0002788372940484
 40
0.0002788372940484
 40
0.0004581261926415
 40
0.0004581261926415
 40
0.0004581261926415
 40
0.0006374890542337
 40
0.0006374890542337
 40
0.0006374890542337
 40
0.0009013026304038
 40
0.0009013026304038
 40
0.0009013026304038
 40
0.0009013026304038
 10
-349.0803419128063
 20
332.3990320987171
 30
0.0
 10
-348.9984644191123
 20
332.443020633574
 30
0.0
 10
-348.9185156030902
 20
332.4954970924333
 30
0.0
 10
-348.8552139228997
 20
332.5635545127307
 30
0.0
 10
-348.8143453533901
 20
332.6074934635406
 30
0.0
 10
-348.780651036869
 20
332.6591379388593
 30
0.0
 10
-348.7563718309523
 20
332.7140140860646
 30
0.0
 10
-348.7320943165078
 20
332.7688864101847
 30
0.0
 10
-348.7178475292453
 20
332.8287536315415
 30
0.0
 10
-348.7120143246209
 20
332.8884725011368
 30
0.0
 10
-348.7034852483911
 20
332.9757910205328
 30
0.0
 10
-348.7159498804572
 20
333.0650814564372
 30
0.0
 10
-348.7353899897293
 20
333.1506346628196
 30
0.0
  0
SPLINE
  5
109
330
1F
100
AcDbEntity
  8
0
  6
Continuous
 62
     7
370
    25
100
AcDbSpline
210
0.0
220
0.0
230
1.0
 70
     8
 71
     3
 72
    23
 73
    19
 74
     0
 42
0.00000001
 43
0.00000001
 40
0.0
 40
0.0
 40
0.0
 40
0.0
 40
0.0630014102716523
 40
0.1246807379139954
 40
0.1857908914841593
 40
0.2463148568997354
 40
0.3075115892432156
 40
0.3689386017318694
 40
0.4324088869455657
 40
0.4970801571517697
 40
0.5620101624953541
 40
0.6256054522214675
 40
0.6883148497495478
 40
0.7502084068359661
 40
0.8120677370679067
 40
0.8740610145448348
 40
0.9363298253694072
 40
1.0
 40
1.0
 40
1.0
 40
1.0
 10
-348.7353899897293
 20
333.1506346628196
 30
0.0
 10
-348.7417469534432
 20
333.1746005683311
 30
0.0
 10
-348.7543274801858
 20
333.2220294555746
 30
0.0
 10
-348.7804372104483
 20
333.2904678676024
 30
0.0
 10
-348.8129841757641
 20
333.354919210167
 30
0.0
 10
-348.8503724542422
 20
333.4164365679925
 30
0.0
 10
-348.8929388037438
 20
333.4747042721515
 30
0.0
 10
-348.9420286930709
 20
333.5291614635665
 30
0.0
 10
-348.9966234166932
 20
333.5800840050504
 30
0.0
 10
-349.0561014681398
 20
333.627394832566
 30
0.0
 10
-349.1185036683338
 20
333.6709343331787
 30
0.0
 10
-349.1841779802937
 20
333.7077982239406
 30
0.0
 10
-349.2507305030792
 20
333.7402939300831
 30
0.0
 10
-349.3190124555572
 20
333.7674216822765
 30
0.0
 10
-349.3894290825341
 20
333.7872023186736
 30
0.0
 10
-349.4609417102457
 20
333.8031920598736
 30
0.0
 10
-349.5344577908156
 20
333.8120967897182
 30
0.0
 10
-349.5839608156446
 20
333.8142231260011
 30
0.0
 10
-349.6089877461396
 20
333.8152981243581
 30
0.0
  0
SPLINE
  5
10A
330
1F
100
AcDbEntity
  8
0
  6
Continuous
 62
     7
370
    25
100
AcDbSpline
210
0.0
220
0.0
230
1.0
 70
     8
 71
     3
 72
    14
 73
    10
 74
     0
 42
0.00000001
 43
0.00000001
 40
0.0
 40
0.0
 40
0.0
 40
0.0
 40
0.0001765210132749
 40
0.0001765210132749
 40
0.0001765210132749
 40
0.0003523939109405
 40
0.0003523939109405
 40
0.0003523939109405
 40
0.0007026257362486
 40
0.0007026257362486
 40
0.0007026257362486
 40
0.0007026257362486
 10
-349.6089877461396
 20
333.8152981243581
 30
0.0
 10
-349.6678230670815
 20
333.8145297773231
 30
0.0
 10
-349.7266413936753
 20
333.8088461499084
 30
0.0
 10
-349.7848882249349
 20
333.8005099639864
 30
0.0
 10
-349.8430044768464
 20
333.7921924663551
 30
0.0
 10
-349.9009920616103
 20
333.7827806675288
 30
0.0
 10
-349.9586162034386
 20
333.7715495597636
 30
0.0
 10
-350.0733714116757
 20
333.7491834460231
 30
0.0
 10
-350.1872436453169
 20
333.7224181429388
 30
0.0
 10
-350.300994957678
 20
333.6954062974351
 30
0.0
  0
LINE
  5
10B
330
1F
100
AcDbEntity
  8
0
  6
Continuous
 62
     7
370
    25
100
AcDbLine
 10
-350.3009949577
 20
333.6954062974
 30
0.0
 11
-351.2187633872
 21
333.4717484449
 31
0.0
  0
LINE
  5
10C
330
1F
100
AcDbEntity
  8
0
  6
Continuous
 62
     7
370
    25
100
AcDbLine
 10
-349.5087718158
 20
335.3415632567
 30
0.0
 11
-349.0488359184
 21
335.4537427439
 31
0.0
  0
LINE
  5
10D
330
1F
100
AcDbEntity
  8
0
  6
Continuous
 62
     7
370
    25
100
AcDbLine
 10
-349.0488359184
 20
335.4537427439
 30
0.0
 11
-348.971712521
 21
335.1361345708
 31
0.0
  0
LINE
  5
10E
330
1F
100
AcDbEntity
  8
0
  6
Continuous
 62
     7
370
    25
100
AcDbLine
 10
-348.971712521
 20
335.1361345708
 30
0.0
 11
-351.4747173287
 21
334.5261586093
 31
0.0
  0
LINE
  5
10F
330
1F
100
AcDbEntity
  8
0
  6
Continuous
 62
     7
370
    25
100
AcDbLine
 10
-351.4747173287
 20
334.5261586093
 30
0.0
 11
-351.5518407261
 21
334.8437667824
 31
0.0
  0
LINE
  5
110
330
1F
100
AcDbEntity
  8
0
  6
Continuous
 62
     7
370
    25
100
AcDbLine
 10
-351.5518407261
 20
334.8437667824
 30
0.0
 11
-351.121351944
 21
334.9489350516
 31
0.0
  0
SPLINE
  5
111
330
1F
100
AcDbEntity
  8
0
  6
Continuous
 62
     7
370
    25
100
AcDbSpline
210
0.0
220
0.0
230
1.0
 70
     8
 71
     3
 72
    14
 73
    10
 74
     0
 42
0.00000001
 43
0.00000001
 40
0.0
 40
0.0
 40
0.0
 40
0.0
 40
0.0003000847166528
 40
0.0003000847166528
 40
0.0003000847166528
 40
0.0007407583242131
 40
0.0007407583242131
 40
0.0007407583242131
 40
0.0011980890411425
 40
0.0011980890411425
 40
0.0011980890411425
 40
0.0011980890411425
 10
-351.1213519440387
 20
334.9489350516076
 30
0.0
 10
-351.2102205862334
 20
334.9948481544078
 30
0.0
 10
-351.2984957027665
 20
335.0434747198499
 30
0.0
 10
-351.3788012409974
 20
335.1031125359043
 30
0.0
 10
-351.4956548425375
 20
335.1898922742319
 30
0.0
 10
-351.6002397712571
 20
335.2971902321331
 30
0.0
 10
-351.6810726563707
 20
335.4182337443975
 30
0.0
 10
-351.7648965717866
 20
335.5437561864015
 30
0.0
 10
-351.8211705258938
 20
335.6881721832619
 30
0.0
 10
-351.8610354376285
 20
335.8337507567358
 30
0.0
  0
SPLINE
  5
112
330
1F
100
AcDbEntity
  8
0
  6
Continuous
 62
     7
370
    25
100
AcDbSpline
210
0.0
220
0.0
230
1.0
 70
     8
 71
     3
 72
    23
 73
    19
 74
     0
 42
0.00000001
 43
0.00000001
 40
0.0
 40
0.0
 40
0.0
 40
0.0
 40
0.0636382247850001
 40
0.1257030071278478
 40
0.1861515814704509
 40
0.2463028846840885
 40
0.3065000174687605
 40
0.3676281827250165
 40
0.4299147365968323
 40
0.4943051441430634
 40
0.5589818675384178
 40
0.6219194090961672
 40
0.6836893409679803
 40
0.7453627628473823
 40
0.8071862462827217
 40
0.8697193685393502
 40
0.9339854527837611
 40
1.0
 40
1.0
 40
1.0
 40
1.0
 10
-351.8610354376285
 20
335.8337507567358
 30
0.0
 10
-351.8705953997818
 20
335.8775332287273
 30
0.0
 10
-351.889478955927
 20
335.964015659804
 30
0.0
 10
-351.9016209992199
 20
336.0947641029363
 30
0.0
 10
-351.9011652854567
 20
336.223476008622
 30
0.0
 10
-351.8871776068906
 20
336.3502095416027
 30
0.0
 10
-351.8592081360214
 20
336.4749987786039
 30
0.0
 10
-351.8197100139636
 20
336.5982832483738
 30
0.0
 10
-351.7644644433192
 20
336.7185886104043
 30
0.0
 10
-351.69877907947
 20
336.8363072910169
 30
0.0
 10
-351.621487459074
 20
336.9473826898849
 30
0.0
 10
-351.5357816324831
 20
337.0496817456711
 30
0.0
 10
-351.4418019732852
 20
337.1414534329513
 30
0.0
 10
-351.3400468198716
 20
337.2233242972512
 30
0.0
 10
-351.2292379608659
 20
337.2935295945423
 30
0.0
 10
-351.1105202325771
 20
337.3531830306803
 30
0.0
 10
-350.9843140257208
 20
337.4038042028398
 30
0.0
 10
-350.8956472872448
 20
337.4273757298002
 30
0.0
 10
-350.8507189312182
 20
337.4393196669922
 30
0.0
  0
SPLINE
  5
113
330
1F
100
AcDbEntity
  8
0
  6
Continuous
 62
     7
370
    25
100
AcDbSpline
210
0.0
220
0.0
230
1.0
 70
     8
 71
     3
 72
    20
 73
    16
 74
     0
 42
0.00000001
 43
0.00000001
 40
0.0
 40
0.0
 40
0.0
 40
0.0
 40
0.0004704384708707
 40
0.0004704384708707
 40
0.0004704384708707
 40
0.0009452612032299
 40
0.0009452612032299
 40
0.0009452612032299
 40
0.0013776540644427
 40
0.0013776540644427
 40
0.0013776540644427
 40
0.0018661901961642
 40
0.0018661901961642
 40
0.0018661901961642
 40
0.0020940734635063
 40
0.0020940734635063
 40
0.0020940734635063
 40
0.0020940734635063
 10
-350.8507189312182
 20
337.4393196669922
 30
0.0
 10
-350.6975701515805
 20
337.4730200074694
 30
0.0
 10
-350.5374989641606
 20
337.4900839810692
 30
0.0
 10
-350.3815408812673
 20
337.4737335060601
 30
0.0
 10
-350.2244220613683
 20
337.4572613406516
 30
0.0
 10
-350.06842667989
 20
337.4089793107753
 30
0.0
 10
-349.92769108686
 20
337.3372078076965
 30
0.0
 10
-349.7988234295394
 20
337.2714886440862
 30
0.0
 10
-349.6772859887763
 20
337.1870860524448
 30
0.0
 10
-349.5738346829938
 20
337.0859736946401
 30
0.0
 10
-349.4578051430253
 20
336.9725674860622
 30
0.0
 10
-349.3639003788393
 20
336.8328798638272
 30
0.0
 10
-349.2992915932164
 20
336.6840526918806
 30
0.0
 10
-349.2687273098153
 20
336.6136474704032
 30
0.0
 10
-349.2468168845533
 20
336.5395912356595
 30
0.0
 10
-349.2269208542952
 20
336.4654614939153
 30
0.0
  0
SPLINE
  5
114
330
1F
100
AcDbEntity
  8
0
  6
Continuous
 62
     7
370
    25
100
AcDbSpline
210
0.0
220
0.0
230
1.0
 70
     8
 71
     3
 72
    15
 73
    11
 74
     0
 42
0.00000001
 43
0.00000001
 40
0.0
 40
0.0
 40
0.0
 40
0.0
 40
0.1288683407664739
 40
0.2522988145818678
 40
0.3738862194780967
 40
0.4937627727762491
 40
0.6144740187520474
 40
0.7379455016412442
 40
0.8657883485955736
 40
1.0
 40
1.0
 40
1.0
 40
1.0
 10
-349.2269208542952
 20
336.4654614939153
 30
0.0
 10
-349.2160026770018
 20
336.4147145008883
 30
0.0
 10
-349.1946270375535
 20
336.3153618894697
 30
0.0
 10
-349.185719311288
 20
336.1647010412504
 30
0.0
 10
-349.1927751771447
 20
336.0177853566903
 30
0.0
 10
-349.2190822402948
 20
335.874023948396
 30
0.0
 10
-349.2637588275218
 20
335.734157106389
 30
0.0
 10
-349.3266421758111
 20
335.597945836371
 30
0.0
 10
-349.4088412105892
 20
335.465892293378
 30
0.0
 10
-349.4749262512713
 20
335.3836723425996
 30
0.0
 10
-349.5087718158336
 20
335.3415632567358
 30
0.0
  0
LINE
  5
115
330
1F
100
AcDbEntity
  8
0
  6
Continuous
 62
     7
370
    25
100
AcDbLine
 10
-352.2478405032
 20
337.7030322609
 30
0.0
 11
-352.327067266
 21
338.0276516519
 31
0.0
  0
LINE
  5
116
330
1F
100
AcDbEntity
  8
0
  6
Continuous
 62
     7
370
    25
100
AcDbLine
 10
-352.327067266
 20
338.0276516519
 30
0.0
 11
-349.8240624583
 21
338.6376276135
 31
0.0
  0
LINE
  5
117
330
1F
100
AcDbEntity
  8
0
  6
Continuous
 62
     7
370
    25
100
AcDbLine
 10
-349.8240624583
 20
338.6376276135
 30
0.0
 11
-349.7448356955
 21
338.3130082225
 31
0.0
  0
LINE
  5
118
330
1F
100
AcDbEntity
  8
0
  6
Continuous
 62
     7
370
    25
100
AcDbLine
 10
-349.7448356955
 20
338.3130082225
 30
0.0
 11
-352.2478405032
 21
337.7030322609
 31
0.0
  0
SPLINE
  5
119
330
1F
100
AcDbEntity
  8
0
  6
Continuous
 62
     7
370
    25
100
AcDbSpline
210
0.0
220
0.0
230
1.0
 70
     8
 71
     3
 72
    20
 73
    16
 74
     0
 42
0.00000001
 43
0.00000001
 40
0.0
 40
0.0
 40
0.0
 40
0.0
 40
0.0001196117886759
 40
0.0001196117886759
 40
0.0001196117886759
 40
0.0002229517532499
 40
0.0002229517532499
 40
0.0002229517532499
 40
0.0003143392402332
 40
0.0003143392402332
 40
0.0003143392402332
 40
0.0004102751086471
 40
0.0004102751086471
 40
0.0004102751086471
 40
0.0004227329594358
 40
0.0004227329594358
 40
0.0004227329594358
 40
0.0004227329594358
 10
-349.2856009198867
 20
338.5976636711778
 30
0.0
 10
-349.2928901062411
 20
338.6368622962257
 30
0.0
 10
-349.2962185300386
 20
338.6782427612801
 30
0.0
 10
-349.2879752221563
 20
338.7172518924999
 30
0.0
 10
-349.2807985732777
 20
338.7512133606171
 30
0.0
 10
-349.2666053226749
 20
338.7842467741608
 30
0.0
 10
-349.2473791902924
 20
338.8131473180902
 30
0.0
 10
-349.2302824213407
 20
338.8388470226541
 30
0.0
 10
-349.2092717825333
 20
338.8625747454109
 30
0.0
 10
-349.1848410947525
 20
338.8814404767197
 30
0.0
 10
-349.1593645847701
 20
338.9011138070952
 30
0.0
 10
-349.1287130807067
 20
338.9141173317403
 30
0.0
 10
-349.0979322727994
 20
338.9235319137023
 30
0.0
 10
-349.0938872416606
 20
338.9247691222027
 30
0.0
 10
-349.0898341952159
 20
338.9259800228489
 30
0.0
 10
-349.0857812083483
 20
338.9271909147676
 30
0.0
  0
SPLINE
  5
11A
330
1F
100
AcDbEntity
  8
0
  6
Continuous
 62
     7
370
    25
100
AcDbSpline
210
0.0
220
0.0
230
1.0
 70
     8
 71
     3
 72
    20
 73
    16
 74
     0
 42
0.00000001
 43
0.00000001
 40
0.0
 40
0.0
 40
0.0
 40
0.0
 40
0.0001149166634536
 40
0.0001149166634536
 40
0.0001149166634536
 40
0.0002176868953814
 40
0.0002176868953814
 40
0.0002176868953814
 40
0.0003096275632352
 40
0.0003096275632352
 40
0.0003096275632352
 40
0.0004034437864738
 40
0.0004034437864738
 40
0.0004034437864738
 40
0.0004257083271443
 40
0.0004257083271443
 40
0.0004257083271443
 40
0.0004257083271443
 10
-349.0857812083483
 20
338.9271909147676
 30
0.0
 10
-349.0482202406185
 20
338.9347068450206
 30
0.0
 10
-349.0086135563788
 20
338.9384676368922
 30
0.0
 10
-348.9709456439091
 20
338.9315074734929
 30
0.0
 10
-348.9371078882239
 20
338.9252550349266
 30
0.0
 10
-348.9043528554063
 20
338.9112351975587
 30
0.0
 10
-348.8751533096262
 20
338.8930287914315
 30
0.0
 10
-348.8489510687673
 20
338.8766912551524
 30
0.0
 10
-348.8246245057615
 20
338.8563033831983
 30
0.0
 10
-348.8052046999525
 20
338.8322962246817
 30
0.0
 10
-348.7854373257954
 20
338.8078593951113
 30
0.0
 10
-348.7702852734726
 20
338.779094285436
 30
0.0
 10
-348.7607291443539
 20
338.7491512041517
 30
0.0
 10
-348.7584233590458
 20
338.7419262790751
 30
0.0
 10
-348.7562869068258
 20
338.7346480417405
 30
0.0
 10
-348.7541505993739
 20
338.7273712032291
 30
0.0
  0
SPLINE
  5
11B
330
1F
100
AcDbEntity
  8
0
  6
Continuous
 62
     7
370
    25
100
AcDbSpline
210
0.0
220
0.0
230
1.0
 70
     8
 71
     3
 72
    15
 73
    11
 74
     0
 42
0.00000001
 43
0.00000001
 40
0.0
 40
0.0
 40
0.0
 40
0.0
 40
0.126520481992216
 40
0.2486137087597746
 40
0.3717319949664585
 40
0.499780318977859
 40
0.6276321942355929
 40
0.7485385946216292
 40
0.8724174395318538
 40
0.9999999999999999
 40
0.9999999999999999
 40
0.9999999999999999
 40
0.9999999999999999
 10
-348.7541505993739
 20
338.7273712032291
 30
0.0
 10
-348.750932301014
 20
338.7094526169118
 30
0.0
 10
-348.7446083202755
 20
338.6742424586044
 30
0.0
 10
-348.7463677754025
 20
338.6202640908849
 30
0.0
 10
-348.7615117069078
 20
338.5684446750594
 30
0.0
 10
-348.7847545171728
 20
338.5189011699846
 30
0.0
 10
-348.8174806541718
 20
338.4753139528673
 30
0.0
 10
-348.8570526145428
 20
338.4387755985146
 30
0.0
 10
-348.9039515789548
 20
338.4118992927683
 30
0.0
 10
-348.9385298786506
 20
338.4011794570673
 30
0.0
 10
-348.956073676297
 20
338.3957405942547
 30
0.0
  0
SPLINE
  5
11C
330
1F
100
AcDbEntity
  8
0
  6
Continuous
 62
     7
370
    25
100
AcDbSpline
210
0.0
220
0.0
230
1.0
 70
     8
 71
     3
 72
    20
 73
    16
 74
     0
 42
0.00000001
 43
0.00000001
 40
0.0
 40
0.0
 40
0.0
 40
0.0
 40
0.000099127264581
 40
0.000099127264581
 40
0.000099127264581
 40
0.0001990177965414
 40
0.0001990177965414
 40
0.0001990177965414
 40
0.0002922473748975
 40
0.0002922473748975
 40
0.0002922473748975
 40
0.0003723900701739
 40
0.0003723900701739
 40
0.0003723900701739
 40
0.0004258421773367
 40
0.0004258421773367
 40
0.0004258421773367
 40
0.0004258421773367
 10
-348.956073676297
 20
338.3957405942547
 30
0.0
 10
-348.9885527902877
 20
338.3896653350218
 30
0.0
 10
-349.022303556444
 20
338.3853041001833
 30
0.0
 10
-349.0550275597558
 20
338.3898802587922
 30
0.0
 10
-349.0880720478643
 20
338.394501234328
 30
0.0
 10
-349.1205423199467
 20
338.4060098449942
 30
0.0
 10
-349.1498406955203
 20
338.4219753327098
 30
0.0
 10
-349.1772403846147
 20
338.4369061741331
 30
0.0
 10
-349.2024592059354
 20
338.456588717971
 30
0.0
 10
-349.2238199442388
 20
338.479334967051
 30
0.0
 10
-349.2421512338674
 20
338.4988552698576
 30
0.0
 10
-349.2576485009924
 20
338.5216689970498
 30
0.0
 10
-349.2682757075309
 20
338.5462482745473
 30
0.0
 10
-349.2754530184764
 20
338.5628484146477
 30
0.0
 10
-349.2805395884261
 20
338.5803010283027
 30
0.0
 10
-349.2856009198867
 20
338.5976636711778
 30
0.0
  0
LINE
  5
11D
330
1F
100
AcDbEntity
  8
0
  6
Continuous
 62
     7
370
    25
100
AcDbLine
 10
-352.6145565151
 20
339.2112814403
 30
0.0
 11
-352.6951855215
 21
339.5401075621
 31
0.0
  0
LINE
  5
11E
330
1F
100
AcDbEntity
  8
0
  6
Continuous
 62
     7
370
    25
100
AcDbLine
 10
-352.6951855215
 20
339.5401075621
 30
0.0
 11
-350.1921807138
 21
340.1500835236
 31
0.0
  0
LINE
  5
11F
330
1F
100
AcDbEntity
  8
0
  6
Continuous
 62
     7
370
    25
100
AcDbLine
 10
-350.1921807138
 20
340.1500835236
 30
0.0
 11
-350.1115517074
 21
339.8212574018
 31
0.0
  0
LINE
  5
120
330
1F
100
AcDbEntity
  8
0
  6
Continuous
 62
     7
370
    25
100
AcDbLine
 10
-350.1115517074
 20
339.8212574018
 30
0.0
 11
-350.4775372843
 21
339.7322149339
 31
0.0
  0
SPLINE
  5
121
330
1F
100
AcDbEntity
  8
0
  6
Continuous
 62
     7
370
    25
100
AcDbSpline
210
0.0
220
0.0
230
1.0
 70
     8
 71
     3
 72
    14
 73
    10
 74
     0
 42
0.00000001
 43
0.00000001
 40
0.0
 40
0.0
 40
0.0
 40
0.0
 40
0.0002108052779009
 40
0.0002108052779009
 40
0.0002108052779009
 40
0.0005716419682176
 40
0.0005716419682176
 40
0.0005716419682176
 40
0.0008400508609478
 40
0.0008400508609478
 40
0.0008400508609478
 40
0.0008400508609478
 10
-350.4775372842997
 20
339.7322149338665
 30
0.0
 10
-350.4121428118748
 20
339.7065008392071
 30
0.0
 10
-350.3468414016378
 20
339.6796722686901
 30
0.0
 10
-350.2851775414056
 20
339.645979242273
 30
0.0
 10
-350.1809449876799
 20
339.5890267554684
 30
0.0
 10
-350.0815252247853
 20
339.5156296394524
 30
0.0
 10
-350.0073392251974
 20
339.4228694730308
 30
0.0
 10
-349.9520519191958
 20
339.3537397216734
 30
0.0
 10
-349.9131792745067
 20
339.2703765202541
 30
0.0
 10
-349.8885949766075
 20
339.1853399338665
 30
0.0
  0
SPLINE
  5
122
330
1F
100
AcDbEntity
  8
0
  6
Continuous
 62
     7
370
    25
100
AcDbSpline
210
0.0
220
0.0
230
1.0
 70
     8
 71
     3
 72
    11
 73
     7
 74
     0
 42
0.00000001
 43
0.00000001
 40
0.0
 40
0.0
 40
0.0
 40
0.0
 40
0.225136808626765
 40
0.4654807830268605
 40
0.7211227035702412
 40
1.0
 40
1.0
 40
1.0
 40
1.0
 10
-349.8885949766074
 20
339.1853399338665
 30
0.0
 10
-349.8840984697266
 20
339.1625186313683
 30
0.0
 10
-349.874801733415
 20
339.1153345310811
 30
0.0
 10
-349.8754425767115
 20
339.0406076277451
 30
0.0
 10
-349.8844271628438
 20
338.9610982167735
 30
0.0
 10
-349.8977630046442
 20
338.9075754981619
 30
0.0
 10
-349.9047207778895
 20
338.8796508313024
 30
0.0
  0
LINE
  5
123
330
1F
100
AcDbEntity
  8
0
  6
Continuous
 62
     7
370
    25
100
AcDbLine
 10
-349.9047207779
 20
338.8796508313
 30
0.0
 11
-350.2167199766
 21
338.9813134916
 31
0.0
  0
SPLINE
  5
124
330
1F
100
AcDbEntity
  8
0
  6
Continuous
 62
     7
370
    25
100
AcDbSpline
210
0.0
220
0.0
230
1.0
 70
     8
 71
     3
 72
    14
 73
    10
 74
     0
 42
0.00000001
 43
0.00000001
 40
0.0
 40
0.0
 40
0.0
 40
0.0
 40
0.0000458673604012
 40
0.0000458673604012
 40
0.0000458673604012
 40
0.0000918102132196
 40
0.0000918102132196
 40
0.0000918102132196
 40
0.0001832605329871
 40
0.0001832605329871
 40
0.0001832605329871
 40
0.0001832605329871
 10
-350.2167199766074
 20
338.9813134915588
 30
0.0
 10
-350.2142555544561
 20
338.9964026869623
 30
0.0
 10
-350.2117895585714
 20
339.0114997026946
 30
0.0
 10
-350.2099235266114
 20
339.0266745212829
 30
0.0
 10
-350.2080557159372
 20
339.0418638046098
 30
0.0
 10
-350.2068587565256
 20
339.0571534964951
 30
0.0
 10
-350.2064025359107
 20
339.0724503885797
 30
0.0
 10
-350.205499995177
 20
339.1027122131277
 30
0.0
 10
-350.2088221833789
 20
339.1331884309225
 30
0.0
 10
-350.2146166112228
 20
339.1629040364306
 30
0.0
  0
SPLINE
  5
125
330
1F
100
AcDbEntity
  8
0
  6
Continuous
 62
     7
370
    25
100
AcDbSpline
210
0.0
220
0.0
230
1.0
 70
     8
 71
     3
 72
    19
 73
    15
 74
     0
 42
0.00000001
 43
0.00000001
 40
0.0
 40
0.0
 40
0.0
 40
0.0
 40
0.0976964118889986
 40
0.1975257501925255
 40
0.3039349045196503
 40
0.4197430198658497
 40
0.4817110655915819
 40
0.5455859277293243
 40
0.611892006518815
 40
0.6825332731058859
 40
0.7558520322642293
 40
0.8324367084375046
 40
0.9143254121152725
 40
1.0
 40
1.0
 40
1.0
 40
1.0
 10
-350.2146166112228
 20
339.1629040364306
 30
0.0
 10
-350.2226377976234
 20
339.1893055074198
 30
0.0
 10
-350.2388552904728
 20
339.2426848512719
 30
0.0
 10
-350.2844415439132
 20
339.3161407368065
 30
0.0
 10
-350.3459085374138
 20
339.3832679026717
 30
0.0
 10
-350.4091384555621
 20
339.4326977887777
 30
0.0
 10
-350.4662073202582
 20
339.469879119256
 30
0.0
 10
-350.5151266635447
 20
339.493193574995
 30
0.0
 10
-350.567465437897
 20
339.5145660845334
 30
0.0
 10
-350.6238646697153
 20
339.5327533562811
 30
0.0
 10
-350.6844468897369
 20
339.5465637650735
 30
0.0
 10
-350.7488770849622
 20
339.5569241549557
 30
0.0
 10
-350.8171799677386
 20
339.5648437777225
 30
0.0
 10
-350.8643015421831
 20
339.567033060445
 30
0.0
 10
-350.8883946560946
 20
339.5681524338665
 30
0.0
  0
SPLINE
  5
126
330
1F
100
AcDbEntity
  8
0
  6
Continuous
 62
     7
370
    25
100
AcDbSpline
210
0.0
220
0.0
230
1.0
 70
     8
 71
     3
 72
    14
 73
    10
 74
     0
 42
0.00000001
 43
0.00000001
 40
0.0
 40
0.0
 40
0.0
 40
0.0
 40
0.0002243365482162
 40
0.0002243365482162
 40
0.0002243365482162
 40
0.0004477568849835
 40
0.0004477568849835
 40
0.0004477568849835
 40
0.0008924603457881
 40
0.0008924603457881
 40
0.0008924603457881
 40
0.0008924603457881
 10
-350.8883946560946
 20
339.5681524338665
 30
0.0
 10
-350.9631734502711
 20
339.5682433179434
 30
0.0
 10
-351.0380648611755
 20
339.5619825598887
 30
0.0
 10
-351.1121200450758
 20
339.5516044070713
 30
0.0
 10
-351.1859987872725
 20
339.5412509809356
 30
0.0
 10
-351.2595383263874
 20
339.5283831636235
 30
0.0
 10
-351.3327461785437
 20
339.5140349106293
 30
0.0
 10
-351.4784607365988
 20
339.4854758246526
 30
0.0
 10
-351.6232533966881
 20
339.4522252042688
 30
0.0
 10
-351.7676013868638
 20
339.4174112479691
 30
0.0
  0
LINE
  5
127
330
1F
100
AcDbEntity
  8
0
  6
Continuous
 62
     7
370
    25
100
AcDbLine
 10
-351.7676013869
 20
339.417411248
 30
0.0
 11
-352.6145565151
 21
339.2112814403
 31
0.0
  0
LINE
  5
128
330
1F
100
AcDbEntity
  8
0
  6
Continuous
 62
     7
370
    25
100
AcDbLine
 10
-353.0377774943
 20
340.9498071757
 30
0.0
 11
-349.9822887122
 21
341.6943985219
 31
0.0
  0
LINE
  5
129
330
1F
100
AcDbEntity
  8
0
  6
Continuous
 62
     7
370
    25
100
AcDbLine
 10
-349.9822887122
 20
341.6943985219
 30
0.0
 11
-350.1666837443
 21
342.4516100603
 31
0.0
  0
LINE
  5
12A
330
1F
100
AcDbEntity
  8
0
  6
Continuous
 62
     7
370
    25
100
AcDbLine
 10
-350.1666837443
 20
342.4516100603
 30
0.0
 11
-349.8378576225
 21
342.531537945
 31
0.0
  0
LINE
  5
12B
330
1F
100
AcDbEntity
  8
0
  6
Continuous
 62
     7
370
    25
100
AcDbLine
 10
-349.8378576225
 20
342.531537945
 30
0.0
 11
-349.384932943
 21
340.6749674321
 31
0.0
  0
LINE
  5
12C
330
1F
100
AcDbEntity
  8
0
  6
Continuous
 62
     7
370
    25
100
AcDbLine
 10
-349.384932943
 20
340.6749674321
 30
0.0
 11
-349.7137590648
 21
340.5950395475
 31
0.0
  0
LINE
  5
12D
330
1F
100
AcDbEntity
  8
0
  6
Continuous
 62
     7
370
    25
100
AcDbLine
 10
-349.7137590648
 20
340.5950395475
 30
0.0
 11
-349.8981540969
 21
341.3494465988
 31
0.0
  0
LINE
  5
12E
330
1F
100
AcDbEntity
  8
0
  6
Continuous
 62
     7
370
    25
100
AcDbLine
 10
-349.8981540969
 20
341.3494465988
 30
0.0
 11
-352.9536428789
 21
340.6048552526
 31
0.0
  0
LINE
  5
12F
330
1F
100
AcDbEntity
  8
0
  6
Continuous
 62
     7
370
    25
100
AcDbLine
 10
-352.9536428789
 20
340.6048552526
 30
0.0
 11
-353.0377774943
 21
340.9498071757
 31
0.0
  0
SPLINE
  5
130
330
1F
100
AcDbEntity
  8
0
  6
Continuous
 62
     7
370
    25
100
AcDbSpline
210
0.0
220
0.0
230
1.0
 70
     8
 71
     3
 72
     8
 73
     4
 74
     0
 42
0.00000001
 43
0.00000001
 40
0.0
 40
0.0
 40
0.0
 40
0.0
 40
0.0786023106917944
 40
0.0786023106917944
 40
0.0786023106917944
 40
0.0786023106917944
 10
-319.0978261790425
 20
350.0786221576709
 30
0.0
 10
-335.263832908503
 20
346.1506764380144
 30
0.0
 10
-351.4298396379635
 20
342.2227307183582
 30
0.0
 10
-367.595801395533
 20
338.2945999207104
 30
0.0
  0
LINE
  5
131
330
1F
100
AcDbEntity
  8
0
  6
Continuous
 62
     7
370
    25
100
AcDbLine
 10
-367.5958013955
 20
338.2945999207
 30
0.0
 11
-347.776642184
 21
256.7301647259
 31
0.0
  0
LINE
  5
132
330
1F
100
AcDbEntity
  8
0
  6
Continuous
 62
     7
370
    25
100
AcDbLine
 10
-347.776642184
 20
256.7301647259
 30
0.0
 11
-299.5205719783
 21
268.46482214
 31
0.0
  0
SPLINE
  5
133
330
1F
100
AcDbEntity
  8
0
  6
Continuous
 62
     7
370
    25
100
AcDbSpline
210
0.0
220
0.0
230
1.0
 70
     8
 71
     3
 72
    10
 73
     6
 74
     0
 42
0.00000001
 43
0.00000001
 40
0.0
 40
0.0
 40
0.0
 40
0.0
 40
0.5
 40
0.5
 40
1.0
 40
1.0
 40
1.0
 40
1.0
 10
-299.5205719783304
 20
268.4648221399661
 30
0.0
 10
-303.6445996935497
 20
271.7190146369714
 30
0.0
 10
-305.5451812150707
 20
273.130277658202
 30
0.0
 10
-311.606512917083
 20
279.5104446239378
 30
0.0
 10
-313.6141023636871
 20
282.5875014062368
 30
0.0
 10
-314.5177225779848
 20
286.5697137538069
 30
0.0
  0
SPLINE
  5
134
330
1F
100
AcDbEntity
  8
0
  6
Continuous
 62
     7
370
    25
100
AcDbSpline
210
0.0
220
0.0
230
1.0
 70
     8
 71
     3
 72
    10
 73
     6
 74
     0
 42
0.00000001
 43
0.00000001
 40
0.0
 40
0.0
 40
0.0
 40
0.0
 40
0.5
 40
0.5
 40
1.0
 40
1.0
 40
1.0
 40
1.0
 10
-314.5177225779848
 20
286.5697137538069
 30
0.0
 10
-315.5630228253178
 20
290.3715109102288
 30
0.0
 10
-315.2525819286024
 20
294.130064715817
 30
0.0
 10
-312.6707313657037
 20
302.3971251650211
 30
0.0
 10
-311.5879037159346
 20
304.386779593063
 30
0.0
 10
-309.2236281201759
 20
309.1405226324821
 30
0.0
  0
SPLINE
  5
135
330
1F
100
AcDbEntity
  8
0
  6
Continuous
 62
     7
370
    25
100
AcDbSpline
210
0.0
220
0.0
230
1.0
 70
     8
 71
     3
 72
    10
 73
     6
 74
     0
 42
0.00000001
 43
0.00000001
 40
0.0
 40
0.0
 40
0.0
 40
0.0
 40
0.5
 40
0.5
 40
1.0
 40
1.0
 40
1.0
 40
1.0
 10
-309.2236278965674
 20
309.1405230820819
 30
0.0
 10
-314.9528774985752
 20
311.3721975562925
 30
0.0
 10
-317.1602696967267
 20
312.0674878594297
 30
0.0
 10
-326.3313046340696
 20
317.2830377379219
 30
0.0
 10
-329.5396771638836
 20
320.1315412253973
 30
0.0
 10
-330.427770762507
 20
324.6962953343015
 30
0.0
  0
SPLINE
  5
136
330
1F
100
AcDbEntity
  8
0
  6
Continuous
 62
     7
370
    25
100
AcDbSpline
210
0.0
220
0.0
230
1.0
 70
     8
 71
     3
 72
    10
 73
     6
 74
     0
 42
0.00000001
 43
0.00000001
 40
0.0
 40
0.0
 40
0.0
 40
0.0
 40
0.5
 40
0.5
 40
1.0
 40
1.0
 40
1.0
 40
1.0
 10
-330.427770762507
 20
324.6962953343015
 30
0.0
 10
-331.9400875815505
 20
329.3007424956187
 30
0.0
 10
-329.5958514634717
 20
334.864288582616
 30
0.0
 10
-325.5127754861686
 20
341.8025834656597
 30
0.0
 10
-323.138635369941
 20
344.918432513245
 30
0.0
 10
-319.1596206474313
 20
350.0000000000031
 30
0.0
  0
LINE
  5
137
330
1F
100
AcDbEntity
  8
0
  6
Continuous
 62
     7
370
    25
100
AcDbLine
 10
-319.097826179
 20
350.0786221577
 30
0.0
 11
-319.1596206474
 21
350.0
 31
0.0
  0
MTEXT
  5
139
330
1F
100
AcDbEntity
  8
0
  6
Continuous
 62
     7
100
AcDbMText
 10
-367.5958013955
 20
255.7105983342
 30
0.0
 40
4.83362
 41
0.0
 71
     1
 72
     1
  1
SOLIDWORKS Educational Product.
  7
SLDTEXTSTYLE0
 73
     1
 44
1.0
  0
MTEXT
  5
13A
330
1F
100
AcDbEntity
  8
0
  6
Continuous
 62
     7
100
AcDbMText
 10
-367.5958013955
 20
248.4601683342
 30
0.0
 40
4.83362
 41
0.0
 71
     1
 72
     1
  1
For Instructional Use Only.
  7
SLDTEXTSTYLE0
 73
     1
 44
1.0
  0
ENDSEC
  0
SECTION
  2
OBJECTS
  0
DICTIONARY
  5
C
330
0
100
AcDbDictionary
281
     1
  3
ACAD_GROUP
350
D
  3
ACAD_LAYOUT
350
1A
  3
ACAD_MLINESTYLE
350
17
  3
ACAD_PLOTSETTINGS
350
19
  3
ACAD_PLOTSTYLENAME
350
E
  3
ACAD_SCALELIST
350
47
  3
DWGPROPS
350
13B
  0
DICTIONARY
  5
D
102
{ACAD_REACTORS
330
C
102
}
330
C
100
AcDbDictionary
281
     1
  0
DICTIONARY
  5
1A
102
{ACAD_REACTORS
330
C
102
}
330
C
100
AcDbDictionary
281
     1
  3
Layout1
350
1E
  3
Layout2
350
26
  3
Model
350
22
  0
DICTIONARY
  5
17
102
{ACAD_REACTORS
330
C
102
}
330
C
100
AcDbDictionary
281
     1
  3
Standard
350
18
  0
DICTIONARY
  5
19
102
{ACAD_REACTORS
330
C
102
}
330
C
100
AcDbDictionary
281
     1
  0
ACDBDICTIONARYWDFLT
  5
E
102
{ACAD_REACTORS
330
C
102
}
330
C
100
AcDbDictionary
281
     1
  3
Normal
350
F
100
AcDbDictionaryWithDefault
340
F
  0
DICTIONARY
  5
47
102
{ACAD_REACTORS
330
C
102
}
330
C
100
AcDbDictionary
281
     1
  3
A0
350
48
  3
A1
350
49
  3
A2
350
4A
  3
A3
350
4B
  3
A4
350
4C
  3
A5
350
4D
  3
A6
350
4E
  3
A7
350
4F
  3
A8
350
50
  3
A9
350
51
  3
B0
350
52
  3
B1
350
53
  3
B2
350
54
  3
B3
350
55
  3
B4
350
56
  3
B5
350
57
  3
B6
350
58
  0
XRECORD
  5
13B
102
{ACAD_REACTORS
330
C
102
}
330
C
100
AcDbXrecord
280
     1
  1
DWGPROPS COOKIE
  2

  3

  4

  6

  7

  8
Dell
  9

300
=
301
=
302
=
303
=
304
=
305
=
306
=
307
=
308
=
309
=
 40
0.0
 41
2460369.292052512
 42
2460369.292090104
  1

 90
        0
  0
LAYOUT
  5
1E
102
{ACAD_REACTORS
330
1A
102
}
330
1A
100
AcDbPlotSettings
  1

  2
none_device
  4

  6

 40
0.0
 41
0.0
 42
0.0
 43
0.0
 44
0.0
 45
0.0
 46
0.0
 47
0.0
 48
0.0
 49
0.0
140
0.0
141
0.0
142
1.0
143
1.0
 70
   688
 72
     1
 73
     0
 74
     5
  7

 75
    16
147
1.0
148
0.0
149
0.0
100
AcDbLayout
  1
Layout1
 70
     1
 71
     1
 10
0.0
 20
0.0
 11
420.0
 21
297.0
 12
0.0
 22
0.0
 32
0.0
 14
1.0000000000E+20
 24
1.0000000000E+20
 34
1.0000000000E+20
 15
-1.0000000000E+20
 25
-1.0000000000E+20
 35
-1.0000000000E+20
146
0.0
 13
0.0
 23
0.0
 33
0.0
 16
1.0
 26
0.0
 36
0.0
 17
0.0
 27
1.0
 37
0.0
 76
     0
330
1B
  0
LAYOUT
  5
26
102
{ACAD_REACTORS
330
1A
102
}
330
1A
100
AcDbPlotSettings
  1

  2
none_device
  4

  6

 40
0.0
 41
0.0
 42
0.0
 43
0.0
 44
0.0
 45
0.0
 46
0.0
 47
0.0
 48
0.0
 49
0.0
140
0.0
141
0.0
142
1.0
143
1.0
 70
   688
 72
     1
 73
     0
 74
     5
  7

 75
    16
147
1.0
148
0.0
149
0.0
100
AcDbLayout
  1
Layout2
 70
     1
 71
     2
 10
0.0
 20
0.0
 11
0.0
 21
0.0
 12
0.0
 22
0.0
 32
0.0
 14
0.0
 24
0.0
 34
0.0
 15
0.0
 25
0.0
 35
0.0
146
0.0
 13
0.0
 23
0.0
 33
0.0
 16
1.0
 26
0.0
 36
0.0
 17
0.0
 27
1.0
 37
0.0
 76
     0
330
23
  0
LAYOUT
  5
22
102
{ACAD_REACTORS
330
1A
102
}
330
1A
100
AcDbPlotSettings
  1

  2
none_device
  4
ANSI_A_(11.00_x_8.50_Inches)
  6

 40
6.35
 41
19.05
 42
6.35000508
 43
19.05000254
 44
279.4
 45
215.9
 46
897.1018830526
 47
-605.8084114873
 48
0.0
 49
0.0
140
0.0
141
0.0
142
0.0901461067
143
1.0
 70
  1696
 72
     0
 73
     0
 74
     0
  7

 75
     0
147
0.0179189148
148
-1300.4909072572
149
0.0
100
AcDbLayout
  1
Model
 70
     1
 71
     0
 10
0.0
 20
0.0
 11
420.0
 21
297.0
 12
0.0
 22
0.0
 32
0.0
 14
-367.5958013955
 24
256.7301647259
 34
0.0
 15
-299.5205719783
 25
350.0786221577
 35
0.0
146
0.0
 13
0.0
 23
0.0
 33
0.0
 16
1.0
 26
0.0
 36
0.0
 17
0.0
 27
1.0
 37
0.0
 76
     0
330
1F
331
29
  0
MLINESTYLE
  5
18
102
{ACAD_REACTORS
330
17
102
}
330
17
100
AcDbMlineStyle
  2
Standard
 70
     0
  3

 62
   256
 51
90.0
 52
90.0
 71
     2
 49
0.5
 62
   256
  6
BYLAYER
 49
-0.5
 62
   256
  6
BYLAYER
  0
ACDBPLACEHOLDER
  5
F
102
{ACAD_REACTORS
330
E
102
}
330
E
  0
SCALE
  5
48
102
{ACAD_REACTORS
330
47
102
}
330
47
100
AcDbScale
 70
     0
300
1:1
140
1.0
141
1.0
290
     1
  0
SCALE
  5
49
102
{ACAD_REACTORS
330
47
102
}
330
47
100
AcDbScale
 70
     0
300
1:2
140
1.0
141
2.0
290
     0
  0
SCALE
  5
4A
102
{ACAD_REACTORS
330
47
102
}
330
47
100
AcDbScale
 70
     0
300
1:4
140
1.0
141
4.0
290
     0
  0
SCALE
  5
4B
102
{ACAD_REACTORS
330
47
102
}
330
47
100
AcDbScale
 70
     0
300
1:5
140
1.0
141
5.0
290
     0
  0
SCALE
  5
4C
102
{ACAD_REACTORS
330
47
102
}
330
47
100
AcDbScale
 70
     0
300
1:8
140
1.0
141
8.0
290
     0
  0
SCALE
  5
4D
102
{ACAD_REACTORS
330
47
102
}
330
47
100
AcDbScale
 70
     0
300
1:10
140
1.0
141
10.0
290
     0
  0
SCALE
  5
4E
102
{ACAD_REACTORS
330
47
102
}
330
47
100
AcDbScale
 70
     0
300
1:16
140
1.0
141
16.0
290
     0
  0
SCALE
  5
4F
102
{ACAD_REACTORS
330
47
102
}
330
47
100
AcDbScale
 70
     0
300
1:20
140
1.0
141
20.0
290
     0
  0
SCALE
  5
50
102
{ACAD_REACTORS
330
47
102
}
330
47
100
AcDbScale
 70
     0
300
1:30
140
1.0
141
30.0
290
     0
  0
SCALE
  5
51
102
{ACAD_REACTORS
330
47
102
}
330
47
100
AcDbScale
 70
     0
300
1:40
140
1.0
141
40.0
290
     0
  0
SCALE
  5
52
102
{ACAD_REACTORS
330
47
102
}
330
47
100
AcDbScale
 70
     0
300
1:50
140
1.0
141
50.0
290
     0
  0
SCALE
  5
53
102
{ACAD_REACTORS
330
47
102
}
330
47
100
AcDbScale
 70
     0
300
1:100
140
1.0
141
100.0
290
     0
  0
SCALE
  5
54
102
{ACAD_REACTORS
330
47
102
}
330
47
100
AcDbScale
 70
     0
300
2:1
140
2.0
141
1.0
290
     0
  0
SCALE
  5
55
102
{ACAD_REACTORS
330
47
102
}
330
47
100
AcDbScale
 70
     0
300
4:1
140
4.0
141
1.0
290
     0
  0
SCALE
  5
56
102
{ACAD_REACTORS
330
47
102
}
330
47
100
AcDbScale
 70
     0
300
8:1
140
8.0
141
1.0
290
     0
  0
SCALE
  5
57
102
{ACAD_REACTORS
330
47
102
}
330
47
100
AcDbScale
 70
     0
300
10:1
140
10.0
141
1.0
290
     0
  0
SCALE
  5
58
102
{ACAD_REACTORS
330
47
102
}
330
47
100
AcDbScale
 70
     0
300
100:1
140
100.0
141
1.0
290
     0
  0
ENDSEC
  0
EOF
