  0
SECTION
  2
HEADER
  9
$ACADVER
  1
AC1015
  9
$ACADMAINTVER
 70
     6
  9
$DWGCODEPAGE
  3
ANSI_1252
  9
$INSBASE
 10
0.0
 20
0.0
 30
0.0
  9
$EXTMIN
 10
560.8885789854
 20
-83.8668230162
 30
0.0
  9
$EXTMAX
 10
631.4957719439
 20
0.1
 30
0.0
  9
$LIMMIN
 10
0.0
 20
0.0
  9
$LIMMAX
 10
420.0
 20
297.0
  9
$ORTHOMODE
 70
     0
  9
$REGENMODE
 70
     1
  9
$FILLMODE
 70
     1
  9
$QTEXTMODE
 70
     0
  9
$MIRRTEXT
 70
     1
  9
$LTSCALE
 40
1.0
  9
$ATTMODE
 70
     1
  9
$TEXTSIZE
 40
3.5
  9
$TRACEWID
 40
1.0
  9
$TEXTSTYLE
  7
Standard
  9
$CLAYER
  8
0
  9
$CELTYPE
  6
ByLayer
  9
$CECOLOR
 62
   256
  9
$CELTSCALE
 40
1.0
  9
$DISPSILH
 70
     0
  9
$DIMSCALE
 40
1.0
  9
$DIMASZ
 40
3.302
  9
$DIMEXO
 40
0.0
  9
$DIMDLI
 40
3.75
  9
$DIMRND
 40
0.0
  9
$DIMDLE
 40
0.0
  9
$DIMEXE
 40
1.0
  9
$DIMTP
 40
0.0
  9
$DIMTM
 40
0.0
  9
$DIMTXT
 40
3.5
  9
$DIMCEN
 40
2.5
  9
$DIMTSZ
 40
0.0
  9
$DIMTOL
 70
     0
  9
$DIMLIM
 70
     0
  9
$DIMTIH
 70
     1
  9
$DIMTOH
 70
     1
  9
$DIMSE1
 70
     0
  9
$DIMSE2
 70
     0
  9
$DIMTAD
 70
     1
  9
$DIMZIN
 70
     1
  9
$DIMBLK
  1

  9
$DIMASO
 70
     1
  9
$DIMSHO
 70
     1
  9
$DIMPOST
  1

  9
$DIMAPOST
  1

  9
$DIMALT
 70
     0
  9
$DIMALTD
 70
     3
  9
$DIMALTF
 40
0.0393700787
  9
$DIMLFAC
 40
1.0
  9
$DIMTOFL
 70
     1
  9
$DIMTVP
 40
0.0
  9
$DIMTIX
 70
     0
  9
$DIMSOXD
 70
     0
  9
$DIMSAH
 70
     0
  9
$DIMBLK1
  1

  9
$DIMBLK2
  1

  9
$DIMSTYLE
  2
ISO-25
  9
$DIMCLRD
 70
     0
  9
$DIMCLRE
 70
     0
  9
$DIMCLRT
 70
     0
  9
$DIMTFAC
 40
1.0
  9
$DIMGAP
 40
1.524
  9
$DIMJUST
 70
     0
  9
$DIMSD1
 70
     0
  9
$DIMSD2
 70
     0
  9
$DIMTOLJ
 70
     0
  9
$DIMTZIN
 70
     1
  9
$DIMALTZ
 70
     0
  9
$DIMALTTZ
 70
     0
  9
$DIMUPT
 70
     0
  9
$DIMDEC
 70
     2
  9
$DIMTDEC
 70
     2
  9
$DIMALTU
 70
     2
  9
$DIMALTTD
 70
     3
  9
$DIMTXSTY
  7
Standard
  9
$DIMAUNIT
 70
     0
  9
$DIMADEC
 70
     2
  9
$DIMALTRND
 40
0.0
  9
$DIMAZIN
 70
     0
  9
$DIMDSEP
 70
    44
  9
$DIMATFIT
 70
     3
  9
$DIMFRAC
 70
     0
  9
$DIMLDRBLK
  1

  9
$DIMLUNIT
 70
     2
  9
$DIMLWD
 70
    -2
  9
$DIMLWE
 70
    -2
  9
$DIMTMOVE
 70
     0
  9
$LUNITS
 70
     2
  9
$LUPREC
 70
     2
  9
$SKETCHINC
 40
1.0
  9
$FILLETRAD
 40
0.0
  9
$AUNITS
 70
     0
  9
$AUPREC
 70
     2
  9
$MENU
  1
.
  9
$ELEVATION
 40
0.0
  9
$PELEVATION
 40
0.0
  9
$THICKNESS
 40
0.0
  9
$LIMCHECK
 70
     0
  9
$CHAMFERA
 40
0.0
  9
$CHAMFERB
 40
0.0
  9
$CHAMFERC
 40
0.0
  9
$CHAMFERD
 40
0.0
  9
$SKPOLY
 70
     0
  9
$TDCREATE
 40
2460369.092964907
  9
$TDUCREATE
 40
2460369.301298241
  9
$TDUPDATE
 40
2460369.093025069
  9
$TDUUPDATE
 40
2460369.301358403
  9
$TDINDWG
 40
0.0000000116
  9
$TDUSRTIMER
 40
0.0000000116
  9
$USRTIMER
 70
     1
  9
$ANGBASE
 50
0.0
  9
$ANGDIR
 70
     0
  9
$PDMODE
 70
     0
  9
$PDSIZE
 40
-1.0
  9
$PLINEWID
 40
0.0
  9
$SPLFRAME
 70
     0
  9
$SPLINETYPE
 70
     6
  9
$SPLINESEGS
 70
     8
  9
$HANDSEED
  5
140
  9
$SURFTAB1
 70
     6
  9
$SURFTAB2
 70
     6
  9
$SURFTYPE
 70
     6
  9
$SURFU
 70
     6
  9
$SURFV
 70
     6
  9
$UCSBASE
  2

  9
$UCSNAME
  2

  9
$UCSORG
 10
0.0
 20
0.0
 30
0.0
  9
$UCSXDIR
 10
1.0
 20
0.0
 30
0.0
  9
$UCSYDIR
 10
0.0
 20
1.0
 30
0.0
  9
$UCSORTHOREF
  2

  9
$UCSORTHOVIEW
 70
     0
  9
$UCSORGTOP
 10
0.0
 20
0.0
 30
0.0
  9
$UCSORGBOTTOM
 10
0.0
 20
0.0
 30
0.0
  9
$UCSORGLEFT
 10
0.0
 20
0.0
 30
0.0
  9
$UCSORGRIGHT
 10
0.0
 20
0.0
 30
0.0
  9
$UCSORGFRONT
 10
0.0
 20
0.0
 30
0.0
  9
$UCSORGBACK
 10
0.0
 20
0.0
 30
0.0
  9
$PUCSBASE
  2

  9
$PUCSNAME
  2

  9
$PUCSORG
 10
0.0
 20
0.0
 30
0.0
  9
$PUCSXDIR
 10
1.0
 20
0.0
 30
0.0
  9
$PUCSYDIR
 10
0.0
 20
1.0
 30
0.0
  9
$PUCSORTHOREF
  2

  9
$PUCSORTHOVIEW
 70
     0
  9
$PUCSORGTOP
 10
0.0
 20
0.0
 30
0.0
  9
$PUCSORGBOTTOM
 10
0.0
 20
0.0
 30
0.0
  9
$PUCSORGLEFT
 10
0.0
 20
0.0
 30
0.0
  9
$PUCSORGRIGHT
 10
0.0
 20
0.0
 30
0.0
  9
$PUCSORGFRONT
 10
0.0
 20
0.0
 30
0.0
  9
$PUCSORGBACK
 10
0.0
 20
0.0
 30
0.0
  9
$USERI1
 70
     0
  9
$USERI2
 70
     0
  9
$USERI3
 70
     0
  9
$USERI4
 70
     0
  9
$USERI5
 70
     0
  9
$USERR1
 40
0.0
  9
$USERR2
 40
0.0
  9
$USERR3
 40
0.0
  9
$USERR4
 40
0.0
  9
$USERR5
 40
0.0
  9
$WORLDVIEW
 70
     1
  9
$SHADEDGE
 70
     3
  9
$SHADEDIF
 70
    70
  9
$TILEMODE
 70
     1
  9
$MAXACTVP
 70
    64
  9
$PINSBASE
 10
0.0
 20
0.0
 30
0.0
  9
$PLIMCHECK
 70
     0
  9
$PEXTMIN
 10
1.0000000000E+20
 20
1.0000000000E+20
 30
1.0000000000E+20
  9
$PEXTMAX
 10
-1.0000000000E+20
 20
-1.0000000000E+20
 30
-1.0000000000E+20
  9
$PLIMMIN
 10
0.0
 20
0.0
  9
$PLIMMAX
 10
420.0
 20
297.0
  9
$UNITMODE
 70
     0
  9
$VISRETAIN
 70
     1
  9
$PLINEGEN
 70
     0
  9
$PSLTSCALE
 70
     1
  9
$TREEDEPTH
 70
  3020
  9
$CMLSTYLE
  2
Standard
  9
$CMLJUST
 70
     0
  9
$CMLSCALE
 40
20.0
  9
$PROXYGRAPHICS
 70
     1
  9
$MEASUREMENT
 70
     1
  9
$CELWEIGHT
370
    -1
  9
$ENDCAPS
280
     0
  9
$JOINSTYLE
280
     0
  9
$LWDISPLAY
290
     1
  9
$INSUNITS
 70
     4
  9
$HYPERLINKBASE
  1

  9
$STYLESHEET
  1

  9
$XEDIT
290
     1
  9
$CEPSNTYPE
380
     0
  9
$PSTYLEMODE
290
     1
  9
$FINGERPRINTGUID
  2
{5317c2c9-521f-43cb-a758-1d3ebdd59307}
  9
$VERSIONGUID
  2
{FAEB1C32-E019-11D5-929B-00C0DF256EC4}
  9
$EXTNAMES
290
     1
  9
$PSVPSCALE
 40
0.0
  9
$OLESTARTUP
290
     0
  0
ENDSEC
  0
SECTION
  2
CLASSES
  0
CLASS
  1
ACDBDICTIONARYWDFLT
  2
AcDbDictionaryWithDefault
  3
ObjectDBX Classes
 90
        0
280
     0
281
     0
  0
CLASS
  1
VISUALSTYLE
  2
AcDbVisualStyle
  3
ObjectDBX Classes
 90
     4095
280
     0
281
     0
  0
CLASS
  1
MATERIAL
  2
AcDbMaterial
  3
ObjectDBX Classes
 90
     1153
280
     0
281
     0
  0
CLASS
  1
SCALE
  2
AcDbScale
  3
ObjectDBX Classes
 90
     1153
280
     0
281
     0
  0
CLASS
  1
TABLESTYLE
  2
AcDbTableStyle
  3
ObjectDBX Classes
 90
     4095
280
     0
281
     0
  0
CLASS
  1
MLEADERSTYLE
  2
AcDbMLeaderStyle
  3
ACDB_MLEADERSTYLE_CLASS
 90
     4095
280
     0
281
     0
  0
CLASS
  1
SUN
  2
AcDbSun
  3
SCENEOE
 90
     1153
280
     0
281
     0
  0
CLASS
  1
ACDBPLACEHOLDER
  2
AcDbPlaceHolder
  3
ObjectDBX Classes
 90
        0
280
     0
281
     0
  0
CLASS
  1
LAYOUT
  2
AcDbLayout
  3
ObjectDBX Classes
 90
        0
280
     0
281
     0
  0
ENDSEC
  0
SECTION
  2
TABLES
  0
TABLE
  2
VPORT
  5
8
330
0
100
AcDbSymbolTable
 70
     1
  0
VPORT
  5
29
330
8
100
AcDbSymbolTableRecord
100
AcDbViewportTableRecord
  2
*Active
 70
     0
 10
0.0
 20
0.0
 11
1.0
 21
1.0
 12
596.1921754647
 22
-41.8834115081
 13
0.0
 23
0.0
 14
10.0
 24
10.0
 15
10.0
 25
10.0
 16
0.0
 26
0.0
 36
1.0
 17
0.0
 27
0.0
 37
0.0
 40
85.6461594765
 41
0.8408939438
 42
50.0
 43
0.0
 44
0.0
 50
0.0
 51
0.0
 71
     0
 72
   100
 73
     1
 74
     3
 75
     0
 76
     0
 77
     0
 78
     0
281
     0
 65
     1
110
0.0
120
0.0
130
0.0
111
1.0
121
0.0
131
0.0
112
0.0
122
1.0
132
0.0
 79
     0
146
0.0
  0
ENDTAB
  0
TABLE
  2
LTYPE
  5
5
330
0
100
AcDbSymbolTable
 70
     6
  0
LTYPE
  5
14
330
5
100
AcDbSymbolTableRecord
100
AcDbLinetypeTableRecord
  2
ByBlock
 70
     0
  3

 72
    65
 73
     0
 40
0.0
  0
LTYPE
  5
15
330
5
100
AcDbSymbolTableRecord
100
AcDbLinetypeTableRecord
  2
ByLayer
 70
     0
  3

 72
    65
 73
     0
 40
0.0
  0
LTYPE
  5
16
330
5
100
AcDbSymbolTableRecord
100
AcDbLinetypeTableRecord
  2
Continuous
 70
     0
  3
Solid line
 72
    65
 73
     0
 40
0.0
  0
LTYPE
  5
5E
330
5
100
AcDbSymbolTableRecord
100
AcDbLinetypeTableRecord
  2
HIDDEN
 70
     0
  3
Hidden __ __ __ __ __ __ __ __ __ __ __ __ __ __
 72
    65
 73
     2
 40
1.905
 49
1.27
 74
     0
 49
-0.635
 74
     0
  0
LTYPE
  5
5F
330
5
100
AcDbSymbolTableRecord
100
AcDbLinetypeTableRecord
  2
PHANTOM
 70
     0
  3
Phantom ______  __  __  ______  __  __  ______
 72
    65
 73
     6
 40
12.7
 49
6.35
 74
     0
 49
-1.27
 74
     0
 49
1.27
 74
     0
 49
-1.27
 74
     0
 49
1.27
 74
     0
 49
-1.27
 74
     0
  0
LTYPE
  5
60
330
5
100
AcDbSymbolTableRecord
100
AcDbLinetypeTableRecord
  2
CENTER
 70
     0
  3
Center ____ _ ____ _ ____ _ ____ _ ____ _ ____
 72
    65
 73
     4
 40
10.16
 49
6.35
 74
     0
 49
-1.27
 74
     0
 49
1.27
 74
     0
 49
-1.27
 74
     0
  0
LTYPE
  5
61
330
5
100
AcDbSymbolTableRecord
100
AcDbLinetypeTableRecord
  2
CENTERX2
 70
     0
  3
Center (2x) ________  __  ________  __  _____
 72
    65
 73
     4
 40
20.32
 49
12.7
 74
     0
 49
-2.54
 74
     0
 49
2.54
 74
     0
 49
-2.54
 74
     0
  0
LTYPE
  5
62
330
5
100
AcDbSymbolTableRecord
100
AcDbLinetypeTableRecord
  2
DOT2
 70
     0
  3
Dot (.5x) ........................................
 72
    65
 73
     2
 40
0.635
 49
0.0
 74
     0
 49
-0.635
 74
     0
  0
ENDTAB
  0
TABLE
  2
LAYER
  5
2
330
0
100
AcDbSymbolTable
 70
     1
  0
LAYER
  5
10
330
2
100
AcDbSymbolTableRecord
100
AcDbLayerTableRecord
  2
0
 70
     0
 62
     7
  6
Continuous
370
    -3
390
F
  0
ENDTAB
  0
TABLE
  2
STYLE
  5
3
330
0
100
AcDbSymbolTable
 70
     2
  0
STYLE
  5
11
330
3
100
AcDbSymbolTableRecord
100
AcDbTextStyleTableRecord
  2
Standard
 70
     0
 40
0.0
 41
1.0
 50
0.0
 71
     0
 42
3.5
  3
txt
  4

  0
STYLE
  5
13C
330
3
100
AcDbSymbolTableRecord
100
AcDbTextStyleTableRecord
  2
SLDTEXTSTYLE0
 70
     0
 40
0.0
 41
0.7
 50
0.0
 71
     0
 42
3.5
  3
TXT
  4

  0
ENDTAB
  0
TABLE
  2
VIEW
  5
6
330
0
100
AcDbSymbolTable
 70
     0
  0
ENDTAB
  0
TABLE
  2
UCS
  5
7
330
0
100
AcDbSymbolTable
 70
     0
  0
ENDTAB
  0
TABLE
  2
APPID
  5
9
330
0
100
AcDbSymbolTable
 70
     1
  0
APPID
  5
12
330
9
100
AcDbSymbolTableRecord
100
AcDbRegAppTableRecord
  2
ACAD
 70
     0
  0
ENDTAB
  0
TABLE
  2
DIMSTYLE
  5
A
330
0
100
AcDbSymbolTable
 70
     1
100
AcDbDimStyleTable
  0
DIMSTYLE
105
27
330
A
100
AcDbSymbolTableRecord
100
AcDbDimStyleTableRecord
  2
ISO-25
 70
     0
 41
2.5
 42
0.625
 43
3.75
 44
1.25
 73
     0
 74
     0
 77
     1
 78
     8
140
2.5
141
2.5
143
0.0393700787
147
0.625
171
     3
172
     1
178
     0
271
     2
272
     2
274
     3
278
    44
283
     0
284
     8
340
11
  0
ENDTAB
  0
TABLE
  2
BLOCK_RECORD
  5
1
330
0
100
AcDbSymbolTable
 70
     1
  0
BLOCK_RECORD
  5
1F
330
1
100
AcDbSymbolTableRecord
100
AcDbBlockTableRecord
  2
*Model_Space
340
22
  0
BLOCK_RECORD
  5
1B
330
1
100
AcDbSymbolTableRecord
100
AcDbBlockTableRecord
  2
*Paper_Space
340
1E
  0
BLOCK_RECORD
  5
23
330
1
100
AcDbSymbolTableRecord
100
AcDbBlockTableRecord
  2
*Paper_Space0
340
26
  0
ENDTAB
  0
ENDSEC
  0
SECTION
  2
BLOCKS
  0
BLOCK
  5
20
330
1F
100
AcDbEntity
  8
0
100
AcDbBlockBegin
  2
*Model_Space
 70
     0
 10
0.0
 20
0.0
 30
0.0
  3
*Model_Space
  1

  0
ENDBLK
  5
21
330
1F
100
AcDbEntity
  8
0
100
AcDbBlockEnd
  0
BLOCK
  5
1C
330
1B
100
AcDbEntity
 67
     1
  8
0
100
AcDbBlockBegin
  2
*Paper_Space
 70
     0
 10
0.0
 20
0.0
 30
0.0
  3
*Paper_Space
  1

  0
ENDBLK
  5
1D
330
1B
100
AcDbEntity
 67
     1
  8
0
100
AcDbBlockEnd
  0
BLOCK
  5
24
330
23
100
AcDbEntity
  8
0
100
AcDbBlockBegin
  2
*Paper_Space0
 70
     0
 10
0.0
 20
0.0
 30
0.0
  3
*Paper_Space0
  1

  0
ENDBLK
  5
25
330
23
100
AcDbEntity
  8
0
100
AcDbBlockEnd
  0
ENDSEC
  0
SECTION
  2
ENTITIES
  0
SPLINE
  5
63
330
1F
100
AcDbEntity
  8
0
  6
Continuous
 62
     7
370
    25
100
AcDbSpline
210
0.0
220
0.0
230
1.0
 70
     8
 71
     3
 72
    14
 73
    10
 74
     0
 42
0.00000001
 43
0.00000001
 40
0.0000000000000001
 40
0.0000000000000001
 40
0.0000000000000001
 40
0.0000000000000001
 40
0.0006246046100202
 40
0.0006246046100202
 40
0.0006246046100202
 40
0.0012492584762356
 40
0.0012492584762356
 40
0.0012492584762356
 40
0.0024957585251316
 40
0.0024957585251316
 40
0.0024957585251316
 40
0.0024957585251316
 10
566.100559694265
 20
-59.57948717948717
 30
0.0
 10
566.2970944183867
 20
-59.64820385932232
 30
0.0
 10
566.4956181967729
 20
-59.71241609788412
 30
0.0
 10
566.6975105684331
 20
-59.7632820996792
 30
0.0
 10
566.8994751063241
 20
-59.8141662834769
 30
0.0
 10
567.1040679944042
 20
-59.85538393922662
 30
0.0
 10
567.3098069155863
 20
-59.88779336744009
 30
0.0
 10
567.7194705754612
 20
-59.9523264412022
 30
0.0
 10
568.1355859179769
 20
-59.97905830116826
 30
0.0
 10
568.5502792455469
 20
-59.98333333333333
 30
0.0
  0
LINE
  5
64
330
1F
100
AcDbEntity
  8
0
  6
Continuous
 62
     7
370
    25
100
AcDbLine
 10
566.1005596943
 20
-59.1756410256
 30
0.0
 11
566.1005596943
 21
-59.5794871795
 31
0.0
  0
SPLINE
  5
65
330
1F
100
AcDbEntity
  8
0
  6
Continuous
 62
     7
370
    25
100
AcDbSpline
210
0.0
220
0.0
230
1.0
 70
     8
 71
     3
 72
    19
 73
    15
 74
     0
 42
0.00000001
 43
0.00000001
 40
0.0
 40
0.0
 40
0.0
 40
0.0
 40
0.1345142058254618
 40
0.2676774929011891
 40
0.3992499191704941
 40
0.5299063818669403
 40
0.5940521719828649
 40
0.6568085676067722
 40
0.7176666240179046
 40
0.7772147497835842
 40
0.8349590018328373
 40
0.8913210005269954
 40
0.946416744412488
 40
1.0
 40
1.0
 40
1.0
 40
1.0
 10
568.5082119378546
 20
-59.66923076923077
 30
0.0
 10
568.3971518723633
 20
-59.66764222093579
 30
0.0
 10
568.1761471114924
 20
-59.66448107804874
 30
0.0
 10
567.8473813978095
 20
-59.63822078594556
 30
0.0
 10
567.5234544986752
 20
-59.59722522649896
 30
0.0
 10
567.2582049008336
 20
-59.54895189829416
 30
0.0
 10
567.050869462238
 20
-59.50175522608455
 30
0.0
 10
566.9004608908236
 20
-59.46422712934837
 30
0.0
 10
566.754869198488
 20
-59.42332498119136
 30
0.0
 10
566.6142880608622
 20
-59.38008703988559
 30
0.0
 10
566.4784905427132
 20
-59.33401777611366
 30
0.0
 10
566.3482222013522
 20
-59.28357819870711
 30
0.0
 10
566.2217784674154
 20
-59.23271093777155
 30
0.0
 10
566.1405893148401
 20
-59.19448700856483
 30
0.0
 10
566.100559694265
 20
-59.17564102564103
 30
0.0
  0
SPLINE
  5
66
330
1F
100
AcDbEntity
  8
0
  6
Continuous
 62
     7
370
    25
100
AcDbSpline
210
0.0
220
0.0
230
1.0
 70
     8
 71
     3
 72
    15
 73
    11
 74
     0
 42
0.00000001
 43
0.00000001
 40
0.0
 40
0.0
 40
0.0
 40
0.0
 40
0.1080130097829202
 40
0.2215686146732921
 40
0.3416279410953305
 40
0.4678468491463821
 40
0.5979746012321892
 40
0.7300632724186589
 40
0.8637616863876383
 40
1.0
 40
1.0
 40
1.0
 40
1.0
 10
570.72235456606
 20
-59.26538461538463
 30
0.0
 10
570.6467530414751
 20
-59.29602111742358
 30
0.0
 10
570.4916705648079
 20
-59.35886620737016
 30
0.0
 10
570.2456776667757
 20
-59.43716329648077
 30
0.0
 10
569.9829099676103
 20
-59.50647178632848
 30
0.0
 10
569.7046308032371
 20
-59.56469203258678
 30
0.0
 10
569.4150180024498
 20
-59.61147048730204
 30
0.0
 10
569.1178950277201
 20
-59.64504842798379
 30
0.0
 10
568.8148751995421
 20
-59.6649131973136
 30
0.0
 10
568.6110722354651
 20
-59.667782579024
 30
0.0
 10
568.5082119378546
 20
-59.66923076923077
 30
0.0
  0
LINE
  5
67
330
1F
100
AcDbEntity
  8
0
  6
Continuous
 62
     7
370
    25
100
AcDbLine
 10
570.7223545661
 20
-59.5794871795
 30
0.0
 11
570.7223545661
 21
-59.2653846154
 31
0.0
  0
SPLINE
  5
68
330
1F
100
AcDbEntity
  8
0
  6
Continuous
 62
     7
370
    25
100
AcDbSpline
210
0.0
220
0.0
230
1.0
 70
     8
 71
     3
 72
    14
 73
    10
 74
     0
 42
0.00000001
 43
0.00000001
 40
0.0
 40
0.0
 40
0.0
 40
0.0
 40
0.0005565480511546
 40
0.0005565480511546
 40
0.0005565480511546
 40
0.0011133945366148
 40
0.0011133945366148
 40
0.0011133945366148
 40
0.0022266982749911
 40
0.0022266982749911
 40
0.0022266982749911
 40
0.0022266982749911
 10
568.5502792455469
 20
-59.98333333333333
 30
0.0
 10
568.7357779270219
 20
-59.98079724308909
 30
0.0
 10
568.9214978746844
 20
-59.97593137569817
 30
0.0
 10
569.1063469024574
 20
-59.96021420311459
 30
0.0
 10
569.2912961292222
 20
-59.94448851090358
 30
0.0
 10
569.4758353179396
 20
-59.92131784105468
 30
0.0
 10
569.6586440581428
 20
-59.88915453305077
 30
0.0
 10
570.022347477995
 20
-59.82516467621031
 30
0.0
 10
570.3835525328584
 20
-59.72641594348262
 30
0.0
 10
570.7223545660601
 20
-59.57948717948718
 30
0.0
  0
SPLINE
  5
69
330
1F
100
AcDbEntity
  8
0
  6
Continuous
 62
     7
370
    25
100
AcDbSpline
210
0.0
220
0.0
230
1.0
 70
     8
 71
     3
 72
    14
 73
    10
 74
     0
 42
0.00000001
 43
0.00000001
 40
0.0
 40
0.0
 40
0.0
 40
0.0
 40
0.0002753407837044
 40
0.0002753407837044
 40
0.0002753407837044
 40
0.000708871300487
 40
0.000708871300487
 40
0.000708871300487
 40
0.001097460391729
 40
0.001097460391729
 40
0.001097460391729
 40
0.001097460391729
 10
569.6903032840085
 20
-57.31486378205127
 30
0.0
 10
569.6883003144649
 20
-57.22310537935519
 30
0.0
 10
569.6827775088314
 20
-57.13074878250595
 30
0.0
 10
569.6651778450466
 20
-57.04067176997226
 30
0.0
 10
569.6377145133789
 20
-56.90011142171025
 30
0.0
 10
569.5873378213906
 20
-56.76139990003083
 30
0.0
 10
569.5135106741122
 20
-56.63867664056234
 30
0.0
 10
569.4469883095466
 20
-56.52809616023768
 30
0.0
 10
569.3601427990301
 20
-56.4294402844775
 30
0.0
 10
569.2668257199058
 20
-56.34030448717948
 30
0.0
  0
SPLINE
  5
6A
330
1F
100
AcDbEntity
  8
0
  6
Continuous
 62
     7
370
    25
100
AcDbSpline
210
0.0
220
0.0
230
1.0
 70
     8
 71
     3
 72
    15
 73
    11
 74
     0
 42
0.00000001
 43
0.00000001
 40
0.0
 40
0.0
 40
0.0
 40
0.0
 40
0.1284903061940383
 40
0.2531369171439191
 40
0.3753181436612898
 40
0.4967836021585352
 40
0.6178546912430556
 40
0.74165998831457
 40
0.8682446654430591
 40
1.0
 40
1.0
 40
1.0
 40
1.0
 10
569.2689290852906
 20
-58.28661858974358
 30
0.0
 10
569.3026147544618
 20
-58.25412235951089
 30
0.0
 10
569.3689784101999
 20
-58.19010200043821
 30
0.0
 10
569.4547203261737
 20
-58.0832655518522
 30
0.0
 10
569.527392868671
 20
-57.97039035532354
 30
0.0
 10
569.5874877070585
 20
-57.85170256128065
 30
0.0
 10
569.6332903363179
 20
-57.72614248293036
 30
0.0
 10
569.6658291613066
 20
-57.59474875569183
 30
0.0
 10
569.6872865930659
 20
-57.45695773968382
 30
0.0
 10
569.6892843917602
 20
-57.36285624621865
 30
0.0
 10
569.6903032840086
 20
-57.31486378205127
 30
0.0
  0
SPLINE
  5
6B
330
1F
100
AcDbEntity
  8
0
  6
Continuous
 62
     7
370
    25
100
AcDbSpline
210
0.0
220
0.0
230
1.0
 70
     8
 71
     3
 72
    14
 73
    10
 74
     0
 42
0.00000001
 43
0.00000001
 40
0.0
 40
0.0
 40
0.0
 40
0.0
 40
0.0002504470161729
 40
0.0002504470161729
 40
0.0002504470161729
 40
0.0006906102224386
 40
0.0006906102224386
 40
0.0006906102224386
 40
0.0010004285595336
 40
0.0010004285595336
 40
0.0010004285595336
 40
0.0010004285595336
 10
568.3595741173418
 20
-58.63717948717947
 30
0.0
 10
568.4430284349907
 20
-58.6350166777455
 30
0.0
 10
568.5269169470909
 20
-58.63063858021658
 30
0.0
 10
568.6091405832934
 20
-58.61619647065763
 30
0.0
 10
568.7521400374156
 20
-58.59107943766465
 30
0.0
 10
568.8931459413848
 20
-58.54135215871025
 30
0.0
 10
569.0191771396462
 20
-58.46926993974899
 30
0.0
 10
569.1087065362328
 20
-58.41806454253599
 30
0.0
 10
569.1910642242082
 20
-58.3542541496622
 30
0.0
 10
569.2689290852906
 20
-58.28661858974358
 30
0.0
  0
SPLINE
  5
6C
330
1F
100
AcDbEntity
  8
0
  6
Continuous
 62
     7
370
    25
100
AcDbSpline
210
0.0
220
0.0
230
1.0
 70
     8
 71
     3
 72
    20
 73
    16
 74
     0
 42
0.00000001
 43
0.00000001
 40
0.0
 40
0.0
 40
0.0
 40
0.0
 40
0.000487069232246
 40
0.000487069232246
 40
0.000487069232246
 40
0.0008947825490463
 40
0.0008947825490463
 40
0.0008947825490463
 40
0.0012999300823609
 40
0.0012999300823609
 40
0.0012999300823609
 40
0.0017724844370101
 40
0.0017724844370101
 40
0.0017724844370101
 40
0.0020642892093181
 40
0.0020642892093181
 40
0.0020642892093181
 40
0.0020642892093181
 10
567.0428673865727
 20
-57.31486378205127
 30
0.0
 10
567.0470156833413
 20
-57.47716718850074
 30
0.0
 10
567.0666717000652
 20
-57.64299614977243
 30
0.0
 10
567.1228616348996
 20
-57.79531914650803
 30
0.0
 10
567.170059299146
 20
-57.92326536460112
 30
0.0
 10
567.2400614150772
 20
-58.04483372247352
 30
0.0
 10
567.3271197661878
 20
-58.14980370740517
 30
0.0
 10
567.4139060003797
 20
-58.25444558930604
 30
0.0
 10
567.5182350884212
 20
-58.34605182641906
 30
0.0
 10
567.631439957003
 20
-58.42132753048315
 30
0.0
 10
567.7625509787595
 20
-58.50850995114165
 30
0.0
 10
567.912251606617
 20
-58.57271747874033
 30
0.0
 10
568.066090211204
 20
-58.6062519123376
 30
0.0
 10
568.1622028716115
 20
-58.62720298399446
 30
0.0
 10
568.2612297064567
 20
-58.63495064402209
 30
0.0
 10
568.3595741173418
 20
-58.63717948717947
 30
0.0
  0
SPLINE
  5
6D
330
1F
100
AcDbEntity
  8
0
  6
Continuous
 62
     7
370
    25
100
AcDbSpline
210
0.0
220
0.0
230
1.0
 70
     8
 71
     3
 72
    23
 73
    19
 74
     0
 42
0.00000001
 43
0.00000001
 40
0.0
 40
0.0
 40
0.0
 40
0.0
 40
0.0623365710896718
 40
0.1231799716151675
 40
0.1830318448924468
 40
0.2428628866228282
 40
0.3025127668975228
 40
0.3633105168155972
 40
0.4250635130276481
 40
0.4890357107235971
 40
0.5530796137471126
 40
0.6154370880533334
 40
0.6772771927335073
 40
0.7388611231702722
 40
0.8016785124879571
 40
0.8653666404070615
 40
0.9312586741024891
 40
1.0
 40
1.0
 40
1.0
 40
1.0
 10
568.3595741173418
 20
-55.98974358974358
 30
0.0
 10
568.316274059921
 20
-55.990724927218
 30
0.0
 10
568.230711127107
 20
-55.99266409583336
 30
0.0
 10
568.1046917575994
 20
-56.01100770995948
 30
0.0
 10
567.9824969487513
 20
-56.03953880426406
 30
0.0
 10
567.8646382035284
 20
-56.08037061109587
 30
0.0
 10
567.750755568907
 20
-56.13272883777505
 30
0.0
 10
567.6413452832804
 20
-56.19661907685464
 30
0.0
 10
567.536195984649
 20
-56.2724924203965
 30
0.0
 10
567.4361831610712
 20
-56.35848972672997
 30
0.0
 10
567.3440579179185
 20
-56.45356655596024
 30
0.0
 10
567.263458976402
 20
-56.55674889955455
 30
0.0
 10
567.1951018804762
 20
-56.66642075348755
 30
0.0
 10
567.1392377609874
 20
-56.78331496156731
 30
0.0
 10
567.0958853226125
 20
-56.90675312969342
 30
0.0
 10
567.0649245685846
 20
-57.03689960767585
 30
0.0
 10
567.0464891657357
 20
-57.17364156230551
 30
0.0
 10
567.0440915600788
 20
-57.26713019806022
 30
0.0
 10
567.0428673865727
 20
-57.31486378205127
 30
0.0
  0
SPLINE
  5
6E
330
1F
100
AcDbEntity
  8
0
  6
Continuous
 62
     7
370
    25
100
AcDbSpline
210
0.0
220
0.0
230
1.0
 70
     8
 71
     3
 72
    14
 73
    10
 74
     0
 42
0.00000001
 43
0.00000001
 40
0.0
 40
0.0
 40
0.0
 40
0.0
 40
0.0002500006110578
 40
0.0002500006110578
 40
0.0002500006110578
 40
0.0006858532039493
 40
0.0006858532039493
 40
0.0006858532039493
 40
0.0009985395731345
 40
0.0009985395731345
 40
0.0009985395731345
 40
0.0009985395731345
 10
569.2668257199059
 20
-56.34030448717948
 30
0.0
 10
569.2038398090571
 20
-56.28574027338795
 30
0.0
 10
569.1389922745094
 20
-56.23253512757065
 30
0.0
 10
569.0684784830695
 20
-56.18812472778731
 30
0.0
 10
568.946783940477
 20
-56.11148010015305
 30
0.0
 10
568.8101716010925
 20
-56.05459888195895
 30
0.0
 10
568.6698638391018
 20
-56.02301261014404
 30
0.0
 10
568.568380895101
 20
-56.00016663349736
 30
0.0
 10
568.4635610579379
 20
-55.99247173150697
 30
0.0
 10
568.3595741173418
 20
-55.98974358974358
 30
0.0
  0
LINE
  5
6F
330
1F
100
AcDbEntity
  8
0
  6
Continuous
 62
     7
370
    25
100
AcDbLine
 10
570.6774827712
 20
-55.3615384615
 30
0.0
 11
570.6774827712
 21
-55.0474358974
 31
0.0
  0
LINE
  5
70
330
1F
100
AcDbEntity
  8
0
  6
Continuous
 62
     7
370
    25
100
AcDbLine
 10
567.0877391814
 20
-55.3615384615
 30
0.0
 11
570.6774827712
 21
-55.3615384615
 31
0.0
  0
LINE
  5
71
330
1F
100
AcDbEntity
  8
0
  6
Continuous
 62
     7
370
    25
100
AcDbLine
 10
567.0877391814
 20
-55.0474358974
 30
0.0
 11
567.0877391814
 21
-55.3615384615
 31
0.0
  0
LINE
  5
72
330
1F
100
AcDbEntity
  8
0
  6
Continuous
 62
     7
370
    25
100
AcDbLine
 10
567.530147034
 20
-55.0474358974
 30
0.0
 11
567.0877391814
 21
-55.0474358974
 31
0.0
  0
SPLINE
  5
73
330
1F
100
AcDbEntity
  8
0
  6
Continuous
 62
     7
370
    25
100
AcDbSpline
210
0.0
220
0.0
230
1.0
 70
     8
 71
     3
 72
    15
 73
    11
 74
     0
 42
0.00000001
 43
0.00000001
 40
0.0
 40
0.0
 40
0.0
 40
0.0
 40
0.1276189341134494
 40
0.2518335714086103
 40
0.3732364555166444
 40
0.493361845259644
 40
0.614246215630363
 40
0.7379373843703844
 40
0.8657130786382795
 40
0.9999999999999999
 40
0.9999999999999999
 40
0.9999999999999999
 40
0.9999999999999999
 10
567.0428673865727
 20
-54.00276442307692
 30
0.0
 10
567.0440447615963
 20
-54.05356996229717
 30
0.0
 10
567.046368104595
 20
-54.15382577839577
 30
0.0
 10
567.0698900774596
 20
-54.30083587428508
 30
0.0
 10
567.1060236558797
 20
-54.44197714219546
 30
0.0
 10
567.1574060348281
 20
-54.57706147553959
 30
0.0
 10
567.2252928541396
 20
-54.70570364791335
 30
0.0
 10
567.3101340083768
 20
-54.82751876540548
 30
0.0
 10
567.4119377717248
 20
-54.94291875125523
 30
0.0
 10
567.4900966329684
 20
-55.012024513089
 30
0.0
 10
567.5301470340085
 20
-55.0474358974359
 30
0.0
  0
SPLINE
  5
74
330
1F
100
AcDbEntity
  8
0
  6
Continuous
 62
     7
370
    25
100
AcDbSpline
210
0.0
220
0.0
230
1.0
 70
     8
 71
     3
 72
    20
 73
    16
 74
     0
 42
0.00000001
 43
0.00000001
 40
0.0
 40
0.0
 40
0.0
 40
0.0
 40
0.0004685533356382
 40
0.0004685533356382
 40
0.0004685533356382
 40
0.0009418700304851
 40
0.0009418700304851
 40
0.0009418700304851
 40
0.0013662512367075
 40
0.0013662512367075
 40
0.0013662512367075
 40
0.0018487144886371
 40
0.0018487144886371
 40
0.0018487144886371
 40
0.0020840670429154
 40
0.0020840670429154
 40
0.0020840670429154
 40
0.0020840670429154
 10
568.3735965532394
 20
-52.66923076923077
 30
0.0
 10
568.2174689711836
 20
-52.67344491776176
 30
0.0
 10
568.0582984892912
 20
-52.6934356527731
 30
0.0
 10
567.9115044470284
 20
-52.74677503862048
 30
0.0
 10
567.7634508563685
 20
-52.80057209657031
 30
0.0
 10
567.6242637168871
 20
-52.88537499820725
 30
0.0
 10
567.5059612126915
 20
-52.9893870487225
 30
0.0
 10
567.399240499477
 20
-53.08321634075123
 30
0.0
 10
567.3040827843614
 20
-53.19302971571729
 30
0.0
 10
567.2298693294507
 20
-53.31421391345726
 30
0.0
 10
567.146075188205
 20
-53.45104254910554
 30
0.0
 10
567.0890989229707
 20
-53.6072509081847
 30
0.0
 10
567.0622841722887
 20
-53.76544225683035
 30
0.0
 10
567.0490192274752
 20
-53.84369767432927
 30
0.0
 10
567.0450212811531
 20
-53.92342193844875
 30
0.0
 10
567.0428673865727
 20
-54.00276442307692
 30
0.0
  0
SPLINE
  5
75
330
1F
100
AcDbEntity
  8
0
  6
Continuous
 62
     7
370
    25
100
AcDbSpline
210
0.0
220
0.0
230
1.0
 70
     8
 71
     3
 72
    23
 73
    19
 74
     0
 42
0.00000001
 43
0.00000001
 40
0.0
 40
0.0
 40
0.0
 40
0.0
 40
0.065121265147863
 40
0.1283832270694695
 40
0.1904384308504762
 40
0.251948581776393
 40
0.3130037208640489
 40
0.3751105418621489
 40
0.4381508389775904
 40
0.5029779217358961
 40
0.5677425355972389
 40
0.6306507100460321
 40
0.6919631257210318
 40
0.7523991231308261
 40
0.8130755676276888
 40
0.873907469627581
 40
0.9362185275035324
 40
1.0
 40
1.0
 40
1.0
 40
1.0
 10
569.6903032840086
 20
-54.01258012820512
 30
0.0
 10
569.6890024070303
 20
-53.9671873385757
 30
0.0
 10
569.6864377949312
 20
-53.8776977869664
 30
0.0
 10
569.66875394475
 20
-53.74587935261633
 30
0.0
 10
569.6386711798111
 20
-53.61895124941422
 30
0.0
 10
569.5955167899731
 20
-53.49749069497649
 30
0.0
 10
569.5412113734628
 20
-53.380575018538
 30
0.0
 10
569.4744070546972
 20
-53.26903208645471
 30
0.0
 10
569.3952385446964
 20
-53.1626382393091
 30
0.0
 10
569.3053352712828
 20
-53.06272010194378
 30
0.0
 10
569.2076525388522
 20
-52.97043677531551
 30
0.0
 10
569.102644345763
 20
-52.89058073856869
 30
0.0
 10
568.9936781185502
 20
-52.82171137712105
 30
0.0
 10
568.8790869807933
 20
-52.7660404140257
 30
0.0
 10
568.7597674954023
 20
-52.72243224509804
 30
0.0
 10
568.635239123476
 20
-52.69141751927963
 30
0.0
 10
568.5059631643477
 20
-52.67295988884423
 30
0.0
 10
568.4180604463385
 20
-52.67048343540132
 30
0.0
 10
568.3735965532394
 20
-52.66923076923077
 30
0.0
  0
SPLINE
  5
76
330
1F
100
AcDbEntity
  8
0
  6
Continuous
 62
     7
370
    25
100
AcDbSpline
210
0.0
220
0.0
230
1.0
 70
     8
 71
     3
 72
    14
 73
    10
 74
     0
 42
0.00000001
 43
0.00000001
 40
0.0
 40
0.0
 40
0.0
 40
0.0
 40
0.0004808519001897
 40
0.0004808519001897
 40
0.0004808519001897
 40
0.0008769995842864
 40
0.0008769995842864
 40
0.0008769995842864
 40
0.0012065929472356
 40
0.0012065929472356
 40
0.0012065929472356
 40
0.0012065929472356
 10
569.1504395019572
 20
-55.0474358974359
 30
0.0
 10
569.2769552910642
 20
-54.9490249981548
 30
0.0
 10
569.3986279493613
 20
-54.83805514076754
 30
0.0
 10
569.4880434060376
 20
-54.70502948122022
 30
0.0
 10
569.5619202188298
 20
-54.59512105920668
 30
0.0
 10
569.6172813782551
 20
-54.47066597604853
 30
0.0
 10
569.6504809872548
 20
-54.34246523244651
 30
0.0
 10
569.6782480716481
 20
-54.23524225681072
 30
0.0
 10
569.6869965954588
 20
-54.12329075683099
 30
0.0
 10
569.6903032840085
 20
-54.01258012820512
 30
0.0
  0
LINE
  5
77
330
1F
100
AcDbEntity
  8
0
  6
Continuous
 62
     7
370
    25
100
AcDbLine
 10
570.6774827712
 20
-55.0474358974
 30
0.0
 11
569.150439502
 21
-55.0474358974
 31
0.0
  0
SPLINE
  5
78
330
1F
100
AcDbEntity
  8
0
  6
Continuous
 62
     7
370
    25
100
AcDbSpline
210
0.0
220
0.0
230
1.0
 70
     8
 71
     3
 72
    14
 73
    10
 74
     0
 42
0.00000001
 43
0.00000001
 40
0.0
 40
0.0
 40
0.0
 40
0.0
 40
0.0002753407837045
 40
0.0002753407837045
 40
0.0002753407837045
 40
0.000708871300488
 40
0.000708871300488
 40
0.000708871300488
 40
0.0010974603917287
 40
0.0010974603917287
 40
0.0010974603917287
 40
0.0010974603917287
 10
569.6903032840085
 20
-50.80845352564102
 30
0.0
 10
569.6883003144649
 20
-50.71669512294493
 30
0.0
 10
569.6827775088316
 20
-50.62433852609564
 30
0.0
 10
569.6651778450466
 20
-50.53426151356196
 30
0.0
 10
569.6377145133786
 20
-50.39370116529962
 30
0.0
 10
569.5873378213903
 20
-50.25498964361986
 30
0.0
 10
569.5135106741116
 20
-50.1322663841511
 30
0.0
 10
569.4469883095461
 20
-50.02168590382684
 30
0.0
 10
569.3601427990299
 20
-49.92303002806698
 30
0.0
 10
569.2668257199059
 20
-49.83389423076922
 30
0.0
  0
SPLINE
  5
79
330
1F
100
AcDbEntity
  8
0
  6
Continuous
 62
     7
370
    25
100
AcDbSpline
210
0.0
220
0.0
230
1.0
 70
     8
 71
     3
 72
    15
 73
    11
 74
     0
 42
0.00000001
 43
0.00000001
 40
0.0
 40
0.0
 40
0.0
 40
0.0
 40
0.1284903061940383
 40
0.2531369171439191
 40
0.3753181436612898
 40
0.4967836021585352
 40
0.6178546912430556
 40
0.74165998831457
 40
0.8682446654430591
 40
1.0
 40
1.0
 40
1.0
 40
1.0
 10
569.2689290852906
 20
-51.78020833333333
 30
0.0
 10
569.3026147544618
 20
-51.74771210310062
 30
0.0
 10
569.3689784101999
 20
-51.68369174402795
 30
0.0
 10
569.4547203261737
 20
-51.57685529544194
 30
0.0
 10
569.527392868671
 20
-51.4639800989133
 30
0.0
 10
569.5874877070585
 20
-51.34529230487039
 30
0.0
 10
569.6332903363179
 20
-51.21973222652012
 30
0.0
 10
569.6658291613066
 20
-51.08833849928158
 30
0.0
 10
569.6872865930659
 20
-50.95054748327357
 30
0.0
 10
569.6892843917602
 20
-50.85644598980839
 30
0.0
 10
569.6903032840086
 20
-50.80845352564102
 30
0.0
  0
SPLINE
  5
7A
330
1F
100
AcDbEntity
  8
0
  6
Continuous
 62
     7
370
    25
100
AcDbSpline
210
0.0
220
0.0
230
1.0
 70
     8
 71
     3
 72
    14
 73
    10
 74
     0
 42
0.00000001
 43
0.00000001
 40
0.0
 40
0.0
 40
0.0
 40
0.0
 40
0.0002504470161727
 40
0.0002504470161727
 40
0.0002504470161727
 40
0.000690610222445
 40
0.000690610222445
 40
0.000690610222445
 40
0.0010004285595333
 40
0.0010004285595333
 40
0.0010004285595333
 40
0.0010004285595333
 10
568.3595741173418
 20
-52.13076923076922
 30
0.0
 10
568.4430284349907
 20
-52.12860642133525
 30
0.0
 10
568.5269169470907
 20
-52.12422832380638
 30
0.0
 10
568.6091405832932
 20
-52.10978621424738
 30
0.0
 10
568.7521400374176
 20
-52.08466918125391
 30
0.0
 10
568.8931459413889
 20
-52.03494190229879
 30
0.0
 10
569.0191771396519
 20
-51.96285968333564
 30
0.0
 10
569.1087065362361
 20
-51.9116542861231
 30
0.0
 10
569.1910642242096
 20
-51.84784389325041
 30
0.0
 10
569.2689290852906
 20
-51.78020833333333
 30
0.0
  0
SPLINE
  5
7B
330
1F
100
AcDbEntity
  8
0
  6
Continuous
 62
     7
370
    25
100
AcDbSpline
210
0.0
220
0.0
230
1.0
 70
     8
 71
     3
 72
    20
 73
    16
 74
     0
 42
0.00000001
 43
0.00000001
 40
0.0
 40
0.0
 40
0.0
 40
0.0
 40
0.0004870692322458
 40
0.0004870692322458
 40
0.0004870692322458
 40
0.000894782549042
 40
0.000894782549042
 40
0.000894782549042
 40
0.0012999300823522
 40
0.0012999300823522
 40
0.0012999300823522
 40
0.0017724844370063
 40
0.0017724844370063
 40
0.0017724844370063
 40
0.0020642892093196
 40
0.0020642892093196
 40
0.0020642892093196
 40
0.0020642892093196
 10
567.0428673865727
 20
-50.80845352564102
 30
0.0
 10
567.0470156833413
 20
-50.97075693209043
 30
0.0
 10
567.0666717000655
 20
-51.13658589336194
 30
0.0
 10
567.1228616348993
 20
-51.2889088900976
 30
0.0
 10
567.1700592991449
 20
-51.41685510818946
 30
0.0
 10
567.2400614150754
 20
-51.53842346606055
 30
0.0
 10
567.3271197661849
 20
-51.64339345099134
 30
0.0
 10
567.4139060003754
 20
-51.74803533289128
 30
0.0
 10
567.5182350884154
 20
-51.83964157000359
 30
0.0
 10
567.6314399569952
 20
-51.91491727406782
 30
0.0
 10
567.7625509787522
 20
-52.00209969472818
 30
0.0
 10
567.9122516066111
 20
-52.06630722232813
 30
0.0
 10
568.066090211199
 20
-52.09984165592628
 30
0.0
 10
568.162202871608
 20
-52.12079272758387
 30
0.0
 10
568.261229706455
 20
-52.1285403876118
 30
0.0
 10
568.3595741173418
 20
-52.13076923076922
 30
0.0
  0
SPLINE
  5
7C
330
1F
100
AcDbEntity
  8
0
  6
Continuous
 62
     7
370
    25
100
AcDbSpline
210
0.0
220
0.0
230
1.0
 70
     8
 71
     3
 72
    23
 73
    19
 74
     0
 42
0.00000001
 43
0.00000001
 40
0.0
 40
0.0
 40
0.0
 40
0.0
 40
0.0623365710896718
 40
0.1231799716151675
 40
0.1830318448924468
 40
0.2428628866228282
 40
0.3025127668975228
 40
0.3633105168155972
 40
0.4250635130276481
 40
0.4890357107235971
 40
0.5530796137471126
 40
0.6154370880533334
 40
0.6772771927335073
 40
0.7388611231702722
 40
0.8016785124879571
 40
0.8653666404070615
 40
0.9312586741024891
 40
1.0
 40
1.0
 40
1.0
 40
1.0
 10
568.3595741173418
 20
-49.48333333333333
 30
0.0
 10
568.316274059921
 20
-49.48431467080774
 30
0.0
 10
568.230711127107
 20
-49.48625383942309
 30
0.0
 10
568.1046917575994
 20
-49.50459745354924
 30
0.0
 10
567.9824969487513
 20
-49.53312854785382
 30
0.0
 10
567.8646382035284
 20
-49.57396035468561
 30
0.0
 10
567.750755568907
 20
-49.62631858136481
 30
0.0
 10
567.6413452832804
 20
-49.69020882044438
 30
0.0
 10
567.536195984649
 20
-49.76608216398625
 30
0.0
 10
567.4361831610712
 20
-49.85207947031971
 30
0.0
 10
567.3440579179185
 20
-49.94715629955
 30
0.0
 10
567.263458976402
 20
-50.05033864314429
 30
0.0
 10
567.1951018804762
 20
-50.16001049707729
 30
0.0
 10
567.1392377609874
 20
-50.27690470515707
 30
0.0
 10
567.0958853226125
 20
-50.40034287328316
 30
0.0
 10
567.0649245685846
 20
-50.53048935126561
 30
0.0
 10
567.0464891657357
 20
-50.66723130589526
 30
0.0
 10
567.0440915600788
 20
-50.76071994164996
 30
0.0
 10
567.0428673865727
 20
-50.80845352564102
 30
0.0
  0
SPLINE
  5
7D
330
1F
100
AcDbEntity
  8
0
  6
Continuous
 62
     7
370
    25
100
AcDbSpline
210
0.0
220
0.0
230
1.0
 70
     8
 71
     3
 72
    14
 73
    10
 74
     0
 42
0.00000001
 43
0.00000001
 40
0.0
 40
0.0
 40
0.0
 40
0.0
 40
0.0002500006110577
 40
0.0002500006110577
 40
0.0002500006110577
 40
0.0006858532039477
 40
0.0006858532039477
 40
0.0006858532039477
 40
0.0009985395731345
 40
0.0009985395731345
 40
0.0009985395731345
 40
0.0009985395731345
 10
569.2668257199059
 20
-49.83389423076922
 30
0.0
 10
569.2038398090571
 20
-49.77933001697773
 30
0.0
 10
569.1389922745096
 20
-49.72612487116038
 30
0.0
 10
569.0684784830697
 20
-49.68171447137706
 30
0.0
 10
568.9467839404775
 20
-49.60506984374305
 30
0.0
 10
568.8101716010935
 20
-49.54818862554912
 30
0.0
 10
568.6698638391032
 20
-49.51660235373411
 30
0.0
 10
568.5683808951019
 20
-49.49375637708718
 30
0.0
 10
568.4635610579385
 20
-49.48606147509675
 30
0.0
 10
568.3595741173419
 20
-49.48333333333333
 30
0.0
  0
LINE
  5
7E
330
1F
100
AcDbEntity
  8
0
  6
Continuous
 62
     7
370
    25
100
AcDbLine
 10
567.0877391814
 20
-46.0730769231
 30
0.0
 11
567.0877391814
 21
-46.3871794872
 31
0.0
  0
LINE
  5
7F
330
1F
100
AcDbEntity
  8
0
  6
Continuous
 62
     7
370
    25
100
AcDbLine
 10
570.5877391814
 20
-46.0730769231
 30
0.0
 11
567.0877391814
 21
-46.0730769231
 31
0.0
  0
LINE
  5
80
330
1F
100
AcDbEntity
  8
0
  6
Continuous
 62
     7
370
    25
100
AcDbLine
 10
570.5877391814
 20
-46.1389823718
 30
0.0
 11
570.5877391814
 21
-46.0730769231
 31
0.0
  0
LINE
  5
81
330
1F
100
AcDbEntity
  8
0
  6
Continuous
 62
     7
370
    25
100
AcDbLine
 10
567.8330316494
 20
-48.4512820513
 30
0.0
 11
570.5877391814
 21
-46.1389823718
 31
0.0
  0
LINE
  5
82
330
1F
100
AcDbEntity
  8
0
  6
Continuous
 62
     7
370
    25
100
AcDbLine
 10
570.5877391814
 20
-48.4512820513
 30
0.0
 11
567.8330316494
 21
-48.4512820513
 31
0.0
  0
LINE
  5
83
330
1F
100
AcDbEntity
  8
0
  6
Continuous
 62
     7
370
    25
100
AcDbLine
 10
570.5877391814
 20
-48.7653846154
 30
0.0
 11
570.5877391814
 21
-48.4512820513
 31
0.0
  0
LINE
  5
84
330
1F
100
AcDbEntity
  8
0
  6
Continuous
 62
     7
370
    25
100
AcDbLine
 10
567.0877391814
 20
-48.7653846154
 30
0.0
 11
570.5877391814
 21
-48.7653846154
 31
0.0
  0
LINE
  5
85
330
1F
100
AcDbEntity
  8
0
  6
Continuous
 62
     7
370
    25
100
AcDbLine
 10
567.0877391814
 20
-48.6938701923
 30
0.0
 11
567.0877391814
 21
-48.7653846154
 31
0.0
  0
LINE
  5
86
330
1F
100
AcDbEntity
  8
0
  6
Continuous
 62
     7
370
    25
100
AcDbLine
 10
569.8361366173
 20
-46.3871794872
 30
0.0
 11
567.0877391814
 21
-48.6938701923
 31
0.0
  0
LINE
  5
87
330
1F
100
AcDbEntity
  8
0
  6
Continuous
 62
     7
370
    25
100
AcDbLine
 10
567.0877391814
 20
-46.3871794872
 30
0.0
 11
569.8361366173
 21
-46.3871794872
 31
0.0
  0
SPLINE
  5
88
330
1F
100
AcDbEntity
  8
0
  6
Continuous
 62
     7
370
    25
100
AcDbSpline
210
0.0
220
0.0
230
1.0
 70
     8
 71
     3
 72
    15
 73
    11
 74
     0
 42
0.00000001
 43
0.00000001
 40
0.0
 40
0.0
 40
0.0
 40
0.0
 40
0.1155682986998146
 40
0.2340875918719446
 40
0.3559632049890088
 40
0.4813161960029242
 40
0.6092142665991647
 40
0.737857377820405
 40
0.8683333104959504
 40
1.0
 40
1.0
 40
1.0
 40
1.0
 10
570.72235456606
 20
-44.81666666666665
 30
0.0
 10
570.63150072486
 20
-44.78491941424508
 30
0.0
 10
570.4474731226708
 20
-44.7206142548586
 30
0.0
 10
570.1621680892332
 20
-44.63963471515908
 30
0.0
 10
569.8652864892047
 20
-44.57139032601277
 30
0.0
 10
569.5581570780814
 20
-44.5141291489195
 30
0.0
 10
569.2433560685749
 20
-44.4685689107466
 30
0.0
 10
568.9226234568094
 20
-44.43669640461462
 30
0.0
 10
568.5977568045529
 20
-44.41622900884004
 30
0.0
 10
568.3794698022599
 20
-44.41396011357082
 30
0.0
 10
568.2698305275983
 20
-44.41282051282049
 30
0.0
  0
LINE
  5
89
330
1F
100
AcDbEntity
  8
0
  6
Continuous
 62
     7
370
    25
100
AcDbLine
 10
570.7223545661
 20
-45.2205128205
 30
0.0
 11
570.7223545661
 21
-44.8166666667
 31
0.0
  0
SPLINE
  5
8A
330
1F
100
AcDbEntity
  8
0
  6
Continuous
 62
     7
370
    25
100
AcDbSpline
210
0.0
220
0.0
230
1.0
 70
     8
 71
     3
 72
    14
 73
    10
 74
     0
 42
0.00000001
 43
0.00000001
 40
0.0
 40
0.0
 40
0.0
 40
0.0
 40
0.0006198093270418
 40
0.0006198093270418
 40
0.0006198093270418
 40
0.0012400390952143
 40
0.0012400390952143
 40
0.0012400390952143
 40
0.0024787610064495
 40
0.0024787610064495
 40
0.0024787610064495
 40
0.0024787610064495
 10
568.3147023224701
 20
-44.72692307692305
 30
0.0
 10
568.5212832464215
 20
-44.72995070200091
 30
0.0
 10
568.7282111377788
 20
-44.73595909225537
 30
0.0
 10
568.9338193065166
 20
-44.7562106502809
 30
0.0
 10
569.1395758299482
 20
-44.77647682063289
 30
0.0
 10
569.3445271158729
 20
-44.80731728793351
 30
0.0
 10
569.5472737911265
 20
-44.84781729125488
 30
0.0
 10
569.9502354407425
 20
-44.92831157372552
 30
0.0
 10
570.3493719756124
 20
-45.04805584676267
 30
0.0
 10
570.7223545660598
 20
-45.22051282051279
 30
0.0
  0
SPLINE
  5
8B
330
1F
100
AcDbEntity
  8
0
  6
Continuous
 62
     7
370
    25
100
AcDbSpline
210
0.0
220
0.0
230
1.0
 70
     8
 71
     3
 72
    14
 73
    10
 74
     0
 42
0.00000001
 43
0.00000001
 40
0.0
 40
0.0
 40
0.0
 40
0.0
 40
0.0005674849514206
 40
0.0005674849514206
 40
0.0005674849514206
 40
0.0011344742846912
 40
0.0011344742846912
 40
0.0011344742846912
 40
0.0022645221988835
 40
0.0022645221988835
 40
0.0022645221988835
 40
0.0022645221988835
 10
566.1005596942649
 20
-45.1307692307692
 30
0.0
 10
566.2758671422027
 20
-45.05970989846618
 30
0.0
 10
566.454332596531
 20
-44.99503334374472
 30
0.0
 10
566.6366820954559
 20
-44.94472638347297
 30
0.0
 10
566.8190246144593
 20
-44.89442134883639
 30
0.0
 10
567.004200758909
 20
-44.85363489906832
 30
0.0
 10
567.1906098674986
 20
-44.82152516563378
 30
0.0
 10
567.5611745280555
 20
-44.75769388313489
 30
0.0
 10
567.9387196157444
 20
-44.73236408072584
 30
0.0
 10
568.3147023224701
 20
-44.72692307692305
 30
0.0
  0
LINE
  5
8C
330
1F
100
AcDbEntity
  8
0
  6
Continuous
 62
     7
370
    25
100
AcDbLine
 10
566.1005596943
 20
-44.8166666667
 30
0.0
 11
566.1005596943
 21
-45.1307692308
 31
0.0
  0
SPLINE
  5
8D
330
1F
100
AcDbEntity
  8
0
  6
Continuous
 62
     7
370
    25
100
AcDbSpline
210
0.0
220
0.0
230
1.0
 70
     8
 71
     3
 72
    14
 73
    10
 74
     0
 42
0.00000001
 43
0.00000001
 40
0.0
 40
0.0
 40
0.0
 40
0.0
 40
0.000555753098503
 40
0.000555753098503
 40
0.000555753098503
 40
0.0011119390206603
 40
0.0011119390206603
 40
0.0011119390206603
 40
0.0022231246726478
 40
0.0022231246726478
 40
0.0022231246726478
 40
0.0022231246726478
 10
568.2698305275983
 20
-44.41282051282049
 30
0.0
 10
568.0845967817877
 20
-44.41535123982131
 30
0.0
 10
567.899137713716
 20
-44.42016323537298
 30
0.0
 10
567.7145573992561
 20
-44.43591292362689
 30
0.0
 10
567.5298535491025
 20
-44.45167315281346
 30
0.0
 10
567.3456256435493
 20
-44.47565370608356
 30
0.0
 10
567.1632061306285
 20
-44.5086236680393
 30
0.0
 10
566.8002879798794
 20
-44.57421641868132
 30
0.0
 10
566.4399539738154
 20
-44.67236311131102
 30
0.0
 10
566.1005596942649
 20
-44.81666666666664
 30
0.0
  0
LINE
  5
8E
330
1F
100
AcDbEntity
  8
0
  6
Continuous
 62
     7
370
    25
100
AcDbLine
 10
570.5877391814
 20
-40.66953125
 30
0.0
 11
570.2287648225
 21
-40.4641025641
 31
0.0
  0
LINE
  5
8F
330
1F
100
AcDbEntity
  8
0
  6
Continuous
 62
     7
370
    25
100
AcDbLine
 10
570.5877391814
 20
-41.3166666667
 30
0.0
 11
570.5877391814
 21
-40.66953125
 31
0.0
  0
LINE
  5
90
330
1F
100
AcDbEntity
  8
0
  6
Continuous
 62
     7
370
    25
100
AcDbLine
 10
567.0877391814
 20
-41.3166666667
 30
0.0
 11
570.5877391814
 21
-41.3166666667
 31
0.0
  0
LINE
  5
91
330
1F
100
AcDbEntity
  8
0
  6
Continuous
 62
     7
370
    25
100
AcDbLine
 10
567.0877391814
 20
-41.0025641026
 30
0.0
 11
567.0877391814
 21
-41.3166666667
 31
0.0
  0
LINE
  5
92
330
1F
100
AcDbEntity
  8
0
  6
Continuous
 62
     7
370
    25
100
AcDbLine
 10
570.2287648225
 20
-41.0025641026
 30
0.0
 11
567.0877391814
 21
-41.0025641026
 31
0.0
  0
LINE
  5
93
330
1F
100
AcDbEntity
  8
0
  6
Continuous
 62
     7
370
    25
100
AcDbLine
 10
570.2287648225
 20
-40.4641025641
 30
0.0
 11
570.2287648225
 21
-41.0025641026
 31
0.0
  0
SPLINE
  5
94
330
1F
100
AcDbEntity
  8
0
  6
Continuous
 62
     7
370
    25
100
AcDbSpline
210
0.0
220
0.0
230
1.0
 70
     8
 71
     3
 72
    14
 73
    10
 74
     0
 42
0.00000001
 43
0.00000001
 40
0.0
 40
0.0
 40
0.0
 40
0.0
 40
0.0000975820056564
 40
0.0000975820056564
 40
0.0000975820056564
 40
0.0001952347253777
 40
0.0001952347253777
 40
0.0001952347253777
 40
0.0003901481247697
 40
0.0003901481247697
 40
0.0003901481247697
 40
0.0003901481247697
 10
570.6564491173418
 20
-38.35512820512819
 30
0.0
 10
570.6652125100435
 20
-38.323803606411
 30
0.0
 10
570.6739778804035
 20
-38.29247229736689
 30
0.0
 10
570.6819429465049
 20
-38.26093525155668
 30
0.0
 10
570.6899113266174
 20
-38.22938508418405
 30
0.0
 10
570.6970238439221
 20
-38.19759783172031
 30
0.0
 10
570.7029927311197
 20
-38.16560907543817
 30
0.0
 10
570.7148703080943
 20
-38.10195417587556
 30
0.0
 10
570.7201806724697
 20
-38.03703276052918
 30
0.0
 10
570.7223545660598
 20
-37.97231570512819
 30
0.0
  0
LINE
  5
95
330
1F
100
AcDbEntity
  8
0
  6
Continuous
 62
     7
370
    25
100
AcDbLine
 10
570.3297263609
 20
-38.3551282051
 30
0.0
 11
570.6564491173
 21
-38.3551282051
 31
0.0
  0
SPLINE
  5
96
330
1F
100
AcDbEntity
  8
0
  6
Continuous
 62
     7
370
    25
100
AcDbSpline
210
0.0
220
0.0
230
1.0
 70
     8
 71
     3
 72
    14
 73
    10
 74
     0
 42
0.00000001
 43
0.00000001
 40
0.0
 40
0.0
 40
0.0
 40
0.0
 40
0.0000827859862018
 40
0.0000827859862018
 40
0.0000827859862018
 40
0.0001656782438585
 40
0.0001656782438585
 40
0.0001656782438585
 40
0.0003299111147394
 40
0.0003299111147394
 40
0.0003299111147394
 40
0.0003299111147394
 10
570.4082520019573
 20
-38.0368189102564
 30
0.0
 10
570.4069980242592
 20
-38.06438573284926
 30
0.0
 10
570.4056458326894
 20
-38.09204244423371
 30
0.0
 10
570.4015652781662
 20
-38.11933440720301
 30
0.0
 10
570.3974787213449
 20
-38.14666651532843
 30
0.0
 10
570.3912113617218
 20
-38.17368016480251
 30
0.0
 10
570.3840271157331
 20
-38.20036594174091
 30
0.0
 10
570.3698149066922
 20
-38.25315698492941
 30
0.0
 10
570.350111916153
 20
-38.30440039948797
 30
0.0
 10
570.3297263609315
 20
-38.35512820512819
 30
0.0
  0
SPLINE
  5
97
330
1F
100
AcDbEntity
  8
0
  6
Continuous
 62
     7
370
    25
100
AcDbSpline
210
0.0
220
0.0
230
1.0
 70
     8
 71
     3
 72
    20
 73
    16
 74
     0
 42
0.00000001
 43
0.00000001
 40
0.0000000000000001
 40
0.0000000000000001
 40
0.0000000000000001
 40
0.0000000000000001
 40
0.0002702831789767
 40
0.0002702831789767
 40
0.0002702831789767
 40
0.0003157266009103
 40
0.0003157266009103
 40
0.0003157266009103
 40
0.0003719865387965
 40
0.0003719865387965
 40
0.0003719865387965
 40
0.0004577959344767
 40
0.0004577959344767
 40
0.0004577959344767
 40
0.0005708147328335
 40
0.0005708147328335
 40
0.0005708147328335
 40
0.0005708147328335
 10
570.0001991173419
 20
-37.77389823717948
 30
0.0
 10
570.0902930931468
 20
-37.77362406148443
 30
0.0
 10
570.183349539011
 20
-37.76436266800792
 30
0.0
 10
570.2700723504679
 20
-37.78877892533094
 30
0.0
 10
570.2848095402958
 20
-37.79292808762184
 30
0.0
 10
570.2991227329777
 20
-37.79949521819287
 30
0.0
 10
570.3116483451053
 20
-37.80829915779789
 30
0.0
 10
570.3271385623397
 20
-37.81918684421272
 30
0.0
 10
570.3399595122718
 20
-37.83375760317815
 30
0.0
 10
570.3515306093818
 20
-37.84874420576513
 30
0.0
 10
570.3690692655742
 20
-37.87145984523838
 30
0.0
 10
570.3833124166354
 20
-37.89732334671875
 30
0.0
 10
570.3922842124074
 20
-37.92458342042254
 30
0.0
 10
570.4040977582565
 20
-37.96047792122631
 30
0.0
 10
570.4068012158497
 20
-37.99905821278993
 30
0.0
 10
570.4082520019572
 20
-38.03681891025639
 30
0.0
  0
LINE
  5
98
330
1F
100
AcDbEntity
  8
0
  6
Continuous
 62
     7
370
    25
100
AcDbLine
 10
569.6454314891
 20
-37.7738982372
 30
0.0
 11
570.0001991173
 21
-37.7738982372
 31
0.0
  0
LINE
  5
99
330
1F
100
AcDbEntity
  8
0
  6
Continuous
 62
     7
370
    25
100
AcDbLine
 10
569.6454314891
 20
-38.3102564103
 30
0.0
 11
569.6454314891
 21
-37.7738982372
 31
0.0
  0
LINE
  5
9A
330
1F
100
AcDbEntity
  8
0
  6
Continuous
 62
     7
370
    25
100
AcDbLine
 10
569.331328925
 20
-38.3102564103
 30
0.0
 11
569.6454314891
 21
-38.3102564103
 31
0.0
  0
LINE
  5
9B
330
1F
100
AcDbEntity
  8
0
  6
Continuous
 62
     7
370
    25
100
AcDbLine
 10
569.331328925
 20
-37.7731971154
 30
0.0
 11
569.331328925
 21
-38.3102564103
 31
0.0
  0
LINE
  5
9C
330
1F
100
AcDbEntity
  8
0
  6
Continuous
 62
     7
370
    25
100
AcDbLine
 10
567.0877391814
 20
-37.7717948718
 30
0.0
 11
569.331328925
 21
-37.7731971154
 31
0.0
  0
LINE
  5
9D
330
1F
100
AcDbEntity
  8
0
  6
Continuous
 62
     7
370
    25
100
AcDbLine
 10
567.0877391814
 20
-37.4576923077
 30
0.0
 11
567.0877391814
 21
-37.7717948718
 31
0.0
  0
LINE
  5
9E
330
1F
100
AcDbEntity
  8
0
  6
Continuous
 62
     7
370
    25
100
AcDbLine
 10
569.331328925
 20
-37.4576923077
 30
0.0
 11
567.0877391814
 21
-37.4576923077
 31
0.0
  0
LINE
  5
9F
330
1F
100
AcDbEntity
  8
0
  6
Continuous
 62
     7
370
    25
100
AcDbLine
 10
569.331328925
 20
-37.0987179487
 30
0.0
 11
569.331328925
 21
-37.4576923077
 31
0.0
  0
LINE
  5
A0
330
1F
100
AcDbEntity
  8
0
  6
Continuous
 62
     7
370
    25
100
AcDbLine
 10
569.6454314891
 20
-37.0987179487
 30
0.0
 11
569.331328925
 21
-37.0987179487
 31
0.0
  0
LINE
  5
A1
330
1F
100
AcDbEntity
  8
0
  6
Continuous
 62
     7
370
    25
100
AcDbLine
 10
569.6454314891
 20
-37.4576923077
 30
0.0
 11
569.6454314891
 21
-37.0987179487
 31
0.0
  0
LINE
  5
A2
330
1F
100
AcDbEntity
  8
0
  6
Continuous
 62
     7
370
    25
100
AcDbLine
 10
570.0541854955
 20
-37.4576923077
 30
0.0
 11
569.6454314891
 21
-37.4576923077
 31
0.0
  0
SPLINE
  5
A3
330
1F
100
AcDbEntity
  8
0
  6
Continuous
 62
     7
370
    25
100
AcDbSpline
210
0.0
220
0.0
230
1.0
 70
     8
 71
     3
 72
    20
 73
    16
 74
     0
 42
0.00000001
 43
0.00000001
 40
0.0
 40
0.0
 40
0.0
 40
0.0
 40
0.0002082056393261
 40
0.0002082056393261
 40
0.0002082056393261
 40
0.0003634053201887
 40
0.0003634053201887
 40
0.0003634053201887
 40
0.000520335418332
 40
0.000520335418332
 40
0.000520335418332
 40
0.000652070775627
 40
0.000652070775627
 40
0.000652070775627
 40
0.0009655253571769
 40
0.0009655253571769
 40
0.0009655253571769
 40
0.0009655253571769
 10
570.7223545660598
 20
-37.97231570512819
 30
0.0
 10
570.7197979664646
 20
-37.90296093085228
 30
0.0
 10
570.713466672633
 20
-37.83193446635542
 30
0.0
 10
570.6899061964
 20
-37.76665411038188
 30
0.0
 10
570.672246126808
 20
-37.71772234779406
 30
0.0
 10
570.6466458751848
 20
-37.67090423304035
 30
0.0
 10
570.6144436404877
 20
-37.63004824781844
 30
0.0
 10
570.5820506431014
 20
-37.58895023598937
 30
0.0
 10
570.5413671648047
 20
-37.55281445499121
 30
0.0
 10
570.4955511165709
 20
-37.52753120796444
 30
0.0
 10
570.4567448098558
 20
-37.50611623489932
 30
0.0
 10
570.4138503613502
 20
-37.49142415098773
 30
0.0
 10
570.3704293775944
 20
-37.48252759648975
 30
0.0
 10
570.2668421418573
 20
-37.46130353825067
 30
0.0
 10
570.1599225443225
 20
-37.45836504244203
 30
0.0
 10
570.054185495547
 20
-37.45769230769229
 30
0.0
  0
LINE
  5
A4
330
1F
100
AcDbEntity
  8
0
  6
Continuous
 62
     7
370
    25
100
AcDbLine
 10
569.6454314891
 20
-34.3166666667
 30
0.0
 11
567.0877391814
 21
-34.3166666667
 31
0.0
  0
LINE
  5
A5
330
1F
100
AcDbEntity
  8
0
  6
Continuous
 62
     7
370
    25
100
AcDbLine
 10
569.6454314891
 20
-34.6307692308
 30
0.0
 11
569.6454314891
 21
-34.3166666667
 31
0.0
  0
LINE
  5
A6
330
1F
100
AcDbEntity
  8
0
  6
Continuous
 62
     7
370
    25
100
AcDbLine
 10
569.1840933481
 20
-34.6307692308
 30
0.0
 11
569.6454314891
 21
-34.6307692308
 31
0.0
  0
SPLINE
  5
A7
330
1F
100
AcDbEntity
  8
0
  6
Continuous
 62
     7
370
    25
100
AcDbSpline
210
0.0
220
0.0
230
1.0
 70
     8
 71
     3
 72
    14
 73
    10
 74
     0
 42
0.00000001
 43
0.00000001
 40
0.0
 40
0.0
 40
0.0
 40
0.0
 40
0.0004245606689809
 40
0.0004245606689809
 40
0.0004245606689809
 40
0.000854339006648
 40
0.000854339006648
 40
0.000854339006648
 40
0.0011339828205198
 40
0.0011339828205198
 40
0.0011339828205198
 40
0.0011339828205198
 10
569.6903032840086
 20
-35.60392628205127
 30
0.0
 10
569.6857339543812
 20
-35.46247984433396
 30
0.0
 10
569.6665314345175
 20
-35.31842394012999
 30
0.0
 10
569.6175749746302
 20
-35.18564126599114
 30
0.0
 10
569.5681539804712
 20
-35.05159865387903
 30
0.0
 10
569.4901663128218
 20
-34.92563027934087
 30
0.0
 10
569.393977455771
 20
-34.82000092591683
 30
0.0
 10
569.3305542611682
 20
-34.75035303484726
 30
0.0
 10
569.257595499405
 20
-34.689682421985
 30
0.0
 10
569.1840933481111
 20
-34.63076923076922
 30
0.0
  0
SPLINE
  5
A8
330
1F
100
AcDbEntity
  8
0
  6
Continuous
 62
     7
370
    25
100
AcDbSpline
210
0.0
220
0.0
230
1.0
 70
     8
 71
     3
 72
    23
 73
    19
 74
     0
 42
0.00000001
 43
0.00000001
 40
0.0
 40
0.0
 40
0.0
 40
0.0
 40
0.000553515005027
 40
0.000553515005027
 40
0.000553515005027
 40
0.000866834297498
 40
0.000866834297498
 40
0.000866834297498
 40
0.001182824453564
 40
0.001182824453564
 40
0.001182824453564
 40
0.0014731665579922
 40
0.0014731665579922
 40
0.0014731665579922
 40
0.0017795240722445
 40
0.0017795240722445
 40
0.0017795240722445
 40
0.0018351737698932
 40
0.0018351737698932
 40
0.0018351737698932
 40
0.0018351737698932
 10
568.3939290852907
 20
-36.56025641025641
 30
0.0
 10
568.5784332896595
 20
-36.55971399569522
 30
0.0
 10
568.7648215009199
 20
-36.55251945335931
 30
0.0
 10
568.9456692076183
 20
-36.51596534790925
 30
0.0
 10
569.0477276809746
 20
-36.49533663071263
 30
0.0
 10
569.1492822470163
 20
-36.46241925547925
 30
0.0
 10
569.2399573264105
 20
-36.41123814632897
 30
0.0
 10
569.3312314083615
 20
-36.35971893308833
 30
0.0
 10
569.414349075761
 20
-36.2902818144057
 30
0.0
 10
569.4811613525203
 20
-36.20952720436278
 30
0.0
 10
569.5427773584743
 20
-36.13505321882341
 30
0.0
 10
569.5925269896577
 20
-36.04930610884914
 30
0.0
 10
569.6275564907841
 20
-35.95921814759635
 30
0.0
 10
569.6644371001697
 20
-35.8643695541973
 30
0.0
 10
569.6829397690293
 20
-35.76160149787232
 30
0.0
 10
569.6879949976123
 20
-35.65996056279987
 30
0.0
 10
569.6889236140794
 20
-35.64128970657891
 30
0.0
 10
569.6896134192951
 20
-35.62260748349132
 30
0.0
 10
569.6903032840086
 20
-35.60392628205127
 30
0.0
  0
LINE
  5
A9
330
1F
100
AcDbEntity
  8
0
  6
Continuous
 62
     7
370
    25
100
AcDbLine
 10
567.0877391814
 20
-36.5602564103
 30
0.0
 11
568.3939290853
 21
-36.5602564103
 31
0.0
  0
LINE
  5
AA
330
1F
100
AcDbEntity
  8
0
  6
Continuous
 62
     7
370
    25
100
AcDbLine
 10
567.0877391814
 20
-36.2461538462
 30
0.0
 11
567.0877391814
 21
-36.5602564103
 31
0.0
  0
LINE
  5
AB
330
1F
100
AcDbEntity
  8
0
  6
Continuous
 62
     7
370
    25
100
AcDbLine
 10
568.2908641814
 20
-36.2461538462
 30
0.0
 11
567.0877391814
 21
-36.2461538462
 31
0.0
  0
SPLINE
  5
AC
330
1F
100
AcDbEntity
  8
0
  6
Continuous
 62
     7
370
    25
100
AcDbSpline
210
0.0
220
0.0
230
1.0
 70
     8
 71
     3
 72
    14
 73
    10
 74
     0
 42
0.00000001
 43
0.00000001
 40
0.0
 40
0.0
 40
0.0
 40
0.0
 40
0.0001464428465226
 40
0.0001464428465226
 40
0.0001464428465226
 40
0.000292462300776
 40
0.000292462300776
 40
0.000292462300776
 40
0.0005834567207713
 40
0.0005834567207713
 40
0.0005834567207713
 40
0.0005834567207713
 10
568.872795271188
 20
-36.20899439102562
 30
0.0
 10
568.8250968443291
 20
-36.21937197356552
 30
0.0
 10
568.7765991380023
 20
-36.22630105782964
 30
0.0
 10
568.7280052001294
 20
-36.23093391290868
 30
0.0
 10
568.6794938819279
 20
-36.23555889118286
 30
0.0
 10
568.6308451623021
 20
-36.23890666877298
 30
0.0
 10
568.582159793689
 20
-36.24102168666721
 30
0.0
 10
568.4851376970655
 20
-36.24523657660929
 30
0.0
 10
568.3879762929927
 20
-36.24561503164133
 30
0.0
 10
568.2908641814444
 20
-36.24615384615383
 30
0.0
  0
SPLINE
  5
AD
330
1F
100
AcDbEntity
  8
0
  6
Continuous
 62
     7
370
    25
100
AcDbSpline
210
0.0
220
0.0
230
1.0
 70
     8
 71
     3
 72
    15
 73
    11
 74
     0
 42
0.00000001
 43
0.00000001
 40
0.0
 40
0.0
 40
0.0
 40
0.0
 40
0.1407386910699275
 40
0.2700189621433278
 40
0.3907190350710198
 40
0.5068223535253089
 40
0.6215239708755211
 40
0.7391668368063427
 40
0.8644804716293462
 40
1.0
 40
1.0
 40
1.0
 40
1.0
 10
569.376200719906
 20
-35.54923878205127
 30
0.0
 10
569.3749356554816
 20
-35.59190274381291
 30
0.0
 10
569.3725085234662
 20
-35.67375712648638
 30
0.0
 10
569.3481322542676
 20
-35.79013576715871
 30
0.0
 10
569.3091582995406
 20
-35.89444290992657
 30
0.0
 10
569.2529874628356
 20
-35.98567198556694
 30
0.0
 10
569.1808107412111
 20
-36.06356983493207
 30
0.0
 10
569.0926125533816
 20
-36.12738401571944
 30
0.0
 10
568.9889382007602
 20
-36.17791799884463
 30
0.0
 10
568.9125064561356
 20
-36.19836885951931
 30
0.0
 10
568.872795271188
 20
-36.20899439102562
 30
0.0
  0
SPLINE
  5
AE
330
1F
100
AcDbEntity
  8
0
  6
Continuous
 62
     7
370
    25
100
AcDbSpline
210
0.0
220
0.0
230
1.0
 70
     8
 71
     3
 72
    17
 73
    13
 74
     0
 42
0.00000001
 43
0.00000001
 40
0.0
 40
0.0
 40
0.0
 40
0.0
 40
0.0003135790458777
 40
0.0003135790458777
 40
0.0003135790458777
 40
0.0006269759849057
 40
0.0006269759849057
 40
0.0006269759849057
 40
0.0009562441428634
 40
0.0009562441428634
 40
0.0009562441428634
 40
0.00117622062049
 40
0.00117622062049
 40
0.00117622062049
 40
0.00117622062049
 10
568.6989170660598
 20
-34.67914663461537
 30
0.0
 10
568.7992728253757
 20
-34.7083781095896
 30
0.0
 10
568.8979231442022
 20
-34.75100122382313
 30
0.0
 10
568.9832605594573
 20
-34.81136083875423
 30
0.0
 10
569.0687777070474
 20
-34.87184757933687
 30
0.0
 10
569.1446365142798
 20
-34.94798410510843
 30
0.0
 10
569.2065274353669
 20
-35.03249056761411
 30
0.0
 10
569.2712685335193
 20
-35.12088868946316
 30
0.0
 10
569.3220643023113
 20
-35.22248831147181
 30
0.0
 10
569.3491082430845
 20
-35.32866864394391
 30
0.0
 10
569.3673915378205
 20
-35.40045279441323
 30
0.0
 10
569.3748060140562
 20
-35.4751759849086
 30
0.0
 10
569.376200719906
 20
-35.54923878205127
 30
0.0
  0
SPLINE
  5
AF
330
1F
100
AcDbEntity
  8
0
  6
Continuous
 62
     7
370
    25
100
AcDbSpline
210
0.0
220
0.0
230
1.0
 70
     8
 71
     3
 72
    14
 73
    10
 74
     0
 42
0.00000001
 43
0.00000001
 40
0.0
 40
0.0
 40
0.0
 40
0.0
 40
0.0001724863044784
 40
0.0001724863044784
 40
0.0001724863044784
 40
0.0003450240345238
 40
0.0003450240345238
 40
0.0003450240345238
 40
0.0006898418439015
 40
0.0006898418439015
 40
0.0006898418439015
 40
0.0006898418439015
 10
568.0125188288804
 20
-34.63076923076922
 30
0.0
 10
568.0700138456259
 20
-34.63098849150474
 30
0.0
 10
568.12751299542
 20
-34.6311566552002
 30
0.0
 10
568.1849993992142
 20
-34.63217567663115
 30
0.0
 10
568.2424954177067
 20
-34.63319486849515
 30
0.0
 10
568.2999599987103
 20
-34.63573010358682
 30
0.0
 10
568.3573995188179
 20
-34.63847462984039
 30
0.0
 10
568.4719124997184
 20
-34.64394619161298
 30
0.0
 10
568.5871495683082
 20
-34.65362826418812
 30
0.0
 10
568.69891706606
 20
-34.67914663461537
 30
0.0
  0
LINE
  5
B0
330
1F
100
AcDbEntity
  8
0
  6
Continuous
 62
     7
370
    25
100
AcDbLine
 10
567.0877391814
 20
-34.6307692308
 30
0.0
 11
568.0125188289
 21
-34.6307692308
 31
0.0
  0
LINE
  5
B1
330
1F
100
AcDbEntity
  8
0
  6
Continuous
 62
     7
370
    25
100
AcDbLine
 10
567.0877391814
 20
-34.3166666667
 30
0.0
 11
567.0877391814
 21
-34.6307692308
 31
0.0
  0
LINE
  5
B2
330
1F
100
AcDbEntity
  8
0
  6
Continuous
 62
     7
370
    25
100
AcDbLine
 10
570.5877391814
 20
-33.3294871795
 30
0.0
 11
567.0877391814
 21
-33.3294871795
 31
0.0
  0
LINE
  5
B3
330
1F
100
AcDbEntity
  8
0
  6
Continuous
 62
     7
370
    25
100
AcDbLine
 10
570.5877391814
 20
-33.6435897436
 30
0.0
 11
570.5877391814
 21
-33.3294871795
 31
0.0
  0
LINE
  5
B4
330
1F
100
AcDbEntity
  8
0
  6
Continuous
 62
     7
370
    25
100
AcDbLine
 10
567.0877391814
 20
-33.6435897436
 30
0.0
 11
570.5877391814
 21
-33.6435897436
 31
0.0
  0
LINE
  5
B5
330
1F
100
AcDbEntity
  8
0
  6
Continuous
 62
     7
370
    25
100
AcDbLine
 10
567.0877391814
 20
-33.3294871795
 30
0.0
 11
567.0877391814
 21
-33.6435897436
 31
0.0
  0
LINE
  5
B6
330
1F
100
AcDbEntity
  8
0
  6
Continuous
 62
     7
370
    25
100
AcDbLine
 10
569.6454314891
 20
-28.9320512821
 30
0.0
 11
567.0877391814
 21
-28.9320512821
 31
0.0
  0
LINE
  5
B7
330
1F
100
AcDbEntity
  8
0
  6
Continuous
 62
     7
370
    25
100
AcDbLine
 10
569.6454314891
 20
-29.2461538462
 30
0.0
 11
569.6454314891
 21
-28.9320512821
 31
0.0
  0
LINE
  5
B8
330
1F
100
AcDbEntity
  8
0
  6
Continuous
 62
     7
370
    25
100
AcDbLine
 10
569.1840933481
 20
-29.2461538462
 30
0.0
 11
569.6454314891
 21
-29.2461538462
 31
0.0
  0
SPLINE
  5
B9
330
1F
100
AcDbEntity
  8
0
  6
Continuous
 62
     7
370
    25
100
AcDbSpline
210
0.0
220
0.0
230
1.0
 70
     8
 71
     3
 72
    15
 73
    11
 74
     0
 42
0.00000001
 43
0.00000001
 40
0.0
 40
0.0
 40
0.0
 40
0.0
 40
0.1231402455893973
 40
0.2434110992594087
 40
0.361889978475224
 40
0.4800702186075635
 40
0.6010116861957353
 40
0.7264312190368141
 40
0.8590240337312105
 40
1.0
 40
1.0
 40
1.0
 40
1.0
 10
569.6903032840086
 20
-30.21931089743589
 30
0.0
 10
569.6887905440614
 20
-30.17248309244206
 30
0.0
 10
569.6858003137617
 20
-30.07991865556853
 30
0.0
 10
569.6629154852221
 20
-29.94380394948075
 30
0.0
 10
569.6247495541367
 20
-29.81332567951758
 30
0.0
 10
569.5719029279877
 20
-29.68770266941772
 30
0.0
 10
569.5017991340435
 20
-29.56770066593053
 30
0.0
 10
569.4138539089989
 20
-29.45315676560794
 30
0.0
 10
569.3071333344386
 20
-29.3447724323325
 30
0.0
 10
569.2259360709487
 20
-29.27969148128594
 30
0.0
 10
569.184093348111
 20
-29.24615384615383
 30
0.0
  0
SPLINE
  5
BA
330
1F
100
AcDbEntity
  8
0
  6
Continuous
 62
     7
370
    25
100
AcDbSpline
210
0.0
220
0.0
230
1.0
 70
     8
 71
     3
 72
    23
 73
    19
 74
     0
 42
0.00000001
 43
0.00000001
 40
0.0
 40
0.0
 40
0.0
 40
0.0
 40
0.000553515005029
 40
0.000553515005029
 40
0.000553515005029
 40
0.0008668342974992
 40
0.0008668342974992
 40
0.0008668342974992
 40
0.0011828244535639
 40
0.0011828244535639
 40
0.0011828244535639
 40
0.0014731665579925
 40
0.0014731665579925
 40
0.0014731665579925
 40
0.0017795240722465
 40
0.0017795240722465
 40
0.0017795240722465
 40
0.0018351737698939
 40
0.0018351737698939
 40
0.0018351737698939
 40
0.0018351737698939
 10
568.3939290852906
 20
-31.17564102564101
 30
0.0
 10
568.5784332896601
 20
-31.17509861107978
 30
0.0
 10
568.7648215009211
 20
-31.16790406874368
 30
0.0
 10
568.9456692076202
 20
-31.13134996329346
 30
0.0
 10
569.0477276809764
 20
-31.11072124609687
 30
0.0
 10
569.1492822470177
 20
-31.07780387086337
 30
0.0
 10
569.2399573264115
 20
-31.02662276171313
 30
0.0
 10
569.3312314083621
 20
-30.9751035484726
 30
0.0
 10
569.4143490757609
 20
-30.90566642979008
 30
0.0
 10
569.48116135252
 20
-30.82491181974753
 30
0.0
 10
569.542777358474
 20
-30.75043783420815
 30
0.0
 10
569.5925269896575
 20
-30.6646907242338
 30
0.0
 10
569.6275564907841
 20
-30.57460276298104
 30
0.0
 10
569.6644371001701
 20
-30.47975416958162
 30
0.0
 10
569.6829397690293
 20
-30.37698611325601
 30
0.0
 10
569.6879949976122
 20
-30.27534517818309
 30
0.0
 10
569.6889236140793
 20
-30.25667432196259
 30
0.0
 10
569.689613419295
 20
-30.23799209887547
 30
0.0
 10
569.6903032840086
 20
-30.21931089743589
 30
0.0
  0
LINE
  5
BB
330
1F
100
AcDbEntity
  8
0
  6
Continuous
 62
     7
370
    25
100
AcDbLine
 10
567.0877391814
 20
-31.1756410256
 30
0.0
 11
568.3939290853
 21
-31.1756410256
 31
0.0
  0
LINE
  5
BC
330
1F
100
AcDbEntity
  8
0
  6
Continuous
 62
     7
370
    25
100
AcDbLine
 10
567.0877391814
 20
-30.8615384615
 30
0.0
 11
567.0877391814
 21
-31.1756410256
 31
0.0
  0
LINE
  5
BD
330
1F
100
AcDbEntity
  8
0
  6
Continuous
 62
     7
370
    25
100
AcDbLine
 10
568.2908641814
 20
-30.8615384615
 30
0.0
 11
567.0877391814
 21
-30.8615384615
 31
0.0
  0
SPLINE
  5
BE
330
1F
100
AcDbEntity
  8
0
  6
Continuous
 62
     7
370
    25
100
AcDbSpline
210
0.0
220
0.0
230
1.0
 70
     8
 71
     3
 72
    14
 73
    10
 74
     0
 42
0.00000001
 43
0.00000001
 40
0.0
 40
0.0
 40
0.0
 40
0.0
 40
0.0001464428465226
 40
0.0001464428465226
 40
0.0001464428465226
 40
0.000292462300776
 40
0.000292462300776
 40
0.000292462300776
 40
0.0005834567207713
 40
0.0005834567207713
 40
0.0005834567207713
 40
0.0005834567207713
 10
568.872795271188
 20
-30.82437900641024
 30
0.0
 10
568.8250968443291
 20
-30.83475658895013
 30
0.0
 10
568.7765991380023
 20
-30.84168567321429
 30
0.0
 10
568.7280052001294
 20
-30.84631852829329
 30
0.0
 10
568.6794938819278
 20
-30.85094350656747
 30
0.0
 10
568.630845162302
 20
-30.8542912841576
 30
0.0
 10
568.582159793689
 20
-30.85640630205183
 30
0.0
 10
568.4851376970655
 20
-30.86062119199393
 30
0.0
 10
568.3879762929927
 20
-30.86099964702595
 30
0.0
 10
568.2908641814444
 20
-30.86153846153845
 30
0.0
  0
SPLINE
  5
BF
330
1F
100
AcDbEntity
  8
0
  6
Continuous
 62
     7
370
    25
100
AcDbSpline
210
0.0
220
0.0
230
1.0
 70
     8
 71
     3
 72
    20
 73
    16
 74
     0
 42
0.00000001
 43
0.00000001
 40
0.0
 40
0.0
 40
0.0
 40
0.0
 40
0.0002769338626395
 40
0.0002769338626395
 40
0.0002769338626395
 40
0.0004633954044103
 40
0.0004633954044103
 40
0.0004633954044103
 40
0.0006504251539799
 40
0.0006504251539799
 40
0.0006504251539799
 40
0.0008345273045602
 40
0.0008345273045602
 40
0.0008345273045602
 40
0.0009022224200408
 40
0.0009022224200408
 40
0.0009022224200408
 40
0.0009022224200408
 10
569.376200719906
 20
-30.16462339743589
 30
0.0
 10
569.3734647240752
 20
-30.25689413025679
 30
0.0
 10
569.3646989939475
 20
-30.35112040231147
 30
0.0
 10
569.3347457125021
 20
-30.43843692273657
 30
0.0
 10
569.3145053337158
 20
-30.49743945476023
 30
0.0
 10
569.2849813947178
 20
-30.55430734892381
 30
0.0
 10
569.2467264644314
 20
-30.60357734006855
 30
0.0
 10
569.2083773238899
 20
-30.65296866821263
 30
0.0
 10
569.1604128403678
 20
-30.69585075307862
 30
0.0
 10
569.1077811059117
 20
-30.729615533609
 30
0.0
 10
569.055805418245
 20
-30.76295944114159
 30
0.0
 10
568.9981065568394
 20
-30.78813151523788
 30
0.0
 10
568.9389771350118
 20
-30.80593600209673
 30
0.0
 10
568.9170484797519
 20
-30.81253894936623
 30
0.0
 10
568.8949182235096
 20
-30.81845956262591
 30
0.0
 10
568.872795271188
 20
-30.82437900641024
 30
0.0
  0
SPLINE
  5
C0
330
1F
100
AcDbEntity
  8
0
  6
Continuous
 62
     7
370
    25
100
AcDbSpline
210
0.0
220
0.0
230
1.0
 70
     8
 71
     3
 72
    17
 73
    13
 74
     0
 42
0.00000001
 43
0.00000001
 40
0.0
 40
0.0
 40
0.0
 40
0.0
 40
0.0003135790458805
 40
0.0003135790458805
 40
0.0003135790458805
 40
0.0006269759849113
 40
0.0006269759849113
 40
0.0006269759849113
 40
0.0009562441428651
 40
0.0009562441428651
 40
0.0009562441428651
 40
0.0011762206204896
 40
0.0011762206204896
 40
0.0011762206204896
 40
0.0011762206204896
 10
568.6989170660598
 20
-29.29453124999998
 30
0.0
 10
568.7992728253766
 20
-29.32376272497458
 30
0.0
 10
568.8979231442038
 20
-29.3663858392086
 30
0.0
 10
568.9832605594597
 20
-29.42674545414044
 30
0.0
 10
569.0687777070502
 20
-29.48723219472382
 30
0.0
 10
569.1446365142832
 20
-29.56336872049635
 30
0.0
 10
569.20652743537
 20
-29.64787518300332
 30
0.0
 10
569.271268533521
 20
-29.73627330485199
 30
0.0
 10
569.322064302312
 20
-29.83787292685964
 30
0.0
 10
569.3491082430851
 20
-29.94405325933061
 30
0.0
 10
569.3673915378208
 20
-30.01583740979924
 30
0.0
 10
569.3748060140562
 20
-30.09056060029393
 30
0.0
 10
569.376200719906
 20
-30.16462339743589
 30
0.0
  0
SPLINE
  5
C1
330
1F
100
AcDbEntity
  8
0
  6
Continuous
 62
     7
370
    25
100
AcDbSpline
210
0.0
220
0.0
230
1.0
 70
     8
 71
     3
 72
    14
 73
    10
 74
     0
 42
0.00000001
 43
0.00000001
 40
0.0
 40
0.0
 40
0.0
 40
0.0
 40
0.000172486304478
 40
0.000172486304478
 40
0.000172486304478
 40
0.0003450240345227
 40
0.0003450240345227
 40
0.0003450240345227
 40
0.0006898418439015
 40
0.0006898418439015
 40
0.0006898418439015
 40
0.0006898418439015
 10
568.0125188288804
 20
-29.24615384615383
 30
0.0
 10
568.0700138456258
 20
-29.24637310688937
 30
0.0
 10
568.1275129954198
 20
-29.24654127058483
 30
0.0
 10
568.1849993992138
 20
-29.24756029201576
 30
0.0
 10
568.2424954177061
 20
-29.24857948387973
 30
0.0
 10
568.2999599987094
 20
-29.25111471897142
 30
0.0
 10
568.3573995188168
 20
-29.25385924522497
 30
0.0
 10
568.4719124997177
 20
-29.25933080699753
 30
0.0
 10
568.5871495683078
 20
-29.26901287957267
 30
0.0
 10
568.69891706606
 20
-29.29453124999998
 30
0.0
  0
LINE
  5
C2
330
1F
100
AcDbEntity
  8
0
  6
Continuous
 62
     7
370
    25
100
AcDbLine
 10
567.0877391814
 20
-29.2461538462
 30
0.0
 11
568.0125188289
 21
-29.2461538462
 31
0.0
  0
LINE
  5
C3
330
1F
100
AcDbEntity
  8
0
  6
Continuous
 62
     7
370
    25
100
AcDbLine
 10
567.0877391814
 20
-28.9320512821
 30
0.0
 11
567.0877391814
 21
-29.2461538462
 31
0.0
  0
SPLINE
  5
C4
330
1F
100
AcDbEntity
  8
0
  6
Continuous
 62
     7
370
    25
100
AcDbSpline
210
0.0
220
0.0
230
1.0
 70
     8
 71
     3
 72
    14
 73
    10
 74
     0
 42
0.00000001
 43
0.00000001
 40
0.0
 40
0.0
 40
0.0
 40
0.0
 40
0.0002753407837044
 40
0.0002753407837044
 40
0.0002753407837044
 40
0.0007088713004893
 40
0.0007088713004893
 40
0.0007088713004893
 40
0.0010974603917287
 40
0.0010974603917287
 40
0.0010974603917287
 40
0.0010974603917287
 10
569.6903032840085
 20
-26.98153044871793
 30
0.0
 10
569.6883003144649
 20
-26.88977204602186
 30
0.0
 10
569.6827775088312
 20
-26.79741544917263
 30
0.0
 10
569.6651778450464
 20
-26.70733843663895
 30
0.0
 10
569.6377145133782
 20
-26.5667780883762
 30
0.0
 10
569.58733782139
 20
-26.428066566696
 30
0.0
 10
569.513510674111
 20
-26.30534330722691
 30
0.0
 10
569.4469883095456
 20
-26.19476282690302
 30
0.0
 10
569.3601427990297
 20
-26.09610695114337
 30
0.0
 10
569.2668257199059
 20
-26.00697115384614
 30
0.0
  0
SPLINE
  5
C5
330
1F
100
AcDbEntity
  8
0
  6
Continuous
 62
     7
370
    25
100
AcDbSpline
210
0.0
220
0.0
230
1.0
 70
     8
 71
     3
 72
    15
 73
    11
 74
     0
 42
0.00000001
 43
0.00000001
 40
0.0
 40
0.0
 40
0.0
 40
0.0
 40
0.1284903061940383
 40
0.2531369171439189
 40
0.3753181436612869
 40
0.4967836021585352
 40
0.6178546912430556
 40
0.7416599883145699
 40
0.868244665443056
 40
1.0
 40
1.0
 40
1.0
 40
1.0
 10
569.2689290852906
 20
-27.95328525641024
 30
0.0
 10
569.3026147544617
 20
-27.92078902617754
 30
0.0
 10
569.3689784101997
 20
-27.85676866710486
 30
0.0
 10
569.454720326174
 20
-27.74993221851887
 30
0.0
 10
569.527392868671
 20
-27.63705702199022
 30
0.0
 10
569.5874877070581
 20
-27.51836922794729
 30
0.0
 10
569.6332903363182
 20
-27.39280914959704
 30
0.0
 10
569.6658291613066
 20
-27.26141542235849
 30
0.0
 10
569.687286593066
 20
-27.12362440635049
 30
0.0
 10
569.6892843917602
 20
-27.02952291288531
 30
0.0
 10
569.6903032840086
 20
-26.98153044871793
 30
0.0
  0
SPLINE
  5
C6
330
1F
100
AcDbEntity
  8
0
  6
Continuous
 62
     7
370
    25
100
AcDbSpline
210
0.0
220
0.0
230
1.0
 70
     8
 71
     3
 72
    14
 73
    10
 74
     0
 42
0.00000001
 43
0.00000001
 40
0.0
 40
0.0
 40
0.0
 40
0.0
 40
0.0002504470161723
 40
0.0002504470161723
 40
0.0002504470161723
 40
0.0006906102224409
 40
0.0006906102224409
 40
0.0006906102224409
 40
0.0010004285595333
 40
0.0010004285595333
 40
0.0010004285595333
 40
0.0010004285595333
 10
568.3595741173418
 20
-28.30384615384614
 30
0.0
 10
568.4430284349905
 20
-28.30168334441217
 30
0.0
 10
568.5269169470905
 20
-28.29730524688328
 30
0.0
 10
568.6091405832929
 20
-28.28286313732436
 30
0.0
 10
568.752140037416
 20
-28.2577461043312
 30
0.0
 10
568.8931459413863
 20
-28.20801882537686
 30
0.0
 10
569.0191771396483
 20
-28.13593660641461
 30
0.0
 10
569.108706536234
 20
-28.08473120920158
 30
0.0
 10
569.191064224209
 20
-28.02092081632851
 30
0.0
 10
569.2689290852906
 20
-27.95328525641024
 30
0.0
  0
SPLINE
  5
C7
330
1F
100
AcDbEntity
  8
0
  6
Continuous
 62
     7
370
    25
100
AcDbSpline
210
0.0
220
0.0
230
1.0
 70
     8
 71
     3
 72
    20
 73
    16
 74
     0
 42
0.00000001
 43
0.00000001
 40
0.0
 40
0.0
 40
0.0
 40
0.0
 40
0.0004870692322514
 40
0.0004870692322514
 40
0.0004870692322514
 40
0.0008947825490475
 40
0.0008947825490475
 40
0.0008947825490475
 40
0.0012999300823581
 40
0.0012999300823581
 40
0.0012999300823581
 40
0.0017724844370077
 40
0.0017724844370077
 40
0.0017724844370077
 40
0.0020642892093196
 40
0.0020642892093196
 40
0.0020642892093196
 40
0.0020642892093196
 10
567.0428673865727
 20
-26.98153044871793
 30
0.0
 10
567.0470156833414
 20
-27.14383385516922
 30
0.0
 10
567.0666717000663
 20
-27.30966281644268
 30
0.0
 10
567.1228616349014
 20
-27.46198581317989
 30
0.0
 10
567.1700592991474
 20
-27.58993203127158
 30
0.0
 10
567.2400614150788
 20
-27.71150038914216
 30
0.0
 10
567.3271197661884
 20
-27.81647037407271
 30
0.0
 10
567.4139060003795
 20
-27.92111225597244
 30
0.0
 10
567.5182350884198
 20
-28.01271849308428
 30
0.0
 10
567.6314399570001
 20
-28.08799419714791
 30
0.0
 10
567.7625509787563
 20
-28.17517661780679
 30
0.0
 10
567.9122516066138
 20
-28.23938414540577
 30
0.0
 10
568.0660902112005
 20
-28.27291857900348
 30
0.0
 10
568.162202871609
 20
-28.29386965066088
 30
0.0
 10
568.2612297064555
 20
-28.30161731068873
 30
0.0
 10
568.3595741173418
 20
-28.30384615384614
 30
0.0
  0
SPLINE
  5
C8
330
1F
100
AcDbEntity
  8
0
  6
Continuous
 62
     7
370
    25
100
AcDbSpline
210
0.0
220
0.0
230
1.0
 70
     8
 71
     3
 72
    20
 73
    16
 74
     0
 42
0.00000001
 43
0.00000001
 40
0.0
 40
0.0
 40
0.0
 40
0.0
 40
0.0004623353526406
 40
0.0004623353526406
 40
0.0004623353526406
 40
0.0009271269696288
 40
0.0009271269696288
 40
0.0009271269696288
 40
0.0013775863342472
 40
0.0013775863342472
 40
0.0013775863342472
 40
0.0018142812449469
 40
0.0018142812449469
 40
0.0018142812449469
 40
0.0020704611852217
 40
0.0020704611852217
 40
0.0020704611852217
 40
0.0020704611852217
 10
568.3595741173418
 20
-25.65641025641024
 30
0.0
 10
568.2055018969661
 20
-25.65990209574324
 30
0.0
 10
568.0486157611564
 20
-25.68139516445688
 30
0.0
 10
567.9038274233233
 20
-25.73418511862422
 30
0.0
 10
567.7582444976254
 20
-25.78726478021958
 30
0.0
 10
567.6213476569218
 20
-25.86939385121904
 30
0.0
 10
567.5025589105753
 20
-25.96889798415479
 30
0.0
 10
567.387409311384
 20
-26.06535376281951
 30
0.0
 10
567.2851099317469
 20
-26.18155012875926
 30
0.0
 10
567.2099467435592
 20
-26.31160258960959
 30
0.0
 10
567.1370803490332
 20
-26.43768098183695
 30
0.0
 10
567.088187732794
 20
-26.57970951848499
 30
0.0
 10
567.0636952466364
 20
-26.72325529710513
 30
0.0
 10
567.0491681146085
 20
-26.80839604045979
 30
0.0
 10
567.0450817306186
 20
-26.89518764111715
 30
0.0
 10
567.0428673865727
 20
-26.98153044871793
 30
0.0
  0
SPLINE
  5
C9
330
1F
100
AcDbEntity
  8
0
  6
Continuous
 62
     7
370
    25
100
AcDbSpline
210
0.0
220
0.0
230
1.0
 70
     8
 71
     3
 72
    15
 73
    11
 74
     0
 42
0.00000001
 43
0.00000001
 40
0.0
 40
0.0
 40
0.0
 40
0.0
 40
0.1284109527683079
 40
0.2537592050616182
 40
0.3772863205701913
 40
0.4989121128147757
 40
0.6213214040214466
 40
0.7447622750750622
 40
0.8710808681880486
 40
1.0
 40
1.0
 40
1.0
 40
1.0
 10
569.2668257199058
 20
-26.00697115384614
 30
0.0
 10
569.2345801388764
 20
-25.97903705313354
 30
0.0
 10
569.1708580588484
 20
-25.92383510160121
 30
0.0
 10
569.0678702583696
 20
-25.85204446906073
 30
0.0
 10
568.9604654273834
 20
-25.79168318111654
 30
0.0
 10
568.8487099913435
 20
-25.7421679902251
 30
0.0
 10
568.7327845153601
 20
-25.7034365937706
 30
0.0
 10
568.6120871262951
 20
-25.67607803728608
 30
0.0
 10
568.4871600656443
 20
-25.6597575282118
 30
0.0
 10
568.4023906632347
 20
-25.65753356676388
 30
0.0
 10
568.3595741173418
 20
-25.65641025641024
 30
0.0
  0
LINE
  5
CA
330
1F
100
AcDbEntity
  8
0
  6
Continuous
 62
     7
370
    25
100
AcDbLine
 10
569.6454314891
 20
-24.7141025641
 30
0.0
 11
567.0877391814
 21
-24.7141025641
 31
0.0
  0
LINE
  5
CB
330
1F
100
AcDbEntity
  8
0
  6
Continuous
 62
     7
370
    25
100
AcDbLine
 10
569.6454314891
 20
-25.0282051282
 30
0.0
 11
569.6454314891
 21
-24.7141025641
 31
0.0
  0
LINE
  5
CC
330
1F
100
AcDbEntity
  8
0
  6
Continuous
 62
     7
370
    25
100
AcDbLine
 10
567.0877391814
 20
-25.0282051282
 30
0.0
 11
569.6454314891
 21
-25.0282051282
 31
0.0
  0
LINE
  5
CD
330
1F
100
AcDbEntity
  8
0
  6
Continuous
 62
     7
370
    25
100
AcDbLine
 10
567.0877391814
 20
-24.7141025641
 30
0.0
 11
567.0877391814
 21
-25.0282051282
 31
0.0
  0
SPLINE
  5
CE
330
1F
100
AcDbEntity
  8
0
  6
Continuous
 62
     7
370
    25
100
AcDbSpline
210
0.0
220
0.0
230
1.0
 70
     8
 71
     3
 72
    20
 73
    16
 74
     0
 42
0.00000001
 43
0.00000001
 40
0.0
 40
0.0
 40
0.0
 40
0.0
 40
0.0001098435578452
 40
0.0001098435578452
 40
0.0001098435578452
 40
0.0002205592741775
 40
0.0002205592741775
 40
0.0002205592741775
 40
0.0003250791632989
 40
0.0003250791632989
 40
0.0003250791632989
 40
0.0004141009730191
 40
0.0004141009730191
 40
0.0004141009730191
 40
0.0004374454001827
 40
0.0004374454001827
 40
0.0004374454001827
 40
0.0004374454001827
 10
570.7223545660598
 20
-24.86975160256409
 30
0.0
 10
570.7206858032978
 20
-24.83317513125975
 30
0.0
 10
570.7167020175029
 20
-24.79568073651157
 30
0.0
 10
570.7034569521494
 20
-24.76154583844503
 30
0.0
 10
570.6900830430835
 20
-24.72707888712944
 30
0.0
 10
570.6693467599002
 20
-24.69503349083318
 30
0.0
 10
570.6447026078389
 20
-24.6674745005419
 30
0.0
 10
570.6215115286716
 20
-24.6415404483566
 30
0.0
 10
570.5931733506405
 20
-24.61907284318243
 30
0.0
 10
570.5617627733646
 20
-24.60411367038105
 30
0.0
 10
570.5348806533385
 20
-24.59131115881917
 30
0.0
 10
570.5051287601893
 20
-24.58358078899422
 30
0.0
 10
570.4754591215573
 20
-24.58107774627925
 30
0.0
 10
570.4675569267528
 20
-24.58041108729553
 30
0.0
 10
570.4596383462463
 20
-24.5799492459509
 30
0.0
 10
570.4517215532395
 20
-24.57948717948718
 30
0.0
  0
SPLINE
  5
CF
330
1F
100
AcDbEntity
  8
0
  6
Continuous
 62
     7
370
    25
100
AcDbSpline
210
0.0
220
0.0
230
1.0
 70
     8
 71
     3
 72
    20
 73
    16
 74
     0
 42
0.00000001
 43
0.00000001
 40
0.0
 40
0.0
 40
0.0
 40
0.0
 40
0.0001118622308364
 40
0.0001118622308364
 40
0.0001118622308364
 40
0.0002103871509462
 40
0.0002103871509462
 40
0.0002103871509462
 40
0.0002975538975315
 40
0.0002975538975315
 40
0.0002975538975315
 40
0.0004040557435014
 40
0.0004040557435014
 40
0.0004040557435014
 40
0.0004378434889258
 40
0.0004378434889258
 40
0.0004378434889258
 40
0.0004378434889258
 10
570.4517215532394
 20
-25.1628205128205
 30
0.0
 10
570.4889452076364
 20
-25.16064094437194
 30
0.0
 10
570.5272398845693
 20
-25.15456720402932
 30
0.0
 10
570.560925450258
 20
-25.13857865720566
 30
0.0
 10
570.590804752106
 20
-25.12439671883265
 30
0.0
 10
570.6182856692279
 20
-25.10395816297047
 30
0.0
 10
570.6408395790016
 20
-25.07976681722743
 30
0.0
 10
570.6609387534326
 20
-25.0582084230207
 30
0.0
 10
570.6780036173973
 20
-25.0334728923699
 30
0.0
 10
570.6913667702012
 20
-25.00720185659441
 30
0.0
 10
570.7075322678443
 20
-24.97542160434806
 30
0.0
 10
570.7172377213412
 20
-24.93974591901767
 30
0.0
 10
570.7202960384958
 20
-24.90422192088859
 30
0.0
 10
570.7212833501345
 20
-24.89275376535213
 30
0.0
 10
570.7218187954466
 20
-24.88124970351731
 30
0.0
 10
570.72235456606
 20
-24.86975160256409
 30
0.0
  0
SPLINE
  5
D0
330
1F
100
AcDbEntity
  8
0
  6
Continuous
 62
     7
370
    25
100
AcDbSpline
210
0.0
220
0.0
230
1.0
 70
     8
 71
     3
 72
    20
 73
    16
 74
     0
 42
0.00000001
 43
0.00000001
 40
0.0
 40
0.0
 40
0.0
 40
0.0
 40
0.0001132343722273
 40
0.0001132343722273
 40
0.0001132343722273
 40
0.0002274674459555
 40
0.0002274674459555
 40
0.0002274674459555
 40
0.0003309057663028
 40
0.0003309057663028
 40
0.0003309057663028
 40
0.0004216791781053
 40
0.0004216791781053
 40
0.0004216791781053
 40
0.0004378000068173
 40
0.0004378000068173
 40
0.0004378000068173
 40
0.0004378000068173
 10
570.1838930275982
 20
-24.86975160256409
 30
0.0
 10
570.185650093276
 20
-24.9074554743599
 30
0.0
 10
570.189647923869
 20
-24.94611779351244
 30
0.0
 10
570.2032841790534
 20
-24.98131327294847
 30
0.0
 10
570.2170610672576
 20
-25.01687172935198
 30
0.0
 10
570.2381847899622
 20
-25.05021210123629
 30
0.0
 10
570.2640177238073
 20
-25.07826323310923
 30
0.0
 10
570.2873857579938
 20
-25.1036378116418
 30
0.0
 10
570.3160185718506
 20
-25.12510146463201
 30
0.0
 10
570.3472356199957
 20
-25.13977900402195
 30
0.0
 10
570.3746401691363
 20
-25.15266399390316
 30
0.0
 10
570.4051879315801
 20
-25.15950298588569
 30
0.0
 10
570.4353872286175
 20
-25.16174680768733
 30
0.0
 10
570.4408287543406
 20
-25.16215111557689
 30
0.0
 10
570.4462753039949
 20
-25.16248579468554
 30
0.0
 10
570.4517215532394
 20
-25.1628205128205
 30
0.0
  0
SPLINE
  5
D1
330
1F
100
AcDbEntity
  8
0
  6
Continuous
 62
     7
370
    25
100
AcDbSpline
210
0.0
220
0.0
230
1.0
 70
     8
 71
     3
 72
    20
 73
    16
 74
     0
 42
0.00000001
 43
0.00000001
 40
0.0
 40
0.0
 40
0.0
 40
0.0
 40
0.0001091806557524
 40
0.0001091806557524
 40
0.0001091806557524
 40
0.0002052783480778
 40
0.0002052783480778
 40
0.0002052783480778
 40
0.000313463338603
 40
0.000313463338603
 40
0.000313463338603
 40
0.000419831441265
 40
0.000419831441265
 40
0.000419831441265
 40
0.0004329435649472
 40
0.0004329435649472
 40
0.0004329435649472
 40
0.0004329435649472
 10
570.4517215532394
 20
-24.57948717948717
 30
0.0
 10
570.4153961248117
 20
-24.58171290873996
 30
0.0
 10
570.3780417512772
 20
-24.5877785184728
 30
0.0
 10
570.3452099731726
 20
-24.60348090579607
 30
0.0
 10
570.3161083099913
 20
-24.61739929868864
 30
0.0
 10
570.2895536216026
 20
-24.63758784389009
 30
0.0
 10
570.2674297565746
 20
-24.66106470604952
 30
0.0
 10
570.2424749552163
 20
-24.68754563200728
 30
0.0
 10
570.2212484017756
 20
-24.71843910866854
 30
0.0
 10
570.206781624131
 20
-24.75182614050723
 30
0.0
 10
570.1926098018628
 20
-24.7845324620471
 30
0.0
 10
570.1863786567201
 20
-24.82082264419912
 30
0.0
 10
570.1845294383941
 20
-24.85641933515007
 30
0.0
 10
570.1842986200504
 20
-24.86086249317524
 30
0.0
 10
570.1840958273004
 20
-24.86530707754726
 30
0.0
 10
570.1838930275982
 20
-24.86975160256409
 30
0.0
  0
SPLINE
  5
D2
330
1F
100
AcDbEntity
  8
0
  6
Continuous
 62
     7
370
    25
100
AcDbSpline
210
0.0
220
0.0
230
1.0
 70
     8
 71
     3
 72
    14
 73
    10
 74
     0
 42
0.00000001
 43
0.00000001
 40
0.0
 40
0.0
 40
0.0
 40
0.0
 40
0.0003885410090045
 40
0.0003885410090045
 40
0.0003885410090045
 40
0.0007770448225585
 40
0.0007770448225585
 40
0.0007770448225585
 40
0.0013708110514002
 40
0.0013708110514002
 40
0.0013708110514002
 40
0.0013708110514002
 10
569.0908441493932
 20
-24.13076923076922
 30
0.0
 10
569.2008091102136
 20
-24.06234775736604
 30
0.0
 10
569.3052025021797
 20
-23.97966887449713
 30
0.0
 10
569.386980201887
 20
-23.87923880698008
 30
0.0
 10
569.4689983300977
 20
-23.77851347252703
 30
0.0
 10
569.5320459738477
 20
-23.66138174653367
 30
0.0
 10
569.5796855235757
 20
-23.5405387092597
 30
0.0
 10
569.651946921117
 20
-23.35723960575352
 30
0.0
 10
569.6859683820672
 20
-23.15687674496175
 30
0.0
 10
569.6903032840086
 20
-22.95989583333332
 30
0.0
  0
LINE
  5
D3
330
1F
100
AcDbEntity
  8
0
  6
Continuous
 62
     7
370
    25
100
AcDbLine
 10
568.9274827712
 20
-23.8678485577
 30
0.0
 11
569.0908441494
 21
-24.1307692308
 31
0.0
  0
SPLINE
  5
D4
330
1F
100
AcDbEntity
  8
0
  6
Continuous
 62
     7
370
    25
100
AcDbSpline
210
0.0
220
0.0
230
1.0
 70
     8
 71
     3
 72
    17
 73
    13
 74
     0
 42
0.00000001
 43
0.00000001
 40
0.0
 40
0.0
 40
0.0
 40
0.0
 40
0.0002651381311578
 40
0.0002651381311578
 40
0.0002651381311578
 40
0.0006424132685068
 40
0.0006424132685068
 40
0.0006424132685068
 40
0.0010140982841529
 40
0.0010140982841529
 40
0.0010140982841529
 40
0.0010760789394712
 40
0.0010760789394712
 40
0.0010760789394712
 40
0.0010760789394712
 10
569.376200719906
 20
-22.93675881410255
 30
0.0
 10
569.3738801206135
 20
-23.02510771962565
 30
0.0
 10
569.368743852245
 20
-23.11408543444053
 30
0.0
 10
569.3512891987642
 20
-23.20072404800324
 30
0.0
 10
569.3266613400446
 20
-23.32296786893207
 30
0.0
 10
569.2819038248886
 20
-23.44327678381024
 30
0.0
 10
569.2176106459261
 20
-23.55012466782906
 30
0.0
 10
569.1542378760945
 20
-23.65544293751478
 30
0.0
 10
569.0704070054417
 20
-23.75003204390973
 30
0.0
 10
568.975831968547
 20
-23.82854069491137
 30
0.0
 10
568.959850341305
 20
-23.8418073669295
 30
0.0
 10
568.9436658708788
 20
-23.85482840868635
 30
0.0
 10
568.9274827711881
 20
-23.86784855769229
 30
0.0
  0
SPLINE
  5
D5
330
1F
100
AcDbEntity
  8
0
  6
Continuous
 62
     7
370
    25
100
AcDbSpline
210
0.0
220
0.0
230
1.0
 70
     8
 71
     3
 72
    20
 73
    16
 74
     0
 42
0.00000001
 43
0.00000001
 40
0.0
 40
0.0
 40
0.0
 40
0.0
 40
0.0003361952002247
 40
0.0003361952002247
 40
0.0003361952002247
 40
0.0006761968408542
 40
0.0006761968408542
 40
0.0006761968408542
 40
0.0009834235207157
 40
0.0009834235207157
 40
0.0009834235207157
 40
0.0013538936520511
 40
0.0013538936520511
 40
0.0013538936520511
 40
0.0016476234936266
 40
0.0016476234936266
 40
0.0016476234936266
 40
0.0016476234936266
 10
568.3735965532394
 20
-21.84230769230768
 30
0.0
 10
568.4856206710576
 20
-21.84533691841734
 30
0.0
 10
568.5995477907859
 20
-21.86069441550731
 30
0.0
 10
568.7050795891795
 20
-21.89839877482579
 30
0.0
 10
568.8115029932575
 20
-21.93642168667165
 30
0.0
 10
568.9113696931327
 20
-21.99711314112668
 30
0.0
 10
568.996910120903
 20
-22.07096784969461
 30
0.0
 10
569.0747068425612
 20
-22.13813672358705
 30
0.0
 10
569.1443959215974
 20
-22.21643134514503
 30
0.0
 10
569.2004718778946
 20
-22.30256771752101
 30
0.0
 10
569.2677202142381
 20
-22.40586560352118
 30
0.0
 10
569.3160951179699
 20
-22.52325562740272
 30
0.0
 10
569.3442066341953
 20
-22.6432661879738
 30
0.0
 10
569.3666509657147
 20
-22.73908303348661
 30
0.0
 10
569.3734902376029
 20
-22.83838570198819
 30
0.0
 10
569.3762007199059
 20
-22.93675881410255
 30
0.0
  0
SPLINE
  5
D6
330
1F
100
AcDbEntity
  8
0
  6
Continuous
 62
     7
370
    25
100
AcDbSpline
210
0.0
220
0.0
230
1.0
 70
     8
 71
     3
 72
    20
 73
    16
 74
     0
 42
0.00000001
 43
0.00000001
 40
0.0
 40
0.0
 40
0.0
 40
0.0
 40
0.0004321207617576
 40
0.0004321207617576
 40
0.0004321207617576
 40
0.0007774395937128
 40
0.0007774395937128
 40
0.0007774395937128
 40
0.0011251258645211
 40
0.0011251258645211
 40
0.0011251258645211
 40
0.0014596391629558
 40
0.0014596391629558
 40
0.0014596391629558
 40
0.0016551133975281
 40
0.0016551133975281
 40
0.0016551133975281
 40
0.0016551133975281
 10
567.3569699506752
 20
-22.93886217948717
 30
0.0
 10
567.3615432630239
 20
-22.79489454575212
 30
0.0
 10
567.3792519979195
 20
-22.64789298935832
 30
0.0
 10
567.4293535346262
 20
-22.51284695732209
 30
0.0
 10
567.4695820597071
 20
-22.40441310391286
 30
0.0
 10
567.5275119468639
 20
-22.30080396379563
 30
0.0
 10
567.6002532712018
 20
-22.21088769981109
 30
0.0
 10
567.673275901358
 20
-22.12062371094732
 30
0.0
 10
567.765189168034
 20
-22.04399126382669
 30
0.0
 10
567.8647433768737
 20
-21.98425139687989
 30
0.0
 10
567.9605491333338
 20
-21.92676087779111
 30
0.0
 10
568.0673008194698
 20
-21.88415366641368
 30
0.0
 10
568.1767765151675
 20
-21.86181592240301
 30
0.0
 10
568.2413736816989
 20
-21.84863532591906
 30
0.0
 10
568.3077201608252
 20
-21.8449197738642
 30
0.0
 10
568.3735965532393
 20
-21.84230769230768
 30
0.0
  0
SPLINE
  5
D7
330
1F
100
AcDbEntity
  8
0
  6
Continuous
 62
     7
370
    25
100
AcDbSpline
210
0.0
220
0.0
230
1.0
 70
     8
 71
     3
 72
    17
 73
    13
 74
     0
 42
0.00000001
 43
0.00000001
 40
0.0
 40
0.0
 40
0.0
 40
0.0
 40
0.0002632310149889
 40
0.0002632310149889
 40
0.0002632310149889
 40
0.0006436191484977
 40
0.0006436191484977
 40
0.0006436191484977
 40
0.0010190064697962
 40
0.0010190064697962
 40
0.0010190064697962
 40
0.0010710591721836
 40
0.0010710591721836
 40
0.0010710591721836
 40
0.0010710591721836
 10
567.8056878993931
 20
-23.86784855769229
 30
0.0
 10
567.7387042473475
 20
-23.8111727932463
 30
0.0
 10
567.6732750084257
 20
-23.75156952067551
 30
0.0
 10
567.6173003527069
 20
-23.68399889218897
 30
0.0
 10
567.5370734072008
 20
-23.58715175557325
 30
0.0
 10
567.471056391488
 20
-23.47583453667508
 30
0.0
 10
567.4278639766993
 20
-23.3577238006658
 30
0.0
 10
567.3851545952479
 20
-23.24093393137014
 30
0.0
 10
567.3632688120279
 20
-23.11541377315214
 30
0.0
 10
567.3586015975303
 20
-22.99114719702285
 30
0.0
 10
567.3579471652605
 20
-22.97372265878314
 30
0.0
 10
567.357458573581
 20
-22.95629215545155
 30
0.0
 10
567.3569699506753
 20
-22.93886217948717
 30
0.0
  0
LINE
  5
D8
330
1F
100
AcDbEntity
  8
0
  6
Continuous
 62
     7
370
    25
100
AcDbLine
 10
567.6332119379
 20
-24.1307692308
 30
0.0
 11
567.8056878994
 21
-23.8678485577
 31
0.0
  0
SPLINE
  5
D9
330
1F
100
AcDbEntity
  8
0
  6
Continuous
 62
     7
370
    25
100
AcDbSpline
210
0.0
220
0.0
230
1.0
 70
     8
 71
     3
 72
    14
 73
    10
 74
     0
 42
0.00000001
 43
0.00000001
 40
0.0
 40
0.0
 40
0.0
 40
0.0
 40
0.0005377680356739
 40
0.0005377680356739
 40
0.0005377680356739
 40
0.0009803045148931
 40
0.0009803045148931
 40
0.0009803045148931
 40
0.0013846911908995
 40
0.0013846911908995
 40
0.0013846911908995
 40
0.0013846911908995
 10
567.0428673865727
 20
-22.93395432692306
 30
0.0
 10
567.0442812209376
 20
-23.11320476310542
 30
0.0
 10
567.0674321760592
 20
-23.2956879118922
 30
0.0
 10
567.1251900825018
 20
-23.46538394025632
 30
0.0
 10
567.1728046287406
 20
-23.60527819693474
 30
0.0
 10
567.2435580318296
 20
-23.73973720762781
 30
0.0
 10
567.3346131059276
 20
-23.85612673269825
 30
0.0
 10
567.4179394584982
 20
-23.96263715726923
 30
0.0
 10
567.5214354234892
 20
-24.05465246250319
 30
0.0
 10
567.6332119378548
 20
-24.13076923076922
 30
0.0
  0
SPLINE
  5
DA
330
1F
100
AcDbEntity
  8
0
  6
Continuous
 62
     7
370
    25
100
AcDbSpline
210
0.0
220
0.0
230
1.0
 70
     8
 71
     3
 72
    23
 73
    19
 74
     0
 42
0.00000001
 43
0.00000001
 40
0.0
 40
0.0
 40
0.0
 40
0.0
 40
0.0623636632257981
 40
0.1230119651338475
 40
0.1821736047660609
 40
0.2411933523087801
 40
0.3002831789151323
 40
0.3598540335173496
 40
0.4210458025004495
 40
0.4843469833202179
 40
0.548038380304213
 40
0.6106214240365859
 40
0.6730057677271071
 40
0.7355587459637638
 40
0.7989108501915322
 40
0.8636692350473465
 40
0.9304437448380464
 40
1.0
 40
1.0
 40
1.0
 40
1.0
 10
568.3455516814446
 20
-21.52820512820512
 30
0.0
 10
568.3010761769992
 20
-21.52936940805898
 30
0.0
 10
568.2133485016323
 20
-21.531665943339
 30
0.0
 10
568.0846583298342
 20
-21.55129987415541
 30
0.0
 10
567.9608066857761
 20
-21.58213841787567
 30
0.0
 10
567.8417964652291
 20
-21.62546939499505
 30
0.0
 10
567.7285592916418
 20
-21.68283028058752
 30
0.0
 10
567.6206667396646
 20
-21.75238513267436
 30
0.0
 10
567.5168622777446
 20
-21.83300780291476
 30
0.0
 10
567.4206089231939
 20
-21.92676226462931
 30
0.0
 10
567.331849606599
 20
-22.02888037587815
 30
0.0
 10
567.2540969058957
 20
-22.13891446091043
 30
0.0
 10
567.1887402332819
 20
-22.25578809274242
 30
0.0
 10
567.1352353929275
 20
-22.37911118882416
 30
0.0
 10
567.0936716767636
 20
-22.50876958446247
 30
0.0
 10
567.0647140555827
 20
-22.64478324126921
 30
0.0
 10
567.045505581533
 20
-22.78710575174867
 30
0.0
 10
567.0437586664684
 20
-22.88434344344283
 30
0.0
 10
567.0428673865727
 20
-22.93395432692306
 30
0.0
  0
SPLINE
  5
DB
330
1F
100
AcDbEntity
  8
0
  6
Continuous
 62
     7
370
    25
100
AcDbSpline
210
0.0
220
0.0
230
1.0
 70
     8
 71
     3
 72
    20
 73
    16
 74
     0
 42
0.00000001
 43
0.00000001
 40
0.0
 40
0.0
 40
0.0
 40
0.0
 40
0.0005394923857085
 40
0.0005394923857085
 40
0.0005394923857085
 40
0.0010848893403172
 40
0.0010848893403172
 40
0.0010848893403172
 40
0.0015563096229829
 40
0.0015563096229829
 40
0.0015563096229829
 40
0.001998968449586
 40
0.001998968449586
 40
0.001998968449586
 40
0.0021807218820641
 40
0.0021807218820641
 40
0.0021807218820641
 40
0.0021807218820641
 10
569.6903032840086
 20
-22.95989583333332
 30
0.0
 10
569.6876062540783
 20
-22.78008526371955
 30
0.0
 10
569.6629694417173
 20
-22.59700102165812
 30
0.0
 10
569.6027364483912
 20
-22.4275575165296
 30
0.0
 10
569.5420225199842
 20
-22.2567610763844
 30
0.0
 10
569.4464707614566
 20
-22.09463765099906
 30
0.0
 10
569.3251986539333
 20
-21.95991318772036
 30
0.0
 10
569.220135130739
 20
-21.84319527903065
 30
0.0
 10
569.0902426558728
 20
-21.74620293433587
 30
0.0
 10
568.9508468099876
 20
-21.67388272785886
 30
0.0
 10
568.8199299253007
 20
-21.60596150630622
 30
0.0
 10
568.6749934615069
 20
-21.56101493670683
 30
0.0
 10
568.5289174850337
 20
-21.54065978672728
 30
0.0
 10
568.4682409785804
 20
-21.53220473875216
 30
0.0
 10
568.4068070828476
 20
-21.52915490216913
 30
0.0
 10
568.3455516814445
 20
-21.52820512820512
 30
0.0
  0
LINE
  5
DC
330
1F
100
AcDbEntity
  8
0
  6
Continuous
 62
     7
370
    25
100
AcDbLine
 10
569.6454314891
 20
-20.9
 30
0.0
 11
569.6454314891
 21
-20.5858974359
 31
0.0
  0
LINE
  5
DD
330
1F
100
AcDbEntity
  8
0
  6
Continuous
 62
     7
370
    25
100
AcDbLine
 10
567.0877391814
 20
-20.9
 30
0.0
 11
569.6454314891
 21
-20.9
 31
0.0
  0
LINE
  5
DE
330
1F
100
AcDbEntity
  8
0
  6
Continuous
 62
     7
370
    25
100
AcDbLine
 10
567.0877391814
 20
-20.5858974359
 30
0.0
 11
567.0877391814
 21
-20.9
 31
0.0
  0
LINE
  5
DF
330
1F
100
AcDbEntity
  8
0
  6
Continuous
 62
     7
370
    25
100
AcDbLine
 10
567.530147034
 20
-20.5858974359
 30
0.0
 11
567.0877391814
 21
-20.5858974359
 31
0.0
  0
SPLINE
  5
E0
330
1F
100
AcDbEntity
  8
0
  6
Continuous
 62
     7
370
    25
100
AcDbSpline
210
0.0
220
0.0
230
1.0
 70
     8
 71
     3
 72
    14
 73
    10
 74
     0
 42
0.00000001
 43
0.00000001
 40
0.0
 40
0.0
 40
0.0
 40
0.0
 40
0.0003000388961087
 40
0.0003000388961087
 40
0.0003000388961087
 40
0.0007433441266287
 40
0.0007433441266287
 40
0.0007433441266287
 40
0.0011957102438231
 40
0.0011957102438231
 40
0.0011957102438231
 40
0.0011957102438231
 10
567.0428673865727
 20
-19.54122596153845
 30
0.0
 10
567.0451844796091
 20
-19.64121208218465
 30
0.0
 10
567.0519291789785
 20
-19.74190098403016
 30
0.0
 10
567.0722966608232
 20
-19.8398180863429
 30
0.0
 10
567.102142215011
 20
-19.98330122310339
 30
0.0
 10
567.1549475587437
 20
-20.12479493943176
 30
0.0
 10
567.2320384696475
 20
-20.24943505775422
 30
0.0
 10
567.3108591717071
 20
-20.37687189195175
 30
0.0
 10
567.4178905503287
 20
-20.48664356113524
 30
0.0
 10
567.5301470340085
 20
-20.58589743589742
 30
0.0
  0
SPLINE
  5
E1
330
1F
100
AcDbEntity
  8
0
  6
Continuous
 62
     7
370
    25
100
AcDbSpline
210
0.0
220
0.0
230
1.0
 70
     8
 71
     3
 72
    20
 73
    16
 74
     0
 42
0.00000001
 43
0.00000001
 40
0.0
 40
0.0
 40
0.0
 40
0.0
 40
0.0004685533356368
 40
0.0004685533356368
 40
0.0004685533356368
 40
0.000941870030482
 40
0.000941870030482
 40
0.000941870030482
 40
0.0013662512367082
 40
0.0013662512367082
 40
0.0013662512367082
 40
0.0018487144886312
 40
0.0018487144886312
 40
0.0018487144886312
 40
0.0020840670429139
 40
0.0020840670429139
 40
0.0020840670429139
 40
0.0020840670429139
 10
568.3735965532394
 20
-18.20769230769229
 30
0.0
 10
568.2174689711841
 20
-18.2119064562233
 30
0.0
 10
568.058298489292
 20
-18.23189719123418
 30
0.0
 10
567.9115044470298
 20
-18.28523657708158
 30
0.0
 10
567.7634508563702
 20
-18.33903363503146
 30
0.0
 10
567.6242637168892
 20
-18.42383653666765
 30
0.0
 10
567.5059612126936
 20
-18.52784858718225
 30
0.0
 10
567.3992404994776
 20
-18.6216778792115
 30
0.0
 10
567.304082784361
 20
-18.73149125417853
 30
0.0
 10
567.2298693294501
 20
-18.85267545191983
 30
0.0
 10
567.1460751882058
 20
-18.98950408756673
 30
0.0
 10
567.089098922972
 20
-19.14571244664367
 30
0.0
 10
567.0622841722895
 20
-19.30390379528732
 30
0.0
 10
567.0490192274756
 20
-19.3821592127877
 30
0.0
 10
567.0450212811531
 20
-19.46188347690875
 30
0.0
 10
567.0428673865727
 20
-19.54122596153845
 30
0.0
  0
SPLINE
  5
E2
330
1F
100
AcDbEntity
  8
0
  6
Continuous
 62
     7
370
    25
100
AcDbSpline
210
0.0
220
0.0
230
1.0
 70
     8
 71
     3
 72
    20
 73
    16
 74
     0
 42
0.00000001
 43
0.00000001
 40
0.0
 40
0.0
 40
0.0
 40
0.0
 40
0.0004794793921421
 40
0.0004794793921421
 40
0.0004794793921421
 40
0.0009626344952125
 40
0.0009626344952125
 40
0.0009626344952125
 40
0.0014051377591682
 40
0.0014051377591682
 40
0.0014051377591682
 40
0.0018855865769596
 40
0.0018855865769596
 40
0.0018855865769596
 40
0.0020775910005156
 40
0.0020775910005156
 40
0.0020775910005156
 40
0.0020775910005156
 10
569.6903032840086
 20
-19.55104166666666
 30
0.0
 10
569.6857248202847
 20
-19.39128079448635
 30
0.0
 10
569.6653828470279
 20
-19.22823679681909
 30
0.0
 10
569.6098898022553
 20
-19.07835344019885
 30
0.0
 10
569.5539722910505
 20
-18.92732362542486
 30
0.0
 10
569.4674077136052
 20
-18.78518208958371
 30
0.0
 10
569.3611682904886
 20
-18.66414507877348
 30
0.0
 10
569.263421274706
 20
-18.5527833426224
 30
0.0
 10
569.1480679053342
 20
-18.45402955669152
 30
0.0
 10
569.0206407739156
 20
-18.37841050121333
 30
0.0
 10
568.8832514354181
 20
-18.29687957530856
 30
0.0
 10
568.7262370310699
 20
-18.2428182922558
 30
0.0
 10
568.5679911667575
 20
-18.22087817740449
 30
0.0
 10
568.5036594358293
 20
-18.21195885700847
 30
0.0
 10
568.4385178949863
 20
-18.20952131462095
 30
0.0
 10
568.3735965532394
 20
-18.20769230769229
 30
0.0
  0
SPLINE
  5
E3
330
1F
100
AcDbEntity
  8
0
  6
Continuous
 62
     7
370
    25
100
AcDbSpline
210
0.0
220
0.0
230
1.0
 70
     8
 71
     3
 72
    14
 73
    10
 74
     0
 42
0.00000001
 43
0.00000001
 40
0.0
 40
0.0
 40
0.0
 40
0.0
 40
0.0005307591447581
 40
0.0005307591447581
 40
0.0005307591447581
 40
0.0009812681726694
 40
0.0009812681726694
 40
0.0009812681726694
 40
0.0011910824699693
 40
0.0011910824699693
 40
0.0011910824699693
 40
0.0011910824699693
 10
569.1721742775983
 20
-20.58589743589742
 30
0.0
 10
569.3122298617183
 20
-20.47780017004871
 30
0.0
 10
569.4452306033842
 20
-20.35001157549359
 30
0.0
 10
569.5322816573367
 20
-20.19598982529931
 30
0.0
 10
569.6067828013082
 20
-20.06417296536534
 30
0.0
 10
569.6545321358218
 20
-19.91493103986291
 30
0.0
 10
569.6758067306815
 20
-19.76501941046256
 30
0.0
 10
569.6858514518982
 20
-19.69423918952834
 30
0.0
 10
569.6883446356078
 20
-19.62250424286049
 30
0.0
 10
569.6903032840086
 20
-19.55104166666666
 30
0.0
  0
LINE
  5
E4
330
1F
100
AcDbEntity
  8
0
  6
Continuous
 62
     7
370
    25
100
AcDbLine
 10
569.6454314891
 20
-20.5858974359
 30
0.0
 11
569.1721742776
 21
-20.5858974359
 31
0.0
  0
LINE
  5
E5
330
1F
100
AcDbEntity
  8
0
  6
Continuous
 62
     7
370
    25
100
AcDbLine
 10
570.6774827712
 20
-17.2653846154
 30
0.0
 11
567.0877391814
 21
-17.2653846154
 31
0.0
  0
LINE
  5
E6
330
1F
100
AcDbEntity
  8
0
  6
Continuous
 62
     7
370
    25
100
AcDbLine
 10
570.6774827712
 20
-17.5794871795
 30
0.0
 11
570.6774827712
 21
-17.2653846154
 31
0.0
  0
LINE
  5
E7
330
1F
100
AcDbEntity
  8
0
  6
Continuous
 62
     7
370
    25
100
AcDbLine
 10
567.0877391814
 20
-17.5794871795
 30
0.0
 11
570.6774827712
 21
-17.5794871795
 31
0.0
  0
LINE
  5
E8
330
1F
100
AcDbEntity
  8
0
  6
Continuous
 62
     7
370
    25
100
AcDbLine
 10
567.0877391814
 20
-17.2653846154
 30
0.0
 11
567.0877391814
 21
-17.5794871795
 31
0.0
  0
LINE
  5
E9
330
1F
100
AcDbEntity
  8
0
  6
Continuous
 62
     7
370
    25
100
AcDbLine
 10
569.6454314891
 20
-14.3038461538
 30
0.0
 11
568.4233762007
 21
-14.3038461538
 31
0.0
  0
LINE
  5
EA
330
1F
100
AcDbEntity
  8
0
  6
Continuous
 62
     7
370
    25
100
AcDbLine
 10
569.6454314891
 20
-14.6179487179
 30
0.0
 11
569.6454314891
 21
-14.3038461538
 31
0.0
  0
LINE
  5
EB
330
1F
100
AcDbEntity
  8
0
  6
Continuous
 62
     7
370
    25
100
AcDbLine
 10
568.4591334122
 20
-14.6179487179
 30
0.0
 11
569.6454314891
 21
-14.6179487179
 31
0.0
  0
SPLINE
  5
EC
330
1F
100
AcDbEntity
  8
0
  6
Continuous
 62
     7
370
    25
100
AcDbSpline
210
0.0
220
0.0
230
1.0
 70
     8
 71
     3
 72
    14
 73
    10
 74
     0
 42
0.00000001
 43
0.00000001
 40
0.0
 40
0.0
 40
0.0
 40
0.0
 40
0.0001511244310268
 40
0.0001511244310268
 40
0.0001511244310268
 40
0.0003015882464889
 40
0.0003015882464889
 40
0.0003015882464889
 40
0.0006008298448508
 40
0.0006008298448508
 40
0.0006008298448508
 40
0.0006008298448508
 10
567.861076521188
 20
-14.6677283653846
 30
0.0
 10
567.9096047393973
 20
-14.65421416713068
 30
0.0
 10
567.9594786708902
 20
-14.64533086654676
 30
0.0
 10
568.0094704361026
 20
-14.63913046914216
 30
0.0
 10
568.0593264681365
 20
-14.63294690650313
 30
0.0
 10
568.109444083842
 20
-14.62882480756039
 30
0.0
 10
568.1595846150755
 20
-14.62569630876701
 30
0.0
 10
568.259273745343
 20
-14.61947624455781
 30
0.0
 10
568.3592512505329
 20
-14.61835574406352
 30
0.0
 10
568.4591334122136
 20
-14.6179487179487
 30
0.0
  0
SPLINE
  5
ED
330
1F
100
AcDbEntity
  8
0
  6
Continuous
 62
     7
370
    25
100
AcDbSpline
210
0.0
220
0.0
230
1.0
 70
     8
 71
     3
 72
    17
 73
    13
 74
     0
 42
0.00000001
 43
0.00000001
 40
0.0
 40
0.0
 40
0.0
 40
0.0
 40
0.0003439930798978
 40
0.0003439930798978
 40
0.0003439930798978
 40
0.000602578538891
 40
0.000602578538891
 40
0.000602578538891
 40
0.0008640294052912
 40
0.0008640294052912
 40
0.0008640294052912
 40
0.0009928988780996
 40
0.0009928988780996
 40
0.0009928988780996
 40
0.0009928988780996
 10
567.3569699506752
 20
-15.45298477564101
 30
0.0
 10
567.3607322531678
 20
-15.33838215557344
 30
0.0
 10
567.3730985910122
 20
-15.22114457378388
 30
0.0
 10
567.4127013928019
 20
-15.11353633275747
 30
0.0
 10
567.4426458173472
 20
-15.03217171439102
 30
0.0
 10
567.4849506269342
 20
-14.95382776032416
 30
0.0
 10
567.5394932159465
 20
-14.88643357906859
 30
0.0
 10
567.5944036170755
 20
-14.81858492000196
 30
0.0
 10
567.6638678428646
 20
-14.76043145012871
 30
0.0
 10
567.7404501348135
 20
-14.71855370843775
 30
0.0
 10
567.7787324641856
 20
-14.69761965880337
 30
0.0
 10
567.8199641169176
 20
-14.68234142089505
 30
0.0
 10
567.861076521188
 20
-14.6677283653846
 30
0.0
  0
SPLINE
  5
EE
330
1F
100
AcDbEntity
  8
0
  6
Continuous
 62
     7
370
    25
100
AcDbSpline
210
0.0
220
0.0
230
1.0
 70
     8
 71
     3
 72
    15
 73
    11
 74
     0
 42
0.00000001
 43
0.00000001
 40
0.0
 40
0.0
 40
0.0
 40
0.0
 40
0.1156637407011706
 40
0.2299906501366776
 40
0.3464133208897336
 40
0.4669701006576272
 40
0.5916451213451777
 40
0.7208643635373871
 40
0.8553635666784324
 40
1.0
 40
1.0
 40
1.0
 40
1.0
 10
567.8358361365728
 20
-16.2263221153846
 30
0.0
 10
567.8010729979122
 20
-16.21213545480144
 30
0.0
 10
567.7319485098675
 20
-16.18392610180103
 30
0.0
 10
567.6393006875251
 20
-16.11931834136668
 30
0.0
 10
567.5562857708475
 20
-16.04101589759854
 30
0.0
 10
567.4855676821524
 20
-15.94704230545887
 30
0.0
 10
567.4275606643836
 20
-15.84002705111647
 30
0.0
 10
567.3865797038575
 20
-15.72064193271104
 30
0.0
 10
567.3614598562419
 20
-15.59028087953138
 30
0.0
 10
567.3585023875048
 20
-15.49984491624859
 30
0.0
 10
567.3569699506752
 20
-15.45298477564101
 30
0.0
  0
SPLINE
  5
EF
330
1F
100
AcDbEntity
  8
0
  6
Continuous
 62
     7
370
    25
100
AcDbSpline
210
0.0
220
0.0
230
1.0
 70
     8
 71
     3
 72
    14
 73
    10
 74
     0
 42
0.00000001
 43
0.00000001
 40
0.0000000000000001
 40
0.0000000000000001
 40
0.0000000000000001
 40
0.0000000000000001
 40
0.0001570576449751
 40
0.0001570576449751
 40
0.0001570576449751
 40
0.0003140934170419
 40
0.0003140934170419
 40
0.0003140934170419
 40
0.0006275789434336
 40
0.0006275789434336
 40
0.0006275789434336
 40
0.0006275789434336
 10
568.4591334122138
 20
-16.27820512820511
 30
0.0
 10
568.4067808676645
 20
-16.27818524481087
 30
0.0
 10
568.3544177344786
 20
-16.27793689138392
 30
0.0
 10
568.3020850986513
 20
-16.2764930965567
 30
0.0
 10
568.249753914793
 20
-16.27504934178756
 30
0.0
 10
568.1973873066514
 20
-16.27409526710266
 30
0.0
 10
568.1451280610552
 20
-16.27099551201874
 30
0.0
 10
568.0411436457642
 20
-16.26482768054185
 30
0.0
 10
567.9355953769226
 20
-16.25630368861465
 30
0.0
 10
567.8358361365727
 20
-16.2263221153846
 30
0.0
  0
LINE
  5
F0
330
1F
100
AcDbEntity
  8
0
  6
Continuous
 62
     7
370
    25
100
AcDbLine
 10
569.6454314891
 20
-16.2782051282
 30
0.0
 11
568.4591334122
 21
-16.2782051282
 31
0.0
  0
LINE
  5
F1
330
1F
100
AcDbEntity
  8
0
  6
Continuous
 62
     7
370
    25
100
AcDbLine
 10
569.6454314891
 20
-16.5923076923
 30
0.0
 11
569.6454314891
 21
-16.2782051282
 31
0.0
  0
LINE
  5
F2
330
1F
100
AcDbEntity
  8
0
  6
Continuous
 62
     7
370
    25
100
AcDbLine
 10
568.4002391814
 20
-16.5923076923
 30
0.0
 11
569.6454314891
 21
-16.5923076923
 31
0.0
  0
SPLINE
  5
F3
330
1F
100
AcDbEntity
  8
0
  6
Continuous
 62
     7
370
    25
100
AcDbSpline
210
0.0
220
0.0
230
1.0
 70
     8
 71
     3
 72
    20
 73
    16
 74
     0
 42
0.00000001
 43
0.00000001
 40
0.0
 40
0.0
 40
0.0
 40
0.0
 40
0.0004779173556325
 40
0.0004779173556325
 40
0.0004779173556325
 40
0.0007961508309638
 40
0.0007961508309638
 40
0.0007961508309638
 40
0.001114550438319
 40
0.001114550438319
 40
0.001114550438319
 40
0.0014242444243027
 40
0.0014242444243027
 40
0.0014242444243027
 40
0.0020259473182513
 40
0.0020259473182513
 40
0.0020259473182513
 40
0.0020259473182513
 10
567.0428673865727
 20
-15.45018028846152
 30
0.0
 10
567.0444979937611
 20
-15.60947772824584
 30
0.0
 10
567.0630464747419
 20
-15.77225943819992
 30
0.0
 10
567.1161906425331
 20
-15.92243943231174
 30
0.0
 10
567.1516788378832
 20
-16.02272545033118
 30
0.0
 10
567.2055242010107
 20
-16.11793264152469
 30
0.0
 10
567.2721025861567
 20
-16.20090261230187
 30
0.0
 10
567.3386730341268
 20
-16.28386269177223
 30
0.0
 10
567.4202462700531
 20
-16.35695460091372
 30
0.0
 10
567.5109566511447
 20
-16.4125030130503
 30
0.0
 10
567.599494922668
 20
-16.46672128815014
 30
0.0
 10
567.6978318373943
 20
-16.5067266582247
 30
0.0
 10
567.7984470108576
 20
-16.53232419224853
 30
0.0
 10
567.9938149797255
 20
-16.58202781107788
 30
0.0
 10
568.1986587659069
 20
-16.59020316004525
 30
0.0
 10
568.4002391814445
 20
-16.59230769230767
 30
0.0
  0
SPLINE
  5
F4
330
1F
100
AcDbEntity
  8
0
  6
Continuous
 62
     7
370
    25
100
AcDbSpline
210
0.0
220
0.0
230
1.0
 70
     8
 71
     3
 72
    23
 73
    19
 74
     0
 42
0.00000001
 43
0.00000001
 40
0.0
 40
0.0
 40
0.0
 40
0.0
 40
0.0005658629011239
 40
0.0005658629011239
 40
0.0005658629011239
 40
0.0009067360718071
 40
0.0009067360718071
 40
0.0009067360718071
 40
0.001249315125751
 40
0.001249315125751
 40
0.001249315125751
 40
0.0015679211241355
 40
0.0015679211241355
 40
0.0015679211241355
 40
0.0020002594300856
 40
0.0020002594300856
 40
0.0020002594300856
 40
0.0020607736745189
 40
0.0020607736745189
 40
0.0020607736745189
 40
0.0020607736745189
 10
568.4233762006752
 20
-14.30384615384614
 30
0.0
 10
568.2347650365826
 20
-14.30576916898995
 30
0.0
 10
568.0442882915781
 20
-14.31363902226401
 30
0.0
 10
567.859535526055
 20
-14.35164276996204
 30
0.0
 10
567.7486562621136
 20
-14.37445069686821
 30
0.0
 10
567.6384469870652
 20
-14.41121038849568
 30
0.0
 10
567.540433252778
 20
-14.46784713092518
 30
0.0
 10
567.4419485544112
 20
-14.52475601757483
 30
0.0
 10
567.3513760885576
 20
-14.5995513285402
 30
0.0
 10
567.2794047597336
 20
-14.68763075303559
 30
0.0
 10
567.2122180542503
 20
-14.76985469483867
 30
0.0
 10
567.1576284776284
 20
-14.86433914728326
 30
0.0
 10
567.1210092512326
 20
-14.96400790998004
 30
0.0
 10
567.0713537537165
 20
-15.09915828003543
 30
0.0
 10
567.0475745994607
 20
-15.24507474537602
 30
0.0
 10
567.0438415910916
 20
-15.38900999334605
 30
0.0
 10
567.043312877857
 20
-15.40939582241049
 30
0.0
 10
567.0430901487487
 20
-15.42978882109545
 30
0.0
 10
567.0428673865727
 20
-15.45018028846152
 30
0.0
  0
LINE
  5
F5
330
1F
100
AcDbEntity
  8
0
  6
Continuous
 62
     7
370
    25
100
AcDbLine
 10
569.6454314891
 20
-13.3166666667
 30
0.0
 11
569.198115784
 21
-13.3166666667
 31
0.0
  0
LINE
  5
F6
330
1F
100
AcDbEntity
  8
0
  6
Continuous
 62
     7
370
    25
100
AcDbLine
 10
569.6454314891
 20
-13.6307692308
 30
0.0
 11
569.6454314891
 21
-13.3166666667
 31
0.0
  0
LINE
  5
F7
330
1F
100
AcDbEntity
  8
0
  6
Continuous
 62
     7
370
    25
100
AcDbLine
 10
567.615683893
 20
-13.6307692308
 30
0.0
 11
569.6454314891
 21
-13.6307692308
 31
0.0
  0
SPLINE
  5
F8
330
1F
100
AcDbEntity
  8
0
  6
Continuous
 62
     7
370
    25
100
AcDbSpline
210
0.0
220
0.0
230
1.0
 70
     8
 71
     3
 72
    15
 73
    11
 74
     0
 42
0.00000001
 43
0.00000001
 40
0.0
 40
0.0
 40
0.0
 40
0.0
 40
0.0882817618399806
 40
0.1866292870175239
 40
0.2945713141931658
 40
0.4141358504252221
 40
0.5437091760632645
 40
0.684511287287045
 40
0.8365547451500863
 40
1.0
 40
1.0
 40
1.0
 40
1.0
 10
566.8311286045214
 20
-13.53752003205126
 30
0.0
 10
566.8532309838076
 20
-13.5450981193093
 30
0.0
 10
566.8999558248352
 20
-13.56111833676359
 30
0.0
 10
566.9758173872028
 20
-13.57935401591572
 30
0.0
 10
567.0604985918768
 20
-13.5955303831541
 30
0.0
 10
567.1540807019368
 20
-13.60877709947363
 30
0.0
 10
567.2568429605262
 20
-13.6179857808272
 30
0.0
 10
567.3683090460576
 20
-13.62610645804756
 30
0.0
 10
567.4889873256708
 20
-13.62995742930222
 30
0.0
 10
567.5724462983761
 20
-13.63049218819832
 30
0.0
 10
567.615683892983
 20
-13.63076923076921
 30
0.0
  0
SPLINE
  5
F9
330
1F
100
AcDbEntity
  8
0
  6
Continuous
 62
     7
370
    25
100
AcDbSpline
210
0.0
220
0.0
230
1.0
 70
     8
 71
     3
 72
    17
 73
    13
 74
     0
 42
0.00000001
 43
0.00000001
 40
0.0
 40
0.0
 40
0.0
 40
0.0
 40
0.000586020249689
 40
0.000586020249689
 40
0.000586020249689
 40
0.000954508539041
 40
0.000954508539041
 40
0.000954508539041
 40
0.0013263333150561
 40
0.0013263333150561
 40
0.0013263333150561
 40
0.00148889858361
 40
0.00148889858361
 40
0.00148889858361
 40
0.00148889858361
 10
566.1005596942649
 20
-12.33439503205126
 30
0.0
 10
566.1029936201237
 20
-12.52971995140639
 30
0.0
 10
566.1280000600221
 20
-12.73043163210454
 30
0.0
 10
566.2004510021061
 20
-12.911838933797
 30
0.0
 10
566.24649121133
 20
-13.02711735371043
 30
0.0
 10
566.30880612609
 20
-13.13819677887313
 30
0.0
 10
566.3888933781012
 20
-13.23303794624474
 30
0.0
 10
566.4694734242609
 20
-13.32846269179079
 30
0.0
 10
566.5698713398001
 20
-13.40974646570112
 30
0.0
 10
566.6795531674869
 20
-13.46948692583454
 30
0.0
 10
566.728188028393
 20
-13.49597690170692
 30
0.0
 10
566.7795222596715
 20
-13.51742392077799
 30
0.0
 10
566.8311286045214
 20
-13.53752003205126
 30
0.0
  0
SPLINE
  5
FA
330
1F
100
AcDbEntity
  8
0
  6
Continuous
 62
     7
370
    25
100
AcDbSpline
210
0.0
220
0.0
230
1.0
 70
     8
 71
     3
 72
    19
 73
    15
 74
     0
 42
0.00000001
 43
0.00000001
 40
0.0
 40
0.0
 40
0.0
 40
0.0
 40
0.096942357849632
 40
0.1851245938955598
 40
0.2645891519889401
 40
0.3370927969261442
 40
0.4073025778555507
 40
0.479848900795954
 40
0.5569575152274776
 40
0.6382601511613586
 40
0.7231517644044785
 40
0.8115206602863323
 40
0.9035056761068787
 40
1.0
 40
1.0
 40
1.0
 40
1.0
 10
566.9082520019573
 20
-11.02820512820511
 30
0.0
 10
566.8601838800499
 20
-11.05081085041186
 30
0.0
 10
566.7683912751991
 20
-11.09397954607874
 30
0.0
 10
566.6433236536416
 20
-11.16764009728469
 30
0.0
 10
566.5361272068527
 20
-11.24416866596012
 30
0.0
 10
566.4451555864459
 20
-11.32550602170216
 30
0.0
 10
566.3686834721892
 20
-11.41564488896744
 30
0.0
 10
566.3012671684618
 20
-11.51572852723185
 30
0.0
 10
566.2430592076784
 20
-11.62829536303011
 30
0.0
 10
566.1919538943641
 20
-11.75149398780342
 30
0.0
 10
566.150018451466
 20
-11.88477154686439
 30
0.0
 10
566.1226009050157
 20
-12.02761298660138
 30
0.0
 10
566.1030835205238
 20
-12.17821064976157
 30
0.0
 10
566.1014142816867
 20
-12.28150977177506
 30
0.0
 10
566.100559694265
 20
-12.33439503205127
 30
0.0
  0
LINE
  5
FB
330
1F
100
AcDbEntity
  8
0
  6
Continuous
 62
     7
370
    25
100
AcDbLine
 10
566.908252002
 20
-11.3423076923
 30
0.0
 11
566.908252002
 21
-11.0282051282
 31
0.0
  0
SPLINE
  5
FC
330
1F
100
AcDbEntity
  8
0
  6
Continuous
 62
     7
370
    25
100
AcDbSpline
210
0.0
220
0.0
230
1.0
 70
     8
 71
     3
 72
    15
 73
    11
 74
     0
 42
0.00000001
 43
0.00000001
 40
0.0
 40
0.0
 40
0.0
 40
0.0
 40
0.1461452286957295
 40
0.2806498296156339
 40
0.4064749021880869
 40
0.524888000341592
 40
0.6399384659354945
 40
0.7561946260844672
 40
0.8752835132976595
 40
1.0
 40
1.0
 40
1.0
 40
1.0
 10
566.4146622583675
 20
-12.30424679487178
 30
0.0
 10
566.4160741341656
 20
-12.2487786380111
 30
0.0
 10
566.418785428306
 20
-12.14226042382805
 30
0.0
 10
566.4412816951625
 20
-11.98926080209316
 30
0.0
 10
566.4788569915984
 20
-11.8502141159236
 30
0.0
 10
566.5315667830002
 20
-11.72398890051563
 30
0.0
 10
566.6014775570646
 20
-11.61050921733105
 30
0.0
 10
566.6882309217524
 20
-11.50930289098374
 30
0.0
 10
566.789744077687
 20
-11.41695441001686
 30
0.0
 10
566.8681461261849
 20
-11.36756990161309
 30
0.0
 10
566.9082520019573
 20
-11.34230769230767
 30
0.0
  0
SPLINE
  5
FD
330
1F
100
AcDbEntity
  8
0
  6
Continuous
 62
     7
370
    25
100
AcDbSpline
210
0.0
220
0.0
230
1.0
 70
     8
 71
     3
 72
    20
 73
    16
 74
     0
 42
0.00000001
 43
0.00000001
 40
0.0000000000000001
 40
0.0000000000000001
 40
0.0000000000000001
 40
0.0000000000000001
 40
0.0005643162744463
 40
0.0005643162744463
 40
0.0005643162744463
 40
0.0007669110384137
 40
0.0007669110384137
 40
0.0007669110384137
 40
0.0010344913068578
 40
0.0010344913068578
 40
0.0010344913068578
 40
0.0013136092887751
 40
0.0013136092887751
 40
0.0013136092887751
 40
0.0016485920946666
 40
0.0016485920946666
 40
0.0016485920946666
 40
0.0016485920946666
 10
567.445311296829
 20
-13.31666666666665
 30
0.0
 10
567.2572084062776
 20
-13.31569023887799
 30
0.0
 10
567.0595478994052
 20
-13.31242690104064
 30
0.0
 10
566.8863650405945
 20
-13.2390010999954
 30
0.0
 10
566.8230587977043
 20
-13.21216061689397
 30
0.0
 10
566.7648277177548
 20
-13.17184412211323
 30
0.0
 10
566.7143276324427
 20
-13.12517686051097
 30
0.0
 10
566.6477803854814
 20
-13.06368037464025
 30
0.0
 10
566.5935579413876
 20
-12.98812773011632
 30
0.0
 10
566.5498275093321
 20
-12.90876777066045
 30
0.0
 10
566.5041992236232
 20
-12.82596367443509
 30
0.0
 10
566.4713810725228
 20
-12.73536047698302
 30
0.0
 10
566.4501350426897
 20
-12.64323520887073
 30
0.0
 10
566.4246036244215
 20
-12.53252799572422
 30
0.0
 10
566.4176145195119
 20
-12.41782154785672
 30
0.0
 10
566.4146622583675
 20
-12.30424679487178
 30
0.0
  0
LINE
  5
FE
330
1F
100
AcDbEntity
  8
0
  6
Continuous
 62
     7
370
    25
100
AcDbLine
 10
567.5778233161
 20
-13.3166666667
 30
0.0
 11
567.4453112968
 21
-13.3166666667
 31
0.0
  0
SPLINE
  5
FF
330
1F
100
AcDbEntity
  8
0
  6
Continuous
 62
     7
370
    25
100
AcDbSpline
210
0.0
220
0.0
230
1.0
 70
     8
 71
     3
 72
    15
 73
    11
 74
     0
 42
0.00000001
 43
0.00000001
 40
0.0
 40
0.0
 40
0.0
 40
0.0
 40
0.1268198800586512
 40
0.2509605252612553
 40
0.3750364685671226
 40
0.5001735764065108
 40
0.6252807346849957
 40
0.7491047381120801
 40
0.8734392869854496
 40
0.9999999999999999
 40
0.9999999999999999
 40
0.9999999999999999
 40
0.9999999999999999
 10
567.0877391814444
 20
-12.29443108974357
 30
0.0
 10
567.0891072911099
 20
-12.34408163077307
 30
0.0
 10
567.091814607346
 20
-12.44233378059775
 30
0.0
 10
567.1169745072365
 20
-12.58732583579892
 30
0.0
 10
567.155917468139
 20
-12.7283480662163
 30
0.0
 10
567.2115988927483
 20
-12.86413630837511
 30
0.0
 10
567.2812175272618
 20
-12.99321985077734
 30
0.0
 10
567.366103657563
 20
-13.11243676640725
 30
0.0
 10
567.4646652942561
 20
-13.22158409354022
 30
0.0
 10
567.5398815139026
 20
-13.28478554926415
 30
0.0
 10
567.5778233160597
 20
-13.31666666666665
 30
0.0
  0
SPLINE
  5
100
330
1F
100
AcDbEntity
  8
0
  6
Continuous
 62
     7
370
    25
100
AcDbSpline
210
0.0
220
0.0
230
1.0
 70
     8
 71
     3
 72
    20
 73
    16
 74
     0
 42
0.00000001
 43
0.00000001
 40
0.0
 40
0.0
 40
0.0
 40
0.0
 40
0.0004490999580965
 40
0.0004490999580965
 40
0.0004490999580965
 40
0.0009016100051573
 40
0.0009016100051573
 40
0.0009016100051573
 40
0.0013134897815245
 40
0.0013134897815245
 40
0.0013134897815245
 40
0.001747087874078
 40
0.001747087874078
 40
0.001747087874078
 40
0.0020338030080598
 40
0.0020338030080598
 40
0.0020338030080598
 40
0.0020338030080598
 10
568.374998796829
 20
-10.98333333333332
 30
0.0
 10
568.2253311865998
 20
-10.98644657382105
 30
0.0
 10
568.0732735386287
 20
-11.00849349581602
 30
0.0
 10
567.9322899980788
 20
-11.0588296370272
 30
0.0
 10
567.7904739976328
 20
-11.10946299604631
 30
0.0
 10
567.6556093234606
 20
-11.18729505384864
 30
0.0
 10
567.5416587796554
 20
-11.28573685693305
 30
0.0
 10
567.4375619290303
 20
-11.37566606068005
 30
0.0
 10
567.3487210397319
 20
-11.48527104770015
 30
0.0
 10
567.278187983199
 20
-11.60337483228301
 30
0.0
 10
567.2040137866072
 20
-11.72757550876781
 30
0.0
 10
567.1486932222505
 20
-11.86537943432625
 30
0.0
 10
567.1181572245005
 20
-12.00678372110975
 30
0.0
 10
567.0978052692641
 20
-12.10102834800514
 30
0.0
 10
567.0894374022539
 20
-12.19802897448321
 30
0.0
 10
567.0877391814445
 20
-12.29443108974358
 30
0.0
  0
SPLINE
  5
101
330
1F
100
AcDbEntity
  8
0
  6
Continuous
 62
     7
370
    25
100
AcDbSpline
210
0.0
220
0.0
230
1.0
 70
     8
 71
     3
 72
    20
 73
    16
 74
     0
 42
0.00000001
 43
0.00000001
 40
0.0
 40
0.0
 40
0.0
 40
0.0
 40
0.000460397395676
 40
0.000460397395676
 40
0.000460397395676
 40
0.0009217951247134
 40
0.0009217951247134
 40
0.0009217951247134
 40
0.0013842226403702
 40
0.0013842226403702
 40
0.0013842226403702
 40
0.0018121711451805
 40
0.0018121711451805
 40
0.0018121711451805
 40
0.0020592943595469
 40
0.0020592943595469
 40
0.0020592943595469
 40
0.0020592943595469
 10
569.6903032840086
 20
-12.30424679487178
 30
0.0
 10
569.6873893605358
 20
-12.15080866278838
 30
0.0
 10
569.6614702344007
 20
-11.99524557413599
 30
0.0
 10
569.6086934477169
 20
-11.85114018868991
 30
0.0
 10
569.5557988808756
 20
-11.70671320816336
 30
0.0
 10
569.4758450023791
 20
-11.57019257506491
 30
0.0
 10
569.3779826919709
 20
-11.45153358422597
 30
0.0
 10
569.2802335190848
 20
-11.33301177371867
 30
0.0
 10
569.1577577745115
 20
-11.23211592670775
 30
0.0
 10
569.0242946388778
 20
-11.15602445680051
 30
0.0
 10
568.9004128710707
 20
-11.08539562163642
 30
0.0
 10
568.7637366054823
 20
-11.03252245308499
 30
0.0
 10
568.623587252778
 20
-11.00619217226183
 30
0.0
 10
568.5418056199721
 20
-10.99082761069659
 30
0.0
 10
568.4581978974323
 20
-10.98482157903338
 30
0.0
 10
568.374998796829
 20
-10.98333333333332
 30
0.0
  0
SPLINE
  5
102
330
1F
100
AcDbEntity
  8
0
  6
Continuous
 62
     7
370
    25
100
AcDbSpline
210
0.0
220
0.0
230
1.0
 70
     8
 71
     3
 72
    14
 73
    10
 74
     0
 42
0.00000001
 43
0.00000001
 40
0.0
 40
0.0
 40
0.0
 40
0.0
 40
0.0005241920879746
 40
0.0005241920879746
 40
0.0005241920879746
 40
0.0009291050858741
 40
0.0009291050858741
 40
0.0009291050858741
 40
0.0011564394107773
 40
0.0011564394107773
 40
0.0011564394107773
 40
0.0011564394107773
 10
569.1981157840085
 20
-13.31666666666665
 30
0.0
 10
569.3292332661348
 20
-13.20117198279535
 30
0.0
 10
569.4566012265768
 20
-13.07316928131003
 30
0.0
 10
569.5410042177824
 20
-12.92017597689038
 30
0.0
 10
569.6065985096252
 20
-12.80127631093352
 30
0.0
 10
569.6489872368348
 20
-12.66818737275184
 30
0.0
 10
569.6715596970465
 20
-12.53428357994893
 30
0.0
 10
569.6843480442067
 20
-12.45842086173516
 30
0.0
 10
569.6881206065865
 20
-12.38114887388881
 30
0.0
 10
569.6903032840085
 20
-12.30424679487178
 30
0.0
  0
LINE
  5
103
330
1F
100
AcDbEntity
  8
0
  6
Continuous
 62
     7
370
    25
100
AcDbLine
 10
569.6454314891
 20
-8.1115384615
 30
0.0
 11
567.0877391814
 21
-8.1115384615
 31
0.0
  0
LINE
  5
104
330
1F
100
AcDbEntity
  8
0
  6
Continuous
 62
     7
370
    25
100
AcDbLine
 10
569.6454314891
 20
-8.4256410256
 30
0.0
 11
569.6454314891
 21
-8.1115384615
 31
0.0
  0
LINE
  5
105
330
1F
100
AcDbEntity
  8
0
  6
Continuous
 62
     7
370
    25
100
AcDbLine
 10
569.1840933481
 20
-8.4256410256
 30
0.0
 11
569.6454314891
 21
-8.4256410256
 31
0.0
  0
SPLINE
  5
106
330
1F
100
AcDbEntity
  8
0
  6
Continuous
 62
     7
370
    25
100
AcDbSpline
210
0.0
220
0.0
230
1.0
 70
     8
 71
     3
 72
    14
 73
    10
 74
     0
 42
0.00000001
 43
0.00000001
 40
0.0
 40
0.0
 40
0.0
 40
0.0
 40
0.0004245606689722
 40
0.0004245606689722
 40
0.0004245606689722
 40
0.0008543390066297
 40
0.0008543390066297
 40
0.0008543390066297
 40
0.0011339828205191
 40
0.0011339828205191
 40
0.0011339828205191
 40
0.0011339828205191
 10
569.6903032840086
 20
-9.398798076923057
 30
0.0
 10
569.6857339543814
 20
-9.257351639208624
 30
0.0
 10
569.6665314345188
 20
-9.113295735007586
 30
0.0
 10
569.6175749746333
 20
-8.980513060871179
 30
0.0
 10
569.5681539804758
 20
-8.84647044876168
 30
0.0
 10
569.490166312831
 20
-8.720502074224704
 30
0.0
 10
569.3939774557833
 20
-8.614872720801921
 30
0.0
 10
569.3305542611772
 20
-8.545224829727204
 30
0.0
 10
569.25759549941
 20
-8.48455421686051
 30
0.0
 10
569.1840933481111
 20
-8.425641025641008
 30
0.0
  0
SPLINE
  5
107
330
1F
100
AcDbEntity
  8
0
  6
Continuous
 62
     7
370
    25
100
AcDbSpline
210
0.0
220
0.0
230
1.0
 70
     8
 71
     3
 72
    23
 73
    19
 74
     0
 42
0.00000001
 43
0.00000001
 40
0.0
 40
0.0
 40
0.0
 40
0.0
 40
0.067922607699434
 40
0.1317168008002793
 40
0.1906557184256
 40
0.2451806093253942
 40
0.2954891584949291
 40
0.3412211118178422
 40
0.3833610067355919
 40
0.4214122919585193
 40
0.4929236627156259
 40
0.5628321121555694
 40
0.6327124409472469
 40
0.7041413097215798
 40
0.7765268509676224
 40
0.8488318944921055
 40
0.9227647034769181
 40
1.0
 40
1.0
 40
1.0
 40
1.0
 10
568.3939290852907
 20
-10.35512820512819
 30
0.0
 10
568.435536884274
 20
-10.35500588446831
 30
0.0
 10
568.5162235121302
 20
-10.35476867793965
 30
0.0
 10
568.6328856395146
 20
-10.34878998045696
 30
0.0
 10
568.7411333421151
 20
-10.34044769975535
 30
0.0
 10
568.8409314973109
 20
-10.329870551894
 30
0.0
 10
568.93187120198
 20
-10.31423892258256
 30
0.0
 10
569.0145889758859
 20
-10.29620755377159
 30
0.0
 10
569.0888369609384
 20
-10.2749764842356
 30
0.0
 10
569.175520485091
 20
-10.24124542549389
 30
0.0
 10
569.2732803396652
 20
-10.19008574219935
 30
0.0
 10
569.3783344676459
 20
-10.11366785165439
 30
0.0
 10
569.4703721221549
 20
-10.02205611370445
 30
0.0
 10
569.5489523484791
 20
-9.9167881126176
 30
0.0
 10
569.6118034244871
 20
-9.799759137609518
 30
0.0
 10
569.6581545497405
 20
-9.67365848538767
 30
0.0
 10
569.6851346418454
 20
-9.538762396788213
 30
0.0
 10
569.6885554921344
 20
-9.446127432139802
 30
0.0
 10
569.6903032840086
 20
-9.398798076923057
 30
0.0
  0
LINE
  5
108
330
1F
100
AcDbEntity
  8
0
  6
Continuous
 62
     7
370
    25
100
AcDbLine
 10
567.0877391814
 20
-10.3551282051
 30
0.0
 11
568.3939290853
 21
-10.3551282051
 31
0.0
  0
LINE
  5
109
330
1F
100
AcDbEntity
  8
0
  6
Continuous
 62
     7
370
    25
100
AcDbLine
 10
567.0877391814
 20
-10.041025641
 30
0.0
 11
567.0877391814
 21
-10.3551282051
 31
0.0
  0
LINE
  5
10A
330
1F
100
AcDbEntity
  8
0
  6
Continuous
 62
     7
370
    25
100
AcDbLine
 10
568.2908641814
 20
-10.041025641
 30
0.0
 11
567.0877391814
 21
-10.041025641
 31
0.0
  0
SPLINE
  5
10B
330
1F
100
AcDbEntity
  8
0
  6
Continuous
 62
     7
370
    25
100
AcDbSpline
210
0.0
220
0.0
230
1.0
 70
     8
 71
     3
 72
    14
 73
    10
 74
     0
 42
0.00000001
 43
0.00000001
 40
0.0
 40
0.0
 40
0.0
 40
0.0
 40
0.0001464428465222
 40
0.0001464428465222
 40
0.0001464428465222
 40
0.0002924623007752
 40
0.0002924623007752
 40
0.0002924623007752
 40
0.0005834567207713
 40
0.0005834567207713
 40
0.0005834567207713
 40
0.0005834567207713
 10
568.872795271188
 20
-10.00386618589742
 30
0.0
 10
568.8250968443293
 20
-10.01424376843742
 30
0.0
 10
568.7765991380024
 20
-10.02117285270141
 30
0.0
 10
568.7280052001297
 20
-10.02580570778043
 30
0.0
 10
568.6794938819282
 20
-10.03043068605462
 30
0.0
 10
568.6308451623026
 20
-10.03377846364474
 30
0.0
 10
568.5821597936898
 20
-10.03589348153899
 30
0.0
 10
568.485137697066
 20
-10.04010837148113
 30
0.0
 10
568.387976292993
 20
-10.04048682651313
 30
0.0
 10
568.2908641814444
 20
-10.04102564102562
 30
0.0
  0
SPLINE
  5
10C
330
1F
100
AcDbEntity
  8
0
  6
Continuous
 62
     7
370
    25
100
AcDbSpline
210
0.0
220
0.0
230
1.0
 70
     8
 71
     3
 72
    15
 73
    11
 74
     0
 42
0.00000001
 43
0.00000001
 40
0.0
 40
0.0
 40
0.0
 40
0.0
 40
0.140738691069931
 40
0.2700189621433311
 40
0.3907190350710193
 40
0.5068223535253082
 40
0.6215239708755218
 40
0.739166836806342
 40
0.8644804716293453
 40
1.0
 40
1.0
 40
1.0
 40
1.0
 10
569.376200719906
 20
-9.344110576923061
 30
0.0
 10
569.3749356554817
 20
-9.386774538684701
 30
0.0
 10
569.3725085234662
 20
-9.468628921358176
 30
0.0
 10
569.3481322542675
 20
-9.585007562030505
 30
0.0
 10
569.3091582995404
 20
-9.689314704798363
 30
0.0
 10
569.2529874628353
 20
-9.780543780438723
 30
0.0
 10
569.1808107412111
 20
-9.85844162980387
 30
0.0
 10
569.0926125533816
 20
-9.922255810591231
 30
0.0
 10
568.9889382007605
 20
-9.972789793716421
 30
0.0
 10
568.9125064561358
 20
-9.993240654391105
 30
0.0
 10
568.872795271188
 20
-10.00386618589742
 30
0.0
  0
SPLINE
  5
10D
330
1F
100
AcDbEntity
  8
0
  6
Continuous
 62
     7
370
    25
100
AcDbSpline
210
0.0
220
0.0
230
1.0
 70
     8
 71
     3
 72
    23
 73
    19
 74
     0
 42
0.00000001
 43
0.00000001
 40
0.0
 40
0.0
 40
0.0
 40
0.0
 40
0.0619921492588096
 40
0.1238965730667145
 40
0.184801782161086
 40
0.2456292270241539
 40
0.3070988495343734
 40
0.3692688981455694
 40
0.4324930595298585
 40
0.4975538304422745
 40
0.5623337699543578
 40
0.6259146095154013
 40
0.687614802629521
 40
0.7497425404566144
 40
0.8109950359029048
 40
0.8733593443945155
 40
0.9360069181288828
 40
1.0
 40
1.0
 40
1.0
 40
1.0
 10
568.69891706606
 20
-8.474018429487161
 30
0.0
 10
568.722421175384
 20
-8.480864671179567
 30
0.0
 10
568.7693961332305
 20
-8.494547466407939
 30
0.0
 10
568.8370790524292
 20
-8.52208239548699
 30
0.0
 10
568.9019404790736
 20
-8.554538345956423
 30
0.0
 10
568.9640830663145
 20
-8.591705925139143
 30
0.0
 10
569.0228423336596
 20
-8.63481503443065
 30
0.0
 10
569.07939943992
 20
-8.68230639304176
 30
0.0
 10
569.1317516491914
 20
-8.736359349472652
 30
0.0
 10
569.1821030039508
 20
-8.793630674505781
 30
0.0
 10
569.2272824955869
 20
-8.855262440114455
 30
0.0
 10
569.2676028349075
 20
-8.918644650108721
 30
0.0
 10
569.3005298942768
 20
-8.984976082922293
 30
0.0
 10
569.3289762639588
 20
-9.052358453316874
 30
0.0
 10
569.3498805811499
 20
-9.122760851123534
 30
0.0
 10
569.365329359828
 20
-9.19468985498919
 30
0.0
 10
569.3747832423218
 20
-9.268838536735672
 30
0.0
 10
569.375724892488
 20
-9.318842804837816
 30
0.0
 10
569.376200719906
 20
-9.344110576923061
 30
0.0
  0
SPLINE
  5
10E
330
1F
100
AcDbEntity
  8
0
  6
Continuous
 62
     7
370
    25
100
AcDbSpline
210
0.0
220
0.0
230
1.0
 70
     8
 71
     3
 72
    14
 73
    10
 74
     0
 42
0.00000001
 43
0.00000001
 40
0.0
 40
0.0
 40
0.0
 40
0.0
 40
0.0001724863044786
 40
0.0001724863044786
 40
0.0001724863044786
 40
0.0003450240345241
 40
0.0003450240345241
 40
0.0003450240345241
 40
0.0006898418439015
 40
0.0006898418439015
 40
0.0006898418439015
 40
0.0006898418439015
 10
568.0125188288804
 20
-8.425641025641008
 30
0.0
 10
568.070013845626
 20
-8.425860286376546
 30
0.0
 10
568.1275129954201
 20
-8.426028450072007
 30
0.0
 10
568.1849993992143
 20
-8.427047471502949
 30
0.0
 10
568.2424954177069
 20
-8.428066663366952
 30
0.0
 10
568.2999599987106
 20
-8.430601898458606
 30
0.0
 10
568.3573995188183
 20
-8.433346424712198
 30
0.0
 10
568.4719124997187
 20
-8.438817986484807
 30
0.0
 10
568.5871495683082
 20
-8.448500059059949
 30
0.0
 10
568.69891706606
 20
-8.474018429487161
 30
0.0
  0
LINE
  5
10F
330
1F
100
AcDbEntity
  8
0
  6
Continuous
 62
     7
370
    25
100
AcDbLine
 10
567.0877391814
 20
-8.4256410256
 30
0.0
 11
568.0125188289
 21
-8.4256410256
 31
0.0
  0
LINE
  5
110
330
1F
100
AcDbEntity
  8
0
  6
Continuous
 62
     7
370
    25
100
AcDbLine
 10
567.0877391814
 20
-8.1115384615
 30
0.0
 11
567.0877391814
 21
-8.4256410256
 31
0.0
  0
LINE
  5
111
330
1F
100
AcDbEntity
  8
0
  6
Continuous
 62
     7
370
    25
100
AcDbLine
 10
569.6454314891
 20
-7.3935897436
 30
0.0
 11
569.6454314891
 21
-7.0794871795
 31
0.0
  0
LINE
  5
112
330
1F
100
AcDbEntity
  8
0
  6
Continuous
 62
     7
370
    25
100
AcDbLine
 10
567.0877391814
 20
-7.3935897436
 30
0.0
 11
569.6454314891
 21
-7.3935897436
 31
0.0
  0
LINE
  5
113
330
1F
100
AcDbEntity
  8
0
  6
Continuous
 62
     7
370
    25
100
AcDbLine
 10
567.0877391814
 20
-7.0794871795
 30
0.0
 11
567.0877391814
 21
-7.3935897436
 31
0.0
  0
LINE
  5
114
330
1F
100
AcDbEntity
  8
0
  6
Continuous
 62
     7
370
    25
100
AcDbLine
 10
567.530147034
 20
-7.0794871795
 30
0.0
 11
567.0877391814
 21
-7.0794871795
 31
0.0
  0
SPLINE
  5
115
330
1F
100
AcDbEntity
  8
0
  6
Continuous
 62
     7
370
    25
100
AcDbSpline
210
0.0
220
0.0
230
1.0
 70
     8
 71
     3
 72
    14
 73
    10
 74
     0
 42
0.00000001
 43
0.00000001
 40
0.0
 40
0.0
 40
0.0
 40
0.0
 40
0.0003000388961098
 40
0.0003000388961098
 40
0.0003000388961098
 40
0.0007433441266206
 40
0.0007433441266206
 40
0.0007433441266206
 40
0.0011957102438242
 40
0.0011957102438242
 40
0.0011957102438242
 40
0.0011957102438242
 10
567.0428673865727
 20
-6.034815705128191
 30
0.0
 10
567.0451844796091
 20
-6.134801825774731
 30
0.0
 10
567.0519291789789
 20
-6.235490727620525
 30
0.0
 10
567.0722966608233
 20
-6.333407829933642
 30
0.0
 10
567.1021422150102
 20
-6.476890966691209
 30
0.0
 10
567.1549475587424
 20
-6.61838468301623
 30
0.0
 10
567.2320384696434
 20
-6.743024801336831
 30
0.0
 10
567.3108591717033
 20
-6.870461635537384
 30
0.0
 10
567.4178905503269
 20
-6.980233304722953
 30
0.0
 10
567.5301470340085
 20
-7.079487179487163
 30
0.0
  0
SPLINE
  5
116
330
1F
100
AcDbEntity
  8
0
  6
Continuous
 62
     7
370
    25
100
AcDbSpline
210
0.0
220
0.0
230
1.0
 70
     8
 71
     3
 72
    20
 73
    16
 74
     0
 42
0.00000001
 43
0.00000001
 40
0.0
 40
0.0
 40
0.0
 40
0.0
 40
0.0004685533356376
 40
0.0004685533356376
 40
0.0004685533356376
 40
0.0009418700304836
 40
0.0009418700304836
 40
0.0009418700304836
 40
0.0013662512367098
 40
0.0013662512367098
 40
0.0013662512367098
 40
0.0018487144886423
 40
0.0018487144886423
 40
0.0018487144886423
 40
0.0020840670429158
 40
0.0020840670429158
 40
0.0020840670429158
 40
0.0020840670429158
 10
568.3735965532394
 20
-4.701282051282035
 30
0.0
 10
568.2174689711838
 20
-4.705496199813013
 30
0.0
 10
568.0582984892915
 20
-4.725486934824077
 30
0.0
 10
567.911504447029
 20
-4.778826320671594
 30
0.0
 10
567.7634508563693
 20
-4.83262337862157
 30
0.0
 10
567.6242637168882
 20
-4.917426280258193
 30
0.0
 10
567.5059612126925
 20
-5.021438330773023
 30
0.0
 10
567.3992404994766
 20
-5.115267622802334
 30
0.0
 10
567.304082784361
 20
-5.225080997769931
 30
0.0
 10
567.2298693294495
 20
-5.346265195510916
 30
0.0
 10
567.1460751882031
 20
-5.483093831159779
 30
0.0
 10
567.0890989229697
 20
-5.63930219024021
 30
0.0
 10
567.062284172288
 20
-5.79749353888672
 30
0.0
 10
567.0490192274751
 20
-5.875748956383994
 30
0.0
 10
567.0450212811529
 20
-5.955473220501736
 30
0.0
 10
567.0428673865727
 20
-6.034815705128191
 30
0.0
  0
SPLINE
  5
117
330
1F
100
AcDbEntity
  8
0
  6
Continuous
 62
     7
370
    25
100
AcDbSpline
210
0.0
220
0.0
230
1.0
 70
     8
 71
     3
 72
    20
 73
    16
 74
     0
 42
0.00000001
 43
0.00000001
 40
0.0
 40
0.0
 40
0.0
 40
0.0
 40
0.0004794793921435
 40
0.0004794793921435
 40
0.0004794793921435
 40
0.0009626344952151
 40
0.0009626344952151
 40
0.0009626344952151
 40
0.0014051377591733
 40
0.0014051377591733
 40
0.0014051377591733
 40
0.0018855865769626
 40
0.0018855865769626
 40
0.0018855865769626
 40
0.0020775910005147
 40
0.0020775910005147
 40
0.0020775910005147
 40
0.0020775910005147
 10
569.6903032840086
 20
-6.044631410256393
 30
0.0
 10
569.6857248202846
 20
-5.884870538075611
 30
0.0
 10
569.665382847028
 20
-5.721826540407758
 30
0.0
 10
569.6098898022549
 20
-5.57194318378721
 30
0.0
 10
569.5539722910494
 20
-5.420913369012925
 30
0.0
 10
569.467407713604
 20
-5.278771833171487
 30
0.0
 10
569.3611682904868
 20
-5.157734822361072
 30
0.0
 10
569.2634212747034
 20
-5.046373086209495
 30
0.0
 10
569.1480679053305
 20
-4.947619300278252
 30
0.0
 10
569.0206407739108
 20
-4.872000244800202
 30
0.0
 10
568.8832514354134
 20
-4.790469318896361
 30
0.0
 10
568.7262370310656
 20
-4.736408035844404
 30
0.0
 10
568.5679911667538
 20
-4.714467920993698
 30
0.0
 10
568.5036594358268
 20
-4.705548600598052
 30
0.0
 10
568.4385178949849
 20
-4.703111058210663
 30
0.0
 10
568.3735965532394
 20
-4.701282051282035
 30
0.0
  0
SPLINE
  5
118
330
1F
100
AcDbEntity
  8
0
  6
Continuous
 62
     7
370
    25
100
AcDbSpline
210
0.0
220
0.0
230
1.0
 70
     8
 71
     3
 72
    14
 73
    10
 74
     0
 42
0.00000001
 43
0.00000001
 40
0.0
 40
0.0
 40
0.0
 40
0.0
 40
0.0005307591447389
 40
0.0005307591447389
 40
0.0005307591447389
 40
0.0009812681726544
 40
0.0009812681726544
 40
0.0009812681726544
 40
0.0011910824699712
 40
0.0011910824699712
 40
0.0011910824699712
 40
0.0011910824699712
 10
569.1721742775983
 20
-7.079487179487163
 30
0.0
 10
569.3122298617133
 20
-6.971389913642436
 30
0.0
 10
569.4452306033751
 20
-6.843601319093541
 30
0.0
 10
569.5322816573271
 20
-6.689579568906402
 30
0.0
 10
569.6067828013014
 20
-6.557762708972884
 30
0.0
 10
569.6545321358174
 20
-6.408520783469934
 30
0.0
 10
569.675806730679
 20
-6.258609154068846
 30
0.0
 10
569.6858514518973
 20
-6.187828933129243
 30
0.0
 10
569.6883446356076
 20
-6.116093986455774
 30
0.0
 10
569.6903032840086
 20
-6.044631410256393
 30
0.0
  0
LINE
  5
119
330
1F
100
AcDbEntity
  8
0
  6
Continuous
 62
     7
370
    25
100
AcDbLine
 10
569.6454314891
 20
-7.0794871795
 30
0.0
 11
569.1721742776
 21
-7.0794871795
 31
0.0
  0
LINE
  5
11A
330
1F
100
AcDbEntity
  8
0
  6
Continuous
 62
     7
370
    25
100
AcDbLine
 10
569.6454314891
 20
-3.758974359
 30
0.0
 11
567.0877391814
 21
-3.758974359
 31
0.0
  0
LINE
  5
11B
330
1F
100
AcDbEntity
  8
0
  6
Continuous
 62
     7
370
    25
100
AcDbLine
 10
569.6454314891
 20
-4.0730769231
 30
0.0
 11
569.6454314891
 21
-3.758974359
 31
0.0
  0
LINE
  5
11C
330
1F
100
AcDbEntity
  8
0
  6
Continuous
 62
     7
370
    25
100
AcDbLine
 10
567.0877391814
 20
-4.0730769231
 30
0.0
 11
569.6454314891
 21
-4.0730769231
 31
0.0
  0
LINE
  5
11D
330
1F
100
AcDbEntity
  8
0
  6
Continuous
 62
     7
370
    25
100
AcDbLine
 10
567.0877391814
 20
-3.758974359
 30
0.0
 11
567.0877391814
 21
-4.0730769231
 31
0.0
  0
SPLINE
  5
11E
330
1F
100
AcDbEntity
  8
0
  6
Continuous
 62
     7
370
    25
100
AcDbSpline
210
0.0
220
0.0
230
1.0
 70
     8
 71
     3
 72
    20
 73
    16
 74
     0
 42
0.00000001
 43
0.00000001
 40
0.0
 40
0.0
 40
0.0
 40
0.0
 40
0.000109843557845
 40
0.000109843557845
 40
0.000109843557845
 40
0.0002205592741772
 40
0.0002205592741772
 40
0.0002205592741772
 40
0.0003250791632979
 40
0.0003250791632979
 40
0.0003250791632979
 40
0.000414100973018
 40
0.000414100973018
 40
0.000414100973018
 40
0.0004374454001828
 40
0.0004374454001828
 40
0.0004374454001828
 40
0.0004374454001828
 10
570.7223545660598
 20
-3.914623397435882
 30
0.0
 10
570.7206858032978
 20
-3.878046926131609
 30
0.0
 10
570.7167020175028
 20
-3.84055253138354
 30
0.0
 10
570.7034569521494
 20
-3.806417633317037
 30
0.0
 10
570.6900830430836
 20
-3.771950682001463
 30
0.0
 10
570.6693467599003
 20
-3.739905285705232
 30
0.0
 10
570.6447026078391
 20
-3.712346295413976
 30
0.0
 10
570.6215115286719
 20
-3.686412243228844
 30
0.0
 10
570.5931733506411
 20
-3.663944638054629
 30
0.0
 10
570.5617627733657
 20
-3.648985465253281
 30
0.0
 10
570.5348806533395
 20
-3.636182953691357
 30
0.0
 10
570.5051287601906
 20
-3.628452583866207
 30
0.0
 10
570.4754591215584
 20
-3.625949541151148
 30
0.0
 10
570.4675569267534
 20
-3.62528288216737
 30
0.0
 10
570.4596383462466
 20
-3.624821040822706
 30
0.0
 10
570.4517215532394
 20
-3.624358974358956
 30
0.0
  0
SPLINE
  5
11F
330
1F
100
AcDbEntity
  8
0
  6
Continuous
 62
     7
370
    25
100
AcDbSpline
210
0.0
220
0.0
230
1.0
 70
     8
 71
     3
 72
    20
 73
    16
 74
     0
 42
0.00000001
 43
0.00000001
 40
0.0
 40
0.0
 40
0.0
 40
0.0
 40
0.0001118622308366
 40
0.0001118622308366
 40
0.0001118622308366
 40
0.0002103871509463
 40
0.0002103871509463
 40
0.0002103871509463
 40
0.0002975538975315
 40
0.0002975538975315
 40
0.0002975538975315
 40
0.0004040557435016
 40
0.0004040557435016
 40
0.0004040557435016
 40
0.0004378434889256
 40
0.0004378434889256
 40
0.0004378434889256
 40
0.0004378434889256
 10
570.4517215532394
 20
-4.207692307692295
 30
0.0
 10
570.4889452076366
 20
-4.205512739243706
 30
0.0
 10
570.5272398845694
 20
-4.199438998901154
 30
0.0
 10
570.5609254502582
 20
-4.183450452077373
 30
0.0
 10
570.5908047521062
 20
-4.169268513704314
 30
0.0
 10
570.6182856692282
 20
-4.148829957842207
 30
0.0
 10
570.6408395790017
 20
-4.124638612099149
 30
0.0
 10
570.6609387534327
 20
-4.103080217892371
 30
0.0
 10
570.6780036173975
 20
-4.078344687241533
 30
0.0
 10
570.6913667702013
 20
-4.052073651466016
 30
0.0
 10
570.7075322678444
 20
-4.020293399219541
 30
0.0
 10
570.7172377213412
 20
-3.984617713889036
 30
0.0
 10
570.7202960384958
 20
-3.949093715759841
 30
0.0
 10
570.7212833501346
 20
-3.937625560223565
 30
0.0
 10
570.7218187954464
 20
-3.926121498388916
 30
0.0
 10
570.7223545660598
 20
-3.914623397435882
 30
0.0
  0
SPLINE
  5
120
330
1F
100
AcDbEntity
  8
0
  6
Continuous
 62
     7
370
    25
100
AcDbSpline
210
0.0
220
0.0
230
1.0
 70
     8
 71
     3
 72
    20
 73
    16
 74
     0
 42
0.00000001
 43
0.00000001
 40
0.0
 40
0.0
 40
0.0
 40
0.0
 40
0.0001132343722249
 40
0.0001132343722249
 40
0.0001132343722249
 40
0.0002274674459511
 40
0.0002274674459511
 40
0.0002274674459511
 40
0.0003309057662965
 40
0.0003309057662965
 40
0.0003309057662965
 40
0.0004216791781004
 40
0.0004216791781004
 40
0.0004216791781004
 40
0.0004378000068184
 40
0.0004378000068184
 40
0.0004378000068184
 40
0.0004378000068184
 10
570.1838930275982
 20
-3.914623397435882
 30
0.0
 10
570.1856500932756
 20
-3.952327269230905
 30
0.0
 10
570.1896479238687
 20
-3.990989588382499
 30
0.0
 10
570.2032841790524
 20
-4.026185067818003
 30
0.0
 10
570.2170610672559
 20
-4.061743524220988
 30
0.0
 10
570.23818478996
 20
-4.095083896104638
 30
0.0
 10
570.2640177238039
 20
-4.123135027977419
 30
0.0
 10
570.2873857579896
 20
-4.148509606509827
 30
0.0
 10
570.3160185718451
 20
-4.169973259500161
 30
0.0
 10
570.3472356199893
 20
-4.184650798890688
 30
0.0
 10
570.3746401691296
 20
-4.197535788772824
 30
0.0
 10
570.4051879315737
 20
-4.204374780756722
 30
0.0
 10
570.4353872286114
 20
-4.206618602558665
 30
0.0
 10
570.4408287543363
 20
-4.207022910448424
 30
0.0
 10
570.4462753039928
 20
-4.20735758955721
 30
0.0
 10
570.4517215532394
 20
-4.207692307692295
 30
0.0
  0
SPLINE
  5
121
330
1F
100
AcDbEntity
  8
0
  6
Continuous
 62
     7
370
    25
100
AcDbSpline
210
0.0
220
0.0
230
1.0
 70
     8
 71
     3
 72
    20
 73
    16
 74
     0
 42
0.00000001
 43
0.00000001
 40
0.0
 40
0.0
 40
0.0
 40
0.0
 40
0.0001091806557522
 40
0.0001091806557522
 40
0.0001091806557522
 40
0.0002052783480775
 40
0.0002052783480775
 40
0.0002052783480775
 40
0.0003134633385986
 40
0.0003134633385986
 40
0.0003134633385986
 40
0.0004198314412621
 40
0.0004198314412621
 40
0.0004198314412621
 40
0.0004329435649472
 40
0.0004329435649472
 40
0.0004329435649472
 40
0.0004329435649472
 10
570.4517215532394
 20
-3.624358974358956
 30
0.0
 10
570.4153961248118
 20
-3.626584703611743
 30
0.0
 10
570.3780417512774
 20
-3.632650313344496
 30
0.0
 10
570.3452099731727
 20
-3.648352700667712
 30
0.0
 10
570.3161083099915
 20
-3.662271093560246
 30
0.0
 10
570.2895536216029
 20
-3.682459638761693
 30
0.0
 10
570.2674297565749
 20
-3.705936500921076
 30
0.0
 10
570.2424749552175
 20
-3.732417426877827
 30
0.0
 10
570.2212484017775
 20
-3.763310903537848
 30
0.0
 10
570.2067816241331
 20
-3.796697935375029
 30
0.0
 10
570.192609801864
 20
-3.829404256915029
 30
0.0
 10
570.18637865672
 20
-3.865694439067413
 30
0.0
 10
570.1845294383943
 20
-3.90129113001881
 30
0.0
 10
570.1842986200506
 20
-3.905734288045004
 30
0.0
 10
570.1840958273003
 20
-3.91017887241803
 30
0.0
 10
570.1838930275982
 20
-3.914623397435882
 30
0.0
  0
LINE
  5
122
330
1F
100
AcDbEntity
  8
0
  6
Continuous
 62
     7
370
    25
100
AcDbLine
 10
569.6454314891
 20
-2.2333333333
 30
0.0
 11
567.0877391814
 21
-2.2333333333
 31
0.0
  0
LINE
  5
123
330
1F
100
AcDbEntity
  8
0
  6
Continuous
 62
     7
370
    25
100
AcDbLine
 10
569.6454314891
 20
-2.5474358974
 30
0.0
 11
569.6454314891
 21
-2.2333333333
 31
0.0
  0
LINE
  5
124
330
1F
100
AcDbEntity
  8
0
  6
Continuous
 62
     7
370
    25
100
AcDbLine
 10
569.2689290853
 20
-2.5474358974
 30
0.0
 11
569.6454314891
 21
-2.5474358974
 31
0.0
  0
SPLINE
  5
125
330
1F
100
AcDbEntity
  8
0
  6
Continuous
 62
     7
370
    25
100
AcDbSpline
210
0.0
220
0.0
230
1.0
 70
     8
 71
     3
 72
    15
 73
    11
 74
     0
 42
0.00000001
 43
0.00000001
 40
0.0
 40
0.0
 40
0.0
 40
0.0
 40
0.1071704976708633
 40
0.213910887817212
 40
0.323890172975832
 40
0.4386791018085009
 40
0.5615832267931868
 40
0.693852521226753
 40
0.8399222365729695
 40
0.9999999999999999
 40
0.9999999999999999
 40
0.9999999999999999
 40
0.9999999999999999
 10
569.6903032840086
 20
-3.17143429487178
 30
0.0
 10
569.689026912189
 20
-3.143299350598122
 30
0.0
 10
569.6864792910152
 20
-3.08714237606629
 30
0.0
 10
569.6676559215547
 20
-3.003743102343082
 30
0.0
 10
569.6352730279592
 20
-2.922741521182576
 30
0.0
 10
569.5914307089627
 20
-2.842459658487638
 30
0.0
 10
569.5333649086922
 20
-2.764232481302899
 30
0.0
 10
569.4596613080816
 20
-2.688713939244365
 30
0.0
 10
569.3710395950628
 20
-2.614964863222935
 30
0.0
 10
569.3039885813179
 20
-2.57062187029037
 30
0.0
 10
569.2689290852906
 20
-2.547435897435883
 30
0.0
  0
SPLINE
  5
126
330
1F
100
AcDbEntity
  8
0
  6
Continuous
 62
     7
370
    25
100
AcDbSpline
210
0.0
220
0.0
230
1.0
 70
     8
 71
     3
 72
    14
 73
    10
 74
     0
 42
0.00000001
 43
0.00000001
 40
0.0
 40
0.0
 40
0.0
 40
0.0
 40
0.0000730136452487
 40
0.0000730136452487
 40
0.0000730136452487
 40
0.0001462821995267
 40
0.0001462821995267
 40
0.0001462821995267
 40
0.0002916277961762
 40
0.0002916277961762
 40
0.0002916277961762
 40
0.0002916277961762
 10
569.6026630596496
 20
-3.444871794871775
 30
0.0
 10
569.614780439312
 20
-3.423764886093585
 30
0.0
 10
569.6269161591962
 20
-3.402629451209107
 30
0.0
 10
569.6376462359228
 20
-3.380784590452095
 30
0.0
 10
569.6483987770707
 20
-3.358893995432048
 30
0.0
 10
569.6575909183105
 20
-3.336188075238295
 30
0.0
 10
569.665358605324
 20
-3.313069287858128
 30
0.0
 10
569.6806266388063
 20
-3.267627392583706
 30
0.0
 10
569.68775141752
 20
-3.21930460581678
 30
0.0
 10
569.6903032840086
 20
-3.17143429487178
 30
0.0
  0
LINE
  5
127
330
1F
100
AcDbEntity
  8
0
  6
Continuous
 62
     7
370
    25
100
AcDbLine
 10
569.3306278032
 20
-3.2723958333
 30
0.0
 11
569.6026630596
 21
-3.4448717949
 31
0.0
  0
SPLINE
  5
128
330
1F
100
AcDbEntity
  8
0
  6
Continuous
 62
     7
370
    25
100
AcDbSpline
210
0.0
220
0.0
230
1.0
 70
     8
 71
     3
 72
    14
 73
    10
 74
     0
 42
0.00000001
 43
0.00000001
 40
0.0
 40
0.0
 40
0.0
 40
0.0
 40
0.0000422712464801
 40
0.0000422712464801
 40
0.0000422712464801
 40
0.0000846408983172
 40
0.0000846408983172
 40
0.0000846408983172
 40
0.0001681501078342
 40
0.0001681501078342
 40
0.0001681501078342
 40
0.0001681501078342
 10
569.376200719906
 20
-3.111838942307675
 30
0.0
 10
569.3754295793792
 20
-3.125908240480063
 30
0.0
 10
569.3745903242137
 20
-3.140033722557163
 30
0.0
 10
569.3722069237739
 20
-3.153921098519495
 30
0.0
 10
569.3698183079873
 20
-3.167838862779944
 30
0.0
 10
569.3661726643809
 20
-3.181556413561391
 30
0.0
 10
569.3618434459254
 20
-3.194997675219032
 30
0.0
 10
569.3533149522272
 20
-3.221476753721297
 30
0.0
 10
569.3419613198234
 20
-3.246990554257353
 30
0.0
 10
569.3306278032394
 20
-3.272395833333317
 30
0.0
  0
SPLINE
  5
129
330
1F
100
AcDbEntity
  8
0
  6
Continuous
 62
     7
370
    25
100
AcDbSpline
210
0.0
220
0.0
230
1.0
 70
     8
 71
     3
 72
    17
 73
    13
 74
     0
 42
0.00000001
 43
0.00000001
 40
0.0
 40
0.0
 40
0.0
 40
0.0
 40
0.0003514599103778
 40
0.0003514599103778
 40
0.0003514599103778
 40
0.0005518037670163
 40
0.0005518037670163
 40
0.0005518037670163
 40
0.0006833289545888
 40
0.0006833289545888
 40
0.0006833289545888
 40
0.0008000032264922
 40
0.0008000032264922
 40
0.0008000032264922
 40
0.0008000032264922
 10
568.8251189891366
 20
-2.603525641025624
 30
0.0
 10
568.9379840134686
 20
-2.634932372692375
 30
0.0
 10
569.0512749793764
 20
-2.675664041352858
 30
0.0
 10
569.1486789742999
 20
-2.740759035664148
 30
0.0
 10
569.2043240543262
 20
-2.777946588090619
 30
0.0
 10
569.253808113111
 20
-2.825946095315518
 30
0.0
 10
569.2934857160795
 20
-2.879843932092785
 30
0.0
 10
569.31966438641
 20
-2.91540489331388
 30
0.0
 10
569.3416619342498
 20
-2.954783010207166
 30
0.0
 10
569.3564835250652
 20
-2.996378985841076
 30
0.0
 10
569.3695886230204
 20
-3.033157719110209
 30
0.0
 10
569.373723957153
 20
-3.072873772481785
 30
0.0
 10
569.3762007199059
 20
-3.111838942307675
 30
0.0
  0
SPLINE
  5
12A
330
1F
100
AcDbEntity
  8
0
  6
Continuous
 62
     7
370
    25
100
AcDbSpline
210
0.0
220
0.0
230
1.0
 70
     8
 71
     3
 72
    14
 73
    10
 74
     0
 42
0.00000001
 43
0.00000001
 40
0.0
 40
0.0
 40
0.0
 40
0.0
 40
0.0002205227529132
 40
0.0002205227529132
 40
0.0002205227529132
 40
0.0004410483025867
 40
0.0004410483025867
 40
0.0004410483025867
 40
0.0008813910970122
 40
0.0008813910970122
 40
0.0008813910970122
 40
0.0008813910970122
 10
567.9473145019572
 20
-2.547435897435883
 30
0.0
 10
568.0208220613882
 20
-2.547496368662032
 30
0.0
 10
568.0943366075085
 20
-2.547704914954758
 30
0.0
 10
568.1678309917354
 20
-2.549097910779903
 30
0.0
 10
568.2413274078152
 20
-2.550490945116325
 30
0.0
 10
568.3148317155508
 20
-2.552187615056361
 30
0.0
 10
568.3882673072461
 20
-2.555485734764426
 30
0.0
 10
568.5346148458651
 20
-2.562058456386239
 30
0.0
 10
568.6824577016121
 20
-2.570230599785519
 30
0.0
 10
568.8251189891366
 20
-2.603525641025624
 30
0.0
  0
LINE
  5
12B
330
1F
100
AcDbEntity
  8
0
  6
Continuous
 62
     7
370
    25
100
AcDbLine
 10
567.0877391814
 20
-2.5474358974
 30
0.0
 11
567.947314502
 21
-2.5474358974
 31
0.0
  0
LINE
  5
12C
330
1F
100
AcDbEntity
  8
0
  6
Continuous
 62
     7
370
    25
100
AcDbLine
 10
567.0877391814
 20
-2.2333333333
 30
0.0
 11
567.0877391814
 21
-2.5474358974
 31
0.0
  0
LINE
  5
12D
330
1F
100
AcDbEntity
  8
0
  6
Continuous
 62
     7
370
    25
100
AcDbLine
 10
570.2287648225
 20
0.0551282051
 30
0.0
 11
570.2287648225
 21
-0.7076923077
 31
0.0
  0
LINE
  5
12E
330
1F
100
AcDbEntity
  8
0
  6
Continuous
 62
     7
370
    25
100
AcDbLine
 10
570.5877391814
 20
0.0551282051
 30
0.0
 11
570.2287648225
 21
0.0551282051
 31
0.0
  0
LINE
  5
12F
330
1F
100
AcDbEntity
  8
0
  6
Continuous
 62
     7
370
    25
100
AcDbLine
 10
570.5877391814
 20
-1.7846153846
 30
0.0
 11
570.5877391814
 21
0.0551282051
 31
0.0
  0
LINE
  5
130
330
1F
100
AcDbEntity
  8
0
  6
Continuous
 62
     7
370
    25
100
AcDbLine
 10
570.2287648225
 20
-1.7846153846
 30
0.0
 11
570.5877391814
 21
-1.7846153846
 31
0.0
  0
LINE
  5
131
330
1F
100
AcDbEntity
  8
0
  6
Continuous
 62
     7
370
    25
100
AcDbLine
 10
570.2287648225
 20
-1.0217948718
 30
0.0
 11
570.2287648225
 21
-1.7846153846
 31
0.0
  0
LINE
  5
132
330
1F
100
AcDbEntity
  8
0
  6
Continuous
 62
     7
370
    25
100
AcDbLine
 10
567.0877391814
 20
-1.0217948718
 30
0.0
 11
570.2287648225
 21
-1.0217948718
 31
0.0
  0
LINE
  5
133
330
1F
100
AcDbEntity
  8
0
  6
Continuous
 62
     7
370
    25
100
AcDbLine
 10
567.0877391814
 20
-0.7076923077
 30
0.0
 11
567.0877391814
 21
-1.0217948718
 31
0.0
  0
LINE
  5
134
330
1F
100
AcDbEntity
  8
0
  6
Continuous
 62
     7
370
    25
100
AcDbLine
 10
570.2287648225
 20
-0.7076923077
 30
0.0
 11
567.0877391814
 21
-0.7076923077
 31
0.0
  0
LINE
  5
135
330
1F
100
AcDbEntity
  8
0
  6
Continuous
 62
     7
370
    25
100
AcDbLine
 10
560.8885789854
 20
-83.8668230162
 30
0.0
 11
560.8885789854
 21
0.1
 31
0.0
  0
LINE
  5
136
330
1F
100
AcDbEntity
  8
0
  6
Continuous
 62
     7
370
    25
100
AcDbLine
 10
560.8885789854
 20
-83.8668230162
 30
0.0
 11
604.8298343586
 21
-83.8668230162
 31
0.0
  0
SPLINE
  5
137
330
1F
100
AcDbEntity
  8
0
  6
Continuous
 62
     7
370
    25
100
AcDbSpline
210
0.0
220
0.0
230
1.0
 70
     8
 71
     3
 72
    10
 73
     6
 74
     0
 42
0.00000001
 43
0.00000001
 40
0.0
 40
0.0
 40
0.0
 40
0.0
 40
0.5
 40
0.5
 40
1.0
 40
1.0
 40
1.0
 40
1.0
 10
604.8298343586372
 20
-83.86682301621961
 30
0.0
 10
605.0316889199834
 20
-78.4355230823021
 30
0.0
 10
610.163974572488
 20
-74.96179571824786
 30
0.0
 10
622.0149704793816
 20
-67.6755377776676
 30
0.0
 10
624.4823054110212
 20
-66.5952086147219
 30
0.0
 10
631.4957717580425
 20
-63.07532681883895
 30
0.0
  0
SPLINE
  5
138
330
1F
100
AcDbEntity
  8
0
  6
Continuous
 62
     7
370
    25
100
AcDbSpline
210
0.0
220
0.0
230
1.0
 70
     8
 71
     3
 72
    18
 73
    14
 74
     0
 42
0.00000001
 43
0.00000001
 40
0.0
 40
0.0
 40
0.0
 40
0.0
 40
0.25
 40
0.25
 40
0.375
 40
0.375
 40
0.5
 40
0.5
 40
0.625
 40
0.625
 40
0.75
 40
0.75
 40
1.0
 40
1.0
 40
1.0
 40
1.0
 10
631.4957719167112
 20
-63.07532634461048
 30
0.0
 10
621.565911911431
 20
-59.75296226133679
 30
0.0
 10
618.2497144574468
 20
-58.78647675109066
 30
0.0
 10
605.1594039136901
 20
-53.54524692152668
 30
0.0
 10
602.9427373915854
 20
-52.65162098165828
 30
0.0
 10
594.9927374445705
 20
-48.08208165346297
 30
0.0
 10
591.4902162054289
 20
-45.321619901347
 30
0.0
 10
591.4913286012747
 20
-38.77880645263875
 30
0.0
 10
594.9944865339505
 20
-36.01717012348531
 30
0.0
 10
602.9409892493027
 20
-31.44999737366446
 30
0.0
 10
605.1603634696123
 20
-30.55475676920556
 30
0.0
 10
618.2477928389764
 20
-25.31482276592527
 30
0.0
 10
621.5672228140104
 20
-24.34703452952429
 30
0.0
 10
631.4957717196417
 20
-21.02510905792467
 30
0.0
  0
SPLINE
  5
139
330
1F
100
AcDbEntity
  8
0
  6
Continuous
 62
     7
370
    25
100
AcDbSpline
210
0.0
220
0.0
230
1.0
 70
     8
 71
     3
 72
    10
 73
     6
 74
     0
 42
0.00000001
 43
0.00000001
 40
0.0
 40
0.0
 40
0.0
 40
0.0
 40
0.5000000000000007
 40
0.5000000000000007
 40
1.0
 40
1.0
 40
1.0
 40
1.0
 10
631.4957719439188
 20
-21.0251086110467
 30
0.0
 10
624.4332412959913
 20
-17.48060268227802
 30
0.0
 10
621.9642711819384
 20
-16.40575392384726
 30
0.0
 10
610.0157332881324
 20
-9.035268623817455
 30
0.0
 10
604.8821326451185
 20
-5.929049809233105
 30
0.0
 10
604.8257723884581
 20
0.0000000000000253
 30
0.0
  0
LINE
  5
13A
330
1F
100
AcDbEntity
  8
0
  6
Continuous
 62
     7
370
    25
100
AcDbLine
 10
604.8257723885
 20
0.1
 30
0.0
 11
604.8257723885
 21
0.0
 31
0.0
  0
LINE
  5
13B
330
1F
100
AcDbEntity
  8
0
  6
Continuous
 62
     7
370
    25
100
AcDbLine
 10
604.8257723885
 20
0.1
 30
0.0
 11
560.8885789854
 21
0.1
 31
0.0
  0
MTEXT
  5
13D
330
1F
100
AcDbEntity
  8
0
  6
Continuous
 62
     7
100
AcDbMText
 10
560.8885789854
 20
-84.8863894079
 30
0.0
 40
4.83362
 41
0.0
 71
     1
 72
     1
  1
SOLIDWORKS Educational Product.
  7
SLDTEXTSTYLE0
 73
     1
 44
1.0
  0
MTEXT
  5
13E
330
1F
100
AcDbEntity
  8
0
  6
Continuous
 62
     7
100
AcDbMText
 10
560.8885789854
 20
-92.1368194079
 30
0.0
 40
4.83362
 41
0.0
 71
     1
 72
     1
  1
For Instructional Use Only.
  7
SLDTEXTSTYLE0
 73
     1
 44
1.0
  0
ENDSEC
  0
SECTION
  2
OBJECTS
  0
DICTIONARY
  5
C
330
0
100
AcDbDictionary
281
     1
  3
ACAD_GROUP
350
D
  3
ACAD_LAYOUT
350
1A
  3
ACAD_MLINESTYLE
350
17
  3
ACAD_PLOTSETTINGS
350
19
  3
ACAD_PLOTSTYLENAME
350
E
  3
ACAD_SCALELIST
350
47
  3
DWGPROPS
350
13F
  0
DICTIONARY
  5
D
102
{ACAD_REACTORS
330
C
102
}
330
C
100
AcDbDictionary
281
     1
  0
DICTIONARY
  5
1A
102
{ACAD_REACTORS
330
C
102
}
330
C
100
AcDbDictionary
281
     1
  3
Layout1
350
1E
  3
Layout2
350
26
  3
Model
350
22
  0
DICTIONARY
  5
17
102
{ACAD_REACTORS
330
C
102
}
330
C
100
AcDbDictionary
281
     1
  3
Standard
350
18
  0
DICTIONARY
  5
19
102
{ACAD_REACTORS
330
C
102
}
330
C
100
AcDbDictionary
281
     1
  0
ACDBDICTIONARYWDFLT
  5
E
102
{ACAD_REACTORS
330
C
102
}
330
C
100
AcDbDictionary
281
     1
  3
Normal
350
F
100
AcDbDictionaryWithDefault
340
F
  0
DICTIONARY
  5
47
102
{ACAD_REACTORS
330
C
102
}
330
C
100
AcDbDictionary
281
     1
  3
A0
350
48
  3
A1
350
49
  3
A2
350
4A
  3
A3
350
4B
  3
A4
350
4C
  3
A5
350
4D
  3
A6
350
4E
  3
A7
350
4F
  3
A8
350
50
  3
A9
350
51
  3
B0
350
52
  3
B1
350
53
  3
B2
350
54
  3
B3
350
55
  3
B4
350
56
  3
B5
350
57
  3
B6
350
58
  0
XRECORD
  5
13F
102
{ACAD_REACTORS
330
C
102
}
330
C
100
AcDbXrecord
280
     1
  1
DWGPROPS COOKIE
  2

  3

  4

  6

  7

  8
Dell
  9

300
=
301
=
302
=
303
=
304
=
305
=
306
=
307
=
308
=
309
=
 40
0.0
 41
2460369.301298241
 42
2460369.301358403
  1

 90
        0
  0
LAYOUT
  5
1E
102
{ACAD_REACTORS
330
1A
102
}
330
1A
100
AcDbPlotSettings
  1

  2
none_device
  4

  6

 40
0.0
 41
0.0
 42
0.0
 43
0.0
 44
0.0
 45
0.0
 46
0.0
 47
0.0
 48
0.0
 49
0.0
140
0.0
141
0.0
142
1.0
143
1.0
 70
   688
 72
     1
 73
     0
 74
     5
  7

 75
    16
147
1.0
148
0.0
149
0.0
100
AcDbLayout
  1
Layout1
 70
     1
 71
     1
 10
0.0
 20
0.0
 11
420.0
 21
297.0
 12
0.0
 22
0.0
 32
0.0
 14
1.0000000000E+20
 24
1.0000000000E+20
 34
1.0000000000E+20
 15
-1.0000000000E+20
 25
-1.0000000000E+20
 35
-1.0000000000E+20
146
0.0
 13
0.0
 23
0.0
 33
0.0
 16
1.0
 26
0.0
 36
0.0
 17
0.0
 27
1.0
 37
0.0
 76
     0
330
1B
  0
LAYOUT
  5
26
102
{ACAD_REACTORS
330
1A
102
}
330
1A
100
AcDbPlotSettings
  1

  2
none_device
  4

  6

 40
0.0
 41
0.0
 42
0.0
 43
0.0
 44
0.0
 45
0.0
 46
0.0
 47
0.0
 48
0.0
 49
0.0
140
0.0
141
0.0
142
1.0
143
1.0
 70
   688
 72
     1
 73
     0
 74
     5
  7

 75
    16
147
1.0
148
0.0
149
0.0
100
AcDbLayout
  1
Layout2
 70
     1
 71
     2
 10
0.0
 20
0.0
 11
0.0
 21
0.0
 12
0.0
 22
0.0
 32
0.0
 14
0.0
 24
0.0
 34
0.0
 15
0.0
 25
0.0
 35
0.0
146
0.0
 13
0.0
 23
0.0
 33
0.0
 16
1.0
 26
0.0
 36
0.0
 17
0.0
 27
1.0
 37
0.0
 76
     0
330
23
  0
LAYOUT
  5
22
102
{ACAD_REACTORS
330
1A
102
}
330
1A
100
AcDbPlotSettings
  1

  2
none_device
  4
ANSI_A_(11.00_x_8.50_Inches)
  6

 40
6.35
 41
19.05
 42
6.35000508
 43
19.05000254
 44
279.4
 45
215.9
 46
-1384.2816956121
 47
195.5159446188
 48
0.0
 49
0.0
140
0.0
141
0.0
142
0.100218154
143
1.0
 70
  1696
 72
     0
 73
     0
 74
     0
  7

 75
     0
147
0.0179189148
148
-1300.4909072572
149
0.0
100
AcDbLayout
  1
Model
 70
     1
 71
     0
 10
0.0
 20
0.0
 11
420.0
 21
297.0
 12
0.0
 22
0.0
 32
0.0
 14
560.8885789854
 24
-83.8668230162
 34
0.0
 15
631.4957719439
 25
0.1
 35
0.0
146
0.0
 13
0.0
 23
0.0
 33
0.0
 16
1.0
 26
0.0
 36
0.0
 17
0.0
 27
1.0
 37
0.0
 76
     0
330
1F
331
29
  0
MLINESTYLE
  5
18
102
{ACAD_REACTORS
330
17
102
}
330
17
100
AcDbMlineStyle
  2
Standard
 70
     0
  3

 62
   256
 51
90.0
 52
90.0
 71
     2
 49
0.5
 62
   256
  6
BYLAYER
 49
-0.5
 62
   256
  6
BYLAYER
  0
ACDBPLACEHOLDER
  5
F
102
{ACAD_REACTORS
330
E
102
}
330
E
  0
SCALE
  5
48
102
{ACAD_REACTORS
330
47
102
}
330
47
100
AcDbScale
 70
     0
300
1:1
140
1.0
141
1.0
290
     1
  0
SCALE
  5
49
102
{ACAD_REACTORS
330
47
102
}
330
47
100
AcDbScale
 70
     0
300
1:2
140
1.0
141
2.0
290
     0
  0
SCALE
  5
4A
102
{ACAD_REACTORS
330
47
102
}
330
47
100
AcDbScale
 70
     0
300
1:4
140
1.0
141
4.0
290
     0
  0
SCALE
  5
4B
102
{ACAD_REACTORS
330
47
102
}
330
47
100
AcDbScale
 70
     0
300
1:5
140
1.0
141
5.0
290
     0
  0
SCALE
  5
4C
102
{ACAD_REACTORS
330
47
102
}
330
47
100
AcDbScale
 70
     0
300
1:8
140
1.0
141
8.0
290
     0
  0
SCALE
  5
4D
102
{ACAD_REACTORS
330
47
102
}
330
47
100
AcDbScale
 70
     0
300
1:10
140
1.0
141
10.0
290
     0
  0
SCALE
  5
4E
102
{ACAD_REACTORS
330
47
102
}
330
47
100
AcDbScale
 70
     0
300
1:16
140
1.0
141
16.0
290
     0
  0
SCALE
  5
4F
102
{ACAD_REACTORS
330
47
102
}
330
47
100
AcDbScale
 70
     0
300
1:20
140
1.0
141
20.0
290
     0
  0
SCALE
  5
50
102
{ACAD_REACTORS
330
47
102
}
330
47
100
AcDbScale
 70
     0
300
1:30
140
1.0
141
30.0
290
     0
  0
SCALE
  5
51
102
{ACAD_REACTORS
330
47
102
}
330
47
100
AcDbScale
 70
     0
300
1:40
140
1.0
141
40.0
290
     0
  0
SCALE
  5
52
102
{ACAD_REACTORS
330
47
102
}
330
47
100
AcDbScale
 70
     0
300
1:50
140
1.0
141
50.0
290
     0
  0
SCALE
  5
53
102
{ACAD_REACTORS
330
47
102
}
330
47
100
AcDbScale
 70
     0
300
1:100
140
1.0
141
100.0
290
     0
  0
SCALE
  5
54
102
{ACAD_REACTORS
330
47
102
}
330
47
100
AcDbScale
 70
     0
300
2:1
140
2.0
141
1.0
290
     0
  0
SCALE
  5
55
102
{ACAD_REACTORS
330
47
102
}
330
47
100
AcDbScale
 70
     0
300
4:1
140
4.0
141
1.0
290
     0
  0
SCALE
  5
56
102
{ACAD_REACTORS
330
47
102
}
330
47
100
AcDbScale
 70
     0
300
8:1
140
8.0
141
1.0
290
     0
  0
SCALE
  5
57
102
{ACAD_REACTORS
330
47
102
}
330
47
100
AcDbScale
 70
     0
300
10:1
140
10.0
141
1.0
290
     0
  0
SCALE
  5
58
102
{ACAD_REACTORS
330
47
102
}
330
47
100
AcDbScale
 70
     0
300
100:1
140
100.0
141
1.0
290
     0
  0
ENDSEC
  0
EOF
