  0
SECTION
  2
HEADER
  9
$ACADVER
  1
AC1015
  9
$ACADMAINTVER
 70
     6
  9
$DWGCODEPAGE
  3
ANSI_1252
  9
$INSBASE
 10
0.0
 20
0.0
 30
0.0
  9
$EXTMIN
 10
-992.4450026609
 20
76.0683006256
 30
0.0
  9
$EXTMAX
 10
-895.2813812944
 20
175.0914859603
 30
0.0
  9
$LIMMIN
 10
0.0
 20
0.0
  9
$LIMMAX
 10
420.0
 20
297.0
  9
$ORTHOMODE
 70
     0
  9
$REGENMODE
 70
     1
  9
$FILLMODE
 70
     1
  9
$QTEXTMODE
 70
     0
  9
$MIRRTEXT
 70
     1
  9
$LTSCALE
 40
1.0
  9
$ATTMODE
 70
     1
  9
$TEXTSIZE
 40
3.5
  9
$TRACEWID
 40
1.0
  9
$TEXTSTYLE
  7
Standard
  9
$CLAYER
  8
0
  9
$CELTYPE
  6
ByLayer
  9
$CECOLOR
 62
   256
  9
$CELTSCALE
 40
1.0
  9
$DISPSILH
 70
     0
  9
$DIMSCALE
 40
1.0
  9
$DIMASZ
 40
3.302
  9
$DIMEXO
 40
0.0
  9
$DIMDLI
 40
3.75
  9
$DIMRND
 40
0.0
  9
$DIMDLE
 40
0.0
  9
$DIMEXE
 40
1.0
  9
$DIMTP
 40
0.0
  9
$DIMTM
 40
0.0
  9
$DIMTXT
 40
3.5
  9
$DIMCEN
 40
2.5
  9
$DIMTSZ
 40
0.0
  9
$DIMTOL
 70
     0
  9
$DIMLIM
 70
     0
  9
$DIMTIH
 70
     1
  9
$DIMTOH
 70
     1
  9
$DIMSE1
 70
     0
  9
$DIMSE2
 70
     0
  9
$DIMTAD
 70
     1
  9
$DIMZIN
 70
     1
  9
$DIMBLK
  1

  9
$DIMASO
 70
     1
  9
$DIMSHO
 70
     1
  9
$DIMPOST
  1

  9
$DIMAPOST
  1

  9
$DIMALT
 70
     0
  9
$DIMALTD
 70
     3
  9
$DIMALTF
 40
0.0393700787
  9
$DIMLFAC
 40
1.0
  9
$DIMTOFL
 70
     1
  9
$DIMTVP
 40
0.0
  9
$DIMTIX
 70
     0
  9
$DIMSOXD
 70
     0
  9
$DIMSAH
 70
     0
  9
$DIMBLK1
  1

  9
$DIMBLK2
  1

  9
$DIMSTYLE
  2
ISO-25
  9
$DIMCLRD
 70
     0
  9
$DIMCLRE
 70
     0
  9
$DIMCLRT
 70
     0
  9
$DIMTFAC
 40
1.0
  9
$DIMGAP
 40
1.524
  9
$DIMJUST
 70
     0
  9
$DIMSD1
 70
     0
  9
$DIMSD2
 70
     0
  9
$DIMTOLJ
 70
     0
  9
$DIMTZIN
 70
     1
  9
$DIMALTZ
 70
     0
  9
$DIMALTTZ
 70
     0
  9
$DIMUPT
 70
     0
  9
$DIMDEC
 70
     2
  9
$DIMTDEC
 70
     2
  9
$DIMALTU
 70
     2
  9
$DIMALTTD
 70
     3
  9
$DIMTXSTY
  7
Standard
  9
$DIMAUNIT
 70
     0
  9
$DIMADEC
 70
     2
  9
$DIMALTRND
 40
0.0
  9
$DIMAZIN
 70
     0
  9
$DIMDSEP
 70
    44
  9
$DIMATFIT
 70
     3
  9
$DIMFRAC
 70
     0
  9
$DIMLDRBLK
  1

  9
$DIMLUNIT
 70
     2
  9
$DIMLWD
 70
    -2
  9
$DIMLWE
 70
    -2
  9
$DIMTMOVE
 70
     0
  9
$LUNITS
 70
     2
  9
$LUPREC
 70
     2
  9
$SKETCHINC
 40
1.0
  9
$FILLETRAD
 40
0.0
  9
$AUNITS
 70
     0
  9
$AUPREC
 70
     2
  9
$MENU
  1
.
  9
$ELEVATION
 40
0.0
  9
$PELEVATION
 40
0.0
  9
$THICKNESS
 40
0.0
  9
$LIMCHECK
 70
     0
  9
$CHAMFERA
 40
0.0
  9
$CHAMFERB
 40
0.0
  9
$CHAMFERC
 40
0.0
  9
$CHAMFERD
 40
0.0
  9
$SKPOLY
 70
     0
  9
$TDCREATE
 40
2460369.075409491
  9
$TDUCREATE
 40
2460369.283742824
  9
$TDUPDATE
 40
2460369.075469803
  9
$TDUUPDATE
 40
2460369.283803137
  9
$TDINDWG
 40
0.0000000116
  9
$TDUSRTIMER
 40
0.0000000116
  9
$USRTIMER
 70
     1
  9
$ANGBASE
 50
0.0
  9
$ANGDIR
 70
     0
  9
$PDMODE
 70
     0
  9
$PDSIZE
 40
-1.0
  9
$PLINEWID
 40
0.0
  9
$SPLFRAME
 70
     0
  9
$SPLINETYPE
 70
     6
  9
$SPLINESEGS
 70
     8
  9
$HANDSEED
  5
12F
  9
$SURFTAB1
 70
     6
  9
$SURFTAB2
 70
     6
  9
$SURFTYPE
 70
     6
  9
$SURFU
 70
     6
  9
$SURFV
 70
     6
  9
$UCSBASE
  2

  9
$UCSNAME
  2

  9
$UCSORG
 10
0.0
 20
0.0
 30
0.0
  9
$UCSXDIR
 10
1.0
 20
0.0
 30
0.0
  9
$UCSYDIR
 10
0.0
 20
1.0
 30
0.0
  9
$UCSORTHOREF
  2

  9
$UCSORTHOVIEW
 70
     0
  9
$UCSORGTOP
 10
0.0
 20
0.0
 30
0.0
  9
$UCSORGBOTTOM
 10
0.0
 20
0.0
 30
0.0
  9
$UCSORGLEFT
 10
0.0
 20
0.0
 30
0.0
  9
$UCSORGRIGHT
 10
0.0
 20
0.0
 30
0.0
  9
$UCSORGFRONT
 10
0.0
 20
0.0
 30
0.0
  9
$UCSORGBACK
 10
0.0
 20
0.0
 30
0.0
  9
$PUCSBASE
  2

  9
$PUCSNAME
  2

  9
$PUCSORG
 10
0.0
 20
0.0
 30
0.0
  9
$PUCSXDIR
 10
1.0
 20
0.0
 30
0.0
  9
$PUCSYDIR
 10
0.0
 20
1.0
 30
0.0
  9
$PUCSORTHOREF
  2

  9
$PUCSORTHOVIEW
 70
     0
  9
$PUCSORGTOP
 10
0.0
 20
0.0
 30
0.0
  9
$PUCSORGBOTTOM
 10
0.0
 20
0.0
 30
0.0
  9
$PUCSORGLEFT
 10
0.0
 20
0.0
 30
0.0
  9
$PUCSORGRIGHT
 10
0.0
 20
0.0
 30
0.0
  9
$PUCSORGFRONT
 10
0.0
 20
0.0
 30
0.0
  9
$PUCSORGBACK
 10
0.0
 20
0.0
 30
0.0
  9
$USERI1
 70
     0
  9
$USERI2
 70
     0
  9
$USERI3
 70
     0
  9
$USERI4
 70
     0
  9
$USERI5
 70
     0
  9
$USERR1
 40
0.0
  9
$USERR2
 40
0.0
  9
$USERR3
 40
0.0
  9
$USERR4
 40
0.0
  9
$USERR5
 40
0.0
  9
$WORLDVIEW
 70
     1
  9
$SHADEDGE
 70
     3
  9
$SHADEDIF
 70
    70
  9
$TILEMODE
 70
     1
  9
$MAXACTVP
 70
    64
  9
$PINSBASE
 10
0.0
 20
0.0
 30
0.0
  9
$PLIMCHECK
 70
     0
  9
$PEXTMIN
 10
1.0000000000E+20
 20
1.0000000000E+20
 30
1.0000000000E+20
  9
$PEXTMAX
 10
-1.0000000000E+20
 20
-1.0000000000E+20
 30
-1.0000000000E+20
  9
$PLIMMIN
 10
0.0
 20
0.0
  9
$PLIMMAX
 10
420.0
 20
297.0
  9
$UNITMODE
 70
     0
  9
$VISRETAIN
 70
     1
  9
$PLINEGEN
 70
     0
  9
$PSLTSCALE
 70
     1
  9
$TREEDEPTH
 70
  3020
  9
$CMLSTYLE
  2
Standard
  9
$CMLJUST
 70
     0
  9
$CMLSCALE
 40
20.0
  9
$PROXYGRAPHICS
 70
     1
  9
$MEASUREMENT
 70
     1
  9
$CELWEIGHT
370
    -1
  9
$ENDCAPS
280
     0
  9
$JOINSTYLE
280
     0
  9
$LWDISPLAY
290
     1
  9
$INSUNITS
 70
     4
  9
$HYPERLINKBASE
  1

  9
$STYLESHEET
  1

  9
$XEDIT
290
     1
  9
$CEPSNTYPE
380
     0
  9
$PSTYLEMODE
290
     1
  9
$FINGERPRINTGUID
  2
{553b1b61-39f0-4454-8fbc-11f13713082e}
  9
$VERSIONGUID
  2
{FAEB1C32-E019-11D5-929B-00C0DF256EC4}
  9
$EXTNAMES
290
     1
  9
$PSVPSCALE
 40
0.0
  9
$OLESTARTUP
290
     0
  0
ENDSEC
  0
SECTION
  2
CLASSES
  0
CLASS
  1
ACDBDICTIONARYWDFLT
  2
AcDbDictionaryWithDefault
  3
ObjectDBX Classes
 90
        0
280
     0
281
     0
  0
CLASS
  1
VISUALSTYLE
  2
AcDbVisualStyle
  3
ObjectDBX Classes
 90
     4095
280
     0
281
     0
  0
CLASS
  1
MATERIAL
  2
AcDbMaterial
  3
ObjectDBX Classes
 90
     1153
280
     0
281
     0
  0
CLASS
  1
SCALE
  2
AcDbScale
  3
ObjectDBX Classes
 90
     1153
280
     0
281
     0
  0
CLASS
  1
TABLESTYLE
  2
AcDbTableStyle
  3
ObjectDBX Classes
 90
     4095
280
     0
281
     0
  0
CLASS
  1
MLEADERSTYLE
  2
AcDbMLeaderStyle
  3
ACDB_MLEADERSTYLE_CLASS
 90
     4095
280
     0
281
     0
  0
CLASS
  1
SUN
  2
AcDbSun
  3
SCENEOE
 90
     1153
280
     0
281
     0
  0
CLASS
  1
ACDBPLACEHOLDER
  2
AcDbPlaceHolder
  3
ObjectDBX Classes
 90
        0
280
     0
281
     0
  0
CLASS
  1
LAYOUT
  2
AcDbLayout
  3
ObjectDBX Classes
 90
        0
280
     0
281
     0
  0
ENDSEC
  0
SECTION
  2
TABLES
  0
TABLE
  2
VPORT
  5
8
330
0
100
AcDbSymbolTable
 70
     1
  0
VPORT
  5
29
330
8
100
AcDbSymbolTableRecord
100
AcDbViewportTableRecord
  2
*Active
 70
     0
 10
0.0
 20
0.0
 11
1.0
 21
1.0
 12
-943.8631919777
 22
125.5798932929
 13
0.0
 23
0.0
 14
10.0
 24
10.0
 15
10.0
 25
10.0
 16
0.0
 26
0.0
 36
1.0
 17
0.0
 27
0.0
 37
0.0
 40
101.0036490414
 41
0.9812209235
 42
50.0
 43
0.0
 44
0.0
 50
0.0
 51
0.0
 71
     0
 72
   100
 73
     1
 74
     3
 75
     0
 76
     0
 77
     0
 78
     0
281
     0
 65
     1
110
0.0
120
0.0
130
0.0
111
1.0
121
0.0
131
0.0
112
0.0
122
1.0
132
0.0
 79
     0
146
0.0
  0
ENDTAB
  0
TABLE
  2
LTYPE
  5
5
330
0
100
AcDbSymbolTable
 70
     6
  0
LTYPE
  5
14
330
5
100
AcDbSymbolTableRecord
100
AcDbLinetypeTableRecord
  2
ByBlock
 70
     0
  3

 72
    65
 73
     0
 40
0.0
  0
LTYPE
  5
15
330
5
100
AcDbSymbolTableRecord
100
AcDbLinetypeTableRecord
  2
ByLayer
 70
     0
  3

 72
    65
 73
     0
 40
0.0
  0
LTYPE
  5
16
330
5
100
AcDbSymbolTableRecord
100
AcDbLinetypeTableRecord
  2
Continuous
 70
     0
  3
Solid line
 72
    65
 73
     0
 40
0.0
  0
LTYPE
  5
5E
330
5
100
AcDbSymbolTableRecord
100
AcDbLinetypeTableRecord
  2
HIDDEN
 70
     0
  3
Hidden __ __ __ __ __ __ __ __ __ __ __ __ __ __
 72
    65
 73
     2
 40
1.905
 49
1.27
 74
     0
 49
-0.635
 74
     0
  0
LTYPE
  5
5F
330
5
100
AcDbSymbolTableRecord
100
AcDbLinetypeTableRecord
  2
PHANTOM
 70
     0
  3
Phantom ______  __  __  ______  __  __  ______
 72
    65
 73
     6
 40
12.7
 49
6.35
 74
     0
 49
-1.27
 74
     0
 49
1.27
 74
     0
 49
-1.27
 74
     0
 49
1.27
 74
     0
 49
-1.27
 74
     0
  0
LTYPE
  5
60
330
5
100
AcDbSymbolTableRecord
100
AcDbLinetypeTableRecord
  2
CENTER
 70
     0
  3
Center ____ _ ____ _ ____ _ ____ _ ____ _ ____
 72
    65
 73
     4
 40
10.16
 49
6.35
 74
     0
 49
-1.27
 74
     0
 49
1.27
 74
     0
 49
-1.27
 74
     0
  0
LTYPE
  5
61
330
5
100
AcDbSymbolTableRecord
100
AcDbLinetypeTableRecord
  2
CENTERX2
 70
     0
  3
Center (2x) ________  __  ________  __  _____
 72
    65
 73
     4
 40
20.32
 49
12.7
 74
     0
 49
-2.54
 74
     0
 49
2.54
 74
     0
 49
-2.54
 74
     0
  0
LTYPE
  5
62
330
5
100
AcDbSymbolTableRecord
100
AcDbLinetypeTableRecord
  2
DOT2
 70
     0
  3
Dot (.5x) ........................................
 72
    65
 73
     2
 40
0.635
 49
0.0
 74
     0
 49
-0.635
 74
     0
  0
ENDTAB
  0
TABLE
  2
LAYER
  5
2
330
0
100
AcDbSymbolTable
 70
     1
  0
LAYER
  5
10
330
2
100
AcDbSymbolTableRecord
100
AcDbLayerTableRecord
  2
0
 70
     0
 62
     7
  6
Continuous
370
    -3
390
F
  0
ENDTAB
  0
TABLE
  2
STYLE
  5
3
330
0
100
AcDbSymbolTable
 70
     2
  0
STYLE
  5
11
330
3
100
AcDbSymbolTableRecord
100
AcDbTextStyleTableRecord
  2
Standard
 70
     0
 40
0.0
 41
1.0
 50
0.0
 71
     0
 42
3.5
  3
txt
  4

  0
STYLE
  5
12B
330
3
100
AcDbSymbolTableRecord
100
AcDbTextStyleTableRecord
  2
SLDTEXTSTYLE0
 70
     0
 40
0.0
 41
0.7
 50
0.0
 71
     0
 42
3.5
  3
TXT
  4

  0
ENDTAB
  0
TABLE
  2
VIEW
  5
6
330
0
100
AcDbSymbolTable
 70
     0
  0
ENDTAB
  0
TABLE
  2
UCS
  5
7
330
0
100
AcDbSymbolTable
 70
     0
  0
ENDTAB
  0
TABLE
  2
APPID
  5
9
330
0
100
AcDbSymbolTable
 70
     1
  0
APPID
  5
12
330
9
100
AcDbSymbolTableRecord
100
AcDbRegAppTableRecord
  2
ACAD
 70
     0
  0
ENDTAB
  0
TABLE
  2
DIMSTYLE
  5
A
330
0
100
AcDbSymbolTable
 70
     1
100
AcDbDimStyleTable
  0
DIMSTYLE
105
27
330
A
100
AcDbSymbolTableRecord
100
AcDbDimStyleTableRecord
  2
ISO-25
 70
     0
 41
2.5
 42
0.625
 43
3.75
 44
1.25
 73
     0
 74
     0
 77
     1
 78
     8
140
2.5
141
2.5
143
0.0393700787
147
0.625
171
     3
172
     1
178
     0
271
     2
272
     2
274
     3
278
    44
283
     0
284
     8
340
11
  0
ENDTAB
  0
TABLE
  2
BLOCK_RECORD
  5
1
330
0
100
AcDbSymbolTable
 70
     1
  0
BLOCK_RECORD
  5
1F
330
1
100
AcDbSymbolTableRecord
100
AcDbBlockTableRecord
  2
*Model_Space
340
22
  0
BLOCK_RECORD
  5
1B
330
1
100
AcDbSymbolTableRecord
100
AcDbBlockTableRecord
  2
*Paper_Space
340
1E
  0
BLOCK_RECORD
  5
23
330
1
100
AcDbSymbolTableRecord
100
AcDbBlockTableRecord
  2
*Paper_Space0
340
26
  0
ENDTAB
  0
ENDSEC
  0
SECTION
  2
BLOCKS
  0
BLOCK
  5
20
330
1F
100
AcDbEntity
  8
0
100
AcDbBlockBegin
  2
*Model_Space
 70
     0
 10
0.0
 20
0.0
 30
0.0
  3
*Model_Space
  1

  0
ENDBLK
  5
21
330
1F
100
AcDbEntity
  8
0
100
AcDbBlockEnd
  0
BLOCK
  5
1C
330
1B
100
AcDbEntity
 67
     1
  8
0
100
AcDbBlockBegin
  2
*Paper_Space
 70
     0
 10
0.0
 20
0.0
 30
0.0
  3
*Paper_Space
  1

  0
ENDBLK
  5
1D
330
1B
100
AcDbEntity
 67
     1
  8
0
100
AcDbBlockEnd
  0
BLOCK
  5
24
330
23
100
AcDbEntity
  8
0
100
AcDbBlockBegin
  2
*Paper_Space0
 70
     0
 10
0.0
 20
0.0
 30
0.0
  3
*Paper_Space0
  1

  0
ENDBLK
  5
25
330
23
100
AcDbEntity
  8
0
100
AcDbBlockEnd
  0
ENDSEC
  0
SECTION
  2
ENTITIES
  0
LINE
  5
63
330
1F
100
AcDbEntity
  8
0
  6
Continuous
 62
     7
370
    25
100
AcDbLine
 10
-927.8492953016
 20
123.57433028
 30
0.0
 11
-927.7364146927
 21
123.1908166582
 31
0.0
  0
LINE
  5
64
330
1F
100
AcDbEntity
  8
0
  6
Continuous
 62
     7
370
    25
100
AcDbLine
 10
-927.390060526
 20
124.0805402159
 30
0.0
 11
-927.8492953016
 21
123.57433028
 31
0.0
  0
LINE
  5
65
330
1F
100
AcDbEntity
  8
0
  6
Continuous
 62
     7
370
    25
100
AcDbLine
 10
-924.8113345645
 20
121.74229903
 30
0.0
 11
-927.390060526
 21
124.0805402159
 31
0.0
  0
LINE
  5
66
330
1F
100
AcDbEntity
  8
0
  6
Continuous
 62
     7
370
    25
100
AcDbLine
 10
-925.0434058786
 20
121.4863895749
 30
0.0
 11
-924.8113345645
 21
121.74229903
 31
0.0
  0
LINE
  5
67
330
1F
100
AcDbEntity
  8
0
  6
Continuous
 62
     7
370
    25
100
AcDbLine
 10
-927.3697279939
 20
123.5953639339
 30
0.0
 11
-925.0434058786
 21
121.4863895749
 31
0.0
  0
LINE
  5
68
330
1F
100
AcDbEntity
  8
0
  6
Continuous
 62
     7
370
    25
100
AcDbLine
 10
-927.7364146927
 20
123.1908166582
 30
0.0
 11
-927.3697279939
 21
123.5953639339
 31
0.0
  0
LINE
  5
69
330
1F
100
AcDbEntity
  8
0
  6
Continuous
 62
     7
370
    25
100
AcDbLine
 10
-929.8699068368
 20
121.4772385626
 30
0.0
 11
-927.2266776701
 21
119.0808042677
 31
0.0
  0
LINE
  5
6A
330
1F
100
AcDbEntity
  8
0
  6
Continuous
 62
     7
370
    25
100
AcDbLine
 10
-929.646950106
 20
121.7226311908
 30
0.0
 11
-929.8699068368
 21
121.4772385626
 31
0.0
  0
LINE
  5
6B
330
1F
100
AcDbEntity
  8
0
  6
Continuous
 62
     7
370
    25
100
AcDbLine
 10
-927.0037209394
 20
119.3261968959
 30
0.0
 11
-929.646950106
 21
121.7226311908
 31
0.0
  0
LINE
  5
6C
330
1F
100
AcDbEntity
  8
0
  6
Continuous
 62
     7
370
    25
100
AcDbLine
 10
-927.2266776701
 20
119.0808042677
 30
0.0
 11
-927.0037209394
 21
119.3261968959
 31
0.0
  0
LINE
  5
6D
330
1F
100
AcDbEntity
  8
0
  6
Continuous
 62
     7
370
    25
100
AcDbLine
 10
-929.6093555932
 20
120.2877605626
 30
0.0
 11
-929.828806715
 21
120.0458735433
 31
0.0
  0
LINE
  5
6E
330
1F
100
AcDbEntity
  8
0
  6
Continuous
 62
     7
370
    25
100
AcDbLine
 10
-927.7023043111
 20
118.5587942164
 30
0.0
 11
-929.6093555932
 21
120.2877605626
 31
0.0
  0
LINE
  5
6F
330
1F
100
AcDbEntity
  8
0
  6
Continuous
 62
     7
370
    25
100
AcDbLine
 10
-927.9217554329
 20
118.3169071972
 30
0.0
 11
-927.7023043111
 21
118.5587942164
 31
0.0
  0
LINE
  5
70
330
1F
100
AcDbEntity
  8
0
  6
Continuous
 62
     7
370
    25
100
AcDbLine
 10
-928.249880433
 20
118.6141828382
 30
0.0
 11
-927.9217554329
 21
118.3169071972
 31
0.0
  0
SPLINE
  5
71
330
1F
100
AcDbEntity
  8
0
  6
Continuous
 62
     7
370
    25
100
AcDbSpline
210
0.0
220
0.0
230
1.0
 70
     8
 71
     3
 72
    15
 73
    11
 74
     0
 42
0.00000001
 43
0.00000001
 40
0.0
 40
0.0
 40
0.0
 40
0.0
 40
0.1266632624747558
 40
0.2496692069433827
 40
0.3701336640907757
 40
0.4904789070640173
 40
0.6121901946006891
 40
0.7370174113350553
 40
0.8658144875559526
 40
1.0
 40
1.0
 40
1.0
 40
1.0
 10
-928.5667874842345
 20
117.5071115240997
 30
0.0
 10
-928.5340472816088
 20
117.5454099283466
 30
0.0
 10
-928.4695122280732
 20
117.6209008957249
 30
0.0
 10
-928.3903591753786
 20
117.7454426162101
 30
0.0
 10
-928.3265635310412
 20
117.8754604532337
 30
0.0
 10
-928.2784226956296
 20
118.0116308439808
 30
0.0
 10
-928.2470359494343
 20
118.1543545295696
 30
0.0
 10
-928.2310293356189
 20
118.3028862126064
 30
0.0
 10
-928.2306250906869
 20
118.457410374881
 30
0.0
 10
-928.2433749055398
 20
118.5612163656453
 30
0.0
 10
-928.2498804329524
 20
118.6141828382023
 30
0.0
  0
SPLINE
  5
72
330
1F
100
AcDbEntity
  8
0
  6
Continuous
 62
     7
370
    25
100
AcDbSpline
210
0.0
220
0.0
230
1.0
 70
     8
 71
     3
 72
    20
 73
    16
 74
     0
 42
0.00000001
 43
0.00000001
 40
0.0
 40
0.0
 40
0.0
 40
0.0
 40
0.0004874237587103
 40
0.0004874237587103
 40
0.0004874237587103
 40
0.0009817377500015
 40
0.0009817377500015
 40
0.0009817377500015
 40
0.0014199140232823
 40
0.0014199140232823
 40
0.0014199140232823
 40
0.0018938213265097
 40
0.0018938213265097
 40
0.0018938213265097
 40
0.0021031528787113
 40
0.0021031528787113
 40
0.0021031528787113
 40
0.0021031528787113
 10
-930.4619196957728
 20
117.4426083189715
 30
0.0
 10
-930.3389201072491
 20
117.33645233753
 30
0.0
 10
-930.2018732757958
 20
117.2416799092543
 30
0.0
 10
-930.0520639820858
 20
117.1787897932511
 30
0.0
 10
-929.9007878741938
 20
117.1152839069459
 30
0.0
 10
-929.7337284234425
 20
117.0841619122607
 30
0.0
 10
-929.5696949179162
 20
117.0809265638885
 30
0.0
 10
-929.4236228398502
 20
117.0780454814018
 30
0.0
 10
-929.2750574723291
 20
117.0967141876608
 30
0.0
 10
-929.1352953658322
 20
117.1392806793464
 30
0.0
 10
-928.9850354548455
 20
117.1850444232682
 30
0.0
 10
-928.8418206423252
 20
117.2625967657707
 30
0.0
 10
-928.7196933541633
 20
117.3613757442719
 30
0.0
 10
-928.6649480824688
 20
117.4056548083298
 30
0.0
 10
-928.615341758827
 20
117.4561197335296
 30
0.0
 10
-928.5667874842345
 20
117.5071115240997
 30
0.0
  0
SPLINE
  5
73
330
1F
100
AcDbEntity
  8
0
  6
Continuous
 62
     7
370
    25
100
AcDbSpline
210
0.0
220
0.0
230
1.0
 70
     8
 71
     3
 72
    20
 73
    16
 74
     0
 42
0.00000001
 43
0.00000001
 40
0.0
 40
0.0
 40
0.0
 40
0.0
 40
0.0004526044769715
 40
0.0004526044769715
 40
0.0004526044769715
 40
0.0009099592244912
 40
0.0009099592244912
 40
0.0009099592244912
 40
0.0013289722355871
 40
0.0013289722355871
 40
0.0013289722355871
 40
0.0018262875498453
 40
0.0018262875498453
 40
0.0018262875498453
 40
0.0020959321262149
 40
0.0020959321262149
 40
0.0020959321262149
 40
0.0020959321262149
 10
-930.565685721414
 20
119.332131556151
 30
0.0
 10
-930.6646540981271
 20
119.2182611833232
 30
0.0
 10
-930.7518301444215
 20
119.0904368257847
 30
0.0
 10
-930.8104622522537
 20
118.9514279148173
 30
0.0
 10
-930.8695338406837
 20
118.8113770539431
 30
0.0
 10
-930.9005209087378
 20
118.6574122371671
 30
0.0
 10
-930.9057792062415
 20
118.5055042173044
 30
0.0
 10
-930.910623183603
 20
118.3655655758103
 30
0.0
 10
-930.8959508987338
 20
118.2233994256429
 30
0.0
 10
-930.8608591736047
 20
118.087845531094
 30
0.0
 10
-930.8195697174316
 20
117.9283507622419
 30
0.0
 10
-930.7451786747699
 20
117.7742938664876
 30
0.0
 10
-930.6460218525999
 20
117.6427213575832
 30
0.0
 10
-930.5914705014466
 20
117.5703364426746
 30
0.0
 10
-930.5274105153119
 20
117.5052691390673
 30
0.0
 10
-930.4619196957728
 20
117.4426083189715
 30
0.0
  0
SPLINE
  5
74
330
1F
100
AcDbEntity
  8
0
  6
Continuous
 62
     7
370
    25
100
AcDbSpline
210
0.0
220
0.0
230
1.0
 70
     8
 71
     3
 72
    15
 73
    11
 74
     0
 42
0.00000001
 43
0.00000001
 40
0.0
 40
0.0
 40
0.0
 40
0.0
 40
0.1340605099445799
 40
0.2621875620024043
 40
0.3859554692330991
 40
0.5067140201517769
 40
0.626809242851863
 40
0.7473405374878401
 40
0.8716433175596261
 40
1.0
 40
1.0
 40
1.0
 40
1.0
 10
-929.4782458175678
 20
119.7282653702535
 30
0.0
 10
-929.5319605372887
 20
119.7327512285197
 30
0.0
 10
-929.6370125873898
 20
119.7415244029825
 30
0.0
 10
-929.7922964205948
 20
119.7339334554255
 30
0.0
 10
-929.9405150760008
 20
119.7107203527217
 30
0.0
 10
-930.0813146603022
 20
119.6687934052231
 30
0.0
 10
-930.2145293199058
 20
119.6102179631413
 30
0.0
 10
-930.3408487304665
 20
119.535139529707
 30
0.0
 10
-930.4591969922195
 20
119.4422485810205
 30
0.0
 10
-930.5298118085163
 20
119.3692277689485
 30
0.0
 10
-930.565685721414
 20
119.332131556151
 30
0.0
  0
LINE
  5
75
330
1F
100
AcDbEntity
  8
0
  6
Continuous
 62
     7
370
    25
100
AcDbLine
 10
-929.828806715
 20
120.0458735433
 30
0.0
 11
-929.4782458176
 21
119.7282653702
 31
0.0
  0
LINE
  5
76
330
1F
100
AcDbEntity
  8
0
  6
Continuous
 62
     7
370
    25
100
AcDbLine
 10
-932.4114695981
 20
117.1988105458
 30
0.0
 11
-930.5044183161
 21
115.4698441996
 31
0.0
  0
LINE
  5
77
330
1F
100
AcDbEntity
  8
0
  6
Continuous
 62
     7
370
    25
100
AcDbLine
 10
-932.1843061366
 20
117.4491110265
 30
0.0
 11
-932.4114695981
 21
117.1988105458
 31
0.0
  0
LINE
  5
78
330
1F
100
AcDbEntity
  8
0
  6
Continuous
 62
     7
370
    25
100
AcDbLine
 10
-931.905960784
 20
117.1967071804
 30
0.0
 11
-932.1843061366
 21
117.4491110265
 31
0.0
  0
SPLINE
  5
79
330
1F
100
AcDbEntity
  8
0
  6
Continuous
 62
     7
370
    25
100
AcDbSpline
210
0.0
220
0.0
230
1.0
 70
     8
 71
     3
 72
    14
 73
    10
 74
     0
 42
0.00000001
 43
0.00000001
 40
0.0
 40
0.0
 40
0.0
 40
0.0
 40
0.0002721108269246
 40
0.0002721108269246
 40
0.0002721108269246
 40
0.0005002017907967
 40
0.0005002017907967
 40
0.0005002017907967
 40
0.0008256672808006
 40
0.0008256672808006
 40
0.0008256672808006
 40
0.0008256672808006
 10
-931.7839655917336
 20
117.9903770521639
 30
0.0
 10
-931.8417489711907
 20
117.9204612046071
 30
0.0
 10
-931.8901857667374
 20
117.8394740693336
 30
0.0
 10
-931.9162935469819
 20
117.752609067798
 30
0.0
 10
-931.9384385711978
 20
117.6789288259501
 30
0.0
 10
-931.9486549551924
 20
117.6009839333544
 30
0.0
 10
-931.9484259246773
 20
117.5240480660277
 30
0.0
 10
-931.9480983837426
 20
117.4140206057959
 30
0.0
 10
-931.9301945859917
 20
117.3040331890116
 30
0.0
 10
-931.9059607840412
 20
117.196707180369
 30
0.0
  0
SPLINE
  5
7A
330
1F
100
AcDbEntity
  8
0
  6
Continuous
 62
     7
370
    25
100
AcDbSpline
210
0.0
220
0.0
230
1.0
 70
     8
 71
     3
 72
    11
 73
     7
 74
     0
 42
0.00000001
 43
0.00000001
 40
0.0
 40
0.0
 40
0.0
 40
0.0
 40
0.276772209979979
 40
0.5331149981616056
 40
0.772485503352023
 40
0.9999999999999999
 40
0.9999999999999999
 40
0.9999999999999999
 40
0.9999999999999999
 10
-931.5217460404515
 20
118.1488305778049
 30
0.0
 10
-931.5487025091142
 20
118.1392558883405
 30
0.0
 10
-931.6006257052417
 20
118.1208132471642
 30
0.0
 10
-931.6708008979946
 20
118.0826640486362
 30
0.0
 10
-931.7334645495409
 20
118.0414691628353
 30
0.0
 10
-931.7674193251827
 20
118.0071169776209
 30
0.0
 10
-931.7839655917335
 20
117.9903770521639
 30
0.0
  0
LINE
  5
7B
330
1F
100
AcDbEntity
  8
0
  6
Continuous
 62
     7
370
    25
100
AcDbLine
 10
-931.4313013289
 20
117.8333257701
 30
0.0
 11
-931.5217460405
 21
118.1488305778
 31
0.0
  0
SPLINE
  5
7C
330
1F
100
AcDbEntity
  8
0
  6
Continuous
 62
     7
370
    25
100
AcDbSpline
210
0.0
220
0.0
230
1.0
 70
     8
 71
     3
 72
    14
 73
    10
 74
     0
 42
0.00000001
 43
0.00000001
 40
0.0
 40
0.0
 40
0.0
 40
0.0
 40
0.0000457112731468
 40
0.0000457112731468
 40
0.0000457112731468
 40
0.0000914007707968
 40
0.0000914007707968
 40
0.0000914007707968
 40
0.000182123052322
 40
0.000182123052322
 40
0.000182123052322
 40
0.000182123052322
 10
-931.5820425148104
 20
117.7330653534459
 30
0.0
 10
-931.571285865987
 20
117.7438571767267
 30
0.0
 10
-931.5604241265745
 20
117.754638225935
 30
0.0
 10
-931.5484790310151
 20
117.7640978049801
 30
0.0
 10
-931.5365242825203
 20
117.7735650283929
 30
0.0
 10
-931.5238163652652
 20
117.7820627358577
 30
0.0
 10
-931.5110482311969
 20
117.7904005463096
 30
0.0
 10
-931.4857717289226
 20
117.8069065356514
 30
0.0
 10
-931.4586935819398
 20
117.8206366517231
 30
0.0
 10
-931.431301328913
 20
117.8333257701126
 30
0.0
  0
SPLINE
  5
7D
330
1F
100
AcDbEntity
  8
0
  6
Continuous
 62
     7
370
    25
100
AcDbSpline
210
0.0
220
0.0
230
1.0
 70
     8
 71
     3
 72
    19
 73
    15
 74
     0
 42
0.00000001
 43
0.00000001
 40
0.0
 40
0.0
 40
0.0
 40
0.0
 40
0.0860043555691705
 40
0.1677134500506089
 40
0.2442607802205545
 40
0.3181176960163384
 40
0.3874640801562257
 40
0.4545570746424781
 40
0.5182016625193162
 40
0.5796922866276183
 40
0.69552941669207
 40
0.8024574097469975
 40
0.9020243424263775
 40
1.0
 40
1.0
 40
1.0
 40
1.0
 10
-931.5399752071181
 20
116.9478089431895
 30
0.0
 10
-931.5525730088161
 20
116.9684851414438
 30
0.0
 10
-931.5771394481765
 20
117.0088049196714
 30
0.0
 10
-931.6094073973777
 20
117.0695834309114
 30
0.0
 10
-931.6362025715505
 20
117.1292021262834
 30
0.0
 10
-931.6588390460896
 20
117.1868155730501
 30
0.0
 10
-931.6758703131856
 20
117.2435822123199
 30
0.0
 10
-931.6877539228761
 20
117.298687671637
 30
0.0
 10
-931.6949951896755
 20
117.3523814802131
 30
0.0
 10
-931.6977127843385
 20
117.4202430877371
 30
0.0
 10
-931.6905932882796
 20
117.5003219514357
 30
0.0
 10
-931.6693654583767
 20
117.58879698964
 30
0.0
 10
-931.6344475117306
 20
117.6680748629573
 30
0.0
 10
-931.5994167855065
 20
117.7115185079009
 30
0.0
 10
-931.5820425148104
 20
117.7330653534459
 30
0.0
  0
SPLINE
  5
7E
330
1F
100
AcDbEntity
  8
0
  6
Continuous
 62
     7
370
    25
100
AcDbSpline
210
0.0
220
0.0
230
1.0
 70
     8
 71
     3
 72
    14
 73
    10
 74
     0
 42
0.00000001
 43
0.00000001
 40
0.0000000000000045
 40
0.0000000000000045
 40
0.0000000000000045
 40
0.0000000000000045
 40
0.0002235242416102
 40
0.0002235242416102
 40
0.0002235242416102
 40
0.0004470900669061
 40
0.0004470900669061
 40
0.0004470900669061
 40
0.0008937329906722
 40
0.0008937329906722
 40
0.0008937329906722
 40
0.0008937329906722
 10
-930.9222869058361
 20
116.3048802572921
 30
0.0
 10
-930.9773166979096
 20
116.3551114831344
 30
0.0
 10
-931.0323396889178
 20
116.4053567532652
 30
0.0
 10
-931.0866873936222
 20
116.4563251852465
 30
0.0
 10
-931.1410409519887
 20
116.5072991069163
 30
0.0
 10
-931.1946784659924
 20
116.5590533654909
 30
0.0
 10
-931.2473787373586
 20
116.6117347796275
 30
0.0
 10
-931.3524262394512
 20
116.7167446935862
 30
0.0
 10
-931.4559758162486
 20
116.8253093021326
 30
0.0
 10
-931.5399752071181
 20
116.9478089431895
 30
0.0
  0
LINE
  5
7F
330
1F
100
AcDbEntity
  8
0
  6
Continuous
 62
     7
370
    25
100
AcDbLine
 10
-930.2772548545
 20
115.7201446804
 30
0.0
 11
-930.9222869058
 21
116.3048802573
 31
0.0
  0
LINE
  5
80
330
1F
100
AcDbEntity
  8
0
  6
Continuous
 62
     7
370
    25
100
AcDbLine
 10
-930.5044183161
 20
115.4698441996
 30
0.0
 11
-930.2772548545
 21
115.7201446804
 31
0.0
  0
SPLINE
  5
81
330
1F
100
AcDbEntity
  8
0
  6
Continuous
 62
     7
370
    25
100
AcDbSpline
210
0.0
220
0.0
230
1.0
 70
     8
 71
     3
 72
    17
 73
    13
 74
     0
 42
0.00000001
 43
0.00000001
 40
0.0000000000000006
 40
0.0000000000000006
 40
0.0000000000000006
 40
0.0000000000000006
 40
0.0004477130988365
 40
0.0004477130988365
 40
0.0004477130988365
 40
0.0007884534727593
 40
0.0007884534727593
 40
0.0007884534727593
 40
0.0011270268828105
 40
0.0011270268828105
 40
0.0011270268828105
 40
0.0012152663487664
 40
0.0012152663487664
 40
0.0012152663487664
 40
0.0012152663487664
 10
-931.7091593434606
 20
115.4165638366357
 30
0.0
 10
-931.6667497647522
 20
115.2734788317633
 30
0.0
 10
-931.6262217567045
 20
115.1258296294414
 30
0.0
 10
-931.6262633532563
 20
114.9765919356263
 30
0.0
 10
-931.6262950137462
 20
114.8630022675532
 30
0.0
 10
-931.6507918476736
 20
114.7485507284732
 30
0.0
 10
-931.6893955105847
 20
114.6417220295896
 30
0.0
 10
-931.727789981156
 20
114.5354722329081
 30
0.0
 10
-931.782418701503
 20
114.4332984519169
 30
0.0
 10
-931.8522458632235
 20
114.34448785485
 30
0.0
 10
-931.8706866140667
 20
114.3210337425476
 30
0.0
 10
-931.8901902721084
 20
114.2984285035346
 30
0.0
 10
-931.9096801767939
 20
114.2758386763793
 30
0.0
  0
LINE
  5
82
330
1F
100
AcDbEntity
  8
0
  6
Continuous
 62
     7
370
    25
100
AcDbLine
 10
-931.413285946
 20
115.524536593
 30
0.0
 11
-931.7091593435
 21
115.4165638366
 31
0.0
  0
SPLINE
  5
83
330
1F
100
AcDbEntity
  8
0
  6
Continuous
 62
     7
370
    25
100
AcDbSpline
210
0.0
220
0.0
230
1.0
 70
     8
 71
     3
 72
    19
 73
    15
 74
     0
 42
0.00000001
 43
0.00000001
 40
0.0
 40
0.0
 40
0.0
 40
0.0
 40
0.0898945991983209
 40
0.1755925254518459
 40
0.2574207985003402
 40
0.3367568021616504
 40
0.4145577984428611
 40
0.4917010021516687
 40
0.5694085597830749
 40
0.6482761442487512
 40
0.7295022579245987
 40
0.8148907934227424
 40
0.9046178242043075
 40
0.9999999999999999
 40
0.9999999999999999
 40
0.9999999999999999
 40
0.9999999999999999
 10
-931.6656897921786
 20
114.0935470097126
 30
0.0
 10
-931.6353379881097
 20
114.1282993751356
 30
0.0
 10
-931.5760513348949
 20
114.1961817136127
 30
0.0
 10
-931.5003957462609
 20
114.3047164014948
 30
0.0
 10
-931.4372344266984
 20
114.4146625883652
 30
0.0
 10
-931.3871918966629
 20
114.5267949315976
 30
0.0
 10
-931.3491043894629
 20
114.6409827580531
 30
0.0
 10
-931.3225293338768
 20
114.7574789823232
 30
0.0
 10
-931.3058649757958
 20
114.8764125319267
 30
0.0
 10
-931.3022898729066
 20
114.9985133866643
 30
0.0
 10
-931.3086176158606
 20
115.1244988406812
 30
0.0
 10
-931.3308384080012
 20
115.2543101020243
 30
0.0
 10
-931.3639889796951
 20
115.3892573393648
 30
0.0
 10
-931.3965223225975
 20
115.4785343613661
 30
0.0
 10
-931.4132859460246
 20
115.5245365930459
 30
0.0
  0
SPLINE
  5
84
330
1F
100
AcDbEntity
  8
0
  6
Continuous
 62
     7
370
    25
100
AcDbSpline
210
0.0
220
0.0
230
1.0
 70
     8
 71
     3
 72
    23
 73
    19
 74
     0
 42
0.00000001
 43
0.00000001
 40
0.0
 40
0.0
 40
0.0
 40
0.0
 40
0.0604736797107184
 40
0.1199876942597351
 40
0.1786545795763421
 40
0.2374689031428969
 40
0.2964423046143023
 40
0.3562411904259921
 40
0.4176222830373144
 40
0.4804799873294306
 40
0.543882126028641
 40
0.6059164151840639
 40
0.6674030170856191
 40
0.72991924020098
 40
0.7934286765547036
 40
0.8592494619515034
 40
0.9278801734380795
 40
1.0
 40
1.0
 40
1.0
 40
1.0
 10
-933.5629253691015
 20
114.0059067853536
 30
0.0
 10
-933.5304352547137
 20
113.9779817506403
 30
0.0
 10
-933.4659706160433
 20
113.9225748274399
 30
0.0
 10
-933.3618516428406
 20
113.8502990160209
 30
0.0
 10
-933.2524587828938
 20
113.7887559406527
 30
0.0
 10
-933.1378431054126
 20
113.7385747026471
 30
0.0
 10
-933.0188518449389
 20
113.6975151244973
 30
0.0
 10
-932.8947562814169
 20
113.667001498428
 30
0.0
 10
-932.7655606653783
 20
113.6489196843855
 30
0.0
 10
-932.6329306452401
 20
113.6389809826259
 30
0.0
 10
-932.4993720140411
 20
113.6429289702696
 30
0.0
 10
-932.3680732081235
 20
113.6618533330973
 30
0.0
 10
-932.2405336456065
 20
113.6959251710767
 30
0.0
 10
-932.1167332862673
 20
113.7448909799976
 30
0.0
 10
-931.9976522684544
 20
113.8108329602689
 30
0.0
 10
-931.8813642692149
 20
113.8893979414435
 30
0.0
 10
-931.769152910493
 20
113.9838101303227
 30
0.0
 10
-931.7007427792962
 20
114.0563684915871
 30
0.0
 10
-931.6656897921786
 20
114.0935470097126
 30
0.0
  0
SPLINE
  5
85
330
1F
100
AcDbEntity
  8
0
  6
Continuous
 62
     7
370
    25
100
AcDbSpline
210
0.0
220
0.0
230
1.0
 70
     8
 71
     3
 72
    14
 73
    10
 74
     0
 42
0.00000001
 43
0.00000001
 40
0.0
 40
0.0
 40
0.0
 40
0.0
 40
0.0002359918003681
 40
0.0002359918003681
 40
0.0002359918003681
 40
0.0006849725481293
 40
0.0006849725481293
 40
0.0006849725481293
 40
0.0009435995596421
 40
0.0009435995596421
 40
0.0009435995596421
 40
0.0009435995596421
 10
-934.0074365870503
 20
114.8150013366357
 30
0.0
 10
-933.9922582317403
 20
114.737815638758
 30
0.0
 10
-933.9745844863166
 20
114.6607650051591
 30
0.0
 10
-933.9492155240443
 20
114.5863040745982
 30
0.0
 10
-933.9014655659173
 20
114.4461522513501
 30
0.0
 10
-933.8288170919617
 20
114.3125827350688
 30
0.0
 10
-933.7384126397576
 20
114.1953239312093
 30
0.0
 10
-933.6858589825506
 20
114.1271593792177
 30
0.0
 10
-933.6256815818847
 20
114.0648130735679
 30
0.0
 10
-933.5629253691015
 20
114.0059067853536
 30
0.0
  0
SPLINE
  5
86
330
1F
100
AcDbEntity
  8
0
  6
Continuous
 62
     7
370
    25
100
AcDbSpline
210
0.0
220
0.0
230
1.0
 70
     8
 71
     3
 72
    15
 73
    11
 74
     0
 42
0.00000001
 43
0.00000001
 40
0.0
 40
0.0
 40
0.0
 40
0.0
 40
0.132993612792496
 40
0.2603675357473265
 40
0.3839210286362447
 40
0.5042340844234064
 40
0.6252036500477134
 40
0.7467085242646618
 40
0.8710927157886543
 40
1.0
 40
1.0
 40
1.0
 40
1.0
 10
-933.6842194396145
 20
115.8975333879177
 30
0.0
 10
-933.7181040758968
 20
115.8580522306726
 30
0.0
 10
-933.7844415417591
 20
115.7807582057602
 30
0.0
 10
-933.866458227364
 20
115.654637600184
 30
0.0
 10
-933.9333321602002
 20
115.5255525456903
 30
0.0
 10
-933.9821412910893
 20
115.3911674146283
 30
0.0
 10
-934.0145802981293
 20
115.252778319542
 30
0.0
 10
-934.0298211946377
 20
115.1099112743
 30
0.0
 10
-934.0289521784233
 20
114.9629677070778
 30
0.0
 10
-934.0146933255403
 20
114.8649071578136
 30
0.0
 10
-934.0074365870503
 20
114.8150013366357
 30
0.0
  0
SPLINE
  5
87
330
1F
100
AcDbEntity
  8
0
  6
Continuous
 62
     7
370
    25
100
AcDbSpline
210
0.0
220
0.0
230
1.0
 70
     8
 71
     3
 72
    15
 73
    11
 74
     0
 42
0.00000001
 43
0.00000001
 40
0.0
 40
0.0
 40
0.0
 40
0.0
 40
0.128424668178503
 40
0.2527245643969516
 40
0.3744240295653967
 40
0.4947720655851605
 40
0.6156029933468861
 40
0.7392179764216494
 40
0.8668886565774582
 40
1.0
 40
1.0
 40
1.0
 40
1.0
 10
-932.6086986062811
 20
116.3406423622767
 30
0.0
 10
-932.6603664988442
 20
116.3428166775783
 30
0.0
 10
-932.7620428031438
 20
116.3470954730405
 30
0.0
 10
-932.9123613894852
 20
116.3321004789901
 30
0.0
 10
-933.0569881860332
 20
116.3024271343581
 30
0.0
 10
-933.1954639893466
 20
116.2549974679687
 30
0.0
 10
-933.3277190610763
 20
116.1905544995142
 30
0.0
 10
-933.4535039330273
 20
116.108947085979
 30
0.0
 10
-933.5746714999424
 20
116.0122150708452
 30
0.0
 10
-933.6471990817192
 20
115.9362886302227
 30
0.0
 10
-933.6842194396145
 20
115.8975333879177
 30
0.0
  0
SPLINE
  5
88
330
1F
100
AcDbEntity
  8
0
  6
Continuous
 62
     7
370
    25
100
AcDbSpline
210
0.0
220
0.0
230
1.0
 70
     8
 71
     3
 72
    15
 73
    11
 74
     0
 42
0.00000001
 43
0.00000001
 40
0.0
 40
0.0
 40
0.0
 40
0.0
 40
0.1374050733151122
 40
0.2691658495408213
 40
0.3968079128948646
 40
0.5209523883990982
 40
0.6425682349604454
 40
0.7623970846053878
 40
0.8809129882430209
 40
0.9999999999999999
 40
0.9999999999999999
 40
0.9999999999999999
 40
0.9999999999999999
 10
-931.7659502088452
 20
115.9599332276613
 30
0.0
 10
-931.7987070957377
 20
115.9880539057198
 30
0.0
 10
-931.86287528892
 20
116.0431401264585
 30
0.0
 10
-931.9647628491457
 20
116.1151297914735
 30
0.0
 10
-932.0669742502089
 20
116.1790064687963
 30
0.0
 10
-932.1718401636197
 20
116.2319210368059
 30
0.0
 10
-932.2788938785885
 20
116.2737412931853
 30
0.0
 10
-932.3869749792949
 20
116.3072072382618
 30
0.0
 10
-932.4971211258921
 20
116.3300966285682
 30
0.0
 10
-932.5714465626785
 20
116.3371214893321
 30
0.0
 10
-932.6086986062811
 20
116.3406423622767
 30
0.0
  0
LINE
  5
89
330
1F
100
AcDbEntity
  8
0
  6
Continuous
 62
     7
370
    25
100
AcDbLine
 10
-933.3203372281
 20
114.2456904392
 30
0.0
 11
-931.7659502088
 21
115.9599332277
 31
0.0
  0
SPLINE
  5
8A
330
1F
100
AcDbEntity
  8
0
  6
Continuous
 62
     7
370
    25
100
AcDbSpline
210
0.0
220
0.0
230
1.0
 70
     8
 71
     3
 72
    23
 73
    19
 74
     0
 42
0.00000001
 43
0.00000001
 40
0.0
 40
0.0
 40
0.0
 40
0.0
 40
0.06333618790356
 40
0.1247284435193244
 40
0.1844250051736109
 40
0.2436406199255068
 40
0.3026412220903805
 40
0.3620159131083542
 40
0.4226023222762537
 40
0.485181514451537
 40
0.5480282722273244
 40
0.6099358968478532
 40
0.67199729763069
 40
0.7344239891363425
 40
0.7976786067224274
 40
0.8629053809833298
 40
0.9302663906706151
 40
1.0
 40
1.0
 40
1.0
 40
1.0
 10
-931.9096801767939
 20
114.2758386763793
 30
0.0
 10
-931.9325743067299
 20
114.2517369773486
 30
0.0
 10
-931.9776598934561
 20
114.2042733154868
 30
0.0
 10
-932.0525228574277
 20
114.1426473888955
 30
0.0
 10
-932.130927105695
 20
114.0896154467751
 30
0.0
 10
-932.2130378952047
 20
114.0448176761627
 30
0.0
 10
-932.2999689730601
 20
114.0109277191589
 30
0.0
 10
-932.3901219301003
 20
113.9841871422446
 30
0.0
 10
-932.484792581116
 20
113.9687582797996
 30
0.0
 10
-932.5821368676715
 20
113.9606682717871
 30
0.0
 10
-932.6805273677581
 20
113.9630645565142
 30
0.0
 10
-932.778017704053
 20
113.974093021311
 30
0.0
 10
-932.8736700030905
 20
113.995193242237
 30
0.0
 10
-932.9672160239886
 20
114.0263994021978
 30
0.0
 10
-933.0590590687101
 20
114.0666266873575
 30
0.0
 10
-933.1489132116994
 20
114.1166625787855
 30
0.0
 10
-933.2368606775344
 20
114.1763477348695
 30
0.0
 10
-933.2921925148994
 20
114.2223110528738
 30
0.0
 10
-933.3203372280759
 20
114.2456904391998
 30
0.0
  0
LINE
  5
8B
330
1F
100
AcDbEntity
  8
0
  6
Continuous
 62
     7
370
    25
100
AcDbLine
 10
-936.0692182569
 20
114.5925580097
 30
0.0
 11
-935.3610852441
 21
113.9503304456
 31
0.0
  0
LINE
  5
8C
330
1F
100
AcDbEntity
  8
0
  6
Continuous
 62
     7
370
    25
100
AcDbLine
 10
-935.8448592826
 20
114.8400540033
 30
0.0
 11
-936.0692182569
 21
114.5925580097
 31
0.0
  0
LINE
  5
8D
330
1F
100
AcDbEntity
  8
0
  6
Continuous
 62
     7
370
    25
100
AcDbLine
 10
-935.1367262697
 20
114.1978264392
 30
0.0
 11
-935.8448592826
 21
114.8400540033
 31
0.0
  0
LINE
  5
8E
330
1F
100
AcDbEntity
  8
0
  6
Continuous
 62
     7
370
    25
100
AcDbLine
 10
-934.7840620069
 20
114.5869490354
 30
0.0
 11
-935.1367262697
 21
114.1978264392
 31
0.0
  0
LINE
  5
8F
330
1F
100
AcDbEntity
  8
0
  6
Continuous
 62
     7
370
    25
100
AcDbLine
 10
-934.5737254684
 20
114.3962439072
 30
0.0
 11
-934.7840620069
 21
114.5869490354
 31
0.0
  0
LINE
  5
90
330
1F
100
AcDbEntity
  8
0
  6
Continuous
 62
     7
370
    25
100
AcDbLine
 10
-934.9263897313
 20
114.007121311
 30
0.0
 11
-934.5737254684
 21
114.3962439072
 31
0.0
  0
LINE
  5
91
330
1F
100
AcDbEntity
  8
0
  6
Continuous
 62
     7
370
    25
100
AcDbLine
 10
-933.2296749877
 20
112.4688600931
 30
0.0
 11
-934.9263897313
 21
114.007121311
 31
0.0
  0
LINE
  5
92
330
1F
100
AcDbEntity
  8
0
  6
Continuous
 62
     7
370
    25
100
AcDbLine
 10
-933.454033962
 20
112.2213640994
 30
0.0
 11
-933.2296749877
 21
112.4688600931
 31
0.0
  0
LINE
  5
93
330
1F
100
AcDbEntity
  8
0
  6
Continuous
 62
     7
370
    25
100
AcDbLine
 10
-935.1507487056
 20
113.7596253174
 30
0.0
 11
-933.454033962
 21
112.2213640994
 31
0.0
  0
LINE
  5
94
330
1F
100
AcDbEntity
  8
0
  6
Continuous
 62
     7
370
    25
100
AcDbLine
 10
-935.453633321
 20
113.4251902212
 30
0.0
 11
-935.1507487056
 21
113.7596253174
 31
0.0
  0
LINE
  5
95
330
1F
100
AcDbEntity
  8
0
  6
Continuous
 62
     7
370
    25
100
AcDbLine
 10
-935.6639698595
 20
113.6158953494
 30
0.0
 11
-935.453633321
 21
113.4251902212
 31
0.0
  0
LINE
  5
96
330
1F
100
AcDbEntity
  8
0
  6
Continuous
 62
     7
370
    25
100
AcDbLine
 10
-935.3610852441
 20
113.9503304456
 30
0.0
 11
-935.6639698595
 21
113.6158953494
 31
0.0
  0
LINE
  5
97
330
1F
100
AcDbEntity
  8
0
  6
Continuous
 62
     7
370
    25
100
AcDbLine
 10
-936.0638753467
 20
113.1780199136
 30
0.0
 11
-936.2833264685
 21
112.9361328943
 31
0.0
  0
LINE
  5
98
330
1F
100
AcDbEntity
  8
0
  6
Continuous
 62
     7
370
    25
100
AcDbLine
 10
-934.1568240646
 20
111.4490535674
 30
0.0
 11
-936.0638753467
 21
113.1780199136
 31
0.0
  0
LINE
  5
99
330
1F
100
AcDbEntity
  8
0
  6
Continuous
 62
     7
370
    25
100
AcDbLine
 10
-934.3762751864
 20
111.2071665482
 30
0.0
 11
-934.1568240646
 21
111.4490535674
 31
0.0
  0
LINE
  5
9A
330
1F
100
AcDbEntity
  8
0
  6
Continuous
 62
     7
370
    25
100
AcDbLine
 10
-934.7044001864
 20
111.5044421892
 30
0.0
 11
-934.3762751864
 21
111.2071665482
 31
0.0
  0
SPLINE
  5
9B
330
1F
100
AcDbEntity
  8
0
  6
Continuous
 62
     7
370
    25
100
AcDbSpline
210
0.0
220
0.0
230
1.0
 70
     8
 71
     3
 72
    14
 73
    10
 74
     0
 42
0.00000001
 43
0.00000001
 40
0.0
 40
0.0
 40
0.0
 40
0.0
 40
0.000457418153443
 40
0.000457418153443
 40
0.000457418153443
 40
0.0009185265923885
 40
0.0009185265923885
 40
0.0009185265923885
 40
0.0011852649268375
 40
0.0011852649268375
 40
0.0011852649268375
 40
0.0011852649268375
 10
-935.0213072376833
 20
110.3973708750893
 30
0.0
 10
-934.9222311645512
 20
110.5132667827409
 30
0.0
 10
-934.8336129161161
 20
110.642424359399
 30
0.0
 10
-934.7766343975009
 20
110.7838505878508
 30
0.0
 10
-934.7192461616352
 20
110.9262937743924
 30
0.0
 10
-934.690296897782
 20
111.0821328994663
 30
0.0
 10
-934.6865016080575
 20
111.2356551023681
 30
0.0
 10
-934.6842824462233
 20
111.3254217969074
 30
0.0
 10
-934.6934536172021
 20
111.4153177999904
 30
0.0
 10
-934.7044001864014
 20
111.5044421891918
 30
0.0
  0
SPLINE
  5
9C
330
1F
100
AcDbEntity
  8
0
  6
Continuous
 62
     7
370
    25
100
AcDbSpline
210
0.0
220
0.0
230
1.0
 70
     8
 71
     3
 72
    20
 73
    16
 74
     0
 42
0.00000001
 43
0.00000001
 40
0.0
 40
0.0
 40
0.0
 40
0.0
 40
0.0004874237587079
 40
0.0004874237587079
 40
0.0004874237587079
 40
0.000981737749996
 40
0.000981737749996
 40
0.000981737749996
 40
0.0014199140232786
 40
0.0014199140232786
 40
0.0014199140232786
 40
0.0018938213265079
 40
0.0018938213265079
 40
0.0018938213265079
 40
0.0021031528787109
 40
0.0021031528787109
 40
0.0021031528787109
 40
0.0021031528787109
 10
-936.9164394492218
 20
110.3328676699611
 30
0.0
 10
-936.793439860699
 20
110.2267116885197
 30
0.0
 10
-936.6563930292461
 20
110.1319392602445
 30
0.0
 10
-936.5065837355369
 20
110.0690491442417
 30
0.0
 10
-936.3553076276459
 20
110.0055432579368
 30
0.0
 10
-936.1882481768957
 20
109.974421263251
 30
0.0
 10
-936.0242146713703
 20
109.9711859148782
 30
0.0
 10
-935.8781425933036
 20
109.9683048323909
 30
0.0
 10
-935.7295772257819
 20
109.9869735386497
 30
0.0
 10
-935.5898151192843
 20
110.029540030335
 30
0.0
 10
-935.4395552082967
 20
110.0753037742564
 30
0.0
 10
-935.296340395776
 20
110.1528561167597
 30
0.0
 10
-935.1742131076132
 20
110.2516350952607
 30
0.0
 10
-935.1194678359184
 20
110.2959141593187
 30
0.0
 10
-935.0698615122761
 20
110.3463790845188
 30
0.0
 10
-935.0213072376833
 20
110.3973708750893
 30
0.0
  0
SPLINE
  5
9D
330
1F
100
AcDbEntity
  8
0
  6
Continuous
 62
     7
370
    25
100
AcDbSpline
210
0.0
220
0.0
230
1.0
 70
     8
 71
     3
 72
    20
 73
    16
 74
     0
 42
0.00000001
 43
0.00000001
 40
0.0
 40
0.0
 40
0.0
 40
0.0
 40
0.0004526044769708
 40
0.0004526044769708
 40
0.0004526044769708
 40
0.0009099592244886
 40
0.0009099592244886
 40
0.0009099592244886
 40
0.0013289722355897
 40
0.0013289722355897
 40
0.0013289722355897
 40
0.0018262875498516
 40
0.0018262875498516
 40
0.0018262875498516
 40
0.0020959321262138
 40
0.0020959321262138
 40
0.0020959321262138
 40
0.0020959321262138
 10
-937.0202054748629
 20
112.2223909071406
 30
0.0
 10
-937.1191738515759
 20
112.1085205343129
 30
0.0
 10
-937.2063498978708
 20
111.980696176775
 30
0.0
 10
-937.2649820057024
 20
111.8416872658076
 30
0.0
 10
-937.3240535941318
 20
111.7016364049336
 30
0.0
 10
-937.3550406621864
 20
111.5476715881582
 30
0.0
 10
-937.3602989596905
 20
111.3957635682959
 30
0.0
 10
-937.3651429370522
 20
111.2558249267999
 30
0.0
 10
-937.3504706521823
 20
111.1136587766306
 30
0.0
 10
-937.3153789270527
 20
110.9781048820799
 30
0.0
 10
-937.2740894708793
 20
110.8186101132267
 30
0.0
 10
-937.1996984282154
 20
110.6645532174719
 30
0.0
 10
-937.1005416060443
 20
110.5329807085668
 30
0.0
 10
-937.0459902548922
 20
110.4605957936604
 30
0.0
 10
-936.981930268759
 20
110.3955284900552
 30
0.0
 10
-936.9164394492218
 20
110.3328676699611
 30
0.0
  0
SPLINE
  5
9E
330
1F
100
AcDbEntity
  8
0
  6
Continuous
 62
     7
370
    25
100
AcDbSpline
210
0.0
220
0.0
230
1.0
 70
     8
 71
     3
 72
    15
 73
    11
 74
     0
 42
0.00000001
 43
0.00000001
 40
0.0
 40
0.0
 40
0.0
 40
0.0
 40
0.1340605099445799
 40
0.2621875620024043
 40
0.3859554692330991
 40
0.5067140201517769
 40
0.626809242851863
 40
0.7473405374878401
 40
0.8716433175596261
 40
1.0
 40
1.0
 40
1.0
 40
1.0
 10
-935.9327655710167
 20
112.6185247212431
 30
0.0
 10
-935.9864802907376
 20
112.6230105795094
 30
0.0
 10
-936.0915323408386
 20
112.6317837539721
 30
0.0
 10
-936.2468161740438
 20
112.6241928064152
 30
0.0
 10
-936.3950348294495
 20
112.6009797037113
 30
0.0
 10
-936.535834413751
 20
112.5590527562127
 30
0.0
 10
-936.6690490733547
 20
112.5004773141309
 30
0.0
 10
-936.7953684839155
 20
112.4253988806966
 30
0.0
 10
-936.9137167456686
 20
112.33250793201
 30
0.0
 10
-936.9843315619653
 20
112.2594871199381
 30
0.0
 10
-937.0202054748629
 20
112.2223909071406
 30
0.0
  0
LINE
  5
9F
330
1F
100
AcDbEntity
  8
0
  6
Continuous
 62
     7
370
    25
100
AcDbLine
 10
-936.2833264685
 20
112.9361328943
 30
0.0
 11
-935.932765571
 21
112.6185247212
 31
0.0
  0
LINE
  5
A0
330
1F
100
AcDbEntity
  8
0
  6
Continuous
 62
     7
370
    25
100
AcDbLine
 10
-939.9298133058
 20
110.266765396
 30
0.0
 11
-937.3510873442
 21
107.9285242101
 31
0.0
  0
LINE
  5
A1
330
1F
100
AcDbEntity
  8
0
  6
Continuous
 62
     7
370
    25
100
AcDbLine
 10
-939.6942363827
 20
110.5261804602
 30
0.0
 11
-939.9298133058
 21
110.266765396
 31
0.0
  0
LINE
  5
A2
330
1F
100
AcDbEntity
  8
0
  6
Continuous
 62
     7
370
    25
100
AcDbLine
 10
-937.3644086583
 20
108.4137004922
 30
0.0
 11
-939.6942363827
 21
110.5261804602
 31
0.0
  0
LINE
  5
A3
330
1F
100
AcDbEntity
  8
0
  6
Continuous
 62
     7
370
    25
100
AcDbLine
 10
-936.4669727609
 20
109.4036844666
 30
0.0
 11
-937.3644086583
 21
108.4137004922
 31
0.0
  0
LINE
  5
A4
330
1F
100
AcDbEntity
  8
0
  6
Continuous
 62
     7
370
    25
100
AcDbLine
 10
-936.2180745237
 20
109.1779232486
 30
0.0
 11
-936.4669727609
 21
109.4036844666
 31
0.0
  0
LINE
  5
A5
330
1F
100
AcDbEntity
  8
0
  6
Continuous
 62
     7
370
    25
100
AcDbLine
 10
-937.3510873442
 20
107.9285242101
 30
0.0
 11
-936.2180745237
 21
109.1779232486
 31
0.0
  0
LINE
  5
A6
330
1F
100
AcDbEntity
  8
0
  6
Continuous
 62
     7
370
    25
100
AcDbLine
 10
-942.1900824565
 20
106.4274091263
 30
0.0
 11
-940.2830311744
 21
104.6984427801
 31
0.0
  0
LINE
  5
A7
330
1F
100
AcDbEntity
  8
0
  6
Continuous
 62
     7
370
    25
100
AcDbLine
 10
-941.9678268475
 20
106.6728017545
 30
0.0
 11
-942.1900824565
 21
106.4274091263
 31
0.0
  0
LINE
  5
A8
330
1F
100
AcDbEntity
  8
0
  6
Continuous
 62
     7
370
    25
100
AcDbLine
 10
-941.6263805334
 20
106.363607043
 30
0.0
 11
-941.9678268475
 21
106.6728017545
 31
0.0
  0
SPLINE
  5
A9
330
1F
100
AcDbEntity
  8
0
  6
Continuous
 62
     7
370
    25
100
AcDbSpline
210
0.0
220
0.0
230
1.0
 70
     8
 71
     3
 72
    15
 73
    11
 74
     0
 42
0.00000001
 43
0.00000001
 40
0.0
 40
0.0
 40
0.0
 40
0.0
 40
0.1221211272047675
 40
0.241089233033678
 40
0.3596567210624781
 40
0.4785615779404589
 40
0.6006688444577285
 40
0.72660947390693
 40
0.8598356600406636
 40
1.0
 40
1.0
 40
1.0
 40
1.0
 10
-941.3683677128975
 20
107.4328177801377
 30
0.0
 10
-941.3985686727552
 20
107.3973350699893
 30
0.0
 10
-941.458190839826
 20
107.3272857708102
 30
0.0
 10
-941.5299098913428
 20
107.209845507097
 30
0.0
 10
-941.5862272142376
 20
107.0859426153749
 30
0.0
 10
-941.6274800364456
 20
106.9548834818946
 30
0.0
 10
-941.6518419486548
 20
106.8167779445698
 30
0.0
 10
-941.6595782584037
 20
106.6714639794078
 30
0.0
 10
-941.6533224419886
 20
106.519028463971
 30
0.0
 10
-941.6355118365168
 20
106.4162833446537
 30
0.0
 10
-941.6263805334102
 20
106.3636070429583
 30
0.0
  0
SPLINE
  5
AA
330
1F
100
AcDbEntity
  8
0
  6
Continuous
 62
     7
370
    25
100
AcDbSpline
210
0.0
220
0.0
230
1.0
 70
     8
 71
     3
 72
    23
 73
    19
 74
     0
 42
0.00000001
 43
0.00000001
 40
0.0
 40
0.0
 40
0.0
 40
0.0
 40
0.0688316685768323
 40
0.1329712709599962
 40
0.1924845221361005
 40
0.2473672011889934
 40
0.2982165348880228
 40
0.3446294661798306
 40
0.3868909853811127
 40
0.4252284382984521
 40
0.4967577085582121
 40
0.5667070613721659
 40
0.636586374175796
 40
0.7079705258702216
 40
0.7797379981993263
 40
0.8510252400637297
 40
0.9240450711376651
 40
1.0
 40
1.0
 40
1.0
 40
1.0
 10
-939.7564887064872
 20
107.2519283570608
 30
0.0
 10
-939.7881065462102
 20
107.2801626073272
 30
0.0
 10
-939.84918692418
 20
107.3347064564033
 30
0.0
 10
-939.940300705253
 20
107.4105929824243
 30
0.0
 10
-940.0274759422141
 20
107.4775844406718
 30
0.0
 10
-940.1091718808702
 20
107.5383607209639
 30
0.0
 10
-940.188618360582
 20
107.588139700036
 30
0.0
 10
-940.2627826486266
 20
107.6315678193007
 30
0.0
 10
-940.3329824599883
 20
107.666272502724
 30
0.0
 10
-940.4202496112202
 20
107.7006084006228
 30
0.0
 10
-940.5275849171996
 20
107.729310675046
 30
0.0
 10
-940.6572367986375
 20
107.7456602125826
 30
0.0
 10
-940.787707777374
 20
107.7399481861149
 30
0.0
 10
-940.9171967689034
 20
107.7164120873796
 30
0.0
 10
-941.0426040659328
 20
107.6735157952867
 30
0.0
 10
-941.1615264988333
 20
107.6127583274256
 30
0.0
 10
-941.2712411273276
 20
107.5317847471783
 30
0.0
 10
-941.3355697175017
 20
107.4662372410432
 30
0.0
 10
-941.3683677128975
 20
107.4328177801377
 30
0.0
  0
LINE
  5
AB
330
1F
100
AcDbEntity
  8
0
  6
Continuous
 62
     7
370
    25
100
AcDbLine
 10
-938.7749181937
 20
106.3622047994
 30
0.0
 11
-939.7564887065
 21
107.2519283571
 31
0.0
  0
LINE
  5
AC
330
1F
100
AcDbEntity
  8
0
  6
Continuous
 62
     7
370
    25
100
AcDbLine
 10
-938.995771559
 20
106.1182144147
 30
0.0
 11
-938.7749181937
 21
106.3622047994
 31
0.0
  0
LINE
  5
AD
330
1F
100
AcDbEntity
  8
0
  6
Continuous
 62
     7
370
    25
100
AcDbLine
 10
-939.9058276488
 20
106.9434347673
 30
0.0
 11
-938.995771559
 21
106.1182144147
 31
0.0
  0
SPLINE
  5
AE
330
1F
100
AcDbEntity
  8
0
  6
Continuous
 62
     7
370
    25
100
AcDbSpline
210
0.0
220
0.0
230
1.0
 70
     8
 71
     3
 72
    14
 73
    10
 74
     0
 42
0.00000001
 43
0.00000001
 40
0.0
 40
0.0
 40
0.0
 40
0.0
 40
0.0001493805083953
 40
0.0001493805083953
 40
0.0001493805083953
 40
0.0002982924276906
 40
0.0002982924276906
 40
0.0002982924276906
 40
0.0005950422928115
 40
0.0005950422928115
 40
0.0005950422928115
 40
0.0005950422928115
 10
-940.3713725205898
 20
107.3136270750095
 30
0.0
 10
-940.3281447733114
 20
107.2889136214635
 30
0.0
 10
-940.2865345169478
 20
107.2612162271895
 30
0.0
 10
-940.2466968483197
 20
107.2313439477448
 30
0.0
 10
-940.2069265977548
 20
107.2015222217408
 30
0.0
 10
-940.1680629984218
 20
107.170478606597
 30
0.0
 10
-940.1298150178496
 20
107.138728013626
 30
0.0
 10
-940.0535975354265
 20
107.0754579997457
 30
0.0
 10
-939.9795827242351
 20
107.0095588032657
 30
0.0
 10
-939.9058276487948
 20
106.9434347673172
 30
0.0
  0
SPLINE
  5
AF
330
1F
100
AcDbEntity
  8
0
  6
Continuous
 62
     7
370
    25
100
AcDbSpline
210
0.0
220
0.0
230
1.0
 70
     8
 71
     3
 72
    15
 73
    11
 74
     0
 42
0.00000001
 43
0.00000001
 40
0.0
 40
0.0
 40
0.0
 40
0.0
 40
0.1390254643784467
 40
0.2659770962698295
 40
0.3854038114843539
 40
0.5006701666522548
 40
0.6162505042112932
 40
0.7348088330335889
 40
0.8618736588088919
 40
1.0
 40
1.0
 40
1.0
 40
1.0
 10
-941.1874782898205
 20
107.1790116903942
 30
0.0
 10
-941.1581781897116
 20
107.2091581675439
 30
0.0
 10
-941.1021225916794
 20
107.2668330150324
 30
0.0
 10
-941.0074028347007
 20
107.3355586181315
 30
0.0
 10
-940.9087419498362
 20
107.3837888890287
 30
0.0
 10
-940.8058143141019
 20
107.410854264177
 30
0.0
 10
-940.6998656354544
 20
107.4181065306773
 30
0.0
 10
-940.5911694737746
 20
107.403723843676
 30
0.0
 10
-940.4797116692484
 20
107.3696988260189
 30
0.0
 10
-940.4084760182295
 20
107.3328302726255
 30
0.0
 10
-940.3713725205898
 20
107.3136270750095
 30
0.0
  0
SPLINE
  5
B0
330
1F
100
AcDbEntity
  8
0
  6
Continuous
 62
     7
370
    25
100
AcDbSpline
210
0.0
220
0.0
230
1.0
 70
     8
 71
     3
 72
    17
 73
    13
 74
     0
 42
0.00000001
 43
0.00000001
 40
0.0
 40
0.0
 40
0.0
 40
0.0
 40
0.000333036548609
 40
0.000333036548609
 40
0.000333036548609
 40
0.0006683259940495
 40
0.0006683259940495
 40
0.0006683259940495
 40
0.0009920149706384
 40
0.0009920149706384
 40
0.0009920149706384
 40
0.0011738734333561
 40
0.0011738734333561
 40
0.0011738734333561
 40
0.0011738734333561
 10
-941.2477747641794
 20
106.0838594468044
 30
0.0
 10
-941.3059767514596
 20
106.1783910998214
 30
0.0
 10
-941.3538216523884
 20
106.2818316364576
 30
0.0
 10
-941.3790113288129
 20
106.3899481705637
 30
0.0
 10
-941.4043464853215
 20
106.4986891193002
 30
0.0
 10
-941.4085708251625
 20
106.6137252989504
 30
0.0
 10
-941.3948564501126
 20
106.7245331506776
 30
0.0
 10
-941.3816670819036
 20
106.8310991116895
 30
0.0
 10
-941.3475743582692
 20
106.9371264844693
 30
0.0
 10
-941.2952059015182
 20
107.0308697947248
 30
0.0
 10
-941.2654287384091
 20
107.0841730618637
 30
0.0
 10
-941.2276183104265
 20
107.1330041206228
 30
0.0
 10
-941.1874782898205
 20
107.1790116903942
 30
0.0
  0
SPLINE
  5
B1
330
1F
100
AcDbEntity
  8
0
  6
Continuous
 62
     7
370
    25
100
AcDbSpline
210
0.0
220
0.0
230
1.0
 70
     8
 71
     3
 72
    14
 73
    10
 74
     0
 42
0.00000001
 43
0.00000001
 40
0.0000000000000045
 40
0.0000000000000045
 40
0.0000000000000045
 40
0.0000000000000045
 40
0.0001759738241298
 40
0.0001759738241298
 40
0.0001759738241298
 40
0.0003519965858674
 40
0.0003519965858674
 40
0.0003519965858674
 40
0.0007036274886275
 40
0.0007036274886275
 40
0.0007036274886275
 40
0.0007036274886275
 10
-940.7604951167435
 20
105.5783506327019
 30
0.0
 10
-940.8036746680011
 20
105.6180530311147
 30
0.0
 10
-940.8469030092227
 20
105.6577054720978
 30
0.0
 10
-940.8896904242407
 20
105.6978301677677
 30
0.0
 10
-940.9324842159523
 20
105.7379608433009
 30
0.0
 10
-940.9744425596576
 20
105.7789859438729
 30
0.0
 10
-941.015945178444
 20
105.8204505355346
 30
0.0
 10
-941.0986904640508
 20
105.9031200050753
 30
0.0
 10
-941.1802043922826
 20
105.9883855324298
 30
0.0
 10
-941.2477747641794
 20
106.0838594468044
 30
0.0
  0
LINE
  5
B2
330
1F
100
AcDbEntity
  8
0
  6
Continuous
 62
     7
370
    25
100
AcDbLine
 10
-940.0607755655
 20
104.9438354084
 30
0.0
 11
-940.7604951167
 21
105.5783506327
 31
0.0
  0
LINE
  5
B3
330
1F
100
AcDbEntity
  8
0
  6
Continuous
 62
     7
370
    25
100
AcDbLine
 10
-940.2830311744
 20
104.6984427801
 30
0.0
 11
-940.0607755655
 21
104.9438354084
 31
0.0
  0
SPLINE
  5
B4
330
1F
100
AcDbEntity
  8
0
  6
Continuous
 62
     7
370
    25
100
AcDbSpline
210
0.0
220
0.0
230
1.0
 70
     8
 71
     3
 72
    15
 73
    11
 74
     0
 42
0.00000001
 43
0.00000001
 40
0.0
 40
0.0
 40
0.0
 40
0.0
 40
0.1316681041277655
 40
0.2579263424202609
 40
0.3811732575704061
 40
0.502587354432309
 40
0.6241895723846425
 40
0.746191602778262
 40
0.8711904231342285
 40
1.0
 40
1.0
 40
1.0
 40
1.0
 10
-943.5624046629096
 20
105.0164866056698
 30
0.0
 10
-943.5942566801319
 20
104.9794665583393
 30
0.0
 10
-943.656652006284
 20
104.9069475115477
 30
0.0
 10
-943.7357800858366
 20
104.7894523301226
 30
0.0
 10
-943.7998581949121
 20
104.6675456647298
 30
0.0
 10
-943.8501932258338
 20
104.5411661613784
 30
0.0
 10
-943.8858783715397
 20
104.4103651510324
 30
0.0
 10
-943.907820886843
 20
104.2752909491251
 30
0.0
 10
-943.9152920271248
 20
104.1357849681862
 30
0.0
 10
-943.908167730366
 20
104.0418988866259
 30
0.0
 10
-943.904552098807
 20
103.9942510287467
 30
0.0
  0
SPLINE
  5
B5
330
1F
100
AcDbEntity
  8
0
  6
Continuous
 62
     7
370
    25
100
AcDbSpline
210
0.0
220
0.0
230
1.0
 70
     8
 71
     3
 72
    15
 73
    11
 74
     0
 42
0.00000001
 43
0.00000001
 40
0.0
 40
0.0
 40
0.0
 40
0.0
 40
0.1286266150392127
 40
0.2533918023921859
 40
0.3757322454158669
 40
0.4971393803576112
 40
0.6188479928644928
 40
0.7420659306134959
 40
0.8688815967348669
 40
1.0
 40
1.0
 40
1.0
 40
1.0
 10
-942.5822363936787
 20
105.4560899710544
 30
0.0
 10
-942.6297519878856
 20
105.4547263489387
 30
0.0
 10
-942.7233567372139
 20
105.4520400412442
 30
0.0
 10
-942.8608943478691
 20
105.4312515225475
 30
0.0
 10
-942.992869785313
 20
105.3969914845399
 30
0.0
 10
-943.1189215001162
 20
105.3480564213148
 30
0.0
 10
-943.23969237435
 20
105.2864181322558
 30
0.0
 10
-943.3535825662561
 20
105.2093825482661
 30
0.0
 10
-943.4633672929754
 20
105.1207673749445
 30
0.0
 10
-943.5290271040399
 20
105.0516312941623
 30
0.0
 10
-943.5624046629096
 20
105.0164866056698
 30
0.0
  0
SPLINE
  5
B6
330
1F
100
AcDbEntity
  8
0
  6
Continuous
 62
     7
370
    25
100
AcDbSpline
210
0.0
220
0.0
230
1.0
 70
     8
 71
     3
 72
    14
 73
    10
 74
     0
 42
0.00000001
 43
0.00000001
 40
0.0
 40
0.0
 40
0.0
 40
0.0
 40
0.0002555169466529
 40
0.0002555169466529
 40
0.0002555169466529
 40
0.0007142214324036
 40
0.0007142214324036
 40
0.0007142214324036
 40
0.0010208211651229
 40
0.0010208211651229
 40
0.0010208211651229
 40
0.0010208211651229
 10
-941.6553533808582
 20
105.0950122466955
 30
0.0
 10
-941.7200992107515
 20
105.1503503063627
 30
0.0
 10
-941.7862488504096
 20
105.204830180497
 30
0.0
 10
-941.8582671529689
 20
105.2503020116982
 30
0.0
 10
-941.9861626382775
 20
105.3310542887262
 30
0.0
 10
-942.1300192172899
 20
105.3909137074725
 30
0.0
 10
-942.2777727505592
 20
105.4232723046908
 30
0.0
 10
-942.3774852544551
 20
105.4451097300288
 30
0.0
 10
-942.4801858990058
 20
105.4538199235661
 30
0.0
 10
-942.5822363936787
 20
105.4560899710544
 30
0.0
  0
SPLINE
  5
B7
330
1F
100
AcDbEntity
  8
0
  6
Continuous
 62
     7
370
    25
100
AcDbSpline
210
0.0
220
0.0
230
1.0
 70
     8
 71
     3
 72
    20
 73
    16
 74
     0
 42
0.00000001
 43
0.00000001
 40
0.0
 40
0.0
 40
0.0
 40
0.0
 40
0.000493779584724
 40
0.000493779584724
 40
0.000493779584724
 40
0.000901287430371
 40
0.000901287430371
 40
0.000901287430371
 40
0.0013060888270904
 40
0.0013060888270904
 40
0.0013060888270904
 40
0.0017893897658013
 40
0.0017893897658013
 40
0.0017893897658013
 40
0.0021030712449735
 40
0.0021030712449735
 40
0.0021030712449735
 40
0.0021030712449735
 10
-941.5571963295761
 20
103.1984777915673
 30
0.0
 10
-941.4498299744398
 20
103.3232310905006
 30
0.0
 10
-941.3525360013484
 20
103.4616860845891
 30
0.0
 10
-941.2909308033223
 20
103.614315437553
 30
0.0
 10
-941.2399561511886
 20
103.7406071860101
 30
0.0
 10
-941.2109686922165
 20
103.8776707522536
 30
0.0
 10
-941.2048881414332
 20
104.0137260637658
 30
0.0
 10
-941.1988298524207
 20
104.1492832572185
 30
0.0
 10
-941.2149020729757
 20
104.2868027154678
 30
0.0
 10
-941.2471765760149
 20
104.4186010918468
 30
0.0
 10
-941.2854180128865
 20
104.574766448877
 30
0.0
 10
-941.3533289343723
 20
104.7265094398924
 30
0.0
 10
-941.445360544531
 20
104.8583434603954
 30
0.0
 10
-941.5057306677827
 20
104.9448228347408
 30
0.0
 10
-941.5787323999378
 20
105.0225383945043
 30
0.0
 10
-941.6553533808582
 20
105.0950122466955
 30
0.0
  0
SPLINE
  5
B8
330
1F
100
AcDbEntity
  8
0
  6
Continuous
 62
     7
370
    25
100
AcDbSpline
210
0.0
220
0.0
230
1.0
 70
     8
 71
     3
 72
    23
 73
    19
 74
     0
 42
0.00000001
 43
0.00000001
 40
0.0
 40
0.0
 40
0.0
 40
0.0
 40
0.0627357079325959
 40
0.1241284195108894
 40
0.1842519522846702
 40
0.2439846176788085
 40
0.3040434862945069
 40
0.3649771654530534
 40
0.4269430809448803
 40
0.4908267942147404
 40
0.5548029635931881
 40
0.6171887471191775
 40
0.6790848498047646
 40
0.7405221179560104
 40
0.8028376808068782
 40
0.8661560441708631
 40
0.9316873522698098
 40
1.0
 40
1.0
 40
1.0
 40
1.0
 10
-943.4558341500889
 20
103.1087342018237
 30
0.0
 10
-943.4222363198885
 20
103.0797905608135
 30
0.0
 10
-943.3557598952299
 20
103.0225228813392
 30
0.0
 10
-943.2479595558602
 20
102.9491108104638
 30
0.0
 10
-943.1359659417923
 20
102.8866863878799
 30
0.0
 10
-943.0188069142597
 20
102.8368322388573
 30
0.0
 10
-942.8969628606183
 20
102.7981588645199
 30
0.0
 10
-942.7704674887649
 20
102.7706344505954
 30
0.0
 10
-942.6392069661694
 20
102.7555621874384
 30
0.0
 10
-942.5050295319104
 20
102.7511648030307
 30
0.0
 10
-942.3706632702126
 20
102.7592654423132
 30
0.0
 10
-942.2391914648688
 20
102.7809152091518
 30
0.0
 10
-942.1126853911709
 20
102.8167563336947
 30
0.0
 10
-941.9910864300329
 20
102.86648534042
 30
0.0
 10
-941.8742676241152
 20
102.9288580557763
 30
0.0
 10
-941.763012288813
 20
103.0057418760442
 30
0.0
 10
-941.6554226035132
 20
103.0946599382025
 30
0.0
 10
-941.590388897769
 20
103.1633957199449
 30
0.0
 10
-941.5571963295761
 20
103.1984777915673
 30
0.0
  0
SPLINE
  5
B9
330
1F
100
AcDbEntity
  8
0
  6
Continuous
 62
     7
370
    25
100
AcDbSpline
210
0.0
220
0.0
230
1.0
 70
     8
 71
     3
 72
    15
 73
    11
 74
     0
 42
0.00000001
 43
0.00000001
 40
0.0
 40
0.0
 40
0.0
 40
0.0
 40
0.1281863126208885
 40
0.2536733477636494
 40
0.3767038008323705
 40
0.498646498831509
 40
0.6206574656316232
 40
0.744474408673552
 40
0.8702493019311532
 40
1.0
 40
1.0
 40
1.0
 40
1.0
 10
-943.904552098807
 20
103.9942510287467
 30
0.0
 10
-943.8993291028713
 20
103.9511029442628
 30
0.0
 10
-943.8889930940005
 20
103.8657153641315
 30
0.0
 10
-943.8587552929934
 20
103.7414614881618
 30
0.0
 10
-943.8191830585897
 20
103.6221602920787
 30
0.0
 10
-943.7671828414905
 20
103.5090060759356
 30
0.0
 10
-943.7062469280255
 20
103.400126932974
 30
0.0
 10
-943.6335460531501
 20
103.2971180445973
 30
0.0
 10
-943.5506089180926
 20
103.1986177314221
 30
0.0
 10
-943.4877517444135
 20
103.1390045585295
 30
0.0
 10
-943.4558341500889
 20
103.1087342018237
 30
0.0
  0
LINE
  5
BA
330
1F
100
AcDbEntity
  8
0
  6
Continuous
 62
     7
370
    25
100
AcDbLine
 10
-945.0287378777
 20
103.3012036885
 30
0.0
 11
-943.1216865957
 21
101.5722373423
 31
0.0
  0
LINE
  5
BB
330
1F
100
AcDbEntity
  8
0
  6
Continuous
 62
     7
370
    25
100
AcDbLine
 10
-944.8043789034
 20
103.5479985603
 30
0.0
 11
-945.0287378777
 21
103.3012036885
 31
0.0
  0
LINE
  5
BC
330
1F
100
AcDbEntity
  8
0
  6
Continuous
 62
     7
370
    25
100
AcDbLine
 10
-942.8973276213
 20
101.8190322141
 30
0.0
 11
-944.8043789034
 21
103.5479985603
 31
0.0
  0
LINE
  5
BD
330
1F
100
AcDbEntity
  8
0
  6
Continuous
 62
     7
370
    25
100
AcDbLine
 10
-943.1216865957
 20
101.5722373423
 30
0.0
 11
-942.8973276213
 21
101.8190322141
 31
0.0
  0
SPLINE
  5
BE
330
1F
100
AcDbEntity
  8
0
  6
Continuous
 62
     7
370
    25
100
AcDbSpline
210
0.0
220
0.0
230
1.0
 70
     8
 71
     3
 72
    20
 73
    16
 74
     0
 42
0.00000001
 43
0.00000001
 40
0.0
 40
0.0
 40
0.0
 40
0.0
 40
0.0001208756232839
 40
0.0001208756232839
 40
0.0001208756232839
 40
0.0002247116161111
 40
0.0002247116161111
 40
0.0002247116161111
 40
0.0003185065096366
 40
0.0003185065096366
 40
0.0003185065096366
 40
0.000409306856288
 40
0.000409306856288
 40
0.000409306856288
 40
0.0004243758662027
 40
0.0004243758662027
 40
0.0004243758662027
 40
0.0004243758662027
 10
-945.70251592261
 20
104.1355386243793
 30
0.0
 10
-945.7278249833511
 20
104.1041876022377
 30
0.0
 10
-945.750701581317
 20
104.0689859091619
 30
0.0
 10
-945.7619933925137
 20
104.0303086529921
 30
0.0
 10
-945.7717626713262
 20
103.9968464481564
 30
0.0
 10
-945.7741242945353
 20
103.9608415901802
 30
0.0
 10
-945.7710164341688
 20
103.9261212911473
 30
0.0
 10
-945.7682083208165
 20
103.8947496966059
 30
0.0
 10
-945.7598180211187
 20
103.863392831198
 30
0.0
 10
-945.7464191185284
 20
103.834887886819
 30
0.0
 10
-945.7334665483122
 20
103.8073324738969
 30
0.0
 10
-945.714588217293
 20
103.7822920521071
 30
0.0
 10
-945.693098004153
 20
103.7607226154965
 30
0.0
 10
-945.6894853544103
 20
103.7570966477543
 30
0.0
 10
-945.6858342899964
 20
103.7535090894333
 30
0.0
 10
-945.6821833905587
 20
103.7499216371998
 30
0.0
  0
SPLINE
  5
BF
330
1F
100
AcDbEntity
  8
0
  6
Continuous
 62
     7
370
    25
100
AcDbSpline
210
0.0
220
0.0
230
1.0
 70
     8
 71
     3
 72
    20
 73
    16
 74
     0
 42
0.00000001
 43
0.00000001
 40
0.0
 40
0.0
 40
0.0
 40
0.0
 40
0.0001202821491739
 40
0.0001202821491739
 40
0.0001202821491739
 40
0.0002234386012523
 40
0.0002234386012523
 40
0.0002234386012523
 40
0.0003174531209263
 40
0.0003174531209263
 40
0.0003174531209263
 40
0.0004087862024155
 40
0.0004087862024155
 40
0.0004087862024155
 40
0.0004260606119593
 40
0.0004260606119593
 40
0.0004260606119593
 40
0.0004260606119593
 10
-945.3147955700459
 20
104.1551700346357
 30
0.0
 10
-945.3459049110684
 20
104.1804631507836
 30
0.0
 10
-945.3807678304635
 20
104.203500892366
 30
0.0
 10
-945.4192159622925
 20
104.214870764053
 30
0.0
 10
-945.4524620376502
 20
104.224702284934
 30
0.0
 10
-945.4882144013579
 20
104.2274381068474
 30
0.0
 10
-945.5227675579468
 20
104.2246026705032
 30
0.0
 10
-945.5542977333796
 20
104.2220153003701
 30
0.0
 10
-945.5859739823276
 20
104.2143079250159
 30
0.0
 10
-945.6147185012636
 20
104.2010943305709
 30
0.0
 10
-945.6426223505281
 20
104.1882671843434
 30
0.0
 10
-945.6678658360638
 20
104.169247767749
 30
0.0
 10
-945.6899430565062
 20
104.1478993059391
 30
0.0
 10
-945.6941679439653
 20
104.1438138800221
 30
0.0
 10
-945.6983420228939
 20
104.139676128473
 30
0.0
 10
-945.70251592261
 20
104.1355386243793
 30
0.0
  0
SPLINE
  5
C0
330
1F
100
AcDbEntity
  8
0
  6
Continuous
 62
     7
370
    25
100
AcDbSpline
210
0.0
220
0.0
230
1.0
 70
     8
 71
     3
 72
    20
 73
    16
 74
     0
 42
0.00000001
 43
0.00000001
 40
0.0
 40
0.0
 40
0.0
 40
0.0
 40
0.0001043345175542
 40
0.0001043345175542
 40
0.0001043345175542
 40
0.0002102784503396
 40
0.0002102784503396
 40
0.0002102784503396
 40
0.0002994372104995
 40
0.0002994372104995
 40
0.0002994372104995
 40
0.0003824292025286
 40
0.0003824292025286
 40
0.0003824292025286
 40
0.0004259889535116
 40
0.0004259889535116
 40
0.0004259889535116
 40
0.0004259889535116
 10
-945.297968646969
 20
103.7688519256613
 30
0.0
 10
-945.2760912871184
 20
103.7958871325158
 30
0.0
 10
-945.2552318980994
 20
103.8249840115012
 30
0.0
 10
-945.2430336987384
 20
103.857552788206
 30
0.0
 10
-945.2306713638758
 20
103.8905598011083
 30
0.0
 10
-945.2256022200096
 20
103.9268407930128
 30
0.0
 10
-945.2269517806847
 20
103.9620610841809
 30
0.0
 10
-945.2280960445115
 20
103.9919236208616
 30
0.0
 10
-945.2333653349195
 20
104.0220584750023
 30
0.0
 10
-945.2434884575025
 20
104.0501761353936
 30
0.0
 10
-945.252899785339
 20
104.0763167375416
 30
0.0
 10
-945.2666064358821
 20
104.101457624916
 30
0.0
 10
-945.2844037950949
 20
104.122792061336
 30
0.0
 10
-945.2938859122539
 20
104.1341586704625
 30
0.0
 10
-945.3043552375825
 20
104.144676712621
 30
0.0
 10
-945.3147955700459
 20
104.1551700346357
 30
0.0
  0
SPLINE
  5
C1
330
1F
100
AcDbEntity
  8
0
  6
Continuous
 62
     7
370
    25
100
AcDbSpline
210
0.0
220
0.0
230
1.0
 70
     8
 71
     3
 72
    20
 73
    16
 74
     0
 42
0.00000001
 43
0.00000001
 40
0.0
 40
0.0
 40
0.0
 40
0.0
 40
0.0001156869522172
 40
0.0001156869522172
 40
0.0001156869522172
 40
0.0002169468347836
 40
0.0002169468347836
 40
0.0002169468347836
 40
0.0003094968649861
 40
0.0003094968649861
 40
0.0003094968649861
 40
0.0004009302966638
 40
0.0004009302966638
 40
0.0004009302966638
 40
0.0004221951456674
 40
0.0004221951456674
 40
0.0004221951456674
 40
0.0004221951456674
 10
-945.6821833905587
 20
103.7499216371998
 30
0.0
 10
-945.6524140658313
 20
103.7254096069091
 30
0.0
 10
-945.6189753456197
 20
103.7032574079469
 30
0.0
 10
-945.5821518483194
 20
103.691808287008
 30
0.0
 10
-945.5497065770461
 20
103.6817204392493
 30
0.0
 10
-945.5147124631682
 20
103.6785797744783
 30
0.0
 10
-945.4808108539287
 20
103.6808471940183
 30
0.0
 10
-945.4497864121034
 20
103.6829221818194
 30
0.0
 10
-945.4185966290672
 20
103.6901024427231
 30
0.0
 10
-945.390072727227
 20
103.7024801884287
 30
0.0
 10
-945.3619120104397
 20
103.7147003325461
 30
0.0
 10
-945.3356712261194
 20
103.7324020024178
 30
0.0
 10
-945.3134754864215
 20
103.7536082993949
 30
0.0
 10
-945.3082347412699
 20
103.7586154223642
 30
0.0
 10
-945.3031013785607
 20
103.7637341374105
 30
0.0
 10
-945.297968646969
 20
103.7688519256613
 30
0.0
  0
SPLINE
  5
C2
330
1F
100
AcDbEntity
  8
0
  6
Continuous
 62
     7
370
    25
100
AcDbSpline
210
0.0
220
0.0
230
1.0
 70
     8
 71
     3
 72
    19
 73
    15
 74
     0
 42
0.00000001
 43
0.00000001
 40
0.0
 40
0.0
 40
0.0
 40
0.0
 40
0.0800547482935687
 40
0.1582206264828258
 40
0.2342687506507366
 40
0.3094407777120491
 40
0.3860087426908818
 40
0.4656454644578427
 40
0.549612026700274
 40
0.637780338786628
 40
0.727907097695276
 40
0.8178013814499243
 40
0.9082736046692444
 40
1.0
 40
1.0
 40
1.0
 40
1.0
 10
-945.032457270491
 20
102.5040331011588
 30
0.0
 10
-945.0688133394433
 20
102.5106858685585
 30
0.0
 10
-945.1406676657475
 20
102.5238344331131
 30
0.0
 10
-945.2488328817761
 20
102.5292470049686
 30
0.0
 10
-945.3547109522643
 20
102.5262982233557
 30
0.0
 10
-945.4590054775922
 20
102.511926316625
 30
0.0
 10
-945.5629043283967
 20
102.4869447278185
 30
0.0
 10
-945.6680441520714
 20
102.4515932814823
 30
0.0
 10
-945.7745054504234
 20
102.4049039978301
 30
0.0
 10
-945.8816375362845
 20
102.3485256394607
 30
0.0
 10
-945.9867376059951
 20
102.2830997650547
 30
0.0
 10
-946.0876701852657
 20
102.2095251086754
 30
0.0
 10
-946.1818439239618
 20
102.1262684441174
 30
0.0
 10
-946.2399720100146
 20
102.065550546395
 30
0.0
 10
-946.2692361166448
 20
102.0349826203896
 30
0.0
  0
LINE
  5
C3
330
1F
100
AcDbEntity
  8
0
  6
Continuous
 62
     7
370
    25
100
AcDbLine
 10
-945.0878458923
 20
102.200447364
 30
0.0
 11
-945.0324572705
 21
102.5040331012
 31
0.0
  0
SPLINE
  5
C4
330
1F
100
AcDbEntity
  8
0
  6
Continuous
 62
     7
370
    25
100
AcDbSpline
210
0.0
220
0.0
230
1.0
 70
     8
 71
     3
 72
    15
 73
    11
 74
     0
 42
0.00000001
 43
0.00000001
 40
0.0
 40
0.0
 40
0.0
 40
0.0
 40
0.1337851995031515
 40
0.2613539374293337
 40
0.385148180027006
 40
0.5062677198054997
 40
0.6259288399945158
 40
0.7470975696554725
 40
0.8713927971817691
 40
1.0
 40
1.0
 40
1.0
 40
1.0
 10
-946.0469805076705
 20
101.8141292550049
 30
0.0
 10
-946.0138308711286
 20
101.8488016486101
 30
0.0
 10
-945.9490719286836
 20
101.9165353487687
 30
0.0
 10
-945.8411889314362
 20
102.0031104550289
 30
0.0
 10
-945.7288891794095
 20
102.0757403392053
 30
0.0
 10
-945.6101468970033
 20
102.1309947971563
 30
0.0
 10
-945.4869576122088
 20
102.1722892516733
 30
0.0
 10
-945.3584714207
 20
102.1984750934779
 30
0.0
 10
-945.2243880703219
 20
102.2083455792005
 30
0.0
 10
-945.1338743698325
 20
102.2031098586546
 30
0.0
 10
-945.0878458922859
 20
102.2004473639793
 30
0.0
  0
SPLINE
  5
C5
330
1F
100
AcDbEntity
  8
0
  6
Continuous
 62
     7
370
    25
100
AcDbSpline
210
0.0
220
0.0
230
1.0
 70
     8
 71
     3
 72
    20
 73
    16
 74
     0
 42
0.00000001
 43
0.00000001
 40
0.0
 40
0.0
 40
0.0
 40
0.0
 40
0.0003620806306572
 40
0.0003620806306572
 40
0.0003620806306572
 40
0.0007264408467683
 40
0.0007264408467683
 40
0.0007264408467683
 40
0.0010601173984192
 40
0.0010601173984192
 40
0.0010601173984192
 40
0.0014319799159352
 40
0.0014319799159352
 40
0.0014319799159352
 40
0.0016685666836238
 40
0.0016685666836238
 40
0.0016685666836238
 40
0.0016685666836238
 10
-946.0119244179269
 20
100.3074185178254
 30
0.0
 10
-946.0989251036459
 20
100.3910714444906
 30
0.0
 10
-946.1803611716155
 20
100.4847885399587
 30
0.0
 10
-946.2357849373282
 20
100.5920039196831
 30
0.0
 10
-946.2916177105261
 20
100.7000105104026
 30
0.0
 10
-946.3277339229015
 20
100.8203422820521
 30
0.0
 10
-946.3412699179714
 20
100.9411706687799
 30
0.0
 10
-946.3537327423018
 20
101.0524194502793
 30
0.0
 10
-946.349950206866
 20
101.1668992451195
 30
0.0
 10
-946.3284506195683
 20
101.2767599802408
 30
0.0
 10
-946.3046050814974
 20
101.3986082885638
 30
0.0
 10
-946.2565522040377
 20
101.5173852988915
 30
0.0
 10
-946.1915442464173
 20
101.6231661354031
 30
0.0
 10
-946.1497428785644
 20
101.6911852490724
 30
0.0
 10
-946.0991477689824
 20
101.7536930818474
 30
0.0
 10
-946.0469805076705
 20
101.8141292550049
 30
0.0
  0
SPLINE
  5
C6
330
1F
100
AcDbEntity
  8
0
  6
Continuous
 62
     7
370
    25
100
AcDbSpline
210
0.0
220
0.0
230
1.0
 70
     8
 71
     3
 72
    19
 73
    15
 74
     0
 42
0.00000001
 43
0.00000001
 40
0.0
 40
0.0
 40
0.0
 40
0.0
 40
0.0895370733024961
 40
0.1756962968375129
 40
0.2597225354665237
 40
0.3435641512608087
 40
0.4262748876519288
 40
0.5076257084105528
 40
0.5891478905214369
 40
0.6723632516539013
 40
0.7554055905612065
 40
0.8369613718830019
 40
0.9178626263728129
 40
1.0
 40
1.0
 40
1.0
 40
1.0
 10
-944.496099097414
 20
100.4118856652613
 30
0.0
 10
-944.531183656415
 20
100.375372777341
 30
0.0
 10
-944.6000291844773
 20
100.3037244761645
 30
0.0
 10
-944.7172769400358
 20
100.2147053609962
 30
0.0
 10
-944.8407887408963
 20
100.1410235226419
 30
0.0
 10
-944.9720058290314
 20
100.08673448294
 30
0.0
 10
-945.1074901698663
 20
100.0499423932282
 30
0.0
 10
-945.2455124493722
 20
100.0321688075594
 30
0.0
 10
-945.3849215433326
 20
100.0337516865453
 30
0.0
 10
-945.5237959718444
 20
100.0540459302978
 30
0.0
 10
-945.6588193893249
 20
100.0925369184979
 30
0.0
 10
-945.7863101780258
 20
100.147731489694
 30
0.0
 10
-945.9062337054902
 20
100.2175898013077
 30
0.0
 10
-945.9765165579628
 20
100.2773246473056
 30
0.0
 10
-946.0119244179269
 20
100.3074185178254
 30
0.0
  0
SPLINE
  5
C7
330
1F
100
AcDbEntity
  8
0
  6
Continuous
 62
     7
370
    25
100
AcDbSpline
210
0.0
220
0.0
230
1.0
 70
     8
 71
     3
 72
    15
 73
    11
 74
     0
 42
0.00000001
 43
0.00000001
 40
0.0
 40
0.0
 40
0.0
 40
0.0
 40
0.1319164357138439
 40
0.2583839850319549
 40
0.3815491188598072
 40
0.5025175724946641
 40
0.6229381718299216
 40
0.745137344594816
 40
0.8705394364330532
 40
1.0
 40
1.0
 40
1.0
 40
1.0
 10
-944.2079380397219
 20
101.4025707614152
 30
0.0
 10
-944.2014399240882
 20
101.3559186960999
 30
0.0
 10
-944.1887121013302
 20
101.2645415566182
 30
0.0
 10
-944.1890008619748
 20
101.1280880300228
 30
0.0
 10
-944.2014732033106
 20
100.9962607797012
 30
0.0
 10
-944.2306700119702
 20
100.869170229449
 30
0.0
 10
-944.2745709456199
 20
100.7468484775732
 30
0.0
 10
-944.333118654925
 20
100.6290526659309
 30
0.0
 10
-944.407059132732
 20
100.5162344072056
 30
0.0
 10
-944.4661056870796
 20
100.447035888492
 30
0.0
 10
-944.496099097414
 20
100.4118856652613
 30
0.0
  0
LINE
  5
C8
330
1F
100
AcDbEntity
  8
0
  6
Continuous
 62
     7
370
    25
100
AcDbLine
 10
-943.9036511807
 20
101.4803952806
 30
0.0
 11
-944.2079380397
 21
101.4025707614
 31
0.0
  0
SPLINE
  5
C9
330
1F
100
AcDbEntity
  8
0
  6
Continuous
 62
     7
370
    25
100
AcDbSpline
210
0.0
220
0.0
230
1.0
 70
     8
 71
     3
 72
    14
 73
    10
 74
     0
 42
0.00000001
 43
0.00000001
 40
0.0
 40
0.0
 40
0.0
 40
0.0
 40
0.0005694224651703
 40
0.0005694224651703
 40
0.0005694224651703
 40
0.0010140462224407
 40
0.0010140462224407
 40
0.0010140462224407
 40
0.0013820686658624
 40
0.0013820686658624
 40
0.0013820686658624
 40
0.0013820686658624
 10
-944.2808547063885
 20
100.1980435178255
 30
0.0
 10
-944.1560470704829
 20
100.3410467928531
 30
0.0
 10
-944.0425483884975
 20
100.4998422721077
 30
0.0
 10
-943.9704526891786
 20
100.675424426066
 30
0.0
 10
-943.9138918020979
 20
100.8131730362776
 30
0.0
 10
-943.8765885665215
 20
100.9617208774461
 30
0.0
 10
-943.8687691527515
 20
101.1104241737474
 30
0.0
 10
-943.8622645270274
 20
101.2341238927871
 30
0.0
 10
-943.8755742387258
 20
101.3597486231165
 30
0.0
 10
-943.9036511807474
 20
101.480395280646
 30
0.0
  0
SPLINE
  5
CA
330
1F
100
AcDbEntity
  8
0
  6
Continuous
 62
     7
370
    25
100
AcDbSpline
210
0.0
220
0.0
230
1.0
 70
     8
 71
     3
 72
    20
 73
    16
 74
     0
 42
0.00000001
 43
0.00000001
 40
0.0
 40
0.0
 40
0.0
 40
0.0
 40
0.0004598512721952
 40
0.0004598512721952
 40
0.0004598512721952
 40
0.0009234390494499
 40
0.0009234390494499
 40
0.0009234390494499
 40
0.0013468952642273
 40
0.0013468952642273
 40
0.0013468952642273
 40
0.0018160058816937
 40
0.0018160058816937
 40
0.0018160058816937
 40
0.0021545916711634
 40
0.0021545916711634
 40
0.0021545916711634
 40
0.0021545916711634
 10
-946.2187553474141
 20
100.0444978447485
 30
0.0
 10
-946.1026219893786
 20
99.94445308759673
 30
0.0
 10
-945.9732441552254
 20
99.854647768784
 30
0.0
 10
-945.8312576806785
 20
99.79689180521386
 30
0.0
 10
-945.6882305274329
 20
99.73871252385092
 30
0.0
 10
-945.5316302947991
 20
99.70802589847764
 30
0.0
 10
-945.3772538700824
 20
99.7049412855127
 30
0.0
 10
-945.2355114441661
 20
99.70210911392
 30
0.0
 10
-945.0914872757787
 20
99.71959352250194
 30
0.0
 10
-944.9554608069919
 20
99.75954019057231
 30
0.0
 10
-944.8051980443919
 20
99.80366760749678
 30
0.0
 10
-944.6606907166333
 20
99.87535636136181
 30
0.0
 10
-944.5343960266939
 20
99.96796185818428
 30
0.0
 10
-944.4423613185793
 20
100.0354462462766
 30
0.0
 10
-944.3596033061519
 20
100.1154409260427
 30
0.0
 10
-944.2808547063885
 20
100.1980435178255
 30
0.0
  0
SPLINE
  5
CB
330
1F
100
AcDbEntity
  8
0
  6
Continuous
 62
     7
370
    25
100
AcDbSpline
210
0.0
220
0.0
230
1.0
 70
     8
 71
     3
 72
    20
 73
    16
 74
     0
 42
0.00000001
 43
0.00000001
 40
0.0
 40
0.0
 40
0.0
 40
0.0
 40
0.0005395402100004
 40
0.0005395402100004
 40
0.0005395402100004
 40
0.0010852870835609
 40
0.0010852870835609
 40
0.0010852870835609
 40
0.0015468651834801
 40
0.0015468651834801
 40
0.0015468651834801
 40
0.0020051640871928
 40
0.0020051640871928
 40
0.0020051640871928
 40
0.0022080997238751
 40
0.0022080997238751
 40
0.0022080997238751
 40
0.0022080997238751
 10
-946.2692361166448
 20
102.0349826203896
 30
0.0
 10
-946.3876442426069
 20
101.8996151043607
 30
0.0
 10
-946.4921023912251
 20
101.7472949364349
 30
0.0
 10
-946.5611464445365
 20
101.5812293849438
 30
0.0
 10
-946.6307609664592
 20
101.4137917357847
 30
0.0
 10
-946.6695517864797
 20
101.2293347412617
 30
0.0
 10
-946.668867880325
 20
101.0480033311562
 30
0.0
 10
-946.6682859936022
 20
100.8937214326186
 30
0.0
 10
-946.6401085031275
 20
100.7375040650782
 30
0.0
 10
-946.5880747955914
 20
100.5922603523448
 30
0.0
 10
-946.5364505387206
 20
100.4481595551876
 30
0.0
 10
-946.4582925522952
 20
100.3113198218934
 30
0.0
 10
-946.3610906306076
 20
100.1930747794642
 30
0.0
 10
-946.317538100184
 20
100.1400936169685
 30
0.0
 10
-946.2685869805637
 20
100.0916214569121
 30
0.0
 10
-946.2187553474141
 20
100.0444978447485
 30
0.0
  0
LINE
  5
CC
330
1F
100
AcDbEntity
  8
0
  6
Continuous
 62
     7
370
    25
100
AcDbLine
 10
-947.6156560269
 20
100.4535775371
 30
0.0
 11
-947.8351071487
 21
100.2116905178
 31
0.0
  0
LINE
  5
CD
330
1F
100
AcDbEntity
  8
0
  6
Continuous
 62
     7
370
    25
100
AcDbLine
 10
-945.7086047448
 20
98.7246111909
 30
0.0
 11
-947.6156560269
 21
100.4535775371
 31
0.0
  0
LINE
  5
CE
330
1F
100
AcDbEntity
  8
0
  6
Continuous
 62
     7
370
    25
100
AcDbLine
 10
-945.9280558666
 20
98.4827241717
 30
0.0
 11
-945.7086047448
 21
98.7246111909
 31
0.0
  0
LINE
  5
CF
330
1F
100
AcDbEntity
  8
0
  6
Continuous
 62
     7
370
    25
100
AcDbLine
 10
-946.2561808666
 20
98.7799998127
 30
0.0
 11
-945.9280558666
 21
98.4827241717
 31
0.0
  0
SPLINE
  5
D0
330
1F
100
AcDbEntity
  8
0
  6
Continuous
 62
     7
370
    25
100
AcDbSpline
210
0.0
220
0.0
230
1.0
 70
     8
 71
     3
 72
    15
 73
    11
 74
     0
 42
0.00000001
 43
0.00000001
 40
0.0
 40
0.0
 40
0.0
 40
0.0
 40
0.1266632624747558
 40
0.2496692069433827
 40
0.3701336640907757
 40
0.4904789070640173
 40
0.6121901946006891
 40
0.7370174113350553
 40
0.8658144875559526
 40
1.0
 40
1.0
 40
1.0
 40
1.0
 10
-946.5730879179215
 20
97.6729284985894
 30
0.0
 10
-946.5403477152958
 20
97.71122690283629
 30
0.0
 10
-946.47581266176
 20
97.78671787021464
 30
0.0
 10
-946.3966596090658
 20
97.91125959069983
 30
0.0
 10
-946.3328639647281
 20
98.04127742772341
 30
0.0
 10
-946.2847231293166
 20
98.17744781847051
 30
0.0
 10
-946.2533363831213
 20
98.32017150405933
 30
0.0
 10
-946.237329769306
 20
98.46870318709611
 30
0.0
 10
-946.2369255243739
 20
98.62322734937071
 30
0.0
 10
-946.2496753392267
 20
98.72703334013502
 30
0.0
 10
-946.2561808666394
 20
98.77999981269197
 30
0.0
  0
SPLINE
  5
D1
330
1F
100
AcDbEntity
  8
0
  6
Continuous
 62
     7
370
    25
100
AcDbSpline
210
0.0
220
0.0
230
1.0
 70
     8
 71
     3
 72
    23
 73
    19
 74
     0
 42
0.00000001
 43
0.00000001
 40
0.0
 40
0.0
 40
0.0
 40
0.0
 40
0.066076340526465
 40
0.1301365233267286
 40
0.192753127103833
 40
0.2543652686467731
 40
0.3159576917225505
 40
0.37774165458411
 40
0.4408641174059355
 40
0.5053349741461555
 40
0.5696901111233135
 40
0.6321371846112515
 40
0.6932571661156346
 40
0.7536693264067448
 40
0.8138754965384476
 40
0.8742437712420783
 40
0.9363210514396343
 40
1.0
 40
1.0
 40
1.0
 40
1.0
 10
-948.4682201294598
 20
97.6084252934612
 30
0.0
 10
-948.4330183266901
 20
97.57804403799202
 30
0.0
 10
-948.3636888179612
 20
97.51820853666791
 30
0.0
 10
-948.2514277811048
 20
97.4416550106416
 30
0.0
 10
-948.1352750164787
 20
97.37779496375148
 30
0.0
 10
-948.0155203366934
 20
97.32480538822627
 30
0.0
 10
-947.8908188262961
 20
97.2869172278053
 30
0.0
 10
-947.762356625594
 20
97.25937830081199
 30
0.0
 10
-947.6295136462802
 20
97.24687623870014
 30
0.0
 10
-947.4943757922907
 20
97.2451736431732
 30
0.0
 10
-947.3601143918959
 20
97.2563708164745
 30
0.0
 10
-947.2297608367604
 20
97.27935656039955
 30
0.0
 10
-947.1050433836706
 20
97.31459009217747
 30
0.0
 10
-946.9858406857744
 20
97.36141447457425
 30
0.0
 10
-946.8733769340041
 20
97.42160072267437
 30
0.0
 10
-946.7665169624145
 20
97.49316958294396
 30
0.0
 10
-946.6650300354746
 20
97.57637071367326
 30
0.0
 10
-946.6039944129933
 20
97.64047043929007
 30
0.0
 10
-946.5730879179215
 20
97.6729284985894
 30
0.0
  0
SPLINE
  5
D2
330
1F
100
AcDbEntity
  8
0
  6
Continuous
 62
     7
370
    25
100
AcDbSpline
210
0.0
220
0.0
230
1.0
 70
     8
 71
     3
 72
    20
 73
    16
 74
     0
 42
0.00000001
 43
0.00000001
 40
0.0
 40
0.0
 40
0.0
 40
0.0
 40
0.0004526044769685
 40
0.0004526044769685
 40
0.0004526044769685
 40
0.0009099592244852
 40
0.0009099592244852
 40
0.0009099592244852
 40
0.0013289722355822
 40
0.0013289722355822
 40
0.0013289722355822
 40
0.001826287549848
 40
0.001826287549848
 40
0.001826287549848
 40
0.0020959321262175
 40
0.0020959321262175
 40
0.0020959321262175
 40
0.0020959321262175
 10
-948.571986155101
 20
99.49794853064068
 30
0.0
 10
-948.6709545318135
 20
99.38407815781362
 30
0.0
 10
-948.7581305781072
 20
99.25625380027606
 30
0.0
 10
-948.8167626859394
 20
99.11724488930976
 30
0.0
 10
-948.8758342743694
 20
98.97719402843668
 30
0.0
 10
-948.9068213424237
 20
98.8232292116618
 30
0.0
 10
-948.9120796399282
 20
98.67132119180017
 30
0.0
 10
-948.9169236172905
 20
98.53138255030582
 30
0.0
 10
-948.902251332421
 20
98.38921640013822
 30
0.0
 10
-948.867159607293
 20
98.25366250558878
 30
0.0
 10
-948.8258701511209
 20
98.09416773673442
 30
0.0
 10
-948.751479108457
 20
97.94011084097852
 30
0.0
 10
-948.6523222862862
 20
97.8085383320722
 30
0.0
 10
-948.5977709351333
 20
97.73615341716373
 30
0.0
 10
-948.5337109489988
 20
97.67108611355671
 30
0.0
 10
-948.4682201294598
 20
97.6084252934612
 30
0.0
  0
SPLINE
  5
D3
330
1F
100
AcDbEntity
  8
0
  6
Continuous
 62
     7
370
    25
100
AcDbSpline
210
0.0
220
0.0
230
1.0
 70
     8
 71
     3
 72
    14
 73
    10
 74
     0
 42
0.00000001
 43
0.00000001
 40
0.0000000000000083
 40
0.0000000000000083
 40
0.0000000000000083
 40
0.0000000000000083
 40
0.0004774652929822
 40
0.0004774652929822
 40
0.0004774652929822
 40
0.0008645830003926
 40
0.0008645830003926
 40
0.0008645830003926
 40
0.0011971514598019
 40
0.0011971514598019
 40
0.0011971514598019
 40
0.0011971514598019
 10
-947.4845462512548
 20
99.89408234474324
 30
0.0
 10
-947.6431492326274
 20
99.90732769906573
 30
0.0
 10
-947.8066621214634
 20
99.90702214400487
 30
0.0
 10
-947.96139107855
 20
99.86974889689252
 30
0.0
 10
-948.0872003404861
 20
99.83944222516499
 30
0.0
 10
-948.2093101950659
 20
99.78658791707646
 30
0.0
 10
-948.3180749731162
 20
99.7164688198506
 30
0.0
 10
-948.4119271748933
 20
99.65596364731917
 30
0.0
 10
-948.4943604620981
 20
99.5782190947804
 30
0.0
 10
-948.571986155101
 20
99.49794853064068
 30
0.0
  0
LINE
  5
D4
330
1F
100
AcDbEntity
  8
0
  6
Continuous
 62
     7
370
    25
100
AcDbLine
 10
-947.8351071487
 20
100.2116905178
 30
0.0
 11
-947.4845462512
 21
99.8940823447
 31
0.0
  0
LINE
  5
D5
330
1F
100
AcDbEntity
  8
0
  6
Continuous
 62
     7
370
    25
100
AcDbLine
 10
-950.7716927674
 20
98.4536391711
 30
0.0
 11
-948.1284636007
 21
96.0572048763
 31
0.0
  0
LINE
  5
D6
330
1F
100
AcDbEntity
  8
0
  6
Continuous
 62
     7
370
    25
100
AcDbLine
 10
-950.5487360366
 20
98.6990317994
 30
0.0
 11
-950.7716927674
 21
98.4536391711
 31
0.0
  0
LINE
  5
D7
330
1F
100
AcDbEntity
  8
0
  6
Continuous
 62
     7
370
    25
100
AcDbLine
 10
-947.9055068699
 20
96.3025975045
 30
0.0
 11
-950.5487360366
 21
98.6990317994
 31
0.0
  0
LINE
  5
D8
330
1F
100
AcDbEntity
  8
0
  6
Continuous
 62
     7
370
    25
100
AcDbLine
 10
-948.1284636007
 20
96.0572048763
 30
0.0
 11
-947.9055068699
 21
96.3025975045
 31
0.0
  0
LINE
  5
D9
330
1F
100
AcDbEntity
  8
0
  6
Continuous
 62
     7
370
    25
100
AcDbLine
 10
-952.0212533093
 20
95.5983553234
 30
0.0
 11
-951.102783758
 21
94.7654226311
 31
0.0
  0
LINE
  5
DA
330
1F
100
AcDbEntity
  8
0
  6
Continuous
 62
     7
370
    25
100
AcDbLine
 10
-951.7968943349
 20
95.845851317
 30
0.0
 11
-952.0212533093
 21
95.5983553234
 31
0.0
  0
LINE
  5
DB
330
1F
100
AcDbEntity
  8
0
  6
Continuous
 62
     7
370
    25
100
AcDbLine
 10
-950.9064696554
 20
95.0388601311
 30
0.0
 11
-951.7968943349
 21
95.845851317
 31
0.0
  0
SPLINE
  5
DC
330
1F
100
AcDbEntity
  8
0
  6
Continuous
 62
     7
370
    25
100
AcDbSpline
210
0.0
220
0.0
230
1.0
 70
     8
 71
     3
 72
    14
 73
    10
 74
     0
 42
0.00000001
 43
0.00000001
 40
0.0
 40
0.0
 40
0.0
 40
0.0
 40
0.0001529147871886
 40
0.0001529147871886
 40
0.0001529147871886
 40
0.0003052301848949
 40
0.0003052301848949
 40
0.0003052301848949
 40
0.000608174070813
 40
0.000608174070813
 40
0.000608174070813
 40
0.000608174070813
 10
-950.4262012259533
 20
94.66656445804271
 30
0.0
 10
-950.4713600582542
 20
94.69020305860263
 30
0.0
 10
-950.5143467832526
 20
94.7180684016958
 30
0.0
 10
-950.5557831162857
 20
94.74775230096753
 30
0.0
 10
-950.5971157296706
 20
94.77736189821078
 30
0.0
 10
-950.6375525693759
 20
94.80826845892649
 30
0.0
 10
-950.6769180506182
 20
94.84044721068422
 30
0.0
 10
-950.755223836184
 20
94.90445715938534
 30
0.0
 10
-950.831789017365
 20
94.97065549870767
 30
0.0
 10
-950.9064696554404
 20
95.03886013111963
 30
0.0
  0
SPLINE
  5
DD
330
1F
100
AcDbEntity
  8
0
  6
Continuous
 62
     7
370
    25
100
AcDbSpline
210
0.0
220
0.0
230
1.0
 70
     8
 71
     3
 72
    15
 73
    11
 74
     0
 42
0.00000001
 43
0.00000001
 40
0.0
 40
0.0
 40
0.0
 40
0.0
 40
0.137467161262125
 40
0.2677861287141907
 40
0.393365365013554
 40
0.5174498042881668
 40
0.6390212599324642
 40
0.7571282308176592
 40
0.8767201965999365
 40
1.0
 40
1.0
 40
1.0
 40
1.0
 10
-949.5455922515943
 20
94.87760211829911
 30
0.0
 10
-949.576743358853
 20
94.84556226051811
 30
0.0
 10
-949.6374257381304
 20
94.7831485945854
 30
0.0
 10
-949.7410604040263
 20
94.70746600223667
 30
0.0
 10
-949.8509061562239
 20
94.65026831154964
 30
0.0
 10
-949.9661298770071
 20
94.61319338312384
 30
0.0
 10
-950.0834319824846
 20
94.59509597190753
 30
0.0
 10
-950.2004841038928
 20
94.59838309475998
 30
0.0
 10
-950.3164849050206
 20
94.62008168296725
 30
0.0
 10
-950.3892607688115
 20
94.6509141432499
 30
0.0
 10
-950.4262012259533
 20
94.66656445804271
 30
0.0
  0
SPLINE
  5
DE
330
1F
100
AcDbEntity
  8
0
  6
Continuous
 62
     7
370
    25
100
AcDbSpline
210
0.0
220
0.0
230
1.0
 70
     8
 71
     3
 72
    17
 73
    13
 74
     0
 42
0.00000001
 43
0.00000001
 40
0.0
 40
0.0
 40
0.0
 40
0.0
 40
0.0002547580826747
 40
0.0002547580826747
 40
0.0002547580826747
 40
0.0005104615939734
 40
0.0005104615939734
 40
0.0005104615939734
 40
0.0007548716862063
 40
0.0007548716862063
 40
0.0007548716862063
 40
0.0009365900971896
 40
0.0009365900971896
 40
0.0009365900971896
 40
0.0009365900971896
 10
-949.4109768669789
 20
95.74839538752988
 30
0.0
 10
-949.3730225079076
 20
95.6724298395379
 30
0.0
 10
-949.3405240597848
 20
95.59126070810878
 30
0.0
 10
-949.3292946397265
 20
95.50708709003644
 30
0.0
 10
-949.3179909314237
 20
95.42235662127307
 30
0.0
 10
-949.3223630164181
 20
95.33432961226788
 30
0.0
 10
-949.3410341742241
 20
95.25091250356445
 30
0.0
 10
-949.3588936900671
 20
95.17112156665821
 30
0.0
 10
-949.3915184639741
 20
95.09370105812484
 30
0.0
 10
-949.4343889878969
 20
95.02407581775107
 30
0.0
 10
-949.4665300435606
 20
94.97187611217987
 30
0.0
 10
-949.5059792613987
 20
94.9243853175127
 30
0.0
 10
-949.5455922515943
 20
94.87760211829911
 30
0.0
  0
SPLINE
  5
DF
330
1F
100
AcDbEntity
  8
0
  6
Continuous
 62
     7
370
    25
100
AcDbSpline
210
0.0
220
0.0
230
1.0
 70
     8
 71
     3
 72
    14
 73
    10
 74
     0
 42
0.00000001
 43
0.00000001
 40
0.0000000000000118
 40
0.0000000000000118
 40
0.0000000000000118
 40
0.0000000000000118
 40
0.0001589925665408
 40
0.0001589925665408
 40
0.0001589925665408
 40
0.0003180352735757
 40
0.0003180352735757
 40
0.0003180352735757
 40
0.0006355317673068
 40
0.0006355317673068
 40
0.0006355317673068
 40
0.0006355317673068
 10
-949.8449712580045
 20
96.20973352855552
 30
0.0
 10
-949.8060311236516
 20
96.17378351751488
 30
0.0
 10
-949.7670484305723
 20
96.13787726744165
 30
0.0
 10
-949.7284316284242
 20
96.10158016081996
 30
0.0
 10
-949.6898084133801
 20
96.0652770265223
 30
0.0
 10
-949.6519590488934
 20
96.02814560789102
 30
0.0
 10
-949.6145862665767
 20
95.99055644133894
 30
0.0
 10
-949.5402294389393
 20
95.91576909597467
 30
0.0
 10
-949.466478337825
 20
95.83807075525623
 30
0.0
 10
-949.4109768669789
 20
95.74839538752988
 30
0.0
  0
LINE
  5
E0
330
1F
100
AcDbEntity
  8
0
  6
Continuous
 62
     7
370
    25
100
AcDbLine
 10
-950.7353959375
 20
97.0167247144
 30
0.0
 11
-949.844971258
 21
96.2097335285
 31
0.0
  0
LINE
  5
E1
330
1F
100
AcDbEntity
  8
0
  6
Continuous
 62
     7
370
    25
100
AcDbLine
 10
-950.508232476
 20
97.2670251952
 30
0.0
 11
-950.7353959375
 21
97.0167247144
 31
0.0
  0
LINE
  5
E2
330
1F
100
AcDbEntity
  8
0
  6
Continuous
 62
     7
370
    25
100
AcDbLine
 10
-949.5722348798
 20
96.4186678234
 30
0.0
 11
-950.508232476
 21
97.2670251952
 31
0.0
  0
SPLINE
  5
E3
330
1F
100
AcDbEntity
  8
0
  6
Continuous
 62
     7
370
    25
100
AcDbSpline
210
0.0
220
0.0
230
1.0
 70
     8
 71
     3
 72
    20
 73
    16
 74
     0
 42
0.00000001
 43
0.00000001
 40
0.0
 40
0.0
 40
0.0
 40
0.0
 40
0.0004729800315207
 40
0.0004729800315207
 40
0.0004729800315207
 40
0.0007919993028084
 40
0.0007919993028084
 40
0.0007919993028084
 40
0.0011116090385261
 40
0.0011116090385261
 40
0.0011116090385261
 40
0.0014269900012207
 40
0.0014269900012207
 40
0.0014269900012207
 40
0.0020201448465288
 40
0.0020201448465288
 40
0.0020201448465288
 40
0.0020201448465288
 10
-949.3072108413378
 20
94.6616566054786
 30
0.0
 10
-949.2021229730092
 20
94.7791862563893
 30
0.0
 10
-949.1071410320455
 20
94.91160571745182
 30
0.0
 10
-949.0498484379688
 20
95.0584874303265
 30
0.0
 10
-949.0109146958997
 20
95.15830233338481
 30
0.0
 10
-948.987308461242
 20
95.26585841743476
 30
0.0
 10
-948.9831961141766
 20
95.3729188664608
 30
0.0
 10
-948.9790773745203
 20
95.4801457395833
 30
0.0
 10
-948.9941725632592
 20
95.58952647548394
 30
0.0
 10
-949.0261434868814
 20
95.69195902098944
 30
0.0
 10
-949.0577329378168
 20
95.79316935537551
 30
0.0
 10
-949.1079343715626
 20
95.88933951081114
 30
0.0
 10
-949.1683066911204
 20
95.97649803436539
 30
0.0
 10
-949.281979010155
 20
96.14060488943785
 30
0.0
 10
-949.4261585408689
 20
96.28260107803685
 30
0.0
 10
-949.5722348797993
 20
96.41866782342731
 30
0.0
  0
SPLINE
  5
E4
330
1F
100
AcDbEntity
  8
0
  6
Continuous
 62
     7
370
    25
100
AcDbSpline
210
0.0
220
0.0
230
1.0
 70
     8
 71
     3
 72
    27
 73
    23
 74
     0
 42
0.00000001
 43
0.00000001
 40
0.0
 40
0.0
 40
0.0
 40
0.0
 40
0.0641430480669468
 40
0.1243562727559931
 40
0.1805050382242106
 40
0.2326142805440953
 40
0.2807749312877267
 40
0.3256947626274934
 40
0.3668048358793423
 40
0.4044647733160478
 40
0.4756000510832467
 40
0.5446990034404185
 40
0.6133305354912264
 40
0.6834263474442992
 40
0.7192383877517028
 40
0.7558347379260646
 40
0.7931512179000373
 40
0.8317160638523956
 40
0.8715262262232414
 40
0.912463958810391
 40
0.95539606630799
 40
1.0
 40
1.0
 40
1.0
 40
1.0
 10
-951.1027837580045
 20
94.76542263111963
 30
0.0
 10
-951.0697816407475
 20
94.73599794183401
 30
0.0
 10
-951.0057993321611
 20
94.67895131251353
 30
0.0
 10
-950.9099112866232
 20
94.5996053731898
 30
0.0
 10
-950.8172723314128
 20
94.52953369415312
 30
0.0
 10
-950.7289599565678
 20
94.46764353434011
 30
0.0
 10
-950.6445786248687
 20
94.41375387849156
 30
0.0
 10
-950.563636652496
 20
94.36883912539453
 30
0.0
 10
-950.486275509073
 20
94.33283779192193
 30
0.0
 10
-950.389552648013
 20
94.29617129571622
 30
0.0
 10
-950.2696495033006
 20
94.26804414410947
 30
0.0
 10
-950.1258073744513
 20
94.25475575071063
 30
0.0
 10
-949.9822884692813
 20
94.26422784633306
 30
0.0
 10
-949.8642945090664
 20
94.28999501680728
 30
0.0
 10
-949.7711799006099
 20
94.32153543633117
 30
0.0
 10
-949.7017277116902
 20
94.35171721270889
 30
0.0
 10
-949.633388521723
 20
94.38850833318331
 30
0.0
 10
-949.5661713755662
 20
94.43152164182172
 30
0.0
 10
-949.4995672353499
 20
94.47984255698775
 30
0.0
 10
-949.4338257179948
 20
94.53421821862548
 30
0.0
 10
-949.36958863905
 20
94.59527305634508
 30
0.0
 10
-949.3282665071611
 20
94.63924879568111
 30
0.0
 10
-949.3072108413378
 20
94.6616566054786
 30
0.0
  0
LINE
  5
E5
330
1F
100
AcDbEntity
  8
0
  6
Continuous
 62
     7
370
    25
100
AcDbLine
 10
-952.7051000533
 20
94.847348808
 30
0.0
 11
-952.3741705661
 21
94.5472686798
 31
0.0
  0
LINE
  5
E6
330
1F
100
AcDbEntity
  8
0
  6
Continuous
 62
     7
370
    25
100
AcDbLine
 10
-952.4814422007
 20
95.0941436798
 30
0.0
 11
-952.7051000533
 21
94.847348808
 31
0.0
  0
LINE
  5
E7
330
1F
100
AcDbEntity
  8
0
  6
Continuous
 62
     7
370
    25
100
AcDbLine
 10
-950.9621112713
 20
93.7164393529
 30
0.0
 11
-952.4814422007
 21
95.0941436798
 31
0.0
  0
SPLINE
  5
E8
330
1F
100
AcDbEntity
  8
0
  6
Continuous
 62
     7
370
    25
100
AcDbSpline
210
0.0
220
0.0
230
1.0
 70
     8
 71
     3
 72
    14
 73
    10
 74
     0
 42
0.00000001
 43
0.00000001
 40
0.0
 40
0.0
 40
0.0
 40
0.0
 40
0.0002012624337646
 40
0.0002012624337646
 40
0.0002012624337646
 40
0.0004017713037944
 40
0.0004017713037944
 40
0.0004017713037944
 40
0.0008004122656823
 40
0.0008004122656823
 40
0.0008004122656823
 40
0.0008004122656823
 10
-950.4383732904837
 20
93.11417573107971
 30
0.0
 10
-950.4706469194637
 20
93.17299020690265
 30
0.0
 10
-950.507186518174
 20
93.2297163180437
 30
0.0
 10
-950.547997310129
 20
93.28296299825836
 30
0.0
 10
-950.5887375214973
 20
93.336117590529
 30
0.0
 10
-950.6321352787288
 20
93.38728924205171
 30
0.0
 10
-950.6772912134096
 20
93.4367474776136
 30
0.0
 10
-950.7670092805876
 20
93.53501357114062
 30
0.0
 10
-950.8641715648794
 20
93.62636510222173
 30
0.0
 10
-950.9621112712529
 20
93.71643935287459
 30
0.0
  0
SPLINE
  5
E9
330
1F
100
AcDbEntity
  8
0
  6
Continuous
 62
     7
370
    25
100
AcDbSpline
210
0.0
220
0.0
230
1.0
 70
     8
 71
     3
 72
    23
 73
    19
 74
     0
 42
0.00000001
 43
0.00000001
 40
0.0
 40
0.0
 40
0.0
 40
0.0
 40
0.0724158028467605
 40
0.1426621642997434
 40
0.2106097641186364
 40
0.2768952824104298
 40
0.3407888310094058
 40
0.4040541059554584
 40
0.4661772028408111
 40
0.527375321571877
 40
0.5876760079749728
 40
0.6469243067599377
 40
0.7050867649741148
 40
0.7630451722704852
 40
0.8213300779006456
 40
0.8798895540904074
 40
0.9391661590215078
 40
0.9999999999999999
 40
0.9999999999999999
 40
0.9999999999999999
 40
0.9999999999999999
 10
-950.7146152776631
 20
91.70982877595152
 30
0.0
 10
-950.690186887483
 20
91.73757852138289
 30
0.0
 10
-950.6420619357954
 20
91.79224668201054
 30
0.0
 10
-950.5771443506333
 20
91.87802519696119
 30
0.0
 10
-950.5184663081919
 20
91.9643923740491
 30
0.0
 10
-950.4674462771194
 20
92.05178503347811
 30
0.0
 10
-950.4233065930599
 20
92.14019775836269
 30
0.0
 10
-950.3871186299679
 20
92.22985507656327
 30
0.0
 10
-950.3572460447778
 20
92.32037605962364
 30
0.0
 10
-950.3357543119422
 20
92.41170122583654
 30
0.0
 10
-950.3208224683156
 20
92.50280009060796
 30
0.0
 10
-950.3134538550476
 20
92.59335134366546
 30
0.0
 10
-950.3153738250286
 20
92.68293631447624
 30
0.0
 10
-950.3232821294314
 20
92.77170153474597
 30
0.0
 10
-950.3404285317201
 20
92.85940949528062
 30
0.0
 10
-950.36507573516
 20
92.94593532657076
 30
0.0
 10
-950.3973388417297
 20
93.03139492745294
 30
0.0
 10
-950.4245774245126
 20
93.0863446548379
 30
0.0
 10
-950.4383732904837
 20
93.11417573107971
 30
0.0
  0
SPLINE
  5
EA
330
1F
100
AcDbEntity
  8
0
  6
Continuous
 62
     7
370
    25
100
AcDbSpline
210
0.0
220
0.0
230
1.0
 70
     8
 71
     3
 72
    17
 73
    13
 74
     0
 42
0.00000001
 43
0.00000001
 40
0.0000000000000025
 40
0.0000000000000025
 40
0.0000000000000025
 40
0.0000000000000025
 40
0.0004799170042198
 40
0.0004799170042198
 40
0.0004799170042198
 40
0.0008687454991896
 40
0.0008687454991896
 40
0.0008687454991896
 40
0.0013733432174414
 40
0.0013733432174414
 40
0.0013733432174414
 40
0.0016570998690011
 40
0.0016570998690011
 40
0.0016570998690011
 40
0.0016570998690011
 10
-952.2037979699708
 20
91.26531755800279
 30
0.0
 10
-952.0505071674733
 20
91.21956739131643
 30
0.0
 10
-951.891511394769
 20
91.18059558969333
 30
0.0
 10
-951.731540498204
 20
91.17991725765306
 30
0.0
 10
-951.6024973753873
 20
91.1793700700917
 30
0.0
 10
-951.4721154464999
 20
91.20816134547132
 30
0.0
 10
-951.3516409540453
 20
91.25440335697971
 30
0.0
 10
-951.1952357630668
 20
91.314436734119
 30
0.0
 10
-951.0486296314035
 20
91.4044424238804
 30
0.0
 10
-950.9198230580878
 20
91.51156598247715
 30
0.0
 10
-950.8466951511487
 20
91.57238369870392
 30
0.0
 10
-950.7799520969023
 20
91.64070869614802
 30
0.0
 10
-950.7146152776631
 20
91.70982877595152
 30
0.0
  0
LINE
  5
EB
330
1F
100
AcDbEntity
  8
0
  6
Continuous
 62
     7
370
    25
100
AcDbLine
 10
-951.9619109507
 20
91.5317438401
 30
0.0
 11
-952.20379797
 21
91.265317558
 31
0.0
  0
SPLINE
  5
EC
330
1F
100
AcDbEntity
  8
0
  6
Continuous
 62
     7
370
    25
100
AcDbSpline
210
0.0
220
0.0
230
1.0
 70
     8
 71
     3
 72
    15
 73
    11
 74
     0
 42
0.00000001
 43
0.00000001
 40
0.0
 40
0.0
 40
0.0
 40
0.0
 40
0.1452789887101914
 40
0.2795059833496107
 40
0.4048123282175485
 40
0.5232758456247928
 40
0.6385373616784631
 40
0.7541698258195312
 40
0.8745206156286475
 40
1.0
 40
1.0
 40
1.0
 40
1.0
 10
-950.9494910789451
 20
91.90193614774638
 30
0.0
 10
-950.9874221868595
 20
91.86200014462634
 30
0.0
 10
-951.0603988210676
 20
91.78516624096127
 30
0.0
 10
-951.1799921709102
 20
91.68847193894483
 30
0.0
 10
-951.3011339628406
 20
91.61154491378821
 30
0.0
 10
-951.4252991338618
 20
91.55476287354347
 30
0.0
 10
-951.5533897496972
 20
91.51946150204245
 30
0.0
 10
-951.6858614491862
 20
91.50307833529118
 30
0.0
 10
-951.823365633526
 20
91.50666506810475
 30
0.0
 10
-951.9150913073695
 20
91.52326878523121
 30
0.0
 10
-951.96191095074
 20
91.53174384005408
 30
0.0
  0
SPLINE
  5
ED
330
1F
100
AcDbEntity
  8
0
  6
Continuous
 62
     7
370
    25
100
AcDbSpline
210
0.0
220
0.0
230
1.0
 70
     8
 71
     3
 72
    20
 73
    16
 74
     0
 42
0.00000001
 43
0.00000001
 40
0.0000000000000119
 40
0.0000000000000119
 40
0.0000000000000119
 40
0.0000000000000119
 40
0.0004647763483021
 40
0.0004647763483021
 40
0.0004647763483021
 40
0.0007031453090448
 40
0.0007031453090448
 40
0.0007031453090448
 40
0.0009406031156557
 40
0.0009406031156557
 40
0.0009406031156557
 40
0.0012733527136707
 40
0.0012733527136707
 40
0.0012733527136707
 40
0.0016823136402671
 40
0.0016823136402671
 40
0.0016823136402671
 40
0.0016823136402671
 10
-951.0630728097144
 20
93.35886723748999
 30
0.0
 10
-950.9491411768532
 20
93.25388401065855
 30
0.0
 10
-950.8363003386152
 20
93.14405045750378
 30
0.0
 10
-950.749853546713
 20
93.01548589375409
 30
0.0
 10
-950.7056250642956
 20
92.94970883688299
 30
0.0
 10
-950.6694635685808
 20
92.87630907563589
 30
0.0
 10
-950.6509527703527
 20
92.7992368353901
 30
0.0
 10
-950.6324270502231
 20
92.72210246576783
 30
0.0
 10
-950.6278486504042
 20
92.64082261762734
 30
0.0
 10
-950.6348134551076
 20
92.56180107133277
 30
0.0
 10
-950.6445494300914
 20
92.45133827579643
 30
0.0
 10
-950.6739180501024
 20
92.3411087233248
 30
0.0
 10
-950.7198618233341
 20
92.24018306698397
 30
0.0
 10
-950.7763230057622
 20
92.11615359588244
 30
0.0
 10
-950.8606058944497
 20
92.00523473825045
 30
0.0
 10
-950.9494910789451
 20
91.90193614774638
 30
0.0
  0
LINE
  5
EE
330
1F
100
AcDbEntity
  8
0
  6
Continuous
 62
     7
370
    25
100
AcDbLine
 10
-951.161229861
 20
93.4479097054
 30
0.0
 11
-951.0630728097
 21
93.3588672375
 31
0.0
  0
SPLINE
  5
EF
330
1F
100
AcDbEntity
  8
0
  6
Continuous
 62
     7
370
    25
100
AcDbSpline
210
0.0
220
0.0
230
1.0
 70
     8
 71
     3
 72
    15
 73
    11
 74
     0
 42
0.00000001
 43
0.00000001
 40
0.0
 40
0.0
 40
0.0
 40
0.0
 40
0.1266198777400004
 40
0.2516628586171201
 40
0.3754398323851204
 40
0.5005716447410873
 40
0.62589641297476
 40
0.7498058363530125
 40
0.8739385367904161
 40
1.0
 40
1.0
 40
1.0
 40
1.0
 10
-951.4900559827912
 20
92.35556194902844
 30
0.0
 10
-951.4575154597006
 20
92.39337548689961
 30
0.0
 10
-951.3928396662313
 20
92.46853164093281
 30
0.0
 10
-951.3138576924624
 20
92.59387965494254
 30
0.0
 10
-951.2464079590424
 20
92.72493921597645
 30
0.0
 10
-951.1966541494737
 20
92.86393996016551
 30
0.0
 10
-951.1613179999581
 20
93.00723000269473
 30
0.0
 10
-951.1429613312138
 20
93.15330505056815
 30
0.0
 10
-951.1416897026155
 20
93.30100312201523
 30
0.0
 10
-951.1546830859289
 20
93.39868981996827
 30
0.0
 10
-951.1612298609964
 20
93.4479097054387
 30
0.0
  0
SPLINE
  5
F0
330
1F
100
AcDbEntity
  8
0
  6
Continuous
 62
     7
370
    25
100
AcDbSpline
210
0.0
220
0.0
230
1.0
 70
     8
 71
     3
 72
    20
 73
    16
 74
     0
 42
0.00000001
 43
0.00000001
 40
0.0
 40
0.0
 40
0.0
 40
0.0
 40
0.0004589237493841
 40
0.0004589237493841
 40
0.0004589237493841
 40
0.0009212055351139
 40
0.0009212055351139
 40
0.0009212055351139
 40
0.0013333233545083
 40
0.0013333233545083
 40
0.0013333233545083
 40
0.0017707350270588
 40
0.0017707350270588
 40
0.0017707350270588
 40
0.0020526089393089
 40
0.0020526089393089
 40
0.0020526089393089
 40
0.0020526089393089
 10
-953.3438220084323
 20
92.25460041056691
 30
0.0
 10
-953.2289128217543
 20
92.15361970993453
 30
0.0
 10
-953.0983476164687
 20
92.0662156221446
 30
0.0
 10
-952.9570679148203
 20
92.00755329193748
 30
0.0
 10
-952.8150102559443
 20
91.94856793738057
 30
0.0
 10
-952.6594323911678
 20
91.91453102051808
 30
0.0
 10
-952.5056377906283
 20
91.91190969597062
 30
0.0
 10
-952.367768595225
 20
91.90955980914114
 30
0.0
 10
-952.2279470411033
 20
91.930300414265
 30
0.0
 10
-952.0962219895893
 20
91.97106740842494
 30
0.0
 10
-951.9564610047414
 20
92.01432140747514
 30
0.0
 10
-951.821379956339
 20
92.07990354469547
 30
0.0
 10
-951.702739744367
 20
92.16551044525096
 30
0.0
 10
-951.6256401472916
 20
92.22114299537871
 30
0.0
 10
-951.5552645491373
 20
92.28637256127284
 30
0.0
 10
-951.4900559827912
 20
92.35556194902844
 30
0.0
  0
SPLINE
  5
F1
330
1F
100
AcDbEntity
  8
0
  6
Continuous
 62
     7
370
    25
100
AcDbSpline
210
0.0
220
0.0
230
1.0
 70
     8
 71
     3
 72
    20
 73
    16
 74
     0
 42
0.00000001
 43
0.00000001
 40
0.0
 40
0.0
 40
0.0
 40
0.0
 40
0.00045723973186
 40
0.00045723973186
 40
0.00045723973186
 40
0.000913137683895
 40
0.000913137683895
 40
0.000913137683895
 40
0.0013902308493994
 40
0.0013902308493994
 40
0.0013902308493994
 40
0.0018288964689634
 40
0.0018288964689634
 40
0.0018288964689634
 40
0.0020790358671453
 40
0.0020790358671453
 40
0.0020790358671453
 40
0.0020790358671453
 10
-953.4398756943298
 20
94.1364113080028
 30
0.0
 10
-953.5404552967306
 20
94.02189693985072
 30
0.0
 10
-953.625981182297
 20
93.89036712563724
 30
0.0
 10
-953.6823582923616
 20
93.74876409462046
 30
0.0
 10
-953.7387418380669
 20
93.60714489913181
 30
0.0
 10
-953.7723421721777
 20
93.4543527193553
 30
0.0
 10
-953.7805775905856
 20
93.30214470826265
 30
0.0
 10
-953.7891571703881
 20
93.14357586415123
 30
0.0
 10
-953.7657847947676
 20
92.98112960076419
 30
0.0
 10
-953.7170226768769
 20
92.83000070421811
 30
0.0
 10
-953.6721047790382
 20
92.69078623550368
 30
0.0
 10
-953.6023811176319
 20
92.55761317196517
 30
0.0
 10
-953.5144580633649
 20
92.44070370967036
 30
0.0
 10
-953.4638714198366
 20
92.37343969861529
 30
0.0
 10
-953.4050689517192
 20
92.31232620744052
 30
0.0
 10
-953.3438220084323
 20
92.25460041056691
 30
0.0
  0
SPLINE
  5
F2
330
1F
100
AcDbEntity
  8
0
  6
Continuous
 62
     7
370
    25
100
AcDbSpline
210
0.0
220
0.0
230
1.0
 70
     8
 71
     3
 72
    15
 73
    11
 74
     0
 42
0.00000001
 43
0.00000001
 40
0.0
 40
0.0
 40
0.0
 40
0.0
 40
0.1464302687929082
 40
0.2822815573021811
 40
0.4099398097761966
 40
0.5301089995435209
 40
0.6462568347075563
 40
0.7623850000823078
 40
0.879690510982467
 40
1.0
 40
1.0
 40
1.0
 40
1.0
 10
-952.3741705661246
 20
94.54726867979767
 30
0.0
 10
-952.4319395194028
 20
94.54825907226886
 30
0.0
 10
-952.543303858412
 20
94.55016830545827
 30
0.0
 10
-952.704330921487
 20
94.53312209281002
 30
0.0
 10
-952.853148205388
 20
94.50435083589826
 30
0.0
 10
-952.9892703326447
 20
94.45770798696361
 30
0.0
 10
-953.1152044480096
 20
94.39828471123708
 30
0.0
 10
-953.2319449191558
 20
94.32456726671447
 30
0.0
 10
-953.3420447632874
 20
94.2383025026584
 30
0.0
 10
-953.4069916931293
 20
94.17066008936133
 30
0.0
 10
-953.4398756943298
 20
94.1364113080028
 30
0.0
  0
LINE
  5
F3
330
1F
100
AcDbEntity
  8
0
  6
Continuous
 62
     7
370
    25
100
AcDbLine
 10
-956.1849290247
 20
91.0118966911
 30
0.0
 11
-954.2778777427
 21
89.2829303449
 31
0.0
  0
LINE
  5
F4
330
1F
100
AcDbEntity
  8
0
  6
Continuous
 62
     7
370
    25
100
AcDbLine
 10
-955.9626734157
 20
91.2572893193
 30
0.0
 11
-956.1849290247
 21
91.0118966911
 31
0.0
  0
LINE
  5
F5
330
1F
100
AcDbEntity
  8
0
  6
Continuous
 62
     7
370
    25
100
AcDbLine
 10
-955.6212271016
 20
90.9480946077
 30
0.0
 11
-955.9626734157
 21
91.2572893193
 31
0.0
  0
SPLINE
  5
F6
330
1F
100
AcDbEntity
  8
0
  6
Continuous
 62
     7
370
    25
100
AcDbSpline
210
0.0
220
0.0
230
1.0
 70
     8
 71
     3
 72
    15
 73
    11
 74
     0
 42
0.00000001
 43
0.00000001
 40
0.0
 40
0.0
 40
0.0
 40
0.0
 40
0.1221211272047675
 40
0.241089233033678
 40
0.3596567210624781
 40
0.4785615779404589
 40
0.6006688444577285
 40
0.72660947390693
 40
0.8598356600406636
 40
1.0
 40
1.0
 40
1.0
 40
1.0
 10
-955.3632142811234
 20
92.01730534490041
 30
0.0
 10
-955.3934152409813
 20
91.98182263475194
 30
0.0
 10
-955.4530374080518
 20
91.91177333557287
 30
0.0
 10
-955.5247564595686
 20
91.79433307185971
 30
0.0
 10
-955.5810737824636
 20
91.67043018013754
 30
0.0
 10
-955.6223266046713
 20
91.53937104665724
 30
0.0
 10
-955.6466885168809
 20
91.40126550933242
 30
0.0
 10
-955.6544248266298
 20
91.25595154417051
 30
0.0
 10
-955.6481690102146
 20
91.10351602873368
 30
0.0
 10
-955.6303584047429
 20
91.00077090941637
 30
0.0
 10
-955.6212271016361
 20
90.94809460772092
 30
0.0
  0
SPLINE
  5
F7
330
1F
100
AcDbEntity
  8
0
  6
Continuous
 62
     7
370
    25
100
AcDbSpline
210
0.0
220
0.0
230
1.0
 70
     8
 71
     3
 72
    23
 73
    19
 74
     0
 42
0.00000001
 43
0.00000001
 40
0.0
 40
0.0
 40
0.0
 40
0.0
 40
0.0688316685768323
 40
0.1329712709599962
 40
0.1924845221361005
 40
0.2473672011889934
 40
0.2982165348880228
 40
0.3446294661798306
 40
0.3868909853811127
 40
0.4252284382984521
 40
0.4967577085582121
 40
0.5667070613721659
 40
0.636586374175796
 40
0.7079705258702216
 40
0.7797379981993263
 40
0.8510252400637297
 40
0.9240450711376651
 40
1.0
 40
1.0
 40
1.0
 40
1.0
 10
-953.7513352747131
 20
91.83641592182349
 30
0.0
 10
-953.7829531144363
 20
91.86465017208982
 30
0.0
 10
-953.844033492406
 20
91.91919402116599
 30
0.0
 10
-953.935147273479
 20
91.99508054718694
 30
0.0
 10
-954.0223225104401
 20
92.06207200543452
 30
0.0
 10
-954.1040184490963
 20
92.12284828572655
 30
0.0
 10
-954.183464928808
 20
92.17262726479868
 30
0.0
 10
-954.2576292168524
 20
92.2160553840634
 30
0.0
 10
-954.3278290282143
 20
92.25076006748664
 30
0.0
 10
-954.4150961794461
 20
92.28509596538551
 30
0.0
 10
-954.5224314854256
 20
92.31379823980868
 30
0.0
 10
-954.6520833668633
 20
92.33014777734527
 30
0.0
 10
-954.7825543455999
 20
92.32443575087753
 30
0.0
 10
-954.9120433371293
 20
92.30089965214226
 30
0.0
 10
-955.0374506341586
 20
92.25800336004939
 30
0.0
 10
-955.1563730670593
 20
92.19724589218819
 30
0.0
 10
-955.2660876955533
 20
92.11627231194095
 30
0.0
 10
-955.3304162857276
 20
92.0507248058059
 30
0.0
 10
-955.3632142811234
 20
92.01730534490041
 30
0.0
  0
LINE
  5
F8
330
1F
100
AcDbEntity
  8
0
  6
Continuous
 62
     7
370
    25
100
AcDbLine
 10
-952.7697647619
 20
90.9466923641
 30
0.0
 11
-953.7513352747
 21
91.8364159218
 31
0.0
  0
LINE
  5
F9
330
1F
100
AcDbEntity
  8
0
  6
Continuous
 62
     7
370
    25
100
AcDbLine
 10
-952.9906181273
 20
90.7027019795
 30
0.0
 11
-952.7697647619
 21
90.9466923641
 31
0.0
  0
LINE
  5
FA
330
1F
100
AcDbEntity
  8
0
  6
Continuous
 62
     7
370
    25
100
AcDbLine
 10
-953.900674217
 20
91.5279223321
 30
0.0
 11
-952.9906181273
 21
90.7027019795
 31
0.0
  0
SPLINE
  5
FB
330
1F
100
AcDbEntity
  8
0
  6
Continuous
 62
     7
370
    25
100
AcDbSpline
210
0.0
220
0.0
230
1.0
 70
     8
 71
     3
 72
    15
 73
    11
 74
     0
 42
0.00000001
 43
0.00000001
 40
0.0
 40
0.0
 40
0.0
 40
0.0
 40
0.0722504668853204
 40
0.1580859018470748
 40
0.2599988970233712
 40
0.3774462549614864
 40
0.5095841931584995
 40
0.6573868345815538
 40
0.8216592944918293
 40
0.9999999999999999
 40
0.9999999999999999
 40
0.9999999999999999
 40
0.9999999999999999
 10
-954.3662190888157
 20
91.89811463977222
 30
0.0
 10
-954.3537592856986
 20
91.89099132697169
 30
0.0
 10
-954.3264969122152
 20
91.87540533318158
 30
0.0
 10
-954.2833912177298
 20
91.84689889222622
 30
0.0
 10
-954.2346156694636
 20
91.81089659520235
 30
0.0
 10
-954.179289087533
 20
91.76830888925906
 30
0.0
 10
-954.1183402299565
 20
91.7181517988167
 30
0.0
 10
-954.0508055824631
 20
91.66137775773785
 30
0.0
 10
-953.9777125607218
 20
91.5969899342467
 30
0.0
 10
-953.927047132808
 20
91.55156658464354
 30
0.0
 10
-953.9006742170208
 20
91.5279223320799
 30
0.0
  0
SPLINE
  5
FC
330
1F
100
AcDbEntity
  8
0
  6
Continuous
 62
     7
370
    25
100
AcDbSpline
210
0.0
220
0.0
230
1.0
 70
     8
 71
     3
 72
    15
 73
    11
 74
     0
 42
0.00000001
 43
0.00000001
 40
0.0
 40
0.0
 40
0.0
 40
0.0
 40
0.1390254643784467
 40
0.2659770962698295
 40
0.3854038114843539
 40
0.5006701666522548
 40
0.6162505042112932
 40
0.7348088330335889
 40
0.8618736588088919
 40
1.0
 40
1.0
 40
1.0
 40
1.0
 10
-955.1823248580464
 20
91.76349925515683
 30
0.0
 10
-955.1530247579376
 20
91.79364573230657
 30
0.0
 10
-955.0969691599055
 20
91.85132057979509
 30
0.0
 10
-955.0022494029264
 20
91.92004618289421
 30
0.0
 10
-954.9035885180624
 20
91.96827645379136
 30
0.0
 10
-954.8006608823279
 20
91.99534182893964
 30
0.0
 10
-954.6947122036803
 20
92.00259409543996
 30
0.0
 10
-954.5860160420007
 20
91.98821140843864
 30
0.0
 10
-954.4745582374745
 20
91.95418639078159
 30
0.0
 10
-954.4033225864556
 20
91.91731783738813
 30
0.0
 10
-954.3662190888157
 20
91.89811463977222
 30
0.0
  0
SPLINE
  5
FD
330
1F
100
AcDbEntity
  8
0
  6
Continuous
 62
     7
370
    25
100
AcDbSpline
210
0.0
220
0.0
230
1.0
 70
     8
 71
     3
 72
    17
 73
    13
 74
     0
 42
0.00000001
 43
0.00000001
 40
0.0
 40
0.0
 40
0.0
 40
0.0
 40
0.0003330365486123
 40
0.0003330365486123
 40
0.0003330365486123
 40
0.000668325994056
 40
0.000668325994056
 40
0.000668325994056
 40
0.000992014970639
 40
0.000992014970639
 40
0.000992014970639
 40
0.001173873433356
 40
0.001173873433356
 40
0.001173873433356
 40
0.001173873433356
 10
-955.2426213324053
 20
90.66834701156708
 30
0.0
 10
-955.3008233196865
 20
90.76287866458478
 30
0.0
 10
-955.3486682206152
 20
90.86631920122232
 30
0.0
 10
-955.3738578970397
 20
90.97443573532956
 30
0.0
 10
-955.3991930535484
 20
91.08317668406704
 30
0.0
 10
-955.4034173933891
 20
91.19821286371841
 30
0.0
 10
-955.3897030183379
 20
91.30902071544655
 30
0.0
 10
-955.376513650128
 20
91.41558667645654
 30
0.0
 10
-955.3424209264933
 20
91.52161404923402
 30
0.0
 10
-955.2900524697436
 20
91.61535735948817
 30
0.0
 10
-955.2602753066351
 20
91.66866062662704
 30
0.0
 10
-955.2224648786523
 20
91.71749168538584
 30
0.0
 10
-955.1823248580464
 20
91.76349925515683
 30
0.0
  0
SPLINE
  5
FE
330
1F
100
AcDbEntity
  8
0
  6
Continuous
 62
     7
370
    25
100
AcDbSpline
210
0.0
220
0.0
230
1.0
 70
     8
 71
     3
 72
    14
 73
    10
 74
     0
 42
0.00000001
 43
0.00000001
 40
0.0000000000000045
 40
0.0000000000000045
 40
0.0000000000000045
 40
0.0000000000000045
 40
0.0001759738241299
 40
0.0001759738241299
 40
0.0001759738241299
 40
0.0003519965858675
 40
0.0003519965858675
 40
0.0003519965858675
 40
0.0007036274886274
 40
0.0007036274886274
 40
0.0007036274886274
 40
0.0007036274886274
 10
-954.7553416849695
 20
90.16283819746451
 30
0.0
 10
-954.7985212362271
 20
90.20254059587734
 30
0.0
 10
-954.8417495774485
 20
90.24219303686054
 30
0.0
 10
-954.8845369924667
 20
90.28231773253052
 30
0.0
 10
-954.9273307841784
 20
90.3224484080636
 30
0.0
 10
-954.969289127884
 20
90.36347350863512
 30
0.0
 10
-955.0107917466702
 20
90.40493810029714
 30
0.0
 10
-955.0935370322762
 20
90.48760756983842
 30
0.0
 10
-955.1750509605085
 20
90.57287309719244
 30
0.0
 10
-955.2426213324053
 20
90.66834701156708
 30
0.0
  0
LINE
  5
FF
330
1F
100
AcDbEntity
  8
0
  6
Continuous
 62
     7
370
    25
100
AcDbLine
 10
-954.0556221337
 20
89.5283229731
 30
0.0
 11
-954.755341685
 21
90.1628381975
 31
0.0
  0
LINE
  5
100
330
1F
100
AcDbEntity
  8
0
  6
Continuous
 62
     7
370
    25
100
AcDbLine
 10
-954.2778777427
 20
89.2829303449
 30
0.0
 11
-954.0556221337
 21
89.5283229731
 31
0.0
  0
LINE
  5
101
330
1F
100
AcDbEntity
  8
0
  6
Continuous
 62
     7
370
    25
100
AcDbLine
 10
-956.6942095119
 20
90.4534283064
 30
0.0
 11
-956.9136606337
 21
90.2115412872
 31
0.0
  0
LINE
  5
102
330
1F
100
AcDbEntity
  8
0
  6
Continuous
 62
     7
370
    25
100
AcDbLine
 10
-954.7871582298
 20
88.7244619603
 30
0.0
 11
-956.6942095119
 21
90.4534283064
 31
0.0
  0
LINE
  5
103
330
1F
100
AcDbEntity
  8
0
  6
Continuous
 62
     7
370
    25
100
AcDbLine
 10
-955.0066093516
 20
88.482574941
 30
0.0
 11
-954.7871582298
 21
88.7244619603
 31
0.0
  0
LINE
  5
104
330
1F
100
AcDbEntity
  8
0
  6
Continuous
 62
     7
370
    25
100
AcDbLine
 10
-955.3347343516
 20
88.7798505821
 30
0.0
 11
-955.0066093516
 21
88.482574941
 31
0.0
  0
SPLINE
  5
105
330
1F
100
AcDbEntity
  8
0
  6
Continuous
 62
     7
370
    25
100
AcDbSpline
210
0.0
220
0.0
230
1.0
 70
     8
 71
     3
 72
    14
 73
    10
 74
     0
 42
0.00000001
 43
0.00000001
 40
0.0
 40
0.0
 40
0.0
 40
0.0
 40
0.0004574181534357
 40
0.0004574181534357
 40
0.0004574181534357
 40
0.0009185265923737
 40
0.0009185265923737
 40
0.0009185265923737
 40
0.0011852649268376
 40
0.0011852649268376
 40
0.0011852649268376
 40
0.0011852649268376
 10
-955.6516414029127
 20
87.67277926797203
 30
0.0
 10
-955.5525653297818
 20
87.7886751756216
 30
0.0
 10
-955.4639470813482
 20
87.91783275227749
 30
0.0
 10
-955.4069685627331
 20
88.05925898072671
 30
0.0
 10
-955.3495803268677
 20
88.20170216726571
 30
0.0
 10
-955.3206310630136
 20
88.3575412923367
 30
0.0
 10
-955.3168357732873
 20
88.51106349523592
 30
0.0
 10
-955.3146166114519
 20
88.60083018978021
 30
0.0
 10
-955.3237877824307
 20
88.69072619286821
 30
0.0
 10
-955.3347343516307
 20
88.77985058207459
 30
0.0
  0
SPLINE
  5
106
330
1F
100
AcDbEntity
  8
0
  6
Continuous
 62
     7
370
    25
100
AcDbSpline
210
0.0
220
0.0
230
1.0
 70
     8
 71
     3
 72
    20
 73
    16
 74
     0
 42
0.00000001
 43
0.00000001
 40
0.0
 40
0.0
 40
0.0
 40
0.0
 40
0.00048742375871
 40
0.00048742375871
 40
0.00048742375871
 40
0.0009817377500011
 40
0.0009817377500011
 40
0.0009817377500011
 40
0.0014199140232817
 40
0.0014199140232817
 40
0.0014199140232817
 40
0.0018938213265115
 40
0.0018938213265115
 40
0.0018938213265115
 40
0.0021031528787126
 40
0.0021031528787126
 40
0.0021031528787126
 40
0.0021031528787126
 10
-957.546773614451
 20
87.60827606284383
 30
0.0
 10
-957.4237740259275
 20
87.50212008140238
 30
0.0
 10
-957.2867271944741
 20
87.40734765312678
 30
0.0
 10
-957.1369179007643
 20
87.34445753712352
 30
0.0
 10
-956.9856417928725
 20
87.28095165081811
 30
0.0
 10
-956.8185823421212
 20
87.2498296561332
 30
0.0
 10
-956.6545488365949
 20
87.2465943077608
 30
0.0
 10
-956.508476758529
 20
87.24371322527398
 30
0.0
 10
-956.3599113910083
 20
87.26238193153321
 30
0.0
 10
-956.2201492845115
 20
87.30494842321839
 30
0.0
 10
-956.069889373524
 20
87.35071216714005
 30
0.0
 10
-955.9266745610034
 20
87.42826450964344
 30
0.0
 10
-955.8045472728409
 20
87.52704348814484
 30
0.0
 10
-955.7498020011467
 20
87.57132255220256
 30
0.0
 10
-955.7001956775051
 20
87.62178747740226
 30
0.0
 10
-955.6516414029127
 20
87.67277926797203
 30
0.0
  0
SPLINE
  5
107
330
1F
100
AcDbEntity
  8
0
  6
Continuous
 62
     7
370
    25
100
AcDbSpline
210
0.0
220
0.0
230
1.0
 70
     8
 71
     3
 72
    20
 73
    16
 74
     0
 42
0.00000001
 43
0.00000001
 40
0.0
 40
0.0
 40
0.0
 40
0.0
 40
0.0004526044769673
 40
0.0004526044769673
 40
0.0004526044769673
 40
0.000909959224482
 40
0.000909959224482
 40
0.000909959224482
 40
0.0013289722355818
 40
0.0013289722355818
 40
0.0013289722355818
 40
0.001826287549846
 40
0.001826287549846
 40
0.001826287549846
 40
0.0020959321262158
 40
0.0020959321262158
 40
0.0020959321262158
 40
0.0020959321262158
 10
-957.6505396400921
 20
89.49779930002332
 30
0.0
 10
-957.7495080168044
 20
89.38392892719655
 30
0.0
 10
-957.8366840630986
 20
89.25610456965963
 30
0.0
 10
-957.8953161709303
 20
89.11709565869356
 30
0.0
 10
-957.9543877593597
 20
88.97704479782081
 30
0.0
 10
-957.9853748274146
 20
88.8230799810467
 30
0.0
 10
-957.9906331249196
 20
88.67117196118559
 30
0.0
 10
-957.995477102282
 20
88.53123331969017
 30
0.0
 10
-957.9808048174125
 20
88.38906716952144
 30
0.0
 10
-957.9457130922841
 20
88.253513274971
 30
0.0
 10
-957.9044236361118
 20
88.09401850611694
 30
0.0
 10
-957.830032593448
 20
87.93996161036152
 30
0.0
 10
-957.7308757712779
 20
87.80838910145515
 30
0.0
 10
-957.676324420125
 20
87.73600418654642
 30
0.0
 10
-957.6122644339898
 20
87.67093688293966
 30
0.0
 10
-957.546773614451
 20
87.60827606284383
 30
0.0
  0
SPLINE
  5
108
330
1F
100
AcDbEntity
  8
0
  6
Continuous
 62
     7
370
    25
100
AcDbSpline
210
0.0
220
0.0
230
1.0
 70
     8
 71
     3
 72
    14
 73
    10
 74
     0
 42
0.00000001
 43
0.00000001
 40
0.0000000000000083
 40
0.0000000000000083
 40
0.0000000000000083
 40
0.0000000000000083
 40
0.0004774652929836
 40
0.0004774652929836
 40
0.0004774652929836
 40
0.0008645830003917
 40
0.0008645830003917
 40
0.0008645830003917
 40
0.0011971514598016
 40
0.0011971514598016
 40
0.0011971514598016
 40
0.0011971514598016
 10
-956.5630997362459
 20
89.89393311412587
 30
0.0
 10
-956.721702717619
 20
89.9071784684484
 30
0.0
 10
-956.8852156064556
 20
89.9068729133876
 30
0.0
 10
-957.0399445635427
 20
89.86959966627481
 30
0.0
 10
-957.165753825478
 20
89.83929299454718
 30
0.0
 10
-957.2878636800572
 20
89.78643868645906
 30
0.0
 10
-957.3966284581068
 20
89.71631958923368
 30
0.0
 10
-957.4904806598842
 20
89.6558144167022
 30
0.0
 10
-957.5729139470891
 20
89.57806986416318
 30
0.0
 10
-957.6505396400921
 20
89.49779930002332
 30
0.0
  0
LINE
  5
109
330
1F
100
AcDbEntity
  8
0
  6
Continuous
 62
     7
370
    25
100
AcDbLine
 10
-956.9136606337
 20
90.2115412872
 30
0.0
 11
-956.5630997362
 21
89.8939331141
 31
0.0
  0
LINE
  5
10A
330
1F
100
AcDbEntity
  8
0
  6
Continuous
 62
     7
370
    25
100
AcDbLine
 10
-959.1140683677
 20
87.7860219918
 30
0.0
 11
-957.2070170857
 21
86.0570556457
 31
0.0
  0
LINE
  5
10B
330
1F
100
AcDbEntity
  8
0
  6
Continuous
 62
     7
370
    25
100
AcDbLine
 10
-958.8897093934
 20
88.0328168636
 30
0.0
 11
-959.1140683677
 21
87.7860219918
 31
0.0
  0
LINE
  5
10C
330
1F
100
AcDbEntity
  8
0
  6
Continuous
 62
     7
370
    25
100
AcDbLine
 10
-956.9826581113
 20
86.3038505175
 30
0.0
 11
-958.8897093934
 21
88.0328168636
 31
0.0
  0
LINE
  5
10D
330
1F
100
AcDbEntity
  8
0
  6
Continuous
 62
     7
370
    25
100
AcDbLine
 10
-957.2070170857
 20
86.0570556457
 30
0.0
 11
-956.9826581113
 21
86.3038505175
 31
0.0
  0
SPLINE
  5
10E
330
1F
100
AcDbEntity
  8
0
  6
Continuous
 62
     7
370
    25
100
AcDbSpline
210
0.0
220
0.0
230
1.0
 70
     8
 71
     3
 72
    20
 73
    16
 74
     0
 42
0.00000001
 43
0.00000001
 40
0.0
 40
0.0
 40
0.0
 40
0.0
 40
0.0001208756232789
 40
0.0001208756232789
 40
0.0001208756232789
 40
0.0002247116161057
 40
0.0002247116161057
 40
0.0002247116161057
 40
0.0003185065096297
 40
0.0003185065096297
 40
0.0003185065096297
 40
0.0004093068562837
 40
0.0004093068562837
 40
0.0004093068562837
 40
0.0004243758662025
 40
0.0004243758662025
 40
0.0004243758662025
 40
0.0004243758662025
 10
-959.787846412613
 20
88.62035692770718
 30
0.0
 10
-959.8131554733532
 20
88.58900590556686
 30
0.0
 10
-959.8360320713186
 20
88.55380421249296
 30
0.0
 10
-959.8473238825154
 20
88.515126956325
 30
0.0
 10
-959.8570931613285
 20
88.48166475148956
 30
0.0
 10
-959.8594547845386
 20
88.44565989351356
 30
0.0
 10
-959.8563469241725
 20
88.41093959448085
 30
0.0
 10
-959.8535388108207
 20
88.3795679999398
 30
0.0
 10
-959.8451485111236
 20
88.3482111345322
 30
0.0
 10
-959.8317496085343
 20
88.31970619015323
 30
0.0
 10
-959.8187970383185
 20
88.29215077723002
 30
0.0
 10
-959.7999187072995
 20
88.26711035543885
 30
0.0
 10
-959.7784284941588
 20
88.24554091882743
 30
0.0
 10
-959.7748158444152
 20
88.24191495108417
 30
0.0
 10
-959.7711647800003
 20
88.2383273927622
 30
0.0
 10
-959.7675138805618
 20
88.23473994052767
 30
0.0
  0
SPLINE
  5
10F
330
1F
100
AcDbEntity
  8
0
  6
Continuous
 62
     7
370
    25
100
AcDbSpline
210
0.0
220
0.0
230
1.0
 70
     8
 71
     3
 72
    20
 73
    16
 74
     0
 42
0.00000001
 43
0.00000001
 40
0.0
 40
0.0
 40
0.0
 40
0.0
 40
0.0001202821491766
 40
0.0001202821491766
 40
0.0001202821491766
 40
0.0002234386012533
 40
0.0002234386012533
 40
0.0002234386012533
 40
0.0003174531209278
 40
0.0003174531209278
 40
0.0003174531209278
 40
0.0004087862024181
 40
0.0004087862024181
 40
0.0004087862024181
 40
0.000426060611959
 40
0.000426060611959
 40
0.000426060611959
 40
0.000426060611959
 10
-959.4001260600489
 20
88.63998833796357
 30
0.0
 10
-959.4312354010721
 20
88.6652814541121
 30
0.0
 10
-959.4660983204682
 20
88.68831919569489
 30
0.0
 10
-959.5045464522982
 20
88.69968906738171
 30
0.0
 10
-959.5377925276556
 20
88.70952058826221
 30
0.0
 10
-959.5735448913628
 20
88.71225641017531
 30
0.0
 10
-959.6080980479511
 20
88.70942097383097
 30
0.0
 10
-959.6396282233841
 20
88.70683360369773
 30
0.0
 10
-959.6713044723322
 20
88.69912622834326
 30
0.0
 10
-959.7000489912684
 20
88.68591263389813
 30
0.0
 10
-959.7279528405331
 20
88.67308548767038
 30
0.0
 10
-959.7531963260686
 20
88.65406607107509
 30
0.0
 10
-959.7752735465115
 20
88.63271760926511
 30
0.0
 10
-959.7794984339699
 20
88.62863218334881
 30
0.0
 10
-959.7836725128976
 20
88.62449443180014
 30
0.0
 10
-959.787846412613
 20
88.62035692770718
 30
0.0
  0
SPLINE
  5
110
330
1F
100
AcDbEntity
  8
0
  6
Continuous
 62
     7
370
    25
100
AcDbSpline
210
0.0
220
0.0
230
1.0
 70
     8
 71
     3
 72
    20
 73
    16
 74
     0
 42
0.00000001
 43
0.00000001
 40
0.0
 40
0.0
 40
0.0
 40
0.0
 40
0.0001043345175511
 40
0.0001043345175511
 40
0.0001043345175511
 40
0.0002102784503328
 40
0.0002102784503328
 40
0.0002102784503328
 40
0.0002994372104955
 40
0.0002994372104955
 40
0.0002994372104955
 40
0.0003824292025231
 40
0.0003824292025231
 40
0.0003824292025231
 40
0.0004259889535108
 40
0.0004259889535108
 40
0.0004259889535108
 40
0.0004259889535108
 10
-959.383299136972
 20
88.25367022898922
 30
0.0
 10
-959.3614217771221
 20
88.28070543584295
 30
0.0
 10
-959.3405623881033
 20
88.30980231482717
 30
0.0
 10
-959.3283641887425
 20
88.34237109153098
 30
0.0
 10
-959.3160018538803
 20
88.37537810443214
 30
0.0
 10
-959.3109327100134
 20
88.41165909633519
 30
0.0
 10
-959.3122822706873
 20
88.44687938750225
 30
0.0
 10
-959.3134265345135
 20
88.4767419241839
 30
0.0
 10
-959.3186958249211
 20
88.50687677832578
 30
0.0
 10
-959.3288189475043
 20
88.53499443871802
 30
0.0
 10
-959.3382302753405
 20
88.56113504086575
 30
0.0
 10
-959.3519369258828
 20
88.58627592824004
 30
0.0
 10
-959.3697342850949
 20
88.60761036466016
 30
0.0
 10
-959.3792164022547
 20
88.61897697378812
 30
0.0
 10
-959.3896857275844
 20
88.62949501594771
 30
0.0
 10
-959.4001260600489
 20
88.63998833796357
 30
0.0
  0
SPLINE
  5
111
330
1F
100
AcDbEntity
  8
0
  6
Continuous
 62
     7
370
    25
100
AcDbSpline
210
0.0
220
0.0
230
1.0
 70
     8
 71
     3
 72
    20
 73
    16
 74
     0
 42
0.00000001
 43
0.00000001
 40
0.0
 40
0.0
 40
0.0
 40
0.0
 40
0.0001156869522091
 40
0.0001156869522091
 40
0.0001156869522091
 40
0.0002169468347778
 40
0.0002169468347778
 40
0.0002169468347778
 40
0.0003094968649794
 40
0.0003094968649794
 40
0.0003094968649794
 40
0.0004009302966611
 40
0.0004009302966611
 40
0.0004009302966611
 40
0.0004221951456685
 40
0.0004221951456685
 40
0.0004221951456685
 40
0.0004221951456685
 10
-959.7675138805618
 20
88.23473994052767
 30
0.0
 10
-959.7377445558362
 20
88.21022791023886
 30
0.0
 10
-959.7043058356277
 20
88.1880757112776
 30
0.0
 10
-959.6674823383303
 20
88.17662659033833
 30
0.0
 10
-959.6350370670567
 20
88.16653874257851
 30
0.0
 10
-959.6000429531782
 20
88.16339807780635
 30
0.0
 10
-959.566141343938
 20
88.16566549734576
 30
0.0
 10
-959.5351169021131
 20
88.16774048514631
 30
0.0
 10
-959.5039271190772
 20
88.17492074604914
 30
0.0
 10
-959.4754032172368
 20
88.18729849175361
 30
0.0
 10
-959.447242500448
 20
88.19951863587055
 30
0.0
 10
-959.4210017161262
 20
88.2172203057424
 30
0.0
 10
-959.3988059764272
 20
88.23842660272018
 30
0.0
 10
-959.3935652312748
 20
88.24343372569037
 30
0.0
 10
-959.3884318685646
 20
88.24855244073747
 30
0.0
 10
-959.383299136972
 20
88.25367022898922
 30
0.0
  0
LINE
  5
112
330
1F
100
AcDbEntity
  8
0
  6
Continuous
 62
     7
370
    25
100
AcDbLine
 10
-960.1598722765
 20
86.6335703724
 30
0.0
 11
-958.2528209945
 21
84.9046040263
 31
0.0
  0
LINE
  5
113
330
1F
100
AcDbEntity
  8
0
  6
Continuous
 62
     7
370
    25
100
AcDbLine
 10
-959.932708815
 20
86.8838708532
 30
0.0
 11
-960.1598722765
 21
86.6335703724
 31
0.0
  0
LINE
  5
114
330
1F
100
AcDbEntity
  8
0
  6
Continuous
 62
     7
370
    25
100
AcDbLine
 10
-959.6543634624
 20
86.6314670071
 30
0.0
 11
-959.932708815
 21
86.8838708532
 31
0.0
  0
SPLINE
  5
115
330
1F
100
AcDbEntity
  8
0
  6
Continuous
 62
     7
370
    25
100
AcDbSpline
210
0.0
220
0.0
230
1.0
 70
     8
 71
     3
 72
    14
 73
    10
 74
     0
 42
0.00000001
 43
0.00000001
 40
0.0
 40
0.0
 40
0.0
 40
0.0
 40
0.00027211082691
 40
0.00027211082691
 40
0.00027211082691
 40
0.0005002017907861
 40
0.0005002017907861
 40
0.0005002017907861
 40
0.0008256672808042
 40
0.0008256672808042
 40
0.0008256672808042
 40
0.0008256672808042
 10
-959.5323682701121
 20
87.42513687884829
 30
0.0
 10
-959.5901516495663
 20
87.35522103129541
 30
0.0
 10
-959.6385884451105
 20
87.27423389602696
 30
0.0
 10
-959.6646962253562
 20
87.18736889449684
 30
0.0
 10
-959.6868412495746
 20
87.11368865264869
 30
0.0
 10
-959.6970576335697
 20
87.03574376005191
 30
0.0
 10
-959.6968286030558
 20
86.95880789272425
 30
0.0
 10
-959.6965010621229
 20
86.84878043248847
 30
0.0
 10
-959.6785972643711
 20
86.7387930156999
 30
0.0
 10
-959.6543634624197
 20
86.6314670070534
 30
0.0
  0
SPLINE
  5
116
330
1F
100
AcDbEntity
  8
0
  6
Continuous
 62
     7
370
    25
100
AcDbSpline
210
0.0
220
0.0
230
1.0
 70
     8
 71
     3
 72
    14
 73
    10
 74
     0
 42
0.00000001
 43
0.00000001
 40
0.0000000000000008
 40
0.0000000000000008
 40
0.0000000000000008
 40
0.0000000000000008
 40
0.0000777870145932
 40
0.0000777870145932
 40
0.0000777870145932
 40
0.0001558160355935
 40
0.0001558160355935
 40
0.0001558160355935
 40
0.0003105683193003
 40
0.0003105683193003
 40
0.0003105683193003
 40
0.0003105683193003
 10
-959.27014871883
 20
87.5835904044893
 30
0.0
 10
-959.2945822200576
 20
87.57491184982737
 30
0.0
 10
-959.3190531444568
 20
87.56622256305084
 30
0.0
 10
-959.3428507994062
 20
87.55592766566578
 30
0.0
 10
-959.3666944026626
 20
87.54561289098163
 30
0.0
 10
-959.3897802712431
 20
87.53348402674979
 30
0.0
 10
-959.4121862508705
 20
87.52033548804899
 30
0.0
 10
-959.456263352496
 20
87.49446964838566
 30
0.0
 10
-959.4964416621505
 20
87.4614839748748
 30
0.0
 10
-959.532368270112
 20
87.42513687884828
 30
0.0
  0
LINE
  5
117
330
1F
100
AcDbEntity
  8
0
  6
Continuous
 62
     7
370
    25
100
AcDbLine
 10
-959.1797040073
 20
87.2680855968
 30
0.0
 11
-959.2701487188
 21
87.5835904045
 31
0.0
  0
SPLINE
  5
118
330
1F
100
AcDbEntity
  8
0
  6
Continuous
 62
     7
370
    25
100
AcDbSpline
210
0.0
220
0.0
230
1.0
 70
     8
 71
     3
 72
    14
 73
    10
 74
     0
 42
0.00000001
 43
0.00000001
 40
0.0
 40
0.0
 40
0.0
 40
0.0
 40
0.0000457112731465
 40
0.0000457112731465
 40
0.0000457112731465
 40
0.0000914007707962
 40
0.0000914007707962
 40
0.0000914007707962
 40
0.0001821230523219
 40
0.0001821230523219
 40
0.0001821230523219
 40
0.0001821230523219
 10
-959.3304451931889
 20
87.16782518013034
 30
0.0
 10
-959.3196885443657
 20
87.17861700341115
 30
0.0
 10
-959.3088268049534
 20
87.18939805261951
 30
0.0
 10
-959.2968817093939
 20
87.19885763166437
 30
0.0
 10
-959.2849269608992
 20
87.20832485507704
 30
0.0
 10
-959.2722190436441
 20
87.21682256254178
 30
0.0
 10
-959.2594509095759
 20
87.22516037299364
 30
0.0
 10
-959.2341744073016
 20
87.2416663623358
 30
0.0
 10
-959.2070962603184
 20
87.25539647840748
 30
0.0
 10
-959.1797040072915
 20
87.26808559679701
 30
0.0
  0
SPLINE
  5
119
330
1F
100
AcDbEntity
  8
0
  6
Continuous
 62
     7
370
    25
100
AcDbSpline
210
0.0
220
0.0
230
1.0
 70
     8
 71
     3
 72
    19
 73
    15
 74
     0
 42
0.00000001
 43
0.00000001
 40
0.0
 40
0.0
 40
0.0
 40
0.0
 40
0.0860043555691705
 40
0.1677134500506089
 40
0.2442607802205545
 40
0.3181176960163384
 40
0.3874640801562257
 40
0.4545570746424781
 40
0.5182016625193162
 40
0.5796922866276183
 40
0.69552941669207
 40
0.8024574097469975
 40
0.9020243424263775
 40
1.0
 40
1.0
 40
1.0
 40
1.0
 10
-959.2883778854966
 20
86.38256876987393
 30
0.0
 10
-959.3009756871945
 20
86.40324496812822
 30
0.0
 10
-959.3255421265551
 20
86.4435647463558
 30
0.0
 10
-959.3578100757562
 20
86.50434325759575
 30
0.0
 10
-959.3846052499291
 20
86.56396195296776
 30
0.0
 10
-959.4072417244681
 20
86.62157539973448
 30
0.0
 10
-959.4242729915638
 20
86.67834203900429
 30
0.0
 10
-959.4361566012548
 20
86.73344749832141
 30
0.0
 10
-959.4433978680539
 20
86.78714130689748
 30
0.0
 10
-959.4461154627171
 20
86.85500291442153
 30
0.0
 10
-959.4389959666581
 20
86.93508177812015
 30
0.0
 10
-959.4177681367552
 20
87.02355681632436
 30
0.0
 10
-959.3828501901091
 20
87.10283468964171
 30
0.0
 10
-959.3478194638851
 20
87.14627833458532
 30
0.0
 10
-959.3304451931889
 20
87.16782518013034
 30
0.0
  0
SPLINE
  5
11A
330
1F
100
AcDbEntity
  8
0
  6
Continuous
 62
     7
370
    25
100
AcDbSpline
210
0.0
220
0.0
230
1.0
 70
     8
 71
     3
 72
    15
 73
    11
 74
     0
 42
0.00000001
 43
0.00000001
 40
0.0
 40
0.0
 40
0.0
 40
0.0
 40
0.1799683266347664
 40
0.3437517889388909
 40
0.4919301155449978
 40
0.6240104934579811
 40
0.7411672471393891
 40
0.8429771833251918
 40
0.929019727575056
 40
1.0
 40
1.0
 40
1.0
 40
1.0
 10
-958.6706895842146
 20
85.7396400839765
 30
0.0
 10
-958.710272132004
 20
85.77577105635534
 30
0.0
 10
-958.7858775002803
 20
85.8447836799851
 30
0.0
 10
-958.8927261289886
 20
85.94501192804424
 30
0.0
 10
-958.9872837052661
 20
86.03746097794499
 30
0.0
 10
-959.070336701131
 20
86.12177443622659
 30
0.0
 10
-959.1420846201379
 20
86.1978381017281
 30
0.0
 10
-959.2016335060359
 20
86.26643696883065
 30
0.0
 10
-959.2499688930666
 20
86.32655541385645
 30
0.0
 10
-959.276420675807
 20
86.36513109705442
 30
0.0
 10
-959.2883778854966
 20
86.38256876987393
 30
0.0
  0
LINE
  5
11B
330
1F
100
AcDbEntity
  8
0
  6
Continuous
 62
     7
370
    25
100
AcDbLine
 10
-958.0256575329
 20
85.1549045071
 30
0.0
 11
-958.6706895842
 21
85.739640084
 31
0.0
  0
LINE
  5
11C
330
1F
100
AcDbEntity
  8
0
  6
Continuous
 62
     7
370
    25
100
AcDbLine
 10
-958.2528209945
 20
84.9046040263
 30
0.0
 11
-958.0256575329
 21
85.1549045071
 31
0.0
  0
LINE
  5
11D
330
1F
100
AcDbEntity
  8
0
  6
Continuous
 62
     7
370
    25
100
AcDbLine
 10
-962.0794438527
 20
85.3640223061
 30
0.0
 11
-961.5564069938
 21
85.9403444215
 31
0.0
  0
LINE
  5
11E
330
1F
100
AcDbEntity
  8
0
  6
Continuous
 62
     7
370
    25
100
AcDbLine
 10
-962.3304454553
 20
85.5918868894
 30
0.0
 11
-962.0794438527
 21
85.3640223061
 31
0.0
  0
LINE
  5
11F
330
1F
100
AcDbEntity
  8
0
  6
Continuous
 62
     7
370
    25
100
AcDbLine
 10
-961.0480936925
 20
87.0060495497
 30
0.0
 11
-962.3304454553
 21
85.5918868894
 31
0.0
  0
LINE
  5
120
330
1F
100
AcDbEntity
  8
0
  6
Continuous
 62
     7
370
    25
100
AcDbLine
 10
-960.7970920899
 20
86.7781849663
 30
0.0
 11
-961.0480936925
 21
87.0060495497
 31
0.0
  0
LINE
  5
121
330
1F
100
AcDbEntity
  8
0
  6
Continuous
 62
     7
370
    25
100
AcDbLine
 10
-961.3187267053
 20
86.2032650945
 30
0.0
 11
-960.7970920899
 21
86.7781849663
 31
0.0
  0
LINE
  5
122
330
1F
100
AcDbEntity
  8
0
  6
Continuous
 62
     7
370
    25
100
AcDbLine
 10
-958.9910023463
 20
84.092888492
 30
0.0
 11
-961.3187267053
 21
86.2032650945
 31
0.0
  0
LINE
  5
123
330
1F
100
AcDbEntity
  8
0
  6
Continuous
 62
     7
370
    25
100
AcDbLine
 10
-959.2286826348
 20
83.8299678189
 30
0.0
 11
-958.9910023463
 21
84.092888492
 31
0.0
  0
LINE
  5
124
330
1F
100
AcDbEntity
  8
0
  6
Continuous
 62
     7
370
    25
100
AcDbLine
 10
-961.5564069938
 20
85.9403444215
 30
0.0
 11
-959.2286826348
 21
83.8299678189
 31
0.0
  0
LINE
  5
125
330
1F
100
AcDbEntity
  8
0
  6
Continuous
 62
     7
370
    25
100
AcDbLine
 10
-951.9913005574
 20
76.0683006256
 30
0.0
 11
-992.4450026609
 21
112.9708437294
 31
0.0
  0
LINE
  5
126
330
1F
100
AcDbEntity
  8
0
  6
Continuous
 62
     7
370
    25
100
AcDbLine
 10
-895.2813812944
 20
137.963119238
 30
0.0
 11
-951.9913005574
 21
76.0683006256
 31
0.0
  0
SPLINE
  5
127
330
1F
100
AcDbEntity
  8
0
  6
Continuous
 62
     7
370
    25
100
AcDbSpline
210
0.0
220
0.0
230
1.0
 70
     8
 71
     3
 72
    10
 73
     6
 74
     0
 42
0.00000001
 43
0.00000001
 40
0.0
 40
0.0
 40
0.0
 40
0.0
 40
0.0937259687166345
 40
0.1562184575879544
 40
0.212175452439282
 40
0.212175452439282
 40
0.212175452439282
 40
0.212175452439282
 10
-936.0403772098197
 20
175.0914859602736
 30
0.0
 10
-930.0382246075346
 20
169.6250889835791
 30
0.0
 10
-920.0340919794546
 20
160.5139310413822
 30
0.0
 10
-906.4480042598508
 20
148.1375405409274
 30
0.0
 10
-898.8640034399417
 20
141.2276193012512
 30
0.0
 10
-895.2813812944033
 20
137.9631192379661
 30
0.0
  0
LINE
  5
128
330
1F
100
AcDbEntity
  8
0
  6
Continuous
 62
     7
370
    25
100
AcDbLine
 10
-936.0403772098
 20
175.0914859603
 30
0.0
 11
-936.0
 21
175.0
 31
0.0
  0
SPLINE
  5
129
330
1F
100
AcDbEntity
  8
0
  6
Continuous
 62
     7
370
    25
100
AcDbSpline
210
0.0
220
0.0
230
1.0
 70
     8
 71
     3
 72
   136
 73
   132
 74
     0
 42
0.00000001
 43
0.00000001
 40
0.0
 40
0.0
 40
0.0
 40
0.0
 40
0.0625
 40
0.0625
 40
0.09375
 40
0.09375
 40
0.109375
 40
0.109375
 40
0.1171875
 40
0.1171875
 40
0.12109375
 40
0.12109375
 40
0.123046875
 40
0.123046875
 40
0.1240234375
 40
0.1240234375
 40
0.12451171875
 40
0.12451171875
 40
0.125
 40
0.125
 40
0.1875
 40
0.1875
 40
0.21875
 40
0.21875
 40
0.234375
 40
0.234375
 40
0.2421875
 40
0.2421875
 40
0.24609375
 40
0.24609375
 40
0.248046875
 40
0.248046875
 40
0.2490234375
 40
0.2490234375
 40
0.25
 40
0.25
 40
0.3125
 40
0.3125
 40
0.34375
 40
0.34375
 40
0.359375
 40
0.359375
 40
0.3671875
 40
0.3671875
 40
0.37109375
 40
0.37109375
 40
0.373046875
 40
0.373046875
 40
0.3740234375
 40
0.3740234375
 40
0.375
 40
0.375
 40
0.40625
 40
0.40625
 40
0.421875
 40
0.421875
 40
0.4296875
 40
0.4296875
 40
0.43359375
 40
0.43359375
 40
0.435546875
 40
0.435546875
 40
0.4365234375
 40
0.4365234375
 40
0.4375
 40
0.4375
 40
0.5
 40
0.5
 40
0.53125
 40
0.53125
 40
0.546875
 40
0.546875
 40
0.5546875
 40
0.5546875
 40
0.55859375
 40
0.55859375
 40
0.560546875
 40
0.560546875
 40
0.5615234375
 40
0.5615234375
 40
0.5625
 40
0.5625
 40
0.59375
 40
0.59375
 40
0.609375
 40
0.609375
 40
0.6171875
 40
0.6171875
 40
0.62109375
 40
0.62109375
 40
0.623046875
 40
0.623046875
 40
0.6240234375
 40
0.6240234375
 40
0.625
 40
0.625
 40
0.6875
 40
0.6875
 40
0.71875
 40
0.71875
 40
0.734375
 40
0.734375
 40
0.7421875
 40
0.7421875
 40
0.74609375
 40
0.74609375
 40
0.748046875
 40
0.748046875
 40
0.7490234375
 40
0.7490234375
 40
0.75
 40
0.75
 40
0.8125
 40
0.8125
 40
0.84375
 40
0.84375
 40
0.859375
 40
0.859375
 40
0.8671875
 40
0.8671875
 40
0.87109375
 40
0.87109375
 40
0.873046875
 40
0.873046875
 40
0.8740234375
 40
0.8740234375
 40
0.87451171875
 40
0.87451171875
 40
0.875
 40
0.875
 40
1.0
 40
1.0
 40
1.0
 40
1.0
 10
-964.3391632920898
 20
143.933738077206
 30
0.0
 10
-962.3093047732744
 20
143.2554202958057
 30
0.0
 10
-960.5398247941083
 20
142.6685482613118
 30
0.0
 10
-958.2761726348338
 20
141.925408829931
 30
0.0
 10
-957.5867165499881
 20
141.7005571228641
 30
0.0
 10
-956.650174375088
 20
141.3975717173536
 30
0.0
 10
-956.3542673088494
 20
141.3022919413651
 30
0.0
 10
-955.9348171975837
 20
141.1679453161549
 30
0.0
 10
-955.7990689085105
 20
141.1245919475469
 30
0.0
 10
-955.6015490969237
 20
141.061705154328
 30
0.0
 10
-955.5367262633986
 20
141.0411000998706
 30
0.0
 10
-955.4410176686167
 20
141.0107283331077
 30
0.0
 10
-955.4093690796071
 20
141.0006937133406
 30
0.0
 10
-955.362277609969
 20
140.9857757374208
 30
0.0
 10
-955.3466440224024
 20
140.9808254044027
 30
0.0
 10
-955.3232889945217
 20
140.9734333933082
 30
0.0
 10
-955.315519877473
 20
140.9709749710155
 30
0.0
 10
-955.3000134278651
 20
140.966069289241
 30
0.0
 10
-955.2983958725504
 20
140.9655572290642
 30
0.0
 10
-953.5128788074921
 20
140.4009400468652
 30
0.0
 10
-951.8640766684405
 20
139.9007878999626
 30
0.0
 10
-949.5751840225357
 20
139.240691916481
 30
0.0
 10
-948.8429382343463
 20
139.0356819614659
 30
0.0
 10
-947.7906471927301
 20
138.7507000881614
 30
0.0
 10
-947.4475631189694
 20
138.6594616402628
 30
0.0
 10
-946.9444564184953
 20
138.5282372332196
 30
0.0
 10
-946.7786740866986
 20
138.4854346416726
 30
0.0
 10
-946.532880441545
 20
138.4226390705532
 30
0.0
 10
-946.4514292019174
 20
138.4019419328803
 30
0.0
 10
-946.3299723056117
 20
138.3712483054212
 30
0.0
 10
-946.2896066673655
 20
138.3610757761099
 30
0.0
 10
-946.2292382007803
 20
138.3459050019055
 30
0.0
 10
-946.2091453770493
 20
138.3408627471311
 30
0.0
 10
-946.169019726515
 20
138.3308075775032
 30
0.0
 10
-946.1579516590796
 20
138.3280347489998
 30
0.0
 10
-944.2750584581348
 20
137.8575432181882
 30
0.0
 10
-942.5665735407591
 20
137.4908702116423
 30
0.0
 10
-940.2220072084881
 20
137.0857309913576
 30
0.0
 10
-939.4768452716966
 20
136.9748296328517
 30
0.0
 10
-938.4136426274576
 20
136.8446951674763
 30
0.0
 10
-938.068331789536
 20
136.8073532744151
 30
0.0
 10
-937.5640005978906
 20
136.7603948279191
 30
0.0
 10
-937.3981627115484
 20
136.7462510779364
 30
0.0
 10
-937.1528146483442
 20
136.7272990512364
 30
0.0
 10
-937.0716000883277
 20
136.721358975382
 30
0.0
 10
-936.9506304398802
 20
136.713014761169
 30
0.0
 10
-936.9104492556606
 20
136.7103276730261
 30
0.0
 10
-936.8503905272255
 20
136.7064385157038
 30
0.0
 10
-936.8304064590629
 20
136.7051657090784
 30
0.0
 10
-936.7905093387023
 20
136.702667254125
 30
0.0
 10
-936.7792691859171
 20
136.701966088347
 30
0.0
 10
-935.8371045461929
 20
136.6449898812763
 30
0.0
 10
-934.9848393711752
 20
136.6377350394004
 30
0.0
 10
-933.7984651402663
 20
136.6988449967849
 30
0.0
 10
-933.4183443185663
 20
136.7312136859461
 30
0.0
 10
-932.8711689689206
 20
136.7977647747374
 30
0.0
 10
-932.692611499523
 20
136.8229481468428
 30
0.0
 10
-932.4305267661523
 20
136.8652227187632
 30
0.0
 10
-932.3441237668166
 20
136.8800641616971
 30
0.0
 10
-932.2159571354942
 20
136.9034512045385
 30
0.0
 10
-932.1734745696671
 20
136.9114343652257
 30
0.0
 10
-932.1101101878468
 20
136.9236903258668
 30
0.0
 10
-932.0890486383933
 20
136.9278225160155
 30
0.0
 10
-932.0470453617933
 20
136.9361806361829
 30
0.0
 10
-932.0332414189252
 20
136.9389460455101
 30
0.0
 10
-930.2119674012644
 20
137.3116118874558
 30
0.0
 10
-928.8267080698892
 20
138.0308682433447
 30
0.0
 10
-927.3581033281631
 20
139.6412082883683
 30
0.0
 10
-926.9658576414603
 20
140.2710956422712
 30
0.0
 10
-926.5234229522143
 20
141.3555876814679
 30
0.0
 10
-926.4002670292671
 20
141.7403618625904
 30
0.0
 10
-926.2520166050484
 20
142.35243838636
 30
0.0
 10
-926.208680373676
 20
142.5622831029641
 30
0.0
 10
-926.1527968916678
 20
142.8857789908917
 30
0.0
 10
-926.1356892085066
 20
142.9950657557045
 30
0.0
 10
-926.1123079000278
 20
143.161178106179
 30
0.0
 10
-926.1048941665786
 20
143.216912590213
 30
0.0
 10
-926.0943436204705
 20
143.3010598670779
 30
0.0
 10
-926.0909217807788
 20
143.3291998845019
 30
0.0
 10
-926.0842681194172
 20
143.385661769621
 30
0.0
 10
-926.0802401612992
 20
143.421194925469
 30
0.0
 10
-926.0029978463415
 20
144.1208445798474
 30
0.0
 10
-925.9814947066479
 20
144.8557296351101
 30
0.0
 10
-926.0293377456877
 20
146.0427125763478
 30
0.0
 10
-926.058635050131
 20
146.4524827831509
 30
0.0
 10
-926.1226054439409
 20
147.0883019329416
 30
0.0
 10
-926.1472663147351
 20
147.3037689561361
 30
0.0
 10
-926.1892637302126
 20
147.6322604508244
 30
0.0
 10
-926.2040972202527
 20
147.7426394423699
 30
0.0
 10
-926.2275989826346
 20
147.9095306696622
 30
0.0
 10
-926.2356414913155
 20
147.9653815354221
 30
0.0
 10
-926.2480181361672
 20
148.0494885190554
 30
0.0
 10
-926.2521958314228
 20
148.077579294432
 30
0.0
 10
-926.2606555158776
 20
148.1338710735166
 30
0.0
 10
-926.2662511915598
 20
148.1706365705061
 30
0.0
 10
-926.4625804212579
 20
149.4505921689672
 30
0.0
 10
-926.7653162609457
 20
150.846586009396
 30
0.0
 10
-927.3835606099935
 20
153.1441715698782
 30
0.0
 10
-927.6169988245955
 20
153.9439658900121
 30
0.0
 10
-928.0081912938773
 20
155.1945560701727
 30
0.0
 10
-928.1454279748677
 20
155.6199025802195
 30
0.0
 10
-928.3615417831982
 20
156.2706470202797
 30
0.0
 10
-928.4352895171158
 20
156.4896826127981
 30
0.0
 10
-928.5484758147035
 20
156.8214171703232
 30
0.0
 10
-928.5866320300179
 20
156.9325255509561
 30
0.0
 10
-928.6445075271673
 20
157.0999834140924
 30
0.0
 10
-928.6639062219134
 20
157.1559352505023
 30
0.0
 10
-928.693164557577
 20
157.2400618281638
 30
0.0
 10
-928.7029440517223
 20
157.2681371578922
 30
0.0
 10
-928.7225564711943
 20
157.3243540916977
 30
0.0
 10
-928.7354363184297
 20
157.3612025277081
 30
0.0
 10
-929.1782630540055
 20
158.6266166334109
 30
0.0
 10
-929.6852794103504
 20
159.9891855788757
 30
0.0
 10
-930.5523074545354
 20
162.2079731206937
 30
0.0
 10
-930.8590673875416
 20
162.9767246552365
 30
0.0
 10
-931.3458331644676
 20
164.1735854879559
 30
0.0
 10
-931.5125260696791
 20
164.5798280206799
 30
0.0
 10
-931.7692218968505
 20
165.2001252024922
 30
0.0
 10
-931.8558965841333
 20
165.4087131602174
 30
0.0
 10
-931.9875727323962
 20
165.7243284424867
 30
0.0
 10
-932.031742134707
 20
165.82998909419
 30
0.0
 10
-932.0984122675077
 20
165.9891634081655
 30
0.0
 10
-932.1207049833304
 20
166.0423354022273
 30
0.0
 10
-932.1542480643981
 20
166.1222642274253
 30
0.0
 10
-932.1654464259761
 20
166.1489356415088
 30
0.0
 10
-932.1822699701769
 20
166.1889854711603
 30
0.0
 10
-932.1878821518826
 20
166.2023425324652
 30
0.0
 10
-932.1991151825721
 20
166.2290708912504
 30
0.0
 10
-932.2072212804449
 20
166.2483528754874
 30
0.0
 10
-933.0141842498747
 20
168.1675591799827
 30
0.0
 10
-934.2773971784842
 20
171.0822856452186
 30
0.0
 10
-936.0000000000066
 20
175.0000000000062
 30
0.0
  0
SPLINE
  5
12A
330
1F
100
AcDbEntity
  8
0
  6
Continuous
 62
     7
370
    25
100
AcDbSpline
210
0.0
220
0.0
230
1.0
 70
     8
 71
     3
 72
    86
 73
    82
 74
     0
 42
0.00000001
 43
0.00000001
 40
0.0
 40
0.0
 40
0.0
 40
0.0
 40
0.1249999989294198
 40
0.1249999989294198
 40
0.1259765614210559
 40
0.1259765614210559
 40
0.126953123912692
 40
0.126953123912692
 40
0.1289062488959641
 40
0.1289062488959641
 40
0.1328124988625085
 40
0.1328124988625085
 40
0.1406249987955973
 40
0.1406249987955973
 40
0.1562499986617747
 40
0.1562499986617747
 40
0.1874999983941297
 40
0.1874999983941297
 40
0.2499999978588396
 40
0.2499999978588396
 40
0.253906247825384
 40
0.253906247825384
 40
0.2578124977919283
 40
0.2578124977919283
 40
0.265624997725017
 40
0.265624997725017
 40
0.2812499975911945
 40
0.2812499975911945
 40
0.3124999973235495
 40
0.3124999973235495
 40
0.3749999967882593
 40
0.3749999967882593
 40
0.3828124967213481
 40
0.3828124967213481
 40
0.3906249966544368
 40
0.3906249966544368
 40
0.4062499965206143
 40
0.4062499965206143
 40
0.4374999962529693
 40
0.4374999962529693
 40
0.4999999957176792
 40
0.4999999957176792
 40
0.624999994647099
 40
0.624999994647099
 40
0.6328124945801877
 40
0.6328124945801877
 40
0.6406249945132765
 40
0.6406249945132765
 40
0.656249994379454
 40
0.656249994379454
 40
0.6874999941118088
 40
0.6874999941118088
 40
0.7499999935765187
 40
0.7499999935765187
 40
0.753906243543063
 40
0.753906243543063
 40
0.7578124935096074
 40
0.7578124935096074
 40
0.7656249934426962
 40
0.7656249934426962
 40
0.7812499933088737
 40
0.7812499933088737
 40
0.8124999930412287
 40
0.8124999930412287
 40
0.8749999925059385
 40
0.8749999925059385
 40
0.8759765549975747
 40
0.8759765549975747
 40
0.8769531174892107
 40
0.8769531174892107
 40
0.878906242472483
 40
0.878906242472483
 40
0.8828124924390273
 40
0.8828124924390273
 40
0.8906249923721159
 40
0.8906249923721159
 40
0.9062499922382934
 40
0.9062499922382934
 40
0.9374999919706484
 40
0.9374999919706484
 40
0.9999999914353583
 40
0.9999999914353583
 40
0.9999999914353583
 40
0.9999999914353583
 10
-992.4450026609015
 20
112.9708437294372
 30
0.0
 10
-990.2647012444714
 20
113.9369085688494
 30
0.0
 10
-988.6051092056371
 20
114.6918439752582
 30
0.0
 10
-987.4573290236092
 20
115.2398984328301
 30
0.0
 10
-987.437644936454
 20
115.2493018920954
 30
0.0
 10
-987.4091026536728
 20
115.2629485253785
 30
0.0
 10
-987.3948446265903
 20
115.2697700691437
 30
0.0
 10
-987.3521098882668
 20
115.2902293818101
 30
0.0
 10
-987.3236725199499
 20
115.3038618320822
 30
0.0
 10
-987.2385177866961
 20
115.3447379083817
 30
0.0
 10
-987.1819577934557
 20
115.3719602598925
 30
0.0
 10
-987.0129073005206
 20
115.4535422163582
 30
0.0
 10
-986.9010462876122
 20
115.5078167232466
 30
0.0
 10
-986.5679811960321
 20
115.6702998516451
 30
0.0
 10
-986.3492950645053
 20
115.7781680808887
 30
0.0
 10
-985.7033084585049
 20
116.1004111995535
 30
0.0
 10
-985.2860797726114
 20
116.3134245199086
 30
0.0
 10
-984.074680869251
 20
116.9470182047096
 30
0.0
 10
-983.3207978061041
 20
117.3621522928912
 30
0.0
 10
-982.5768705201309
 20
117.7955167035431
 30
0.0
 10
-982.5161141316376
 20
117.8310401650415
 30
0.0
 10
-982.4120716431331
 20
117.8921713748967
 30
0.0
 10
-982.3602085131076
 20
117.9227755518192
 30
0.0
 10
-982.2050934657109
 20
118.0147037985715
 30
0.0
 10
-982.1023158910193
 20
118.0761435843859
 30
0.0
 10
-981.7958805376645
 20
118.2609258057681
 30
0.0
 10
-981.5941201297204
 20
118.3847311052746
 30
0.0
 10
-980.9964283887658
 20
118.7579984595493
 30
0.0
 10
-980.6080865386328
 20
119.0093119700728
 30
0.0
 10
-979.4734189197444
 20
119.7706583246641
 30
0.0
 10
-978.7574510824993
 20
120.2880969917529
 30
0.0
 10
-977.9975241628641
 20
120.8813242267591
 30
0.0
 10
-977.8986540568234
 20
120.9592678927895
 30
0.0
 10
-977.7169294023266
 20
121.1041768482263
 30
0.0
 10
-977.6265943368026
 20
121.1769817076052
 30
0.0
 10
-977.3571709254043
 20
121.3964474307231
 30
0.0
 10
-977.1796643647034
 20
121.5441594394437
 30
0.0
 10
-976.653471823295
 20
121.9915000455313
 30
0.0
 10
-976.3111129832815
 20
122.2953332228241
 30
0.0
 10
-975.3093450260177
 20
123.2236510744054
 30
0.0
 10
-974.6752444715438
 20
123.8649540683972
 30
0.0
 10
-972.8741770592279
 20
125.8561363291848
 30
0.0
 10
-971.7774108157577
 20
127.3065196320121
 30
0.0
 10
-970.7168162442665
 20
128.98448980689
 30
0.0
 10
-970.6651155002709
 20
129.0672265499758
 30
0.0
 10
-970.5516373662851
 20
129.2505239808593
 30
0.0
 10
-970.4951018043607
 20
129.3427915552711
 30
0.0
 10
-970.3261056337926
 20
129.6214508554174
 30
0.0
 10
-970.2142555403543
 20
129.8096991580621
 30
0.0
 10
-969.8811473208606
 20
130.3818703736381
 30
0.0
 10
-969.6623312556263
 20
130.7732195942112
 30
0.0
 10
-969.0156513032078
 20
131.9769724864979
 30
0.0
 10
-968.5975556593085
 20
132.8190813887788
 30
0.0
 10
-968.1671673823186
 20
133.7559045074227
 30
0.0
 10
-968.1503277386398
 20
133.7927479472923
 30
0.0
 10
-968.1081342326647
 20
133.8853450789857
 30
0.0
 10
-968.0870251710883
 20
133.9318591432097
 30
0.0
 10
-968.0236610605917
 20
134.0720478310135
 30
0.0
 10
-967.9813690859049
 20
134.1663689497254
 30
0.0
 10
-967.8543454587765
 20
134.4519182863888
 30
0.0
 10
-967.7694661032671
 20
134.6457324848682
 30
0.0
 10
-967.5142372244679
 20
135.2375190024177
 30
0.0
 10
-967.3432968889069
 20
135.645835243599
 30
0.0
 10
-966.8281126331398
 20
136.9121596555881
 30
0.0
 10
-966.481505463849
 20
137.811543514841
 30
0.0
 10
-966.1262823244028
 20
138.7810098249974
 30
0.0
 10
-966.1252169993614
 20
138.783922886447
 30
0.0
 10
-966.1186537404413
 20
138.8018575817086
 30
0.0
 10
-966.1153611065566
 20
138.8108605646943
 30
0.0
 10
-966.1054501916286
 20
138.8379764197166
 30
0.0
 10
-966.0987988973114
 20
138.856196197818
 30
0.0
 10
-966.078712961265
 20
138.9112831563822
 30
0.0
 10
-966.0651462664401
 20
138.9485779611048
 30
0.0
 10
-966.0239179695843
 20
139.0621728723119
 30
0.0
 10
-965.9957281551721
 20
139.1401834758357
 30
0.0
 10
-965.9090458624102
 20
139.3810572745645
 30
0.0
 10
-965.8484405345353
 20
139.5507624579268
 30
0.0
 10
-965.6581731528096
 20
140.0872459606433
 30
0.0
 10
-965.5200597008577
 20
140.4813922326268
 30
0.0
 10
-965.0719137525989
 20
141.7733028590949
 30
0.0
 10
-964.7280756638881
 20
142.7805390240972
 30
0.0
 10
-964.3391634519727
 20
143.9337376031228
 30
0.0
  0
MTEXT
  5
12C
330
1F
100
AcDbEntity
  8
0
  6
Continuous
 62
     7
100
AcDbMText
 10
-992.4450026609
 20
75.0487342339
 30
0.0
 40
4.83362
 41
0.0
 71
     1
 72
     1
  1
SOLIDWORKS Educational Product.
  7
SLDTEXTSTYLE0
 73
     1
 44
1.0
  0
MTEXT
  5
12D
330
1F
100
AcDbEntity
  8
0
  6
Continuous
 62
     7
100
AcDbMText
 10
-992.4450026609
 20
67.7983042339
 30
0.0
 40
4.83362
 41
0.0
 71
     1
 72
     1
  1
For Instructional Use Only.
  7
SLDTEXTSTYLE0
 73
     1
 44
1.0
  0
ENDSEC
  0
SECTION
  2
OBJECTS
  0
DICTIONARY
  5
C
330
0
100
AcDbDictionary
281
     1
  3
ACAD_GROUP
350
D
  3
ACAD_LAYOUT
350
1A
  3
ACAD_MLINESTYLE
350
17
  3
ACAD_PLOTSETTINGS
350
19
  3
ACAD_PLOTSTYLENAME
350
E
  3
ACAD_SCALELIST
350
47
  3
DWGPROPS
350
12E
  0
DICTIONARY
  5
D
102
{ACAD_REACTORS
330
C
102
}
330
C
100
AcDbDictionary
281
     1
  0
DICTIONARY
  5
1A
102
{ACAD_REACTORS
330
C
102
}
330
C
100
AcDbDictionary
281
     1
  3
Layout1
350
1E
  3
Layout2
350
26
  3
Model
350
22
  0
DICTIONARY
  5
17
102
{ACAD_REACTORS
330
C
102
}
330
C
100
AcDbDictionary
281
     1
  3
Standard
350
18
  0
DICTIONARY
  5
19
102
{ACAD_REACTORS
330
C
102
}
330
C
100
AcDbDictionary
281
     1
  0
ACDBDICTIONARYWDFLT
  5
E
102
{ACAD_REACTORS
330
C
102
}
330
C
100
AcDbDictionary
281
     1
  3
Normal
350
F
100
AcDbDictionaryWithDefault
340
F
  0
DICTIONARY
  5
47
102
{ACAD_REACTORS
330
C
102
}
330
C
100
AcDbDictionary
281
     1
  3
A0
350
48
  3
A1
350
49
  3
A2
350
4A
  3
A3
350
4B
  3
A4
350
4C
  3
A5
350
4D
  3
A6
350
4E
  3
A7
350
4F
  3
A8
350
50
  3
A9
350
51
  3
B0
350
52
  3
B1
350
53
  3
B2
350
54
  3
B3
350
55
  3
B4
350
56
  3
B5
350
57
  3
B6
350
58
  0
XRECORD
  5
12E
102
{ACAD_REACTORS
330
C
102
}
330
C
100
AcDbXrecord
280
     1
  1
DWGPROPS COOKIE
  2

  3

  4

  6

  7

  8
Dell
  9

300
=
301
=
302
=
303
=
304
=
305
=
306
=
307
=
308
=
309
=
 40
0.0
 41
2460369.283742824
 42
2460369.283803137
  1

 90
        0
  0
LAYOUT
  5
1E
102
{ACAD_REACTORS
330
1A
102
}
330
1A
100
AcDbPlotSettings
  1

  2
none_device
  4

  6

 40
0.0
 41
0.0
 42
0.0
 43
0.0
 44
0.0
 45
0.0
 46
0.0
 47
0.0
 48
0.0
 49
0.0
140
0.0
141
0.0
142
1.0
143
1.0
 70
   688
 72
     1
 73
     0
 74
     5
  7

 75
    16
147
1.0
148
0.0
149
0.0
100
AcDbLayout
  1
Layout1
 70
     1
 71
     1
 10
0.0
 20
0.0
 11
420.0
 21
297.0
 12
0.0
 22
0.0
 32
0.0
 14
1.0000000000E+20
 24
1.0000000000E+20
 34
1.0000000000E+20
 15
-1.0000000000E+20
 25
-1.0000000000E+20
 35
-1.0000000000E+20
146
0.0
 13
0.0
 23
0.0
 33
0.0
 16
1.0
 26
0.0
 36
0.0
 17
0.0
 27
1.0
 37
0.0
 76
     0
330
1B
  0
LAYOUT
  5
26
102
{ACAD_REACTORS
330
1A
102
}
330
1A
100
AcDbPlotSettings
  1

  2
none_device
  4

  6

 40
0.0
 41
0.0
 42
0.0
 43
0.0
 44
0.0
 45
0.0
 46
0.0
 47
0.0
 48
0.0
 49
0.0
140
0.0
141
0.0
142
1.0
143
1.0
 70
   688
 72
     1
 73
     0
 74
     5
  7

 75
    16
147
1.0
148
0.0
149
0.0
100
AcDbLayout
  1
Layout2
 70
     1
 71
     2
 10
0.0
 20
0.0
 11
0.0
 21
0.0
 12
0.0
 22
0.0
 32
0.0
 14
0.0
 24
0.0
 34
0.0
 15
0.0
 25
0.0
 35
0.0
146
0.0
 13
0.0
 23
0.0
 33
0.0
 16
1.0
 26
0.0
 36
0.0
 17
0.0
 27
1.0
 37
0.0
 76
     0
330
23
  0
LAYOUT
  5
22
102
{ACAD_REACTORS
330
1A
102
}
330
1A
100
AcDbPlotSettings
  1

  2
none_device
  4
ANSI_A_(11.00_x_8.50_Inches)
  6

 40
6.35
 41
19.05
 42
6.35000508
 43
19.05000254
 44
279.4
 45
215.9
 46
2170.6734973524
 47
-182.16350909
 48
0.0
 49
0.0
140
0.0
141
0.0
142
0.0849800981
143
1.0
 70
  1696
 72
     0
 73
     0
 74
     0
  7

 75
     0
147
0.0179189148
148
-1300.4909072572
149
0.0
100
AcDbLayout
  1
Model
 70
     1
 71
     0
 10
0.0
 20
0.0
 11
420.0
 21
297.0
 12
0.0
 22
0.0
 32
0.0
 14
-992.4450026609
 24
76.0683006256
 34
0.0
 15
-895.2813812944
 25
175.0914859603
 35
0.0
146
0.0
 13
0.0
 23
0.0
 33
0.0
 16
1.0
 26
0.0
 36
0.0
 17
0.0
 27
1.0
 37
0.0
 76
     0
330
1F
331
29
  0
MLINESTYLE
  5
18
102
{ACAD_REACTORS
330
17
102
}
330
17
100
AcDbMlineStyle
  2
Standard
 70
     0
  3

 62
   256
 51
90.0
 52
90.0
 71
     2
 49
0.5
 62
   256
  6
BYLAYER
 49
-0.5
 62
   256
  6
BYLAYER
  0
ACDBPLACEHOLDER
  5
F
102
{ACAD_REACTORS
330
E
102
}
330
E
  0
SCALE
  5
48
102
{ACAD_REACTORS
330
47
102
}
330
47
100
AcDbScale
 70
     0
300
1:1
140
1.0
141
1.0
290
     1
  0
SCALE
  5
49
102
{ACAD_REACTORS
330
47
102
}
330
47
100
AcDbScale
 70
     0
300
1:2
140
1.0
141
2.0
290
     0
  0
SCALE
  5
4A
102
{ACAD_REACTORS
330
47
102
}
330
47
100
AcDbScale
 70
     0
300
1:4
140
1.0
141
4.0
290
     0
  0
SCALE
  5
4B
102
{ACAD_REACTORS
330
47
102
}
330
47
100
AcDbScale
 70
     0
300
1:5
140
1.0
141
5.0
290
     0
  0
SCALE
  5
4C
102
{ACAD_REACTORS
330
47
102
}
330
47
100
AcDbScale
 70
     0
300
1:8
140
1.0
141
8.0
290
     0
  0
SCALE
  5
4D
102
{ACAD_REACTORS
330
47
102
}
330
47
100
AcDbScale
 70
     0
300
1:10
140
1.0
141
10.0
290
     0
  0
SCALE
  5
4E
102
{ACAD_REACTORS
330
47
102
}
330
47
100
AcDbScale
 70
     0
300
1:16
140
1.0
141
16.0
290
     0
  0
SCALE
  5
4F
102
{ACAD_REACTORS
330
47
102
}
330
47
100
AcDbScale
 70
     0
300
1:20
140
1.0
141
20.0
290
     0
  0
SCALE
  5
50
102
{ACAD_REACTORS
330
47
102
}
330
47
100
AcDbScale
 70
     0
300
1:30
140
1.0
141
30.0
290
     0
  0
SCALE
  5
51
102
{ACAD_REACTORS
330
47
102
}
330
47
100
AcDbScale
 70
     0
300
1:40
140
1.0
141
40.0
290
     0
  0
SCALE
  5
52
102
{ACAD_REACTORS
330
47
102
}
330
47
100
AcDbScale
 70
     0
300
1:50
140
1.0
141
50.0
290
     0
  0
SCALE
  5
53
102
{ACAD_REACTORS
330
47
102
}
330
47
100
AcDbScale
 70
     0
300
1:100
140
1.0
141
100.0
290
     0
  0
SCALE
  5
54
102
{ACAD_REACTORS
330
47
102
}
330
47
100
AcDbScale
 70
     0
300
2:1
140
2.0
141
1.0
290
     0
  0
SCALE
  5
55
102
{ACAD_REACTORS
330
47
102
}
330
47
100
AcDbScale
 70
     0
300
4:1
140
4.0
141
1.0
290
     0
  0
SCALE
  5
56
102
{ACAD_REACTORS
330
47
102
}
330
47
100
AcDbScale
 70
     0
300
8:1
140
8.0
141
1.0
290
     0
  0
SCALE
  5
57
102
{ACAD_REACTORS
330
47
102
}
330
47
100
AcDbScale
 70
     0
300
10:1
140
10.0
141
1.0
290
     0
  0
SCALE
  5
58
102
{ACAD_REACTORS
330
47
102
}
330
47
100
AcDbScale
 70
     0
300
100:1
140
100.0
141
1.0
290
     0
  0
ENDSEC
  0
EOF
