  0
SECTION
  2
HEADER
  9
$ACADVER
  1
AC1015
  9
$ACADMAINTVER
 70
     6
  9
$DWGCODEPAGE
  3
ANSI_1252
  9
$INSBASE
 10
0.0
 20
0.0
 30
0.0
  9
$EXTMIN
 10
6.4957723885
 20
-83.8668230162
 30
0.0
  9
$EXTMAX
 10
67.3047757415
 20
0.1
 30
0.0
  9
$LIMMIN
 10
0.0
 20
0.0
  9
$LIMMAX
 10
420.0
 20
297.0
  9
$ORTHOMODE
 70
     0
  9
$REGENMODE
 70
     1
  9
$FILLMODE
 70
     1
  9
$QTEXTMODE
 70
     0
  9
$MIRRTEXT
 70
     1
  9
$LTSCALE
 40
1.0
  9
$ATTMODE
 70
     1
  9
$TEXTSIZE
 40
3.5
  9
$TRACEWID
 40
1.0
  9
$TEXTSTYLE
  7
Standard
  9
$CLAYER
  8
0
  9
$CELTYPE
  6
ByLayer
  9
$CECOLOR
 62
   256
  9
$CELTSCALE
 40
1.0
  9
$DISPSILH
 70
     0
  9
$DIMSCALE
 40
1.0
  9
$DIMASZ
 40
3.302
  9
$DIMEXO
 40
0.0
  9
$DIMDLI
 40
3.75
  9
$DIMRND
 40
0.0
  9
$DIMDLE
 40
0.0
  9
$DIMEXE
 40
1.0
  9
$DIMTP
 40
0.0
  9
$DIMTM
 40
0.0
  9
$DIMTXT
 40
3.5
  9
$DIMCEN
 40
2.5
  9
$DIMTSZ
 40
0.0
  9
$DIMTOL
 70
     0
  9
$DIMLIM
 70
     0
  9
$DIMTIH
 70
     1
  9
$DIMTOH
 70
     1
  9
$DIMSE1
 70
     0
  9
$DIMSE2
 70
     0
  9
$DIMTAD
 70
     1
  9
$DIMZIN
 70
     1
  9
$DIMBLK
  1

  9
$DIMASO
 70
     1
  9
$DIMSHO
 70
     1
  9
$DIMPOST
  1

  9
$DIMAPOST
  1

  9
$DIMALT
 70
     0
  9
$DIMALTD
 70
     3
  9
$DIMALTF
 40
0.0393700787
  9
$DIMLFAC
 40
1.0
  9
$DIMTOFL
 70
     1
  9
$DIMTVP
 40
0.0
  9
$DIMTIX
 70
     0
  9
$DIMSOXD
 70
     0
  9
$DIMSAH
 70
     0
  9
$DIMBLK1
  1

  9
$DIMBLK2
  1

  9
$DIMSTYLE
  2
ISO-25
  9
$DIMCLRD
 70
     0
  9
$DIMCLRE
 70
     0
  9
$DIMCLRT
 70
     0
  9
$DIMTFAC
 40
1.0
  9
$DIMGAP
 40
1.524
  9
$DIMJUST
 70
     0
  9
$DIMSD1
 70
     0
  9
$DIMSD2
 70
     0
  9
$DIMTOLJ
 70
     0
  9
$DIMTZIN
 70
     1
  9
$DIMALTZ
 70
     0
  9
$DIMALTTZ
 70
     0
  9
$DIMUPT
 70
     0
  9
$DIMDEC
 70
     2
  9
$DIMTDEC
 70
     2
  9
$DIMALTU
 70
     2
  9
$DIMALTTD
 70
     3
  9
$DIMTXSTY
  7
Standard
  9
$DIMAUNIT
 70
     0
  9
$DIMADEC
 70
     2
  9
$DIMALTRND
 40
0.0
  9
$DIMAZIN
 70
     0
  9
$DIMDSEP
 70
    44
  9
$DIMATFIT
 70
     3
  9
$DIMFRAC
 70
     0
  9
$DIMLDRBLK
  1

  9
$DIMLUNIT
 70
     2
  9
$DIMLWD
 70
    -2
  9
$DIMLWE
 70
    -2
  9
$DIMTMOVE
 70
     0
  9
$LUNITS
 70
     2
  9
$LUPREC
 70
     2
  9
$SKETCHINC
 40
1.0
  9
$FILLETRAD
 40
0.0
  9
$AUNITS
 70
     0
  9
$AUPREC
 70
     2
  9
$MENU
  1
.
  9
$ELEVATION
 40
0.0
  9
$PELEVATION
 40
0.0
  9
$THICKNESS
 40
0.0
  9
$LIMCHECK
 70
     0
  9
$CHAMFERA
 40
0.0
  9
$CHAMFERB
 40
0.0
  9
$CHAMFERC
 40
0.0
  9
$CHAMFERD
 40
0.0
  9
$SKPOLY
 70
     0
  9
$TDCREATE
 40
2460369.094129178
  9
$TDUCREATE
 40
2460369.302462512
  9
$TDUPDATE
 40
2460369.094177708
  9
$TDUUPDATE
 40
2460369.302511042
  9
$TDINDWG
 40
0.0000000116
  9
$TDUSRTIMER
 40
0.0000000116
  9
$USRTIMER
 70
     1
  9
$ANGBASE
 50
0.0
  9
$ANGDIR
 70
     0
  9
$PDMODE
 70
     0
  9
$PDSIZE
 40
-1.0
  9
$PLINEWID
 40
0.0
  9
$SPLFRAME
 70
     0
  9
$SPLINETYPE
 70
     6
  9
$SPLINESEGS
 70
     8
  9
$HANDSEED
  5
115
  9
$SURFTAB1
 70
     6
  9
$SURFTAB2
 70
     6
  9
$SURFTYPE
 70
     6
  9
$SURFU
 70
     6
  9
$SURFV
 70
     6
  9
$UCSBASE
  2

  9
$UCSNAME
  2

  9
$UCSORG
 10
0.0
 20
0.0
 30
0.0
  9
$UCSXDIR
 10
1.0
 20
0.0
 30
0.0
  9
$UCSYDIR
 10
0.0
 20
1.0
 30
0.0
  9
$UCSORTHOREF
  2

  9
$UCSORTHOVIEW
 70
     0
  9
$UCSORGTOP
 10
0.0
 20
0.0
 30
0.0
  9
$UCSORGBOTTOM
 10
0.0
 20
0.0
 30
0.0
  9
$UCSORGLEFT
 10
0.0
 20
0.0
 30
0.0
  9
$UCSORGRIGHT
 10
0.0
 20
0.0
 30
0.0
  9
$UCSORGFRONT
 10
0.0
 20
0.0
 30
0.0
  9
$UCSORGBACK
 10
0.0
 20
0.0
 30
0.0
  9
$PUCSBASE
  2

  9
$PUCSNAME
  2

  9
$PUCSORG
 10
0.0
 20
0.0
 30
0.0
  9
$PUCSXDIR
 10
1.0
 20
0.0
 30
0.0
  9
$PUCSYDIR
 10
0.0
 20
1.0
 30
0.0
  9
$PUCSORTHOREF
  2

  9
$PUCSORTHOVIEW
 70
     0
  9
$PUCSORGTOP
 10
0.0
 20
0.0
 30
0.0
  9
$PUCSORGBOTTOM
 10
0.0
 20
0.0
 30
0.0
  9
$PUCSORGLEFT
 10
0.0
 20
0.0
 30
0.0
  9
$PUCSORGRIGHT
 10
0.0
 20
0.0
 30
0.0
  9
$PUCSORGFRONT
 10
0.0
 20
0.0
 30
0.0
  9
$PUCSORGBACK
 10
0.0
 20
0.0
 30
0.0
  9
$USERI1
 70
     0
  9
$USERI2
 70
     0
  9
$USERI3
 70
     0
  9
$USERI4
 70
     0
  9
$USERI5
 70
     0
  9
$USERR1
 40
0.0
  9
$USERR2
 40
0.0
  9
$USERR3
 40
0.0
  9
$USERR4
 40
0.0
  9
$USERR5
 40
0.0
  9
$WORLDVIEW
 70
     1
  9
$SHADEDGE
 70
     3
  9
$SHADEDIF
 70
    70
  9
$TILEMODE
 70
     1
  9
$MAXACTVP
 70
    64
  9
$PINSBASE
 10
0.0
 20
0.0
 30
0.0
  9
$PLIMCHECK
 70
     0
  9
$PEXTMIN
 10
1.0000000000E+20
 20
1.0000000000E+20
 30
1.0000000000E+20
  9
$PEXTMAX
 10
-1.0000000000E+20
 20
-1.0000000000E+20
 30
-1.0000000000E+20
  9
$PLIMMIN
 10
0.0
 20
0.0
  9
$PLIMMAX
 10
420.0
 20
297.0
  9
$UNITMODE
 70
     0
  9
$VISRETAIN
 70
     1
  9
$PLINEGEN
 70
     0
  9
$PSLTSCALE
 70
     1
  9
$TREEDEPTH
 70
  3020
  9
$CMLSTYLE
  2
Standard
  9
$CMLJUST
 70
     0
  9
$CMLSCALE
 40
20.0
  9
$PROXYGRAPHICS
 70
     1
  9
$MEASUREMENT
 70
     1
  9
$CELWEIGHT
370
    -1
  9
$ENDCAPS
280
     0
  9
$JOINSTYLE
280
     0
  9
$LWDISPLAY
290
     1
  9
$INSUNITS
 70
     4
  9
$HYPERLINKBASE
  1

  9
$STYLESHEET
  1

  9
$XEDIT
290
     1
  9
$CEPSNTYPE
380
     0
  9
$PSTYLEMODE
290
     1
  9
$FINGERPRINTGUID
  2
{e83c1854-91e7-429b-9e1e-56a337b22f2c}
  9
$VERSIONGUID
  2
{FAEB1C32-E019-11D5-929B-00C0DF256EC4}
  9
$EXTNAMES
290
     1
  9
$PSVPSCALE
 40
0.0
  9
$OLESTARTUP
290
     0
  0
ENDSEC
  0
SECTION
  2
CLASSES
  0
CLASS
  1
ACDBDICTIONARYWDFLT
  2
AcDbDictionaryWithDefault
  3
ObjectDBX Classes
 90
        0
280
     0
281
     0
  0
CLASS
  1
VISUALSTYLE
  2
AcDbVisualStyle
  3
ObjectDBX Classes
 90
     4095
280
     0
281
     0
  0
CLASS
  1
MATERIAL
  2
AcDbMaterial
  3
ObjectDBX Classes
 90
     1153
280
     0
281
     0
  0
CLASS
  1
SCALE
  2
AcDbScale
  3
ObjectDBX Classes
 90
     1153
280
     0
281
     0
  0
CLASS
  1
TABLESTYLE
  2
AcDbTableStyle
  3
ObjectDBX Classes
 90
     4095
280
     0
281
     0
  0
CLASS
  1
MLEADERSTYLE
  2
AcDbMLeaderStyle
  3
ACDB_MLEADERSTYLE_CLASS
 90
     4095
280
     0
281
     0
  0
CLASS
  1
SUN
  2
AcDbSun
  3
SCENEOE
 90
     1153
280
     0
281
     0
  0
CLASS
  1
ACDBPLACEHOLDER
  2
AcDbPlaceHolder
  3
ObjectDBX Classes
 90
        0
280
     0
281
     0
  0
CLASS
  1
LAYOUT
  2
AcDbLayout
  3
ObjectDBX Classes
 90
        0
280
     0
281
     0
  0
ENDSEC
  0
SECTION
  2
TABLES
  0
TABLE
  2
VPORT
  5
8
330
0
100
AcDbSymbolTable
 70
     1
  0
VPORT
  5
29
330
8
100
AcDbSymbolTableRecord
100
AcDbViewportTableRecord
  2
*Active
 70
     0
 10
0.0
 20
0.0
 11
1.0
 21
1.0
 12
36.900274065
 22
-41.8834115081
 13
0.0
 23
0.0
 14
10.0
 24
10.0
 15
10.0
 25
10.0
 16
0.0
 26
0.0
 36
1.0
 17
0.0
 27
0.0
 37
0.0
 40
85.6461594765
 41
0.7242027407
 42
50.0
 43
0.0
 44
0.0
 50
0.0
 51
0.0
 71
     0
 72
   100
 73
     1
 74
     3
 75
     0
 76
     0
 77
     0
 78
     0
281
     0
 65
     1
110
0.0
120
0.0
130
0.0
111
1.0
121
0.0
131
0.0
112
0.0
122
1.0
132
0.0
 79
     0
146
0.0
  0
ENDTAB
  0
TABLE
  2
LTYPE
  5
5
330
0
100
AcDbSymbolTable
 70
     6
  0
LTYPE
  5
14
330
5
100
AcDbSymbolTableRecord
100
AcDbLinetypeTableRecord
  2
ByBlock
 70
     0
  3

 72
    65
 73
     0
 40
0.0
  0
LTYPE
  5
15
330
5
100
AcDbSymbolTableRecord
100
AcDbLinetypeTableRecord
  2
ByLayer
 70
     0
  3

 72
    65
 73
     0
 40
0.0
  0
LTYPE
  5
16
330
5
100
AcDbSymbolTableRecord
100
AcDbLinetypeTableRecord
  2
Continuous
 70
     0
  3
Solid line
 72
    65
 73
     0
 40
0.0
  0
LTYPE
  5
5E
330
5
100
AcDbSymbolTableRecord
100
AcDbLinetypeTableRecord
  2
HIDDEN
 70
     0
  3
Hidden __ __ __ __ __ __ __ __ __ __ __ __ __ __
 72
    65
 73
     2
 40
1.905
 49
1.27
 74
     0
 49
-0.635
 74
     0
  0
LTYPE
  5
5F
330
5
100
AcDbSymbolTableRecord
100
AcDbLinetypeTableRecord
  2
PHANTOM
 70
     0
  3
Phantom ______  __  __  ______  __  __  ______
 72
    65
 73
     6
 40
12.7
 49
6.35
 74
     0
 49
-1.27
 74
     0
 49
1.27
 74
     0
 49
-1.27
 74
     0
 49
1.27
 74
     0
 49
-1.27
 74
     0
  0
LTYPE
  5
60
330
5
100
AcDbSymbolTableRecord
100
AcDbLinetypeTableRecord
  2
CENTER
 70
     0
  3
Center ____ _ ____ _ ____ _ ____ _ ____ _ ____
 72
    65
 73
     4
 40
10.16
 49
6.35
 74
     0
 49
-1.27
 74
     0
 49
1.27
 74
     0
 49
-1.27
 74
     0
  0
LTYPE
  5
61
330
5
100
AcDbSymbolTableRecord
100
AcDbLinetypeTableRecord
  2
CENTERX2
 70
     0
  3
Center (2x) ________  __  ________  __  _____
 72
    65
 73
     4
 40
20.32
 49
12.7
 74
     0
 49
-2.54
 74
     0
 49
2.54
 74
     0
 49
-2.54
 74
     0
  0
LTYPE
  5
62
330
5
100
AcDbSymbolTableRecord
100
AcDbLinetypeTableRecord
  2
DOT2
 70
     0
  3
Dot (.5x) ........................................
 72
    65
 73
     2
 40
0.635
 49
0.0
 74
     0
 49
-0.635
 74
     0
  0
ENDTAB
  0
TABLE
  2
LAYER
  5
2
330
0
100
AcDbSymbolTable
 70
     1
  0
LAYER
  5
10
330
2
100
AcDbSymbolTableRecord
100
AcDbLayerTableRecord
  2
0
 70
     0
 62
     7
  6
Continuous
370
    -3
390
F
  0
ENDTAB
  0
TABLE
  2
STYLE
  5
3
330
0
100
AcDbSymbolTable
 70
     2
  0
STYLE
  5
11
330
3
100
AcDbSymbolTableRecord
100
AcDbTextStyleTableRecord
  2
Standard
 70
     0
 40
0.0
 41
1.0
 50
0.0
 71
     0
 42
3.5
  3
txt
  4

  0
STYLE
  5
111
330
3
100
AcDbSymbolTableRecord
100
AcDbTextStyleTableRecord
  2
SLDTEXTSTYLE0
 70
     0
 40
0.0
 41
0.7
 50
0.0
 71
     0
 42
3.5
  3
TXT
  4

  0
ENDTAB
  0
TABLE
  2
VIEW
  5
6
330
0
100
AcDbSymbolTable
 70
     0
  0
ENDTAB
  0
TABLE
  2
UCS
  5
7
330
0
100
AcDbSymbolTable
 70
     0
  0
ENDTAB
  0
TABLE
  2
APPID
  5
9
330
0
100
AcDbSymbolTable
 70
     1
  0
APPID
  5
12
330
9
100
AcDbSymbolTableRecord
100
AcDbRegAppTableRecord
  2
ACAD
 70
     0
  0
ENDTAB
  0
TABLE
  2
DIMSTYLE
  5
A
330
0
100
AcDbSymbolTable
 70
     1
100
AcDbDimStyleTable
  0
DIMSTYLE
105
27
330
A
100
AcDbSymbolTableRecord
100
AcDbDimStyleTableRecord
  2
ISO-25
 70
     0
 41
2.5
 42
0.625
 43
3.75
 44
1.25
 73
     0
 74
     0
 77
     1
 78
     8
140
2.5
141
2.5
143
0.0393700787
147
0.625
171
     3
172
     1
178
     0
271
     2
272
     2
274
     3
278
    44
283
     0
284
     8
340
11
  0
ENDTAB
  0
TABLE
  2
BLOCK_RECORD
  5
1
330
0
100
AcDbSymbolTable
 70
     1
  0
BLOCK_RECORD
  5
1F
330
1
100
AcDbSymbolTableRecord
100
AcDbBlockTableRecord
  2
*Model_Space
340
22
  0
BLOCK_RECORD
  5
1B
330
1
100
AcDbSymbolTableRecord
100
AcDbBlockTableRecord
  2
*Paper_Space
340
1E
  0
BLOCK_RECORD
  5
23
330
1
100
AcDbSymbolTableRecord
100
AcDbBlockTableRecord
  2
*Paper_Space0
340
26
  0
ENDTAB
  0
ENDSEC
  0
SECTION
  2
BLOCKS
  0
BLOCK
  5
20
330
1F
100
AcDbEntity
  8
0
100
AcDbBlockBegin
  2
*Model_Space
 70
     0
 10
0.0
 20
0.0
 30
0.0
  3
*Model_Space
  1

  0
ENDBLK
  5
21
330
1F
100
AcDbEntity
  8
0
100
AcDbBlockEnd
  0
BLOCK
  5
1C
330
1B
100
AcDbEntity
 67
     1
  8
0
100
AcDbBlockBegin
  2
*Paper_Space
 70
     0
 10
0.0
 20
0.0
 30
0.0
  3
*Paper_Space
  1

  0
ENDBLK
  5
1D
330
1B
100
AcDbEntity
 67
     1
  8
0
100
AcDbBlockEnd
  0
BLOCK
  5
24
330
23
100
AcDbEntity
  8
0
100
AcDbBlockBegin
  2
*Paper_Space0
 70
     0
 10
0.0
 20
0.0
 30
0.0
  3
*Paper_Space0
  1

  0
ENDBLK
  5
25
330
23
100
AcDbEntity
  8
0
100
AcDbBlockEnd
  0
ENDSEC
  0
SECTION
  2
ENTITIES
  0
LINE
  5
63
330
1F
100
AcDbEntity
  8
0
  6
Continuous
 62
     7
370
    25
100
AcDbLine
 10
52.169425541
 20
-43.0972917662
 30
0.0
 11
52.5283998999
 21
-43.3027204521
 31
0.0
  0
LINE
  5
64
330
1F
100
AcDbEntity
  8
0
  6
Continuous
 62
     7
370
    25
100
AcDbLine
 10
52.169425541
 20
-42.4501563496
 30
0.0
 11
52.169425541
 21
-43.0972917662
 31
0.0
  0
LINE
  5
65
330
1F
100
AcDbEntity
  8
0
  6
Continuous
 62
     7
370
    25
100
AcDbLine
 10
55.669425541
 20
-42.4501563496
 30
0.0
 11
52.169425541
 21
-42.4501563496
 31
0.0
  0
LINE
  5
66
330
1F
100
AcDbEntity
  8
0
  6
Continuous
 62
     7
370
    25
100
AcDbLine
 10
55.669425541
 20
-42.7642589137
 30
0.0
 11
55.669425541
 21
-42.4501563496
 31
0.0
  0
LINE
  5
67
330
1F
100
AcDbEntity
  8
0
  6
Continuous
 62
     7
370
    25
100
AcDbLine
 10
52.5283998999
 20
-42.7642589137
 30
0.0
 11
55.669425541
 21
-42.7642589137
 31
0.0
  0
LINE
  5
68
330
1F
100
AcDbEntity
  8
0
  6
Continuous
 62
     7
370
    25
100
AcDbLine
 10
52.5283998999
 20
-43.3027204521
 30
0.0
 11
52.5283998999
 21
-42.7642589137
 31
0.0
  0
SPLINE
  5
69
330
1F
100
AcDbEntity
  8
0
  6
Continuous
 62
     7
370
    25
100
AcDbSpline
210
0.0
220
0.0
230
1.0
 70
     8
 71
     3
 72
    14
 73
    10
 74
     0
 42
0.00000001
 43
0.00000001
 40
0.0
 40
0.0
 40
0.0
 40
0.0
 40
0.0000975719408871
 40
0.0000975719408871
 40
0.0000975719408871
 40
0.00019522236348
 40
0.00019522236348
 40
0.00019522236348
 40
0.0003900159448652
 40
0.0003900159448652
 40
0.0003900159448652
 40
0.0003900159448652
 10
52.10071560505619
 20
-45.41169481109142
 30
0.0
 10
52.09187139494947
 20
-45.4429932014951
 30
0.0
 10
52.0830239094533
 20
-45.47430180853053
 30
0.0
 10
52.07516800992604
 20
-45.50586276759218
 30
0.0
 10
52.06730830337214
 20
-45.53743902132652
 30
0.0
 10
52.06058026604452
 20
-45.56930844388305
 30
0.0
 10
52.05471202169618
 20
-45.6013146697661
 30
0.0
 10
52.04303705400088
 20
-45.6649915773812
 30
0.0
 10
52.03682819570255
 20
-45.72980042620864
 30
0.0
 10
52.03481015633823
 20
-45.79450731109141
 30
0.0
  0
LINE
  5
6A
330
1F
100
AcDbEntity
  8
0
  6
Continuous
 62
     7
370
    25
100
AcDbLine
 10
52.4274383615
 20
-45.4116948111
 30
0.0
 11
52.1007156051
 21
-45.4116948111
 31
0.0
  0
SPLINE
  5
6B
330
1F
100
AcDbEntity
  8
0
  6
Continuous
 62
     7
370
    25
100
AcDbSpline
210
0.0
220
0.0
230
1.0
 70
     8
 71
     3
 72
    14
 73
    10
 74
     0
 42
0.00000001
 43
0.00000001
 40
0.0
 40
0.0
 40
0.0
 40
0.0
 40
0.0000827859862018
 40
0.0000827859862018
 40
0.0000827859862018
 40
0.0001656782438585
 40
0.0001656782438585
 40
0.0001656782438585
 40
0.0003299111147394
 40
0.0003299111147394
 40
0.0003299111147394
 40
0.0003299111147394
 10
52.34891272044081
 20
-45.73000410596321
 30
0.0
 10
52.35016669813908
 20
-45.70243728337034
 30
0.0
 10
52.35151888970871
 20
-45.67478057198588
 30
0.0
 10
52.35559944423179
 20
-45.64748860901658
 30
0.0
 10
52.35968600105306
 20
-45.62015650089116
 30
0.0
 10
52.36595336067604
 20
-45.59314285141706
 30
0.0
 10
52.37313760666481
 20
-45.56645707447868
 30
0.0
 10
52.38734981570586
 20
-45.51366603129021
 30
0.0
 10
52.40705280624519
 20
-45.46242261673165
 30
0.0
 10
52.42743836146646
 20
-45.41169481109142
 30
0.0
  0
SPLINE
  5
6C
330
1F
100
AcDbEntity
  8
0
  6
Continuous
 62
     7
370
    25
100
AcDbSpline
210
0.0
220
0.0
230
1.0
 70
     8
 71
     3
 72
    26
 73
    22
 74
     0
 42
0.00000001
 43
0.00000001
 40
0.0
 40
0.0
 40
0.0
 40
0.0
 40
0.0001714341760946
 40
0.0001714341760946
 40
0.0001714341760946
 40
0.000250888255771
 40
0.000250888255771
 40
0.000250888255771
 40
0.0002967415431805
 40
0.0002967415431805
 40
0.0002967415431805
 40
0.0003427135202093
 40
0.0003427135202093
 40
0.0003427135202093
 40
0.000435093640988
 40
0.000435093640988
 40
0.000435093640988
 40
0.0005214408261975
 40
0.0005214408261975
 40
0.0005214408261975
 40
0.000577245491181
 40
0.000577245491181
 40
0.000577245491181
 40
0.000577245491181
 10
52.75696560505624
 20
-45.99292477904014
 30
0.0
 10
52.69982381541133
 20
-45.99350401405732
 30
0.0
 10
52.64260497418158
 20
-45.99282157983536
 30
0.0
 10
52.58557021894586
 20
-45.98927808830427
 30
0.0
 10
52.55912737485871
 20
-45.98763523047673
 30
0.0
 10
52.53273424586588
 20
-45.98507456267635
 30
0.0
 10
52.50643400850327
 20
-45.98187761101408
 30
0.0
 10
52.49146870559942
 20
-45.98005848864893
 30
0.0
 10
52.47665935057941
 20
-45.97551223475894
 30
0.0
 10
52.46310670691582
 20
-45.96890955750562
 30
0.0
 10
52.44954487356188
 20
-45.96230240315093
 30
0.0
 10
52.43707655175803
 20
-45.95307086887071
 30
0.0
 10
52.42646079851435
 20
-45.94235249233058
 30
0.0
 10
52.40518292967172
 20
-45.92086892870662
 30
0.0
 10
52.3874174059146
 20
-45.89521037046273
 30
0.0
 10
52.37504141314639
 20
-45.86762185815291
 30
0.0
 10
52.36342303340042
 20
-45.84172221368434
 30
0.0
 10
52.35593316234519
 20
-45.81365982906738
 30
0.0
 10
52.35262138940922
 20
-45.78546744549413
 30
0.0
 10
52.35045963543528
 20
-45.767064916576
 30
0.0
 10
52.34968205173477
 20
-45.7485171926909
 30
0.0
 10
52.34891272044084
 20
-45.73000410596322
 30
0.0
  0
LINE
  5
6D
330
1F
100
AcDbEntity
  8
0
  6
Continuous
 62
     7
370
    25
100
AcDbLine
 10
53.1117332333
 20
-45.992924779
 30
0.0
 11
52.7569656051
 21
-45.992924779
 31
0.0
  0
LINE
  5
6E
330
1F
100
AcDbEntity
  8
0
  6
Continuous
 62
     7
370
    25
100
AcDbLine
 10
53.1117332333
 20
-45.456566606
 30
0.0
 11
53.1117332333
 21
-45.992924779
 31
0.0
  0
LINE
  5
6F
330
1F
100
AcDbEntity
  8
0
  6
Continuous
 62
     7
370
    25
100
AcDbLine
 10
53.4258357974
 20
-45.456566606
 30
0.0
 11
53.1117332333
 21
-45.456566606
 31
0.0
  0
LINE
  5
70
330
1F
100
AcDbEntity
  8
0
  6
Continuous
 62
     7
370
    25
100
AcDbLine
 10
53.4258357974
 20
-45.9936259008
 30
0.0
 11
53.4258357974
 21
-45.456566606
 31
0.0
  0
LINE
  5
71
330
1F
100
AcDbEntity
  8
0
  6
Continuous
 62
     7
370
    25
100
AcDbLine
 10
55.669425541
 20
-45.9950281444
 30
0.0
 11
53.4258357974
 21
-45.9936259008
 31
0.0
  0
LINE
  5
72
330
1F
100
AcDbEntity
  8
0
  6
Continuous
 62
     7
370
    25
100
AcDbLine
 10
55.669425541
 20
-46.3091307085
 30
0.0
 11
55.669425541
 21
-45.9950281444
 31
0.0
  0
LINE
  5
73
330
1F
100
AcDbEntity
  8
0
  6
Continuous
 62
     7
370
    25
100
AcDbLine
 10
53.4258357974
 20
-46.3091307085
 30
0.0
 11
55.669425541
 21
-46.3091307085
 31
0.0
  0
LINE
  5
74
330
1F
100
AcDbEntity
  8
0
  6
Continuous
 62
     7
370
    25
100
AcDbLine
 10
53.4258357974
 20
-46.6681050675
 30
0.0
 11
53.4258357974
 21
-46.3091307085
 31
0.0
  0
LINE
  5
75
330
1F
100
AcDbEntity
  8
0
  6
Continuous
 62
     7
370
    25
100
AcDbLine
 10
53.1117332333
 20
-46.6681050675
 30
0.0
 11
53.4258357974
 21
-46.6681050675
 31
0.0
  0
LINE
  5
76
330
1F
100
AcDbEntity
  8
0
  6
Continuous
 62
     7
370
    25
100
AcDbLine
 10
53.1117332333
 20
-46.3091307085
 30
0.0
 11
53.1117332333
 21
-46.6681050675
 31
0.0
  0
LINE
  5
77
330
1F
100
AcDbEntity
  8
0
  6
Continuous
 62
     7
370
    25
100
AcDbLine
 10
52.7029792269
 20
-46.3091307085
 30
0.0
 11
53.1117332333
 21
-46.3091307085
 31
0.0
  0
SPLINE
  5
78
330
1F
100
AcDbEntity
  8
0
  6
Continuous
 62
     7
370
    25
100
AcDbSpline
210
0.0
220
0.0
230
1.0
 70
     8
 71
     3
 72
    20
 73
    16
 74
     0
 42
0.00000001
 43
0.00000001
 40
0.0
 40
0.0
 40
0.0
 40
0.0
 40
0.0002172912035177
 40
0.0002172912035177
 40
0.0002172912035177
 40
0.000368361330388
 40
0.000368361330388
 40
0.000368361330388
 40
0.0005201466707745
 40
0.0005201466707745
 40
0.0005201466707745
 40
0.0006575367833304
 40
0.0006575367833304
 40
0.0006575367833304
 40
0.0009661993665611
 40
0.0009661993665611
 40
0.0009661993665611
 40
0.0009661993665611
 10
52.03481015633826
 20
-45.79450731109141
 30
0.0
 10
52.03747318659038
 20
-45.86688874022827
 30
0.0
 10
52.04489757825523
 20
-45.94105871129207
 30
0.0
 10
52.07033741131814
 20
-46.00887447574066
 30
0.0
 10
52.08813940753257
 20
-46.05632981788081
 30
0.0
 10
52.11327296355578
 20
-46.10193571803812
 30
0.0
 10
52.1455131798986
 20
-46.14104440015632
 30
0.0
 10
52.17786742526659
 20
-46.18029140407882
 30
0.0
 10
52.21756898289598
 20
-46.21484261646242
 30
0.0
 10
52.2619882937356
 20
-46.23962263532352
 30
0.0
 10
52.30234582427362
 20
-46.2621367254572
 30
0.0
 10
52.34771538890315
 20
-46.27555509035362
 30
0.0
 10
52.39289435131075
 20
-46.28527496079772
 30
0.0
 10
52.49424244527637
 20
-46.30707914333328
 30
0.0
 10
52.5993122203961
 20
-46.3090292236621
 30
0.0
 10
52.70297922685105
 20
-46.30913070852731
 30
0.0
  0
LINE
  5
79
330
1F
100
AcDbEntity
  8
0
  6
Continuous
 62
     7
370
    25
100
AcDbLine
 10
53.1117332333
 20
-49.4501563496
 30
0.0
 11
55.669425541
 21
-49.4501563496
 31
0.0
  0
LINE
  5
7A
330
1F
100
AcDbEntity
  8
0
  6
Continuous
 62
     7
370
    25
100
AcDbLine
 10
53.1117332333
 20
-49.1360537855
 30
0.0
 11
53.1117332333
 21
-49.4501563496
 31
0.0
  0
LINE
  5
7B
330
1F
100
AcDbEntity
  8
0
  6
Continuous
 62
     7
370
    25
100
AcDbLine
 10
53.5730713743
 20
-49.1360537855
 30
0.0
 11
53.1117332333
 21
-49.1360537855
 31
0.0
  0
SPLINE
  5
7C
330
1F
100
AcDbEntity
  8
0
  6
Continuous
 62
     7
370
    25
100
AcDbSpline
210
0.0
220
0.0
230
1.0
 70
     8
 71
     3
 72
    15
 73
    11
 74
     0
 42
0.00000001
 43
0.00000001
 40
0.0
 40
0.0
 40
0.0
 40
0.0
 40
0.1231470272446715
 40
0.2434245045450505
 40
0.361909908702546
 40
0.4800966573296744
 40
0.6010447854806813
 40
0.7268458604273167
 40
0.8590162698161794
 40
1.0
 40
1.0
 40
1.0
 40
1.0
 10
53.06686143838954
 20
-48.16289673416833
 30
0.0
 10
53.06837389145236
 20
-48.20972476996892
 30
0.0
 10
53.0713635546679
 20
-48.30228966307778
 30
0.0
 10
53.09425253981273
 20
-48.43840102505737
 30
0.0
 10
53.13240299272423
 20
-48.56889174765602
 30
0.0
 10
53.18530759504758
 20
-48.69446811425872
 30
0.0
 10
53.25525923911096
 20
-48.81477380359053
 30
0.0
 10
53.34410294441519
 20
-48.92857084465699
 30
0.0
 10
53.4499751371294
 20
-49.0377074810218
 30
0.0
 10
53.53116608632993
 20
-49.10257404389405
 30
0.0
 10
53.57307137428696
 20
-49.13605378545038
 30
0.0
  0
SPLINE
  5
7D
330
1F
100
AcDbEntity
  8
0
  6
Continuous
 62
     7
370
    25
100
AcDbSpline
210
0.0
220
0.0
230
1.0
 70
     8
 71
     3
 72
    23
 73
    19
 74
     0
 42
0.00000001
 43
0.00000001
 40
0.0
 40
0.0
 40
0.0
 40
0.0
 40
0.0005585084702577
 40
0.0005585084702577
 40
0.0005585084702577
 40
0.0008676598358564
 40
0.0008676598358564
 40
0.0008676598358564
 40
0.0011793330965321
 40
0.0011793330965321
 40
0.0011793330965321
 40
0.001468885543749
 40
0.001468885543749
 40
0.001468885543749
 40
0.0017693096243332
 40
0.0017693096243332
 40
0.0017693096243332
 40
0.0018345679513294
 40
0.0018345679513294
 40
0.0018345679513294
 40
0.0018345679513294
 10
54.36323563710751
 20
-47.2065666059632
 30
0.0
 10
54.17706695485158
 20
-47.20711504551947
 30
0.0
 10
53.9890449658465
 20
-47.21494751304371
 30
0.0
 10
53.8065635645589
 20
-47.25182050075772
 30
0.0
 10
53.70589617579302
 20
-47.27216179232482
 30
0.0
 10
53.60580391458561
 20
-47.30492434219545
 30
0.0
 10
53.51643935521269
 20
-47.35553725390427
 30
0.0
 10
53.4265104458678
 20
-47.40646979338841
 30
0.0
 10
53.34490959471194
 20
-47.47524544732966
 30
0.0
 10
53.27880574777005
 20
-47.55469111262202
 30
0.0
 10
53.21718239041123
 20
-47.62875198576943
 30
0.0
 10
53.1662769289544
 20
-47.71352240967852
 30
0.0
 10
53.1314930824559
 20
-47.80336969748564
 30
0.0
 10
53.09538001151429
 20
-47.89665039542772
 30
0.0
 10
53.07494874806948
 20
-47.99711018693536
 30
0.0
 10
53.06956933843404
 20
-48.09699264011593
 30
0.0
 10
53.06838691262988
 20
-48.11894738943376
 30
0.0
 10
53.06762428065345
 20
-48.14092340442358
 30
0.0
 10
53.06686143838954
 20
-48.16289673416833
 30
0.0
  0
LINE
  5
7E
330
1F
100
AcDbEntity
  8
0
  6
Continuous
 62
     7
370
    25
100
AcDbLine
 10
55.669425541
 20
-47.206566606
 30
0.0
 11
54.3632356371
 21
-47.206566606
 31
0.0
  0
LINE
  5
7F
330
1F
100
AcDbEntity
  8
0
  6
Continuous
 62
     7
370
    25
100
AcDbLine
 10
55.669425541
 20
-47.5206691701
 30
0.0
 11
55.669425541
 21
-47.206566606
 31
0.0
  0
LINE
  5
80
330
1F
100
AcDbEntity
  8
0
  6
Continuous
 62
     7
370
    25
100
AcDbLine
 10
54.466300541
 20
-47.5206691701
 30
0.0
 11
55.669425541
 21
-47.5206691701
 31
0.0
  0
SPLINE
  5
81
330
1F
100
AcDbEntity
  8
0
  6
Continuous
 62
     7
370
    25
100
AcDbSpline
210
0.0
220
0.0
230
1.0
 70
     8
 71
     3
 72
    14
 73
    10
 74
     0
 42
0.00000001
 43
0.00000001
 40
0.0
 40
0.0
 40
0.0
 40
0.0
 40
0.0001464416022755
 40
0.0001464416022755
 40
0.0001464416022755
 40
0.0002924544292714
 40
0.0002924544292714
 40
0.0002924544292714
 40
0.0005834541683151
 40
0.0005834541683151
 40
0.0005834541683151
 40
0.0005834541683151
 10
53.88436945121008
 20
-47.55782862519396
 30
0.0
 10
53.93206730620773
 20
-47.54745036514584
 30
0.0
 10
53.98056278759816
 20
-47.54050266107131
 30
0.0
 10
54.02915794492566
 20
-47.53588699889595
 30
0.0
 10
54.07767008248579
 20
-47.53127922209891
 30
0.0
 10
54.12631811671218
 20
-47.52795145989922
 30
0.0
 10
54.17500127925767
 20
-47.52580465244715
 30
0.0
 10
54.27202183446963
 20
-47.52152628514226
 30
0.0
 10
54.36918718126172
 20
-47.52120576095673
 30
0.0
 10
54.46630054095361
 20
-47.52066917006576
 30
0.0
  0
SPLINE
  5
82
330
1F
100
AcDbEntity
  8
0
  6
Continuous
 62
     7
370
    25
100
AcDbSpline
210
0.0
220
0.0
230
1.0
 70
     8
 71
     3
 72
    20
 73
    16
 74
     0
 42
0.00000001
 43
0.00000001
 40
0.0
 40
0.0
 40
0.0
 40
0.0
 40
0.0002774871188346
 40
0.0002774871188346
 40
0.0002774871188346
 40
0.0004625107398751
 40
0.0004625107398751
 40
0.0004625107398751
 40
0.0006482892223343
 40
0.0006482892223343
 40
0.0006482892223343
 40
0.0008720287877026
 40
0.0008720287877026
 40
0.0008720287877026
 40
0.0009030745470924
 40
0.0009030745470924
 40
0.0009030745470924
 40
0.0009030745470924
 10
53.38096400249212
 20
-48.21758423416833
 30
0.0
 10
53.38370503913151
 20
-48.12512915103039
 30
0.0
 10
53.39251930785991
 20
-48.03070632925665
 30
0.0
 10
53.42259994912782
 20
-47.94323855975946
 30
0.0
 10
53.44273442009395
 20
-47.88469202646824
 30
0.0
 10
53.47205721306794
 20
-47.82829522313111
 30
0.0
 10
53.50991184569278
 20
-47.77930420078678
 30
0.0
 10
53.54787588742149
 20
-47.73017158246122
 30
0.0
 10
53.59553638845816
 20
-47.68760567134657
 30
0.0
 10
53.64776548496461
 20
-47.65402883221569
 30
0.0
 10
53.71064998730971
 20
-47.61360188707783
 30
0.0
 10
53.78191692016934
 20
-47.58568060174857
 30
0.0
 10
53.85403084718953
 20
-47.56597324124308
 30
0.0
 10
53.86413141245122
 20
-47.56321294944998
 30
0.0
 10
53.87425051156722
 20
-47.56052077858737
 30
0.0
 10
53.88436945121011
 20
-47.55782862519396
 30
0.0
  0
SPLINE
  5
83
330
1F
100
AcDbEntity
  8
0
  6
Continuous
 62
     7
370
    25
100
AcDbSpline
210
0.0
220
0.0
230
1.0
 70
     8
 71
     3
 72
    17
 73
    13
 74
     0
 42
0.00000001
 43
0.00000001
 40
0.0
 40
0.0
 40
0.0
 40
0.0
 40
0.0003168232445691
 40
0.0003168232445691
 40
0.0003168232445691
 40
0.0006333052918332
 40
0.0006333052918332
 40
0.0006333052918332
 40
0.0009629091141146
 40
0.0009629091141146
 40
0.0009629091141146
 40
0.001176438537634
 40
0.001176438537634
 40
0.001176438537634
 40
0.001176438537634
 10
54.05824765633827
 20
-49.08767638160423
 30
0.0
 10
53.95685356803961
 20
-49.05814275101491
 30
0.0
 10
53.85721831663778
 20
-49.01484528436225
 30
0.0
 10
53.77121076449839
 20
-48.9535615389424
 30
0.0
 10
53.68504296737431
 20
-48.8921636127024
 30
0.0
 10
53.60848217764855
 20
-48.8151233457459
 30
0.0
 10
53.54652589660006
 20
-48.72935613845539
 30
0.0
 10
53.48228010949796
 20
-48.64041952627221
 30
0.0
 10
53.43316209744453
 20
-48.5379414500364
 30
0.0
 10
53.40635303742378
 20
-48.43155293351422
 30
0.0
 10
53.38880279521341
 20
-48.36190691713316
 30
0.0
 10
53.38229723137941
 20
-48.28939510451625
 30
0.0
 10
53.38096400249212
 20
-48.21758423416833
 30
0.0
  0
SPLINE
  5
84
330
1F
100
AcDbEntity
  8
0
  6
Continuous
 62
     7
370
    25
100
AcDbSpline
210
0.0
220
0.0
230
1.0
 70
     8
 71
     3
 72
    15
 73
    11
 74
     0
 42
0.00000001
 43
0.00000001
 40
0.0
 40
0.0
 40
0.0
 40
0.0
 40
0.1739063874847022
 40
0.3336012413919182
 40
0.4791571975344098
 40
0.6105404974279276
 40
0.7289476063657623
 40
0.8323849228167827
 40
0.9230045452829352
 40
1.0
 40
1.0
 40
1.0
 40
1.0
 10
54.74464589351777
 20
-49.13605378545038
 30
0.0
 10
54.70468213923255
 20
-49.13590138124816
 30
0.0
 10
54.62802044650783
 20
-49.13560902723059
 30
0.0
 10
54.51790695815162
 20
-49.13389996616421
 30
0.0
 10
54.41767112034776
 20
-49.12920556939056
 30
0.0
 10
54.32691324523023
 20
-49.12490015291998
 30
0.0
 10
54.24602092817435
 20
-49.11786319430141
 30
0.0
 10
54.17471095318213
 20
-49.10945561889972
 30
0.0
 10
54.11306653379764
 20
-49.10019243904087
 30
0.0
 10
54.07550285939219
 20
-49.09161603017991
 30
0.0
 10
54.0582476563383
 20
-49.08767638160423
 30
0.0
  0
LINE
  5
85
330
1F
100
AcDbEntity
  8
0
  6
Continuous
 62
     7
370
    25
100
AcDbLine
 10
55.669425541
 20
-49.1360537855
 30
0.0
 11
54.7446458935
 21
-49.1360537855
 31
0.0
  0
LINE
  5
86
330
1F
100
AcDbEntity
  8
0
  6
Continuous
 62
     7
370
    25
100
AcDbLine
 10
55.669425541
 20
-49.4501563496
 30
0.0
 11
55.669425541
 21
-49.1360537855
 31
0.0
  0
LINE
  5
87
330
1F
100
AcDbEntity
  8
0
  6
Continuous
 62
     7
370
    25
100
AcDbLine
 10
52.169425541
 20
-50.4373358367
 30
0.0
 11
55.669425541
 21
-50.4373358367
 31
0.0
  0
LINE
  5
88
330
1F
100
AcDbEntity
  8
0
  6
Continuous
 62
     7
370
    25
100
AcDbLine
 10
52.169425541
 20
-50.1232332726
 30
0.0
 11
52.169425541
 21
-50.4373358367
 31
0.0
  0
LINE
  5
89
330
1F
100
AcDbEntity
  8
0
  6
Continuous
 62
     7
370
    25
100
AcDbLine
 10
55.669425541
 20
-50.1232332726
 30
0.0
 11
52.169425541
 21
-50.1232332726
 31
0.0
  0
LINE
  5
8A
330
1F
100
AcDbEntity
  8
0
  6
Continuous
 62
     7
370
    25
100
AcDbLine
 10
55.669425541
 20
-50.4373358367
 30
0.0
 11
55.669425541
 21
-50.1232332726
 31
0.0
  0
LINE
  5
8B
330
1F
100
AcDbEntity
  8
0
  6
Continuous
 62
     7
370
    25
100
AcDbLine
 10
53.1117332333
 20
-54.8347717342
 30
0.0
 11
55.669425541
 21
-54.8347717342
 31
0.0
  0
LINE
  5
8C
330
1F
100
AcDbEntity
  8
0
  6
Continuous
 62
     7
370
    25
100
AcDbLine
 10
53.1117332333
 20
-54.5206691701
 30
0.0
 11
53.1117332333
 21
-54.8347717342
 31
0.0
  0
LINE
  5
8D
330
1F
100
AcDbEntity
  8
0
  6
Continuous
 62
     7
370
    25
100
AcDbLine
 10
53.5730713743
 20
-54.5206691701
 30
0.0
 11
53.1117332333
 21
-54.5206691701
 31
0.0
  0
SPLINE
  5
8E
330
1F
100
AcDbEntity
  8
0
  6
Continuous
 62
     7
370
    25
100
AcDbSpline
210
0.0
220
0.0
230
1.0
 70
     8
 71
     3
 72
    14
 73
    10
 74
     0
 42
0.00000001
 43
0.00000001
 40
0.0
 40
0.0
 40
0.0
 40
0.0
 40
0.0004254268960455
 40
0.0004254268960455
 40
0.0004254268960455
 40
0.0008562480634307
 40
0.0008562480634307
 40
0.0008562480634307
 40
0.0011341188874536
 40
0.0011341188874536
 40
0.0011341188874536
 40
0.0011341188874536
 10
53.06686143838959
 20
-53.54751211878374
 30
0.0
 10
53.07143920082047
 20
-53.68924717705917
 30
0.0
 10
53.09070897860546
 20
-53.83361812463353
 30
0.0
 10
53.1398979566127
 20
-53.96662273769569
 30
0.0
 10
53.18956468917543
 20
-54.10091917592613
 30
0.0
 10
53.26855523318208
 20
-54.22660757445766
 30
0.0
 10
53.36487548601179
 20
-54.33255438441274
 30
0.0
 10
53.42779313035195
 20
-54.40176022131508
 30
0.0
 10
53.49999798114499
 20
-54.46228803402526
 30
0.0
 10
53.57307137428699
 20
-54.52066917006579
 30
0.0
  0
SPLINE
  5
8F
330
1F
100
AcDbEntity
  8
0
  6
Continuous
 62
     7
370
    25
100
AcDbSpline
210
0.0
220
0.0
230
1.0
 70
     8
 71
     3
 72
    23
 73
    19
 74
     0
 42
0.00000001
 43
0.00000001
 40
0.0
 40
0.0
 40
0.0
 40
0.0
 40
0.0679270845813248
 40
0.1317254824539703
 40
0.1906682848325121
 40
0.2451967695503873
 40
0.2955086346325984
 40
0.3416161785232792
 40
0.3833927405479199
 40
0.4218026382948726
 40
0.493318722474641
 40
0.5629238991979801
 40
0.6330781370056852
 40
0.7045117137648446
 40
0.7765663402089112
 40
0.8487461492182587
 40
0.9227596127816297
 40
0.9999999999999999
 40
0.9999999999999999
 40
0.9999999999999999
 40
0.9999999999999999
 10
54.36323563710749
 20
-52.5911819905786
 30
0.0
 10
54.3216279019432
 20
-52.59130456397568
 30
0.0
 10
54.24094139784671
 20
-52.59154226061705
 30
0.0
 10
54.12427840743764
 20
-52.5975175403483
 30
0.0
 10
54.0160336306833
 20
-52.60587140798958
 30
0.0
 10
53.91622575102378
 20
-52.6164100450172
 30
0.0
 10
53.82509317971817
 20
-52.63220767368139
 30
0.0
 10
53.74226923641914
 20
-52.64983766665886
 30
0.0
 10
53.66796080841435
 20
-52.67163117011449
 30
0.0
 10
53.58107676522583
 20
-52.70478690449709
 30
0.0
 10
53.48330529216455
 20
-52.7560950896623
 30
0.0
 10
53.37853100967966
 20
-52.83285656680138
 30
0.0
 10
53.28696119953008
 20
-52.92491186818646
 30
0.0
 10
53.20847951988769
 20
-53.03010583487384
 30
0.0
 10
53.14492973810289
 20
-53.14652460876905
 30
0.0
 10
53.10017292282276
 20
-53.27291932595649
 30
0.0
 10
53.07172473811048
 20
-53.4074269485364
 30
0.0
 10
53.06850543237776
 20
-53.50015760827984
 30
0.0
 10
53.06686143838959
 20
-53.54751211878374
 30
0.0
  0
LINE
  5
90
330
1F
100
AcDbEntity
  8
0
  6
Continuous
 62
     7
370
    25
100
AcDbLine
 10
55.669425541
 20
-52.5911819906
 30
0.0
 11
54.3632356371
 21
-52.5911819906
 31
0.0
  0
LINE
  5
91
330
1F
100
AcDbEntity
  8
0
  6
Continuous
 62
     7
370
    25
100
AcDbLine
 10
55.669425541
 20
-52.9052845547
 30
0.0
 11
55.669425541
 21
-52.5911819906
 31
0.0
  0
LINE
  5
92
330
1F
100
AcDbEntity
  8
0
  6
Continuous
 62
     7
370
    25
100
AcDbLine
 10
54.466300541
 20
-52.9052845547
 30
0.0
 11
55.669425541
 21
-52.9052845547
 31
0.0
  0
SPLINE
  5
93
330
1F
100
AcDbEntity
  8
0
  6
Continuous
 62
     7
370
    25
100
AcDbSpline
210
0.0
220
0.0
230
1.0
 70
     8
 71
     3
 72
    14
 73
    10
 74
     0
 42
0.00000001
 43
0.00000001
 40
0.0
 40
0.0
 40
0.0
 40
0.0
 40
0.0001464416022752
 40
0.0001464416022752
 40
0.0001464416022752
 40
0.0002924544292706
 40
0.0002924544292706
 40
0.0002924544292706
 40
0.000583454168315
 40
0.000583454168315
 40
0.000583454168315
 40
0.000583454168315
 10
53.88436945121011
 20
-52.94244400980938
 30
0.0
 10
53.93206730620767
 20
-52.93206574976124
 30
0.0
 10
53.98056278759797
 20
-52.92511804568672
 30
0.0
 10
54.02915794492535
 20
-52.92050238351138
 30
0.0
 10
54.07767008248538
 20
-52.91589460671437
 30
0.0
 10
54.12631811671159
 20
-52.91256684451466
 30
0.0
 10
54.17500127925693
 20
-52.91042003706258
 30
0.0
 10
54.27202183446916
 20
-52.90614166975767
 30
0.0
 10
54.36918718126149
 20
-52.90582114557218
 30
0.0
 10
54.46630054095364
 20
-52.90528455468117
 30
0.0
  0
SPLINE
  5
94
330
1F
100
AcDbEntity
  8
0
  6
Continuous
 62
     7
370
    25
100
AcDbSpline
210
0.0
220
0.0
230
1.0
 70
     8
 71
     3
 72
    20
 73
    16
 74
     0
 42
0.00000001
 43
0.00000001
 40
0.0
 40
0.0
 40
0.0
 40
0.0
 40
0.0002774871188282
 40
0.0002774871188282
 40
0.0002774871188282
 40
0.00046251073987
 40
0.00046251073987
 40
0.00046251073987
 40
0.0006482892223306
 40
0.0006482892223306
 40
0.0006482892223306
 40
0.0008720287876973
 40
0.0008720287876973
 40
0.0008720287876973
 40
0.0009030745470926
 40
0.0009030745470926
 40
0.0009030745470926
 40
0.0009030745470926
 10
53.38096400249215
 20
-53.60219961878374
 30
0.0
 10
53.38370503913148
 20
-53.5097445356479
 30
0.0
 10
53.39251930785921
 20
-53.41532171387637
 30
0.0
 10
53.42259994912565
 20
-53.32785394438092
 30
0.0
 10
53.44273442009143
 20
-53.26930741108917
 30
0.0
 10
53.47205721306491
 20
-53.21291060775138
 30
0.0
 10
53.50991184568954
 20
-53.16391958540638
 30
0.0
 10
53.54787588741799
 20
-53.11478696708013
 30
0.0
 10
53.59553638845463
 20
-53.07222105596468
 30
0.0
 10
53.64776548496123
 20
-53.03864421683329
 30
0.0
 10
53.71064998730565
 20
-52.99821727169537
 30
0.0
 10
53.78191692016454
 20
-52.97029598636549
 30
0.0
 10
53.85403084718418
 20
-52.95058862585996
 30
0.0
 10
53.86413141244767
 20
-52.94782833406634
 30
0.0
 10
53.87425051156544
 20
-52.94513616320327
 30
0.0
 10
53.88436945121006
 20
-52.94244400980938
 30
0.0
  0
SPLINE
  5
95
330
1F
100
AcDbEntity
  8
0
  6
Continuous
 62
     7
370
    25
100
AcDbSpline
210
0.0
220
0.0
230
1.0
 70
     8
 71
     3
 72
    17
 73
    13
 74
     0
 42
0.00000001
 43
0.00000001
 40
0.0
 40
0.0
 40
0.0
 40
0.0
 40
0.0003168232445697
 40
0.0003168232445697
 40
0.0003168232445697
 40
0.0006333052918343
 40
0.0006333052918343
 40
0.0006333052918343
 40
0.0009629091141176
 40
0.0009629091141176
 40
0.0009629091141176
 40
0.001176438537634
 40
0.001176438537634
 40
0.001176438537634
 40
0.001176438537634
 10
54.05824765633827
 20
-54.47229176621964
 30
0.0
 10
53.95685356803939
 20
-54.44275813563024
 30
0.0
 10
53.85721831663742
 20
-54.39946066897748
 30
0.0
 10
53.77121076449789
 20
-54.33817692355739
 30
0.0
 10
53.68504296737378
 20
-54.27677899731718
 30
0.0
 10
53.60848217764796
 20
-54.19973873036052
 30
0.0
 10
53.54652589659933
 20
-54.11397152306985
 30
0.0
 10
53.48228010949688
 20
-54.02503491088616
 30
0.0
 10
53.43316209744359
 20
-53.9225568346495
 30
0.0
 10
53.40635303742302
 20
-53.81616831812663
 30
0.0
 10
53.38880279521316
 20
-53.74652230174651
 30
0.0
 10
53.38229723137955
 20
-53.67401048913064
 30
0.0
 10
53.38096400249212
 20
-53.60219961878374
 30
0.0
  0
SPLINE
  5
96
330
1F
100
AcDbEntity
  8
0
  6
Continuous
 62
     7
370
    25
100
AcDbSpline
210
0.0
220
0.0
230
1.0
 70
     8
 71
     3
 72
    14
 73
    10
 74
     0
 42
0.00000001
 43
0.00000001
 40
0.0
 40
0.0
 40
0.0
 40
0.0
 40
0.0001724863044787
 40
0.0001724863044787
 40
0.0001724863044787
 40
0.0003450240345243
 40
0.0003450240345243
 40
0.0003450240345243
 40
0.0006898418439015
 40
0.0006898418439015
 40
0.0006898418439015
 40
0.0006898418439015
 10
54.7446458935178
 20
-54.52066917006579
 30
0.0
 10
54.68715087677212
 20
-54.52044990933027
 30
0.0
 10
54.62965172697787
 20
-54.52028174563479
 30
0.0
 10
54.57216532318373
 20
-54.51926272420386
 30
0.0
 10
54.51466930469118
 20
-54.51824353233987
 30
0.0
 10
54.45720472368743
 20
-54.51570829724817
 30
0.0
 10
54.39976520357978
 20
-54.5129637709946
 30
0.0
 10
54.28525222267941
 20
-54.50749220922202
 30
0.0
 10
54.17001515408987
 20
-54.49781013664686
 30
0.0
 10
54.05824765633824
 20
-54.47229176621963
 30
0.0
  0
LINE
  5
97
330
1F
100
AcDbEntity
  8
0
  6
Continuous
 62
     7
370
    25
100
AcDbLine
 10
55.669425541
 20
-54.5206691701
 30
0.0
 11
54.7446458935
 21
-54.5206691701
 31
0.0
  0
LINE
  5
98
330
1F
100
AcDbEntity
  8
0
  6
Continuous
 62
     7
370
    25
100
AcDbLine
 10
55.669425541
 20
-54.8347717342
 30
0.0
 11
55.669425541
 21
-54.5206691701
 31
0.0
  0
SPLINE
  5
99
330
1F
100
AcDbEntity
  8
0
  6
Continuous
 62
     7
370
    25
100
AcDbSpline
210
0.0
220
0.0
230
1.0
 70
     8
 71
     3
 72
    15
 73
    11
 74
     0
 42
0.00000001
 43
0.00000001
 40
0.0
 40
0.0
 40
0.0
 40
0.0
 40
0.1312995992553924
 40
0.2587123826907112
 40
0.3820894432541491
 40
0.5035635736272752
 40
0.6251808674329453
 40
0.7472870144845511
 40
0.8715024788624861
 40
1.0
 40
1.0
 40
1.0
 40
1.0
 10
53.06686143838954
 20
-56.78529256750169
 30
0.0
 10
53.06790598800967
 20
-56.83328269548269
 30
0.0
 10
53.06996416581508
 20
-56.92784231657824
 30
0.0
 10
53.09121752078413
 20
-57.06611783203779
 30
0.0
 10
53.1237830358989
 20
-57.19833707456564
 30
0.0
 10
53.17062155362539
 20
-57.32401993252141
 30
0.0
 10
53.230097769078
 20
-57.44374485865893
 30
0.0
 10
53.30401384293892
 20
-57.5562386797694
 30
0.0
 10
53.38954636702575
 20
-57.6635874074976
 30
0.0
 10
53.45636406323859
 20
-57.72740327134747
 30
0.0
 10
53.49033900249209
 20
-57.75985186237349
 30
0.0
  0
SPLINE
  5
9A
330
1F
100
AcDbEntity
  8
0
  6
Continuous
 62
     7
370
    25
100
AcDbSpline
210
0.0
220
0.0
230
1.0
 70
     8
 71
     3
 72
    14
 73
    10
 74
     0
 42
0.00000001
 43
0.00000001
 40
0.0
 40
0.0
 40
0.0
 40
0.0
 40
0.0002744676113724
 40
0.0002744676113724
 40
0.0002744676113724
 40
0.0006931767121146
 40
0.0006931767121146
 40
0.0006931767121146
 40
0.0010932873434431
 40
0.0010932873434431
 40
0.0010932873434431
 40
0.0010932873434431
 10
53.48823563710753
 20
-55.81353775980939
 30
0.0
 10
53.42239495659196
 20
-55.87706160729615
 30
0.0
 10
53.35825972048941
 20
-55.9434533801031
 30
0.0
 10
53.30476918094976
 20
-56.01767626464708
 30
0.0
 10
53.22384070027092
 20
-56.12997173463928
 30
0.0
 10
53.16007882075516
 20
-56.257374305703
 30
0.0
 10
53.12153177418796
 20
-56.39031721362478
 30
0.0
 10
53.0845177352047
 20
-56.51797301126907
 30
0.0
 10
53.06969096353612
 20
-56.65240902622776
 30
0.0
 10
53.06686143838954
 20
-56.78529256750169
 30
0.0
  0
SPLINE
  5
9B
330
1F
100
AcDbEntity
  8
0
  6
Continuous
 62
     7
370
    25
100
AcDbSpline
210
0.0
220
0.0
230
1.0
 70
     8
 71
     3
 72
    14
 73
    10
 74
     0
 42
0.00000001
 43
0.00000001
 40
0.0
 40
0.0
 40
0.0
 40
0.0
 40
0.0002504470161726
 40
0.0002504470161726
 40
0.0002504470161726
 40
0.0006906102224416
 40
0.0006906102224416
 40
0.0006906102224416
 40
0.0010004285595334
 40
0.0010004285595334
 40
0.0010004285595334
 40
0.0010004285595334
 10
54.39759060505619
 20
-55.46297686237349
 30
0.0
 10
54.31413628740747
 20
-55.46513967180744
 30
0.0
 10
54.23024777530735
 20
-55.46951776933635
 30
0.0
 10
54.14802413910491
 20
-55.48395987889532
 30
0.0
 10
54.00502468498161
 20
-55.50907691188856
 30
0.0
 10
53.86401878101135
 20
-55.55880419084325
 30
0.0
 10
53.73798758274911
 20
-55.63088640980541
 30
0.0
 10
53.64845818616368
 20
-55.6820918070182
 30
0.0
 10
53.56610049818911
 20
-55.74590219989143
 30
0.0
 10
53.48823563710747
 20
-55.81353775980939
 30
0.0
  0
SPLINE
  5
9C
330
1F
100
AcDbEntity
  8
0
  6
Continuous
 62
     7
370
    25
100
AcDbSpline
210
0.0
220
0.0
230
1.0
 70
     8
 71
     3
 72
    20
 73
    16
 74
     0
 42
0.00000001
 43
0.00000001
 40
0.0
 40
0.0
 40
0.0
 40
0.0
 40
0.0004852083100608
 40
0.0004852083100608
 40
0.0004852083100608
 40
0.000890715145835
 40
0.000890715145835
 40
0.000890715145835
 40
0.0012935576595386
 40
0.0012935576595386
 40
0.0012935576595386
 40
0.0017664556398733
 40
0.0017664556398733
 40
0.0017664556398733
 40
0.0020659962310966
 40
0.0020659962310966
 40
0.0020659962310966
 40
0.0020659962310966
 10
55.71429733582542
 20
-56.78529256750169
 30
0.0
 10
55.71015464120718
 20
-56.6236095281645
 30
0.0
 10
55.69051660164584
 20
-56.45854701524898
 30
0.0
 10
55.63514901753761
 20
-56.30658321114409
 30
0.0
 10
55.58875577824349
 20
-56.17925070709065
 30
0.0
 10
55.51909806500582
 20
-56.05848347960621
 30
0.0
 10
55.43295335038611
 20
-55.95386518587223
 30
0.0
 10
55.34711254708047
 20
-55.84961597668708
 30
0.0
 10
55.24383504533653
 20
-55.75826855506997
 30
0.0
 10
55.1317903805307
 20
-55.68288596943885
 30
0.0
 10
55.00119947326223
 20
-55.59502564813869
 30
0.0
 10
54.85196949427367
 20
-55.52987620160077
 30
0.0
 10
54.69837011926901
 20
-55.49551556833636
 30
0.0
 10
54.59995767618636
 20
-55.47350041452916
 30
0.0
 10
54.49840952723764
 20
-55.46526178705933
 30
0.0
 10
54.39759060505617
 20
-55.46297686237349
 30
0.0
  0
SPLINE
  5
9D
330
1F
100
AcDbEntity
  8
0
  6
Continuous
 62
     7
370
    25
100
AcDbSpline
210
0.0
220
0.0
230
1.0
 70
     8
 71
     3
 72
    20
 73
    16
 74
     0
 42
0.00000001
 43
0.00000001
 40
0.0
 40
0.0
 40
0.0
 40
0.0
 40
0.0004623347711808
 40
0.0004623347711808
 40
0.0004623347711808
 40
0.0009271259855131
 40
0.0009271259855131
 40
0.0009271259855131
 40
0.0013775596407529
 40
0.0013775596407529
 40
0.0013775596407529
 40
0.0018133140821279
 40
0.0018133140821279
 40
0.0018133140821279
 40
0.0020702588379707
 40
0.0020702588379707
 40
0.0020702588379707
 40
0.0020702588379707
 10
54.39759060505622
 20
-58.11041275980939
 30
0.0
 10
54.55166263166453
 20
-58.10692092498147
 30
0.0
 10
54.70854856223059
 20
-58.08542791583753
 30
0.0
 10
54.85333674335583
 20
-58.03263809768956
 30
0.0
 10
54.99891953896388
 20
-57.97955856284152
 30
0.0
 10
55.13581701264536
 20
-57.897430424801
 30
0.0
 10
55.25460473872504
 20
-57.79792533181792
 30
0.0
 10
55.36974868513886
 20
-57.70147252922226
 30
0.0
 10
55.47215062279831
 20
-57.58535038013167
 30
0.0
 10
55.5472306709659
 20
-57.45525711400516
 30
0.0
 10
55.61988489367386
 20
-57.32936714242619
 30
0.0
 10
55.66881674867876
 20
-57.18767476810922
 30
0.0
 10
55.69331946962583
 20
-57.04440391382391
 30
0.0
 10
55.70792710993111
 20
-56.95899098722897
 30
0.0
 10
55.71208121794211
 20
-56.87191727532993
 30
0.0
 10
55.71429733582539
 20
-56.78529256750169
 30
0.0
  0
SPLINE
  5
9E
330
1F
100
AcDbEntity
  8
0
  6
Continuous
 62
     7
370
    25
100
AcDbSpline
210
0.0
220
0.0
230
1.0
 70
     8
 71
     3
 72
    15
 73
    11
 74
     0
 42
0.00000001
 43
0.00000001
 40
0.0
 40
0.0
 40
0.0
 40
0.0
 40
0.1284139925374598
 40
0.2537652120989866
 40
0.3772952517655755
 40
0.4995677503695704
 40
0.6213124398679022
 40
0.7447562330379133
 40
0.8710778163892284
 40
1.0
 40
1.0
 40
1.0
 40
1.0
 10
53.49033900249206
 20
-57.75985186237349
 30
0.0
 10
53.52258349550945
 20
-57.78778855086434
 30
0.0
 10
53.58630342546341
 20
-57.84299561623266
 30
0.0
 10
53.6893069807404
 20
-57.9147487768311
 30
0.0
 10
53.79683991480314
 20
-57.97535416854165
 30
0.0
 10
53.90881745747949
 20
-58.02432605338662
 30
0.0
 10
54.02455662945638
 20
-58.06354736235996
 30
0.0
 10
54.14508861048053
 20
-58.09071421073263
 30
0.0
 10
54.27000180995875
 20
-58.10707344040974
 30
0.0
 10
54.35477310380782
 20
-58.1092921182009
 30
0.0
 10
54.39759060505619
 20
-58.11041275980939
 30
0.0
  0
LINE
  5
9F
330
1F
100
AcDbEntity
  8
0
  6
Continuous
 62
     7
370
    25
100
AcDbLine
 10
53.1117332333
 20
-59.0527204521
 30
0.0
 11
55.669425541
 21
-59.0527204521
 31
0.0
  0
LINE
  5
A0
330
1F
100
AcDbEntity
  8
0
  6
Continuous
 62
     7
370
    25
100
AcDbLine
 10
53.1117332333
 20
-58.738617888
 30
0.0
 11
53.1117332333
 21
-59.0527204521
 31
0.0
  0
LINE
  5
A1
330
1F
100
AcDbEntity
  8
0
  6
Continuous
 62
     7
370
    25
100
AcDbLine
 10
55.669425541
 20
-58.738617888
 30
0.0
 11
53.1117332333
 21
-58.738617888
 31
0.0
  0
LINE
  5
A2
330
1F
100
AcDbEntity
  8
0
  6
Continuous
 62
     7
370
    25
100
AcDbLine
 10
55.669425541
 20
-59.0527204521
 30
0.0
 11
55.669425541
 21
-58.738617888
 31
0.0
  0
SPLINE
  5
A3
330
1F
100
AcDbEntity
  8
0
  6
Continuous
 62
     7
370
    25
100
AcDbSpline
210
0.0
220
0.0
230
1.0
 70
     8
 71
     3
 72
    17
 73
    13
 74
     0
 42
0.00000001
 43
0.00000001
 40
0.0
 40
0.0
 40
0.0
 40
0.0
 40
0.0001314607742615
 40
0.0001314607742615
 40
0.0001314607742615
 40
0.0002429716992966
 40
0.0002429716992966
 40
0.0002429716992966
 40
0.0003459262892548
 40
0.0003459262892548
 40
0.0003459262892548
 40
0.0004353457552341
 40
0.0004353457552341
 40
0.0004353457552341
 40
0.0004353457552341
 10
52.03481015633826
 20
-58.89707141365554
 30
0.0
 10
52.03678584980157
 20
-58.94084711072784
 30
0.0
 10
52.04363923253846
 20
-58.98601208173008
 30
0.0
 10
52.06243381035397
 20
-59.025597165582
 30
0.0
 10
52.07853246948699
 20
-59.05950411352931
 30
0.0
 10
52.1014201451522
 20
-59.09084418945744
 30
0.0
 10
52.12866108005196
 20
-59.11666626162005
 30
0.0
 10
52.15373585350558
 20
-59.14043499833797
 30
0.0
 10
52.18414590811584
 20
-59.15956591983587
 30
0.0
 10
52.21649690418428
 20
-59.17169481765463
 30
0.0
 10
52.24468463121451
 20
-59.18226284035692
 30
0.0
 10
52.27539091836153
 20
-59.1855770641528
 30
0.0
 10
52.30544316915878
 20
-59.18733583673246
 30
0.0
  0
SPLINE
  5
A4
330
1F
100
AcDbEntity
  8
0
  6
Continuous
 62
     7
370
    25
100
AcDbSpline
210
0.0
220
0.0
230
1.0
 70
     8
 71
     3
 72
    20
 73
    16
 74
     0
 42
0.00000001
 43
0.00000001
 40
0.0
 40
0.0
 40
0.0
 40
0.0
 40
0.0001119690934822
 40
0.0001119690934822
 40
0.0001119690934822
 40
0.0002113281527981
 40
0.0002113281527981
 40
0.0002113281527981
 40
0.0003172396383414
 40
0.0003172396383414
 40
0.0003172396383414
 40
0.0004214757538314
 40
0.0004214757538314
 40
0.0004214757538314
 40
0.000438335275842
 40
0.000438335275842
 40
0.000438335275842
 40
0.000438335275842
 10
52.30544316915875
 20
-58.60400250339912
 30
0.0
 10
52.26818353873306
 20
-58.60617703681295
 30
0.0
 10
52.22988324575195
 20
-58.61233466797879
 30
0.0
 10
52.19613764955436
 20
-58.62827967949632
 30
0.0
 10
52.16604230310426
 20
-58.64249992450136
 30
0.0
 10
52.13867658581581
 20
-58.66353146858761
 30
0.0
 10
52.11609793919675
 20
-58.6879885731343
 30
0.0
 10
52.09194777589313
 20
-58.71414793860477
 30
0.0
 10
52.07139055873692
 20
-58.74451055045481
 30
0.0
 10
52.05752065702171
 20
-58.77730031434263
 30
0.0
 10
52.04389565699219
 20
-58.80951110740466
 30
0.0
 10
52.03762247815971
 20
-58.84500090421989
 30
0.0
 10
52.03566157668296
 20
-58.87991982002334
 30
0.0
 10
52.03534063287996
 20
-58.88563505343361
 30
0.0
 10
52.03507540389299
 20
-58.89135332467465
 30
0.0
 10
52.03481015633826
 20
-58.89707141365554
 30
0.0
  0
SPLINE
  5
A5
330
1F
100
AcDbEntity
  8
0
  6
Continuous
 62
     7
370
    25
100
AcDbSpline
210
0.0
220
0.0
230
1.0
 70
     8
 71
     3
 72
    15
 73
    11
 74
     0
 42
0.00000001
 43
0.00000001
 40
0.0
 40
0.0
 40
0.0
 40
0.0
 40
0.1326987454367442
 40
0.2598496298713194
 40
0.3866707319148848
 40
0.5150828775347389
 40
0.6425029490726412
 40
0.7624536797231034
 40
0.8798378650074314
 40
0.9999999999999999
 40
0.9999999999999999
 40
0.9999999999999999
 40
0.9999999999999999
 10
52.57327169479978
 20
-58.89707141365554
 30
0.0
 10
52.5723674480848
 20
-58.87758025140406
 30
0.0
 10
52.57059675934597
 20
-58.83941281221586
 30
0.0
 10
52.55543662198011
 20
-58.78421736370136
 30
0.0
 10
52.52973188307522
 20
-58.73396857785124
 30
0.0
 10
52.49527126308467
 20
-58.68935981684934
 30
0.0
 10
52.45480055287244
 20
-58.65136069122322
 30
0.0
 10
52.40819626938906
 20
-58.6243384533807
 30
0.0
 10
52.35802279733662
 20
-58.60722396512936
 30
0.0
 10
52.32310582232194
 20
-58.60508466322398
 30
0.0
 10
52.30544316915875
 20
-58.60400250339912
 30
0.0
  0
SPLINE
  5
A6
330
1F
100
AcDbEntity
  8
0
  6
Continuous
 62
     7
370
    25
100
AcDbSpline
210
0.0
220
0.0
230
1.0
 70
     8
 71
     3
 72
    15
 73
    11
 74
     0
 42
0.00000001
 43
0.00000001
 40
0.0
 40
0.0
 40
0.0
 40
0.0
 40
0.1208544753468174
 40
0.238914995222138
 40
0.3595568481746142
 40
0.4866347668474036
 40
0.615786787057484
 40
0.743338596546637
 40
0.868133248297675
 40
1.0
 40
1.0
 40
1.0
 40
1.0
 10
52.30544316915878
 20
-59.18733583673245
 30
0.0
 10
52.32310338985185
 20
-59.18625098240675
 30
0.0
 10
52.35801555616101
 20
-59.18410635379207
 30
0.0
 10
52.40822471077905
 20
-59.16703139190648
 30
0.0
 10
52.45455200463608
 20
-59.13993306650987
 30
0.0
 10
52.49549690186581
 20
-59.10270287337775
 30
0.0
 10
52.52972308696094
 20
-59.05803820071944
 30
0.0
 10
52.55513916006149
 20
-59.00820971132612
 30
0.0
 10
52.57070917779785
 20
-58.95384286898388
 30
0.0
 10
52.57240197457811
 20
-58.91633968882227
 30
0.0
 10
52.57327169479978
 20
-58.89707141365554
 30
0.0
  0
SPLINE
  5
A7
330
1F
100
AcDbEntity
  8
0
  6
Continuous
 62
     7
370
    25
100
AcDbSpline
210
0.0
220
0.0
230
1.0
 70
     8
 71
     3
 72
    14
 73
    10
 74
     0
 42
0.00000001
 43
0.00000001
 40
0.0
 40
0.0
 40
0.0
 40
0.0
 40
0.0003875637262734
 40
0.0003875637262734
 40
0.0003875637262734
 40
0.0007765359631454
 40
0.0007765359631454
 40
0.0007765359631454
 40
0.0013731718278949
 40
0.0013731718278949
 40
0.0013731718278949
 40
0.0013731718278949
 10
53.66632057300488
 20
-59.63605378545038
 30
0.0
 10
53.55664059469059
 20
-59.70431664596902
 30
0.0
 10
53.45286306579414
 20
-59.78694348101657
 30
0.0
 10
53.37057463389741
 20
-59.88653328845285
 30
0.0
 10
53.28792448676467
 20
-59.98656086277654
 30
0.0
 10
53.22569271493352
 20
-60.10416720920242
 30
0.0
 10
53.17806350045625
 20
-60.22486526376181
 30
0.0
 10
53.10555662444058
 20
-60.40860625074463
 30
0.0
 10
53.07120807786145
 20
-60.60944527462055
 30
0.0
 10
53.06686143838957
 20
-60.80692718288627
 30
0.0
  0
LINE
  5
A8
330
1F
100
AcDbEntity
  8
0
  6
Continuous
 62
     7
370
    25
100
AcDbLine
 10
53.8296819512
 20
-59.8989744585
 30
0.0
 11
53.666320573
 21
-59.6360537855
 31
0.0
  0
SPLINE
  5
A9
330
1F
100
AcDbEntity
  8
0
  6
Continuous
 62
     7
370
    25
100
AcDbSpline
210
0.0
220
0.0
230
1.0
 70
     8
 71
     3
 72
    17
 73
    13
 74
     0
 42
0.00000001
 43
0.00000001
 40
0.0
 40
0.0
 40
0.0
 40
0.0
 40
0.0002655320333178
 40
0.0002655320333178
 40
0.0002655320333178
 40
0.0006445746711215
 40
0.0006445746711215
 40
0.0006445746711215
 40
0.0010125444082269
 40
0.0010125444082269
 40
0.0010125444082269
 40
0.0010754829820847
 40
0.0010754829820847
 40
0.0010754829820847
 40
0.0010754829820847
 10
53.38096400249212
 20
-60.83006420211704
 30
0.0
 10
53.3832942779954
 20
-60.74158420496603
 30
0.0
 10
53.38841111379492
 20
-60.65246617604641
 30
0.0
 10
53.40594752088906
 20
-60.56571011282318
 30
0.0
 10
53.43076956397721
 20
-60.44291057196379
 30
0.0
 10
53.47546565823491
 20
-60.32182810493145
 30
0.0
 10
53.54060685268141
 20
-60.21481181717846
 30
0.0
 10
53.60397161051883
 20
-60.11071392312319
 30
0.0
 10
53.68680630056758
 20
-60.01684169741036
 30
0.0
 10
53.78053242385194
 20
-59.93895153181407
 30
0.0
 10
53.79677425250015
 20
-59.92545392113023
 30
0.0
 10
53.81322884104259
 20
-59.91221370540271
 30
0.0
 10
53.82968195121005
 20
-59.8989744585273
 30
0.0
  0
SPLINE
  5
AA
330
1F
100
AcDbEntity
  8
0
  6
Continuous
 62
     7
370
    25
100
AcDbSpline
210
0.0
220
0.0
230
1.0
 70
     8
 71
     3
 72
    23
 73
    19
 74
     0
 42
0.00000001
 43
0.00000001
 40
0.0
 40
0.0
 40
0.0
 40
0.0
 40
0.0619059469723051
 40
0.1222819204637983
 40
0.1812434869853049
 40
0.2396871197544999
 40
0.2984032755910681
 40
0.3580784908258414
 40
0.4192616280825309
 40
0.4824580183676818
 40
0.5464498243206232
 40
0.6091832833298995
 40
0.6717521154871577
 40
0.734538449615076
 40
0.7980307571346656
 40
0.8630790177387438
 40
0.9304783586739546
 40
1.0
 40
1.0
 40
1.0
 40
1.0
 10
54.38356816915879
 20
-61.92451532391193
 30
0.0
 10
54.34938660950326
 20
-61.92361959081279
 30
0.0
 10
54.28186826977097
 20
-61.92185026219506
 30
0.0
 10
54.18284026219508
 20
-61.90638556678208
 30
0.0
 10
54.08732640651351
 20
-61.88317884659688
 30
0.0
 10
53.99655035325676
 20
-61.84790367612057
 30
0.0
 10
53.90879861103495
 20
-61.80479771978133
 30
0.0
 10
53.82607871982828
 20
-61.74986078658799
 30
0.0
 10
53.74632502446578
 20
-61.6867618725486
 30
0.0
 10
53.67192635681731
 20
-61.61393286546662
 30
0.0
 10
53.60351581141887
 20
-61.53431612412593
 30
0.0
 10
53.54446577110847
 20
-61.44793063412416
 30
0.0
 10
53.49365601498796
 20
-61.35727971567685
 30
0.0
 10
53.45190572504765
 20
-61.26155929714565
 30
0.0
 10
53.42075476835525
 20
-61.16051858824464
 30
0.0
 10
53.39711276004869
 20
-61.05487623511221
 30
0.0
 10
53.38410226669768
 20
-60.94397008166551
 30
0.0
 10
53.38202084470181
 20
-60.86842315902862
 30
0.0
 10
53.38096400249212
 20
-60.83006420211704
 30
0.0
  0
SPLINE
  5
AB
330
1F
100
AcDbEntity
  8
0
  6
Continuous
 62
     7
370
    25
100
AcDbSpline
210
0.0
220
0.0
230
1.0
 70
     8
 71
     3
 72
    20
 73
    16
 74
     0
 42
0.00000001
 43
0.00000001
 40
0.0
 40
0.0
 40
0.0
 40
0.0
 40
0.0005020795547465
 40
0.0005020795547465
 40
0.0005020795547465
 40
0.0008407096619511
 40
0.0008407096619511
 40
0.0008407096619511
 40
0.0011798369284714
 40
0.0011798369284714
 40
0.0011798369284714
 40
0.0015152020898291
 40
0.0015152020898291
 40
0.0015152020898291
 40
0.0016436615475323
 40
0.0016436615475323
 40
0.0016436615475323
 40
0.0016436615475323
 10
55.40019477172287
 20
-60.82796083673243
 30
0.0
 10
55.39487344812433
 20
-60.99523606931863
 30
0.0
 10
55.36903197255016
 20
-61.16727355426885
 30
0.0
 10
55.30084449032726
 20
-61.32011264347612
 30
0.0
 10
55.25432513440026
 20
-61.424383629273
 30
0.0
 10
55.19104341354308
 20
-61.52322967650391
 30
0.0
 10
55.11290492680515
 20
-61.60648149837718
 30
0.0
 10
55.03463125291017
 20
-61.68987735397295
 30
0.0
 10
54.9405038057624
 20
-61.76052962324895
 30
0.0
 10
54.83884375679918
 20
-61.81294022523331
 30
0.0
 10
54.73829262150967
 20
-61.86477912935032
 30
0.0
 10
54.62768346394142
 20
-61.90203466802632
 30
0.0
 10
54.51537945470972
 20
-61.91565862848364
 30
0.0
 10
54.47166379222243
 20
-61.92096191606141
 30
0.0
 10
54.42756853022329
 20
-61.92273987128642
 30
0.0
 10
54.38356816915876
 20
-61.92451532391192
 30
0.0
  0
SPLINE
  5
AC
330
1F
100
AcDbEntity
  8
0
  6
Continuous
 62
     7
370
    25
100
AcDbSpline
210
0.0
220
0.0
230
1.0
 70
     8
 71
     3
 72
    15
 73
    11
 74
     0
 42
0.00000001
 43
0.00000001
 40
0.0
 40
0.0
 40
0.0
 40
0.0
 40
0.1314363108542413
 40
0.2581434980421646
 40
0.3806278746633853
 40
0.5015582214579812
 40
0.6227016552818823
 40
0.7445526879731506
 40
0.8700189214233836
 40
1.0
 40
1.0
 40
1.0
 40
1.0
 10
54.95147682300494
 20
-59.8989744585273
 30
0.0
 10
54.98727991238434
 20
-59.92926793160814
 30
0.0
 10
55.05759788367434
 20
-59.98876490819023
 30
0.0
 10
55.14853448399237
 20
-60.0899648464687
 30
0.0
 10
55.22689365480421
 20
-60.19639402138704
 30
0.0
 10
55.29042117070626
 20
-60.31017018744333
 30
0.0
 10
55.3395688207545
 20
-60.43055821801861
 30
0.0
 10
55.37481245436612
 20
-60.55733812886836
 30
0.0
 10
55.39634141769406
 20
-60.69050541393837
 30
0.0
 10
55.39889527452699
 20
-60.78160565235432
 30
0.0
 10
55.40019477172287
 20
-60.82796083673243
 30
0.0
  0
LINE
  5
AD
330
1F
100
AcDbEntity
  8
0
  6
Continuous
 62
     7
370
    25
100
AcDbLine
 10
55.1239527845
 20
-59.6360537855
 30
0.0
 11
54.951476823
 21
-59.8989744585
 31
0.0
  0
SPLINE
  5
AE
330
1F
100
AcDbEntity
  8
0
  6
Continuous
 62
     7
370
    25
100
AcDbSpline
210
0.0
220
0.0
230
1.0
 70
     8
 71
     3
 72
    17
 73
    13
 74
     0
 42
0.00000001
 43
0.00000001
 40
0.0
 40
0.0
 40
0.0
 40
0.0
 40
0.0003410125400084
 40
0.0003410125400084
 40
0.0003410125400084
 40
0.0008226538616787
 40
0.0008226538616787
 40
0.0008226538616787
 40
0.0012997861526568
 40
0.0012997861526568
 40
0.0012997861526568
 40
0.001395425267977
 40
0.001395425267977
 40
0.001395425267977
 40
0.001395425267977
 10
55.71429733582542
 20
-60.83286868929653
 30
0.0
 10
55.71340130023236
 20
-60.7192013742813
 30
0.0
 10
55.7047522125019
 20
-60.60484834769129
 30
0.0
 10
55.68283347660699
 20
-60.49331077375622
 30
0.0
 10
55.65214601680843
 20
-60.3371519134751
 30
0.0
 10
55.59568843922194
 20
-60.18338142791715
 30
0.0
 10
55.51435708635652
 20
-60.04658771141577
 30
0.0
 10
55.43391346310711
 20
-59.91128709479712
 30
0.0
 10
55.32785296973191
 20
-59.78727857560264
 30
0.0
 10
55.20269947484515
 20
-59.69181111467222
 30
0.0
 10
55.17712736470962
 20
-59.67230463243231
 30
0.0
 10
55.15053703681136
 20
-59.65415663598594
 30
0.0
 10
55.12395278454338
 20
-59.63605378545038
 30
0.0
  0
SPLINE
  5
AF
330
1F
100
AcDbEntity
  8
0
  6
Continuous
 62
     7
370
    25
100
AcDbSpline
210
0.0
220
0.0
230
1.0
 70
     8
 71
     3
 72
    23
 73
    19
 74
     0
 42
0.00000001
 43
0.00000001
 40
0.0
 40
0.0
 40
0.0
 40
0.0
 40
0.0623746761148378
 40
0.1230336879938335
 40
0.1822057750651511
 40
0.2413496877636869
 40
0.3000098162162054
 40
0.3598675839678392
 40
0.4208122180514727
 40
0.4841245773178712
 40
0.5478272216573722
 40
0.6104213170195217
 40
0.6728166772511246
 40
0.7355120479020125
 40
0.7988753395690695
 40
0.8636451602012883
 40
0.9304314617988101
 40
1.0
 40
1.0
 40
1.0
 40
1.0
 10
54.41161304095363
 20
-62.23861788801448
 30
0.0
 10
54.45609065909623
 20
-62.23745930993725
 30
0.0
 10
54.54382250371822
 20
-62.23517402137865
 30
0.0
 10
54.67248231288338
 20
-62.21545818623062
 30
0.0
 10
54.79652469066082
 20
-62.18490208295579
 30
0.0
 10
54.91489720241194
 20
-62.14051910094373
 30
0.0
 10
55.02832299393473
 20
-62.08375659721847
 30
0.0
 10
55.1363369674282
 20
-62.01485060532821
 30
0.0
 10
55.23961996036591
 20
-61.93354260282292
 30
0.0
 10
55.33588971872933
 20
-61.84010202076828
 30
0.0
 10
55.42458996858265
 20
-61.73792529479314
 30
0.0
 10
55.50242700807254
 20
-61.62793675458707
 30
0.0
 10
55.56755168933486
 20
-61.51085744975529
 30
0.0
 10
55.62211619427493
 20
-61.38789556005388
 30
0.0
 10
55.66343369739341
 20
-61.25802742556235
 30
0.0
 10
55.69246717323995
 20
-61.12204700800881
 30
0.0
 10
55.71165475820267
 20
-60.9797153440033
 30
0.0
 10
55.71340457530408
 20
-60.88247892397173
 30
0.0
 10
55.71429733582542
 20
-60.83286868929653
 30
0.0
  0
SPLINE
  5
B0
330
1F
100
AcDbEntity
  8
0
  6
Continuous
 62
     7
370
    25
100
AcDbSpline
210
0.0
220
0.0
230
1.0
 70
     8
 71
     3
 72
    20
 73
    16
 74
     0
 42
0.00000001
 43
0.00000001
 40
0.0
 40
0.0
 40
0.0
 40
0.0
 40
0.0005388460854941
 40
0.0005388460854941
 40
0.0005388460854941
 40
0.0010835300973052
 40
0.0010835300973052
 40
0.0010835300973052
 40
0.0015453683420904
 40
0.0015453683420904
 40
0.0015453683420904
 40
0.0019876703317673
 40
0.0019876703317673
 40
0.0019876703317673
 40
0.0021761728672603
 40
0.0021761728672603
 40
0.0021761728672603
 40
0.0021761728672603
 10
53.06686143838954
 20
-60.80692718288627
 30
0.0
 10
53.06955523483018
 20
-60.98652234336269
 30
0.0
 10
53.09412650350628
 20
-61.16937818939765
 30
0.0
 10
53.15420879746866
 20
-61.33864660392922
 30
0.0
 10
53.214767127056
 20
-61.50925614227929
 30
0.0
 10
53.3090916050139
 20
-61.67208409224059
 30
0.0
 10
53.43095871594397
 20
-61.80596214545317
 30
0.0
 10
53.53484570148001
 20
-61.92008799344897
 30
0.0
 10
53.66086474397272
 20
-62.01719467028898
 30
0.0
 10
53.79772008449984
 20
-62.08852370164188
 30
0.0
 10
53.92897310414832
 20
-62.15693280221195
 30
0.0
 10
54.07355667686151
 20
-62.20519823686541
 30
0.0
 10
54.22022114540378
 20
-62.22511541223909
 30
0.0
 10
54.28359531050478
 20
-62.23372168459001
 30
0.0
 10
54.34766400354421
 20
-62.23768336116343
 30
0.0
 10
54.41161304095363
 20
-62.23861788801447
 30
0.0
  0
LINE
  5
B1
330
1F
100
AcDbEntity
  8
0
  6
Continuous
 62
     7
370
    25
100
AcDbLine
 10
53.1117332333
 20
-62.8668230162
 30
0.0
 11
53.1117332333
 21
-63.1809255803
 31
0.0
  0
LINE
  5
B2
330
1F
100
AcDbEntity
  8
0
  6
Continuous
 62
     7
370
    25
100
AcDbLine
 10
55.669425541
 20
-62.8668230162
 30
0.0
 11
53.1117332333
 21
-62.8668230162
 31
0.0
  0
LINE
  5
B3
330
1F
100
AcDbEntity
  8
0
  6
Continuous
 62
     7
370
    25
100
AcDbLine
 10
55.669425541
 20
-63.1809255803
 30
0.0
 11
55.669425541
 21
-62.8668230162
 31
0.0
  0
LINE
  5
B4
330
1F
100
AcDbEntity
  8
0
  6
Continuous
 62
     7
370
    25
100
AcDbLine
 10
55.2270176884
 20
-63.1809255803
 30
0.0
 11
55.669425541
 21
-63.1809255803
 31
0.0
  0
SPLINE
  5
B5
330
1F
100
AcDbEntity
  8
0
  6
Continuous
 62
     7
370
    25
100
AcDbSpline
210
0.0
220
0.0
230
1.0
 70
     8
 71
     3
 72
    15
 73
    11
 74
     0
 42
0.00000001
 43
0.00000001
 40
0.0
 40
0.0
 40
0.0
 40
0.0
 40
0.127622531597955
 40
0.2518406704129971
 40
0.3726784726701844
 40
0.4928072486601737
 40
0.6136950266729968
 40
0.7375402709103637
 40
0.8657092931879986
 40
1.0
 40
1.0
 40
1.0
 40
1.0
 10
55.71429733582542
 20
-64.22559705468116
 30
0.0
 10
55.71311319691491
 20
-64.17479351406337
 30
0.0
 10
55.71077650657236
 20
-64.07454164185603
 30
0.0
 10
55.68738753833408
 20
-63.92772674746655
 30
0.0
 10
55.65098350699976
 20
-63.78690356244708
 30
0.0
 10
55.5998576246127
 20
-63.65193754698173
 30
0.0
 10
55.53151948941453
 20
-63.52353412579724
 30
0.0
 10
55.44811712129272
 20
-63.40043555458348
 30
0.0
 10
55.34511633656841
 20
-63.28573073852976
 30
0.0
 10
55.26699130782978
 20
-63.21639966553965
 30
0.0
 10
55.22701768838947
 20
-63.18092558032219
 30
0.0
  0
SPLINE
  5
B6
330
1F
100
AcDbEntity
  8
0
  6
Continuous
 62
     7
370
    25
100
AcDbSpline
210
0.0
220
0.0
230
1.0
 70
     8
 71
     3
 72
    23
 73
    19
 74
     0
 42
0.00000001
 43
0.00000001
 40
0.0
 40
0.0
 40
0.0
 40
0.0
 40
0.0649540853154702
 40
0.1280988297755904
 40
0.1896694721890567
 40
0.2507063934632496
 40
0.3118906664385909
 40
0.3732647830705226
 40
0.4358087922280646
 40
0.5004244558059556
 40
0.5650608900029894
 40
0.6276710388631739
 40
0.6893315462593286
 40
0.7500699293139552
 40
0.8109958734420564
 40
0.8725665158555307
 40
0.9353800086592317
 40
1.0
 40
1.0
 40
1.0
 40
1.0
 10
54.38356816915876
 20
-65.55913070852732
 30
0.0
 10
54.428970284326
 20
-65.5579049053888
 30
0.0
 10
54.51850980742154
 20
-65.55548744470386
 30
0.0
 10
54.64999968096154
 20
-65.53674699800322
 30
0.0
 10
54.77647684890122
 20
-65.50677336374527
 30
0.0
 10
54.89779176843529
 20
-65.46377701930452
 30
0.0
 10
55.01352492232395
 20
-65.40795693859727
 30
0.0
 10
55.12456722621661
 20
-65.34120385874253
 30
0.0
 10
55.22951277309174
 20
-65.26114258612034
 30
0.0
 10
55.32790776027541
 20
-65.16991058574443
 30
0.0
 10
55.41849578862828
 20
-65.07083904678059
 30
0.0
 10
55.49773661870886
 20
-64.96496635476149
 30
0.0
 10
55.56427786675033
 20
-64.85390625808915
 30
0.0
 10
55.6198586883885
 20
-64.73823411265508
 30
0.0
 10
55.66175957788028
 20
-64.61695953999326
 30
0.0
 10
55.69189019952236
 20
-64.49086729054062
 30
0.0
 10
55.71065250314064
 20
-64.35983821340167
 30
0.0
 10
55.71307096355629
 20
-64.27076500851368
 30
0.0
 10
55.71429733582542
 20
-64.22559705468116
 30
0.0
  0
SPLINE
  5
B7
330
1F
100
AcDbEntity
  8
0
  6
Continuous
 62
     7
370
    25
100
AcDbSpline
210
0.0
220
0.0
230
1.0
 70
     8
 71
     3
 72
    20
 73
    16
 74
     0
 42
0.00000001
 43
0.00000001
 40
0.0
 40
0.0
 40
0.0
 40
0.0
 40
0.0004815566576363
 40
0.0004815566576363
 40
0.0004815566576363
 40
0.0009666419759707
 40
0.0009666419759707
 40
0.0009666419759707
 40
0.001409976932572
 40
0.001409976932572
 40
0.001409976932572
 40
0.0018803448253375
 40
0.0018803448253375
 40
0.0018803448253375
 40
0.0020761993187486
 40
0.0020761993187486
 40
0.0020761993187486
 40
0.0020761993187486
 10
53.06686143838954
 20
-64.21578134955296
 30
0.0
 10
53.07145637868641
 20
-64.37623445562271
 30
0.0
 10
53.09210802355005
 20
-64.53999083049959
 30
0.0
 10
53.14805763846942
 20
-64.69044332570702
 30
0.0
 10
53.20442478819967
 20
-64.84201860172763
 30
0.0
 10
53.29132200384898
 20
-64.98479583310291
 30
0.0
 10
53.39829125719936
 20
-65.10608020434297
 30
0.0
 10
53.49649836360809
 20
-65.21742983780331
 30
0.0
 10
53.61233943076132
 20
-65.31631325441299
 30
0.0
 10
53.74066616740358
 20
-65.39098336412019
 30
0.0
 10
53.87618688336618
 20
-65.46983946997393
 30
0.0
 10
54.02976040464016
 20
-65.52328497748861
 30
0.0
 10
54.18499216199041
 20
-65.54535874915065
 30
0.0
 10
54.25068234214597
 20
-65.55469981480593
 30
0.0
 10
54.3172434973232
 20
-65.55726170281591
 30
0.0
 10
54.38356816915876
 20
-65.55913070852732
 30
0.0
  0
SPLINE
  5
B8
330
1F
100
AcDbEntity
  8
0
  6
Continuous
 62
     7
370
    25
100
AcDbSpline
210
0.0
220
0.0
230
1.0
 70
     8
 71
     3
 72
    14
 73
    10
 74
     0
 42
0.00000001
 43
0.00000001
 40
0.0
 40
0.0
 40
0.0
 40
0.0
 40
0.0004554788193024
 40
0.0004554788193024
 40
0.0004554788193024
 40
0.0009174230435472
 40
0.0009174230435472
 40
0.0009174230435472
 40
0.0011984478134823
 40
0.0011984478134823
 40
0.0011984478134823
 40
0.0011984478134823
 10
53.58499044479981
 20
-63.1809255803222
 30
0.0
 10
53.46530144411968
 20
-63.27433735859382
 30
0.0
 10
53.34989980156396
 20
-63.3794816929754
 30
0.0
 10
53.26590603748882
 20
-63.50595803384658
 30
0.0
 10
53.18091888917567
 20
-63.63393019532876
 30
0.0
 10
53.12308595774417
 20
-63.78251888604676
 30
0.0
 10
53.09303343115507
 20
-63.93317257879418
 30
0.0
 10
53.07452597981216
 20
-64.02595066451981
 30
0.0
 10
53.06946915236471
 20
-64.1212112762002
 30
0.0
 10
53.06686143838957
 20
-64.21578134955296
 30
0.0
  0
LINE
  5
B9
330
1F
100
AcDbEntity
  8
0
  6
Continuous
 62
     7
370
    25
100
AcDbLine
 10
53.1117332333
 20
-63.1809255803
 30
0.0
 11
53.5849904448
 21
-63.1809255803
 31
0.0
  0
LINE
  5
BA
330
1F
100
AcDbEntity
  8
0
  6
Continuous
 62
     7
370
    25
100
AcDbLine
 10
52.0796819512
 20
-66.5014384008
 30
0.0
 11
55.669425541
 21
-66.5014384008
 31
0.0
  0
LINE
  5
BB
330
1F
100
AcDbEntity
  8
0
  6
Continuous
 62
     7
370
    25
100
AcDbLine
 10
52.0796819512
 20
-66.1873358367
 30
0.0
 11
52.0796819512
 21
-66.5014384008
 31
0.0
  0
LINE
  5
BC
330
1F
100
AcDbEntity
  8
0
  6
Continuous
 62
     7
370
    25
100
AcDbLine
 10
55.669425541
 20
-66.1873358367
 30
0.0
 11
52.0796819512
 21
-66.1873358367
 31
0.0
  0
LINE
  5
BD
330
1F
100
AcDbEntity
  8
0
  6
Continuous
 62
     7
370
    25
100
AcDbLine
 10
55.669425541
 20
-66.5014384008
 30
0.0
 11
55.669425541
 21
-66.1873358367
 31
0.0
  0
LINE
  5
BE
330
1F
100
AcDbEntity
  8
0
  6
Continuous
 62
     7
370
    25
100
AcDbLine
 10
53.1117332333
 20
-69.4629768624
 30
0.0
 11
54.3337885217
 21
-69.4629768624
 31
0.0
  0
LINE
  5
BF
330
1F
100
AcDbEntity
  8
0
  6
Continuous
 62
     7
370
    25
100
AcDbLine
 10
53.1117332333
 20
-69.1488742983
 30
0.0
 11
53.1117332333
 21
-69.4629768624
 31
0.0
  0
LINE
  5
C0
330
1F
100
AcDbEntity
  8
0
  6
Continuous
 62
     7
370
    25
100
AcDbLine
 10
54.2980313102
 20
-69.1488742983
 30
0.0
 11
53.1117332333
 21
-69.1488742983
 31
0.0
  0
SPLINE
  5
C1
330
1F
100
AcDbEntity
  8
0
  6
Continuous
 62
     7
370
    25
100
AcDbSpline
210
0.0
220
0.0
230
1.0
 70
     8
 71
     3
 72
    14
 73
    10
 74
     0
 42
0.00000001
 43
0.00000001
 40
0.0
 40
0.0
 40
0.0
 40
0.0
 40
0.0001511244310275
 40
0.0001511244310275
 40
0.0001511244310275
 40
0.0003015882464905
 40
0.0003015882464905
 40
0.0003015882464905
 40
0.0006008298448508
 40
0.0006008298448508
 40
0.0006008298448508
 40
0.0006008298448508
 10
54.89608820121001
 20
-69.09909465083501
 30
0.0
 10
54.84755998300048
 20
-69.11260884908904
 30
0.0
 10
54.79768605150726
 20
-69.12149214967289
 30
0.0
 10
54.74769428629467
 20
-69.12769254707757
 30
0.0
 10
54.6978382542605
 20
-69.1338761097167
 30
0.0
 10
54.64772063855477
 20
-69.13799820865931
 30
0.0
 10
54.59758010732102
 20
-69.1411267074527
 30
0.0
 10
54.49789097705396
 20
-69.14734677166184
 30
0.0
 10
54.39791347186454
 20
-69.14846727215611
 30
0.0
 10
54.29803131018438
 20
-69.14887429827091
 30
0.0
  0
SPLINE
  5
C2
330
1F
100
AcDbEntity
  8
0
  6
Continuous
 62
     7
370
    25
100
AcDbSpline
210
0.0
220
0.0
230
1.0
 70
     8
 71
     3
 72
    17
 73
    13
 74
     0
 42
0.00000001
 43
0.00000001
 40
0.0
 40
0.0
 40
0.0
 40
0.0
 40
0.0003452297103582
 40
0.0003452297103582
 40
0.0003452297103582
 40
0.000602791231138
 40
0.000602791231138
 40
0.000602791231138
 40
0.0008619952800394
 40
0.0008619952800394
 40
0.0008619952800394
 40
0.0009923468204689
 40
0.0009923468204689
 40
0.0009923468204689
 40
0.0009923468204689
 10
55.40019477172284
 20
-68.3138382405786
 30
0.0
 10
55.39644238747524
 20
-68.4288536160851
 30
0.0
 10
55.38381714182866
 20
-68.54645477431318
 30
0.0
 10
55.3441987092117
 20
-68.65449641807807
 30
0.0
 10
55.31448225506607
 20
-68.73553482219154
 30
0.0
 10
55.27274765343171
 20
-68.81389811526857
 30
0.0
 10
55.21792135995992
 20
-68.8805642095924
 30
0.0
 10
55.16282269448433
 20
-68.94756149496611
 30
0.0
 10
55.09421389232264
 20
-69.00558148559426
 30
0.0
 10
55.01823513434639
 20
-69.04743512965331
 30
0.0
 10
54.97951404942278
 20
-69.06876501907423
 30
0.0
 10
54.93774252456043
 20
-69.08428911313486
 30
0.0
 10
54.89608820121001
 20
-69.09909465083501
 30
0.0
  0
SPLINE
  5
C3
330
1F
100
AcDbEntity
  8
0
  6
Continuous
 62
     7
370
    25
100
AcDbSpline
210
0.0
220
0.0
230
1.0
 70
     8
 71
     3
 72
    17
 73
    13
 74
     0
 42
0.00000001
 43
0.00000001
 40
0.0
 40
0.0
 40
0.0
 40
0.0
 40
0.0002909155119271
 40
0.0002909155119271
 40
0.0002909155119271
 40
0.0005428559500772
 40
0.0005428559500772
 40
0.0005428559500772
 40
0.0007896782169766
 40
0.0007896782169766
 40
0.0007896782169766
 40
0.0009602908322234
 40
0.0009602908322234
 40
0.0009602908322234
 40
0.0009602908322234
 10
54.92132858582546
 20
-67.54050090083503
 30
0.0
 10
55.0111118098828
 20
-67.57714117797579
 30
0.0
 10
55.09832176783727
 20
-67.62757265668246
 30
0.0
 10
55.16748931960822
 20
-67.69553872919734
 30
0.0
 10
55.22784754948518
 20
-67.75484850269157
 30
0.0
 10
55.27766368589046
 20
-67.82630267219454
 30
0.0
 10
55.31458220855462
 20
-67.90244587826119
 30
0.0
 10
55.35081943411413
 20
-67.97718393206034
 30
0.0
 10
55.37492181044673
 20
-68.0586287008167
 30
0.0
 10
55.38741317651768
 20
-68.14074373583232
 30
0.0
 10
55.39611404134623
 20
-68.19794098839887
 30
0.0
 10
55.39826799317726
 20
-68.25601507675678
 30
0.0
 10
55.40019477172284
 20
-68.3138382405786
 30
0.0
  0
SPLINE
  5
C4
330
1F
100
AcDbEntity
  8
0
  6
Continuous
 62
     7
370
    25
100
AcDbSpline
210
0.0
220
0.0
230
1.0
 70
     8
 71
     3
 72
    15
 73
    11
 74
     0
 42
0.00000001
 43
0.00000001
 40
0.0
 40
0.0
 40
0.0
 40
0.0
 40
0.1810472591199899
 40
0.3465057049981485
 40
0.4952454340479561
 40
0.6285345855710012
 40
0.7454085489540871
 40
0.8459263378201678
 40
0.9303072442579546
 40
0.9999999999999999
 40
0.9999999999999999
 40
0.9999999999999999
 40
0.9999999999999999
 10
54.2980313101844
 20
-67.48861788801452
 30
0.0
 10
54.33589530206004
 20
-67.48864428247774
 30
0.0
 10
54.40836306137703
 20
-67.48869479874698
 30
0.0
 10
54.51188442154356
 20
-67.49202307396412
 30
0.0
 10
54.60542249768974
 20
-67.49496910055734
 30
0.0
 10
54.68868365014509
 20
-67.50043426317362
 30
0.0
 10
54.76164185881554
 20
-67.50809743931879
 30
0.0
 10
54.82410646337649
 20
-67.51707190091416
 30
0.0
 10
54.87648621176008
 20
-67.52703425242629
 30
0.0
 10
54.90736228716608
 20
-67.5363066707672
 30
0.0
 10
54.92132858582546
 20
-67.54050090083503
 30
0.0
  0
LINE
  5
C5
330
1F
100
AcDbEntity
  8
0
  6
Continuous
 62
     7
370
    25
100
AcDbLine
 10
53.1117332333
 20
-67.488617888
 30
0.0
 11
54.2980313102
 21
-67.488617888
 31
0.0
  0
LINE
  5
C6
330
1F
100
AcDbEntity
  8
0
  6
Continuous
 62
     7
370
    25
100
AcDbLine
 10
53.1117332333
 20
-67.1745153239
 30
0.0
 11
53.1117332333
 21
-67.488617888
 31
0.0
  0
LINE
  5
C7
330
1F
100
AcDbEntity
  8
0
  6
Continuous
 62
     7
370
    25
100
AcDbLine
 10
54.356925541
 20
-67.1745153239
 30
0.0
 11
53.1117332333
 21
-67.1745153239
 31
0.0
  0
SPLINE
  5
C8
330
1F
100
AcDbEntity
  8
0
  6
Continuous
 62
     7
370
    25
100
AcDbSpline
210
0.0
220
0.0
230
1.0
 70
     8
 71
     3
 72
    20
 73
    16
 74
     0
 42
0.00000001
 43
0.00000001
 40
0.0
 40
0.0
 40
0.0
 40
0.0
 40
0.0004755983410702
 40
0.0004755983410702
 40
0.0004755983410702
 40
0.0007908431280488
 40
0.0007908431280488
 40
0.0007908431280488
 40
0.0011068459008793
 40
0.0011068459008793
 40
0.0011068459008793
 40
0.0014142194477978
 40
0.0014142194477978
 40
0.0014142194477978
 40
0.0020233250999699
 40
0.0020233250999699
 40
0.0020233250999699
 40
0.0020233250999699
 10
55.71429733582539
 20
-68.3166427277581
 30
0.0
 10
55.71264720296412
 20
-68.1581185355691
 30
0.0
 10
55.69474249040546
 20
-67.99593251894028
 30
0.0
 10
55.64129730689038
 20
-67.84668019967296
 30
0.0
 10
55.60569411091085
 20
-67.74725384871337
 30
0.0
 10
55.55344406421817
 20
-67.65227210508425
 30
0.0
 10
55.48789388667149
 20
-67.56946895869058
 30
0.0
 10
55.42225086634011
 20
-67.48654853306171
 30
0.0
 10
55.34153355130373
 20
-67.41344522952573
 30
0.0
 10
55.25171061175746
 20
-67.357618330669
 30
0.0
 10
55.16404097331903
 20
-67.30312975500414
 30
0.0
 10
55.06655461709379
 20
-67.26265473402368
 30
0.0
 10
54.96668380755266
 20
-67.2365627470638
 30
0.0
 10
54.7690160687572
 20
-67.18492058969329
 30
0.0
 10
54.56121667042449
 20
-67.1766558373849
 30
0.0
 10
54.35692554095362
 20
-67.17451532391195
 30
0.0
  0
SPLINE
  5
C9
330
1F
100
AcDbEntity
  8
0
  6
Continuous
 62
     7
370
    25
100
AcDbSpline
210
0.0
220
0.0
230
1.0
 70
     8
 71
     3
 72
    23
 73
    19
 74
     0
 42
0.00000001
 43
0.00000001
 40
0.0
 40
0.0
 40
0.0
 40
0.0
 40
0.0005659368319731
 40
0.0005659368319731
 40
0.0005659368319731
 40
0.0009065582796891
 40
0.0009065582796891
 40
0.0009065582796891
 40
0.0012490653754007
 40
0.0012490653754007
 40
0.0012490653754007
 40
0.0015611995756035
 40
0.0015611995756035
 40
0.0015611995756035
 40
0.0019800092775639
 40
0.0019800092775639
 40
0.0019800092775639
 40
0.002059967902548
 40
0.002059967902548
 40
0.002059967902548
 40
0.002059967902548
 10
54.33378852172285
 20
-69.46297686237348
 30
0.0
 10
54.52242432815166
 20
-69.46105359604388
 30
0.0
 10
54.71292694817564
 20
-69.45318237338353
 30
0.0
 10
54.89770212059592
 20
-69.41516524464548
 30
0.0
 10
55.00850052186001
 20
-69.39236869124682
 30
0.0
 10
55.11863014750745
 20
-69.35564480287518
 30
0.0
 10
55.21658118561027
 20
-69.29906244958266
 30
0.0
 10
55.31502892416193
 20
-69.2421931725288
 30
0.0
 10
55.40580966251166
 20
-69.1675237286447
 30
0.0
 10
55.47721384459251
 20
-69.07905048591033
 30
0.0
 10
55.54268643104643
 20
-68.99792677767675
 30
0.0
 10
55.596208049737
 20
-68.90551373036473
 30
0.0
 10
55.63354224863343
 20
-68.80817990681253
 30
0.0
 10
55.68347877980831
 20
-68.6779905989431
 30
0.0
 10
55.70753470547932
 20
-68.53676790002841
 30
0.0
 10
55.71271013943282
 20
-68.39742613345179
 30
0.0
 10
55.71370979598287
 20
-68.370511692865
 30
0.0
 10
55.71400354270989
 20
-68.3435741241371
 30
0.0
 10
55.71429733582542
 20
-68.3166427277581
 30
0.0
  0
LINE
  5
CA
330
1F
100
AcDbEntity
  8
0
  6
Continuous
 62
     7
370
    25
100
AcDbLine
 10
53.1117332333
 20
-70.4501563496
 30
0.0
 11
53.5590489384
 21
-70.4501563496
 31
0.0
  0
LINE
  5
CB
330
1F
100
AcDbEntity
  8
0
  6
Continuous
 62
     7
370
    25
100
AcDbLine
 10
53.1117332333
 20
-70.1360537855
 30
0.0
 11
53.1117332333
 21
-70.4501563496
 31
0.0
  0
LINE
  5
CC
330
1F
100
AcDbEntity
  8
0
  6
Continuous
 62
     7
370
    25
100
AcDbLine
 10
55.1414808294
 20
-70.1360537855
 30
0.0
 11
53.1117332333
 21
-70.1360537855
 31
0.0
  0
SPLINE
  5
CD
330
1F
100
AcDbEntity
  8
0
  6
Continuous
 62
     7
370
    25
100
AcDbSpline
210
0.0
220
0.0
230
1.0
 70
     8
 71
     3
 72
    14
 73
    10
 74
     0
 42
0.00000001
 43
0.00000001
 40
0.0
 40
0.0
 40
0.0
 40
0.0
 40
0.0001991731926266
 40
0.0001991731926266
 40
0.0001991731926266
 40
0.000397822819371
 40
0.000397822819371
 40
0.000397822819371
 40
0.0007924813768236
 40
0.0007924813768236
 40
0.0007924813768236
 40
0.0007924813768236
 10
55.92603611787675
 20
-70.22930298416834
 30
0.0
 10
55.86323387198636
 20
-70.20777042004065
 30
0.0
 10
55.79871254274424
 20
-70.19069131774832
 30
0.0
 10
55.73344893646676
 20
-70.1785079232112
 30
0.0
 10
55.66826902779717
 20
-70.16634015332367
 30
0.0
 10
55.60232832475972
 20
-70.15803465231234
 30
0.0
 10
55.53628175370989
 20
-70.15217584946784
 30
0.0
 10
55.40508693649149
 20
-70.14053793161557
 30
0.0
 10
55.2731881147765
 20
-70.13689769282485
 30
0.0
 10
55.14148082941514
 20
-70.13605378545039
 30
0.0
  0
SPLINE
  5
CE
330
1F
100
AcDbEntity
  8
0
  6
Continuous
 62
     7
370
    25
100
AcDbSpline
210
0.0
220
0.0
230
1.0
 70
     8
 71
     3
 72
    17
 73
    13
 74
     0
 42
0.00000001
 43
0.00000001
 40
0.0
 40
0.0
 40
0.0
 40
0.0
 40
0.000577450685622
 40
0.000577450685622
 40
0.000577450685622
 40
0.0009439192504084
 40
0.0009439192504084
 40
0.0009439192504084
 40
0.0013137450867299
 40
0.0013137450867299
 40
0.0013137450867299
 40
0.0014929312154536
 40
0.0014929312154536
 40
0.0014929312154536
 40
0.0014929312154536
 10
56.65660502813311
 20
-71.43242798416834
 30
0.0
 10
56.65419567306118
 20
-71.23995950207362
 30
0.0
 10
56.62817635475745
 20
-71.04305828723315
 30
0.0
 10
56.55970221372181
 20
-70.8631660594935
 30
0.0
 10
56.5159525924025
 20
-70.7482289938675
 30
0.0
 10
56.4540266440772
 20
-70.63828357592416
 30
0.0
 10
56.37607196764638
 20
-70.54316456182674
 30
0.0
 10
56.29770791792355
 20
-70.44754603717121
 30
0.0
 10
56.19939729119572
 20
-70.36575888947102
 30
0.0
 10
56.09166470980679
 20
-70.30511635115394
 30
0.0
 10
56.03875307193951
 20
-70.27533245490437
 30
0.0
 10
55.98261490203809
 20
-70.25133848008798
 30
0.0
 10
55.92603611787672
 20
-70.22930298416834
 30
0.0
  0
SPLINE
  5
CF
330
1F
100
AcDbEntity
  8
0
  6
Continuous
 62
     7
370
    25
100
AcDbSpline
210
0.0
220
0.0
230
1.0
 70
     8
 71
     3
 72
    19
 73
    15
 74
     0
 42
0.00000001
 43
0.00000001
 40
0.0
 40
0.0
 40
0.0
 40
0.0
 40
0.0969360539243019
 40
0.1851125556942336
 40
0.2645719464010411
 40
0.3370708766029031
 40
0.407276091961333
 40
0.4798176973911366
 40
0.5565437803317433
 40
0.6378411293533182
 40
0.7231347934224698
 40
0.8115834009995658
 40
0.9035119508976402
 40
1.0
 40
1.0
 40
1.0
 40
1.0
 10
55.84891272044082
 20
-72.73861788801449
 30
0.0
 10
55.89698089620909
 20
-72.71601219553449
 30
0.0
 10
55.98877360391466
 20
-72.67284355663482
 30
0.0
 10
56.1138405302987
 20
-72.59918262175137
 30
0.0
 10
56.22103925255173
 20
-72.5226553089416
 30
0.0
 10
56.31200333776684
 20
-72.44131379440454
 30
0.0
 10
56.38850249052693
 20
-72.35118985012978
 30
0.0
 10
56.45569745388377
 20
-72.25121980183526
 30
0.0
 10
56.51426951095803
 20
-72.13909163740038
 30
0.0
 10
56.56539941427071
 20
-72.01583894529848
 30
0.0
 10
56.60674687875616
 20
-71.88215004272793
 30
0.0
 10
56.6357673989242
 20
-71.73937001699333
 30
0.0
 10
56.65375889143051
 20
-71.58853946029272
 30
0.0
 10
56.65564113309058
 20
-71.48529792459942
 30
0.0
 10
56.65660502813311
 20
-71.43242798416836
 30
0.0
  0
LINE
  5
D0
330
1F
100
AcDbEntity
  8
0
  6
Continuous
 62
     7
370
    25
100
AcDbLine
 10
55.8489127204
 20
-72.4245153239
 30
0.0
 11
55.8489127204
 21
-72.738617888
 31
0.0
  0
SPLINE
  5
D1
330
1F
100
AcDbEntity
  8
0
  6
Continuous
 62
     7
370
    25
100
AcDbSpline
210
0.0
220
0.0
230
1.0
 70
     8
 71
     3
 72
    14
 73
    10
 74
     0
 42
0.00000001
 43
0.00000001
 40
0.0
 40
0.0
 40
0.0
 40
0.0
 40
0.0004889534054414
 40
0.0004889534054414
 40
0.0004889534054414
 40
0.0007924154600131
 40
0.0007924154600131
 40
0.0007924154600131
 40
0.0011288836956979
 40
0.0011288836956979
 40
0.0011288836956979
 40
0.0011288836956979
 10
56.34250246403052
 20
-71.46257622134783
 30
0.0
 10
56.33837350046467
 20
-71.62550838092884
 30
0.0
 10
56.32271587093887
 20
-71.79299945040815
 30
0.0
 10
56.26466042736089
 20
-71.94529358173574
 30
0.0
 10
56.22838271778943
 20
-72.04045920144748
 30
0.0
 10
56.17546129417225
 20
-72.13088065191451
 30
0.0
 10
56.10958190653553
 20
-72.20854965262575
 30
0.0
 10
56.03659284829085
 20
-72.29460065309921
 30
0.0
 10
55.94436693169086
 20
-72.36434331330432
 30
0.0
 10
55.84891272044082
 20
-72.42451532391193
 30
0.0
  0
SPLINE
  5
D2
330
1F
100
AcDbEntity
  8
0
  6
Continuous
 62
     7
370
    25
100
AcDbSpline
210
0.0
220
0.0
230
1.0
 70
     8
 71
     3
 72
    23
 73
    19
 74
     0
 42
0.00000001
 43
0.00000001
 40
0.0
 40
0.0
 40
0.0
 40
0.0
 40
0.0607767248964014
 40
0.1174325792715373
 40
0.169606298817927
 40
0.2178531191114997
 40
0.2614163689238883
 40
0.3012648891100206
 40
0.337322962906588
 40
0.3703157292173338
 40
0.4334345798760287
 40
0.4989619900313624
 40
0.5688767675818425
 40
0.6447808098226648
 40
0.7255125289901481
 40
0.8107187282044339
 40
0.9018199692977676
 40
1.0
 40
1.0
 40
1.0
 40
1.0
 10
55.31185342556905
 20
-70.45015634955296
 30
0.0
 10
55.34574884388285
 20
-70.45033406060354
 30
0.0
 10
55.41124145482668
 20
-70.4506774332856
 30
0.0
 10
55.50570432986188
 20
-70.45585967121838
 30
0.0
 10
55.59301211613696
 20
-70.4631611626418
 30
0.0
 10
55.67257428499114
 20
-70.47428977773441
 30
0.0
 10
55.74466216615373
 20
-70.48833420068607
 30
0.0
 10
55.80930342812299
 20
-70.50469484344076
 30
0.0
 10
55.86665232063234
 20
-70.52498111859974
 30
0.0
 10
55.93328270347539
 20
-70.55680755130714
 30
0.0
 10
56.00802361953907
 20
-70.60805505169245
 30
0.0
 10
56.08927675900063
 20
-70.68395755671644
 30
0.0
 10
56.16049101558237
 20
-70.77841783293842
 30
0.0
 10
56.2248816287789
 20
-70.88736561723658
 30
0.0
 10
56.27848874347724
 20
-71.01162344419839
 30
0.0
 10
56.31581048219833
 20
-71.15041828035936
 30
0.0
 10
56.33833265075067
 20
-71.3022171848785
 30
0.0
 10
56.34107829878712
 20
-71.40780691853338
 30
0.0
 10
56.34250246403055
 20
-71.46257622134783
 30
0.0
  0
LINE
  5
D3
330
1F
100
AcDbEntity
  8
0
  6
Continuous
 62
     7
370
    25
100
AcDbLine
 10
55.1793414063
 20
-70.4501563496
 30
0.0
 11
55.3118534256
 21
-70.4501563496
 31
0.0
  0
SPLINE
  5
D4
330
1F
100
AcDbEntity
  8
0
  6
Continuous
 62
     7
370
    25
100
AcDbSpline
210
0.0
220
0.0
230
1.0
 70
     8
 71
     3
 72
    15
 73
    11
 74
     0
 42
0.00000001
 43
0.00000001
 40
0.0
 40
0.0
 40
0.0
 40
0.0
 40
0.126843028730991
 40
0.2510063335601619
 40
0.3752673640483164
 40
0.5004273134004691
 40
0.6255573077249035
 40
0.7490589417258106
 40
0.8734161856193627
 40
1.0
 40
1.0
 40
1.0
 40
1.0
 10
55.66942554095364
 20
-71.47239192647604
 30
0.0
 10
55.66803702888679
 20
-71.42274726983717
 30
0.0
 10
55.66528933887579
 20
-71.3245067644784
 30
0.0
 10
55.6404165222128
 20
-71.17936597839312
 30
0.0
 10
55.60031667583612
 20
-71.03861073133534
 30
0.0
 10
55.54497503743588
 20
-70.90263617758946
 30
0.0
 10
55.47512470584512
 20
-70.77384636165691
 30
0.0
 10
55.39114977055459
 20
-70.65416068486891
 30
0.0
 10
55.29245350197132
 20
-70.54527094366209
 30
0.0
 10
55.21726780948396
 20
-70.48204820356759
 30
0.0
 10
55.17934140633826
 20
-70.45015634955296
 30
0.0
  0
SPLINE
  5
D5
330
1F
100
AcDbEntity
  8
0
  6
Continuous
 62
     7
370
    25
100
AcDbSpline
210
0.0
220
0.0
230
1.0
 70
     8
 71
     3
 72
    20
 73
    16
 74
     0
 42
0.00000001
 43
0.00000001
 40
0.0
 40
0.0
 40
0.0
 40
0.0
 40
0.0004574602923427
 40
0.0004574602923427
 40
0.0004574602923427
 40
0.0009165548101294
 40
0.0009165548101294
 40
0.0009165548101294
 40
0.0013368669113507
 40
0.0013368669113507
 40
0.0013368669113507
 40
0.0017703134029988
 40
0.0017703134029988
 40
0.0017703134029988
 40
0.0020290245365796
 40
0.0020290245365796
 40
0.0020290245365796
 40
0.0020290245365796
 10
54.38216592556896
 20
-72.78348968288628
 30
0.0
 10
54.53461991218062
 20
-72.78032816485857
 30
0.0
 10
54.6901133294268
 20
-72.75899057113192
 30
0.0
 10
54.83294543984499
 20
-72.70559392832062
 30
0.0
 10
54.97647456476842
 20
-72.65193671220786
 30
0.0
 10
55.11321741509981
 20
-72.57197096562074
 30
0.0
 10
55.22784874167255
 20
-72.47028829497113
 30
0.0
 10
55.33316278935371
 20
-72.376870431414
 30
0.0
 10
55.42238529278657
 20
-72.26316386590102
 30
0.0
 10
55.49217162094899
 20
-72.14090261172714
 30
0.0
 10
55.56409702838383
 20
-72.01489382531445
 30
0.0
 10
55.61633227860413
 20
-71.8754814117987
 30
0.0
 10
55.64448376850051
 20
-71.73314739582048
 30
0.0
 10
55.6614251946205
 20
-71.64749149537163
 30
0.0
 10
55.66758295849933
 20
-71.55968768863309
 30
0.0
 10
55.66942554095361
 20
-71.47239192647604
 30
0.0
  0
SPLINE
  5
D6
330
1F
100
AcDbEntity
  8
0
  6
Continuous
 62
     7
370
    25
100
AcDbSpline
210
0.0
220
0.0
230
1.0
 70
     8
 71
     3
 72
    31
 73
    27
 74
     0
 42
0.00000001
 43
0.00000001
 40
0.0
 40
0.0
 40
0.0
 40
0.0
 40
0.0413568595286709
 40
0.0825538112938445
 40
0.1237716557753121
 40
0.1647842927049848
 40
0.2059352431561975
 40
0.2475328814301321
 40
0.2896774566944614
 40
0.3325671990789665
 40
0.3754502498739963
 40
0.417751150804639
 40
0.4594466384465578
 40
0.5009268295327809
 40
0.5423904130414937
 40
0.5837750195437993
 40
0.625524157846078
 40
0.6678304857959175
 40
0.7101218877672116
 40
0.75150926794375
 40
0.7927897271292741
 40
0.8338415302968668
 40
0.8749310655513776
 40
0.9160945669137671
 40
0.9579658813361557
 40
1.0
 40
1.0
 40
1.0
 40
1.0
 10
53.06686143838951
 20
-71.46257622134783
 30
0.0
 10
53.06740327840265
 20
-71.49110782810611
 30
0.0
 10
53.06848486338534
 20
-71.54806072315364
 30
0.0
 10
53.07714958441059
 20
-71.63310306090892
 30
0.0
 10
53.09137182632842
 20
-71.71707045453141
 30
0.0
 10
53.10980702154819
 20
-71.80025036929439
 30
0.0
 10
53.13583012058373
 20
-71.88162290871834
 30
0.0
 10
53.1653642401139
 20
-71.9626211437391
 30
0.0
 10
53.20257683703849
 20
-72.04173496153201
 30
0.0
 10
53.24335908355851
 20
-72.12001235004871
 30
0.0
 10
53.28947042071952
 20
-72.19546460004463
 30
0.0
 10
53.3400844469891
 20
-72.26692748029095
 30
0.0
 10
53.39410941187251
 20
-72.33462247263616
 30
0.0
 10
53.45245090508907
 20
-72.39788228967453
 30
0.0
 10
53.51496732695738
 20
-72.45667420529475
 30
0.0
 10
53.58105549888331
 20
-72.51171607955452
 30
0.0
 10
53.65138214478799
 20
-72.5622485603616
 30
0.0
 10
53.72542975972239
 20
-72.60833265301311
 30
0.0
 10
53.80210829116785
 20
-72.6493424026895
 30
0.0
 10
53.88038880027501
 20
-72.68556116202646
 30
0.0
 10
53.96032925668651
 20
-72.71568473458373
 30
0.0
 10
54.04195400844991
 20
-72.7400072570946
 30
0.0
 10
54.12466015014189
 20
-72.76021502609052
 30
0.0
 10
54.20938958538385
 20
-72.77298321551457
 30
0.0
 10
54.29526897077128
 20
-72.78193419486598
 30
0.0
 10
54.35316282956987
 20
-72.78297051661073
 30
0.0
 10
54.38216592556899
 20
-72.78348968288628
 30
0.0
  0
SPLINE
  5
D7
330
1F
100
AcDbEntity
  8
0
  6
Continuous
 62
     7
370
    25
100
AcDbSpline
210
0.0
220
0.0
230
1.0
 70
     8
 71
     3
 72
    14
 73
    10
 74
     0
 42
0.00000001
 43
0.00000001
 40
0.0
 40
0.0
 40
0.0
 40
0.0
 40
0.0005454859062243
 40
0.0005454859062243
 40
0.0005454859062243
 40
0.0009529979111019
 40
0.0009529979111019
 40
0.0009529979111019
 40
0.0011544921253184
 40
0.0011544921253184
 40
0.0011544921253184
 40
0.0011544921253184
 10
53.5590489383895
 20
-70.45015634955296
 30
0.0
 10
53.4227564688953
 20
-70.57051421349857
 30
0.0
 10
53.29045923988384
 20
-70.70491588052958
 30
0.0
 10
53.20586460356078
 20
-70.86586742652945
 30
0.0
 10
53.14210924017626
 20
-70.98716973065349
 30
0.0
 10
53.10145614477063
 20
-71.12214424674784
 30
0.0
 10
53.0815294406615
 20
-71.25772419293989
 30
0.0
 10
53.07157472697546
 20
-71.32545539116113
 30
0.0
 10
53.06883456972239
 20
-71.39414583124373
 30
0.0
 10
53.06686143838954
 20
-71.46257622134783
 30
0.0
  0
LINE
  5
D8
330
1F
100
AcDbEntity
  8
0
  6
Continuous
 62
     7
370
    25
100
AcDbLine
 10
53.1117332333
 20
-75.6552845547
 30
0.0
 11
55.669425541
 21
-75.6552845547
 31
0.0
  0
LINE
  5
D9
330
1F
100
AcDbEntity
  8
0
  6
Continuous
 62
     7
370
    25
100
AcDbLine
 10
53.1117332333
 20
-75.3411819906
 30
0.0
 11
53.1117332333
 21
-75.6552845547
 31
0.0
  0
LINE
  5
DA
330
1F
100
AcDbEntity
  8
0
  6
Continuous
 62
     7
370
    25
100
AcDbLine
 10
53.5730713743
 20
-75.3411819906
 30
0.0
 11
53.1117332333
 21
-75.3411819906
 31
0.0
  0
SPLINE
  5
DB
330
1F
100
AcDbEntity
  8
0
  6
Continuous
 62
     7
370
    25
100
AcDbSpline
210
0.0
220
0.0
230
1.0
 70
     8
 71
     3
 72
    15
 73
    11
 74
     0
 42
0.00000001
 43
0.00000001
 40
0.0
 40
0.0
 40
0.0
 40
0.0
 40
0.1231470272446712
 40
0.24342450454505
 40
0.3619099087025514
 40
0.4800966573296795
 40
0.6010447854806811
 40
0.7268458604273209
 40
0.8590162698161834
 40
1.0
 40
1.0
 40
1.0
 40
1.0
 10
53.06686143838957
 20
-74.36802493929656
 30
0.0
 10
53.06837389145236
 20
-74.41485297509715
 30
0.0
 10
53.07136355466793
 20
-74.50741786820599
 30
0.0
 10
53.09425253981273
 20
-74.64352923018559
 30
0.0
 10
53.13240299272423
 20
-74.77401995278424
 30
0.0
 10
53.18530759504755
 20
-74.8995963193869
 30
0.0
 10
53.25525923911096
 20
-75.01990200871877
 30
0.0
 10
53.34410294441519
 20
-75.1336990497852
 30
0.0
 10
53.44997513712943
 20
-75.24283568615003
 30
0.0
 10
53.53116608632993
 20
-75.30770224902228
 30
0.0
 10
53.57307137428699
 20
-75.3411819905786
 30
0.0
  0
SPLINE
  5
DC
330
1F
100
AcDbEntity
  8
0
  6
Continuous
 62
     7
370
    25
100
AcDbSpline
210
0.0
220
0.0
230
1.0
 70
     8
 71
     3
 72
    23
 73
    19
 74
     0
 42
0.00000001
 43
0.00000001
 40
0.0
 40
0.0
 40
0.0
 40
0.0
 40
0.0679270845813239
 40
0.1317254824539864
 40
0.1906682848325093
 40
0.2451967695504018
 40
0.2955086346326068
 40
0.3416161785232862
 40
0.3833927405479253
 40
0.4218026382948787
 40
0.4933187224746497
 40
0.5629238991979852
 40
0.6330781370057019
 40
0.7045117137648604
 40
0.7765663402089207
 40
0.8487461492182662
 40
0.92275961278163
 40
0.9999999999999999
 40
0.9999999999999999
 40
0.9999999999999999
 40
0.9999999999999999
 10
54.36323563710749
 20
-73.41169481109144
 30
0.0
 10
54.32162790194317
 20
-73.4118173844885
 30
0.0
 10
54.24094139784674
 20
-73.41205508112989
 30
0.0
 10
54.12427840743766
 20
-73.41803036086111
 30
0.0
 10
54.01603363068322
 20
-73.4263842285024
 30
0.0
 10
53.91622575102381
 20
-73.43692286553001
 30
0.0
 10
53.82509317971815
 20
-73.45272049419421
 30
0.0
 10
53.74226923641909
 20
-73.47035048717169
 30
0.0
 10
53.66796080841438
 20
-73.4921439906273
 30
0.0
 10
53.58107676522577
 20
-73.52529972500993
 30
0.0
 10
53.48330529216452
 20
-73.57660791017508
 30
0.0
 10
53.37853100967963
 20
-73.65336938731421
 30
0.0
 10
53.28696119953
 20
-73.74542468869926
 30
0.0
 10
53.20847951988775
 20
-73.85061865538667
 30
0.0
 10
53.14492973810281
 20
-73.96703742928187
 30
0.0
 10
53.10017292282265
 20
-74.09343214646931
 30
0.0
 10
53.07172473811053
 20
-74.22793976904923
 30
0.0
 10
53.06850543237776
 20
-74.32067042879265
 30
0.0
 10
53.06686143838954
 20
-74.36802493929655
 30
0.0
  0
LINE
  5
DD
330
1F
100
AcDbEntity
  8
0
  6
Continuous
 62
     7
370
    25
100
AcDbLine
 10
55.669425541
 20
-73.4116948111
 30
0.0
 11
54.3632356371
 21
-73.4116948111
 31
0.0
  0
LINE
  5
DE
330
1F
100
AcDbEntity
  8
0
  6
Continuous
 62
     7
370
    25
100
AcDbLine
 10
55.669425541
 20
-73.7257973752
 30
0.0
 11
55.669425541
 21
-73.4116948111
 31
0.0
  0
LINE
  5
DF
330
1F
100
AcDbEntity
  8
0
  6
Continuous
 62
     7
370
    25
100
AcDbLine
 10
54.466300541
 20
-73.7257973752
 30
0.0
 11
55.669425541
 21
-73.7257973752
 31
0.0
  0
SPLINE
  5
E0
330
1F
100
AcDbEntity
  8
0
  6
Continuous
 62
     7
370
    25
100
AcDbSpline
210
0.0
220
0.0
230
1.0
 70
     8
 71
     3
 72
    14
 73
    10
 74
     0
 42
0.00000001
 43
0.00000001
 40
0.0
 40
0.0
 40
0.0
 40
0.0
 40
0.0001464416022752
 40
0.0001464416022752
 40
0.0001464416022752
 40
0.0002924544292707
 40
0.0002924544292707
 40
0.0002924544292707
 40
0.0005834541683151
 40
0.0005834541683151
 40
0.0005834541683151
 40
0.0005834541683151
 10
53.88436945121008
 20
-73.7629568303222
 30
0.0
 10
53.93206730620759
 20
-73.75257857027407
 30
0.0
 10
53.98056278759788
 20
-73.74563086619956
 30
0.0
 10
54.0291579449253
 20
-73.7410152040242
 30
0.0
 10
54.07767008248535
 20
-73.73640742722715
 30
0.0
 10
54.12631811671162
 20
-73.73307966502753
 30
0.0
 10
54.17500127925695
 20
-73.73093285757544
 30
0.0
 10
54.27202183446914
 20
-73.72665449027052
 30
0.0
 10
54.36918718126152
 20
-73.72633396608498
 30
0.0
 10
54.46630054095361
 20
-73.72579737519398
 30
0.0
  0
SPLINE
  5
E1
330
1F
100
AcDbEntity
  8
0
  6
Continuous
 62
     7
370
    25
100
AcDbSpline
210
0.0
220
0.0
230
1.0
 70
     8
 71
     3
 72
    15
 73
    11
 74
     0
 42
0.00000001
 43
0.00000001
 40
0.0
 40
0.0
 40
0.0
 40
0.0
 40
0.140748527435982
 40
0.2700378340351653
 40
0.3907463428101107
 40
0.5068577758399007
 40
0.6215674097993341
 40
0.7398423512061754
 40
0.8644710000357734
 40
1.0
 40
1.0
 40
1.0
 40
1.0
 10
53.38096400249212
 20
-74.42271243929656
 30
0.0
 10
53.38222887873112
 20
-74.38004820192113
 30
0.0
 10
53.38465564969736
 20
-74.29819329045958
 30
0.0
 10
53.40903440349224
 20
-74.18181828869535
 30
0.0
 10
53.44799979038492
 20
-74.07749859758512
 30
0.0
 10
53.50420090995092
 20
-73.9863138738418
 30
0.0
 10
53.57639484345283
 20
-73.90811252986298
 30
0.0
 10
53.66505115163306
 20
-73.84499486149628
 30
0.0
 10
53.76834650169798
 20
-73.79382484498257
 30
0.0
 10
53.84462973704579
 20
-73.77352961859022
 30
0.0
 10
53.88436945121008
 20
-73.7629568303222
 30
0.0
  0
SPLINE
  5
E2
330
1F
100
AcDbEntity
  8
0
  6
Continuous
 62
     7
370
    25
100
AcDbSpline
210
0.0
220
0.0
230
1.0
 70
     8
 71
     3
 72
    17
 73
    13
 74
     0
 42
0.00000001
 43
0.00000001
 40
0.0
 40
0.0
 40
0.0
 40
0.0
 40
0.000316823244569
 40
0.000316823244569
 40
0.000316823244569
 40
0.0006333052918327
 40
0.0006333052918327
 40
0.0006333052918327
 40
0.0009629091141165
 40
0.0009629091141165
 40
0.0009629091141165
 40
0.0011764385376343
 40
0.0011764385376343
 40
0.0011764385376343
 40
0.0011764385376343
 10
54.05824765633827
 20
-75.29280458673246
 30
0.0
 10
53.95685356803964
 20
-75.26327095614317
 30
0.0
 10
53.85721831663787
 20
-75.21997348949058
 30
0.0
 10
53.77121076449851
 20
-75.15868974407073
 30
0.0
 10
53.68504296737456
 20
-75.09729181783074
 30
0.0
 10
53.60848217764897
 20
-75.02025155087428
 30
0.0
 10
53.54652589660028
 20
-74.93448434358392
 30
0.0
 10
53.48228010949757
 20
-74.84554773140026
 30
0.0
 10
53.43316209744437
 20
-74.74306965516348
 30
0.0
 10
53.40635303742339
 20
-74.6366811386406
 30
0.0
 10
53.38880279521313
 20
-74.56703512226017
 30
0.0
 10
53.38229723137941
 20
-74.49452330964385
 30
0.0
 10
53.38096400249209
 20
-74.42271243929656
 30
0.0
  0
SPLINE
  5
E3
330
1F
100
AcDbEntity
  8
0
  6
Continuous
 62
     7
370
    25
100
AcDbSpline
210
0.0
220
0.0
230
1.0
 70
     8
 71
     3
 72
    14
 73
    10
 74
     0
 42
0.00000001
 43
0.00000001
 40
0.0
 40
0.0
 40
0.0
 40
0.0
 40
0.0001724863044787
 40
0.0001724863044787
 40
0.0001724863044787
 40
0.0003450240345243
 40
0.0003450240345243
 40
0.0003450240345243
 40
0.0006898418439015
 40
0.0006898418439015
 40
0.0006898418439015
 40
0.0006898418439015
 10
54.74464589351777
 20
-75.3411819905786
 30
0.0
 10
54.68715087677206
 20
-75.34096272984306
 30
0.0
 10
54.62965172697784
 20
-75.34079456614764
 30
0.0
 10
54.57216532318371
 20
-75.33977554471669
 30
0.0
 10
54.51466930469115
 20
-75.33875635285268
 30
0.0
 10
54.45720472368743
 20
-75.33622111776101
 30
0.0
 10
54.39976520357973
 20
-75.33347659150742
 30
0.0
 10
54.28525222267938
 20
-75.3280050297348
 30
0.0
 10
54.1700151540899
 20
-75.31832295715958
 30
0.0
 10
54.05824765633827
 20
-75.29280458673244
 30
0.0
  0
LINE
  5
E4
330
1F
100
AcDbEntity
  8
0
  6
Continuous
 62
     7
370
    25
100
AcDbLine
 10
55.669425541
 20
-75.3411819906
 30
0.0
 11
54.7446458935
 21
-75.3411819906
 31
0.0
  0
LINE
  5
E5
330
1F
100
AcDbEntity
  8
0
  6
Continuous
 62
     7
370
    25
100
AcDbLine
 10
55.669425541
 20
-75.6552845547
 30
0.0
 11
55.669425541
 21
-75.3411819906
 31
0.0
  0
LINE
  5
E6
330
1F
100
AcDbEntity
  8
0
  6
Continuous
 62
     7
370
    25
100
AcDbLine
 10
53.1117332333
 20
-76.3732332726
 30
0.0
 11
53.1117332333
 21
-76.6873358367
 31
0.0
  0
LINE
  5
E7
330
1F
100
AcDbEntity
  8
0
  6
Continuous
 62
     7
370
    25
100
AcDbLine
 10
55.669425541
 20
-76.3732332726
 30
0.0
 11
53.1117332333
 21
-76.3732332726
 31
0.0
  0
LINE
  5
E8
330
1F
100
AcDbEntity
  8
0
  6
Continuous
 62
     7
370
    25
100
AcDbLine
 10
55.669425541
 20
-76.6873358367
 30
0.0
 11
55.669425541
 21
-76.3732332726
 31
0.0
  0
LINE
  5
E9
330
1F
100
AcDbEntity
  8
0
  6
Continuous
 62
     7
370
    25
100
AcDbLine
 10
55.2270176884
 20
-76.6873358367
 30
0.0
 11
55.669425541
 21
-76.6873358367
 31
0.0
  0
SPLINE
  5
EA
330
1F
100
AcDbEntity
  8
0
  6
Continuous
 62
     7
370
    25
100
AcDbSpline
210
0.0
220
0.0
230
1.0
 70
     8
 71
     3
 72
    15
 73
    11
 74
     0
 42
0.00000001
 43
0.00000001
 40
0.0
 40
0.0
 40
0.0
 40
0.0
 40
0.127622531597955
 40
0.2518406704129968
 40
0.3726784726701841
 40
0.4928072486601732
 40
0.6136950266729964
 40
0.7375402709103727
 40
0.8657092931879986
 40
1.0
 40
1.0
 40
1.0
 40
1.0
 10
55.71429733582542
 20
-77.73200731109142
 30
0.0
 10
55.71311319691491
 20
-77.68120377047363
 30
0.0
 10
55.71077650657224
 20
-77.58095189826628
 30
0.0
 10
55.68738753833408
 20
-77.43413700387683
 30
0.0
 10
55.65098350699982
 20
-77.29331381885736
 30
0.0
 10
55.59985762461264
 20
-77.15834780339199
 30
0.0
 10
55.53151948941451
 20
-77.02994438220753
 30
0.0
 10
55.44811712129277
 20
-76.9068458109937
 30
0.0
 10
55.34511633656838
 20
-76.79214099494006
 30
0.0
 10
55.26699130782978
 20
-76.72280992194992
 30
0.0
 10
55.22701768838947
 20
-76.68733583673246
 30
0.0
  0
SPLINE
  5
EB
330
1F
100
AcDbEntity
  8
0
  6
Continuous
 62
     7
370
    25
100
AcDbSpline
210
0.0
220
0.0
230
1.0
 70
     8
 71
     3
 72
    23
 73
    19
 74
     0
 42
0.00000001
 43
0.00000001
 40
0.0
 40
0.0
 40
0.0
 40
0.0
 40
0.0649540853154702
 40
0.1280988297755904
 40
0.1896694721890567
 40
0.2507063934632496
 40
0.3118906664385909
 40
0.3732647830705226
 40
0.4358087922280646
 40
0.5004244558059556
 40
0.5650608900029894
 40
0.6276710388631739
 40
0.6893315462593286
 40
0.7500699293139552
 40
0.8109958734420564
 40
0.8725665158555307
 40
0.9353800086592317
 40
1.0
 40
1.0
 40
1.0
 40
1.0
 10
54.38356816915876
 20
-79.06554096493758
 30
0.0
 10
54.428970284326
 20
-79.06431516179906
 30
0.0
 10
54.51850980742154
 20
-79.06189770111412
 30
0.0
 10
54.64999968096154
 20
-79.0431572544135
 30
0.0
 10
54.77647684890122
 20
-79.01318362015554
 30
0.0
 10
54.89779176843529
 20
-78.97018727571478
 30
0.0
 10
55.01352492232395
 20
-78.91436719500754
 30
0.0
 10
55.12456722621661
 20
-78.84761411515278
 30
0.0
 10
55.22951277309174
 20
-78.76755284253062
 30
0.0
 10
55.32790776027541
 20
-78.67632084215468
 30
0.0
 10
55.41849578862828
 20
-78.57724930319085
 30
0.0
 10
55.49773661870886
 20
-78.47137661117175
 30
0.0
 10
55.56427786675033
 20
-78.36031651449942
 30
0.0
 10
55.6198586883885
 20
-78.24464436906533
 30
0.0
 10
55.66175957788028
 20
-78.12336979640354
 30
0.0
 10
55.69189019952236
 20
-77.99727754695087
 30
0.0
 10
55.71065250314064
 20
-77.86624846981194
 30
0.0
 10
55.71307096355629
 20
-77.77717526492397
 30
0.0
 10
55.71429733582542
 20
-77.73200731109142
 30
0.0
  0
SPLINE
  5
EC
330
1F
100
AcDbEntity
  8
0
  6
Continuous
 62
     7
370
    25
100
AcDbSpline
210
0.0
220
0.0
230
1.0
 70
     8
 71
     3
 72
    20
 73
    16
 74
     0
 42
0.00000001
 43
0.00000001
 40
0.0
 40
0.0
 40
0.0
 40
0.0
 40
0.000481556657636
 40
0.000481556657636
 40
0.000481556657636
 40
0.0009666419759702
 40
0.0009666419759702
 40
0.0009666419759702
 40
0.0014099769325706
 40
0.0014099769325706
 40
0.0014099769325706
 40
0.0018803448253366
 40
0.0018803448253366
 40
0.0018803448253366
 40
0.0020761993187491
 40
0.0020761993187491
 40
0.0020761993187491
 40
0.0020761993187491
 10
53.06686143838954
 20
-77.72219160596322
 30
0.0
 10
53.07145637868641
 20
-77.88264471203287
 30
0.0
 10
53.0921080235501
 20
-78.04640108690957
 30
0.0
 10
53.1480576384693
 20
-78.19685358211693
 30
0.0
 10
53.2044247881994
 20
-78.34842885813752
 30
0.0
 10
53.29132200384868
 20
-78.4912060895127
 30
0.0
 10
53.39829125719894
 20
-78.61249046075275
 30
0.0
 10
53.4964983636074
 20
-78.72384009421287
 30
0.0
 10
53.6123394307603
 20
-78.8227235108224
 30
0.0
 10
53.74066616740211
 20
-78.89739362052961
 30
0.0
 10
53.87618688336471
 20
-78.9762497263836
 30
0.0
 10
54.02976040463875
 20
-79.02969523389854
 30
0.0
 10
54.1849921619891
 20
-79.05176900556076
 30
0.0
 10
54.25068234214505
 20
-79.06111007121616
 30
0.0
 10
54.31724349732273
 20
-79.06367195922617
 30
0.0
 10
54.38356816915876
 20
-79.06554096493758
 30
0.0
  0
SPLINE
  5
ED
330
1F
100
AcDbEntity
  8
0
  6
Continuous
 62
     7
370
    25
100
AcDbSpline
210
0.0
220
0.0
230
1.0
 70
     8
 71
     3
 72
    14
 73
    10
 74
     0
 42
0.00000001
 43
0.00000001
 40
0.0
 40
0.0
 40
0.0
 40
0.0
 40
0.0004554788193008
 40
0.0004554788193008
 40
0.0004554788193008
 40
0.000917423043544
 40
0.000917423043544
 40
0.000917423043544
 40
0.0011984478134825
 40
0.0011984478134825
 40
0.0011984478134825
 40
0.0011984478134825
 10
53.58499044479981
 20
-76.68733583673247
 30
0.0
 10
53.46530144412007
 20
-76.78074761500375
 30
0.0
 10
53.34989980156482
 20
-76.8858919493849
 30
0.0
 10
53.26590603748971
 20
-77.01236829025548
 30
0.0
 10
53.18091888917665
 20
-77.14034045173706
 30
0.0
 10
53.12308595774501
 20
-77.2889291424544
 30
0.0
 10
53.0930334311557
 20
-77.43958283520122
 30
0.0
 10
53.07452597981238
 20
-77.53236092092787
 30
0.0
 10
53.0694691523648
 20
-77.62762153260937
 30
0.0
 10
53.06686143838957
 20
-77.72219160596322
 30
0.0
  0
LINE
  5
EE
330
1F
100
AcDbEntity
  8
0
  6
Continuous
 62
     7
370
    25
100
AcDbLine
 10
53.1117332333
 20
-76.6873358367
 30
0.0
 11
53.5849904448
 21
-76.6873358367
 31
0.0
  0
LINE
  5
EF
330
1F
100
AcDbEntity
  8
0
  6
Continuous
 62
     7
370
    25
100
AcDbLine
 10
53.1117332333
 20
-80.0078486572
 30
0.0
 11
55.669425541
 21
-80.0078486572
 31
0.0
  0
LINE
  5
F0
330
1F
100
AcDbEntity
  8
0
  6
Continuous
 62
     7
370
    25
100
AcDbLine
 10
53.1117332333
 20
-79.6937460931
 30
0.0
 11
53.1117332333
 21
-80.0078486572
 31
0.0
  0
LINE
  5
F1
330
1F
100
AcDbEntity
  8
0
  6
Continuous
 62
     7
370
    25
100
AcDbLine
 10
55.669425541
 20
-79.6937460931
 30
0.0
 11
53.1117332333
 21
-79.6937460931
 31
0.0
  0
LINE
  5
F2
330
1F
100
AcDbEntity
  8
0
  6
Continuous
 62
     7
370
    25
100
AcDbLine
 10
55.669425541
 20
-80.0078486572
 30
0.0
 11
55.669425541
 21
-79.6937460931
 31
0.0
  0
SPLINE
  5
F3
330
1F
100
AcDbEntity
  8
0
  6
Continuous
 62
     7
370
    25
100
AcDbSpline
210
0.0
220
0.0
230
1.0
 70
     8
 71
     3
 72
    17
 73
    13
 74
     0
 42
0.00000001
 43
0.00000001
 40
0.0
 40
0.0
 40
0.0
 40
0.0
 40
0.0001314607742601
 40
0.0001314607742601
 40
0.0001314607742601
 40
0.0002429716992958
 40
0.0002429716992958
 40
0.0002429716992958
 40
0.0003459262892531
 40
0.0003459262892531
 40
0.0003459262892531
 40
0.0004353457552344
 40
0.0004353457552344
 40
0.0004353457552344
 40
0.0004353457552344
 10
52.03481015633826
 20
-79.85219961878371
 30
0.0
 10
52.03678584980151
 20
-79.89597531585554
 30
0.0
 10
52.04363923253844
 20
-79.94114028685719
 30
0.0
 10
52.06243381035344
 20
-79.9807253707088
 30
0.0
 10
52.07853246948624
 20
-80.01463231865638
 30
0.0
 10
52.10142014515149
 20
-80.04597239458477
 30
0.0
 10
52.12866108005127
 20
-80.07179446674755
 30
0.0
 10
52.15373585350461
 20
-80.09556320346528
 30
0.0
 10
52.18414590811432
 20
-80.11469412496332
 30
0.0
 10
52.21649690418237
 20
-80.12682302278213
 30
0.0
 10
52.24468463121318
 20
-80.13739104548482
 30
0.0
 10
52.27539091836086
 20
-80.14070526928094
 30
0.0
 10
52.30544316915878
 20
-80.14246404186065
 30
0.0
  0
SPLINE
  5
F4
330
1F
100
AcDbEntity
  8
0
  6
Continuous
 62
     7
370
    25
100
AcDbSpline
210
0.0
220
0.0
230
1.0
 70
     8
 71
     3
 72
    20
 73
    16
 74
     0
 42
0.00000001
 43
0.00000001
 40
0.0
 40
0.0
 40
0.0
 40
0.0
 40
0.0001119690934833
 40
0.0001119690934833
 40
0.0001119690934833
 40
0.0002113281527992
 40
0.0002113281527992
 40
0.0002113281527992
 40
0.0003172396383412
 40
0.0003172396383412
 40
0.0003172396383412
 40
0.000421475753831
 40
0.000421475753831
 40
0.000421475753831
 40
0.0004383352758422
 40
0.0004383352758422
 40
0.0004383352758422
 40
0.0004383352758422
 10
52.30544316915875
 20
-79.55913070852729
 30
0.0
 10
52.26818353873272
 20
-79.56130524194114
 30
0.0
 10
52.22988324575126
 20
-79.5674628731072
 30
0.0
 10
52.19613764955339
 20
-79.58340788462499
 30
0.0
 10
52.16604230310332
 20
-79.59762812963012
 30
0.0
 10
52.13867658581498
 20
-79.61865967371654
 30
0.0
 10
52.11609793919597
 20
-79.64311677826326
 30
0.0
 10
52.09194777589266
 20
-79.66927614373346
 30
0.0
 10
52.07139055873689
 20
-79.69963875558324
 30
0.0
 10
52.05752065702177
 20
-79.73242851947066
 30
0.0
 10
52.04389565699225
 20
-79.76463931253258
 30
0.0
 10
52.03762247815963
 20
-79.8001291093477
 30
0.0
 10
52.03566157668308
 20
-79.83504802515105
 30
0.0
 10
52.03534063288015
 20
-79.84076325856148
 30
0.0
 10
52.03507540389299
 20
-79.84648152980267
 30
0.0
 10
52.03481015633826
 20
-79.85219961878371
 30
0.0
  0
SPLINE
  5
F5
330
1F
100
AcDbEntity
  8
0
  6
Continuous
 62
     7
370
    25
100
AcDbSpline
210
0.0
220
0.0
230
1.0
 70
     8
 71
     3
 72
    20
 73
    16
 74
     0
 42
0.00000001
 43
0.00000001
 40
0.0
 40
0.0
 40
0.0
 40
0.0
 40
0.0001134004895979
 40
0.0001134004895979
 40
0.0001134004895979
 40
0.0002281021163885
 40
0.0002281021163885
 40
0.0002281021163885
 40
0.0003314501346581
 40
0.0003314501346581
 40
0.0003314501346581
 40
0.0004212992141609
 40
0.0004212992141609
 40
0.0004212992141609
 40
0.000437964704759
 40
0.000437964704759
 40
0.000437964704759
 40
0.000437964704759
 10
52.57327169479981
 20
-79.85219961878371
 30
0.0
 10
52.57151992909859
 20
-79.81444006827233
 30
0.0
 10
52.56743906041306
 20
-79.77574104273218
 30
0.0
 10
52.55381845453145
 20
-79.74048013756355
 30
0.0
 10
52.54004153481634
 20
-79.70481456851238
 30
0.0
 10
52.51833133560627
 20
-79.67170987981083
 30
0.0
 10
52.49242094216963
 20
-79.64359426414022
 30
0.0
 10
52.46910586816681
 20
-79.61829485440349
 30
0.0
 10
52.44077776421435
 20
-79.59654435567114
 30
0.0
 10
52.40959444485596
 20
-79.58200979676573
 30
0.0
 10
52.38242185757314
 20
-79.56934464184955
 30
0.0
 10
52.35222566032554
 20
-79.56248644121645
 30
0.0
 10
52.32233047985635
 20
-79.56024282061375
 30
0.0
 10
52.31670500348876
 20
-79.55982063100056
 30
0.0
 10
52.31107390742798
 20
-79.55947569399935
 30
0.0
 10
52.30544316915878
 20
-79.55913070852729
 30
0.0
  0
SPLINE
  5
F6
330
1F
100
AcDbEntity
  8
0
  6
Continuous
 62
     7
370
    25
100
AcDbSpline
210
0.0
220
0.0
230
1.0
 70
     8
 71
     3
 72
    20
 73
    16
 74
     0
 42
0.00000001
 43
0.00000001
 40
0.0
 40
0.0
 40
0.0
 40
0.0
 40
0.0001090710568601
 40
0.0001090710568601
 40
0.0001090710568601
 40
0.0002045225209388
 40
0.0002045225209388
 40
0.0002045225209388
 40
0.0002936657823886
 40
0.0002936657823886
 40
0.0002936657823886
 40
0.0003968884379474
 40
0.0003968884379474
 40
0.0003968884379474
 40
0.0004322397961816
 40
0.0004322397961816
 40
0.0004322397961816
 40
0.0004322397961816
 10
52.30544316915878
 20
-80.14246404186065
 30
0.0
 10
52.34173178405466
 20
-80.14023485902491
 30
0.0
 10
52.37907260104804
 20
-80.13423897988021
 30
0.0
 10
52.41185152922592
 20
-80.11851083012616
 30
0.0
 10
52.44078888363285
 20
-80.10462596357016
 30
0.0
 10
52.46734532434866
 20
-80.0848262848866
 30
0.0
 10
52.4895780794922
 20
-80.06167753550189
 30
0.0
 10
52.51043643294592
 20
-80.039959813449
 30
0.0
 10
52.52834122902272
 20
-80.01494577277407
 30
0.0
 10
52.54201024930777
 20
-79.98811503956729
 30
0.0
 10
52.55773210661138
 20
-79.95725482061735
 30
0.0
 10
52.56787604188898
 20
-79.92284544404613
 30
0.0
 10
52.57106982269438
 20
-79.88835878467066
 30
0.0
 10
52.57218334884714
 20
-79.87633485457746
 30
0.0
 10
52.57272719763681
 20
-79.86426271781416
 30
0.0
 10
52.57327169479978
 20
-79.85219961878371
 30
0.0
  0
LINE
  5
F7
330
1F
100
AcDbEntity
  8
0
  6
Continuous
 62
     7
370
    25
100
AcDbLine
 10
53.1117332333
 20
-81.5334896829
 30
0.0
 11
55.669425541
 21
-81.5334896829
 31
0.0
  0
LINE
  5
F8
330
1F
100
AcDbEntity
  8
0
  6
Continuous
 62
     7
370
    25
100
AcDbLine
 10
53.1117332333
 20
-81.2193871188
 30
0.0
 11
53.1117332333
 21
-81.5334896829
 31
0.0
  0
LINE
  5
F9
330
1F
100
AcDbEntity
  8
0
  6
Continuous
 62
     7
370
    25
100
AcDbLine
 10
53.4882356371
 20
-81.2193871188
 30
0.0
 11
53.1117332333
 21
-81.2193871188
 31
0.0
  0
SPLINE
  5
FA
330
1F
100
AcDbEntity
  8
0
  6
Continuous
 62
     7
370
    25
100
AcDbSpline
210
0.0
220
0.0
230
1.0
 70
     8
 71
     3
 72
    14
 73
    10
 74
     0
 42
0.00000001
 43
0.00000001
 40
0.0
 40
0.0
 40
0.0
 40
0.0
 40
0.0002209320536565
 40
0.0002209320536565
 40
0.0002209320536565
 40
0.0004420835959674
 40
0.0004420835959674
 40
0.0004420835959674
 40
0.0007832437962433
 40
0.0007832437962433
 40
0.0007832437962433
 40
0.0007832437962433
 10
53.06686143838954
 20
-80.59538872134785
 30
0.0
 10
53.07013411481676
 20
-80.66895998584236
 30
0.0
 10
53.08187860199454
 20
-80.74381882750389
 30
0.0
 10
53.10910802362073
 20
-80.81224396884991
 30
0.0
 10
53.13643931844064
 20
-80.88092510857058
 30
0.0
 10
53.17669546582557
 20
-80.9453560002303
 30
0.0
 10
53.22499744402681
 20
-81.00131149622226
 30
0.0
 10
53.29945370371755
 20
-81.08756545715404
 30
0.0
 10
53.39316931244959
 20
-81.15657092421904
 30
0.0
 10
53.4882356371075
 20
-81.21938711878374
 30
0.0
  0
SPLINE
  5
FB
330
1F
100
AcDbEntity
  8
0
  6
Continuous
 62
     7
370
    25
100
AcDbSpline
210
0.0
220
0.0
230
1.0
 70
     8
 71
     3
 72
    11
 73
     7
 74
     0
 42
0.00000001
 43
0.00000001
 40
0.0
 40
0.0
 40
0.0
 40
0.0
 40
0.2796764446730184
 40
0.5364768048235247
 40
0.7747224521329551
 40
1.0
 40
1.0
 40
1.0
 40
1.0
 10
53.15450166274852
 20
-80.32195122134785
 30
0.0
 10
53.14103062068387
 20
-80.34548488069115
 30
0.0
 10
53.1151903980189
 20
-80.39062726794168
 30
0.0
 10
53.08771237546578
 20
-80.46067071985128
 30
0.0
 10
53.07050155082405
 20
-80.52865330965551
 30
0.0
 10
53.06805196498448
 20
-80.57356239486117
 30
0.0
 10
53.06686143838957
 20
-80.59538872134786
 30
0.0
  0
LINE
  5
FC
330
1F
100
AcDbEntity
  8
0
  6
Continuous
 62
     7
370
    25
100
AcDbLine
 10
53.4265369192
 20
-80.4944271829
 30
0.0
 11
53.1545016627
 21
-80.3219512213
 31
0.0
  0
SPLINE
  5
FD
330
1F
100
AcDbEntity
  8
0
  6
Continuous
 62
     7
370
    25
100
AcDbSpline
210
0.0
220
0.0
230
1.0
 70
     8
 71
     3
 72
    14
 73
    10
 74
     0
 42
0.00000001
 43
0.00000001
 40
0.0
 40
0.0
 40
0.0
 40
0.0
 40
0.0000422712464801
 40
0.0000422712464801
 40
0.0000422712464801
 40
0.0000846408983173
 40
0.0000846408983173
 40
0.0000846408983173
 40
0.0001681501078344
 40
0.0001681501078344
 40
0.0001681501078344
 40
0.0001681501078344
 10
53.38096400249215
 20
-80.65498407391196
 30
0.0
 10
53.38173514301906
 20
-80.64091477573957
 30
0.0
 10
53.38257439818467
 20
-80.62678929366251
 30
0.0
 10
53.38495779862426
 20
-80.61290191770016
 30
0.0
 10
53.38734641441073
 20
-80.59898415343966
 30
0.0
 10
53.39099205801698
 20
-80.58526660265817
 30
0.0
 10
53.39532127647273
 20
-80.57182534100055
 30
0.0
 10
53.4038497701709
 20
-80.54534626249833
 30
0.0
 10
53.41520340257475
 20
-80.51983246196227
 30
0.0
 10
53.42653691915874
 20
-80.49442718288631
 30
0.0
  0
SPLINE
  5
FE
330
1F
100
AcDbEntity
  8
0
  6
Continuous
 62
     7
370
    25
100
AcDbSpline
210
0.0
220
0.0
230
1.0
 70
     8
 71
     3
 72
    17
 73
    13
 74
     0
 42
0.00000001
 43
0.00000001
 40
0.0
 40
0.0
 40
0.0
 40
0.0
 40
0.0003495236906278
 40
0.0003495236906278
 40
0.0003495236906278
 40
0.0005507817752664
 40
0.0005507817752664
 40
0.0005507817752664
 40
0.0006842972763327
 40
0.0006842972763327
 40
0.0006842972763327
 40
0.0008013620541675
 40
0.0008013620541675
 40
0.0008013620541675
 40
0.0008013620541675
 10
53.93204573326135
 20
-81.16329737519399
 30
0.0
 10
53.81978597173445
 20
-81.13212309129868
 30
0.0
 10
53.70763435594689
 20
-81.09100534039557
 30
0.0
 10
53.61002713942556
 20
-81.02738992310215
 30
0.0
 10
53.55388785925305
 20
-80.99080119675581
 30
0.0
 10
53.50428601130167
 20
-80.94259113341153
 30
0.0
 10
53.46459268755202
 20
-80.8886023037924
 30
0.0
 10
53.43810882530087
 20
-80.85258030836181
 30
0.0
 10
53.41576201710729
 20
-80.81273993156212
 30
0.0
 10
53.40083192345982
 20
-80.77059646921958
 30
0.0
 10
53.38777437883685
 20
-80.73373868700482
 30
0.0
 10
53.38354347489099
 20
-80.6940012740103
 30
0.0
 10
53.38096400249209
 20
-80.65498407391195
 30
0.0
  0
SPLINE
  5
FF
330
1F
100
AcDbEntity
  8
0
  6
Continuous
 62
     7
370
    25
100
AcDbSpline
210
0.0
220
0.0
230
1.0
 70
     8
 71
     3
 72
    14
 73
    10
 74
     0
 42
0.00000001
 43
0.00000001
 40
0.0
 40
0.0
 40
0.0
 40
0.0
 40
0.0002205293513973
 40
0.0002205293513973
 40
0.0002205293513973
 40
0.0004410600068609
 40
0.0004410600068609
 40
0.0004410600068609
 40
0.000881387331709
 40
0.000881387331709
 40
0.000881387331709
 40
0.000881387331709
 10
54.80985022044082
 20
-81.21938711878374
 30
0.0
 10
54.73634045775397
 20
-81.21933140595291
 30
0.0
 10
54.66282354494587
 20
-81.21912059440989
 30
0.0
 10
54.58932721343668
 20
-81.21771433380565
 30
0.0
 10
54.51582907159186
 20
-81.21630803856289
 30
0.0
 10
54.44232216255293
 20
-81.21463649744628
 30
0.0
 10
54.36888466703943
 20
-81.21133668326121
 30
0.0
 10
54.22254151359376
 20
-81.20476095229091
 30
0.0
 10
54.07468973231186
 20
-81.19664776249444
 30
0.0
 10
53.93204573326133
 20
-81.16329737519399
 30
0.0
  0
LINE
  5
100
330
1F
100
AcDbEntity
  8
0
  6
Continuous
 62
     7
370
    25
100
AcDbLine
 10
55.669425541
 20
-81.2193871188
 30
0.0
 11
54.8098502204
 21
-81.2193871188
 31
0.0
  0
LINE
  5
101
330
1F
100
AcDbEntity
  8
0
  6
Continuous
 62
     7
370
    25
100
AcDbLine
 10
55.669425541
 20
-81.5334896829
 30
0.0
 11
55.669425541
 21
-81.2193871188
 31
0.0
  0
LINE
  5
102
330
1F
100
AcDbEntity
  8
0
  6
Continuous
 62
     7
370
    25
100
AcDbLine
 10
52.5283998999
 20
-83.8219512213
 30
0.0
 11
52.5283998999
 21
-83.0591307085
 31
0.0
  0
LINE
  5
103
330
1F
100
AcDbEntity
  8
0
  6
Continuous
 62
     7
370
    25
100
AcDbLine
 10
52.169425541
 20
-83.8219512213
 30
0.0
 11
52.5283998999
 21
-83.8219512213
 31
0.0
  0
LINE
  5
104
330
1F
100
AcDbEntity
  8
0
  6
Continuous
 62
     7
370
    25
100
AcDbLine
 10
52.169425541
 20
-81.9822076316
 30
0.0
 11
52.169425541
 21
-83.8219512213
 31
0.0
  0
LINE
  5
105
330
1F
100
AcDbEntity
  8
0
  6
Continuous
 62
     7
370
    25
100
AcDbLine
 10
52.5283998999
 20
-81.9822076316
 30
0.0
 11
52.169425541
 21
-81.9822076316
 31
0.0
  0
LINE
  5
106
330
1F
100
AcDbEntity
  8
0
  6
Continuous
 62
     7
370
    25
100
AcDbLine
 10
52.5283998999
 20
-82.7450281444
 30
0.0
 11
52.5283998999
 21
-81.9822076316
 31
0.0
  0
LINE
  5
107
330
1F
100
AcDbEntity
  8
0
  6
Continuous
 62
     7
370
    25
100
AcDbLine
 10
55.669425541
 20
-82.7450281444
 30
0.0
 11
52.5283998999
 21
-82.7450281444
 31
0.0
  0
LINE
  5
108
330
1F
100
AcDbEntity
  8
0
  6
Continuous
 62
     7
370
    25
100
AcDbLine
 10
55.669425541
 20
-83.0591307085
 30
0.0
 11
55.669425541
 21
-82.7450281444
 31
0.0
  0
LINE
  5
109
330
1F
100
AcDbEntity
  8
0
  6
Continuous
 62
     7
370
    25
100
AcDbLine
 10
52.5283998999
 20
-83.0591307085
 30
0.0
 11
55.669425541
 21
-83.0591307085
 31
0.0
  0
LINE
  5
10A
330
1F
100
AcDbEntity
  8
0
  6
Continuous
 62
     7
370
    25
100
AcDbLine
 10
67.3047757415
 20
0.1
 30
0.0
 11
67.3047757415
 21
-83.8668230162
 31
0.0
  0
LINE
  5
10B
330
1F
100
AcDbEntity
  8
0
  6
Continuous
 62
     7
370
    25
100
AcDbLine
 10
67.3047757415
 20
0.1
 30
0.0
 11
13.1632723885
 21
0.1
 31
0.0
  0
LINE
  5
10C
330
1F
100
AcDbEntity
  8
0
  6
Continuous
 62
     7
370
    25
100
AcDbLine
 10
13.1632723885
 20
0.1
 30
0.0
 11
13.1632723885
 21
0.0
 31
0.0
  0
SPLINE
  5
10D
330
1F
100
AcDbEntity
  8
0
  6
Continuous
 62
     7
370
    25
100
AcDbSpline
210
0.0
220
0.0
230
1.0
 70
     8
 71
     3
 72
    10
 73
     6
 74
     0
 42
0.00000001
 43
0.00000001
 40
0.0
 40
0.0
 40
0.0
 40
0.0
 40
0.5
 40
0.5
 40
1.0
 40
1.0
 40
1.0
 40
1.0
 10
13.16327238845877
 20
0.0000000000000144
 30
0.0
 10
13.1585535361769
 20
-3.658041640249833
 30
0.0
 10
12.42960767477952
 20
-7.147899912361322
 30
0.0
 10
9.727585717378556
 20
-14.61554778215968
 30
0.0
 10
8.707317684294614
 20
-16.58543373358029
 30
0.0
 10
6.49577261140502
 20
-21.02510838658541
 30
0.0
  0
SPLINE
  5
10E
330
1F
100
AcDbEntity
  8
0
  6
Continuous
 62
     7
370
    25
100
AcDbSpline
210
0.0
220
0.0
230
1.0
 70
     8
 71
     3
 72
    16
 73
    12
 74
     0
 42
0.00000001
 43
0.00000001
 40
0.0
 40
0.0
 40
0.0
 40
0.0
 40
0.1250000000000004
 40
0.1250000000000004
 40
0.2500000000000009
 40
0.2500000000000009
 40
0.5000000000000008
 40
0.5000000000000008
 40
0.7500000000000004
 40
0.7500000000000004
 40
1.0
 40
1.0
 40
1.0
 40
1.0
 10
6.495772388458776
 20
-21.02510883414981
 30
0.0
 10
10.02705156594219
 20
-22.7973687630383
 30
0.0
 10
12.64005682034935
 20
-24.12842696092661
 30
0.0
 10
16.02951948301115
 20
-25.90813989470289
 30
0.0
 10
19.92541819961363
 20
-28.0490426493984
 30
0.0
 10
26.15379738930862
 20
-31.8910376805679
 30
0.0
 10
33.16638383791071
 20
-36.56034148722538
 30
0.0
 10
33.16516079560558
 20
-47.54010481620735
 30
0.0
 10
27.9741335102856
 20
-51.08667142917138
 30
0.0
 10
16.02895601129922
 20
-58.45478376064295
 30
0.0
 10
13.55711547658026
 20
-59.53141657956397
 30
0.0
 10
6.495772835338753
 20
-63.07532627817132
 30
0.0
  0
SPLINE
  5
10F
330
1F
100
AcDbEntity
  8
0
  6
Continuous
 62
     7
370
    25
100
AcDbSpline
210
0.0
220
0.0
230
1.0
 70
     8
 71
     3
 72
    10
 73
     6
 74
     0
 42
0.00000001
 43
0.00000001
 40
0.0
 40
0.0
 40
0.0
 40
0.0
 40
0.5
 40
0.5
 40
1.0
 40
1.0
 40
1.0
 40
1.0
 10
6.495772388458776
 20
-63.07532650244911
 30
0.0
 10
8.684621930263148
 20
-67.46943989895979
 30
0.0
 10
9.691830836836196
 20
-69.41467250025195
 30
0.0
 10
12.38560832321986
 20
-76.80317039321193
 30
0.0
 10
13.11896169122326
 20
-80.2185987671219
 30
0.0
 10
13.16225689591405
 20
-83.86682301621963
 30
0.0
  0
LINE
  5
110
330
1F
100
AcDbEntity
  8
0
  6
Continuous
 62
     7
370
    25
100
AcDbLine
 10
13.1622568959
 20
-83.8668230162
 30
0.0
 11
67.3047757415
 21
-83.8668230162
 31
0.0
  0
MTEXT
  5
112
330
1F
100
AcDbEntity
  8
0
  6
Continuous
 62
     7
100
AcDbMText
 10
6.4957723885
 20
-84.8863894079
 30
0.0
 40
4.83362
 41
0.0
 71
     1
 72
     1
  1
SOLIDWORKS Educational Product.
  7
SLDTEXTSTYLE0
 73
     1
 44
1.0
  0
MTEXT
  5
113
330
1F
100
AcDbEntity
  8
0
  6
Continuous
 62
     7
100
AcDbMText
 10
6.4957723885
 20
-92.1368194079
 30
0.0
 40
4.83362
 41
0.0
 71
     1
 72
     1
  1
For Instructional Use Only.
  7
SLDTEXTSTYLE0
 73
     1
 44
1.0
  0
ENDSEC
  0
SECTION
  2
OBJECTS
  0
DICTIONARY
  5
C
330
0
100
AcDbDictionary
281
     1
  3
ACAD_GROUP
350
D
  3
ACAD_LAYOUT
350
1A
  3
ACAD_MLINESTYLE
350
17
  3
ACAD_PLOTSETTINGS
350
19
  3
ACAD_PLOTSTYLENAME
350
E
  3
ACAD_SCALELIST
350
47
  3
DWGPROPS
350
114
  0
DICTIONARY
  5
D
102
{ACAD_REACTORS
330
C
102
}
330
C
100
AcDbDictionary
281
     1
  0
DICTIONARY
  5
1A
102
{ACAD_REACTORS
330
C
102
}
330
C
100
AcDbDictionary
281
     1
  3
Layout1
350
1E
  3
Layout2
350
26
  3
Model
350
22
  0
DICTIONARY
  5
17
102
{ACAD_REACTORS
330
C
102
}
330
C
100
AcDbDictionary
281
     1
  3
Standard
350
18
  0
DICTIONARY
  5
19
102
{ACAD_REACTORS
330
C
102
}
330
C
100
AcDbDictionary
281
     1
  0
ACDBDICTIONARYWDFLT
  5
E
102
{ACAD_REACTORS
330
C
102
}
330
C
100
AcDbDictionary
281
     1
  3
Normal
350
F
100
AcDbDictionaryWithDefault
340
F
  0
DICTIONARY
  5
47
102
{ACAD_REACTORS
330
C
102
}
330
C
100
AcDbDictionary
281
     1
  3
A0
350
48
  3
A1
350
49
  3
A2
350
4A
  3
A3
350
4B
  3
A4
350
4C
  3
A5
350
4D
  3
A6
350
4E
  3
A7
350
4F
  3
A8
350
50
  3
A9
350
51
  3
B0
350
52
  3
B1
350
53
  3
B2
350
54
  3
B3
350
55
  3
B4
350
56
  3
B5
350
57
  3
B6
350
58
  0
XRECORD
  5
114
102
{ACAD_REACTORS
330
C
102
}
330
C
100
AcDbXrecord
280
     1
  1
DWGPROPS COOKIE
  2

  3

  4

  6

  7

  8
Dell
  9

300
=
301
=
302
=
303
=
304
=
305
=
306
=
307
=
308
=
309
=
 40
0.0
 41
2460369.302462512
 42
2460369.302511042
  1

 90
        0
  0
LAYOUT
  5
1E
102
{ACAD_REACTORS
330
1A
102
}
330
1A
100
AcDbPlotSettings
  1

  2
none_device
  4

  6

 40
0.0
 41
0.0
 42
0.0
 43
0.0
 44
0.0
 45
0.0
 46
0.0
 47
0.0
 48
0.0
 49
0.0
140
0.0
141
0.0
142
1.0
143
1.0
 70
   688
 72
     1
 73
     0
 74
     5
  7

 75
    16
147
1.0
148
0.0
149
0.0
100
AcDbLayout
  1
Layout1
 70
     1
 71
     1
 10
0.0
 20
0.0
 11
420.0
 21
297.0
 12
0.0
 22
0.0
 32
0.0
 14
1.0000000000E+20
 24
1.0000000000E+20
 34
1.0000000000E+20
 15
-1.0000000000E+20
 25
-1.0000000000E+20
 35
-1.0000000000E+20
146
0.0
 13
0.0
 23
0.0
 33
0.0
 16
1.0
 26
0.0
 36
0.0
 17
0.0
 27
1.0
 37
0.0
 76
     0
330
1B
  0
LAYOUT
  5
26
102
{ACAD_REACTORS
330
1A
102
}
330
1A
100
AcDbPlotSettings
  1

  2
none_device
  4

  6

 40
0.0
 41
0.0
 42
0.0
 43
0.0
 44
0.0
 45
0.0
 46
0.0
 47
0.0
 48
0.0
 49
0.0
140
0.0
141
0.0
142
1.0
143
1.0
 70
   688
 72
     1
 73
     0
 74
     5
  7

 75
    16
147
1.0
148
0.0
149
0.0
100
AcDbLayout
  1
Layout2
 70
     1
 71
     2
 10
0.0
 20
0.0
 11
0.0
 21
0.0
 12
0.0
 22
0.0
 32
0.0
 14
0.0
 24
0.0
 34
0.0
 15
0.0
 25
0.0
 35
0.0
146
0.0
 13
0.0
 23
0.0
 33
0.0
 16
1.0
 26
0.0
 36
0.0
 17
0.0
 27
1.0
 37
0.0
 76
     0
330
23
  0
LAYOUT
  5
22
102
{ACAD_REACTORS
330
1A
102
}
330
1A
100
AcDbPlotSettings
  1

  2
none_device
  4
ANSI_A_(11.00_x_8.50_Inches)
  6

 40
6.35
 41
19.05
 42
6.35000508
 43
19.05000254
 44
279.4
 45
215.9
 46
39.4188327975
 47
195.5159446188
 48
0.0
 49
0.0
140
0.0
141
0.0
142
0.100218154
143
1.0
 70
  1696
 72
     0
 73
     0
 74
     0
  7

 75
     0
147
0.0179189148
148
-1300.4909072572
149
0.0
100
AcDbLayout
  1
Model
 70
     1
 71
     0
 10
0.0
 20
0.0
 11
420.0
 21
297.0
 12
0.0
 22
0.0
 32
0.0
 14
6.4957723885
 24
-83.8668230162
 34
0.0
 15
67.3047757415
 25
0.1
 35
0.0
146
0.0
 13
0.0
 23
0.0
 33
0.0
 16
1.0
 26
0.0
 36
0.0
 17
0.0
 27
1.0
 37
0.0
 76
     0
330
1F
331
29
  0
MLINESTYLE
  5
18
102
{ACAD_REACTORS
330
17
102
}
330
17
100
AcDbMlineStyle
  2
Standard
 70
     0
  3

 62
   256
 51
90.0
 52
90.0
 71
     2
 49
0.5
 62
   256
  6
BYLAYER
 49
-0.5
 62
   256
  6
BYLAYER
  0
ACDBPLACEHOLDER
  5
F
102
{ACAD_REACTORS
330
E
102
}
330
E
  0
SCALE
  5
48
102
{ACAD_REACTORS
330
47
102
}
330
47
100
AcDbScale
 70
     0
300
1:1
140
1.0
141
1.0
290
     1
  0
SCALE
  5
49
102
{ACAD_REACTORS
330
47
102
}
330
47
100
AcDbScale
 70
     0
300
1:2
140
1.0
141
2.0
290
     0
  0
SCALE
  5
4A
102
{ACAD_REACTORS
330
47
102
}
330
47
100
AcDbScale
 70
     0
300
1:4
140
1.0
141
4.0
290
     0
  0
SCALE
  5
4B
102
{ACAD_REACTORS
330
47
102
}
330
47
100
AcDbScale
 70
     0
300
1:5
140
1.0
141
5.0
290
     0
  0
SCALE
  5
4C
102
{ACAD_REACTORS
330
47
102
}
330
47
100
AcDbScale
 70
     0
300
1:8
140
1.0
141
8.0
290
     0
  0
SCALE
  5
4D
102
{ACAD_REACTORS
330
47
102
}
330
47
100
AcDbScale
 70
     0
300
1:10
140
1.0
141
10.0
290
     0
  0
SCALE
  5
4E
102
{ACAD_REACTORS
330
47
102
}
330
47
100
AcDbScale
 70
     0
300
1:16
140
1.0
141
16.0
290
     0
  0
SCALE
  5
4F
102
{ACAD_REACTORS
330
47
102
}
330
47
100
AcDbScale
 70
     0
300
1:20
140
1.0
141
20.0
290
     0
  0
SCALE
  5
50
102
{ACAD_REACTORS
330
47
102
}
330
47
100
AcDbScale
 70
     0
300
1:30
140
1.0
141
30.0
290
     0
  0
SCALE
  5
51
102
{ACAD_REACTORS
330
47
102
}
330
47
100
AcDbScale
 70
     0
300
1:40
140
1.0
141
40.0
290
     0
  0
SCALE
  5
52
102
{ACAD_REACTORS
330
47
102
}
330
47
100
AcDbScale
 70
     0
300
1:50
140
1.0
141
50.0
290
     0
  0
SCALE
  5
53
102
{ACAD_REACTORS
330
47
102
}
330
47
100
AcDbScale
 70
     0
300
1:100
140
1.0
141
100.0
290
     0
  0
SCALE
  5
54
102
{ACAD_REACTORS
330
47
102
}
330
47
100
AcDbScale
 70
     0
300
2:1
140
2.0
141
1.0
290
     0
  0
SCALE
  5
55
102
{ACAD_REACTORS
330
47
102
}
330
47
100
AcDbScale
 70
     0
300
4:1
140
4.0
141
1.0
290
     0
  0
SCALE
  5
56
102
{ACAD_REACTORS
330
47
102
}
330
47
100
AcDbScale
 70
     0
300
8:1
140
8.0
141
1.0
290
     0
  0
SCALE
  5
57
102
{ACAD_REACTORS
330
47
102
}
330
47
100
AcDbScale
 70
     0
300
10:1
140
10.0
141
1.0
290
     0
  0
SCALE
  5
58
102
{ACAD_REACTORS
330
47
102
}
330
47
100
AcDbScale
 70
     0
300
100:1
140
100.0
141
1.0
290
     0
  0
ENDSEC
  0
EOF
