  0
SECTION
  2
HEADER
  9
$ACADVER
  1
AC1015
  9
$ACADMAINTVER
 70
     6
  9
$DWGCODEPAGE
  3
ANSI_1252
  9
$INSBASE
 10
0.0
 20
0.0
 30
0.0
  9
$EXTMIN
 10
-374.3119116701
 20
159.6093607112
 30
0.0
  9
$EXTMAX
 10
-274.2146848188
 20
254.7144753562
 30
0.0
  9
$LIMMIN
 10
0.0
 20
0.0
  9
$LIMMAX
 10
420.0
 20
297.0
  9
$ORTHOMODE
 70
     0
  9
$REGENMODE
 70
     1
  9
$FILLMODE
 70
     1
  9
$QTEXTMODE
 70
     0
  9
$MIRRTEXT
 70
     1
  9
$LTSCALE
 40
1.0
  9
$ATTMODE
 70
     1
  9
$TEXTSIZE
 40
3.5
  9
$TRACEWID
 40
1.0
  9
$TEXTSTYLE
  7
Standard
  9
$CLAYER
  8
0
  9
$CELTYPE
  6
ByLayer
  9
$CECOLOR
 62
   256
  9
$CELTSCALE
 40
1.0
  9
$DISPSILH
 70
     0
  9
$DIMSCALE
 40
1.0
  9
$DIMASZ
 40
3.302
  9
$DIMEXO
 40
0.0
  9
$DIMDLI
 40
3.75
  9
$DIMRND
 40
0.0
  9
$DIMDLE
 40
0.0
  9
$DIMEXE
 40
1.0
  9
$DIMTP
 40
0.0
  9
$DIMTM
 40
0.0
  9
$DIMTXT
 40
3.5
  9
$DIMCEN
 40
2.5
  9
$DIMTSZ
 40
0.0
  9
$DIMTOL
 70
     0
  9
$DIMLIM
 70
     0
  9
$DIMTIH
 70
     1
  9
$DIMTOH
 70
     1
  9
$DIMSE1
 70
     0
  9
$DIMSE2
 70
     0
  9
$DIMTAD
 70
     1
  9
$DIMZIN
 70
     1
  9
$DIMBLK
  1

  9
$DIMASO
 70
     1
  9
$DIMSHO
 70
     1
  9
$DIMPOST
  1

  9
$DIMAPOST
  1

  9
$DIMALT
 70
     0
  9
$DIMALTD
 70
     3
  9
$DIMALTF
 40
0.0393700787
  9
$DIMLFAC
 40
1.0
  9
$DIMTOFL
 70
     1
  9
$DIMTVP
 40
0.0
  9
$DIMTIX
 70
     0
  9
$DIMSOXD
 70
     0
  9
$DIMSAH
 70
     0
  9
$DIMBLK1
  1

  9
$DIMBLK2
  1

  9
$DIMSTYLE
  2
ISO-25
  9
$DIMCLRD
 70
     0
  9
$DIMCLRE
 70
     0
  9
$DIMCLRT
 70
     0
  9
$DIMTFAC
 40
1.0
  9
$DIMGAP
 40
1.524
  9
$DIMJUST
 70
     0
  9
$DIMSD1
 70
     0
  9
$DIMSD2
 70
     0
  9
$DIMTOLJ
 70
     0
  9
$DIMTZIN
 70
     1
  9
$DIMALTZ
 70
     0
  9
$DIMALTTZ
 70
     0
  9
$DIMUPT
 70
     0
  9
$DIMDEC
 70
     2
  9
$DIMTDEC
 70
     2
  9
$DIMALTU
 70
     2
  9
$DIMALTTD
 70
     3
  9
$DIMTXSTY
  7
Standard
  9
$DIMAUNIT
 70
     0
  9
$DIMADEC
 70
     2
  9
$DIMALTRND
 40
0.0
  9
$DIMAZIN
 70
     0
  9
$DIMDSEP
 70
    44
  9
$DIMATFIT
 70
     3
  9
$DIMFRAC
 70
     0
  9
$DIMLDRBLK
  1

  9
$DIMLUNIT
 70
     2
  9
$DIMLWD
 70
    -2
  9
$DIMLWE
 70
    -2
  9
$DIMTMOVE
 70
     0
  9
$LUNITS
 70
     2
  9
$LUPREC
 70
     2
  9
$SKETCHINC
 40
1.0
  9
$FILLETRAD
 40
0.0
  9
$AUNITS
 70
     0
  9
$AUPREC
 70
     2
  9
$MENU
  1
.
  9
$ELEVATION
 40
0.0
  9
$PELEVATION
 40
0.0
  9
$THICKNESS
 40
0.0
  9
$LIMCHECK
 70
     0
  9
$CHAMFERA
 40
0.0
  9
$CHAMFERB
 40
0.0
  9
$CHAMFERC
 40
0.0
  9
$CHAMFERD
 40
0.0
  9
$SKPOLY
 70
     0
  9
$TDCREATE
 40
2460371.73700088
  9
$TDUCREATE
 40
2460371.945334213
  9
$TDUPDATE
 40
2460371.737026169
  9
$TDUUPDATE
 40
2460371.945359502
  9
$TDINDWG
 40
0.0000000116
  9
$TDUSRTIMER
 40
0.0000000116
  9
$USRTIMER
 70
     1
  9
$ANGBASE
 50
0.0
  9
$ANGDIR
 70
     0
  9
$PDMODE
 70
     0
  9
$PDSIZE
 40
-1.0
  9
$PLINEWID
 40
0.0
  9
$SPLFRAME
 70
     0
  9
$SPLINETYPE
 70
     6
  9
$SPLINESEGS
 70
     8
  9
$HANDSEED
  5
6E
  9
$SURFTAB1
 70
     6
  9
$SURFTAB2
 70
     6
  9
$SURFTYPE
 70
     6
  9
$SURFU
 70
     6
  9
$SURFV
 70
     6
  9
$UCSBASE
  2

  9
$UCSNAME
  2

  9
$UCSORG
 10
0.0
 20
0.0
 30
0.0
  9
$UCSXDIR
 10
1.0
 20
0.0
 30
0.0
  9
$UCSYDIR
 10
0.0
 20
1.0
 30
0.0
  9
$UCSORTHOREF
  2

  9
$UCSORTHOVIEW
 70
     0
  9
$UCSORGTOP
 10
0.0
 20
0.0
 30
0.0
  9
$UCSORGBOTTOM
 10
0.0
 20
0.0
 30
0.0
  9
$UCSORGLEFT
 10
0.0
 20
0.0
 30
0.0
  9
$UCSORGRIGHT
 10
0.0
 20
0.0
 30
0.0
  9
$UCSORGFRONT
 10
0.0
 20
0.0
 30
0.0
  9
$UCSORGBACK
 10
0.0
 20
0.0
 30
0.0
  9
$PUCSBASE
  2

  9
$PUCSNAME
  2

  9
$PUCSORG
 10
0.0
 20
0.0
 30
0.0
  9
$PUCSXDIR
 10
1.0
 20
0.0
 30
0.0
  9
$PUCSYDIR
 10
0.0
 20
1.0
 30
0.0
  9
$PUCSORTHOREF
  2

  9
$PUCSORTHOVIEW
 70
     0
  9
$PUCSORGTOP
 10
0.0
 20
0.0
 30
0.0
  9
$PUCSORGBOTTOM
 10
0.0
 20
0.0
 30
0.0
  9
$PUCSORGLEFT
 10
0.0
 20
0.0
 30
0.0
  9
$PUCSORGRIGHT
 10
0.0
 20
0.0
 30
0.0
  9
$PUCSORGFRONT
 10
0.0
 20
0.0
 30
0.0
  9
$PUCSORGBACK
 10
0.0
 20
0.0
 30
0.0
  9
$USERI1
 70
     0
  9
$USERI2
 70
     0
  9
$USERI3
 70
     0
  9
$USERI4
 70
     0
  9
$USERI5
 70
     0
  9
$USERR1
 40
0.0
  9
$USERR2
 40
0.0
  9
$USERR3
 40
0.0
  9
$USERR4
 40
0.0
  9
$USERR5
 40
0.0
  9
$WORLDVIEW
 70
     1
  9
$SHADEDGE
 70
     3
  9
$SHADEDIF
 70
    70
  9
$TILEMODE
 70
     1
  9
$MAXACTVP
 70
    64
  9
$PINSBASE
 10
0.0
 20
0.0
 30
0.0
  9
$PLIMCHECK
 70
     0
  9
$PEXTMIN
 10
1.0000000000E+20
 20
1.0000000000E+20
 30
1.0000000000E+20
  9
$PEXTMAX
 10
-1.0000000000E+20
 20
-1.0000000000E+20
 30
-1.0000000000E+20
  9
$PLIMMIN
 10
0.0
 20
0.0
  9
$PLIMMAX
 10
420.0
 20
297.0
  9
$UNITMODE
 70
     0
  9
$VISRETAIN
 70
     1
  9
$PLINEGEN
 70
     0
  9
$PSLTSCALE
 70
     1
  9
$TREEDEPTH
 70
  3020
  9
$CMLSTYLE
  2
Standard
  9
$CMLJUST
 70
     0
  9
$CMLSCALE
 40
20.0
  9
$PROXYGRAPHICS
 70
     1
  9
$MEASUREMENT
 70
     1
  9
$CELWEIGHT
370
    -1
  9
$ENDCAPS
280
     0
  9
$JOINSTYLE
280
     0
  9
$LWDISPLAY
290
     1
  9
$INSUNITS
 70
     4
  9
$HYPERLINKBASE
  1

  9
$STYLESHEET
  1

  9
$XEDIT
290
     1
  9
$CEPSNTYPE
380
     0
  9
$PSTYLEMODE
290
     1
  9
$FINGERPRINTGUID
  2
{69ca481d-11ae-4894-be46-7135bd5ca150}
  9
$VERSIONGUID
  2
{FAEB1C32-E019-11D5-929B-00C0DF256EC4}
  9
$EXTNAMES
290
     1
  9
$PSVPSCALE
 40
0.0
  9
$OLESTARTUP
290
     0
  0
ENDSEC
  0
SECTION
  2
CLASSES
  0
CLASS
  1
ACDBDICTIONARYWDFLT
  2
AcDbDictionaryWithDefault
  3
ObjectDBX Classes
 90
        0
280
     0
281
     0
  0
CLASS
  1
VISUALSTYLE
  2
AcDbVisualStyle
  3
ObjectDBX Classes
 90
     4095
280
     0
281
     0
  0
CLASS
  1
MATERIAL
  2
AcDbMaterial
  3
ObjectDBX Classes
 90
     1153
280
     0
281
     0
  0
CLASS
  1
SCALE
  2
AcDbScale
  3
ObjectDBX Classes
 90
     1153
280
     0
281
     0
  0
CLASS
  1
TABLESTYLE
  2
AcDbTableStyle
  3
ObjectDBX Classes
 90
     4095
280
     0
281
     0
  0
CLASS
  1
MLEADERSTYLE
  2
AcDbMLeaderStyle
  3
ACDB_MLEADERSTYLE_CLASS
 90
     4095
280
     0
281
     0
  0
CLASS
  1
SUN
  2
AcDbSun
  3
SCENEOE
 90
     1153
280
     0
281
     0
  0
CLASS
  1
ACDBPLACEHOLDER
  2
AcDbPlaceHolder
  3
ObjectDBX Classes
 90
        0
280
     0
281
     0
  0
CLASS
  1
LAYOUT
  2
AcDbLayout
  3
ObjectDBX Classes
 90
        0
280
     0
281
     0
  0
ENDSEC
  0
SECTION
  2
TABLES
  0
TABLE
  2
VPORT
  5
8
330
0
100
AcDbSymbolTable
 70
     1
  0
VPORT
  5
29
330
8
100
AcDbSymbolTableRecord
100
AcDbViewportTableRecord
  2
*Active
 70
     0
 10
0.0
 20
0.0
 11
1.0
 21
1.0
 12
-324.2632982445
 22
207.1619180337
 13
0.0
 23
0.0
 14
10.0
 24
10.0
 15
10.0
 25
10.0
 16
0.0
 26
0.0
 36
1.0
 17
0.0
 27
0.0
 37
0.0
 40
97.0072169379
 41
1.0524904704
 42
50.0
 43
0.0
 44
0.0
 50
0.0
 51
0.0
 71
     0
 72
   100
 73
     1
 74
     3
 75
     0
 76
     0
 77
     0
 78
     0
281
     0
 65
     1
110
0.0
120
0.0
130
0.0
111
1.0
121
0.0
131
0.0
112
0.0
122
1.0
132
0.0
 79
     0
146
0.0
  0
ENDTAB
  0
TABLE
  2
LTYPE
  5
5
330
0
100
AcDbSymbolTable
 70
     6
  0
LTYPE
  5
14
330
5
100
AcDbSymbolTableRecord
100
AcDbLinetypeTableRecord
  2
ByBlock
 70
     0
  3

 72
    65
 73
     0
 40
0.0
  0
LTYPE
  5
15
330
5
100
AcDbSymbolTableRecord
100
AcDbLinetypeTableRecord
  2
ByLayer
 70
     0
  3

 72
    65
 73
     0
 40
0.0
  0
LTYPE
  5
16
330
5
100
AcDbSymbolTableRecord
100
AcDbLinetypeTableRecord
  2
Continuous
 70
     0
  3
Solid line
 72
    65
 73
     0
 40
0.0
  0
LTYPE
  5
5E
330
5
100
AcDbSymbolTableRecord
100
AcDbLinetypeTableRecord
  2
HIDDEN
 70
     0
  3
Hidden __ __ __ __ __ __ __ __ __ __ __ __ __ __
 72
    65
 73
     2
 40
1.905
 49
1.27
 74
     0
 49
-0.635
 74
     0
  0
LTYPE
  5
5F
330
5
100
AcDbSymbolTableRecord
100
AcDbLinetypeTableRecord
  2
PHANTOM
 70
     0
  3
Phantom ______  __  __  ______  __  __  ______
 72
    65
 73
     6
 40
12.7
 49
6.35
 74
     0
 49
-1.27
 74
     0
 49
1.27
 74
     0
 49
-1.27
 74
     0
 49
1.27
 74
     0
 49
-1.27
 74
     0
  0
LTYPE
  5
60
330
5
100
AcDbSymbolTableRecord
100
AcDbLinetypeTableRecord
  2
CENTER
 70
     0
  3
Center ____ _ ____ _ ____ _ ____ _ ____ _ ____
 72
    65
 73
     4
 40
10.16
 49
6.35
 74
     0
 49
-1.27
 74
     0
 49
1.27
 74
     0
 49
-1.27
 74
     0
  0
LTYPE
  5
61
330
5
100
AcDbSymbolTableRecord
100
AcDbLinetypeTableRecord
  2
CENTERX2
 70
     0
  3
Center (2x) ________  __  ________  __  _____
 72
    65
 73
     4
 40
20.32
 49
12.7
 74
     0
 49
-2.54
 74
     0
 49
2.54
 74
     0
 49
-2.54
 74
     0
  0
LTYPE
  5
62
330
5
100
AcDbSymbolTableRecord
100
AcDbLinetypeTableRecord
  2
DOT2
 70
     0
  3
Dot (.5x) ........................................
 72
    65
 73
     2
 40
0.635
 49
0.0
 74
     0
 49
-0.635
 74
     0
  0
ENDTAB
  0
TABLE
  2
LAYER
  5
2
330
0
100
AcDbSymbolTable
 70
     1
  0
LAYER
  5
10
330
2
100
AcDbSymbolTableRecord
100
AcDbLayerTableRecord
  2
0
 70
     0
 62
     7
  6
Continuous
370
    -3
390
F
  0
ENDTAB
  0
TABLE
  2
STYLE
  5
3
330
0
100
AcDbSymbolTable
 70
     2
  0
STYLE
  5
11
330
3
100
AcDbSymbolTableRecord
100
AcDbTextStyleTableRecord
  2
Standard
 70
     0
 40
0.0
 41
1.0
 50
0.0
 71
     0
 42
3.5
  3
txt
  4

  0
STYLE
  5
6A
330
3
100
AcDbSymbolTableRecord
100
AcDbTextStyleTableRecord
  2
SLDTEXTSTYLE0
 70
     0
 40
0.0
 41
0.7
 50
0.0
 71
     0
 42
3.5
  3
TXT
  4

  0
ENDTAB
  0
TABLE
  2
VIEW
  5
6
330
0
100
AcDbSymbolTable
 70
     0
  0
ENDTAB
  0
TABLE
  2
UCS
  5
7
330
0
100
AcDbSymbolTable
 70
     0
  0
ENDTAB
  0
TABLE
  2
APPID
  5
9
330
0
100
AcDbSymbolTable
 70
     1
  0
APPID
  5
12
330
9
100
AcDbSymbolTableRecord
100
AcDbRegAppTableRecord
  2
ACAD
 70
     0
  0
ENDTAB
  0
TABLE
  2
DIMSTYLE
  5
A
330
0
100
AcDbSymbolTable
 70
     1
100
AcDbDimStyleTable
  0
DIMSTYLE
105
27
330
A
100
AcDbSymbolTableRecord
100
AcDbDimStyleTableRecord
  2
ISO-25
 70
     0
 41
2.5
 42
0.625
 43
3.75
 44
1.25
 73
     0
 74
     0
 77
     1
 78
     8
140
2.5
141
2.5
143
0.0393700787
147
0.625
171
     3
172
     1
178
     0
271
     2
272
     2
274
     3
278
    44
283
     0
284
     8
340
11
  0
ENDTAB
  0
TABLE
  2
BLOCK_RECORD
  5
1
330
0
100
AcDbSymbolTable
 70
     1
  0
BLOCK_RECORD
  5
1F
330
1
100
AcDbSymbolTableRecord
100
AcDbBlockTableRecord
  2
*Model_Space
340
22
  0
BLOCK_RECORD
  5
1B
330
1
100
AcDbSymbolTableRecord
100
AcDbBlockTableRecord
  2
*Paper_Space
340
1E
  0
BLOCK_RECORD
  5
23
330
1
100
AcDbSymbolTableRecord
100
AcDbBlockTableRecord
  2
*Paper_Space0
340
26
  0
ENDTAB
  0
ENDSEC
  0
SECTION
  2
BLOCKS
  0
BLOCK
  5
20
330
1F
100
AcDbEntity
  8
0
100
AcDbBlockBegin
  2
*Model_Space
 70
     0
 10
0.0
 20
0.0
 30
0.0
  3
*Model_Space
  1

  0
ENDBLK
  5
21
330
1F
100
AcDbEntity
  8
0
100
AcDbBlockEnd
  0
BLOCK
  5
1C
330
1B
100
AcDbEntity
 67
     1
  8
0
100
AcDbBlockBegin
  2
*Paper_Space
 70
     0
 10
0.0
 20
0.0
 30
0.0
  3
*Paper_Space
  1

  0
ENDBLK
  5
1D
330
1B
100
AcDbEntity
 67
     1
  8
0
100
AcDbBlockEnd
  0
BLOCK
  5
24
330
23
100
AcDbEntity
  8
0
100
AcDbBlockBegin
  2
*Paper_Space0
 70
     0
 10
0.0
 20
0.0
 30
0.0
  3
*Paper_Space0
  1

  0
ENDBLK
  5
25
330
23
100
AcDbEntity
  8
0
100
AcDbBlockEnd
  0
ENDSEC
  0
SECTION
  2
ENTITIES
  0
LINE
  5
63
330
1F
100
AcDbEntity
  8
0
  6
Continuous
 62
     7
370
    25
100
AcDbLine
 10
-374.3119116701
 20
211.2029398596
 30
0.0
 11
-372.2519753027
 21
209.6128063477
 31
0.0
  0
LINE
  5
64
330
1F
100
AcDbEntity
  8
0
  6
Continuous
 62
     7
370
    25
100
AcDbLine
 10
-308.0716960686
 20
159.6093607112
 30
0.0
 11
-372.2519753027
 21
209.6128063477
 31
0.0
  0
LINE
  5
65
330
1F
100
AcDbEntity
  8
0
  6
Continuous
 62
     7
370
    25
100
AcDbLine
 10
-274.2146848188
 20
203.4693950202
 30
0.0
 11
-308.0716960686
 21
159.6093607112
 31
0.0
  0
SPLINE
  5
66
330
1F
100
AcDbEntity
  8
0
  6
Continuous
 62
     7
370
    25
100
AcDbSpline
210
0.0
220
0.0
230
1.0
 70
     8
 71
     3
 72
   132
 73
   128
 74
     0
 42
0.00000001
 43
0.00000001
 40
0.0
 40
0.0
 40
0.0
 40
0.0
 40
0.0625
 40
0.0625
 40
0.09375
 40
0.09375
 40
0.109375
 40
0.109375
 40
0.1171875
 40
0.1171875
 40
0.12109375
 40
0.12109375
 40
0.123046875
 40
0.123046875
 40
0.1240234375
 40
0.1240234375
 40
0.12451171875
 40
0.12451171875
 40
0.125
 40
0.125
 40
0.1875
 40
0.1875
 40
0.21875
 40
0.21875
 40
0.234375
 40
0.234375
 40
0.2421875
 40
0.2421875
 40
0.24609375
 40
0.24609375
 40
0.248046875
 40
0.248046875
 40
0.2490234375
 40
0.2490234375
 40
0.25
 40
0.25
 40
0.3125
 40
0.3125
 40
0.34375
 40
0.34375
 40
0.359375
 40
0.359375
 40
0.3671875
 40
0.3671875
 40
0.37109375
 40
0.37109375
 40
0.373046875
 40
0.373046875
 40
0.3740234375
 40
0.3740234375
 40
0.375
 40
0.375
 40
0.40625
 40
0.40625
 40
0.421875
 40
0.421875
 40
0.4296875
 40
0.4296875
 40
0.43359375
 40
0.43359375
 40
0.435546875
 40
0.435546875
 40
0.4375
 40
0.4375
 40
0.5
 40
0.5
 40
0.53125
 40
0.53125
 40
0.546875
 40
0.546875
 40
0.5546875
 40
0.5546875
 40
0.55859375
 40
0.55859375
 40
0.560546875
 40
0.560546875
 40
0.5625
 40
0.5625
 40
0.59375
 40
0.59375
 40
0.609375
 40
0.609375
 40
0.6171875
 40
0.6171875
 40
0.62109375
 40
0.62109375
 40
0.623046875
 40
0.623046875
 40
0.6240234375
 40
0.6240234375
 40
0.625
 40
0.625
 40
0.6875
 40
0.6875
 40
0.71875
 40
0.71875
 40
0.734375
 40
0.734375
 40
0.7421875
 40
0.7421875
 40
0.74609375
 40
0.74609375
 40
0.748046875
 40
0.748046875
 40
0.7490234375
 40
0.7490234375
 40
0.75
 40
0.75
 40
0.8125
 40
0.8125
 40
0.84375
 40
0.84375
 40
0.859375
 40
0.859375
 40
0.8671875
 40
0.8671875
 40
0.87109375
 40
0.87109375
 40
0.873046875
 40
0.873046875
 40
0.8740234375
 40
0.8740234375
 40
0.87451171875
 40
0.87451171875
 40
0.875
 40
0.875
 40
1.0
 40
1.0
 40
1.0
 40
1.0
 10
-307.5011777499125
 20
229.1643399373536
 30
0.0
 10
-307.8786277176686
 20
227.2252058382802
 30
0.0
 10
-308.2031116115177
 20
225.5351951433619
 30
0.0
 10
-308.6103883414312
 20
223.3738642072176
 30
0.0
 10
-308.7329057329256
 20
222.715701412875
 30
0.0
 10
-308.8968195424524
 20
221.8218784979194
 30
0.0
 10
-308.9481470993421
 20
221.5395077390271
 30
0.0
 10
-309.0201728652478
 20
221.1393069198284
 30
0.0
 10
-309.0433538589784
 20
221.0097991999521
 30
0.0
 10
-309.0768839572169
 20
220.8213764499226
 30
0.0
 10
-309.0878537579035
 20
220.7595420048768
 30
0.0
 10
-309.1039981108442
 20
220.6682500447545
 30
0.0
 10
-309.1093278371429
 20
220.6380626759548
 30
0.0
 10
-309.1172448395686
 20
220.5931465496167
 30
0.0
 10
-309.1198709092068
 20
220.5782353286476
 30
0.0
 10
-309.1237906169084
 20
220.5559597289094
 30
0.0
 10
-309.1250939533497
 20
220.5485497342825
 30
0.0
 10
-309.1276941606471
 20
220.5337601556006
 30
0.0
 10
-309.1279679311178
 20
220.5322048426222
 30
0.0
 10
-309.4268271910271
 20
218.8308690125072
 30
0.0
 10
-309.6810921409677
 20
217.2615093544739
 30
0.0
 10
-309.9990732085984
 20
215.0856511507779
 30
0.0
 10
-310.0944975049285
 20
214.3900619634383
 30
0.0
 10
-310.2217798601038
 20
213.3912235032672
 30
0.0
 10
-310.2615649636089
 20
213.0657015700167
 30
0.0
 10
-310.3172790965365
 20
212.5885550003505
 30
0.0
 10
-310.335189887124
 20
212.4313621988299
 30
0.0
 10
-310.3610651924229
 20
212.1983570791016
 30
0.0
 10
-310.3695251474252
 20
212.1211527196176
 30
0.0
 10
-310.3819673597834
 20
212.0060422010296
 30
0.0
 10
-310.3860734772119
 20
211.9677880316066
 30
0.0
 10
-310.3921707233181
 20
211.9105807826317
 30
0.0
 10
-310.3941928170141
 20
211.8915407004999
 30
0.0
 10
-310.3982163610609
 20
211.8535185379564
 30
0.0
 10
-310.3993440827625
 20
211.8428532724095
 30
0.0
 10
-310.5855598089871
 20
210.0703101353032
 30
0.0
 10
-310.6938322531443
 20
208.4659408996823
 30
0.0
 10
-310.7436232822684
 20
206.2707430568537
 30
0.0
 10
-310.7414506857912
 20
205.5742364443445
 30
0.0
 10
-310.7100373817975
 20
204.5823155282315
 30
0.0
 10
-310.6948738789199
 20
204.2604817233023
 30
0.0
 10
-310.6650900222842
 20
203.7909407665712
 30
0.0
 10
-310.6539889696857
 20
203.636628739438
 30
0.0
 10
-310.6355777402081
 20
203.4084631364037
 30
0.0
 10
-310.6291473886189
 20
203.3329583416698
 30
0.0
 10
-310.6190619485901
 20
203.2205267589856
 30
0.0
 10
-310.6156268164731
 20
203.1831871663269
 30
0.0
 10
-310.6103641401363
 20
203.127384179693
 30
0.0
 10
-310.6085915849971
 20
203.1088175845407
 30
0.0
 10
-310.6050098153318
 20
203.0717531950208
 30
0.0
 10
-310.6039356676156
 20
203.0606816658922
 30
0.0
 10
-310.5193695036313
 20
202.2063229118223
 30
0.0
 10
-310.4002356587091
 20
201.4350488011056
 30
0.0
 10
-310.165839453374
 20
200.3639301112388
 30
0.0
 10
-310.0784248119372
 20
200.0211892939847
 30
0.0
 10
-309.9333789902939
 20
199.5285261871556
 30
0.0
 10
-309.8827097398316
 20
199.3678798380544
 30
0.0
 10
-309.803224899266
 20
199.132272344166
 30
0.0
 10
-309.7761497915987
 20
199.0546301844969
 30
0.0
 10
-309.7346668888799
 20
198.9395074524342
 30
0.0
 10
-309.7206942144373
 20
198.9013566263201
 30
0.0
 10
-309.6924587851461
 20
198.8255018099054
 30
0.0
 10
-309.6821063147968
 20
198.7979700701632
 30
0.0
 10
-309.0776096896166
 20
197.2254269127462
 30
0.0
 10
-308.2419793278926
 20
196.0442727929145
 30
0.0
 10
-306.6111073873067
 20
194.7856387538985
 30
0.0
 10
-306.0005502429261
 20
194.4484038498937
 30
0.0
 10
-304.9843147800774
 20
194.0660161573871
 30
0.0
 10
-304.6288363347481
 20
193.959131037135
 30
0.0
 10
-304.0705187301847
 20
193.829669522632
 30
0.0
 10
-303.8802295392352
 20
193.7916600454436
 30
0.0
 10
-303.5885207686689
 20
193.7423623711297
 30
0.0
 10
-303.490238681123
 20
193.7272159032698
 30
0.0
 10
-303.3412468037686
 20
193.7064253368473
 30
0.0
 10
-303.2913213869778
 20
193.6998166706009
 30
0.0
 10
-303.1909476380512
 20
193.6872423832307
 30
0.0
 10
-303.1297287946436
 20
193.6800779831843
 30
0.0
 10
-302.4507610595164
 20
193.6045075493009
 30
0.0
 10
-301.7660591984452
 20
193.5837714537238
 30
0.0
 10
-300.6704963001173
 20
193.6282508383576
 30
0.0
 10
-300.2938903162209
 20
193.6556745545687
 30
0.0
 10
-299.7118538136962
 20
193.7157060108852
 30
0.0
 10
-299.5149870584079
 20
193.7388658099906
 30
0.0
 10
-299.2154050438056
 20
193.7783294791488
 30
0.0
 10
-299.1148307253263
 20
193.7922713639515
 30
0.0
 10
-298.9628987771902
 20
193.8143651837806
 30
0.0
 10
-298.9120763827418
 20
193.8219266224944
 30
0.0
 10
-298.8355751734649
 20
193.8335640287215
 30
0.0
 10
-298.8100301674385
 20
193.8374923721564
 30
0.0
 10
-298.7588509495176
 20
193.8454474750787
 30
0.0
 10
-298.7258701565133
 20
193.8506403485837
 30
0.0
 10
-297.5342749647913
 20
194.0397808257723
 30
0.0
 10
-296.2439632646631
 20
194.3342462678315
 30
0.0
 10
-294.1329226012833
 20
194.9382966584689
 30
0.0
 10
-293.3999801946252
 20
195.1667054932729
 30
0.0
 10
-292.2566733063416
 20
195.5499068023659
 30
0.0
 10
-291.8682554638642
 20
195.6844052482115
 30
0.0
 10
-291.2746553805738
 20
195.8962999312017
 30
0.0
 10
-291.0749597995479
 20
195.9686226612353
 30
0.0
 10
-290.7726730981156
 20
196.0796435098413
 30
0.0
 10
-290.6714536426561
 20
196.1170732516358
 30
0.0
 10
-290.5189386269931
 20
196.1738520527166
 30
0.0
 10
-290.4679859830266
 20
196.1928840178083
 30
0.0
 10
-290.3913855589585
 20
196.2215905125431
 30
0.0
 10
-290.365823507916
 20
196.2311857686375
 30
0.0
 10
-290.314642253125
 20
196.2504291298589
 30
0.0
 10
-290.2812134403032
 20
196.2630230764652
 30
0.0
 10
-289.1217323234526
 20
196.7003878071012
 30
0.0
 10
-287.8761044587421
 20
197.2019065308178
 30
0.0
 10
-285.8516852833434
 20
198.0605086382594
 30
0.0
 10
-285.1508826618216
 20
198.3644300110509
 30
0.0
 10
-284.0606843849559
 20
198.846893075705
 30
0.0
 10
-283.6907859019036
 20
199.0121442648341
 30
0.0
 10
-283.1261895911791
 20
199.2666662998944
 30
0.0
 10
-282.9363660565799
 20
199.3526145201423
 30
0.0
 10
-282.6491936081448
 20
199.4831981633558
 30
0.0
 10
-282.553063267577
 20
199.5270029299005
 30
0.0
 10
-282.4082584700913
 20
199.5931254079281
 30
0.0
 10
-282.3598886564902
 20
199.6152354553057
 30
0.0
 10
-282.2871816144303
 20
199.6485043584247
 30
0.0
 10
-282.2629205468007
 20
199.6596112981398
 30
0.0
 10
-282.2264908649414
 20
199.6762976657257
 30
0.0
 10
-282.2143412909193
 20
199.6818641145898
 30
0.0
 10
-282.1900294494033
 20
199.693005664989
 30
0.0
 10
-282.1724977299586
 20
199.7010427124204
 30
0.0
 10
-280.4251130243447
 20
200.5022355798632
 30
0.0
 10
-277.7747751080644
 20
201.757313855139
 30
0.0
 10
-274.2146848188385
 20
203.4693950202226
 30
0.0
  0
SPLINE
  5
67
330
1F
100
AcDbEntity
  8
0
  6
Continuous
 62
     7
370
    25
100
AcDbSpline
210
0.0
220
0.0
230
1.0
 70
     8
 71
     3
 72
    86
 73
    82
 74
     0
 42
0.00000001
 43
0.00000001
 40
0.0
 40
0.0
 40
0.0
 40
0.0
 40
0.124999998942565
 40
0.124999998942565
 40
0.1259765614343038
 40
0.1259765614343038
 40
0.1269531239260426
 40
0.1269531239260426
 40
0.1289062489095202
 40
0.1289062489095202
 40
0.1328124988764753
 40
0.1328124988764753
 40
0.1406249988103856
 40
0.1406249988103856
 40
0.1562499986782063
 40
0.1562499986782063
 40
0.1874999984138475
 40
0.1874999984138475
 40
0.2499999978851301
 40
0.2499999978851301
 40
0.2539062478520852
 40
0.2539062478520852
 40
0.2578124978190404
 40
0.2578124978190404
 40
0.2656249977529507
 40
0.2656249977529507
 40
0.2812499976207713
 40
0.2812499976207713
 40
0.3124999973564125
 40
0.3124999973564125
 40
0.3749999968276951
 40
0.3749999968276951
 40
0.3828124967616054
 40
0.3828124967616054
 40
0.3906249966955158
 40
0.3906249966955158
 40
0.4062499965633364
 40
0.4062499965633364
 40
0.4374999962989776
 40
0.4374999962989776
 40
0.4999999957702601
 40
0.4999999957702601
 40
0.6249999947128251
 40
0.6249999947128251
 40
0.6328124946467354
 40
0.6328124946467354
 40
0.6406249945806457
 40
0.6406249945806457
 40
0.6562499944484663
 40
0.6562499944484663
 40
0.6874999941841076
 40
0.6874999941841076
 40
0.7499999936553902
 40
0.7499999936553902
 40
0.7539062436223454
 40
0.7539062436223454
 40
0.7578124935893005
 40
0.7578124935893005
 40
0.7656249935232109
 40
0.7656249935232109
 40
0.7812499933910315
 40
0.7812499933910315
 40
0.8124999931266728
 40
0.8124999931266728
 40
0.8749999925979552
 40
0.8749999925979552
 40
0.8759765550896941
 40
0.8759765550896941
 40
0.8769531175814328
 40
0.8769531175814328
 40
0.8789062425649103
 40
0.8789062425649103
 40
0.8828124925318656
 40
0.8828124925318656
 40
0.8906249924657759
 40
0.8906249924657759
 40
0.9062499923335965
 40
0.9062499923335965
 40
0.9374999920692377
 40
0.9374999920692377
 40
0.9999999915405202
 40
0.9999999915405202
 40
0.9999999915405202
 40
0.9999999915405202
 10
-340.6738503347803
 20
254.6244227527969
 30
0.0
 10
-339.6202603866577
 20
252.450744075541
 30
0.0
 10
-338.7981059656266
 20
250.798790781196
 30
0.0
 10
-338.2027720803281
 20
249.6597329642037
 30
0.0
 10
-338.1924817250996
 20
249.6400538815612
 30
0.0
 10
-338.1775829695659
 20
249.6115861510608
 30
0.0
 10
-338.1701357918911
 20
249.5973660442587
 30
0.0
 10
-338.1478008591416
 20
249.5547469991963
 30
0.0
 10
-338.1329197043428
 20
249.52638933628
 30
0.0
 10
-338.0883026410476
 20
249.4414814489076
 30
0.0
 10
-338.0585931336532
 20
249.3850963258276
 30
0.0
 10
-337.9695702158777
 20
249.2166013620924
 30
0.0
 10
-337.9103624099038
 20
249.1051519269421
 30
0.0
 10
-337.7331614096117
 20
248.7734452435102
 30
0.0
 10
-337.6155906329229
 20
248.555829617248
 30
0.0
 10
-337.2645679733744
 20
247.9135492265387
 30
0.0
 10
-337.0328057610328
 20
247.4994509501687
 30
0.0
 10
-336.3442778060792
 20
246.2994220733675
 30
0.0
 10
-335.8942707455389
 20
245.5557574252448
 30
0.0
 10
-335.4257130433163
 20
244.8254905023853
 30
0.0
 10
-335.3866942727694
 20
244.7649125513633
 30
0.0
 10
-335.3200033969146
 20
244.6619097995175
 30
0.0
 10
-335.2866213329018
 20
244.6105857874099
 30
0.0
 10
-335.1863652626078
 20
244.4571458425325
 30
0.0
 10
-335.1193813780706
 20
244.3555620012084
 30
0.0
 10
-334.9179902114352
 20
244.0529388430191
 30
0.0
 10
-334.7831434163136
 20
243.8540278919364
 30
0.0
 10
-334.3768449788545
 20
243.2658085018192
 30
0.0
 10
-334.1036352844226
 20
242.8850135259155
 30
0.0
 10
-333.2769739927496
 20
241.776682450727
 30
0.0
 10
-332.7164901871313
 20
241.0832002039654
 30
0.0
 10
-332.0753975932448
 20
240.3541134551432
 30
0.0
 10
-331.9899186047008
 20
240.2579489555864
 30
0.0
 10
-331.8321166919891
 20
240.0826758565939
 30
0.0
 10
-331.7528522672065
 20
239.9956729900773
 30
0.0
 10
-331.5139685875788
 20
239.7365654394665
 30
0.0
 10
-331.3532589274537
 20
239.5663618043112
 30
0.0
 10
-330.8667683259584
 20
239.0633550946012
 30
0.0
 10
-330.5366257634682
 20
238.7381562158022
 30
0.0
 10
-329.5287515915178
 20
237.7929763624283
 30
0.0
 10
-328.8335734975776
 20
237.2034121708765
 30
0.0
 10
-326.6782532778375
 20
235.5563867283135
 30
0.0
 10
-325.112274445288
 20
234.5918707130439
 30
0.0
 10
-323.303195497764
 20
233.702758712998
 30
0.0
 10
-323.2156371670443
 20
233.6603595913455
 30
0.0
 10
-323.0197050174223
 20
233.5665978404509
 30
0.0
 10
-322.9210864659344
 20
233.5200296539732
 30
0.0
 10
-322.6232733814404
 20
233.3812631614493
 30
0.0
 10
-322.422121418404
 20
233.2900029223121
 30
0.0
 10
-321.8108358091728
 20
233.019974472536
 30
0.0
 10
-321.3928724428562
 20
232.844958529533
 30
0.0
 10
-320.1076634634202
 20
232.3349197710679
 30
0.0
 10
-319.209098969814
 20
232.0149060261489
 30
0.0
 10
-318.2100057813341
 20
231.6961542721092
 30
0.0
 10
-318.1716184805381
 20
231.6839980031265
 30
0.0
 10
-318.0737829081976
 20
231.6531478629458
 30
0.0
 10
-318.0246390772953
 20
231.6377415315093
 30
0.0
 10
-317.8765294503906
 20
231.5915787531614
 30
0.0
 10
-317.7768855201914
 20
231.5608785222115
 30
0.0
 10
-317.475241192806
 20
231.4690026932085
 30
0.0
 10
-317.2705282588316
 20
231.4080519590017
 30
0.0
 10
-316.6455393097563
 20
231.2260992117673
 30
0.0
 10
-316.2144131475031
 20
231.1059966541253
 30
0.0
 10
-314.8776340721349
 20
230.7492868027424
 30
0.0
 10
-313.928580570411
 20
230.5162773305445
 30
0.0
 10
-312.9059264773149
 20
230.2844991353497
 30
0.0
 10
-312.9029489577593
 20
230.2838264310886
 30
0.0
 10
-312.8841264301255
 20
230.2795689502986
 30
0.0
 10
-312.8746778284296
 20
230.2774338795346
 30
0.0
 10
-312.8462200097062
 20
230.2710096761354
 30
0.0
 10
-312.8270987790424
 20
230.2667015523933
 30
0.0
 10
-312.769287032506
 20
230.2537012167385
 30
0.0
 10
-312.7301484620884
 20
230.2449330403978
 30
0.0
 10
-312.6109405326559
 20
230.2183246536623
 30
0.0
 10
-312.5290789554614
 20
230.2001805855548
 30
0.0
 10
-312.2763253511595
 20
230.1445329503806
 30
0.0
 10
-312.0982644513335
 20
230.1058139524622
 30
0.0
 10
-311.5354062609806
 20
229.9847952353003
 30
0.0
 10
-311.1219334795791
 20
229.8976337926501
 30
0.0
 10
-309.7668131718771
 20
229.6167025710721
 30
0.0
 10
-308.7104636820784
 20
229.4034858985174
 30
0.0
 10
-307.501178240949
 20
229.16434003446
 30
0.0
  0
LINE
  5
68
330
1F
100
AcDbEntity
  8
0
  6
Continuous
 62
     7
370
    25
100
AcDbLine
 10
-340.7173305442
 20
254.7144753562
 30
0.0
 11
-340.6738503348
 21
254.6244227528
 31
0.0
  0
SPLINE
  5
69
330
1F
100
AcDbEntity
  8
0
  6
Continuous
 62
     7
370
    25
100
AcDbSpline
210
0.0
220
0.0
230
1.0
 70
     8
 71
     3
 72
     8
 73
     4
 74
     0
 42
0.00000001
 43
0.00000001
 40
0.9119827932122759
 40
0.9119827932122759
 40
0.9119827932122759
 40
0.9119827932122759
 40
1.0
 40
1.0
 40
1.0
 40
1.0
 10
-374.3119116701489
 20
211.2029398595893
 30
0.0
 10
-363.1138646066597
 20
225.7068982434483
 30
0.0
 10
-351.9155975754522
 20
240.2106867998386
 30
0.0
 10
-340.7173305442449
 20
254.714475356229
 30
0.0
  0
MTEXT
  5
6B
330
1F
100
AcDbEntity
  8
0
  6
Continuous
 62
     7
100
AcDbMText
 10
-374.3119116701
 20
158.5897943195
 30
0.0
 40
4.83362
 41
0.0
 71
     1
 72
     1
  1
SOLIDWORKS Educational Product.
  7
SLDTEXTSTYLE0
 73
     1
 44
1.0
  0
MTEXT
  5
6C
330
1F
100
AcDbEntity
  8
0
  6
Continuous
 62
     7
100
AcDbMText
 10
-374.3119116701
 20
151.3393643195
 30
0.0
 40
4.83362
 41
0.0
 71
     1
 72
     1
  1
For Instructional Use Only.
  7
SLDTEXTSTYLE0
 73
     1
 44
1.0
  0
ENDSEC
  0
SECTION
  2
OBJECTS
  0
DICTIONARY
  5
C
330
0
100
AcDbDictionary
281
     1
  3
ACAD_GROUP
350
D
  3
ACAD_LAYOUT
350
1A
  3
ACAD_MLINESTYLE
350
17
  3
ACAD_PLOTSETTINGS
350
19
  3
ACAD_PLOTSTYLENAME
350
E
  3
ACAD_SCALELIST
350
47
  3
DWGPROPS
350
6D
  0
DICTIONARY
  5
D
102
{ACAD_REACTORS
330
C
102
}
330
C
100
AcDbDictionary
281
     1
  0
DICTIONARY
  5
1A
102
{ACAD_REACTORS
330
C
102
}
330
C
100
AcDbDictionary
281
     1
  3
Layout1
350
1E
  3
Layout2
350
26
  3
Model
350
22
  0
DICTIONARY
  5
17
102
{ACAD_REACTORS
330
C
102
}
330
C
100
AcDbDictionary
281
     1
  3
Standard
350
18
  0
DICTIONARY
  5
19
102
{ACAD_REACTORS
330
C
102
}
330
C
100
AcDbDictionary
281
     1
  0
ACDBDICTIONARYWDFLT
  5
E
102
{ACAD_REACTORS
330
C
102
}
330
C
100
AcDbDictionary
281
     1
  3
Normal
350
F
100
AcDbDictionaryWithDefault
340
F
  0
DICTIONARY
  5
47
102
{ACAD_REACTORS
330
C
102
}
330
C
100
AcDbDictionary
281
     1
  3
A0
350
48
  3
A1
350
49
  3
A2
350
4A
  3
A3
350
4B
  3
A4
350
4C
  3
A5
350
4D
  3
A6
350
4E
  3
A7
350
4F
  3
A8
350
50
  3
A9
350
51
  3
B0
350
52
  3
B1
350
53
  3
B2
350
54
  3
B3
350
55
  3
B4
350
56
  3
B5
350
57
  3
B6
350
58
  0
XRECORD
  5
6D
102
{ACAD_REACTORS
330
C
102
}
330
C
100
AcDbXrecord
280
     1
  1
DWGPROPS COOKIE
  2

  3

  4

  6

  7

  8
Dell
  9

300
=
301
=
302
=
303
=
304
=
305
=
306
=
307
=
308
=
309
=
 40
0.0
 41
2460371.945334213
 42
2460371.945359502
  1

 90
        0
  0
LAYOUT
  5
1E
102
{ACAD_REACTORS
330
1A
102
}
330
1A
100
AcDbPlotSettings
  1

  2
none_device
  4

  6

 40
0.0
 41
0.0
 42
0.0
 43
0.0
 44
0.0
 45
0.0
 46
0.0
 47
0.0
 48
0.0
 49
0.0
140
0.0
141
0.0
142
1.0
143
1.0
 70
   688
 72
     1
 73
     0
 74
     5
  7

 75
    16
147
1.0
148
0.0
149
0.0
100
AcDbLayout
  1
Layout1
 70
     1
 71
     1
 10
0.0
 20
0.0
 11
420.0
 21
297.0
 12
0.0
 22
0.0
 32
0.0
 14
1.0000000000E+20
 24
1.0000000000E+20
 34
1.0000000000E+20
 15
-1.0000000000E+20
 25
-1.0000000000E+20
 35
-1.0000000000E+20
146
0.0
 13
0.0
 23
0.0
 33
0.0
 16
1.0
 26
0.0
 36
0.0
 17
0.0
 27
1.0
 37
0.0
 76
     0
330
1B
  0
LAYOUT
  5
26
102
{ACAD_REACTORS
330
1A
102
}
330
1A
100
AcDbPlotSettings
  1

  2
none_device
  4

  6

 40
0.0
 41
0.0
 42
0.0
 43
0.0
 44
0.0
 45
0.0
 46
0.0
 47
0.0
 48
0.0
 49
0.0
140
0.0
141
0.0
142
1.0
143
1.0
 70
   688
 72
     1
 73
     0
 74
     5
  7

 75
    16
147
1.0
148
0.0
149
0.0
100
AcDbLayout
  1
Layout2
 70
     1
 71
     2
 10
0.0
 20
0.0
 11
0.0
 21
0.0
 12
0.0
 22
0.0
 32
0.0
 14
0.0
 24
0.0
 34
0.0
 15
0.0
 25
0.0
 35
0.0
146
0.0
 13
0.0
 23
0.0
 33
0.0
 16
1.0
 26
0.0
 36
0.0
 17
0.0
 27
1.0
 37
0.0
 76
     0
330
23
  0
LAYOUT
  5
22
102
{ACAD_REACTORS
330
1A
102
}
330
1A
100
AcDbPlotSettings
  1

  2
none_device
  4
ANSI_A_(11.00_x_8.50_Inches)
  6

 40
6.35
 41
19.05
 42
6.35000508
 43
19.05000254
 44
279.4
 45
215.9
 46
862.1053529293
 47
-376.6795412108
 48
0.0
 49
0.0
140
0.0
141
0.0
142
0.0884810458
143
1.0
 70
  1696
 72
     0
 73
     0
 74
     0
  7

 75
     0
147
0.0179189148
148
-1300.4909072572
149
0.0
100
AcDbLayout
  1
Model
 70
     1
 71
     0
 10
0.0
 20
0.0
 11
420.0
 21
297.0
 12
0.0
 22
0.0
 32
0.0
 14
-374.3119116701
 24
159.6093607112
 34
0.0
 15
-274.2146848188
 25
254.7144753562
 35
0.0
146
0.0
 13
0.0
 23
0.0
 33
0.0
 16
1.0
 26
0.0
 36
0.0
 17
0.0
 27
1.0
 37
0.0
 76
     0
330
1F
331
29
  0
MLINESTYLE
  5
18
102
{ACAD_REACTORS
330
17
102
}
330
17
100
AcDbMlineStyle
  2
Standard
 70
     0
  3

 62
   256
 51
90.0
 52
90.0
 71
     2
 49
0.5
 62
   256
  6
BYLAYER
 49
-0.5
 62
   256
  6
BYLAYER
  0
ACDBPLACEHOLDER
  5
F
102
{ACAD_REACTORS
330
E
102
}
330
E
  0
SCALE
  5
48
102
{ACAD_REACTORS
330
47
102
}
330
47
100
AcDbScale
 70
     0
300
1:1
140
1.0
141
1.0
290
     1
  0
SCALE
  5
49
102
{ACAD_REACTORS
330
47
102
}
330
47
100
AcDbScale
 70
     0
300
1:2
140
1.0
141
2.0
290
     0
  0
SCALE
  5
4A
102
{ACAD_REACTORS
330
47
102
}
330
47
100
AcDbScale
 70
     0
300
1:4
140
1.0
141
4.0
290
     0
  0
SCALE
  5
4B
102
{ACAD_REACTORS
330
47
102
}
330
47
100
AcDbScale
 70
     0
300
1:5
140
1.0
141
5.0
290
     0
  0
SCALE
  5
4C
102
{ACAD_REACTORS
330
47
102
}
330
47
100
AcDbScale
 70
     0
300
1:8
140
1.0
141
8.0
290
     0
  0
SCALE
  5
4D
102
{ACAD_REACTORS
330
47
102
}
330
47
100
AcDbScale
 70
     0
300
1:10
140
1.0
141
10.0
290
     0
  0
SCALE
  5
4E
102
{ACAD_REACTORS
330
47
102
}
330
47
100
AcDbScale
 70
     0
300
1:16
140
1.0
141
16.0
290
     0
  0
SCALE
  5
4F
102
{ACAD_REACTORS
330
47
102
}
330
47
100
AcDbScale
 70
     0
300
1:20
140
1.0
141
20.0
290
     0
  0
SCALE
  5
50
102
{ACAD_REACTORS
330
47
102
}
330
47
100
AcDbScale
 70
     0
300
1:30
140
1.0
141
30.0
290
     0
  0
SCALE
  5
51
102
{ACAD_REACTORS
330
47
102
}
330
47
100
AcDbScale
 70
     0
300
1:40
140
1.0
141
40.0
290
     0
  0
SCALE
  5
52
102
{ACAD_REACTORS
330
47
102
}
330
47
100
AcDbScale
 70
     0
300
1:50
140
1.0
141
50.0
290
     0
  0
SCALE
  5
53
102
{ACAD_REACTORS
330
47
102
}
330
47
100
AcDbScale
 70
     0
300
1:100
140
1.0
141
100.0
290
     0
  0
SCALE
  5
54
102
{ACAD_REACTORS
330
47
102
}
330
47
100
AcDbScale
 70
     0
300
2:1
140
2.0
141
1.0
290
     0
  0
SCALE
  5
55
102
{ACAD_REACTORS
330
47
102
}
330
47
100
AcDbScale
 70
     0
300
4:1
140
4.0
141
1.0
290
     0
  0
SCALE
  5
56
102
{ACAD_REACTORS
330
47
102
}
330
47
100
AcDbScale
 70
     0
300
8:1
140
8.0
141
1.0
290
     0
  0
SCALE
  5
57
102
{ACAD_REACTORS
330
47
102
}
330
47
100
AcDbScale
 70
     0
300
10:1
140
10.0
141
1.0
290
     0
  0
SCALE
  5
58
102
{ACAD_REACTORS
330
47
102
}
330
47
100
AcDbScale
 70
     0
300
100:1
140
100.0
141
1.0
290
     0
  0
ENDSEC
  0
EOF
